  0
SECTION
  2
HEADER
  9
$ACADVER
  1
AC1027
  9
$ACADMAINTVER
 70
105
  9
$DWGCODEPAGE
  3
ANSI_1252
  9
$LASTSAVEDBY
  1
ezdxf
  9
$REQUIREDVERSIONS
160
0
  9
$INSBASE
 10
0.0
 20
0.0
 30
0.0
  9
$EXTMIN
 10
1e+20
 20
1e+20
 30
1e+20
  9
$EXTMAX
 10
-1e+20
 20
-1e+20
 30
-1e+20
  9
$LIMMIN
 10
0.0
 20
0.0
  9
$LIMMAX
 10
420.0
 20
297.0
  9
$ORTHOMODE
 70
0
  9
$REGENMODE
 70
1
  9
$FILLMODE
 70
1
  9
$QTEXTMODE
 70
0
  9
$MIRRTEXT
 70
1
  9
$LTSCALE
 40
1.0
  9
$ATTMODE
 70
1
  9
$TEXTSIZE
 40
2.5
  9
$TRACEWID
 40
1.0
  9
$TEXTSTYLE
  7
Standard
  9
$CLAYER
  8
0
  9
$CELTYPE
  6
ByLayer
  9
$CECOLOR
 62
256
  9
$CELTSCALE
 40
1.0
  9
$DISPSILH
 70
0
  9
$DIMSCALE
 40
1.0
  9
$DIMASZ
 40
2.5
  9
$DIMEXO
 40
0.625
  9
$DIMDLI
 40
3.75
  9
$DIMRND
 40
0.0
  9
$DIMDLE
 40
0.0
  9
$DIMEXE
 40
1.25
  9
$DIMTP
 40
0.0
  9
$DIMTM
 40
0.0
  9
$DIMTXT
 40
2.5
  9
$DIMCEN
 40
2.5
  9
$DIMTSZ
 40
0.0
  9
$DIMTOL
 70
0
  9
$DIMLIM
 70
0
  9
$DIMTIH
 70
0
  9
$DIMTOH
 70
0
  9
$DIMSE1
 70
0
  9
$DIMSE2
 70
0
  9
$DIMTAD
 70
1
  9
$DIMZIN
 70
8
  9
$DIMBLK
  1

  9
$DIMASO
 70
1
  9
$DIMSHO
 70
1
  9
$DIMPOST
  1

  9
$DIMAPOST
  1

  9
$DIMALT
 70
0
  9
$DIMALTD
 70
3
  9
$DIMALTF
 40
0.03937007874
  9
$DIMLFAC
 40
1.0
  9
$DIMTOFL
 70
1
  9
$DIMTVP
 40
0.0
  9
$DIMTIX
 70
0
  9
$DIMSOXD
 70
0
  9
$DIMSAH
 70
0
  9
$DIMBLK1
  1

  9
$DIMBLK2
  1

  9
$DIMSTYLE
  2
ISO-25
  9
$DIMCLRD
 70
0
  9
$DIMCLRE
 70
0
  9
$DIMCLRT
 70
0
  9
$DIMTFAC
 40
1.0
  9
$DIMGAP
 40
0.625
  9
$DIMJUST
 70
0
  9
$DIMSD1
 70
0
  9
$DIMSD2
 70
0
  9
$DIMTOLJ
 70
0
  9
$DIMTZIN
 70
8
  9
$DIMALTZ
 70
0
  9
$DIMALTTZ
 70
0
  9
$DIMUPT
 70
0
  9
$DIMDEC
 70
2
  9
$DIMTDEC
 70
2
  9
$DIMALTU
 70
2
  9
$DIMALTTD
 70
3
  9
$DIMTXSTY
  7
Standard
  9
$DIMAUNIT
 70
0
  9
$DIMADEC
 70
0
  9
$DIMALTRND
 40
0.0
  9
$DIMAZIN
 70
0
  9
$DIMDSEP
 70
44
  9
$DIMATFIT
 70
3
  9
$DIMFRAC
 70
0
  9
$DIMLDRBLK
  1

  9
$DIMLUNIT
 70
2
  9
$DIMLWD
 70
-2
  9
$DIMLWE
 70
-2
  9
$DIMTMOVE
 70
0
  9
$DIMFXL
 40
1.0
  9
$DIMFXLON
 70
0
  9
$DIMJOGANG
 40
0.785398163397
  9
$DIMTFILL
 70
0
  9
$DIMTFILLCLR
 70
0
  9
$DIMARCSYM
 70
0
  9
$DIMLTYPE
  6

  9
$DIMLTEX1
  6

  9
$DIMLTEX2
  6

  9
$DIMTXTDIRECTION
 70
0
  9
$LUNITS
 70
2
  9
$LUPREC
 70
4
  9
$SKETCHINC
 40
1.0
  9
$FILLETRAD
 40
10.0
  9
$AUNITS
 70
0
  9
$AUPREC
 70
2
  9
$MENU
  1
.
  9
$ELEVATION
 40
0.0
  9
$PELEVATION
 40
0.0
  9
$THICKNESS
 40
0.0
  9
$LIMCHECK
 70
0
  9
$CHAMFERA
 40
0.0
  9
$CHAMFERB
 40
0.0
  9
$CHAMFERC
 40
0.0
  9
$CHAMFERD
 40
0.0
  9
$SKPOLY
 70
0
  9
$TDCREATE
 40
2461319.920127315
  9
$TDUCREATE
 40
2458532.153996898
  9
$TDUPDATE
 40
2461319.920127315
  9
$TDUUPDATE
 40
2458532.1544311
  9
$TDINDWG
 40
0.0
  9
$TDUSRTIMER
 40
0.0
  9
$USRTIMER
 70
1
  9
$ANGBASE
 50
0.0
  9
$ANGDIR
 70
0
  9
$PDMODE
 70
0
  9
$PDSIZE
 40
0.0
  9
$PLINEWID
 40
0.0
  9
$SPLFRAME
 70
0
  9
$SPLINETYPE
 70
6
  9
$SPLINESEGS
 70
8
  9
$HANDSEED
  5
250
  9
$SURFTAB1
 70
6
  9
$SURFTAB2
 70
6
  9
$SURFTYPE
 70
6
  9
$SURFU
 70
6
  9
$SURFV
 70
6
  9
$UCSBASE
  2

  9
$UCSNAME
  2

  9
$UCSORG
 10
0.0
 20
0.0
 30
0.0
  9
$UCSXDIR
 10
1.0
 20
0.0
 30
0.0
  9
$UCSYDIR
 10
0.0
 20
1.0
 30
0.0
  9
$UCSORTHOREF
  2

  9
$UCSORTHOVIEW
 70
0
  9
$UCSORGTOP
 10
0.0
 20
0.0
 30
0.0
  9
$UCSORGBOTTOM
 10
0.0
 20
0.0
 30
0.0
  9
$UCSORGLEFT
 10
0.0
 20
0.0
 30
0.0
  9
$UCSORGRIGHT
 10
0.0
 20
0.0
 30
0.0
  9
$UCSORGFRONT
 10
0.0
 20
0.0
 30
0.0
  9
$UCSORGBACK
 10
0.0
 20
0.0
 30
0.0
  9
$PUCSBASE
  2

  9
$PUCSNAME
  2

  9
$PUCSORG
 10
0.0
 20
0.0
 30
0.0
  9
$PUCSXDIR
 10
1.0
 20
0.0
 30
0.0
  9
$PUCSYDIR
 10
0.0
 20
1.0
 30
0.0
  9
$PUCSORTHOREF
  2

  9
$PUCSORTHOVIEW
 70
0
  9
$PUCSORGTOP
 10
0.0
 20
0.0
 30
0.0
  9
$PUCSORGBOTTOM
 10
0.0
 20
0.0
 30
0.0
  9
$PUCSORGLEFT
 10
0.0
 20
0.0
 30
0.0
  9
$PUCSORGRIGHT
 10
0.0
 20
0.0
 30
0.0
  9
$PUCSORGFRONT
 10
0.0
 20
0.0
 30
0.0
  9
$PUCSORGBACK
 10
0.0
 20
0.0
 30
0.0
  9
$USERI1
 70
0
  9
$USERI2
 70
0
  9
$USERI3
 70
0
  9
$USERI4
 70
0
  9
$USERI5
 70
0
  9
$USERR1
 40
0.0
  9
$USERR2
 40
0.0
  9
$USERR3
 40
0.0
  9
$USERR4
 40
0.0
  9
$USERR5
 40
0.0
  9
$WORLDVIEW
 70
1
  9
$SHADEDGE
 70
3
  9
$SHADEDIF
 70
70
  9
$TILEMODE
 70
1
  9
$MAXACTVP
 70
64
  9
$PINSBASE
 10
0.0
 20
0.0
 30
0.0
  9
$PLIMCHECK
 70
0
  9
$PEXTMIN
 10
1e+20
 20
1e+20
 30
1e+20
  9
$PEXTMAX
 10
-1e+20
 20
-1e+20
 30
-1e+20
  9
$PLIMMIN
 10
0.0
 20
0.0
  9
$PLIMMAX
 10
420.0
 20
297.0
  9
$UNITMODE
 70
0
  9
$VISRETAIN
 70
1
  9
$PLINEGEN
 70
0
  9
$PSLTSCALE
 70
1
  9
$TREEDEPTH
 70
3020
  9
$CMLSTYLE
  2
Standard
  9
$CMLJUST
 70
0
  9
$CMLSCALE
 40
20.0
  9
$PROXYGRAPHICS
 70
1
  9
$MEASUREMENT
 70
0
  9
$CELWEIGHT
370
-1
  9
$ENDCAPS
280
0
  9
$JOINSTYLE
280
0
  9
$LWDISPLAY
290
0
  9
$INSUNITS
 70
1
  9
$HYPERLINKBASE
  1

  9
$STYLESHEET
  1

  9
$XEDIT
290
1
  9
$CEPSNTYPE
380
0
  9
$PSTYLEMODE
290
1
  9
$FINGERPRINTGUID
  2
{CC996A7A-EB2C-4DF2-8BD4-01721B4BADF3}
  9
$VERSIONGUID
  2
{74F70D65-E6D3-492E-A3BE-0605E1104769}
  9
$EXTNAMES
290
1
  9
$PSVPSCALE
 40
0.0
  9
$OLESTARTUP
290
0
  9
$SORTENTS
280
127
  9
$INDEXCTL
280
0
  9
$HIDETEXT
280
1
  9
$XCLIPFRAME
280
1
  9
$HALOGAP
280
0
  9
$OBSCOLOR
 70
257
  9
$OBSLTYPE
280
0
  9
$INTERSECTIONDISPLAY
280
0
  9
$INTERSECTIONCOLOR
 70
257
  9
$DIMASSOC
280
2
  9
$PROJECTNAME
  1

  9
$CAMERADISPLAY
290
0
  9
$LENSLENGTH
 40
50.0
  9
$CAMERAHEIGHT
 40
0.0
  9
$STEPSPERSEC
 40
24.0
  9
$STEPSIZE
 40
100.0
  9
$3DDWFPREC
 40
2.0
  9
$PSOLWIDTH
 40
0.005
  9
$PSOLHEIGHT
 40
0.08
  9
$LOFTANG1
 40
1.570796326795
  9
$LOFTANG2
 40
1.570796326795
  9
$LOFTMAG1
 40
0.0
  9
$LOFTMAG2
 40
0.0
  9
$LOFTPARAM
 70
7
  9
$LOFTNORMALS
280
1
  9
$LATITUDE
 40
37.795
  9
$LONGITUDE
 40
-122.394
  9
$NORTHDIRECTION
 40
0.0
  9
$TIMEZONE
 70
-8000
  9
$LIGHTGLYPHDISPLAY
280
1
  9
$TILEMODELIGHTSYNCH
280
1
  9
$CMATERIAL
347
20
  9
$SOLIDHIST
280
0
  9
$SHOWHIST
280
1
  9
$DWFFRAME
280
2
  9
$DGNFRAME
280
2
  9
$REALWORLDSCALE
290
1
  9
$INTERFERECOLOR
 62
256
  9
$CSHADOW
280
0
  9
$SHADOWPLANELOCATION
 40
0.0
  0
ENDSEC
  0
SECTION
  2
CLASSES
  0
CLASS
  1
ACDBDICTIONARYWDFLT
  2
AcDbDictionaryWithDefault
  3
ObjectDBX Classes
 90
0
 91
0
280
0
281
0
  0
CLASS
  1
SUN
  2
AcDbSun
  3
SCENEOE
 90
1153
 91
0
280
0
281
0
  0
CLASS
  1
VISUALSTYLE
  2
AcDbVisualStyle
  3
ObjectDBX Classes
 90
4095
 91
0
280
0
281
0
  0
CLASS
  1
MATERIAL
  2
AcDbMaterial
  3
ObjectDBX Classes
 90
1153
 91
0
280
0
281
0
  0
CLASS
  1
SCALE
  2
AcDbScale
  3
ObjectDBX Classes
 90
1153
 91
0
280
0
281
0
  0
CLASS
  1
TABLESTYLE
  2
AcDbTableStyle
  3
ObjectDBX Classes
 90
4095
 91
0
280
0
281
0
  0
CLASS
  1
MLEADERSTYLE
  2
AcDbMLeaderStyle
  3
ACDB_MLEADERSTYLE_CLASS
 90
4095
 91
0
280
0
281
0
  0
CLASS
  1
DICTIONARYVAR
  2
AcDbDictionaryVar
  3
ObjectDBX Classes
 90
0
 91
0
280
0
281
0
  0
CLASS
  1
CELLSTYLEMAP
  2
AcDbCellStyleMap
  3
ObjectDBX Classes
 90
1152
 91
0
280
0
281
0
  0
CLASS
  1
MENTALRAYRENDERSETTINGS
  2
AcDbMentalRayRenderSettings
  3
SCENEOE
 90
1024
 91
0
280
0
281
0
  0
CLASS
  1
ACDBDETAILVIEWSTYLE
  2
AcDbDetailViewStyle
  3
ObjectDBX Classes
 90
1025
 91
0
280
0
281
0
  0
CLASS
  1
ACDBSECTIONVIEWSTYLE
  2
AcDbSectionViewStyle
  3
ObjectDBX Classes
 90
1025
 91
0
280
0
281
0
  0
CLASS
  1
RASTERVARIABLES
  2
AcDbRasterVariables
  3
ISM
 90
0
 91
0
280
0
281
0
  0
CLASS
  1
ACDBPLACEHOLDER
  2
AcDbPlaceHolder
  3
ObjectDBX Classes
 90
0
 91
0
280
0
281
0
  0
CLASS
  1
LAYOUT
  2
AcDbLayout
  3
ObjectDBX Classes
 90
0
 91
0
280
0
281
0
  0
ENDSEC
  0
SECTION
  2
TABLES
  0
TABLE
  2
VPORT
  5
8
330
0
100
AcDbSymbolTable
 70
1
  0
VPORT
  5
23
330
8
100
AcDbSymbolTableRecord
100
AcDbViewportTableRecord
  2
*Active
 70
0
 10
0.0
 20
0.0
 11
1.0
 21
1.0
 12
0.0
 22
0.0
 13
0.0
 23
0.0
 14
0.5
 24
0.5
 15
0.5
 25
0.5
 16
0.0
 26
0.0
 36
1.0
 17
0.0
 27
0.0
 37
0.0
 40
1000.0
 41
1.34
 42
50.0
 43
0.0
 44
0.0
 50
0.0
 51
0.0
 71
0
 72
1000
 73
1
 74
3
 75
0
 76
0
 77
0
 78
0
281
0
 65
0
146
0.0
  0
ENDTAB
  0
TABLE
  2
LTYPE
  5
2
330
0
100
AcDbSymbolTable
 70
3
  0
LTYPE
  5
24
330
2
100
AcDbSymbolTableRecord
100
AcDbLinetypeTableRecord
  2
ByBlock
 70
0
  3

 72
65
 73
0
 40
0.0
  0
LTYPE
  5
25
330
2
100
AcDbSymbolTableRecord
100
AcDbLinetypeTableRecord
  2
ByLayer
 70
0
  3

 72
65
 73
0
 40
0.0
  0
LTYPE
  5
26
330
2
100
AcDbSymbolTableRecord
100
AcDbLinetypeTableRecord
  2
Continuous
 70
0
  3

 72
65
 73
0
 40
0.0
  0
ENDTAB
  0
TABLE
  2
LAYER
  5
1
330
0
100
AcDbSymbolTable
 70
7
  0
LAYER
  5
27
330
1
100
AcDbSymbolTableRecord
100
AcDbLayerTableRecord
  2
0
 70
0
 62
7
  6
Continuous
370
-3
390
13
347
21
  0
LAYER
  5
28
330
1
100
AcDbSymbolTableRecord
100
AcDbLayerTableRecord
  2
Defpoints
 70
0
 62
7
  6
Continuous
290
0
370
-3
390
13
347
21
  0
LAYER
  5
2F
330
1
100
AcDbSymbolTableRecord
100
AcDbLayerTableRecord
  2
CUT
 70
0
 62
1
420
16711680
  6
Continuous
370
-3
390
13
347
21
  0
LAYER
  5
30
330
1
100
AcDbSymbolTableRecord
100
AcDbLayerTableRecord
  2
SCORE
 70
0
 62
5
420
255
  6
Continuous
370
-3
390
13
347
21
  0
LAYER
  5
31
330
1
100
AcDbSymbolTableRecord
100
AcDbLayerTableRecord
  2
ENGRAVE
 70
0
 62
7
420
0
  6
Continuous
370
-3
390
13
347
21
  0
LAYER
  5
32
330
1
100
AcDbSymbolTableRecord
100
AcDbLayerTableRecord
  2
NUMBERS
 70
0
 62
7
420
0
  6
Continuous
370
-3
390
13
347
21
  0
LAYER
  5
33
330
1
100
AcDbSymbolTableRecord
100
AcDbLayerTableRecord
  2
BOUNDARY
 70
0
 62
8
420
8421504
  6
Continuous
370
-3
390
13
347
21
  0
ENDTAB
  0
TABLE
  2
STYLE
  5
5
330
0
100
AcDbSymbolTable
 70
1
  0
STYLE
  5
29
330
5
100
AcDbSymbolTableRecord
100
AcDbTextStyleTableRecord
  2
Standard
 70
0
 40
0.0
 41
1.0
 50
0.0
 71
0
 42
2.5
  3
txt
  4

  0
ENDTAB
  0
TABLE
  2
VIEW
  5
7
330
0
100
AcDbSymbolTable
 70
0
  0
ENDTAB
  0
TABLE
  2
UCS
  5
6
330
0
100
AcDbSymbolTable
 70
0
  0
ENDTAB
  0
TABLE
  2
APPID
  5
3
330
0
100
AcDbSymbolTable
 70
3
  0
APPID
  5
2A
330
3
100
AcDbSymbolTableRecord
100
AcDbRegAppTableRecord
  2
ACAD
 70
0
  0
APPID
  5
24D
330
3
100
AcDbSymbolTableRecord
100
AcDbRegAppTableRecord
  2
HATCHBACKGROUNDCOLOR
 70
0
  0
APPID
  5
24E
330
3
100
AcDbSymbolTableRecord
100
AcDbRegAppTableRecord
  2
EZDXF
 70
0
  0
ENDTAB
  0
TABLE
  2
DIMSTYLE
  5
4
330
0
100
AcDbSymbolTable
 70
1
100
AcDbDimStyleTable
  0
DIMSTYLE
105
2B
330
4
100
AcDbSymbolTableRecord
100
AcDbDimStyleTableRecord
  2
Standard
 70
0
 40
1.0
 41
2.5
 42
0.625
 43
3.75
 44
1.25
 45
0.0
 46
0.0
 47
0.0
 48
0.0
 49
2.5
140
2.5
141
2.5
142
0.0
143
0.03937007874
144
1.0
145
0.0
146
1.0
147
0.625
148
0.0
 69
0
 70
0
 71
0
 72
0
 73
0
 74
0
 75
0
 76
0
 77
1
 78
8
 79
3
170
0
171
3
172
1
173
0
174
0
175
0
176
0
177
0
178
0
179
2
271
2
272
2
273
2
274
3
275
0
276
0
277
2
278
44
279
0
280
0
281
0
282
0
283
0
284
8
285
0
286
0
288
0
289
3
290
0
371
-2
372
-2
  0
ENDTAB
  0
TABLE
  2
BLOCK_RECORD
  5
9
330
0
100
AcDbSymbolTable
 70
2
  0
BLOCK_RECORD
  5
17
330
9
100
AcDbSymbolTableRecord
100
AcDbBlockTableRecord
  2
*Model_Space
340
1A
 70
0
280
1
281
0
  0
BLOCK_RECORD
  5
1B
330
9
100
AcDbSymbolTableRecord
100
AcDbBlockTableRecord
  2
*Paper_Space
340
1E
 70
0
280
1
281
0
  0
ENDTAB
  0
ENDSEC
  0
SECTION
  2
BLOCKS
  0
BLOCK
  5
18
330
17
100
AcDbEntity
  8
0
100
AcDbBlockBegin
  2
*Model_Space
 70
0
 10
0.0
 20
0.0
 30
0.0
  3
*Model_Space
  1

  0
ENDBLK
  5
19
330
17
100
AcDbEntity
  8
0
100
AcDbBlockEnd
  0
BLOCK
  5
1C
330
1B
100
AcDbEntity
  8
0
100
AcDbBlockBegin
  2
*Paper_Space
 70
0
 10
0.0
 20
0.0
 30
0.0
  3
*Paper_Space
  1

  0
ENDBLK
  5
1D
330
1B
100
AcDbEntity
  8
0
100
AcDbBlockEnd
  0
ENDSEC
  0
SECTION
  2
ENTITIES
  0
LWPOLYLINE
  5
34
330
17
100
AcDbEntity
  8
CUT
100
AcDbPolyline
 90
6
 70
1
 10
0.5
 20
11.26731978778815
 10
1.8553969816272968
 20
11.26731978778815
 10
1.8553969816272968
 20
6.746790167259265
 10
2.480807086614173
 20
6.746790167259265
 10
2.480807086614173
 20
0.75
 10
0.5
 20
0.75
  0
LWPOLYLINE
  5
35
330
17
100
AcDbEntity
  8
CUT
100
AcDbPolyline
 90
4
 70
1
 10
3.3113582677165354
 20
3.4981135307566404
 10
3.3113582677165354
 20
0.75
 10
2.7208070866141734
 20
0.75
 10
2.7208070866141734
 20
3.4981135307566404
  0
LWPOLYLINE
  5
36
330
17
100
AcDbEntity
  8
CUT
100
AcDbPolyline
 90
4
 70
1
 10
4.268057742782153
 20
0.75
 10
3.5513582677165356
 20
0.75
 10
3.5513582677165356
 20
3.3182237602463305
 10
4.268057742782153
 20
3.3182237602463305
  0
LWPOLYLINE
  5
37
330
17
100
AcDbEntity
  8
CUT
100
AcDbPolyline
 90
4
 70
1
 10
5.224757217847769
 20
0.75
 10
4.508057742782152
 20
0.75
 10
4.508057742782152
 20
3.073572417850955
 10
5.224757217847769
 20
3.073572417850955
  0
LWPOLYLINE
  5
38
330
17
100
AcDbEntity
  8
CUT
100
AcDbPolyline
 90
4
 70
1
 10
6.181456692913386
 20
0.75
 10
5.464757217847769
 20
0.75
 10
5.464757217847769
 20
1.9932331866679298
 10
6.181456692913386
 20
1.9932331866679298
  0
LWPOLYLINE
  5
39
330
17
100
AcDbEntity
  8
CUT
100
AcDbPolyline
 90
4
 70
1
 10
7.563599081364829
 20
1.9844938444762352
 10
7.563599081364829
 20
0.75
 10
6.421456692913385
 20
0.75
 10
6.421456692913385
 20
1.9844938444762352
  0
LWPOLYLINE
  5
3A
330
17
100
AcDbEntity
  8
CUT
100
AcDbPolyline
 90
4
 70
1
 10
8.467873325536189
 20
0.75
 10
7.803599081364829
 20
0.75
 10
7.803599081364829
 20
1.8921423884514434
 10
8.467873325536189
 20
1.8921423884514434
  0
LWPOLYLINE
  5
3B
330
17
100
AcDbEntity
  8
CUT
100
AcDbPolyline
 90
4
 70
1
 10
9.29842450663855
 20
1.7124343969053002
 10
9.29842450663855
 20
0.75
 10
8.707873325536188
 20
0.75
 10
8.707873325536188
 20
1.7124343969053002
  0
LWPOLYLINE
  5
3C
330
17
100
AcDbEntity
  8
CUT
100
AcDbPolyline
 90
4
 70
1
 10
10.128975687740912
 20
1.7124343969052975
 10
10.128975687740912
 20
0.75
 10
9.538424506638549
 20
0.75
 10
9.538424506638549
 20
1.7124343969052975
  0
LWPOLYLINE
  5
3D
330
17
100
AcDbEntity
  8
SCORE
100
AcDbPolyline
 90
2
 70
0
 10
1.8594980314960632
 20
0.760252624671916
 10
1.8594980314960632
 20
0.9940526149607273
  0
LWPOLYLINE
  5
3E
330
17
100
AcDbEntity
  8
SCORE
100
AcDbPolyline
 90
2
 70
0
 10
1.5785761154855644
 20
0.760252624671916
 10
1.5785761154855644
 20
0.9940526149607273
  0
LWPOLYLINE
  5
3F
330
17
100
AcDbEntity
  8
SCORE
100
AcDbPolyline
 90
2
 70
0
 10
1.168471128608924
 20
0.760252624671916
 10
1.168471128608924
 20
0.9940526149607273
  0
LWPOLYLINE
  5
40
330
17
100
AcDbEntity
  8
SCORE
100
AcDbPolyline
 90
2
 70
0
 10
1.8594980314960632
 20
1.0104568144357926
 10
1.8594980314960632
 20
1.2478304533744913
  0
LWPOLYLINE
  5
41
330
17
100
AcDbEntity
  8
SCORE
100
AcDbPolyline
 90
2
 70
0
 10
1.5785761154855644
 20
1.0104568144357926
 10
1.5785761154855644
 20
1.2478304533744913
  0
LWPOLYLINE
  5
42
330
17
100
AcDbEntity
  8
SCORE
100
AcDbPolyline
 90
2
 70
0
 10
1.168471128608924
 20
1.0104568144357926
 10
1.168471128608924
 20
1.2478304533744913
  0
LWPOLYLINE
  5
43
330
17
100
AcDbEntity
  8
SCORE
100
AcDbPolyline
 90
2
 70
0
 10
1.8594980314960632
 20
1.2642346528495567
 10
1.8594980314960632
 20
1.5117594053248031
  0
LWPOLYLINE
  5
44
330
17
100
AcDbEntity
  8
SCORE
100
AcDbPolyline
 90
2
 70
0
 10
1.5785761154855644
 20
1.2642346528495567
 10
1.5785761154855644
 20
1.5117594053248031
  0
LWPOLYLINE
  5
45
330
17
100
AcDbEntity
  8
SCORE
100
AcDbPolyline
 90
2
 70
0
 10
1.168471128608924
 20
1.2642346528495567
 10
1.168471128608924
 20
1.5117594053248031
  0
LWPOLYLINE
  5
46
330
17
100
AcDbEntity
  8
SCORE
100
AcDbPolyline
 90
2
 70
0
 10
1.8594980314960632
 20
1.5281636047998681
 10
1.8594980314960632
 20
1.745235016665465
  0
LWPOLYLINE
  5
47
330
17
100
AcDbEntity
  8
SCORE
100
AcDbPolyline
 90
2
 70
0
 10
1.5785761154855644
 20
1.5281636047998681
 10
1.5785761154855644
 20
1.745235016665465
  0
LWPOLYLINE
  5
48
330
17
100
AcDbEntity
  8
SCORE
100
AcDbPolyline
 90
2
 70
0
 10
1.168471128608924
 20
1.5281636047998681
 10
1.168471128608924
 20
1.745235016665465
  0
LWPOLYLINE
  5
49
330
17
100
AcDbEntity
  8
SCORE
100
AcDbPolyline
 90
2
 70
0
 10
1.8594980314960632
 20
1.7616392161405303
 10
1.8594980314960632
 20
1.9990128550792277
  0
LWPOLYLINE
  5
4A
330
17
100
AcDbEntity
  8
SCORE
100
AcDbPolyline
 90
2
 70
0
 10
1.5785761154855644
 20
1.7616392161405303
 10
1.5785761154855644
 20
1.9990128550792277
  0
LWPOLYLINE
  5
4B
330
17
100
AcDbEntity
  8
SCORE
100
AcDbPolyline
 90
2
 70
0
 10
1.168471128608924
 20
1.7616392161405303
 10
1.168471128608924
 20
1.9990128550792277
  0
LWPOLYLINE
  5
4C
330
17
100
AcDbEntity
  8
SCORE
100
AcDbPolyline
 90
2
 70
0
 10
1.8594980314960632
 20
2.015417054554293
 10
1.8594980314960632
 20
2.2302349192147752
  0
LWPOLYLINE
  5
4D
330
17
100
AcDbEntity
  8
SCORE
100
AcDbPolyline
 90
2
 70
0
 10
1.5785761154855644
 20
2.015417054554293
 10
1.5785761154855644
 20
2.2302349192147752
  0
LWPOLYLINE
  5
4E
330
17
100
AcDbEntity
  8
SCORE
100
AcDbPolyline
 90
2
 70
0
 10
1.168471128608924
 20
2.015417054554293
 10
1.168471128608924
 20
2.2302349192147752
  0
LWPOLYLINE
  5
4F
330
17
100
AcDbEntity
  8
SCORE
100
AcDbPolyline
 90
2
 70
0
 10
1.8594980314960632
 20
2.291750667246271
 10
1.8594980314960632
 20
2.4964174183702026
  0
LWPOLYLINE
  5
50
330
17
100
AcDbEntity
  8
SCORE
100
AcDbPolyline
 90
2
 70
0
 10
1.5785761154855644
 20
2.291750667246271
 10
1.5785761154855644
 20
2.4964174183702026
  0
LWPOLYLINE
  5
51
330
17
100
AcDbEntity
  8
SCORE
100
AcDbPolyline
 90
2
 70
0
 10
1.168471128608924
 20
2.291750667246271
 10
1.168471128608924
 20
2.4964174183702026
  0
LWPOLYLINE
  5
52
330
17
100
AcDbEntity
  8
SCORE
100
AcDbPolyline
 90
2
 70
0
 10
1.8594980314960632
 20
2.512821617845268
 10
1.8594980314960632
 20
2.7501952567839636
  0
LWPOLYLINE
  5
53
330
17
100
AcDbEntity
  8
SCORE
100
AcDbPolyline
 90
2
 70
0
 10
1.5785761154855644
 20
2.512821617845268
 10
1.5785761154855644
 20
2.7501952567839636
  0
LWPOLYLINE
  5
54
330
17
100
AcDbEntity
  8
SCORE
100
AcDbPolyline
 90
2
 70
0
 10
1.168471128608924
 20
2.512821617845268
 10
1.168471128608924
 20
2.7501952567839636
  0
LWPOLYLINE
  5
55
330
17
100
AcDbEntity
  8
SCORE
100
AcDbPolyline
 90
2
 70
0
 10
1.8594980314960632
 20
2.766599456259029
 10
1.8594980314960632
 20
3.003973095197728
  0
LWPOLYLINE
  5
56
330
17
100
AcDbEntity
  8
SCORE
100
AcDbPolyline
 90
2
 70
0
 10
1.5785761154855644
 20
2.766599456259029
 10
1.5785761154855644
 20
3.003973095197728
  0
LWPOLYLINE
  5
57
330
17
100
AcDbEntity
  8
SCORE
100
AcDbPolyline
 90
2
 70
0
 10
1.168471128608924
 20
2.766599456259029
 10
1.168471128608924
 20
3.003973095197728
  0
LWPOLYLINE
  5
58
330
17
100
AcDbEntity
  8
SCORE
100
AcDbPolyline
 90
2
 70
0
 10
1.8594980314960632
 20
3.0203772946727936
 10
1.8594980314960632
 20
3.2475998200749387
  0
LWPOLYLINE
  5
59
330
17
100
AcDbEntity
  8
SCORE
100
AcDbPolyline
 90
2
 70
0
 10
1.5785761154855644
 20
3.0203772946727936
 10
1.5785761154855644
 20
3.2475998200749387
  0
LWPOLYLINE
  5
5A
330
17
100
AcDbEntity
  8
SCORE
100
AcDbPolyline
 90
2
 70
0
 10
1.168471128608924
 20
3.0203772946727936
 10
1.168471128608924
 20
3.2475998200749387
  0
LWPOLYLINE
  5
5B
330
17
100
AcDbEntity
  8
SCORE
100
AcDbPolyline
 90
2
 70
0
 10
1.8594980314960632
 20
3.264004019550004
 10
1.8594980314960632
 20
3.5013776584887033
  0
LWPOLYLINE
  5
5C
330
17
100
AcDbEntity
  8
SCORE
100
AcDbPolyline
 90
2
 70
0
 10
1.5785761154855644
 20
3.264004019550004
 10
1.5785761154855644
 20
3.5013776584887033
  0
LWPOLYLINE
  5
5D
330
17
100
AcDbEntity
  8
SCORE
100
AcDbPolyline
 90
2
 70
0
 10
1.168471128608924
 20
3.264004019550004
 10
1.168471128608924
 20
3.5013776584887033
  0
LWPOLYLINE
  5
5E
330
17
100
AcDbEntity
  8
SCORE
100
AcDbPolyline
 90
2
 70
0
 10
1.8594980314960632
 20
3.5177818579637687
 10
1.8594980314960632
 20
3.7427508361607993
  0
LWPOLYLINE
  5
5F
330
17
100
AcDbEntity
  8
SCORE
100
AcDbPolyline
 90
2
 70
0
 10
1.5785761154855644
 20
3.5177818579637687
 10
1.5785761154855644
 20
3.7427508361607993
  0
LWPOLYLINE
  5
60
330
17
100
AcDbEntity
  8
SCORE
100
AcDbPolyline
 90
2
 70
0
 10
1.168471128608924
 20
3.5177818579637687
 10
1.168471128608924
 20
3.7427508361607993
  0
LWPOLYLINE
  5
61
330
17
100
AcDbEntity
  8
SCORE
100
AcDbPolyline
 90
2
 70
0
 10
1.8594980314960632
 20
3.8042665841922947
 10
1.8594980314960632
 20
3.9987822217796785
  0
LWPOLYLINE
  5
62
330
17
100
AcDbEntity
  8
SCORE
100
AcDbPolyline
 90
2
 70
0
 10
1.5785761154855644
 20
3.8042665841922947
 10
1.5785761154855644
 20
3.9987822217796785
  0
LWPOLYLINE
  5
63
330
17
100
AcDbEntity
  8
SCORE
100
AcDbPolyline
 90
2
 70
0
 10
1.168471128608924
 20
3.8042665841922947
 10
1.168471128608924
 20
3.9987822217796785
  0
LWPOLYLINE
  5
64
330
17
100
AcDbEntity
  8
SCORE
100
AcDbPolyline
 90
2
 70
0
 10
1.8594980314960632
 20
4.015186421254744
 10
1.8594980314960632
 20
4.26271117372999
  0
LWPOLYLINE
  5
65
330
17
100
AcDbEntity
  8
SCORE
100
AcDbPolyline
 90
2
 70
0
 10
1.5785761154855644
 20
4.015186421254744
 10
1.5785761154855644
 20
4.26271117372999
  0
LWPOLYLINE
  5
66
330
17
100
AcDbEntity
  8
SCORE
100
AcDbPolyline
 90
2
 70
0
 10
1.168471128608924
 20
4.015186421254744
 10
1.168471128608924
 20
4.26271117372999
  0
LWPOLYLINE
  5
67
330
17
100
AcDbEntity
  8
SCORE
100
AcDbPolyline
 90
2
 70
0
 10
1.8594980314960632
 20
4.279115373205055
 10
1.8594980314960632
 20
4.506337898607202
  0
LWPOLYLINE
  5
68
330
17
100
AcDbEntity
  8
SCORE
100
AcDbPolyline
 90
2
 70
0
 10
1.5785761154855644
 20
4.279115373205055
 10
1.5785761154855644
 20
4.506337898607202
  0
LWPOLYLINE
  5
69
330
17
100
AcDbEntity
  8
SCORE
100
AcDbPolyline
 90
2
 70
0
 10
1.168471128608924
 20
4.279115373205055
 10
1.168471128608924
 20
4.506337898607202
  0
LWPOLYLINE
  5
6A
330
17
100
AcDbEntity
  8
SCORE
100
AcDbPolyline
 90
2
 70
0
 10
1.8594980314960632
 20
4.522742098082268
 10
1.8594980314960632
 20
4.760115737020965
  0
LWPOLYLINE
  5
6B
330
17
100
AcDbEntity
  8
SCORE
100
AcDbPolyline
 90
2
 70
0
 10
1.5785761154855644
 20
4.522742098082268
 10
1.5785761154855644
 20
4.760115737020965
  0
LWPOLYLINE
  5
6C
330
17
100
AcDbEntity
  8
SCORE
100
AcDbPolyline
 90
2
 70
0
 10
1.168471128608924
 20
4.522742098082268
 10
1.168471128608924
 20
4.760115737020965
  0
LWPOLYLINE
  5
6D
330
17
100
AcDbEntity
  8
SCORE
100
AcDbPolyline
 90
2
 70
0
 10
1.8594980314960632
 20
4.7765199364960305
 10
1.8594980314960632
 20
5.013893575434728
  0
LWPOLYLINE
  5
6E
330
17
100
AcDbEntity
  8
SCORE
100
AcDbPolyline
 90
2
 70
0
 10
1.5785761154855644
 20
4.7765199364960305
 10
1.5785761154855644
 20
5.013893575434728
  0
LWPOLYLINE
  5
6F
330
17
100
AcDbEntity
  8
SCORE
100
AcDbPolyline
 90
2
 70
0
 10
1.168471128608924
 20
4.7765199364960305
 10
1.168471128608924
 20
5.013893575434728
  0
LWPOLYLINE
  5
70
330
17
100
AcDbEntity
  8
SCORE
100
AcDbPolyline
 90
2
 70
0
 10
1.8594980314960632
 20
5.030297774909793
 10
1.8594980314960632
 20
5.245115639570275
  0
LWPOLYLINE
  5
71
330
17
100
AcDbEntity
  8
SCORE
100
AcDbPolyline
 90
2
 70
0
 10
1.5785761154855644
 20
5.030297774909793
 10
1.5785761154855644
 20
5.245115639570275
  0
LWPOLYLINE
  5
72
330
17
100
AcDbEntity
  8
SCORE
100
AcDbPolyline
 90
2
 70
0
 10
1.168471128608924
 20
5.030297774909793
 10
1.168471128608924
 20
5.245115639570275
  0
LWPOLYLINE
  5
73
330
17
100
AcDbEntity
  8
SCORE
100
AcDbPolyline
 90
2
 70
0
 10
1.8594980314960632
 20
5.3066313876017706
 10
1.8594980314960632
 20
5.511298138725703
  0
LWPOLYLINE
  5
74
330
17
100
AcDbEntity
  8
SCORE
100
AcDbPolyline
 90
2
 70
0
 10
1.5785761154855644
 20
5.3066313876017706
 10
1.5785761154855644
 20
5.511298138725703
  0
LWPOLYLINE
  5
75
330
17
100
AcDbEntity
  8
SCORE
100
AcDbPolyline
 90
2
 70
0
 10
1.168471128608924
 20
5.3066313876017706
 10
1.168471128608924
 20
5.511298138725703
  0
LWPOLYLINE
  5
76
330
17
100
AcDbEntity
  8
SCORE
100
AcDbPolyline
 90
2
 70
0
 10
1.8594980314960632
 20
5.527702338200768
 10
1.8594980314960632
 20
5.765075977139466
  0
LWPOLYLINE
  5
77
330
17
100
AcDbEntity
  8
SCORE
100
AcDbPolyline
 90
2
 70
0
 10
1.5785761154855644
 20
5.527702338200768
 10
1.5785761154855644
 20
5.765075977139466
  0
LWPOLYLINE
  5
78
330
17
100
AcDbEntity
  8
SCORE
100
AcDbPolyline
 90
2
 70
0
 10
1.168471128608924
 20
5.527702338200768
 10
1.168471128608924
 20
5.765075977139466
  0
LWPOLYLINE
  5
79
330
17
100
AcDbEntity
  8
SCORE
100
AcDbPolyline
 90
2
 70
0
 10
1.8594980314960632
 20
5.78148017661453
 10
1.8594980314960632
 20
6.008702702016678
  0
LWPOLYLINE
  5
7A
330
17
100
AcDbEntity
  8
SCORE
100
AcDbPolyline
 90
2
 70
0
 10
1.5785761154855644
 20
5.78148017661453
 10
1.5785761154855644
 20
6.008702702016678
  0
LWPOLYLINE
  5
7B
330
17
100
AcDbEntity
  8
SCORE
100
AcDbPolyline
 90
2
 70
0
 10
1.168471128608924
 20
5.78148017661453
 10
1.168471128608924
 20
6.008702702016678
  0
LWPOLYLINE
  5
7C
330
17
100
AcDbEntity
  8
SCORE
100
AcDbPolyline
 90
2
 70
0
 10
1.8594980314960632
 20
6.025106901491743
 10
1.8594980314960632
 20
6.262480540430441
  0
LWPOLYLINE
  5
7D
330
17
100
AcDbEntity
  8
SCORE
100
AcDbPolyline
 90
2
 70
0
 10
1.5785761154855644
 20
6.025106901491743
 10
1.5785761154855644
 20
6.262480540430441
  0
LWPOLYLINE
  5
7E
330
17
100
AcDbEntity
  8
SCORE
100
AcDbPolyline
 90
2
 70
0
 10
1.168471128608924
 20
6.025106901491743
 10
1.168471128608924
 20
6.262480540430441
  0
LWPOLYLINE
  5
7F
330
17
100
AcDbEntity
  8
SCORE
100
AcDbPolyline
 90
2
 70
0
 10
1.8594980314960632
 20
6.278884739905505
 10
1.8594980314960632
 20
6.516258378844203
  0
LWPOLYLINE
  5
80
330
17
100
AcDbEntity
  8
SCORE
100
AcDbPolyline
 90
2
 70
0
 10
1.5785761154855644
 20
6.278884739905505
 10
1.5785761154855644
 20
6.516258378844203
  0
LWPOLYLINE
  5
81
330
17
100
AcDbEntity
  8
SCORE
100
AcDbPolyline
 90
2
 70
0
 10
1.168471128608924
 20
6.278884739905505
 10
1.168471128608924
 20
6.516258378844203
  0
LWPOLYLINE
  5
82
330
17
100
AcDbEntity
  8
SCORE
100
AcDbPolyline
 90
2
 70
0
 10
1.8594980314960632
 20
6.532662578319268
 10
1.8594980314960632
 20
6.736537542587349
  0
LWPOLYLINE
  5
83
330
17
100
AcDbEntity
  8
SCORE
100
AcDbPolyline
 90
2
 70
0
 10
1.5785761154855644
 20
6.532662578319268
 10
1.5785761154855644
 20
6.737329329443201
  0
LWPOLYLINE
  5
84
330
17
100
AcDbEntity
  8
SCORE
100
AcDbPolyline
 90
2
 70
0
 10
1.168471128608924
 20
6.532662578319268
 10
1.168471128608924
 20
6.737329329443201
  0
LWPOLYLINE
  5
85
330
17
100
AcDbEntity
  8
SCORE
100
AcDbPolyline
 90
2
 70
0
 10
1.5785761154855644
 20
6.798845077474696
 10
1.5785761154855644
 20
7.0035118285986275
  0
LWPOLYLINE
  5
86
330
17
100
AcDbEntity
  8
SCORE
100
AcDbPolyline
 90
2
 70
0
 10
1.168471128608924
 20
6.798845077474696
 10
1.168471128608924
 20
7.0035118285986275
  0
LWPOLYLINE
  5
87
330
17
100
AcDbEntity
  8
SCORE
100
AcDbPolyline
 90
2
 70
0
 10
1.5785761154855644
 20
7.019916028073692
 10
1.5785761154855644
 20
7.257289667012389
  0
LWPOLYLINE
  5
88
330
17
100
AcDbEntity
  8
SCORE
100
AcDbPolyline
 90
2
 70
0
 10
1.168471128608924
 20
7.019916028073692
 10
1.168471128608924
 20
7.257289667012389
  0
LWPOLYLINE
  5
89
330
17
100
AcDbEntity
  8
SCORE
100
AcDbPolyline
 90
2
 70
0
 10
1.5785761154855644
 20
7.273693866487455
 10
1.5785761154855644
 20
7.511067505426152
  0
LWPOLYLINE
  5
8A
330
17
100
AcDbEntity
  8
SCORE
100
AcDbPolyline
 90
2
 70
0
 10
1.168471128608924
 20
7.273693866487455
 10
1.168471128608924
 20
7.511067505426152
  0
LWPOLYLINE
  5
8B
330
17
100
AcDbEntity
  8
SCORE
100
AcDbPolyline
 90
2
 70
0
 10
1.5785761154855644
 20
7.527471704901217
 10
1.5785761154855644
 20
7.754694230303365
  0
LWPOLYLINE
  5
8C
330
17
100
AcDbEntity
  8
SCORE
100
AcDbPolyline
 90
2
 70
0
 10
1.168471128608924
 20
7.527471704901217
 10
1.168471128608924
 20
7.754694230303365
  0
LWPOLYLINE
  5
8D
330
17
100
AcDbEntity
  8
SCORE
100
AcDbPolyline
 90
2
 70
0
 10
1.5785761154855644
 20
7.771098429778429
 10
1.5785761154855644
 20
8.008472068717126
  0
LWPOLYLINE
  5
8E
330
17
100
AcDbEntity
  8
SCORE
100
AcDbPolyline
 90
2
 70
0
 10
1.168471128608924
 20
7.771098429778429
 10
1.168471128608924
 20
8.008472068717126
  0
LWPOLYLINE
  5
8F
330
17
100
AcDbEntity
  8
SCORE
100
AcDbPolyline
 90
2
 70
0
 10
1.5785761154855644
 20
8.024876268192191
 10
1.5785761154855644
 20
8.239694132852675
  0
LWPOLYLINE
  5
90
330
17
100
AcDbEntity
  8
SCORE
100
AcDbPolyline
 90
2
 70
0
 10
1.168471128608924
 20
8.024876268192191
 10
1.168471128608924
 20
8.239694132852675
  0
LWPOLYLINE
  5
91
330
17
100
AcDbEntity
  8
SCORE
100
AcDbPolyline
 90
2
 70
0
 10
1.5785761154855644
 20
8.301209880884171
 10
1.5785761154855644
 20
8.505876632008102
  0
LWPOLYLINE
  5
92
330
17
100
AcDbEntity
  8
SCORE
100
AcDbPolyline
 90
2
 70
0
 10
1.168471128608924
 20
8.301209880884171
 10
1.168471128608924
 20
8.505876632008102
  0
LWPOLYLINE
  5
93
330
17
100
AcDbEntity
  8
SCORE
100
AcDbPolyline
 90
2
 70
0
 10
1.5785761154855644
 20
8.522280831483167
 10
1.5785761154855644
 20
8.759654470421864
  0
LWPOLYLINE
  5
94
330
17
100
AcDbEntity
  8
SCORE
100
AcDbPolyline
 90
2
 70
0
 10
1.168471128608924
 20
8.522280831483167
 10
1.168471128608924
 20
8.759654470421864
  0
LWPOLYLINE
  5
95
330
17
100
AcDbEntity
  8
SCORE
100
AcDbPolyline
 90
2
 70
0
 10
1.5785761154855644
 20
8.776058669896928
 10
1.5785761154855644
 20
9.013432308835627
  0
LWPOLYLINE
  5
96
330
17
100
AcDbEntity
  8
SCORE
100
AcDbPolyline
 90
2
 70
0
 10
1.168471128608924
 20
8.776058669896928
 10
1.168471128608924
 20
9.013432308835627
  0
LWPOLYLINE
  5
97
330
17
100
AcDbEntity
  8
SCORE
100
AcDbPolyline
 90
2
 70
0
 10
1.5785761154855644
 20
9.02983650831069
 10
1.5785761154855644
 20
9.257059033712839
  0
LWPOLYLINE
  5
98
330
17
100
AcDbEntity
  8
SCORE
100
AcDbPolyline
 90
2
 70
0
 10
1.168471128608924
 20
9.02983650831069
 10
1.168471128608924
 20
9.257059033712839
  0
LWPOLYLINE
  5
99
330
17
100
AcDbEntity
  8
SCORE
100
AcDbPolyline
 90
2
 70
0
 10
1.5785761154855644
 20
9.273463233187904
 10
1.5785761154855644
 20
9.510836872126601
  0
LWPOLYLINE
  5
9A
330
17
100
AcDbEntity
  8
SCORE
100
AcDbPolyline
 90
2
 70
0
 10
1.168471128608924
 20
9.273463233187904
 10
1.168471128608924
 20
9.510836872126601
  0
LWPOLYLINE
  5
9B
330
17
100
AcDbEntity
  8
SCORE
100
AcDbPolyline
 90
2
 70
0
 10
1.5785761154855644
 20
9.527241071601667
 10
1.5785761154855644
 20
9.742058936262149
  0
LWPOLYLINE
  5
9C
330
17
100
AcDbEntity
  8
SCORE
100
AcDbPolyline
 90
2
 70
0
 10
1.168471128608924
 20
9.527241071601667
 10
1.168471128608924
 20
9.742058936262149
  0
LWPOLYLINE
  5
9D
330
17
100
AcDbEntity
  8
SCORE
100
AcDbPolyline
 90
2
 70
0
 10
1.5785761154855644
 20
9.803574684293645
 10
1.5785761154855644
 20
10.008241435417576
  0
LWPOLYLINE
  5
9E
330
17
100
AcDbEntity
  8
SCORE
100
AcDbPolyline
 90
2
 70
0
 10
1.168471128608924
 20
9.803574684293645
 10
1.168471128608924
 20
10.008241435417576
  0
LWPOLYLINE
  5
9F
330
17
100
AcDbEntity
  8
SCORE
100
AcDbPolyline
 90
2
 70
0
 10
1.5785761154855644
 20
10.024645634892641
 10
1.5785761154855644
 20
10.27217038736789
  0
LWPOLYLINE
  5
A0
330
17
100
AcDbEntity
  8
SCORE
100
AcDbPolyline
 90
2
 70
0
 10
1.168471128608924
 20
10.024645634892641
 10
1.168471128608924
 20
10.27217038736789
  0
LWPOLYLINE
  5
A1
330
17
100
AcDbEntity
  8
SCORE
100
AcDbPolyline
 90
2
 70
0
 10
1.5785761154855644
 20
10.288574586842955
 10
1.5785761154855644
 20
10.515797112245101
  0
LWPOLYLINE
  5
A2
330
17
100
AcDbEntity
  8
SCORE
100
AcDbPolyline
 90
2
 70
0
 10
1.168471128608924
 20
10.288574586842955
 10
1.168471128608924
 20
10.515797112245101
  0
LWPOLYLINE
  5
A3
330
17
100
AcDbEntity
  8
SCORE
100
AcDbPolyline
 90
2
 70
0
 10
1.5785761154855644
 20
10.532201311720167
 10
1.5785761154855644
 20
10.779726064195415
  0
LWPOLYLINE
  5
A4
330
17
100
AcDbEntity
  8
SCORE
100
AcDbPolyline
 90
2
 70
0
 10
1.168471128608924
 20
10.532201311720167
 10
1.168471128608924
 20
10.779726064195415
  0
LWPOLYLINE
  5
A5
330
17
100
AcDbEntity
  8
SCORE
100
AcDbPolyline
 90
2
 70
0
 10
1.5785761154855644
 20
10.79613026367048
 10
1.5785761154855644
 20
11.023352789072627
  0
LWPOLYLINE
  5
A6
330
17
100
AcDbEntity
  8
SCORE
100
AcDbPolyline
 90
2
 70
0
 10
1.168471128608924
 20
10.79613026367048
 10
1.168471128608924
 20
11.023352789072627
  0
LWPOLYLINE
  5
A7
330
17
100
AcDbEntity
  8
SCORE
100
AcDbPolyline
 90
2
 70
0
 10
1.5785761154855644
 20
11.039756988547692
 10
1.5785761154855644
 20
11.257067163116234
  0
LWPOLYLINE
  5
A8
330
17
100
AcDbEntity
  8
SCORE
100
AcDbPolyline
 90
2
 70
0
 10
1.168471128608924
 20
11.039756988547692
 10
1.168471128608924
 20
11.257067163116234
  0
LWPOLYLINE
  5
A9
330
17
100
AcDbEntity
  8
SCORE
100
AcDbPolyline
 90
2
 70
0
 10
2.0009842519685037
 20
0.760252624671916
 10
2.0009842519685037
 20
0.9940526149607273
  0
LWPOLYLINE
  5
AA
330
17
100
AcDbEntity
  8
SCORE
100
AcDbPolyline
 90
2
 70
0
 10
2.0009842519685037
 20
1.0104568144357926
 10
2.0009842519685037
 20
1.2478304533744913
  0
LWPOLYLINE
  5
AB
330
17
100
AcDbEntity
  8
SCORE
100
AcDbPolyline
 90
2
 70
0
 10
2.0009842519685037
 20
1.2642346528495567
 10
2.0009842519685037
 20
1.5117594053248031
  0
LWPOLYLINE
  5
AC
330
17
100
AcDbEntity
  8
SCORE
100
AcDbPolyline
 90
2
 70
0
 10
2.0009842519685037
 20
1.5281636047998681
 10
2.0009842519685037
 20
1.745235016665465
  0
LWPOLYLINE
  5
AD
330
17
100
AcDbEntity
  8
SCORE
100
AcDbPolyline
 90
2
 70
0
 10
2.0009842519685037
 20
1.7616392161405303
 10
2.0009842519685037
 20
1.9990128550792277
  0
LWPOLYLINE
  5
AE
330
17
100
AcDbEntity
  8
SCORE
100
AcDbPolyline
 90
2
 70
0
 10
2.0009842519685037
 20
2.015417054554293
 10
2.0009842519685037
 20
2.2302349192147752
  0
LWPOLYLINE
  5
AF
330
17
100
AcDbEntity
  8
SCORE
100
AcDbPolyline
 90
2
 70
0
 10
2.0009842519685037
 20
2.291750667246271
 10
2.0009842519685037
 20
2.4964174183702026
  0
LWPOLYLINE
  5
B0
330
17
100
AcDbEntity
  8
SCORE
100
AcDbPolyline
 90
2
 70
0
 10
2.0009842519685037
 20
2.512821617845268
 10
2.0009842519685037
 20
2.7501952567839636
  0
LWPOLYLINE
  5
B1
330
17
100
AcDbEntity
  8
SCORE
100
AcDbPolyline
 90
2
 70
0
 10
2.0009842519685037
 20
2.766599456259029
 10
2.0009842519685037
 20
3.003973095197728
  0
LWPOLYLINE
  5
B2
330
17
100
AcDbEntity
  8
SCORE
100
AcDbPolyline
 90
2
 70
0
 10
2.0009842519685037
 20
3.0203772946727936
 10
2.0009842519685037
 20
3.2475998200749387
  0
LWPOLYLINE
  5
B3
330
17
100
AcDbEntity
  8
SCORE
100
AcDbPolyline
 90
2
 70
0
 10
2.0009842519685037
 20
3.264004019550004
 10
2.0009842519685037
 20
3.5013776584887033
  0
LWPOLYLINE
  5
B4
330
17
100
AcDbEntity
  8
SCORE
100
AcDbPolyline
 90
2
 70
0
 10
2.0009842519685037
 20
3.5177818579637687
 10
2.0009842519685037
 20
3.7427508361607993
  0
LWPOLYLINE
  5
B5
330
17
100
AcDbEntity
  8
SCORE
100
AcDbPolyline
 90
2
 70
0
 10
2.0009842519685037
 20
3.8042665841922947
 10
2.0009842519685037
 20
3.9987822217796785
  0
LWPOLYLINE
  5
B6
330
17
100
AcDbEntity
  8
SCORE
100
AcDbPolyline
 90
2
 70
0
 10
2.0009842519685037
 20
4.015186421254744
 10
2.0009842519685037
 20
4.26271117372999
  0
LWPOLYLINE
  5
B7
330
17
100
AcDbEntity
  8
SCORE
100
AcDbPolyline
 90
2
 70
0
 10
2.0009842519685037
 20
4.279115373205055
 10
2.0009842519685037
 20
4.506337898607202
  0
LWPOLYLINE
  5
B8
330
17
100
AcDbEntity
  8
SCORE
100
AcDbPolyline
 90
2
 70
0
 10
2.0009842519685037
 20
4.522742098082268
 10
2.0009842519685037
 20
4.760115737020965
  0
LWPOLYLINE
  5
B9
330
17
100
AcDbEntity
  8
SCORE
100
AcDbPolyline
 90
2
 70
0
 10
2.0009842519685037
 20
4.7765199364960305
 10
2.0009842519685037
 20
5.013893575434728
  0
LWPOLYLINE
  5
BA
330
17
100
AcDbEntity
  8
SCORE
100
AcDbPolyline
 90
2
 70
0
 10
2.0009842519685037
 20
5.030297774909793
 10
2.0009842519685037
 20
5.245115639570275
  0
LWPOLYLINE
  5
BB
330
17
100
AcDbEntity
  8
SCORE
100
AcDbPolyline
 90
2
 70
0
 10
2.0009842519685037
 20
5.3066313876017706
 10
2.0009842519685037
 20
5.511298138725703
  0
LWPOLYLINE
  5
BC
330
17
100
AcDbEntity
  8
SCORE
100
AcDbPolyline
 90
2
 70
0
 10
2.0009842519685037
 20
5.527702338200768
 10
2.0009842519685037
 20
5.765075977139466
  0
LWPOLYLINE
  5
BD
330
17
100
AcDbEntity
  8
SCORE
100
AcDbPolyline
 90
2
 70
0
 10
2.0009842519685037
 20
5.78148017661453
 10
2.0009842519685037
 20
6.008702702016678
  0
LWPOLYLINE
  5
BE
330
17
100
AcDbEntity
  8
SCORE
100
AcDbPolyline
 90
2
 70
0
 10
2.0009842519685037
 20
6.025106901491743
 10
2.0009842519685037
 20
6.262480540430441
  0
LWPOLYLINE
  5
BF
330
17
100
AcDbEntity
  8
SCORE
100
AcDbPolyline
 90
2
 70
0
 10
2.0009842519685037
 20
6.278884739905505
 10
2.0009842519685037
 20
6.516258378844203
  0
LWPOLYLINE
  5
C0
330
17
100
AcDbEntity
  8
SCORE
100
AcDbPolyline
 90
2
 70
0
 10
2.0006766732283467
 20
6.512195903206876
 10
2.0006766732283467
 20
6.736537542587349
  0
LWPOLYLINE
  5
C1
330
17
100
AcDbEntity
  8
SCORE
100
AcDbPolyline
 90
2
 70
0
 10
1.8594980314960632
 20
1.0022547146982592
 10
0.5102526246719163
 20
1.0022547146982592
  0
LWPOLYLINE
  5
C2
330
17
100
AcDbEntity
  8
SCORE
100
AcDbPolyline
 90
2
 70
0
 10
2.4705544619422577
 20
1.0022547146982599
 10
2.0009842519685037
 20
1.0022547146982599
  0
LWPOLYLINE
  5
C3
330
17
100
AcDbEntity
  8
SCORE
100
AcDbPolyline
 90
2
 70
0
 10
1.8594980314960632
 20
1.256032553112024
 10
0.5102526246719163
 20
1.256032553112024
  0
LWPOLYLINE
  5
C4
330
17
100
AcDbEntity
  8
SCORE
100
AcDbPolyline
 90
2
 70
0
 10
2.4705544619422577
 20
1.256032553112024
 10
2.0009842519685037
 20
1.256032553112024
  0
LWPOLYLINE
  5
C5
330
17
100
AcDbEntity
  8
SCORE
100
AcDbPolyline
 90
2
 70
0
 10
1.8594980314960632
 20
1.5199615050623356
 10
0.5102526246719163
 20
1.5199615050623356
  0
LWPOLYLINE
  5
C6
330
17
100
AcDbEntity
  8
SCORE
100
AcDbPolyline
 90
2
 70
0
 10
2.4705544619422577
 20
1.5199615050623356
 10
2.0009842519685037
 20
1.5199615050623356
  0
LWPOLYLINE
  5
C7
330
17
100
AcDbEntity
  8
SCORE
100
AcDbPolyline
 90
2
 70
0
 10
1.8594980314960632
 20
1.7534371164029992
 10
0.5102526246719163
 20
1.7534371164029992
  0
LWPOLYLINE
  5
C8
330
17
100
AcDbEntity
  8
SCORE
100
AcDbPolyline
 90
2
 70
0
 10
2.4705544619422577
 20
1.7534371164029976
 10
2.0009842519685037
 20
1.7534371164029976
  0
LWPOLYLINE
  5
C9
330
17
100
AcDbEntity
  8
SCORE
100
AcDbPolyline
 90
2
 70
0
 10
1.8594980314960632
 20
2.007214954816761
 10
0.5102526246719163
 20
2.007214954816761
  0
LWPOLYLINE
  5
CA
330
17
100
AcDbEntity
  8
SCORE
100
AcDbPolyline
 90
2
 70
0
 10
2.4705544619422577
 20
2.00721495481676
 10
2.0009842519685037
 20
2.00721495481676
  0
LWPOLYLINE
  5
CB
330
17
100
AcDbEntity
  8
SCORE
100
AcDbPolyline
 90
2
 70
0
 10
1.8594980314960632
 20
2.5046195181077353
 10
0.5102526246719163
 20
2.5046195181077353
  0
LWPOLYLINE
  5
CC
330
17
100
AcDbEntity
  8
SCORE
100
AcDbPolyline
 90
2
 70
0
 10
2.4705544619422577
 20
2.5046195181077353
 10
2.0009842519685037
 20
2.5046195181077353
  0
LWPOLYLINE
  5
CD
330
17
100
AcDbEntity
  8
SCORE
100
AcDbPolyline
 90
2
 70
0
 10
1.8594980314960632
 20
2.7583973565214963
 10
0.5102526246719163
 20
2.7583973565214963
  0
LWPOLYLINE
  5
CE
330
17
100
AcDbEntity
  8
SCORE
100
AcDbPolyline
 90
2
 70
0
 10
2.4705544619422577
 20
2.7583973565214963
 10
2.0009842519685037
 20
2.7583973565214963
  0
LWPOLYLINE
  5
CF
330
17
100
AcDbEntity
  8
SCORE
100
AcDbPolyline
 90
2
 70
0
 10
1.8594980314960632
 20
3.0121751949352626
 10
0.5102526246719163
 20
3.0121751949352626
  0
LWPOLYLINE
  5
D0
330
17
100
AcDbEntity
  8
SCORE
100
AcDbPolyline
 90
2
 70
0
 10
2.4705544619422577
 20
3.012175194935261
 10
2.0009842519685037
 20
3.012175194935261
  0
LWPOLYLINE
  5
D1
330
17
100
AcDbEntity
  8
SCORE
100
AcDbPolyline
 90
2
 70
0
 10
1.8594980314960632
 20
3.2558019198124706
 10
0.5102526246719163
 20
3.2558019198124706
  0
LWPOLYLINE
  5
D2
330
17
100
AcDbEntity
  8
SCORE
100
AcDbPolyline
 90
2
 70
0
 10
2.4705544619422577
 20
3.2558019198124715
 10
2.0009842519685037
 20
3.2558019198124715
  0
LWPOLYLINE
  5
D3
330
17
100
AcDbEntity
  8
SCORE
100
AcDbPolyline
 90
2
 70
0
 10
1.8594980314960632
 20
3.5095797582262342
 10
0.5102526246719163
 20
3.5095797582262342
  0
LWPOLYLINE
  5
D4
330
17
100
AcDbEntity
  8
SCORE
100
AcDbPolyline
 90
2
 70
0
 10
2.4705544619422577
 20
3.509579758226236
 10
2.0009842519685037
 20
3.509579758226236
  0
LWPOLYLINE
  5
D5
330
17
100
AcDbEntity
  8
SCORE
100
AcDbPolyline
 90
2
 70
0
 10
1.8594980314960632
 20
4.006984321517209
 10
0.5102526246719163
 20
4.006984321517209
  0
LWPOLYLINE
  5
D6
330
17
100
AcDbEntity
  8
SCORE
100
AcDbPolyline
 90
2
 70
0
 10
2.4705544619422577
 20
4.006984321517211
 10
2.0009842519685037
 20
4.006984321517211
  0
LWPOLYLINE
  5
D7
330
17
100
AcDbEntity
  8
SCORE
100
AcDbPolyline
 90
2
 70
0
 10
1.8594980314960632
 20
4.27091327346752
 10
0.5102526246719163
 20
4.27091327346752
  0
LWPOLYLINE
  5
D8
330
17
100
AcDbEntity
  8
SCORE
100
AcDbPolyline
 90
2
 70
0
 10
2.4705544619422577
 20
4.270913273467523
 10
2.0009842519685037
 20
4.270913273467523
  0
LWPOLYLINE
  5
D9
330
17
100
AcDbEntity
  8
SCORE
100
AcDbPolyline
 90
2
 70
0
 10
1.8594980314960632
 20
4.514539998344733
 10
0.5102526246719163
 20
4.514539998344733
  0
LWPOLYLINE
  5
DA
330
17
100
AcDbEntity
  8
SCORE
100
AcDbPolyline
 90
2
 70
0
 10
2.4705544619422577
 20
4.514539998344735
 10
2.0009842519685037
 20
4.514539998344735
  0
LWPOLYLINE
  5
DB
330
17
100
AcDbEntity
  8
SCORE
100
AcDbPolyline
 90
2
 70
0
 10
1.8594980314960632
 20
4.7683178367584995
 10
0.5102526246719163
 20
4.7683178367584995
  0
LWPOLYLINE
  5
DC
330
17
100
AcDbEntity
  8
SCORE
100
AcDbPolyline
 90
2
 70
0
 10
2.4705544619422577
 20
4.768317836758498
 10
2.0009842519685037
 20
4.768317836758498
  0
LWPOLYLINE
  5
DD
330
17
100
AcDbEntity
  8
SCORE
100
AcDbPolyline
 90
2
 70
0
 10
1.8594980314960632
 20
5.022095675172259
 10
0.5102526246719163
 20
5.022095675172259
  0
LWPOLYLINE
  5
DE
330
17
100
AcDbEntity
  8
SCORE
100
AcDbPolyline
 90
2
 70
0
 10
2.4705544619422577
 20
5.0220956751722605
 10
2.0009842519685037
 20
5.0220956751722605
  0
LWPOLYLINE
  5
DF
330
17
100
AcDbEntity
  8
SCORE
100
AcDbPolyline
 90
2
 70
0
 10
1.8594980314960632
 20
5.519500238463236
 10
0.5102526246719163
 20
5.519500238463236
  0
LWPOLYLINE
  5
E0
330
17
100
AcDbEntity
  8
SCORE
100
AcDbPolyline
 90
2
 70
0
 10
2.4705544619422577
 20
5.519500238463236
 10
2.0009842519685037
 20
5.519500238463236
  0
LWPOLYLINE
  5
E1
330
17
100
AcDbEntity
  8
SCORE
100
AcDbPolyline
 90
2
 70
0
 10
1.8594980314960632
 20
5.7732780768769985
 10
0.5102526246719163
 20
5.7732780768769985
  0
LWPOLYLINE
  5
E2
330
17
100
AcDbEntity
  8
SCORE
100
AcDbPolyline
 90
2
 70
0
 10
2.4705544619422577
 20
5.7732780768769985
 10
2.0009842519685037
 20
5.7732780768769985
  0
LWPOLYLINE
  5
E3
330
17
100
AcDbEntity
  8
SCORE
100
AcDbPolyline
 90
2
 70
0
 10
1.8594980314960632
 20
6.016904801754211
 10
0.5102526246719163
 20
6.016904801754211
  0
LWPOLYLINE
  5
E4
330
17
100
AcDbEntity
  8
SCORE
100
AcDbPolyline
 90
2
 70
0
 10
2.4705544619422577
 20
6.016904801754211
 10
2.0009842519685037
 20
6.016904801754211
  0
LWPOLYLINE
  5
E5
330
17
100
AcDbEntity
  8
SCORE
100
AcDbPolyline
 90
2
 70
0
 10
1.8594980314960632
 20
6.270682640167973
 10
0.5102526246719163
 20
6.270682640167973
  0
LWPOLYLINE
  5
E6
330
17
100
AcDbEntity
  8
SCORE
100
AcDbPolyline
 90
2
 70
0
 10
2.4705544619422577
 20
6.270682640167973
 10
2.0009842519685037
 20
6.270682640167973
  0
LWPOLYLINE
  5
E7
330
17
100
AcDbEntity
  8
SCORE
100
AcDbPolyline
 90
2
 70
0
 10
1.8594980314960632
 20
6.5244604785817355
 10
0.5102526246719163
 20
6.5244604785817355
  0
LWPOLYLINE
  5
E8
330
17
100
AcDbEntity
  8
SCORE
100
AcDbPolyline
 90
2
 70
0
 10
2.4705544619422577
 20
6.5244604785817355
 10
2.0009842519685037
 20
6.5244604785817355
  0
LWPOLYLINE
  5
E9
330
17
100
AcDbEntity
  8
SCORE
100
AcDbPolyline
 90
2
 70
0
 10
1.845144356955381
 20
7.011713928336158
 10
0.5102526246719163
 20
7.011713928336158
  0
LWPOLYLINE
  5
EA
330
17
100
AcDbEntity
  8
SCORE
100
AcDbPolyline
 90
2
 70
0
 10
1.845144356955381
 20
7.265491766749922
 10
0.5102526246719163
 20
7.265491766749922
  0
LWPOLYLINE
  5
EB
330
17
100
AcDbEntity
  8
SCORE
100
AcDbPolyline
 90
2
 70
0
 10
1.845144356955381
 20
7.519269605163683
 10
0.5102526246719163
 20
7.519269605163683
  0
LWPOLYLINE
  5
EC
330
17
100
AcDbEntity
  8
SCORE
100
AcDbPolyline
 90
2
 70
0
 10
1.845144356955381
 20
7.762896330040896
 10
0.5102526246719163
 20
7.762896330040896
  0
LWPOLYLINE
  5
ED
330
17
100
AcDbEntity
  8
SCORE
100
AcDbPolyline
 90
2
 70
0
 10
1.845144356955381
 20
8.01667416845466
 10
0.5102526246719163
 20
8.01667416845466
  0
LWPOLYLINE
  5
EE
330
17
100
AcDbEntity
  8
SCORE
100
AcDbPolyline
 90
2
 70
0
 10
1.845144356955381
 20
8.514078731745634
 10
0.5102526246719163
 20
8.514078731745634
  0
LWPOLYLINE
  5
EF
330
17
100
AcDbEntity
  8
SCORE
100
AcDbPolyline
 90
2
 70
0
 10
1.845144356955381
 20
8.767856570159397
 10
0.5102526246719163
 20
8.767856570159397
  0
LWPOLYLINE
  5
F0
330
17
100
AcDbEntity
  8
SCORE
100
AcDbPolyline
 90
2
 70
0
 10
1.845144356955381
 20
9.02163440857316
 10
0.5102526246719163
 20
9.02163440857316
  0
LWPOLYLINE
  5
F1
330
17
100
AcDbEntity
  8
SCORE
100
AcDbPolyline
 90
2
 70
0
 10
1.845144356955381
 20
9.265261133450371
 10
0.5102526246719163
 20
9.265261133450371
  0
LWPOLYLINE
  5
F2
330
17
100
AcDbEntity
  8
SCORE
100
AcDbPolyline
 90
2
 70
0
 10
1.845144356955381
 20
9.519038971864134
 10
0.5102526246719163
 20
9.519038971864134
  0
LWPOLYLINE
  5
F3
330
17
100
AcDbEntity
  8
SCORE
100
AcDbPolyline
 90
2
 70
0
 10
1.845144356955381
 20
10.01644353515511
 10
0.5102526246719163
 20
10.01644353515511
  0
LWPOLYLINE
  5
F4
330
17
100
AcDbEntity
  8
SCORE
100
AcDbPolyline
 90
2
 70
0
 10
1.845144356955381
 20
10.280372487105423
 10
0.5102526246719163
 20
10.280372487105423
  0
LWPOLYLINE
  5
F5
330
17
100
AcDbEntity
  8
SCORE
100
AcDbPolyline
 90
2
 70
0
 10
1.845144356955381
 20
10.523999211982634
 10
0.5102526246719163
 20
10.523999211982634
  0
LWPOLYLINE
  5
F6
330
17
100
AcDbEntity
  8
SCORE
100
AcDbPolyline
 90
2
 70
0
 10
1.845144356955381
 20
10.787928163932948
 10
0.5102526246719163
 20
10.787928163932948
  0
LWPOLYLINE
  5
F7
330
17
100
AcDbEntity
  8
SCORE
100
AcDbPolyline
 90
2
 70
0
 10
1.845144356955381
 20
11.03155488881016
 10
0.5102526246719163
 20
11.03155488881016
  0
LWPOLYLINE
  5
F8
330
17
100
AcDbEntity
  8
ENGRAVE
100
AcDbPolyline
 90
2
 70
0
 10
0.18
 20
19.58
 10
0.18
 20
19.88
  0
LWPOLYLINE
  5
F9
330
17
100
AcDbEntity
  8
ENGRAVE
100
AcDbPolyline
 90
3
 70
0
 10
0.09999999999999999
 20
19.779999999999998
 10
0.18
 20
19.88
 10
0.26
 20
19.779999999999998
  0
LWPOLYLINE
  5
FA
330
17
100
AcDbEntity
  8
ENGRAVE
100
AcDbPolyline
 90
2
 70
0
 10
0.1
 20
0.25
 10
0.4
 20
0.25
  0
LWPOLYLINE
  5
FB
330
17
100
AcDbEntity
  8
ENGRAVE
100
AcDbPolyline
 90
2
 70
0
 10
0.25
 20
0.1
 10
0.25
 20
0.4
  0
LWPOLYLINE
  5
FC
330
17
100
AcDbEntity
  8
NUMBERS
100
AcDbPolyline
 90
6
 70
0
 10
2.5208070866141736
 20
0.7833333333333333
 10
2.5208070866141736
 20
0.75
 10
2.5708070866141735
 20
0.75
 10
2.5708070866141735
 20
0.7833333333333333
 10
2.5458070866141735
 20
0.7833333333333333
 10
2.5458070866141735
 20
0.7666666666666667
  0
LWPOLYLINE
  5
FD
330
17
100
AcDbEntity
  8
NUMBERS
100
AcDbPolyline
 90
3
 70
0
 10
2.5208070866141736
 20
0.7966666666666666
 10
2.5708070866141735
 20
0.7966666666666666
 10
2.5708070866141735
 20
0.83
  0
LWPOLYLINE
  5
FE
330
17
100
AcDbEntity
  8
NUMBERS
100
AcDbPolyline
 90
5
 70
0
 10
2.5708070866141735
 20
0.8433333333333333
 10
2.5708070866141735
 20
0.8766666666666667
 10
2.5208070866141736
 20
0.8766666666666667
 10
2.5208070866141736
 20
0.8433333333333333
 10
2.5708070866141735
 20
0.8433333333333333
  0
LWPOLYLINE
  5
FF
330
17
100
AcDbEntity
  8
NUMBERS
100
AcDbPolyline
 90
2
 70
0
 10
2.5708070866141735
 20
0.8433333333333333
 10
2.5208070866141736
 20
0.8766666666666667
  0
LWPOLYLINE
  5
100
330
17
100
AcDbEntity
  8
NUMBERS
100
AcDbPolyline
 90
3
 70
0
 10
2.529140419947507
 20
0.8983333333333333
 10
2.5208070866141736
 20
0.9066666666666666
 10
2.5708070866141735
 20
0.9066666666666666
  0
LWPOLYLINE
  5
101
330
17
100
AcDbEntity
  8
NUMBERS
100
AcDbPolyline
 90
2
 70
0
 10
2.5708070866141735
 20
0.8983333333333333
 10
2.5708070866141735
 20
0.915
  0
LWPOLYLINE
  5
102
330
17
100
AcDbEntity
  8
NUMBERS
100
AcDbPolyline
 90
7
 70
0
 10
2.5208070866141736
 20
0.9366666666666666
 10
2.5208070866141736
 20
0.97
 10
2.5416404199475067
 20
0.9533333333333334
 10
2.54997375328084
 20
0.97
 10
2.56247375328084
 20
0.97
 10
2.5708070866141735
 20
0.9616666666666667
 10
2.5708070866141735
 20
0.9366666666666666
  0
LWPOLYLINE
  5
103
330
17
100
AcDbEntity
  8
NUMBERS
100
AcDbPolyline
 90
6
 70
0
 10
3.3513582677165354
 20
0.7833333333333333
 10
3.3513582677165354
 20
0.75
 10
3.4013582677165357
 20
0.75
 10
3.4013582677165357
 20
0.7833333333333333
 10
3.376358267716536
 20
0.7833333333333333
 10
3.376358267716536
 20
0.7666666666666667
  0
LWPOLYLINE
  5
104
330
17
100
AcDbEntity
  8
NUMBERS
100
AcDbPolyline
 90
3
 70
0
 10
3.3513582677165354
 20
0.7966666666666666
 10
3.4013582677165357
 20
0.7966666666666666
 10
3.4013582677165357
 20
0.83
  0
LWPOLYLINE
  5
105
330
17
100
AcDbEntity
  8
NUMBERS
100
AcDbPolyline
 90
5
 70
0
 10
3.4013582677165357
 20
0.8433333333333333
 10
3.4013582677165357
 20
0.8766666666666667
 10
3.3513582677165354
 20
0.8766666666666667
 10
3.3513582677165354
 20
0.8433333333333333
 10
3.4013582677165357
 20
0.8433333333333333
  0
LWPOLYLINE
  5
106
330
17
100
AcDbEntity
  8
NUMBERS
100
AcDbPolyline
 90
2
 70
0
 10
3.4013582677165357
 20
0.8433333333333333
 10
3.3513582677165354
 20
0.8766666666666667
  0
LWPOLYLINE
  5
107
330
17
100
AcDbEntity
  8
NUMBERS
100
AcDbPolyline
 90
3
 70
0
 10
3.359691601049869
 20
0.8983333333333333
 10
3.3513582677165354
 20
0.9066666666666666
 10
3.4013582677165357
 20
0.9066666666666666
  0
LWPOLYLINE
  5
108
330
17
100
AcDbEntity
  8
NUMBERS
100
AcDbPolyline
 90
2
 70
0
 10
3.4013582677165357
 20
0.8983333333333333
 10
3.4013582677165357
 20
0.915
  0
LWPOLYLINE
  5
109
330
17
100
AcDbEntity
  8
NUMBERS
100
AcDbPolyline
 90
5
 70
0
 10
3.4013582677165357
 20
0.9366666666666666
 10
3.4013582677165357
 20
0.97
 10
3.3513582677165354
 20
0.97
 10
3.3513582677165354
 20
0.9366666666666666
 10
3.4013582677165357
 20
0.9366666666666666
  0
LWPOLYLINE
  5
10A
330
17
100
AcDbEntity
  8
NUMBERS
100
AcDbPolyline
 90
2
 70
0
 10
3.4013582677165357
 20
0.9366666666666666
 10
3.3513582677165354
 20
0.97
  0
LWPOLYLINE
  5
10B
330
17
100
AcDbEntity
  8
NUMBERS
100
AcDbPolyline
 90
6
 70
0
 10
4.308057742782152
 20
0.7833333333333333
 10
4.308057742782152
 20
0.75
 10
4.358057742782153
 20
0.75
 10
4.358057742782153
 20
0.7833333333333333
 10
4.333057742782152
 20
0.7833333333333333
 10
4.333057742782152
 20
0.7666666666666667
  0
LWPOLYLINE
  5
10C
330
17
100
AcDbEntity
  8
NUMBERS
100
AcDbPolyline
 90
3
 70
0
 10
4.308057742782152
 20
0.7966666666666666
 10
4.358057742782153
 20
0.7966666666666666
 10
4.358057742782153
 20
0.83
  0
LWPOLYLINE
  5
10D
330
17
100
AcDbEntity
  8
NUMBERS
100
AcDbPolyline
 90
5
 70
0
 10
4.358057742782153
 20
0.8433333333333333
 10
4.358057742782153
 20
0.8766666666666667
 10
4.308057742782152
 20
0.8766666666666667
 10
4.308057742782152
 20
0.8433333333333333
 10
4.358057742782153
 20
0.8433333333333333
  0
LWPOLYLINE
  5
10E
330
17
100
AcDbEntity
  8
NUMBERS
100
AcDbPolyline
 90
2
 70
0
 10
4.358057742782153
 20
0.8433333333333333
 10
4.308057742782152
 20
0.8766666666666667
  0
LWPOLYLINE
  5
10F
330
17
100
AcDbEntity
  8
NUMBERS
100
AcDbPolyline
 90
5
 70
0
 10
4.358057742782153
 20
0.89
 10
4.358057742782153
 20
0.9233333333333333
 10
4.308057742782152
 20
0.9233333333333333
 10
4.308057742782152
 20
0.89
 10
4.358057742782153
 20
0.89
  0
LWPOLYLINE
  5
110
330
17
100
AcDbEntity
  8
NUMBERS
100
AcDbPolyline
 90
2
 70
0
 10
4.358057742782153
 20
0.89
 10
4.308057742782152
 20
0.9233333333333333
  0
LWPOLYLINE
  5
111
330
17
100
AcDbEntity
  8
NUMBERS
100
AcDbPolyline
 90
3
 70
0
 10
4.308057742782152
 20
0.9366666666666666
 10
4.308057742782152
 20
0.97
 10
4.358057742782153
 20
0.945
  0
LWPOLYLINE
  5
112
330
17
100
AcDbEntity
  8
NUMBERS
100
AcDbPolyline
 90
6
 70
0
 10
5.264757217847769
 20
0.7833333333333333
 10
5.264757217847769
 20
0.75
 10
5.314757217847769
 20
0.75
 10
5.314757217847769
 20
0.7833333333333333
 10
5.289757217847769
 20
0.7833333333333333
 10
5.289757217847769
 20
0.7666666666666667
  0
LWPOLYLINE
  5
113
330
17
100
AcDbEntity
  8
NUMBERS
100
AcDbPolyline
 90
3
 70
0
 10
5.264757217847769
 20
0.7966666666666666
 10
5.314757217847769
 20
0.7966666666666666
 10
5.314757217847769
 20
0.83
  0
LWPOLYLINE
  5
114
330
17
100
AcDbEntity
  8
NUMBERS
100
AcDbPolyline
 90
5
 70
0
 10
5.314757217847769
 20
0.8433333333333333
 10
5.314757217847769
 20
0.8766666666666667
 10
5.264757217847769
 20
0.8766666666666667
 10
5.264757217847769
 20
0.8433333333333333
 10
5.314757217847769
 20
0.8433333333333333
  0
LWPOLYLINE
  5
115
330
17
100
AcDbEntity
  8
NUMBERS
100
AcDbPolyline
 90
2
 70
0
 10
5.314757217847769
 20
0.8433333333333333
 10
5.264757217847769
 20
0.8766666666666667
  0
LWPOLYLINE
  5
116
330
17
100
AcDbEntity
  8
NUMBERS
100
AcDbPolyline
 90
5
 70
0
 10
5.314757217847769
 20
0.89
 10
5.314757217847769
 20
0.9233333333333333
 10
5.264757217847769
 20
0.9233333333333333
 10
5.264757217847769
 20
0.89
 10
5.314757217847769
 20
0.89
  0
LWPOLYLINE
  5
117
330
17
100
AcDbEntity
  8
NUMBERS
100
AcDbPolyline
 90
2
 70
0
 10
5.314757217847769
 20
0.89
 10
5.264757217847769
 20
0.9233333333333333
  0
LWPOLYLINE
  5
118
330
17
100
AcDbEntity
  8
NUMBERS
100
AcDbPolyline
 90
7
 70
0
 10
5.264757217847769
 20
0.97
 10
5.264757217847769
 20
0.945
 10
5.273090551181102
 20
0.9366666666666666
 10
5.314757217847769
 20
0.9366666666666666
 10
5.314757217847769
 20
0.97
 10
5.289757217847769
 20
0.97
 10
5.289757217847769
 20
0.9366666666666666
  0
LWPOLYLINE
  5
119
330
17
100
AcDbEntity
  8
NUMBERS
100
AcDbPolyline
 90
6
 70
0
 10
6.221456692913385
 20
0.7833333333333333
 10
6.221456692913385
 20
0.75
 10
6.271456692913386
 20
0.75
 10
6.271456692913386
 20
0.7833333333333333
 10
6.246456692913386
 20
0.7833333333333333
 10
6.246456692913386
 20
0.7666666666666667
  0
LWPOLYLINE
  5
11A
330
17
100
AcDbEntity
  8
NUMBERS
100
AcDbPolyline
 90
3
 70
0
 10
6.221456692913385
 20
0.7966666666666666
 10
6.271456692913386
 20
0.7966666666666666
 10
6.271456692913386
 20
0.83
  0
LWPOLYLINE
  5
11B
330
17
100
AcDbEntity
  8
NUMBERS
100
AcDbPolyline
 90
5
 70
0
 10
6.271456692913386
 20
0.8433333333333333
 10
6.271456692913386
 20
0.8766666666666667
 10
6.221456692913385
 20
0.8766666666666667
 10
6.221456692913385
 20
0.8433333333333333
 10
6.271456692913386
 20
0.8433333333333333
  0
LWPOLYLINE
  5
11C
330
17
100
AcDbEntity
  8
NUMBERS
100
AcDbPolyline
 90
2
 70
0
 10
6.271456692913386
 20
0.8433333333333333
 10
6.221456692913385
 20
0.8766666666666667
  0
LWPOLYLINE
  5
11D
330
17
100
AcDbEntity
  8
NUMBERS
100
AcDbPolyline
 90
5
 70
0
 10
6.271456692913386
 20
0.89
 10
6.271456692913386
 20
0.9233333333333333
 10
6.221456692913385
 20
0.9233333333333333
 10
6.221456692913385
 20
0.89
 10
6.271456692913386
 20
0.89
  0
LWPOLYLINE
  5
11E
330
17
100
AcDbEntity
  8
NUMBERS
100
AcDbPolyline
 90
2
 70
0
 10
6.271456692913386
 20
0.89
 10
6.221456692913385
 20
0.9233333333333333
  0
LWPOLYLINE
  5
11F
330
17
100
AcDbEntity
  8
NUMBERS
100
AcDbPolyline
 90
8
 70
0
 10
6.221456692913385
 20
0.97
 10
6.221456692913385
 20
0.9366666666666666
 10
6.242290026246719
 20
0.9366666666666666
 10
6.242290026246719
 20
0.9616666666666667
 10
6.250623359580052
 20
0.97
 10
6.263123359580052
 20
0.97
 10
6.271456692913386
 20
0.9616666666666667
 10
6.271456692913386
 20
0.9366666666666666
  0
LWPOLYLINE
  5
120
330
17
100
AcDbEntity
  8
NUMBERS
100
AcDbPolyline
 90
6
 70
0
 10
7.603599081364829
 20
0.7833333333333333
 10
7.603599081364829
 20
0.75
 10
7.653599081364829
 20
0.75
 10
7.653599081364829
 20
0.7833333333333333
 10
7.628599081364829
 20
0.7833333333333333
 10
7.628599081364829
 20
0.7666666666666667
  0
LWPOLYLINE
  5
121
330
17
100
AcDbEntity
  8
NUMBERS
100
AcDbPolyline
 90
3
 70
0
 10
7.603599081364829
 20
0.7966666666666666
 10
7.653599081364829
 20
0.7966666666666666
 10
7.653599081364829
 20
0.83
  0
LWPOLYLINE
  5
122
330
17
100
AcDbEntity
  8
NUMBERS
100
AcDbPolyline
 90
5
 70
0
 10
7.653599081364829
 20
0.8433333333333333
 10
7.653599081364829
 20
0.8766666666666667
 10
7.603599081364829
 20
0.8766666666666667
 10
7.603599081364829
 20
0.8433333333333333
 10
7.653599081364829
 20
0.8433333333333333
  0
LWPOLYLINE
  5
123
330
17
100
AcDbEntity
  8
NUMBERS
100
AcDbPolyline
 90
2
 70
0
 10
7.653599081364829
 20
0.8433333333333333
 10
7.603599081364829
 20
0.8766666666666667
  0
LWPOLYLINE
  5
124
330
17
100
AcDbEntity
  8
NUMBERS
100
AcDbPolyline
 90
3
 70
0
 10
7.611932414698162
 20
0.8983333333333333
 10
7.603599081364829
 20
0.9066666666666666
 10
7.653599081364829
 20
0.9066666666666666
  0
LWPOLYLINE
  5
125
330
17
100
AcDbEntity
  8
NUMBERS
100
AcDbPolyline
 90
2
 70
0
 10
7.653599081364829
 20
0.8983333333333333
 10
7.653599081364829
 20
0.915
  0
LWPOLYLINE
  5
126
330
17
100
AcDbEntity
  8
NUMBERS
100
AcDbPolyline
 90
7
 70
0
 10
7.611932414698162
 20
0.9366666666666666
 10
7.603599081364829
 20
0.945
 10
7.603599081364829
 20
0.9616666666666667
 10
7.611932414698162
 20
0.97
 10
7.620265748031495
 20
0.97
 10
7.653599081364829
 20
0.9366666666666666
 10
7.653599081364829
 20
0.97
  0
LWPOLYLINE
  5
127
330
17
100
AcDbEntity
  8
NUMBERS
100
AcDbPolyline
 90
6
 70
0
 10
8.507873325536188
 20
0.7833333333333333
 10
8.507873325536188
 20
0.75
 10
8.557873325536189
 20
0.75
 10
8.557873325536189
 20
0.7833333333333333
 10
8.532873325536189
 20
0.7833333333333333
 10
8.532873325536189
 20
0.7666666666666667
  0
LWPOLYLINE
  5
128
330
17
100
AcDbEntity
  8
NUMBERS
100
AcDbPolyline
 90
3
 70
0
 10
8.507873325536188
 20
0.7966666666666666
 10
8.557873325536189
 20
0.7966666666666666
 10
8.557873325536189
 20
0.83
  0
LWPOLYLINE
  5
129
330
17
100
AcDbEntity
  8
NUMBERS
100
AcDbPolyline
 90
5
 70
0
 10
8.557873325536189
 20
0.8433333333333333
 10
8.557873325536189
 20
0.8766666666666667
 10
8.507873325536188
 20
0.8766666666666667
 10
8.507873325536188
 20
0.8433333333333333
 10
8.557873325536189
 20
0.8433333333333333
  0
LWPOLYLINE
  5
12A
330
17
100
AcDbEntity
  8
NUMBERS
100
AcDbPolyline
 90
2
 70
0
 10
8.557873325536189
 20
0.8433333333333333
 10
8.507873325536188
 20
0.8766666666666667
  0
LWPOLYLINE
  5
12B
330
17
100
AcDbEntity
  8
NUMBERS
100
AcDbPolyline
 90
3
 70
0
 10
8.516206658869521
 20
0.8983333333333333
 10
8.507873325536188
 20
0.9066666666666666
 10
8.557873325536189
 20
0.9066666666666666
  0
LWPOLYLINE
  5
12C
330
17
100
AcDbEntity
  8
NUMBERS
100
AcDbPolyline
 90
2
 70
0
 10
8.557873325536189
 20
0.8983333333333333
 10
8.557873325536189
 20
0.915
  0
LWPOLYLINE
  5
12D
330
17
100
AcDbEntity
  8
NUMBERS
100
AcDbPolyline
 90
3
 70
0
 10
8.516206658869521
 20
0.945
 10
8.507873325536188
 20
0.9533333333333334
 10
8.557873325536189
 20
0.9533333333333334
  0
LWPOLYLINE
  5
12E
330
17
100
AcDbEntity
  8
NUMBERS
100
AcDbPolyline
 90
2
 70
0
 10
8.557873325536189
 20
0.945
 10
8.557873325536189
 20
0.9616666666666667
  0
LWPOLYLINE
  5
12F
330
17
100
AcDbEntity
  8
NUMBERS
100
AcDbPolyline
 90
6
 70
0
 10
9.33842450663855
 20
0.7833333333333333
 10
9.33842450663855
 20
0.75
 10
9.38842450663855
 20
0.75
 10
9.38842450663855
 20
0.7833333333333333
 10
9.36342450663855
 20
0.7833333333333333
 10
9.36342450663855
 20
0.7666666666666667
  0
LWPOLYLINE
  5
130
330
17
100
AcDbEntity
  8
NUMBERS
100
AcDbPolyline
 90
3
 70
0
 10
9.33842450663855
 20
0.7966666666666666
 10
9.38842450663855
 20
0.7966666666666666
 10
9.38842450663855
 20
0.83
  0
LWPOLYLINE
  5
131
330
17
100
AcDbEntity
  8
NUMBERS
100
AcDbPolyline
 90
5
 70
0
 10
9.38842450663855
 20
0.8433333333333333
 10
9.38842450663855
 20
0.8766666666666667
 10
9.33842450663855
 20
0.8766666666666667
 10
9.33842450663855
 20
0.8433333333333333
 10
9.38842450663855
 20
0.8433333333333333
  0
LWPOLYLINE
  5
132
330
17
100
AcDbEntity
  8
NUMBERS
100
AcDbPolyline
 90
2
 70
0
 10
9.38842450663855
 20
0.8433333333333333
 10
9.33842450663855
 20
0.8766666666666667
  0
LWPOLYLINE
  5
133
330
17
100
AcDbEntity
  8
NUMBERS
100
AcDbPolyline
 90
5
 70
0
 10
9.38842450663855
 20
0.89
 10
9.38842450663855
 20
0.9233333333333333
 10
9.33842450663855
 20
0.9233333333333333
 10
9.33842450663855
 20
0.89
 10
9.38842450663855
 20
0.89
  0
LWPOLYLINE
  5
134
330
17
100
AcDbEntity
  8
NUMBERS
100
AcDbPolyline
 90
2
 70
0
 10
9.38842450663855
 20
0.89
 10
9.33842450663855
 20
0.9233333333333333
  0
LWPOLYLINE
  5
135
330
17
100
AcDbEntity
  8
NUMBERS
100
AcDbPolyline
 90
7
 70
0
 10
9.38842450663855
 20
0.9366666666666666
 10
9.38842450663855
 20
0.9616666666666667
 10
9.380091173305216
 20
0.97
 10
9.33842450663855
 20
0.97
 10
9.33842450663855
 20
0.9366666666666666
 10
9.36342450663855
 20
0.9366666666666666
 10
9.36342450663855
 20
0.97
  0
LWPOLYLINE
  5
136
330
17
100
AcDbEntity
  8
NUMBERS
100
AcDbPolyline
 90
6
 70
0
 10
10.168975687740911
 20
0.7833333333333333
 10
10.168975687740911
 20
0.75
 10
10.218975687740912
 20
0.75
 10
10.218975687740912
 20
0.7833333333333333
 10
10.193975687740911
 20
0.7833333333333333
 10
10.193975687740911
 20
0.7666666666666667
  0
LWPOLYLINE
  5
137
330
17
100
AcDbEntity
  8
NUMBERS
100
AcDbPolyline
 90
3
 70
0
 10
10.168975687740911
 20
0.7966666666666666
 10
10.218975687740912
 20
0.7966666666666666
 10
10.218975687740912
 20
0.83
  0
LWPOLYLINE
  5
138
330
17
100
AcDbEntity
  8
NUMBERS
100
AcDbPolyline
 90
5
 70
0
 10
10.218975687740912
 20
0.8433333333333333
 10
10.218975687740912
 20
0.8766666666666667
 10
10.168975687740911
 20
0.8766666666666667
 10
10.168975687740911
 20
0.8433333333333333
 10
10.218975687740912
 20
0.8433333333333333
  0
LWPOLYLINE
  5
139
330
17
100
AcDbEntity
  8
NUMBERS
100
AcDbPolyline
 90
2
 70
0
 10
10.218975687740912
 20
0.8433333333333333
 10
10.168975687740911
 20
0.8766666666666667
  0
LWPOLYLINE
  5
13A
330
17
100
AcDbEntity
  8
NUMBERS
100
AcDbPolyline
 90
5
 70
0
 10
10.218975687740912
 20
0.89
 10
10.218975687740912
 20
0.9233333333333333
 10
10.168975687740911
 20
0.9233333333333333
 10
10.168975687740911
 20
0.89
 10
10.218975687740912
 20
0.89
  0
LWPOLYLINE
  5
13B
330
17
100
AcDbEntity
  8
NUMBERS
100
AcDbPolyline
 90
2
 70
0
 10
10.218975687740912
 20
0.89
 10
10.168975687740911
 20
0.9233333333333333
  0
LWPOLYLINE
  5
13C
330
17
100
AcDbEntity
  8
NUMBERS
100
AcDbPolyline
 90
5
 70
0
 10
10.218975687740912
 20
0.9366666666666666
 10
10.218975687740912
 20
0.97
 10
10.193975687740911
 20
0.97
 10
10.193975687740911
 20
0.9366666666666666
 10
10.218975687740912
 20
0.9366666666666666
  0
LWPOLYLINE
  5
13D
330
17
100
AcDbEntity
  8
NUMBERS
100
AcDbPolyline
 90
4
 70
0
 10
10.193975687740911
 20
0.9408333333333333
 10
10.168975687740911
 20
0.9408333333333333
 10
10.168975687740911
 20
0.9658333333333333
 10
10.193975687740911
 20
0.9658333333333333
  0
LWPOLYLINE
  5
13E
330
17
100
AcDbEntity
  8
NUMBERS
100
AcDbPolyline
 90
6
 70
0
 10
0.6033333333333334
 20
0.28
 10
0.55
 20
0.28
 10
0.55
 20
0.24000000000000002
 10
0.6033333333333334
 20
0.24000000000000002
 10
0.6033333333333334
 20
0.2
 10
0.55
 20
0.2
  0
LWPOLYLINE
  5
13F
330
17
100
AcDbEntity
  8
NUMBERS
100
AcDbPolyline
 90
2
 70
0
 10
0.6246666666666667
 20
0.2
 10
0.6246666666666667
 20
0.28
  0
LWPOLYLINE
  5
140
330
17
100
AcDbEntity
  8
NUMBERS
100
AcDbPolyline
 90
2
 70
0
 10
0.678
 20
0.2
 10
0.678
 20
0.28
  0
LWPOLYLINE
  5
141
330
17
100
AcDbEntity
  8
NUMBERS
100
AcDbPolyline
 90
2
 70
0
 10
0.6246666666666667
 20
0.24000000000000002
 10
0.678
 20
0.24000000000000002
  0
LWPOLYLINE
  5
142
330
17
100
AcDbEntity
  8
NUMBERS
100
AcDbPolyline
 90
4
 70
0
 10
0.7526666666666667
 20
0.28
 10
0.6993333333333334
 20
0.28
 10
0.6993333333333334
 20
0.2
 10
0.7526666666666667
 20
0.2
  0
LWPOLYLINE
  5
143
330
17
100
AcDbEntity
  8
NUMBERS
100
AcDbPolyline
 90
2
 70
0
 10
0.6993333333333334
 20
0.24000000000000002
 10
0.7393333333333334
 20
0.24000000000000002
  0
LWPOLYLINE
  5
144
330
17
100
AcDbEntity
  8
NUMBERS
100
AcDbPolyline
 90
4
 70
0
 10
0.8273333333333334
 20
0.28
 10
0.774
 20
0.28
 10
0.774
 20
0.2
 10
0.8273333333333334
 20
0.2
  0
LWPOLYLINE
  5
145
330
17
100
AcDbEntity
  8
NUMBERS
100
AcDbPolyline
 90
2
 70
0
 10
0.774
 20
0.24000000000000002
 10
0.8140000000000001
 20
0.24000000000000002
  0
LWPOLYLINE
  5
146
330
17
100
AcDbEntity
  8
NUMBERS
100
AcDbPolyline
 90
2
 70
0
 10
0.8486666666666667
 20
0.28
 10
0.902
 20
0.28
  0
LWPOLYLINE
  5
147
330
17
100
AcDbEntity
  8
NUMBERS
100
AcDbPolyline
 90
2
 70
0
 10
0.8753333333333333
 20
0.28
 10
0.8753333333333333
 20
0.2
  0
LWPOLYLINE
  5
148
330
17
100
AcDbEntity
  8
NUMBERS
100
AcDbPolyline
 90
2
 70
0
 10
0.9300000000000002
 20
0.24000000000000002
 10
0.9700000000000001
 20
0.24000000000000002
  0
LWPOLYLINE
  5
149
330
17
100
AcDbEntity
  8
NUMBERS
100
AcDbPolyline
 90
5
 70
0
 10
0.998
 20
0.2
 10
1.0513333333333335
 20
0.2
 10
1.0513333333333335
 20
0.28
 10
0.998
 20
0.28
 10
0.998
 20
0.2
  0
LWPOLYLINE
  5
14A
330
17
100
AcDbEntity
  8
NUMBERS
100
AcDbPolyline
 90
2
 70
0
 10
0.998
 20
0.2
 10
1.0513333333333335
 20
0.28
  0
LWPOLYLINE
  5
14B
330
17
100
AcDbEntity
  8
NUMBERS
100
AcDbPolyline
 90
8
 70
0
 10
1.126
 20
0.28
 10
1.0726666666666667
 20
0.28
 10
1.0726666666666667
 20
0.2466666666666667
 10
1.1126666666666667
 20
0.2466666666666667
 10
1.126
 20
0.23333333333333334
 10
1.126
 20
0.21333333333333335
 10
1.1126666666666667
 20
0.2
 10
1.0726666666666667
 20
0.2
  0
LWPOLYLINE
  5
14C
330
17
100
AcDbEntity
  8
NUMBERS
100
AcDbPolyline
 90
5
 70
0
 10
1.2966666666666669
 20
0.2
 10
1.35
 20
0.2
 10
1.35
 20
0.28
 10
1.2966666666666669
 20
0.28
 10
1.2966666666666669
 20
0.2
  0
LWPOLYLINE
  5
14D
330
17
100
AcDbEntity
  8
NUMBERS
100
AcDbPolyline
 90
5
 70
0
 10
1.3713333333333335
 20
0.2
 10
1.3713333333333335
 20
0.28
 10
1.424666666666667
 20
0.28
 10
1.424666666666667
 20
0.24000000000000002
 10
1.3713333333333335
 20
0.24000000000000002
  0
LWPOLYLINE
  5
14E
330
17
100
AcDbEntity
  8
NUMBERS
100
AcDbPolyline
 90
2
 70
0
 10
1.4460000000000002
 20
0.28
 10
1.4993333333333334
 20
0.28
  0
LWPOLYLINE
  5
14F
330
17
100
AcDbEntity
  8
NUMBERS
100
AcDbPolyline
 90
2
 70
0
 10
1.4726666666666668
 20
0.28
 10
1.4726666666666668
 20
0.2
  0
LWPOLYLINE
  5
150
330
17
100
AcDbEntity
  8
NUMBERS
100
AcDbPolyline
 90
2
 70
0
 10
1.5340000000000003
 20
0.2
 10
1.5606666666666669
 20
0.2
  0
LWPOLYLINE
  5
151
330
17
100
AcDbEntity
  8
NUMBERS
100
AcDbPolyline
 90
2
 70
0
 10
1.5473333333333334
 20
0.2
 10
1.5473333333333334
 20
0.28
  0
LWPOLYLINE
  5
152
330
17
100
AcDbEntity
  8
NUMBERS
100
AcDbPolyline
 90
2
 70
0
 10
1.5340000000000003
 20
0.28
 10
1.5606666666666669
 20
0.28
  0
LWPOLYLINE
  5
153
330
17
100
AcDbEntity
  8
NUMBERS
100
AcDbPolyline
 90
5
 70
0
 10
1.5953333333333335
 20
0.2
 10
1.6486666666666667
 20
0.2
 10
1.6486666666666667
 20
0.28
 10
1.5953333333333335
 20
0.28
 10
1.5953333333333335
 20
0.2
  0
LWPOLYLINE
  5
154
330
17
100
AcDbEntity
  8
NUMBERS
100
AcDbPolyline
 90
4
 70
0
 10
1.6700000000000002
 20
0.2
 10
1.6700000000000002
 20
0.28
 10
1.7233333333333336
 20
0.2
 10
1.7233333333333336
 20
0.28
  0
LWPOLYLINE
  5
155
330
17
100
AcDbEntity
  8
NUMBERS
100
AcDbPolyline
 90
5
 70
0
 10
1.7446666666666668
 20
0.2
 10
1.7446666666666668
 20
0.25333333333333335
 10
1.7713333333333334
 20
0.28
 10
1.798
 20
0.25333333333333335
 10
1.798
 20
0.2
  0
LWPOLYLINE
  5
156
330
17
100
AcDbEntity
  8
NUMBERS
100
AcDbPolyline
 90
2
 70
0
 10
1.7446666666666668
 20
0.24000000000000002
 10
1.798
 20
0.24000000000000002
  0
LWPOLYLINE
  5
157
330
17
100
AcDbEntity
  8
NUMBERS
100
AcDbPolyline
 90
3
 70
0
 10
1.8193333333333335
 20
0.28
 10
1.8193333333333335
 20
0.2
 10
1.872666666666667
 20
0.2
  0
LWPOLYLINE
  5
158
330
17
100
AcDbEntity
  8
NUMBERS
100
AcDbPolyline
 90
5
 70
0
 10
1.9686666666666668
 20
0.2
 10
1.9686666666666668
 20
0.25333333333333335
 10
1.9953333333333334
 20
0.28
 10
2.0220000000000002
 20
0.25333333333333335
 10
2.0220000000000002
 20
0.2
  0
LWPOLYLINE
  5
159
330
17
100
AcDbEntity
  8
NUMBERS
100
AcDbPolyline
 90
2
 70
0
 10
1.9686666666666668
 20
0.24000000000000002
 10
2.0220000000000002
 20
0.24000000000000002
  0
LWPOLYLINE
  5
15A
330
17
100
AcDbEntity
  8
NUMBERS
100
AcDbPolyline
 90
4
 70
0
 10
2.096666666666667
 20
0.28
 10
2.043333333333334
 20
0.28
 10
2.043333333333334
 20
0.2
 10
2.096666666666667
 20
0.2
  0
LWPOLYLINE
  5
15B
330
17
100
AcDbEntity
  8
NUMBERS
100
AcDbPolyline
 90
4
 70
0
 10
2.1713333333333336
 20
0.28
 10
2.1180000000000003
 20
0.28
 10
2.1180000000000003
 20
0.2
 10
2.1713333333333336
 20
0.2
  0
LWPOLYLINE
  5
15C
330
17
100
AcDbEntity
  8
NUMBERS
100
AcDbPolyline
 90
2
 70
0
 10
2.1180000000000003
 20
0.24000000000000002
 10
2.1580000000000004
 20
0.24000000000000002
  0
LWPOLYLINE
  5
15D
330
17
100
AcDbEntity
  8
NUMBERS
100
AcDbPolyline
 90
2
 70
0
 10
2.1926666666666668
 20
0.28
 10
2.246
 20
0.28
  0
LWPOLYLINE
  5
15E
330
17
100
AcDbEntity
  8
NUMBERS
100
AcDbPolyline
 90
2
 70
0
 10
2.2193333333333336
 20
0.28
 10
2.2193333333333336
 20
0.2
  0
LWPOLYLINE
  5
15F
330
17
100
AcDbEntity
  8
NUMBERS
100
AcDbPolyline
 90
5
 70
0
 10
2.267333333333333
 20
0.2
 10
2.267333333333333
 20
0.25333333333333335
 10
2.294
 20
0.28
 10
2.3206666666666664
 20
0.25333333333333335
 10
2.3206666666666664
 20
0.2
  0
LWPOLYLINE
  5
160
330
17
100
AcDbEntity
  8
NUMBERS
100
AcDbPolyline
 90
2
 70
0
 10
2.267333333333333
 20
0.24000000000000002
 10
2.3206666666666664
 20
0.24000000000000002
  0
LWPOLYLINE
  5
161
330
17
100
AcDbEntity
  8
NUMBERS
100
AcDbPolyline
 90
2
 70
0
 10
2.342
 20
0.28
 10
2.3953333333333333
 20
0.28
  0
LWPOLYLINE
  5
162
330
17
100
AcDbEntity
  8
NUMBERS
100
AcDbPolyline
 90
2
 70
0
 10
2.368666666666667
 20
0.28
 10
2.368666666666667
 20
0.2
  0
LWPOLYLINE
  5
163
330
17
100
AcDbEntity
  8
NUMBERS
100
AcDbPolyline
 90
4
 70
0
 10
2.47
 20
0.28
 10
2.416666666666667
 20
0.28
 10
2.416666666666667
 20
0.2
 10
2.47
 20
0.2
  0
LWPOLYLINE
  5
164
330
17
100
AcDbEntity
  8
NUMBERS
100
AcDbPolyline
 90
2
 70
0
 10
2.416666666666667
 20
0.24000000000000002
 10
2.456666666666667
 20
0.24000000000000002
  0
LWPOLYLINE
  5
165
330
17
100
AcDbEntity
  8
NUMBERS
100
AcDbPolyline
 90
6
 70
0
 10
2.619333333333334
 20
0.28
 10
2.5660000000000007
 20
0.28
 10
2.5660000000000007
 20
0.2
 10
2.619333333333334
 20
0.2
 10
2.619333333333334
 20
0.24000000000000002
 10
2.5926666666666676
 20
0.24000000000000002
  0
LWPOLYLINE
  5
166
330
17
100
AcDbEntity
  8
NUMBERS
100
AcDbPolyline
 90
3
 70
0
 10
2.640666666666667
 20
0.28
 10
2.640666666666667
 20
0.2
 10
2.6940000000000004
 20
0.2
  0
LWPOLYLINE
  5
167
330
17
100
AcDbEntity
  8
NUMBERS
100
AcDbPolyline
 90
5
 70
0
 10
2.7153333333333336
 20
0.2
 10
2.7153333333333336
 20
0.25333333333333335
 10
2.7420000000000004
 20
0.28
 10
2.768666666666667
 20
0.25333333333333335
 10
2.768666666666667
 20
0.2
  0
LWPOLYLINE
  5
168
330
17
100
AcDbEntity
  8
NUMBERS
100
AcDbPolyline
 90
2
 70
0
 10
2.7153333333333336
 20
0.24000000000000002
 10
2.768666666666667
 20
0.24000000000000002
  0
LWPOLYLINE
  5
169
330
17
100
AcDbEntity
  8
NUMBERS
100
AcDbPolyline
 90
4
 70
0
 10
2.79
 20
0.28
 10
2.8433333333333333
 20
0.28
 10
2.79
 20
0.2
 10
2.8433333333333333
 20
0.2
  0
LWPOLYLINE
  5
16A
330
17
100
AcDbEntity
  8
NUMBERS
100
AcDbPolyline
 90
2
 70
0
 10
2.8780000000000006
 20
0.2
 10
2.9046666666666674
 20
0.2
  0
LWPOLYLINE
  5
16B
330
17
100
AcDbEntity
  8
NUMBERS
100
AcDbPolyline
 90
2
 70
0
 10
2.891333333333334
 20
0.2
 10
2.891333333333334
 20
0.28
  0
LWPOLYLINE
  5
16C
330
17
100
AcDbEntity
  8
NUMBERS
100
AcDbPolyline
 90
2
 70
0
 10
2.8780000000000006
 20
0.28
 10
2.9046666666666674
 20
0.28
  0
LWPOLYLINE
  5
16D
330
17
100
AcDbEntity
  8
NUMBERS
100
AcDbPolyline
 90
4
 70
0
 10
2.939333333333334
 20
0.2
 10
2.939333333333334
 20
0.28
 10
2.992666666666667
 20
0.2
 10
2.992666666666667
 20
0.28
  0
LWPOLYLINE
  5
16E
330
17
100
AcDbEntity
  8
NUMBERS
100
AcDbPolyline
 90
6
 70
0
 10
3.0673333333333335
 20
0.28
 10
3.0140000000000002
 20
0.28
 10
3.0140000000000002
 20
0.2
 10
3.0673333333333335
 20
0.2
 10
3.0673333333333335
 20
0.24000000000000002
 10
3.040666666666667
 20
0.24000000000000002
  0
LWPOLYLINE
  5
16F
330
17
100
AcDbEntity
  8
NUMBERS
100
AcDbPolyline
 90
4
 70
0
 10
3.203333333333334
 20
0.28
 10
3.183333333333334
 20
0.26
 10
3.183333333333334
 20
0.22000000000000003
 10
3.203333333333334
 20
0.2
  0
LWPOLYLINE
  5
170
330
17
100
AcDbEntity
  8
NUMBERS
100
AcDbPolyline
 90
4
 70
0
 10
3.2913333333333337
 20
0.28
 10
3.2380000000000004
 20
0.28
 10
3.2380000000000004
 20
0.2
 10
3.2913333333333337
 20
0.2
  0
LWPOLYLINE
  5
171
330
17
100
AcDbEntity
  8
NUMBERS
100
AcDbPolyline
 90
3
 70
0
 10
3.312666666666667
 20
0.28
 10
3.312666666666667
 20
0.2
 10
3.366
 20
0.2
  0
LWPOLYLINE
  5
172
330
17
100
AcDbEntity
  8
NUMBERS
100
AcDbPolyline
 90
4
 70
0
 10
3.4406666666666665
 20
0.28
 10
3.3873333333333333
 20
0.28
 10
3.3873333333333333
 20
0.2
 10
3.4406666666666665
 20
0.2
  0
LWPOLYLINE
  5
173
330
17
100
AcDbEntity
  8
NUMBERS
100
AcDbPolyline
 90
2
 70
0
 10
3.3873333333333333
 20
0.24000000000000002
 10
3.4273333333333333
 20
0.24000000000000002
  0
LWPOLYLINE
  5
174
330
17
100
AcDbEntity
  8
NUMBERS
100
AcDbPolyline
 90
5
 70
0
 10
3.4620000000000006
 20
0.2
 10
3.4620000000000006
 20
0.25333333333333335
 10
3.4886666666666675
 20
0.28
 10
3.515333333333334
 20
0.25333333333333335
 10
3.515333333333334
 20
0.2
  0
LWPOLYLINE
  5
175
330
17
100
AcDbEntity
  8
NUMBERS
100
AcDbPolyline
 90
2
 70
0
 10
3.4620000000000006
 20
0.24000000000000002
 10
3.515333333333334
 20
0.24000000000000002
  0
LWPOLYLINE
  5
176
330
17
100
AcDbEntity
  8
NUMBERS
100
AcDbPolyline
 90
6
 70
0
 10
3.536666666666667
 20
0.2
 10
3.536666666666667
 20
0.28
 10
3.5900000000000003
 20
0.28
 10
3.5900000000000003
 20
0.24000000000000002
 10
3.536666666666667
 20
0.24000000000000002
 10
3.5900000000000003
 20
0.2
  0
LWPOLYLINE
  5
177
330
17
100
AcDbEntity
  8
NUMBERS
100
AcDbPolyline
 90
5
 70
0
 10
3.686000000000001
 20
0.2
 10
3.739333333333334
 20
0.2
 10
3.739333333333334
 20
0.28
 10
3.686000000000001
 20
0.28
 10
3.686000000000001
 20
0.2
  0
LWPOLYLINE
  5
178
330
17
100
AcDbEntity
  8
NUMBERS
100
AcDbPolyline
 90
2
 70
0
 10
3.686000000000001
 20
0.2
 10
3.739333333333334
 20
0.28
  0
LWPOLYLINE
  5
179
330
17
100
AcDbEntity
  8
NUMBERS
100
AcDbPolyline
 90
5
 70
0
 10
3.7846666666666673
 20
0.2
 10
3.7900000000000005
 20
0.2
 10
3.7900000000000005
 20
0.20533333333333334
 10
3.7846666666666673
 20
0.20533333333333334
 10
3.7846666666666673
 20
0.2
  0
LWPOLYLINE
  5
17A
330
17
100
AcDbEntity
  8
NUMBERS
100
AcDbPolyline
 90
5
 70
0
 10
3.8353333333333337
 20
0.2
 10
3.888666666666667
 20
0.2
 10
3.888666666666667
 20
0.28
 10
3.8353333333333337
 20
0.28
 10
3.8353333333333337
 20
0.2
  0
LWPOLYLINE
  5
17B
330
17
100
AcDbEntity
  8
NUMBERS
100
AcDbPolyline
 90
2
 70
0
 10
3.8353333333333337
 20
0.2
 10
3.888666666666667
 20
0.28
  0
LWPOLYLINE
  5
17C
330
17
100
AcDbEntity
  8
NUMBERS
100
AcDbPolyline
 90
3
 70
0
 10
3.9233333333333333
 20
0.2666666666666667
 10
3.936666666666667
 20
0.28
 10
3.936666666666667
 20
0.2
  0
LWPOLYLINE
  5
17D
330
17
100
AcDbEntity
  8
NUMBERS
100
AcDbPolyline
 90
2
 70
0
 10
3.9233333333333333
 20
0.2
 10
3.95
 20
0.2
  0
LWPOLYLINE
  5
17E
330
17
100
AcDbEntity
  8
NUMBERS
100
AcDbPolyline
 90
5
 70
0
 10
3.9846666666666666
 20
0.2
 10
4.038
 20
0.2
 10
4.038
 20
0.28
 10
3.9846666666666666
 20
0.28
 10
3.9846666666666666
 20
0.2
  0
LWPOLYLINE
  5
17F
330
17
100
AcDbEntity
  8
NUMBERS
100
AcDbPolyline
 90
2
 70
0
 10
3.9846666666666666
 20
0.2
 10
4.038
 20
0.28
  0
LWPOLYLINE
  5
180
330
17
100
AcDbEntity
  8
NUMBERS
100
AcDbPolyline
 90
2
 70
0
 10
4.147333333333334
 20
0.2
 10
4.174
 20
0.2
  0
LWPOLYLINE
  5
181
330
17
100
AcDbEntity
  8
NUMBERS
100
AcDbPolyline
 90
2
 70
0
 10
4.160666666666667
 20
0.2
 10
4.160666666666667
 20
0.28
  0
LWPOLYLINE
  5
182
330
17
100
AcDbEntity
  8
NUMBERS
100
AcDbPolyline
 90
2
 70
0
 10
4.147333333333334
 20
0.28
 10
4.174
 20
0.28
  0
LWPOLYLINE
  5
183
330
17
100
AcDbEntity
  8
NUMBERS
100
AcDbPolyline
 90
4
 70
0
 10
4.208666666666667
 20
0.2
 10
4.208666666666667
 20
0.28
 10
4.2620000000000005
 20
0.2
 10
4.2620000000000005
 20
0.28
  0
LWPOLYLINE
  5
184
330
17
100
AcDbEntity
  8
NUMBERS
100
AcDbPolyline
 90
6
 70
0
 10
4.411333333333334
 20
0.28
 10
4.3580000000000005
 20
0.28
 10
4.3580000000000005
 20
0.24000000000000002
 10
4.411333333333334
 20
0.24000000000000002
 10
4.411333333333334
 20
0.2
 10
4.3580000000000005
 20
0.2
  0
LWPOLYLINE
  5
185
330
17
100
AcDbEntity
  8
NUMBERS
100
AcDbPolyline
 90
2
 70
0
 10
4.432666666666667
 20
0.2
 10
4.432666666666667
 20
0.28
  0
LWPOLYLINE
  5
186
330
17
100
AcDbEntity
  8
NUMBERS
100
AcDbPolyline
 90
2
 70
0
 10
4.486000000000001
 20
0.2
 10
4.486000000000001
 20
0.28
  0
LWPOLYLINE
  5
187
330
17
100
AcDbEntity
  8
NUMBERS
100
AcDbPolyline
 90
2
 70
0
 10
4.432666666666667
 20
0.24000000000000002
 10
4.486000000000001
 20
0.24000000000000002
  0
LWPOLYLINE
  5
188
330
17
100
AcDbEntity
  8
NUMBERS
100
AcDbPolyline
 90
4
 70
0
 10
4.560666666666667
 20
0.28
 10
4.507333333333333
 20
0.28
 10
4.507333333333333
 20
0.2
 10
4.560666666666667
 20
0.2
  0
LWPOLYLINE
  5
189
330
17
100
AcDbEntity
  8
NUMBERS
100
AcDbPolyline
 90
2
 70
0
 10
4.507333333333333
 20
0.24000000000000002
 10
4.5473333333333334
 20
0.24000000000000002
  0
LWPOLYLINE
  5
18A
330
17
100
AcDbEntity
  8
NUMBERS
100
AcDbPolyline
 90
4
 70
0
 10
4.635333333333334
 20
0.28
 10
4.582000000000001
 20
0.28
 10
4.582000000000001
 20
0.2
 10
4.635333333333334
 20
0.2
  0
LWPOLYLINE
  5
18B
330
17
100
AcDbEntity
  8
NUMBERS
100
AcDbPolyline
 90
2
 70
0
 10
4.582000000000001
 20
0.24000000000000002
 10
4.622000000000001
 20
0.24000000000000002
  0
LWPOLYLINE
  5
18C
330
17
100
AcDbEntity
  8
NUMBERS
100
AcDbPolyline
 90
2
 70
0
 10
4.656666666666667
 20
0.28
 10
4.710000000000001
 20
0.28
  0
LWPOLYLINE
  5
18D
330
17
100
AcDbEntity
  8
NUMBERS
100
AcDbPolyline
 90
2
 70
0
 10
4.683333333333334
 20
0.28
 10
4.683333333333334
 20
0.2
  0
LWPOLYLINE
  5
18E
330
17
100
AcDbEntity
  8
NUMBERS
100
AcDbPolyline
 90
2
 70
0
 10
4.760666666666667
 20
0.20533333333333334
 10
4.752666666666667
 20
0.18666666666666668
  0
LWPOLYLINE
  5
18F
330
17
100
AcDbEntity
  8
NUMBERS
100
AcDbPolyline
 90
4
 70
0
 10
4.8806666666666665
 20
0.2
 10
4.8806666666666665
 20
0.28
 10
4.934
 20
0.2
 10
4.934
 20
0.28
  0
LWPOLYLINE
  5
190
330
17
100
AcDbEntity
  8
NUMBERS
100
AcDbPolyline
 90
5
 70
0
 10
4.955333333333334
 20
0.2
 10
5.0086666666666675
 20
0.2
 10
5.0086666666666675
 20
0.28
 10
4.955333333333334
 20
0.28
 10
4.955333333333334
 20
0.2
  0
LWPOLYLINE
  5
191
330
17
100
AcDbEntity
  8
NUMBERS
100
AcDbPolyline
 90
2
 70
0
 10
5.03
 20
0.28
 10
5.083333333333334
 20
0.28
  0
LWPOLYLINE
  5
192
330
17
100
AcDbEntity
  8
NUMBERS
100
AcDbPolyline
 90
2
 70
0
 10
5.056666666666667
 20
0.28
 10
5.056666666666667
 20
0.2
  0
LWPOLYLINE
  5
193
330
17
100
AcDbEntity
  8
NUMBERS
100
AcDbPolyline
 90
4
 70
0
 10
5.232666666666668
 20
0.28
 10
5.179333333333334
 20
0.28
 10
5.179333333333334
 20
0.2
 10
5.232666666666668
 20
0.2
  0
LWPOLYLINE
  5
194
330
17
100
AcDbEntity
  8
NUMBERS
100
AcDbPolyline
 90
2
 70
0
 10
5.2540000000000004
 20
0.2
 10
5.2540000000000004
 20
0.28
  0
LWPOLYLINE
  5
195
330
17
100
AcDbEntity
  8
NUMBERS
100
AcDbPolyline
 90
2
 70
0
 10
5.307333333333334
 20
0.2
 10
5.307333333333334
 20
0.28
  0
LWPOLYLINE
  5
196
330
17
100
AcDbEntity
  8
NUMBERS
100
AcDbPolyline
 90
2
 70
0
 10
5.2540000000000004
 20
0.24000000000000002
 10
5.307333333333334
 20
0.24000000000000002
  0
LWPOLYLINE
  5
197
330
17
100
AcDbEntity
  8
NUMBERS
100
AcDbPolyline
 90
2
 70
0
 10
5.3420000000000005
 20
0.2
 10
5.368666666666667
 20
0.2
  0
LWPOLYLINE
  5
198
330
17
100
AcDbEntity
  8
NUMBERS
100
AcDbPolyline
 90
2
 70
0
 10
5.355333333333333
 20
0.2
 10
5.355333333333333
 20
0.28
  0
LWPOLYLINE
  5
199
330
17
100
AcDbEntity
  8
NUMBERS
100
AcDbPolyline
 90
2
 70
0
 10
5.3420000000000005
 20
0.28
 10
5.368666666666667
 20
0.28
  0
LWPOLYLINE
  5
19A
330
17
100
AcDbEntity
  8
NUMBERS
100
AcDbPolyline
 90
5
 70
0
 10
5.403333333333334
 20
0.2
 10
5.403333333333334
 20
0.28
 10
5.456666666666668
 20
0.28
 10
5.456666666666668
 20
0.24000000000000002
 10
5.403333333333334
 20
0.24000000000000002
  0
LWPOLYLINE
  5
19B
330
17
100
AcDbEntity
  8
NUMBERS
100
AcDbPolyline
 90
7
 70
0
 10
5.478000000000001
 20
0.2
 10
5.478000000000001
 20
0.28
 10
5.518000000000001
 20
0.28
 10
5.531333333333334
 20
0.2666666666666667
 10
5.531333333333334
 20
0.25333333333333335
 10
5.518000000000001
 20
0.24000000000000002
 10
5.478000000000001
 20
0.24000000000000002
  0
LWPOLYLINE
  5
19C
330
17
100
AcDbEntity
  8
NUMBERS
100
AcDbPolyline
 90
5
 70
0
 10
5.518000000000001
 20
0.24000000000000002
 10
5.531333333333334
 20
0.22666666666666668
 10
5.531333333333334
 20
0.21333333333333335
 10
5.518000000000001
 20
0.2
 10
5.478000000000001
 20
0.2
  0
LWPOLYLINE
  5
19D
330
17
100
AcDbEntity
  8
NUMBERS
100
AcDbPolyline
 90
5
 70
0
 10
5.552666666666667
 20
0.2
 10
5.606000000000001
 20
0.2
 10
5.606000000000001
 20
0.28
 10
5.552666666666667
 20
0.28
 10
5.552666666666667
 20
0.2
  0
LWPOLYLINE
  5
19E
330
17
100
AcDbEntity
  8
NUMBERS
100
AcDbPolyline
 90
5
 70
0
 10
5.6273333333333335
 20
0.2
 10
5.6273333333333335
 20
0.25333333333333335
 10
5.654
 20
0.28
 10
5.680666666666667
 20
0.25333333333333335
 10
5.680666666666667
 20
0.2
  0
LWPOLYLINE
  5
19F
330
17
100
AcDbEntity
  8
NUMBERS
100
AcDbPolyline
 90
2
 70
0
 10
5.6273333333333335
 20
0.24000000000000002
 10
5.680666666666667
 20
0.24000000000000002
  0
LWPOLYLINE
  5
1A0
330
17
100
AcDbEntity
  8
NUMBERS
100
AcDbPolyline
 90
6
 70
0
 10
5.702000000000001
 20
0.2
 10
5.702000000000001
 20
0.28
 10
5.7553333333333345
 20
0.28
 10
5.7553333333333345
 20
0.24000000000000002
 10
5.702000000000001
 20
0.24000000000000002
 10
5.7553333333333345
 20
0.2
  0
LWPOLYLINE
  5
1A1
330
17
100
AcDbEntity
  8
NUMBERS
100
AcDbPolyline
 90
7
 70
0
 10
5.776666666666667
 20
0.2
 10
5.776666666666667
 20
0.28
 10
5.8100000000000005
 20
0.28
 10
5.830000000000001
 20
0.26
 10
5.830000000000001
 20
0.22000000000000003
 10
5.8100000000000005
 20
0.2
 10
5.776666666666667
 20
0.2
  0
LWPOLYLINE
  5
1A2
330
17
100
AcDbEntity
  8
NUMBERS
100
AcDbPolyline
 90
4
 70
0
 10
5.864666666666667
 20
0.28
 10
5.884666666666667
 20
0.26
 10
5.884666666666667
 20
0.22000000000000003
 10
5.864666666666667
 20
0.2
  0
LWPOLYLINE
  5
1A3
330
17
100
AcDbEntity
  8
NUMBERS
100
AcDbPolyline
 90
6
 70
0
 10
6.2780000000000005
 20
0.28
 10
6.224666666666667
 20
0.28
 10
6.224666666666667
 20
0.24000000000000002
 10
6.2780000000000005
 20
0.24000000000000002
 10
6.2780000000000005
 20
0.2
 10
6.224666666666667
 20
0.2
  0
LWPOLYLINE
  5
1A4
330
17
100
AcDbEntity
  8
NUMBERS
100
AcDbPolyline
 90
4
 70
0
 10
6.352666666666668
 20
0.28
 10
6.299333333333334
 20
0.28
 10
6.299333333333334
 20
0.2
 10
6.352666666666668
 20
0.2
  0
LWPOLYLINE
  5
1A5
330
17
100
AcDbEntity
  8
NUMBERS
100
AcDbPolyline
 90
5
 70
0
 10
6.3740000000000006
 20
0.2
 10
6.3740000000000006
 20
0.25333333333333335
 10
6.400666666666667
 20
0.28
 10
6.427333333333334
 20
0.25333333333333335
 10
6.427333333333334
 20
0.2
  0
LWPOLYLINE
  5
1A6
330
17
100
AcDbEntity
  8
NUMBERS
100
AcDbPolyline
 90
2
 70
0
 10
6.3740000000000006
 20
0.24000000000000002
 10
6.427333333333334
 20
0.24000000000000002
  0
LWPOLYLINE
  5
1A7
330
17
100
AcDbEntity
  8
NUMBERS
100
AcDbPolyline
 90
3
 70
0
 10
6.448666666666667
 20
0.28
 10
6.448666666666667
 20
0.2
 10
6.502000000000001
 20
0.2
  0
LWPOLYLINE
  5
1A8
330
17
100
AcDbEntity
  8
NUMBERS
100
AcDbPolyline
 90
4
 70
0
 10
6.576666666666668
 20
0.28
 10
6.523333333333334
 20
0.28
 10
6.523333333333334
 20
0.2
 10
6.576666666666668
 20
0.2
  0
LWPOLYLINE
  5
1A9
330
17
100
AcDbEntity
  8
NUMBERS
100
AcDbPolyline
 90
2
 70
0
 10
6.523333333333334
 20
0.24000000000000002
 10
6.563333333333334
 20
0.24000000000000002
  0
LWPOLYLINE
  5
1AA
330
17
100
AcDbEntity
  8
NUMBERS
100
AcDbPolyline
 90
3
 70
0
 10
6.686000000000001
 20
0.2666666666666667
 10
6.699333333333334
 20
0.28
 10
6.699333333333334
 20
0.2
  0
LWPOLYLINE
  5
1AB
330
17
100
AcDbEntity
  8
NUMBERS
100
AcDbPolyline
 90
2
 70
0
 10
6.686000000000001
 20
0.2
 10
6.712666666666667
 20
0.2
  0
LWPOLYLINE
  5
1AC
330
17
100
AcDbEntity
  8
NUMBERS
100
AcDbPolyline
 90
2
 70
0
 10
6.771333333333334
 20
0.21333333333333335
 10
6.776666666666667
 20
0.21333333333333335
  0
LWPOLYLINE
  5
1AD
330
17
100
AcDbEntity
  8
NUMBERS
100
AcDbPolyline
 90
2
 70
0
 10
6.771333333333334
 20
0.25333333333333335
 10
6.776666666666667
 20
0.25333333333333335
  0
LWPOLYLINE
  5
1AE
330
17
100
AcDbEntity
  8
NUMBERS
100
AcDbPolyline
 90
3
 70
0
 10
6.835333333333335
 20
0.2666666666666667
 10
6.848666666666667
 20
0.28
 10
6.848666666666667
 20
0.2
  0
LWPOLYLINE
  5
1AF
330
17
100
AcDbEntity
  8
NUMBERS
100
AcDbPolyline
 90
2
 70
0
 10
6.835333333333335
 20
0.2
 10
6.862000000000001
 20
0.2
  0
LWPOLYLINE
  5
1B0
330
17
100
AcDbEntity
  8
NUMBERS
100
AcDbPolyline
 90
7
 70
0
 10
6.896666666666667
 20
0.2
 10
6.936666666666667
 20
0.2
 10
6.950000000000001
 20
0.21333333333333335
 10
6.950000000000001
 20
0.28
 10
6.896666666666667
 20
0.28
 10
6.896666666666667
 20
0.24000000000000002
 10
6.950000000000001
 20
0.24000000000000002
  0
LWPOLYLINE
  5
1B1
330
17
100
AcDbEntity
  8
NUMBERS
100
AcDbPolyline
 90
7
 70
0
 10
6.971333333333334
 20
0.2666666666666667
 10
6.9846666666666675
 20
0.28
 10
7.011333333333334
 20
0.28
 10
7.0246666666666675
 20
0.2666666666666667
 10
7.0246666666666675
 20
0.25333333333333335
 10
6.971333333333334
 20
0.2
 10
7.0246666666666675
 20
0.2
  0
LWPOLYLINE
  5
1B2
330
17
100
AcDbEntity
  8
NUMBERS
100
AcDbPolyline
 90
4
 70
0
 10
7.160666666666668
 20
0.28
 10
7.140666666666667
 20
0.26
 10
7.140666666666667
 20
0.22000000000000003
 10
7.160666666666668
 20
0.2
  0
LWPOLYLINE
  5
1B3
330
17
100
AcDbEntity
  8
NUMBERS
100
AcDbPolyline
 90
3
 70
0
 10
7.208666666666668
 20
0.2666666666666667
 10
7.222
 20
0.28
 10
7.222
 20
0.2
  0
LWPOLYLINE
  5
1B4
330
17
100
AcDbEntity
  8
NUMBERS
100
AcDbPolyline
 90
2
 70
0
 10
7.208666666666668
 20
0.2
 10
7.235333333333334
 20
0.2
  0
LWPOLYLINE
  5
1B5
330
17
100
AcDbEntity
  8
NUMBERS
100
AcDbPolyline
 90
2
 70
0
 10
7.2700000000000005
 20
0.2
 10
7.323333333333334
 20
0.28
  0
LWPOLYLINE
  5
1B6
330
17
100
AcDbEntity
  8
NUMBERS
100
AcDbPolyline
 90
3
 70
0
 10
7.358000000000001
 20
0.2666666666666667
 10
7.371333333333334
 20
0.28
 10
7.371333333333334
 20
0.2
  0
LWPOLYLINE
  5
1B7
330
17
100
AcDbEntity
  8
NUMBERS
100
AcDbPolyline
 90
2
 70
0
 10
7.358000000000001
 20
0.2
 10
7.384666666666668
 20
0.2
  0
LWPOLYLINE
  5
1B8
330
17
100
AcDbEntity
  8
NUMBERS
100
AcDbPolyline
 90
7
 70
0
 10
7.472666666666667
 20
0.28
 10
7.432666666666667
 20
0.28
 10
7.419333333333333
 20
0.2666666666666667
 10
7.419333333333333
 20
0.2
 10
7.472666666666667
 20
0.2
 10
7.472666666666667
 20
0.24000000000000002
 10
7.419333333333333
 20
0.24000000000000002
  0
LWPOLYLINE
  5
1B9
330
17
100
AcDbEntity
  8
NUMBERS
100
AcDbPolyline
 90
2
 70
0
 10
7.582000000000002
 20
0.2
 10
7.608666666666668
 20
0.2
  0
LWPOLYLINE
  5
1BA
330
17
100
AcDbEntity
  8
NUMBERS
100
AcDbPolyline
 90
2
 70
0
 10
7.595333333333334
 20
0.2
 10
7.595333333333334
 20
0.28
  0
LWPOLYLINE
  5
1BB
330
17
100
AcDbEntity
  8
NUMBERS
100
AcDbPolyline
 90
2
 70
0
 10
7.582000000000002
 20
0.28
 10
7.608666666666668
 20
0.28
  0
LWPOLYLINE
  5
1BC
330
17
100
AcDbEntity
  8
NUMBERS
100
AcDbPolyline
 90
4
 70
0
 10
7.643333333333334
 20
0.2
 10
7.643333333333334
 20
0.28
 10
7.696666666666668
 20
0.2
 10
7.696666666666668
 20
0.28
  0
LWPOLYLINE
  5
1BD
330
17
100
AcDbEntity
  8
NUMBERS
100
AcDbPolyline
 90
2
 70
0
 10
7.799333333333334
 20
0.22666666666666668
 10
7.839333333333334
 20
0.22666666666666668
  0
LWPOLYLINE
  5
1BE
330
17
100
AcDbEntity
  8
NUMBERS
100
AcDbPolyline
 90
2
 70
0
 10
7.799333333333334
 20
0.25333333333333335
 10
7.839333333333334
 20
0.25333333333333335
  0
LWPOLYLINE
  5
1BF
330
17
100
AcDbEntity
  8
NUMBERS
100
AcDbPolyline
 90
3
 70
0
 10
7.955333333333335
 20
0.2666666666666667
 10
7.9686666666666675
 20
0.28
 10
7.9686666666666675
 20
0.2
  0
LWPOLYLINE
  5
1C0
330
17
100
AcDbEntity
  8
NUMBERS
100
AcDbPolyline
 90
2
 70
0
 10
7.955333333333335
 20
0.2
 10
7.982000000000001
 20
0.2
  0
LWPOLYLINE
  5
1C1
330
17
100
AcDbEntity
  8
NUMBERS
100
AcDbPolyline
 90
3
 70
0
 10
8.144666666666666
 20
0.28
 10
8.091333333333333
 20
0.28
 10
8.091333333333333
 20
0.2
  0
LWPOLYLINE
  5
1C2
330
17
100
AcDbEntity
  8
NUMBERS
100
AcDbPolyline
 90
2
 70
0
 10
8.091333333333333
 20
0.24000000000000002
 10
8.131333333333332
 20
0.24000000000000002
  0
LWPOLYLINE
  5
1C3
330
17
100
AcDbEntity
  8
NUMBERS
100
AcDbPolyline
 90
2
 70
0
 10
8.166
 20
0.28
 10
8.219333333333333
 20
0.28
  0
LWPOLYLINE
  5
1C4
330
17
100
AcDbEntity
  8
NUMBERS
100
AcDbPolyline
 90
2
 70
0
 10
8.192666666666668
 20
0.28
 10
8.192666666666668
 20
0.2
  0
LWPOLYLINE
  5
1C5
330
17
100
AcDbEntity
  8
NUMBERS
100
AcDbPolyline
 90
4
 70
0
 10
8.254000000000001
 20
0.28
 10
8.274000000000001
 20
0.26
 10
8.274000000000001
 20
0.22000000000000003
 10
8.254000000000001
 20
0.2
  0
LWPOLYLINE
  5
1C6
330
17
100
AcDbEntity
  8
NUMBERS
100
AcDbPolyline
 90
5
 70
0
 10
8.539333333333333
 20
0.2
 10
8.539333333333333
 20
0.28
 10
8.566
 20
0.24000000000000002
 10
8.592666666666666
 20
0.28
 10
8.592666666666666
 20
0.2
  0
LWPOLYLINE
  5
1C7
330
17
100
AcDbEntity
  8
NUMBERS
100
AcDbPolyline
 90
5
 70
0
 10
8.614000000000003
 20
0.2
 10
8.614000000000003
 20
0.25333333333333335
 10
8.64066666666667
 20
0.28
 10
8.667333333333335
 20
0.25333333333333335
 10
8.667333333333335
 20
0.2
  0
LWPOLYLINE
  5
1C8
330
17
100
AcDbEntity
  8
NUMBERS
100
AcDbPolyline
 90
2
 70
0
 10
8.614000000000003
 20
0.24000000000000002
 10
8.667333333333335
 20
0.24000000000000002
  0
LWPOLYLINE
  5
1C9
330
17
100
AcDbEntity
  8
NUMBERS
100
AcDbPolyline
 90
2
 70
0
 10
8.688666666666668
 20
0.28
 10
8.742
 20
0.28
  0
LWPOLYLINE
  5
1CA
330
17
100
AcDbEntity
  8
NUMBERS
100
AcDbPolyline
 90
2
 70
0
 10
8.715333333333335
 20
0.28
 10
8.715333333333335
 20
0.2
  0
LWPOLYLINE
  5
1CB
330
17
100
AcDbEntity
  8
NUMBERS
100
AcDbPolyline
 90
4
 70
0
 10
8.816666666666668
 20
0.28
 10
8.763333333333335
 20
0.28
 10
8.763333333333335
 20
0.2
 10
8.816666666666668
 20
0.2
  0
LWPOLYLINE
  5
1CC
330
17
100
AcDbEntity
  8
NUMBERS
100
AcDbPolyline
 90
2
 70
0
 10
8.763333333333335
 20
0.24000000000000002
 10
8.803333333333335
 20
0.24000000000000002
  0
LWPOLYLINE
  5
1CD
330
17
100
AcDbEntity
  8
NUMBERS
100
AcDbPolyline
 90
6
 70
0
 10
8.838000000000001
 20
0.2
 10
8.838000000000001
 20
0.28
 10
8.891333333333334
 20
0.28
 10
8.891333333333334
 20
0.24000000000000002
 10
8.838000000000001
 20
0.24000000000000002
 10
8.891333333333334
 20
0.2
  0
LWPOLYLINE
  5
1CE
330
17
100
AcDbEntity
  8
NUMBERS
100
AcDbPolyline
 90
2
 70
0
 10
8.926000000000002
 20
0.2
 10
8.952666666666667
 20
0.2
  0
LWPOLYLINE
  5
1CF
330
17
100
AcDbEntity
  8
NUMBERS
100
AcDbPolyline
 90
2
 70
0
 10
8.939333333333336
 20
0.2
 10
8.939333333333336
 20
0.28
  0
LWPOLYLINE
  5
1D0
330
17
100
AcDbEntity
  8
NUMBERS
100
AcDbPolyline
 90
2
 70
0
 10
8.926000000000002
 20
0.28
 10
8.952666666666667
 20
0.28
  0
LWPOLYLINE
  5
1D1
330
17
100
AcDbEntity
  8
NUMBERS
100
AcDbPolyline
 90
5
 70
0
 10
8.987333333333336
 20
0.2
 10
8.987333333333336
 20
0.25333333333333335
 10
9.014000000000003
 20
0.28
 10
9.040666666666668
 20
0.25333333333333335
 10
9.040666666666668
 20
0.2
  0
LWPOLYLINE
  5
1D2
330
17
100
AcDbEntity
  8
NUMBERS
100
AcDbPolyline
 90
2
 70
0
 10
8.987333333333336
 20
0.24000000000000002
 10
9.040666666666668
 20
0.24000000000000002
  0
LWPOLYLINE
  5
1D3
330
17
100
AcDbEntity
  8
NUMBERS
100
AcDbPolyline
 90
3
 70
0
 10
9.062000000000003
 20
0.28
 10
9.062000000000003
 20
0.2
 10
9.115333333333336
 20
0.2
  0
LWPOLYLINE
  5
1D4
330
17
100
AcDbEntity
  8
NUMBERS
100
AcDbPolyline
 90
5
 70
0
 10
9.211333333333334
 20
0.2
 10
9.264666666666667
 20
0.2
 10
9.264666666666667
 20
0.28
 10
9.211333333333334
 20
0.28
 10
9.211333333333334
 20
0.2
  0
LWPOLYLINE
  5
1D5
330
17
100
AcDbEntity
  8
NUMBERS
100
AcDbPolyline
 90
2
 70
0
 10
9.211333333333334
 20
0.2
 10
9.264666666666667
 20
0.28
  0
LWPOLYLINE
  5
1D6
330
17
100
AcDbEntity
  8
NUMBERS
100
AcDbPolyline
 90
5
 70
0
 10
9.31
 20
0.2
 10
9.315333333333335
 20
0.2
 10
9.315333333333335
 20
0.20533333333333334
 10
9.31
 20
0.20533333333333334
 10
9.31
 20
0.2
  0
LWPOLYLINE
  5
1D7
330
17
100
AcDbEntity
  8
NUMBERS
100
AcDbPolyline
 90
5
 70
0
 10
9.360666666666669
 20
0.2
 10
9.414000000000001
 20
0.2
 10
9.414000000000001
 20
0.28
 10
9.360666666666669
 20
0.28
 10
9.360666666666669
 20
0.2
  0
LWPOLYLINE
  5
1D8
330
17
100
AcDbEntity
  8
NUMBERS
100
AcDbPolyline
 90
2
 70
0
 10
9.360666666666669
 20
0.2
 10
9.414000000000001
 20
0.28
  0
LWPOLYLINE
  5
1D9
330
17
100
AcDbEntity
  8
NUMBERS
100
AcDbPolyline
 90
3
 70
0
 10
9.44866666666667
 20
0.2666666666666667
 10
9.462000000000003
 20
0.28
 10
9.462000000000003
 20
0.2
  0
LWPOLYLINE
  5
1DA
330
17
100
AcDbEntity
  8
NUMBERS
100
AcDbPolyline
 90
2
 70
0
 10
9.44866666666667
 20
0.2
 10
9.475333333333335
 20
0.2
  0
LWPOLYLINE
  5
1DB
330
17
100
AcDbEntity
  8
NUMBERS
100
AcDbPolyline
 90
5
 70
0
 10
9.510000000000002
 20
0.2
 10
9.563333333333334
 20
0.2
 10
9.563333333333334
 20
0.28
 10
9.510000000000002
 20
0.28
 10
9.510000000000002
 20
0.2
  0
LWPOLYLINE
  5
1DC
330
17
100
AcDbEntity
  8
NUMBERS
100
AcDbPolyline
 90
2
 70
0
 10
9.510000000000002
 20
0.2
 10
9.563333333333334
 20
0.28
  0
LWPOLYLINE
  5
1DD
330
17
100
AcDbEntity
  8
NUMBERS
100
AcDbPolyline
 90
2
 70
0
 10
9.672666666666668
 20
0.2
 10
9.699333333333334
 20
0.2
  0
LWPOLYLINE
  5
1DE
330
17
100
AcDbEntity
  8
NUMBERS
100
AcDbPolyline
 90
2
 70
0
 10
9.686000000000002
 20
0.2
 10
9.686000000000002
 20
0.28
  0
LWPOLYLINE
  5
1DF
330
17
100
AcDbEntity
  8
NUMBERS
100
AcDbPolyline
 90
2
 70
0
 10
9.672666666666668
 20
0.28
 10
9.699333333333334
 20
0.28
  0
LWPOLYLINE
  5
1E0
330
17
100
AcDbEntity
  8
NUMBERS
100
AcDbPolyline
 90
4
 70
0
 10
9.734000000000002
 20
0.2
 10
9.734000000000002
 20
0.28
 10
9.787333333333335
 20
0.2
 10
9.787333333333335
 20
0.28
  0
LWPOLYLINE
  5
1E1
330
17
100
AcDbEntity
  8
NUMBERS
100
AcDbPolyline
 90
5
 70
0
 10
9.883333333333336
 20
0.2
 10
9.883333333333336
 20
0.25333333333333335
 10
9.910000000000004
 20
0.28
 10
9.93666666666667
 20
0.25333333333333335
 10
9.93666666666667
 20
0.2
  0
LWPOLYLINE
  5
1E2
330
17
100
AcDbEntity
  8
NUMBERS
100
AcDbPolyline
 90
2
 70
0
 10
9.883333333333336
 20
0.24000000000000002
 10
9.93666666666667
 20
0.24000000000000002
  0
LWPOLYLINE
  5
1E3
330
17
100
AcDbEntity
  8
NUMBERS
100
AcDbPolyline
 90
4
 70
0
 10
10.011333333333335
 20
0.28
 10
9.958000000000002
 20
0.28
 10
9.958000000000002
 20
0.2
 10
10.011333333333335
 20
0.2
  0
LWPOLYLINE
  5
1E4
330
17
100
AcDbEntity
  8
NUMBERS
100
AcDbPolyline
 90
4
 70
0
 10
10.086
 20
0.28
 10
10.032666666666668
 20
0.28
 10
10.032666666666668
 20
0.2
 10
10.086
 20
0.2
  0
LWPOLYLINE
  5
1E5
330
17
100
AcDbEntity
  8
NUMBERS
100
AcDbPolyline
 90
2
 70
0
 10
10.032666666666668
 20
0.24000000000000002
 10
10.072666666666667
 20
0.24000000000000002
  0
LWPOLYLINE
  5
1E6
330
17
100
AcDbEntity
  8
NUMBERS
100
AcDbPolyline
 90
2
 70
0
 10
10.107333333333335
 20
0.28
 10
10.160666666666668
 20
0.28
  0
LWPOLYLINE
  5
1E7
330
17
100
AcDbEntity
  8
NUMBERS
100
AcDbPolyline
 90
2
 70
0
 10
10.134000000000002
 20
0.28
 10
10.134000000000002
 20
0.2
  0
LWPOLYLINE
  5
1E8
330
17
100
AcDbEntity
  8
NUMBERS
100
AcDbPolyline
 90
5
 70
0
 10
10.182000000000002
 20
0.2
 10
10.182000000000002
 20
0.25333333333333335
 10
10.20866666666667
 20
0.28
 10
10.235333333333335
 20
0.25333333333333335
 10
10.235333333333335
 20
0.2
  0
LWPOLYLINE
  5
1E9
330
17
100
AcDbEntity
  8
NUMBERS
100
AcDbPolyline
 90
2
 70
0
 10
10.182000000000002
 20
0.24000000000000002
 10
10.235333333333335
 20
0.24000000000000002
  0
LWPOLYLINE
  5
1EA
330
17
100
AcDbEntity
  8
NUMBERS
100
AcDbPolyline
 90
2
 70
0
 10
10.25666666666667
 20
0.28
 10
10.310000000000002
 20
0.28
  0
LWPOLYLINE
  5
1EB
330
17
100
AcDbEntity
  8
NUMBERS
100
AcDbPolyline
 90
2
 70
0
 10
10.283333333333337
 20
0.28
 10
10.283333333333337
 20
0.2
  0
LWPOLYLINE
  5
1EC
330
17
100
AcDbEntity
  8
NUMBERS
100
AcDbPolyline
 90
4
 70
0
 10
10.384666666666668
 20
0.28
 10
10.331333333333335
 20
0.28
 10
10.331333333333335
 20
0.2
 10
10.384666666666668
 20
0.2
  0
LWPOLYLINE
  5
1ED
330
17
100
AcDbEntity
  8
NUMBERS
100
AcDbPolyline
 90
2
 70
0
 10
10.331333333333335
 20
0.24000000000000002
 10
10.371333333333334
 20
0.24000000000000002
  0
LWPOLYLINE
  5
1EE
330
17
100
AcDbEntity
  8
NUMBERS
100
AcDbPolyline
 90
2
 70
0
 10
10.555333333333335
 20
0.28
 10
10.608666666666668
 20
0.28
  0
LWPOLYLINE
  5
1EF
330
17
100
AcDbEntity
  8
NUMBERS
100
AcDbPolyline
 90
2
 70
0
 10
10.582000000000003
 20
0.28
 10
10.582000000000003
 20
0.2
  0
LWPOLYLINE
  5
1F0
330
17
100
AcDbEntity
  8
NUMBERS
100
AcDbPolyline
 90
2
 70
0
 10
10.636666666666668
 20
0.22666666666666668
 10
10.67666666666667
 20
0.22666666666666668
  0
LWPOLYLINE
  5
1F1
330
17
100
AcDbEntity
  8
NUMBERS
100
AcDbPolyline
 90
2
 70
0
 10
10.636666666666668
 20
0.25333333333333335
 10
10.67666666666667
 20
0.25333333333333335
  0
LWPOLYLINE
  5
1F2
330
17
100
AcDbEntity
  8
NUMBERS
100
AcDbPolyline
 90
5
 70
0
 10
10.704666666666668
 20
0.2
 10
10.758000000000001
 20
0.2
 10
10.758000000000001
 20
0.28
 10
10.704666666666668
 20
0.28
 10
10.704666666666668
 20
0.2
  0
LWPOLYLINE
  5
1F3
330
17
100
AcDbEntity
  8
NUMBERS
100
AcDbPolyline
 90
2
 70
0
 10
10.704666666666668
 20
0.2
 10
10.758000000000001
 20
0.28
  0
LWPOLYLINE
  5
1F4
330
17
100
AcDbEntity
  8
NUMBERS
100
AcDbPolyline
 90
5
 70
0
 10
10.803333333333335
 20
0.2
 10
10.808666666666669
 20
0.2
 10
10.808666666666669
 20
0.20533333333333334
 10
10.803333333333335
 20
0.20533333333333334
 10
10.803333333333335
 20
0.2
  0
LWPOLYLINE
  5
1F5
330
17
100
AcDbEntity
  8
NUMBERS
100
AcDbPolyline
 90
5
 70
0
 10
10.854000000000003
 20
0.2
 10
10.907333333333336
 20
0.2
 10
10.907333333333336
 20
0.28
 10
10.854000000000003
 20
0.28
 10
10.854000000000003
 20
0.2
  0
LWPOLYLINE
  5
1F6
330
17
100
AcDbEntity
  8
NUMBERS
100
AcDbPolyline
 90
2
 70
0
 10
10.854000000000003
 20
0.2
 10
10.907333333333336
 20
0.28
  0
LWPOLYLINE
  5
1F7
330
17
100
AcDbEntity
  8
NUMBERS
100
AcDbPolyline
 90
7
 70
0
 10
10.982000000000001
 20
0.28
 10
10.942000000000002
 20
0.28
 10
10.928666666666668
 20
0.2666666666666667
 10
10.928666666666668
 20
0.2
 10
10.982000000000001
 20
0.2
 10
10.982000000000001
 20
0.24000000000000002
 10
10.928666666666668
 20
0.24000000000000002
  0
LWPOLYLINE
  5
1F8
330
17
100
AcDbEntity
  8
NUMBERS
100
AcDbPolyline
 90
7
 70
0
 10
11.003333333333336
 20
0.2666666666666667
 10
11.01666666666667
 20
0.28
 10
11.043333333333335
 20
0.28
 10
11.056666666666668
 20
0.2666666666666667
 10
11.056666666666668
 20
0.25333333333333335
 10
11.003333333333336
 20
0.2
 10
11.056666666666668
 20
0.2
  0
LWPOLYLINE
  5
1F9
330
17
100
AcDbEntity
  8
NUMBERS
100
AcDbPolyline
 90
8
 70
0
 10
11.131333333333334
 20
0.28
 10
11.078000000000001
 20
0.28
 10
11.078000000000001
 20
0.2466666666666667
 10
11.118
 20
0.2466666666666667
 10
11.131333333333334
 20
0.23333333333333334
 10
11.131333333333334
 20
0.21333333333333335
 10
11.118
 20
0.2
 10
11.078000000000001
 20
0.2
  0
LWPOLYLINE
  5
1FA
330
17
100
AcDbEntity
  8
NUMBERS
100
AcDbPolyline
 90
2
 70
0
 10
11.24066666666667
 20
0.2
 10
11.267333333333335
 20
0.2
  0
LWPOLYLINE
  5
1FB
330
17
100
AcDbEntity
  8
NUMBERS
100
AcDbPolyline
 90
2
 70
0
 10
11.254000000000003
 20
0.2
 10
11.254000000000003
 20
0.28
  0
LWPOLYLINE
  5
1FC
330
17
100
AcDbEntity
  8
NUMBERS
100
AcDbPolyline
 90
2
 70
0
 10
11.24066666666667
 20
0.28
 10
11.267333333333335
 20
0.28
  0
LWPOLYLINE
  5
1FD
330
17
100
AcDbEntity
  8
NUMBERS
100
AcDbPolyline
 90
4
 70
0
 10
11.302000000000003
 20
0.2
 10
11.302000000000003
 20
0.28
 10
11.355333333333336
 20
0.2
 10
11.355333333333336
 20
0.28
  0
LWPOLYLINE
  5
1FE
330
17
100
AcDbEntity
  8
NUMBERS
100
AcDbPolyline
 90
2
 70
0
 10
11.600666666666669
 20
0.2
 10
11.600666666666669
 20
0.28
  0
LWPOLYLINE
  5
1FF
330
17
100
AcDbEntity
  8
NUMBERS
100
AcDbPolyline
 90
2
 70
0
 10
11.654000000000002
 20
0.28
 10
11.600666666666669
 20
0.23333333333333334
  0
LWPOLYLINE
  5
200
330
17
100
AcDbEntity
  8
NUMBERS
100
AcDbPolyline
 90
2
 70
0
 10
11.618000000000002
 20
0.2466666666666667
 10
11.654000000000002
 20
0.2
  0
LWPOLYLINE
  5
201
330
17
100
AcDbEntity
  8
NUMBERS
100
AcDbPolyline
 90
4
 70
0
 10
11.728666666666669
 20
0.28
 10
11.675333333333336
 20
0.28
 10
11.675333333333336
 20
0.2
 10
11.728666666666669
 20
0.2
  0
LWPOLYLINE
  5
202
330
17
100
AcDbEntity
  8
NUMBERS
100
AcDbPolyline
 90
2
 70
0
 10
11.675333333333336
 20
0.24000000000000002
 10
11.715333333333335
 20
0.24000000000000002
  0
LWPOLYLINE
  5
203
330
17
100
AcDbEntity
  8
NUMBERS
100
AcDbPolyline
 90
6
 70
0
 10
11.750000000000004
 20
0.2
 10
11.750000000000004
 20
0.28
 10
11.803333333333336
 20
0.28
 10
11.803333333333336
 20
0.24000000000000002
 10
11.750000000000004
 20
0.24000000000000002
 10
11.803333333333336
 20
0.2
  0
LWPOLYLINE
  5
204
330
17
100
AcDbEntity
  8
NUMBERS
100
AcDbPolyline
 90
3
 70
0
 10
11.878000000000002
 20
0.28
 10
11.824666666666669
 20
0.28
 10
11.824666666666669
 20
0.2
  0
LWPOLYLINE
  5
205
330
17
100
AcDbEntity
  8
NUMBERS
100
AcDbPolyline
 90
2
 70
0
 10
11.824666666666669
 20
0.24000000000000002
 10
11.864666666666668
 20
0.24000000000000002
  0
LWPOLYLINE
  5
206
330
17
100
AcDbEntity
  8
NUMBERS
100
AcDbPolyline
 90
2
 70
0
 10
11.906
 20
0.22666666666666668
 10
11.946000000000002
 20
0.22666666666666668
  0
LWPOLYLINE
  5
207
330
17
100
AcDbEntity
  8
NUMBERS
100
AcDbPolyline
 90
2
 70
0
 10
11.906
 20
0.25333333333333335
 10
11.946000000000002
 20
0.25333333333333335
  0
LWPOLYLINE
  5
208
330
17
100
AcDbEntity
  8
NUMBERS
100
AcDbPolyline
 90
5
 70
0
 10
11.974000000000002
 20
0.2
 10
12.027333333333335
 20
0.2
 10
12.027333333333335
 20
0.28
 10
11.974000000000002
 20
0.28
 10
11.974000000000002
 20
0.2
  0
LWPOLYLINE
  5
209
330
17
100
AcDbEntity
  8
NUMBERS
100
AcDbPolyline
 90
2
 70
0
 10
11.974000000000002
 20
0.2
 10
12.027333333333335
 20
0.28
  0
LWPOLYLINE
  5
20A
330
17
100
AcDbEntity
  8
NUMBERS
100
AcDbPolyline
 90
5
 70
0
 10
12.072666666666668
 20
0.2
 10
12.078000000000003
 20
0.2
 10
12.078000000000003
 20
0.20533333333333334
 10
12.072666666666668
 20
0.20533333333333334
 10
12.072666666666668
 20
0.2
  0
LWPOLYLINE
  5
20B
330
17
100
AcDbEntity
  8
NUMBERS
100
AcDbPolyline
 90
5
 70
0
 10
12.123333333333337
 20
0.2
 10
12.17666666666667
 20
0.2
 10
12.17666666666667
 20
0.28
 10
12.123333333333337
 20
0.28
 10
12.123333333333337
 20
0.2
  0
LWPOLYLINE
  5
20C
330
17
100
AcDbEntity
  8
NUMBERS
100
AcDbPolyline
 90
2
 70
0
 10
12.123333333333337
 20
0.2
 10
12.17666666666667
 20
0.28
  0
LWPOLYLINE
  5
20D
330
17
100
AcDbEntity
  8
NUMBERS
100
AcDbPolyline
 90
5
 70
0
 10
12.198000000000002
 20
0.2
 10
12.251333333333335
 20
0.2
 10
12.251333333333335
 20
0.28
 10
12.198000000000002
 20
0.28
 10
12.198000000000002
 20
0.2
  0
LWPOLYLINE
  5
20E
330
17
100
AcDbEntity
  8
NUMBERS
100
AcDbPolyline
 90
2
 70
0
 10
12.198000000000002
 20
0.2
 10
12.251333333333335
 20
0.28
  0
LWPOLYLINE
  5
20F
330
17
100
AcDbEntity
  8
NUMBERS
100
AcDbPolyline
 90
5
 70
0
 10
12.27266666666667
 20
0.2
 10
12.326000000000002
 20
0.2
 10
12.326000000000002
 20
0.28
 10
12.27266666666667
 20
0.28
 10
12.27266666666667
 20
0.2
  0
LWPOLYLINE
  5
210
330
17
100
AcDbEntity
  8
NUMBERS
100
AcDbPolyline
 90
2
 70
0
 10
12.27266666666667
 20
0.2
 10
12.326000000000002
 20
0.28
  0
LWPOLYLINE
  5
211
330
17
100
AcDbEntity
  8
NUMBERS
100
AcDbPolyline
 90
5
 70
0
 10
12.347333333333335
 20
0.2
 10
12.400666666666668
 20
0.2
 10
12.400666666666668
 20
0.28
 10
12.347333333333335
 20
0.28
 10
12.347333333333335
 20
0.2
  0
LWPOLYLINE
  5
212
330
17
100
AcDbEntity
  8
NUMBERS
100
AcDbPolyline
 90
2
 70
0
 10
12.347333333333335
 20
0.2
 10
12.400666666666668
 20
0.28
  0
LWPOLYLINE
  5
213
330
17
100
AcDbEntity
  8
NUMBERS
100
AcDbPolyline
 90
2
 70
0
 10
12.510000000000003
 20
0.2
 10
12.536666666666669
 20
0.2
  0
LWPOLYLINE
  5
214
330
17
100
AcDbEntity
  8
NUMBERS
100
AcDbPolyline
 90
2
 70
0
 10
12.523333333333337
 20
0.2
 10
12.523333333333337
 20
0.28
  0
LWPOLYLINE
  5
215
330
17
100
AcDbEntity
  8
NUMBERS
100
AcDbPolyline
 90
2
 70
0
 10
12.510000000000003
 20
0.28
 10
12.536666666666669
 20
0.28
  0
LWPOLYLINE
  5
216
330
17
100
AcDbEntity
  8
NUMBERS
100
AcDbPolyline
 90
4
 70
0
 10
12.571333333333335
 20
0.2
 10
12.571333333333335
 20
0.28
 10
12.624666666666668
 20
0.2
 10
12.624666666666668
 20
0.28
  0
LWPOLYLINE
  5
217
330
17
100
AcDbEntity
  8
NUMBERS
100
AcDbPolyline
 90
4
 70
0
 10
12.760666666666669
 20
0.28
 10
12.74066666666667
 20
0.26
 10
12.74066666666667
 20
0.22000000000000003
 10
12.760666666666669
 20
0.2
  0
LWPOLYLINE
  5
218
330
17
100
AcDbEntity
  8
NUMBERS
100
AcDbPolyline
 90
4
 70
0
 10
12.795333333333335
 20
0.28
 10
12.795333333333335
 20
0.2
 10
12.848666666666668
 20
0.2
 10
12.848666666666668
 20
0.28
  0
LWPOLYLINE
  5
219
330
17
100
AcDbEntity
  8
NUMBERS
100
AcDbPolyline
 90
6
 70
0
 10
12.923333333333334
 20
0.28
 10
12.870000000000001
 20
0.28
 10
12.870000000000001
 20
0.24000000000000002
 10
12.923333333333334
 20
0.24000000000000002
 10
12.923333333333334
 20
0.2
 10
12.870000000000001
 20
0.2
  0
LWPOLYLINE
  5
21A
330
17
100
AcDbEntity
  8
NUMBERS
100
AcDbPolyline
 90
4
 70
0
 10
12.998000000000001
 20
0.28
 10
12.944666666666668
 20
0.28
 10
12.944666666666668
 20
0.2
 10
12.998000000000001
 20
0.2
  0
LWPOLYLINE
  5
21B
330
17
100
AcDbEntity
  8
NUMBERS
100
AcDbPolyline
 90
2
 70
0
 10
12.944666666666668
 20
0.24000000000000002
 10
12.984666666666667
 20
0.24000000000000002
  0
LWPOLYLINE
  5
21C
330
17
100
AcDbEntity
  8
NUMBERS
100
AcDbPolyline
 90
6
 70
0
 10
13.019333333333336
 20
0.2
 10
13.019333333333336
 20
0.28
 10
13.072666666666668
 20
0.28
 10
13.072666666666668
 20
0.24000000000000002
 10
13.019333333333336
 20
0.24000000000000002
 10
13.072666666666668
 20
0.2
  0
LWPOLYLINE
  5
21D
330
17
100
AcDbEntity
  8
NUMBERS
100
AcDbPolyline
 90
5
 70
0
 10
13.16866666666667
 20
0.2
 10
13.16866666666667
 20
0.25333333333333335
 10
13.195333333333338
 20
0.28
 10
13.222000000000003
 20
0.25333333333333335
 10
13.222000000000003
 20
0.2
  0
LWPOLYLINE
  5
21E
330
17
100
AcDbEntity
  8
NUMBERS
100
AcDbPolyline
 90
2
 70
0
 10
13.16866666666667
 20
0.24000000000000002
 10
13.222000000000003
 20
0.24000000000000002
  0
LWPOLYLINE
  5
21F
330
17
100
AcDbEntity
  8
NUMBERS
100
AcDbPolyline
 90
7
 70
0
 10
13.243333333333336
 20
0.2
 10
13.243333333333336
 20
0.28
 10
13.276666666666669
 20
0.28
 10
13.296666666666669
 20
0.26
 10
13.296666666666669
 20
0.22000000000000003
 10
13.276666666666669
 20
0.2
 10
13.243333333333336
 20
0.2
  0
LWPOLYLINE
  5
220
330
17
100
AcDbEntity
  8
NUMBERS
100
AcDbPolyline
 90
5
 70
0
 10
13.371333333333334
 20
0.28
 10
13.371333333333334
 20
0.21333333333333335
 10
13.358
 20
0.2
 10
13.331333333333335
 20
0.2
 10
13.318000000000001
 20
0.21333333333333335
  0
LWPOLYLINE
  5
221
330
17
100
AcDbEntity
  8
NUMBERS
100
AcDbPolyline
 90
4
 70
0
 10
13.392666666666669
 20
0.28
 10
13.392666666666669
 20
0.2
 10
13.446000000000002
 20
0.2
 10
13.446000000000002
 20
0.28
  0
LWPOLYLINE
  5
222
330
17
100
AcDbEntity
  8
NUMBERS
100
AcDbPolyline
 90
6
 70
0
 10
13.520666666666669
 20
0.28
 10
13.467333333333336
 20
0.28
 10
13.467333333333336
 20
0.24000000000000002
 10
13.520666666666669
 20
0.24000000000000002
 10
13.520666666666669
 20
0.2
 10
13.467333333333336
 20
0.2
  0
LWPOLYLINE
  5
223
330
17
100
AcDbEntity
  8
NUMBERS
100
AcDbPolyline
 90
2
 70
0
 10
13.542000000000003
 20
0.28
 10
13.595333333333336
 20
0.28
  0
LWPOLYLINE
  5
224
330
17
100
AcDbEntity
  8
NUMBERS
100
AcDbPolyline
 90
2
 70
0
 10
13.56866666666667
 20
0.28
 10
13.56866666666667
 20
0.2
  0
LWPOLYLINE
  5
225
330
17
100
AcDbEntity
  8
NUMBERS
100
AcDbPolyline
 90
5
 70
0
 10
13.616666666666669
 20
0.2
 10
13.616666666666669
 20
0.25333333333333335
 10
13.643333333333336
 20
0.28
 10
13.670000000000002
 20
0.25333333333333335
 10
13.670000000000002
 20
0.2
  0
LWPOLYLINE
  5
226
330
17
100
AcDbEntity
  8
NUMBERS
100
AcDbPolyline
 90
2
 70
0
 10
13.616666666666669
 20
0.24000000000000002
 10
13.670000000000002
 20
0.24000000000000002
  0
LWPOLYLINE
  5
227
330
17
100
AcDbEntity
  8
NUMBERS
100
AcDbPolyline
 90
7
 70
0
 10
13.691333333333336
 20
0.2
 10
13.691333333333336
 20
0.28
 10
13.731333333333335
 20
0.28
 10
13.744666666666669
 20
0.2666666666666667
 10
13.744666666666669
 20
0.25333333333333335
 10
13.731333333333335
 20
0.24000000000000002
 10
13.691333333333336
 20
0.24000000000000002
  0
LWPOLYLINE
  5
228
330
17
100
AcDbEntity
  8
NUMBERS
100
AcDbPolyline
 90
5
 70
0
 10
13.731333333333335
 20
0.24000000000000002
 10
13.744666666666669
 20
0.22666666666666668
 10
13.744666666666669
 20
0.21333333333333335
 10
13.731333333333335
 20
0.2
 10
13.691333333333336
 20
0.2
  0
LWPOLYLINE
  5
229
330
17
100
AcDbEntity
  8
NUMBERS
100
AcDbPolyline
 90
3
 70
0
 10
13.766000000000002
 20
0.28
 10
13.766000000000002
 20
0.2
 10
13.819333333333335
 20
0.2
  0
LWPOLYLINE
  5
22A
330
17
100
AcDbEntity
  8
NUMBERS
100
AcDbPolyline
 90
4
 70
0
 10
13.894000000000002
 20
0.28
 10
13.84066666666667
 20
0.28
 10
13.84066666666667
 20
0.2
 10
13.894000000000002
 20
0.2
  0
LWPOLYLINE
  5
22B
330
17
100
AcDbEntity
  8
NUMBERS
100
AcDbPolyline
 90
2
 70
0
 10
13.84066666666667
 20
0.24000000000000002
 10
13.880666666666668
 20
0.24000000000000002
  0
LWPOLYLINE
  5
22C
330
17
100
AcDbEntity
  8
NUMBERS
100
AcDbPolyline
 90
4
 70
0
 10
13.92866666666667
 20
0.28
 10
13.94866666666667
 20
0.26
 10
13.94866666666667
 20
0.22000000000000003
 10
13.92866666666667
 20
0.2
  0
LWPOLYLINE
  5
22D
330
17
100
AcDbEntity
  8
NUMBERS
100
AcDbPolyline
 90
7
 70
0
 10
14.214000000000002
 20
0.28
 10
14.267333333333335
 20
0.28
 10
14.24066666666667
 20
0.2466666666666667
 10
14.267333333333335
 20
0.23333333333333334
 10
14.267333333333335
 20
0.21333333333333335
 10
14.254000000000001
 20
0.2
 10
14.214000000000002
 20
0.2
  0
LWPOLYLINE
  5
22E
330
17
100
AcDbEntity
  8
NUMBERS
100
AcDbPolyline
 90
5
 70
0
 10
14.288666666666668
 20
0.2
 10
14.342
 20
0.2
 10
14.342
 20
0.28
 10
14.288666666666668
 20
0.28
 10
14.288666666666668
 20
0.2
  0
LWPOLYLINE
  5
22F
330
17
100
AcDbEntity
  8
NUMBERS
100
AcDbPolyline
 90
2
 70
0
 10
14.288666666666668
 20
0.2
 10
14.342
 20
0.28
  0
LWPOLYLINE
  5
230
330
17
100
AcDbEntity
  8
NUMBERS
100
AcDbPolyline
 90
2
 70
0
 10
14.438000000000002
 20
0.2
 10
14.491333333333335
 20
0.28
  0
LWPOLYLINE
  5
231
330
17
100
AcDbEntity
  8
NUMBERS
100
AcDbPolyline
 90
2
 70
0
 10
14.438000000000002
 20
0.28
 10
14.491333333333335
 20
0.2
  0
LWPOLYLINE
  5
232
330
17
100
AcDbEntity
  8
NUMBERS
100
AcDbPolyline
 90
7
 70
0
 10
14.587333333333337
 20
0.2666666666666667
 10
14.60066666666667
 20
0.28
 10
14.627333333333336
 20
0.28
 10
14.64066666666667
 20
0.2666666666666667
 10
14.64066666666667
 20
0.25333333333333335
 10
14.587333333333337
 20
0.2
 10
14.64066666666667
 20
0.2
  0
LWPOLYLINE
  5
233
330
17
100
AcDbEntity
  8
NUMBERS
100
AcDbPolyline
 90
5
 70
0
 10
14.662
 20
0.2
 10
14.715333333333334
 20
0.2
 10
14.715333333333334
 20
0.28
 10
14.662
 20
0.28
 10
14.662
 20
0.2
  0
LWPOLYLINE
  5
234
330
17
100
AcDbEntity
  8
NUMBERS
100
AcDbPolyline
 90
2
 70
0
 10
14.662
 20
0.2
 10
14.715333333333334
 20
0.28
  0
LWPOLYLINE
  5
235
330
17
100
AcDbEntity
  8
NUMBERS
100
AcDbPolyline
 90
2
 70
0
 10
14.824666666666669
 20
0.2
 10
14.851333333333335
 20
0.2
  0
LWPOLYLINE
  5
236
330
17
100
AcDbEntity
  8
NUMBERS
100
AcDbPolyline
 90
2
 70
0
 10
14.838000000000003
 20
0.2
 10
14.838000000000003
 20
0.28
  0
LWPOLYLINE
  5
237
330
17
100
AcDbEntity
  8
NUMBERS
100
AcDbPolyline
 90
2
 70
0
 10
14.824666666666669
 20
0.28
 10
14.851333333333335
 20
0.28
  0
LWPOLYLINE
  5
238
330
17
100
AcDbEntity
  8
NUMBERS
100
AcDbPolyline
 90
4
 70
0
 10
14.886000000000001
 20
0.2
 10
14.886000000000001
 20
0.28
 10
14.939333333333334
 20
0.2
 10
14.939333333333334
 20
0.28
  0
LWPOLYLINE
  5
239
330
17
100
AcDbEntity
  8
NUMBERS
100
AcDbPolyline
 90
2
 70
0
 10
0.32999999999999996
 20
19.759999999999998
 10
0.3833333333333333
 20
19.759999999999998
  0
LWPOLYLINE
  5
23A
330
17
100
AcDbEntity
  8
NUMBERS
100
AcDbPolyline
 90
2
 70
0
 10
0.35666666666666663
 20
19.759999999999998
 10
0.35666666666666663
 20
19.68
  0
LWPOLYLINE
  5
23B
330
17
100
AcDbEntity
  8
NUMBERS
100
AcDbPolyline
 90
5
 70
0
 10
0.4046666666666666
 20
19.68
 10
0.45799999999999996
 20
19.68
 10
0.45799999999999996
 20
19.759999999999998
 10
0.4046666666666666
 20
19.759999999999998
 10
0.4046666666666666
 20
19.68
  0
LWPOLYLINE
  5
23C
330
17
100
AcDbEntity
  8
NUMBERS
100
AcDbPolyline
 90
5
 70
0
 10
0.4793333333333333
 20
19.68
 10
0.4793333333333333
 20
19.759999999999998
 10
0.5326666666666666
 20
19.759999999999998
 10
0.5326666666666666
 20
19.72
 10
0.4793333333333333
 20
19.72
  0
LWPOLYLINE
  5
23D
330
17
100
AcDbEntity
  8
NUMBERS
100
AcDbPolyline
 90
6
 70
0
 10
0.682
 20
19.759999999999998
 10
0.6286666666666667
 20
19.759999999999998
 10
0.6286666666666667
 20
19.72
 10
0.682
 20
19.72
 10
0.682
 20
19.68
 10
0.6286666666666667
 20
19.68
  0
LWPOLYLINE
  5
23E
330
17
100
AcDbEntity
  8
NUMBERS
100
AcDbPolyline
 90
2
 70
0
 10
0.7033333333333334
 20
19.68
 10
0.7033333333333334
 20
19.759999999999998
  0
LWPOLYLINE
  5
23F
330
17
100
AcDbEntity
  8
NUMBERS
100
AcDbPolyline
 90
2
 70
0
 10
0.7566666666666667
 20
19.68
 10
0.7566666666666667
 20
19.759999999999998
  0
LWPOLYLINE
  5
240
330
17
100
AcDbEntity
  8
NUMBERS
100
AcDbPolyline
 90
2
 70
0
 10
0.7033333333333334
 20
19.72
 10
0.7566666666666667
 20
19.72
  0
LWPOLYLINE
  5
241
330
17
100
AcDbEntity
  8
NUMBERS
100
AcDbPolyline
 90
4
 70
0
 10
0.8313333333333334
 20
19.759999999999998
 10
0.778
 20
19.759999999999998
 10
0.778
 20
19.68
 10
0.8313333333333334
 20
19.68
  0
LWPOLYLINE
  5
242
330
17
100
AcDbEntity
  8
NUMBERS
100
AcDbPolyline
 90
2
 70
0
 10
0.778
 20
19.72
 10
0.8180000000000001
 20
19.72
  0
LWPOLYLINE
  5
243
330
17
100
AcDbEntity
  8
NUMBERS
100
AcDbPolyline
 90
4
 70
0
 10
0.906
 20
19.759999999999998
 10
0.8526666666666667
 20
19.759999999999998
 10
0.8526666666666667
 20
19.68
 10
0.906
 20
19.68
  0
LWPOLYLINE
  5
244
330
17
100
AcDbEntity
  8
NUMBERS
100
AcDbPolyline
 90
2
 70
0
 10
0.8526666666666667
 20
19.72
 10
0.8926666666666667
 20
19.72
  0
LWPOLYLINE
  5
245
330
17
100
AcDbEntity
  8
NUMBERS
100
AcDbPolyline
 90
2
 70
0
 10
0.9273333333333333
 20
19.759999999999998
 10
0.9806666666666667
 20
19.759999999999998
  0
LWPOLYLINE
  5
246
330
17
100
AcDbEntity
  8
NUMBERS
100
AcDbPolyline
 90
2
 70
0
 10
0.954
 20
19.759999999999998
 10
0.954
 20
19.68
  0
LWPOLYLINE
  5
247
330
17
100
AcDbEntity
  8
NUMBERS
100
AcDbPolyline
 90
2
 70
0
 10
1.0086666666666668
 20
19.72
 10
1.0486666666666669
 20
19.72
  0
LWPOLYLINE
  5
248
330
17
100
AcDbEntity
  8
NUMBERS
100
AcDbPolyline
 90
5
 70
0
 10
1.0766666666666667
 20
19.68
 10
1.13
 20
19.68
 10
1.13
 20
19.759999999999998
 10
1.0766666666666667
 20
19.759999999999998
 10
1.0766666666666667
 20
19.68
  0
LWPOLYLINE
  5
249
330
17
100
AcDbEntity
  8
NUMBERS
100
AcDbPolyline
 90
2
 70
0
 10
1.0766666666666667
 20
19.68
 10
1.13
 20
19.759999999999998
  0
LWPOLYLINE
  5
24A
330
17
100
AcDbEntity
  8
NUMBERS
100
AcDbPolyline
 90
8
 70
0
 10
1.2046666666666668
 20
19.759999999999998
 10
1.1513333333333335
 20
19.759999999999998
 10
1.1513333333333335
 20
19.726666666666667
 10
1.1913333333333336
 20
19.726666666666667
 10
1.2046666666666668
 20
19.713333333333335
 10
1.2046666666666668
 20
19.69333333333333
 10
1.1913333333333336
 20
19.68
 10
1.1513333333333335
 20
19.68
  0
LWPOLYLINE
  5
24B
330
17
100
AcDbEntity
  8
BOUNDARY
100
AcDbPolyline
 90
4
 70
1
 10
30.0
 20
0.0
 10
30.0
 20
20.0
 10
0.0
 20
20.0
 10
0.0
 20
0.0
  0
LWPOLYLINE
  5
24C
330
17
100
AcDbEntity
  8
BOUNDARY
100
AcDbPolyline
 90
4
 70
1
 10
29.5
 20
0.5
 10
29.5
 20
19.5
 10
0.5
 20
19.5
 10
0.5
 20
0.5
  0
ENDSEC
  0
SECTION
  2
OBJECTS
  0
DICTIONARY
  5
A
330
0
100
AcDbDictionary
281
1
  3
ACAD_COLOR
350
B
  3
ACAD_GROUP
350
C
  3
ACAD_LAYOUT
350
D
  3
ACAD_MATERIAL
350
E
  3
ACAD_MLEADERSTYLE
350
F
  3
ACAD_MLINESTYLE
350
10
  3
ACAD_PLOTSETTINGS
350
11
  3
ACAD_PLOTSTYLENAME
350
12
  3
ACAD_SCALELIST
350
14
  3
ACAD_TABLESTYLE
350
15
  3
ACAD_VISUALSTYLE
350
16
  3
EZDXF_META
350
2D
  0
DICTIONARY
  5
B
330
A
100
AcDbDictionary
281
1
  0
DICTIONARY
  5
C
330
A
100
AcDbDictionary
281
1
  0
DICTIONARY
  5
D
330
A
100
AcDbDictionary
281
1
  3
Model
350
1A
  3
Layout1
350
1E
  0
DICTIONARY
  5
E
330
A
100
AcDbDictionary
281
1
  3
ByBlock
350
1F
  3
ByLayer
350
20
  3
Global
350
21
  0
DICTIONARY
  5
F
330
A
100
AcDbDictionary
281
1
  3
Standard
350
2C
  0
DICTIONARY
  5
10
330
A
100
AcDbDictionary
281
1
  3
Standard
350
22
  0
DICTIONARY
  5
11
330
A
100
AcDbDictionary
281
1
  0
ACDBDICTIONARYWDFLT
  5
12
330
A
100
AcDbDictionary
281
1
  3
Normal
350
13
100
AcDbDictionaryWithDefault
340
13
  0
ACDBPLACEHOLDER
  5
13
330
12
  0
DICTIONARY
  5
14
330
A
100
AcDbDictionary
281
1
  0
DICTIONARY
  5
15
330
A
100
AcDbDictionary
281
1
  0
DICTIONARY
  5
16
330
A
100
AcDbDictionary
281
1
  0
LAYOUT
  5
1A
330
D
100
AcDbPlotSettings
  1

  4
A3
  6

 40
7.5
 41
20.0
 42
7.5
 43
20.0
 44
420.0
 45
297.0
 46
0.0
 47
0.0
 48
0.0
 49
0.0
140
0.0
141
0.0
142
1.0
143
1.0
 70
1024
 72
1
 73
0
 74
5
  7

 75
16
 76
0
 77
2
 78
300
147
1.0
148
0.0
149
0.0
100
AcDbLayout
  1
Model
 70
1
 71
0
 10
0.0
 20
0.0
 11
420.0
 21
297.0
 12
0.0
 22
0.0
 32
0.0
 14
1e+20
 24
1e+20
 34
1e+20
 15
-1e+20
 25
-1e+20
 35
-1e+20
146
0.0
 13
0.0
 23
0.0
 33
0.0
 16
1.0
 26
0.0
 36
0.0
 17
0.0
 27
1.0
 37
0.0
 76
1
330
17
  0
LAYOUT
  5
1E
330
D
100
AcDbPlotSettings
  1

  4
A3
  6

 40
7.5
 41
20.0
 42
7.5
 43
20.0
 44
420.0
 45
297.0
 46
0.0
 47
0.0
 48
0.0
 49
0.0
140
0.0
141
0.0
142
1.0
143
1.0
 70
0
 72
1
 73
0
 74
5
  7

 75
16
 76
0
 77
2
 78
300
147
1.0
148
0.0
149
0.0
100
AcDbLayout
  1
Layout1
 70
1
 71
1
 10
0.0
 20
0.0
 11
420.0
 21
297.0
 12
0.0
 22
0.0
 32
0.0
 14
1e+20
 24
1e+20
 34
1e+20
 15
-1e+20
 25
-1e+20
 35
-1e+20
146
0.0
 13
0.0
 23
0.0
 33
0.0
 16
1.0
 26
0.0
 36
0.0
 17
0.0
 27
1.0
 37
0.0
 76
1
330
1B
  0
MATERIAL
  5
1F
102
{ACAD_REACTORS
330
E
102
}
330
E
100
AcDbMaterial
  1
ByBlock
  2

 70
0
 40
1.0
 71
1
 41
1.0
 91
-1023410177
 42
1.0
 72
1
  3

 73
1
 74
1
 75
1
 44
0.5
 73
0
 45
1.0
 46
1.0
 77
1
  4

 78
1
 79
1
170
1
 48
1.0
171
1
  6

172
1
173
1
174
1
140
1.0
141
1.0
175
1
  7

176
1
177
1
178
1
143
1.0
179
1
  8

270
1
271
1
272
1
145
1.0
146
1.0
273
1
  9

274
1
275
1
276
1
 42
1.0
 72
1
  3

 73
1
 74
1
 75
1
 94
63
  0
MATERIAL
  5
20
102
{ACAD_REACTORS
330
E
102
}
330
E
100
AcDbMaterial
  1
ByLayer
  2

 70
0
 40
1.0
 71
1
 41
1.0
 91
-1023410177
 42
1.0
 72
1
  3

 73
1
 74
1
 75
1
 44
0.5
 73
0
 45
1.0
 46
1.0
 77
1
  4

 78
1
 79
1
170
1
 48
1.0
171
1
  6

172
1
173
1
174
1
140
1.0
141
1.0
175
1
  7

176
1
177
1
178
1
143
1.0
179
1
  8

270
1
271
1
272
1
145
1.0
146
1.0
273
1
  9

274
1
275
1
276
1
 42
1.0
 72
1
  3

 73
1
 74
1
 75
1
 94
63
  0
MATERIAL
  5
21
102
{ACAD_REACTORS
330
E
102
}
330
E
100
AcDbMaterial
  1
Global
  2

 70
0
 40
1.0
 71
1
 41
1.0
 91
-1023410177
 42
1.0
 72
1
  3

 73
1
 74
1
 75
1
 44
0.5
 73
0
 45
1.0
 46
1.0
 77
1
  4

 78
1
 79
1
170
1
 48
1.0
171
1
  6

172
1
173
1
174
1
140
1.0
141
1.0
175
1
  7

176
1
177
1
178
1
143
1.0
179
1
  8

270
1
271
1
272
1
145
1.0
146
1.0
273
1
  9

274
1
275
1
276
1
 42
1.0
 72
1
  3

 73
1
 74
1
 75
1
 94
63
  0
MLINESTYLE
  5
22
102
{ACAD_REACTORS
330
10
102
}
330
10
100
AcDbMlineStyle
  2
Standard
 70
0
  3

 62
256
 51
90.0
 52
90.0
 71
2
 49
0.5
 62
256
  6
BYLAYER
 49
-0.5
 62
256
  6
BYLAYER
  0
MLEADERSTYLE
  5
2C
102
{ACAD_REACTORS
330
F
102
}
330
F
100
AcDbMLeaderStyle
179
2
170
2
171
1
172
0
 90
2
 40
0.0
 41
0.0
173
1
 91
-1056964608
 92
-2
290
1
 42
2.0
291
1
 43
8.0
  3
Standard
 44
4.0
300

342
29
174
1
175
1
176
0
178
1
 93
-1056964608
 45
4.0
292
0
297
0
 46
4.0
 94
-1056964608
 47
1.0
 49
1.0
140
1.0
294
1
141
0.0
177
0
142
1.0
295
0
296
0
143
3.75
271
0
272
9
273
9
  0
DICTIONARY
  5
2D
330
A
100
AcDbDictionary
280
1
281
1
  3
CREATED_BY_EZDXF
350
2E
  3
WRITTEN_BY_EZDXF
350
24F
  0
DICTIONARYVAR
  5
2E
330
2D
100
DictionaryVariables
280
0
  1
1.4.4 @ 2026-10-05T22:04:59.032674+00:00
  0
DICTIONARYVAR
  5
24F
330
2D
100
DictionaryVariables
280
0
  1
1.4.4 @ 2026-10-05T22:04:59.058700+00:00
  0
ENDSEC
  0
EOF
