  0
SECTION
  2
HEADER
  9
$ACADVER
  1
AC1027
  9
$ACADMAINTVER
 70
105
  9
$DWGCODEPAGE
  3
ANSI_1252
  9
$LASTSAVEDBY
  1
ezdxf
  9
$REQUIREDVERSIONS
160
0
  9
$INSBASE
 10
0.0
 20
0.0
 30
0.0
  9
$EXTMIN
 10
1e+20
 20
1e+20
 30
1e+20
  9
$EXTMAX
 10
-1e+20
 20
-1e+20
 30
-1e+20
  9
$LIMMIN
 10
0.0
 20
0.0
  9
$LIMMAX
 10
420.0
 20
297.0
  9
$ORTHOMODE
 70
0
  9
$REGENMODE
 70
1
  9
$FILLMODE
 70
1
  9
$QTEXTMODE
 70
0
  9
$MIRRTEXT
 70
1
  9
$LTSCALE
 40
1.0
  9
$ATTMODE
 70
1
  9
$TEXTSIZE
 40
2.5
  9
$TRACEWID
 40
1.0
  9
$TEXTSTYLE
  7
Standard
  9
$CLAYER
  8
0
  9
$CELTYPE
  6
ByLayer
  9
$CECOLOR
 62
256
  9
$CELTSCALE
 40
1.0
  9
$DISPSILH
 70
0
  9
$DIMSCALE
 40
1.0
  9
$DIMASZ
 40
2.5
  9
$DIMEXO
 40
0.625
  9
$DIMDLI
 40
3.75
  9
$DIMRND
 40
0.0
  9
$DIMDLE
 40
0.0
  9
$DIMEXE
 40
1.25
  9
$DIMTP
 40
0.0
  9
$DIMTM
 40
0.0
  9
$DIMTXT
 40
2.5
  9
$DIMCEN
 40
2.5
  9
$DIMTSZ
 40
0.0
  9
$DIMTOL
 70
0
  9
$DIMLIM
 70
0
  9
$DIMTIH
 70
0
  9
$DIMTOH
 70
0
  9
$DIMSE1
 70
0
  9
$DIMSE2
 70
0
  9
$DIMTAD
 70
1
  9
$DIMZIN
 70
8
  9
$DIMBLK
  1

  9
$DIMASO
 70
1
  9
$DIMSHO
 70
1
  9
$DIMPOST
  1

  9
$DIMAPOST
  1

  9
$DIMALT
 70
0
  9
$DIMALTD
 70
3
  9
$DIMALTF
 40
0.03937007874
  9
$DIMLFAC
 40
1.0
  9
$DIMTOFL
 70
1
  9
$DIMTVP
 40
0.0
  9
$DIMTIX
 70
0
  9
$DIMSOXD
 70
0
  9
$DIMSAH
 70
0
  9
$DIMBLK1
  1

  9
$DIMBLK2
  1

  9
$DIMSTYLE
  2
ISO-25
  9
$DIMCLRD
 70
0
  9
$DIMCLRE
 70
0
  9
$DIMCLRT
 70
0
  9
$DIMTFAC
 40
1.0
  9
$DIMGAP
 40
0.625
  9
$DIMJUST
 70
0
  9
$DIMSD1
 70
0
  9
$DIMSD2
 70
0
  9
$DIMTOLJ
 70
0
  9
$DIMTZIN
 70
8
  9
$DIMALTZ
 70
0
  9
$DIMALTTZ
 70
0
  9
$DIMUPT
 70
0
  9
$DIMDEC
 70
2
  9
$DIMTDEC
 70
2
  9
$DIMALTU
 70
2
  9
$DIMALTTD
 70
3
  9
$DIMTXSTY
  7
Standard
  9
$DIMAUNIT
 70
0
  9
$DIMADEC
 70
0
  9
$DIMALTRND
 40
0.0
  9
$DIMAZIN
 70
0
  9
$DIMDSEP
 70
44
  9
$DIMATFIT
 70
3
  9
$DIMFRAC
 70
0
  9
$DIMLDRBLK
  1

  9
$DIMLUNIT
 70
2
  9
$DIMLWD
 70
-2
  9
$DIMLWE
 70
-2
  9
$DIMTMOVE
 70
0
  9
$DIMFXL
 40
1.0
  9
$DIMFXLON
 70
0
  9
$DIMJOGANG
 40
0.785398163397
  9
$DIMTFILL
 70
0
  9
$DIMTFILLCLR
 70
0
  9
$DIMARCSYM
 70
0
  9
$DIMLTYPE
  6

  9
$DIMLTEX1
  6

  9
$DIMLTEX2
  6

  9
$DIMTXTDIRECTION
 70
0
  9
$LUNITS
 70
2
  9
$LUPREC
 70
4
  9
$SKETCHINC
 40
1.0
  9
$FILLETRAD
 40
10.0
  9
$AUNITS
 70
0
  9
$AUPREC
 70
2
  9
$MENU
  1
.
  9
$ELEVATION
 40
0.0
  9
$PELEVATION
 40
0.0
  9
$THICKNESS
 40
0.0
  9
$LIMCHECK
 70
0
  9
$CHAMFERA
 40
0.0
  9
$CHAMFERB
 40
0.0
  9
$CHAMFERC
 40
0.0
  9
$CHAMFERD
 40
0.0
  9
$SKPOLY
 70
0
  9
$TDCREATE
 40
2461319.920115741
  9
$TDUCREATE
 40
2458532.153996898
  9
$TDUPDATE
 40
2461319.920115741
  9
$TDUUPDATE
 40
2458532.1544311
  9
$TDINDWG
 40
0.0
  9
$TDUSRTIMER
 40
0.0
  9
$USRTIMER
 70
1
  9
$ANGBASE
 50
0.0
  9
$ANGDIR
 70
0
  9
$PDMODE
 70
0
  9
$PDSIZE
 40
0.0
  9
$PLINEWID
 40
0.0
  9
$SPLFRAME
 70
0
  9
$SPLINETYPE
 70
6
  9
$SPLINESEGS
 70
8
  9
$HANDSEED
  5
32D
  9
$SURFTAB1
 70
6
  9
$SURFTAB2
 70
6
  9
$SURFTYPE
 70
6
  9
$SURFU
 70
6
  9
$SURFV
 70
6
  9
$UCSBASE
  2

  9
$UCSNAME
  2

  9
$UCSORG
 10
0.0
 20
0.0
 30
0.0
  9
$UCSXDIR
 10
1.0
 20
0.0
 30
0.0
  9
$UCSYDIR
 10
0.0
 20
1.0
 30
0.0
  9
$UCSORTHOREF
  2

  9
$UCSORTHOVIEW
 70
0
  9
$UCSORGTOP
 10
0.0
 20
0.0
 30
0.0
  9
$UCSORGBOTTOM
 10
0.0
 20
0.0
 30
0.0
  9
$UCSORGLEFT
 10
0.0
 20
0.0
 30
0.0
  9
$UCSORGRIGHT
 10
0.0
 20
0.0
 30
0.0
  9
$UCSORGFRONT
 10
0.0
 20
0.0
 30
0.0
  9
$UCSORGBACK
 10
0.0
 20
0.0
 30
0.0
  9
$PUCSBASE
  2

  9
$PUCSNAME
  2

  9
$PUCSORG
 10
0.0
 20
0.0
 30
0.0
  9
$PUCSXDIR
 10
1.0
 20
0.0
 30
0.0
  9
$PUCSYDIR
 10
0.0
 20
1.0
 30
0.0
  9
$PUCSORTHOREF
  2

  9
$PUCSORTHOVIEW
 70
0
  9
$PUCSORGTOP
 10
0.0
 20
0.0
 30
0.0
  9
$PUCSORGBOTTOM
 10
0.0
 20
0.0
 30
0.0
  9
$PUCSORGLEFT
 10
0.0
 20
0.0
 30
0.0
  9
$PUCSORGRIGHT
 10
0.0
 20
0.0
 30
0.0
  9
$PUCSORGFRONT
 10
0.0
 20
0.0
 30
0.0
  9
$PUCSORGBACK
 10
0.0
 20
0.0
 30
0.0
  9
$USERI1
 70
0
  9
$USERI2
 70
0
  9
$USERI3
 70
0
  9
$USERI4
 70
0
  9
$USERI5
 70
0
  9
$USERR1
 40
0.0
  9
$USERR2
 40
0.0
  9
$USERR3
 40
0.0
  9
$USERR4
 40
0.0
  9
$USERR5
 40
0.0
  9
$WORLDVIEW
 70
1
  9
$SHADEDGE
 70
3
  9
$SHADEDIF
 70
70
  9
$TILEMODE
 70
1
  9
$MAXACTVP
 70
64
  9
$PINSBASE
 10
0.0
 20
0.0
 30
0.0
  9
$PLIMCHECK
 70
0
  9
$PEXTMIN
 10
1e+20
 20
1e+20
 30
1e+20
  9
$PEXTMAX
 10
-1e+20
 20
-1e+20
 30
-1e+20
  9
$PLIMMIN
 10
0.0
 20
0.0
  9
$PLIMMAX
 10
420.0
 20
297.0
  9
$UNITMODE
 70
0
  9
$VISRETAIN
 70
1
  9
$PLINEGEN
 70
0
  9
$PSLTSCALE
 70
1
  9
$TREEDEPTH
 70
3020
  9
$CMLSTYLE
  2
Standard
  9
$CMLJUST
 70
0
  9
$CMLSCALE
 40
20.0
  9
$PROXYGRAPHICS
 70
1
  9
$MEASUREMENT
 70
0
  9
$CELWEIGHT
370
-1
  9
$ENDCAPS
280
0
  9
$JOINSTYLE
280
0
  9
$LWDISPLAY
290
0
  9
$INSUNITS
 70
1
  9
$HYPERLINKBASE
  1

  9
$STYLESHEET
  1

  9
$XEDIT
290
1
  9
$CEPSNTYPE
380
0
  9
$PSTYLEMODE
290
1
  9
$FINGERPRINTGUID
  2
{EA8E1F71-52F8-4002-84C8-FF3C228B133C}
  9
$VERSIONGUID
  2
{A9B871F4-323A-4CFE-8EB2-912C2C228214}
  9
$EXTNAMES
290
1
  9
$PSVPSCALE
 40
0.0
  9
$OLESTARTUP
290
0
  9
$SORTENTS
280
127
  9
$INDEXCTL
280
0
  9
$HIDETEXT
280
1
  9
$XCLIPFRAME
280
1
  9
$HALOGAP
280
0
  9
$OBSCOLOR
 70
257
  9
$OBSLTYPE
280
0
  9
$INTERSECTIONDISPLAY
280
0
  9
$INTERSECTIONCOLOR
 70
257
  9
$DIMASSOC
280
2
  9
$PROJECTNAME
  1

  9
$CAMERADISPLAY
290
0
  9
$LENSLENGTH
 40
50.0
  9
$CAMERAHEIGHT
 40
0.0
  9
$STEPSPERSEC
 40
24.0
  9
$STEPSIZE
 40
100.0
  9
$3DDWFPREC
 40
2.0
  9
$PSOLWIDTH
 40
0.005
  9
$PSOLHEIGHT
 40
0.08
  9
$LOFTANG1
 40
1.570796326795
  9
$LOFTANG2
 40
1.570796326795
  9
$LOFTMAG1
 40
0.0
  9
$LOFTMAG2
 40
0.0
  9
$LOFTPARAM
 70
7
  9
$LOFTNORMALS
280
1
  9
$LATITUDE
 40
37.795
  9
$LONGITUDE
 40
-122.394
  9
$NORTHDIRECTION
 40
0.0
  9
$TIMEZONE
 70
-8000
  9
$LIGHTGLYPHDISPLAY
280
1
  9
$TILEMODELIGHTSYNCH
280
1
  9
$CMATERIAL
347
20
  9
$SOLIDHIST
280
0
  9
$SHOWHIST
280
1
  9
$DWFFRAME
280
2
  9
$DGNFRAME
280
2
  9
$REALWORLDSCALE
290
1
  9
$INTERFERECOLOR
 62
256
  9
$CSHADOW
280
0
  9
$SHADOWPLANELOCATION
 40
0.0
  0
ENDSEC
  0
SECTION
  2
CLASSES
  0
CLASS
  1
ACDBDICTIONARYWDFLT
  2
AcDbDictionaryWithDefault
  3
ObjectDBX Classes
 90
0
 91
0
280
0
281
0
  0
CLASS
  1
SUN
  2
AcDbSun
  3
SCENEOE
 90
1153
 91
0
280
0
281
0
  0
CLASS
  1
VISUALSTYLE
  2
AcDbVisualStyle
  3
ObjectDBX Classes
 90
4095
 91
0
280
0
281
0
  0
CLASS
  1
MATERIAL
  2
AcDbMaterial
  3
ObjectDBX Classes
 90
1153
 91
0
280
0
281
0
  0
CLASS
  1
SCALE
  2
AcDbScale
  3
ObjectDBX Classes
 90
1153
 91
0
280
0
281
0
  0
CLASS
  1
TABLESTYLE
  2
AcDbTableStyle
  3
ObjectDBX Classes
 90
4095
 91
0
280
0
281
0
  0
CLASS
  1
MLEADERSTYLE
  2
AcDbMLeaderStyle
  3
ACDB_MLEADERSTYLE_CLASS
 90
4095
 91
0
280
0
281
0
  0
CLASS
  1
DICTIONARYVAR
  2
AcDbDictionaryVar
  3
ObjectDBX Classes
 90
0
 91
0
280
0
281
0
  0
CLASS
  1
CELLSTYLEMAP
  2
AcDbCellStyleMap
  3
ObjectDBX Classes
 90
1152
 91
0
280
0
281
0
  0
CLASS
  1
MENTALRAYRENDERSETTINGS
  2
AcDbMentalRayRenderSettings
  3
SCENEOE
 90
1024
 91
0
280
0
281
0
  0
CLASS
  1
ACDBDETAILVIEWSTYLE
  2
AcDbDetailViewStyle
  3
ObjectDBX Classes
 90
1025
 91
0
280
0
281
0
  0
CLASS
  1
ACDBSECTIONVIEWSTYLE
  2
AcDbSectionViewStyle
  3
ObjectDBX Classes
 90
1025
 91
0
280
0
281
0
  0
CLASS
  1
RASTERVARIABLES
  2
AcDbRasterVariables
  3
ISM
 90
0
 91
0
280
0
281
0
  0
CLASS
  1
ACDBPLACEHOLDER
  2
AcDbPlaceHolder
  3
ObjectDBX Classes
 90
0
 91
0
280
0
281
0
  0
CLASS
  1
LAYOUT
  2
AcDbLayout
  3
ObjectDBX Classes
 90
0
 91
0
280
0
281
0
  0
ENDSEC
  0
SECTION
  2
TABLES
  0
TABLE
  2
VPORT
  5
8
330
0
100
AcDbSymbolTable
 70
1
  0
VPORT
  5
23
330
8
100
AcDbSymbolTableRecord
100
AcDbViewportTableRecord
  2
*Active
 70
0
 10
0.0
 20
0.0
 11
1.0
 21
1.0
 12
0.0
 22
0.0
 13
0.0
 23
0.0
 14
0.5
 24
0.5
 15
0.5
 25
0.5
 16
0.0
 26
0.0
 36
1.0
 17
0.0
 27
0.0
 37
0.0
 40
1000.0
 41
1.34
 42
50.0
 43
0.0
 44
0.0
 50
0.0
 51
0.0
 71
0
 72
1000
 73
1
 74
3
 75
0
 76
0
 77
0
 78
0
281
0
 65
0
146
0.0
  0
ENDTAB
  0
TABLE
  2
LTYPE
  5
2
330
0
100
AcDbSymbolTable
 70
3
  0
LTYPE
  5
24
330
2
100
AcDbSymbolTableRecord
100
AcDbLinetypeTableRecord
  2
ByBlock
 70
0
  3

 72
65
 73
0
 40
0.0
  0
LTYPE
  5
25
330
2
100
AcDbSymbolTableRecord
100
AcDbLinetypeTableRecord
  2
ByLayer
 70
0
  3

 72
65
 73
0
 40
0.0
  0
LTYPE
  5
26
330
2
100
AcDbSymbolTableRecord
100
AcDbLinetypeTableRecord
  2
Continuous
 70
0
  3

 72
65
 73
0
 40
0.0
  0
ENDTAB
  0
TABLE
  2
LAYER
  5
1
330
0
100
AcDbSymbolTable
 70
7
  0
LAYER
  5
27
330
1
100
AcDbSymbolTableRecord
100
AcDbLayerTableRecord
  2
0
 70
0
 62
7
  6
Continuous
370
-3
390
13
347
21
  0
LAYER
  5
28
330
1
100
AcDbSymbolTableRecord
100
AcDbLayerTableRecord
  2
Defpoints
 70
0
 62
7
  6
Continuous
290
0
370
-3
390
13
347
21
  0
LAYER
  5
2F
330
1
100
AcDbSymbolTableRecord
100
AcDbLayerTableRecord
  2
CUT
 70
0
 62
1
420
16711680
  6
Continuous
370
-3
390
13
347
21
  0
LAYER
  5
30
330
1
100
AcDbSymbolTableRecord
100
AcDbLayerTableRecord
  2
SCORE
 70
0
 62
5
420
255
  6
Continuous
370
-3
390
13
347
21
  0
LAYER
  5
31
330
1
100
AcDbSymbolTableRecord
100
AcDbLayerTableRecord
  2
ENGRAVE
 70
0
 62
7
420
0
  6
Continuous
370
-3
390
13
347
21
  0
LAYER
  5
32
330
1
100
AcDbSymbolTableRecord
100
AcDbLayerTableRecord
  2
NUMBERS
 70
0
 62
7
420
0
  6
Continuous
370
-3
390
13
347
21
  0
LAYER
  5
33
330
1
100
AcDbSymbolTableRecord
100
AcDbLayerTableRecord
  2
BOUNDARY
 70
0
 62
8
420
8421504
  6
Continuous
370
-3
390
13
347
21
  0
ENDTAB
  0
TABLE
  2
STYLE
  5
5
330
0
100
AcDbSymbolTable
 70
1
  0
STYLE
  5
29
330
5
100
AcDbSymbolTableRecord
100
AcDbTextStyleTableRecord
  2
Standard
 70
0
 40
0.0
 41
1.0
 50
0.0
 71
0
 42
2.5
  3
txt
  4

  0
ENDTAB
  0
TABLE
  2
VIEW
  5
7
330
0
100
AcDbSymbolTable
 70
0
  0
ENDTAB
  0
TABLE
  2
UCS
  5
6
330
0
100
AcDbSymbolTable
 70
0
  0
ENDTAB
  0
TABLE
  2
APPID
  5
3
330
0
100
AcDbSymbolTable
 70
3
  0
APPID
  5
2A
330
3
100
AcDbSymbolTableRecord
100
AcDbRegAppTableRecord
  2
ACAD
 70
0
  0
APPID
  5
32A
330
3
100
AcDbSymbolTableRecord
100
AcDbRegAppTableRecord
  2
HATCHBACKGROUNDCOLOR
 70
0
  0
APPID
  5
32B
330
3
100
AcDbSymbolTableRecord
100
AcDbRegAppTableRecord
  2
EZDXF
 70
0
  0
ENDTAB
  0
TABLE
  2
DIMSTYLE
  5
4
330
0
100
AcDbSymbolTable
 70
1
100
AcDbDimStyleTable
  0
DIMSTYLE
105
2B
330
4
100
AcDbSymbolTableRecord
100
AcDbDimStyleTableRecord
  2
Standard
 70
0
 40
1.0
 41
2.5
 42
0.625
 43
3.75
 44
1.25
 45
0.0
 46
0.0
 47
0.0
 48
0.0
 49
2.5
140
2.5
141
2.5
142
0.0
143
0.03937007874
144
1.0
145
0.0
146
1.0
147
0.625
148
0.0
 69
0
 70
0
 71
0
 72
0
 73
0
 74
0
 75
0
 76
0
 77
1
 78
8
 79
3
170
0
171
3
172
1
173
0
174
0
175
0
176
0
177
0
178
0
179
2
271
2
272
2
273
2
274
3
275
0
276
0
277
2
278
44
279
0
280
0
281
0
282
0
283
0
284
8
285
0
286
0
288
0
289
3
290
0
371
-2
372
-2
  0
ENDTAB
  0
TABLE
  2
BLOCK_RECORD
  5
9
330
0
100
AcDbSymbolTable
 70
2
  0
BLOCK_RECORD
  5
17
330
9
100
AcDbSymbolTableRecord
100
AcDbBlockTableRecord
  2
*Model_Space
340
1A
 70
0
280
1
281
0
  0
BLOCK_RECORD
  5
1B
330
9
100
AcDbSymbolTableRecord
100
AcDbBlockTableRecord
  2
*Paper_Space
340
1E
 70
0
280
1
281
0
  0
ENDTAB
  0
ENDSEC
  0
SECTION
  2
BLOCKS
  0
BLOCK
  5
18
330
17
100
AcDbEntity
  8
0
100
AcDbBlockBegin
  2
*Model_Space
 70
0
 10
0.0
 20
0.0
 30
0.0
  3
*Model_Space
  1

  0
ENDBLK
  5
19
330
17
100
AcDbEntity
  8
0
100
AcDbBlockEnd
  0
BLOCK
  5
1C
330
1B
100
AcDbEntity
  8
0
100
AcDbBlockBegin
  2
*Paper_Space
 70
0
 10
0.0
 20
0.0
 30
0.0
  3
*Paper_Space
  1

  0
ENDBLK
  5
1D
330
1B
100
AcDbEntity
  8
0
100
AcDbBlockEnd
  0
ENDSEC
  0
SECTION
  2
ENTITIES
  0
LWPOLYLINE
  5
34
330
17
100
AcDbEntity
  8
CUT
100
AcDbPolyline
 90
10
 70
1
 10
2.6921137202118794
 20
0.75
 10
2.6921137202118794
 20
1.589172995207759
 10
2.183583536484845
 20
1.589172995207759
 10
2.183583536484845
 20
0.75
 10
0.5
 20
0.75
 10
0.5
 20
11.462183423348101
 10
0.5000000000020486
 20
11.399365471925437
 10
3.483606714080972
 20
11.399365471925437
 10
3.4837194419509956
 20
11.462183423348101
 10
3.4837194419509956
 20
0.75
  0
LWPOLYLINE
  5
35
330
17
100
AcDbEntity
  8
CUT
100
AcDbPolyline
 90
4
 70
1
 10
2.6921137202118794
 20
7.058066531931955
 10
2.183583536484845
 20
7.058066531931955
 10
2.183583536484845
 20
4.391973998550642
 10
2.6921137202118794
 20
4.391973998550642
  0
LWPOLYLINE
  5
36
330
17
100
AcDbEntity
  8
CUT
100
AcDbPolyline
 90
4
 70
1
 10
2.6921137202118794
 20
3.7701113154092747
 10
2.183583536484845
 20
3.7701113154092747
 10
2.183583536484845
 20
2.8896979158793026
 10
2.6921137202118794
 20
2.8896979158793026
  0
LWPOLYLINE
  5
37
330
17
100
AcDbEntity
  8
CUT
100
AcDbPolyline
 90
6
 70
1
 10
4.638857375521438
 20
0.8671695804270324
 10
4.639147838110793
 20
0.75
 10
3.7237194419509954
 20
0.8788585139988064
 10
3.7237488424316396
 20
11.434887494286631
 10
4.576459864841209
 20
11.434888234798189
 10
4.576459864841209
 20
0.8671695804270324
  0
LWPOLYLINE
  5
38
330
17
100
AcDbEntity
  8
CUT
100
AcDbPolyline
 90
4
 70
1
 10
9.512150916828038
 20
0.75
 10
4.879147838110793
 20
0.75
 10
4.879147838110793
 20
11.316921112429705
 10
9.512150916828038
 20
11.316921112429705
  0
LWPOLYLINE
  5
39
330
17
100
AcDbEntity
  8
CUT
100
AcDbPolyline
 90
4
 70
1
 10
14.385153995545284
 20
0.75
 10
9.75215091682804
 20
0.75
 10
9.75215091682804
 20
11.316921112429705
 10
14.385153995545284
 20
11.316921112429705
  0
LWPOLYLINE
  5
3A
330
17
100
AcDbEntity
  8
CUT
100
AcDbPolyline
 90
4
 70
1
 10
25.192075107974993
 20
0.84
 10
25.192075107974993
 20
0.9753346456692912
 10
14.625153995545286
 20
0.9753346456692912
 10
14.625153995545286
 20
0.84
  0
LWPOLYLINE
  5
3B
330
17
100
AcDbEntity
  8
CUT
100
AcDbPolyline
 90
8
 70
1
 10
28.32571195810709
 20
0.75
 10
27.710431446304476
 20
0.75
 10
27.71051346729344
 20
1.260580710578278
 10
25.342075107974992
 20
1.260580710578278
 10
25.342075107979856
 20
6.86271910291904
 10
26.85954559996908
 20
6.862656283563493
 10
26.859463578975433
 20
7.3916917009500285
 10
28.32579397911285
 20
7.393946707834943
  0
LWPOLYLINE
  5
3C
330
17
100
AcDbEntity
  8
CUT
100
AcDbPolyline
 90
9
 70
1
 10
17.22394351775276
 20
1.8716050031828981
 10
17.22394351775276
 20
1.2153346456692913
 10
14.625153995545286
 20
1.2153346456692913
 10
14.625153995545286
 20
2.753433290132821
 10
20.909363699740627
 20
2.753433290132821
 10
20.89968742414421
 20
2.7534108578566956
 10
20.89968742414421
 20
1.2153346456692913
 10
18.376416364853664
 20
1.2153346456692913
 10
18.376416364853664
 20
1.8716050031828981
  0
LWPOLYLINE
  5
3D
330
17
100
AcDbEntity
  8
CUT
100
AcDbPolyline
 90
9
 70
1
 10
21.94119198669055
 20
3.724124167876762
 10
22.59746234420416
 20
3.724124167876762
 10
22.59746234420416
 20
1.1253346456692912
 10
21.05936369974063
 20
1.1253346456692912
 10
21.05936369974063
 20
7.409544349864633
 10
21.059386132016755
 20
7.399868074268218
 10
22.59746234420416
 20
7.399868074268218
 10
22.59746234420416
 20
4.876597014977669
 10
21.94119198669055
 20
4.876597014977669
  0
LWPOLYLINE
  5
3E
330
17
100
AcDbEntity
  8
CUT
100
AcDbPolyline
 90
8
 70
1
 10
22.83746234420416
 20
1.1253346456692912
 10
22.83746234420416
 20
4.255209712017326
 10
23.17891575627765
 20
4.255209712017326
 10
23.17891575627765
 20
4.837462958813357
 10
22.83746234420416
 20
4.837462958813357
 10
22.83746234420416
 20
7.3678515424155595
 10
24.220582422944318
 20
7.3678515424155595
 10
24.220582422944318
 20
1.1253346456692912
  0
LWPOLYLINE
  5
3F
330
17
100
AcDbEntity
  8
CUT
100
AcDbPolyline
 90
9
 70
1
 10
20.68063294305543
 20
3.3287623229251064
 10
19.717130783980934
 20
3.26253859961043
 10
19.723674315821356
 20
3.167335449732251
 10
19.63526308110138
 20
3.1612587418693145
 10
19.623858744379703
 20
3.327182711470657
 10
19.621459176911845
 20
3.329273637008108
 10
14.73525098561018
 20
2.9934332901328204
 10
14.625153995545286
 20
4.594994594637761
 10
20.765511701445277
 20
4.594994594637761
  0
LWPOLYLINE
  5
40
330
17
100
AcDbEntity
  8
CUT
100
AcDbPolyline
 90
4
 70
1
 10
28.565793979112847
 20
0.7500824666797477
 10
28.716649816309125
 20
6.558932496255494
 10
29.237502022456066
 20
6.558932496255494
 10
29.237502022456066
 20
0.75
  0
LWPOLYLINE
  5
41
330
17
100
AcDbEntity
  8
CUT
100
AcDbPolyline
 90
4
 70
1
 10
24.643167526942968
 20
6.727483825180456
 10
24.643236476441064
 20
1.1254087569482252
 10
24.46058242294432
 20
1.1253346456692912
 10
24.460582422944317
 20
6.727517893398767
  0
LWPOLYLINE
  5
42
330
17
100
AcDbEntity
  8
CUT
100
AcDbPolyline
 90
8
 70
1
 10
14.625153995545286
 20
4.835106781003289
 10
14.625236671878193
 20
7.818713465777742
 10
20.079740909665254
 20
7.8187134657906245
 10
20.0796744062152
 20
4.834994594657238
 10
19.924408664557603
 20
4.834994594637761
 10
19.924408184383022
 20
5.261585786354097
 10
19.496505143046246
 20
5.261585786354097
 10
19.496504663793264
 20
4.834994594637761
  0
LWPOLYLINE
  5
43
330
17
100
AcDbEntity
  8
CUT
100
AcDbPolyline
 90
4
 70
1
 10
24.515173976992113
 20
12.415780385420891
 10
22.83746234420416
 20
12.415780385420891
 10
22.83746234420416
 20
7.51785154241556
 10
24.515173976992113
 20
7.51785154241556
  0
LWPOLYLINE
  5
44
330
17
100
AcDbEntity
  8
CUT
100
AcDbPolyline
 90
4
 70
1
 10
26.432885609780065
 20
12.441875550840274
 10
24.75517397699211
 20
12.441875550840274
 10
24.75517397699211
 20
7.543946707834944
 10
26.432885609780065
 20
7.543946707834944
  0
LWPOLYLINE
  5
45
330
17
100
AcDbEntity
  8
CUT
100
AcDbPolyline
 90
4
 70
1
 10
14.625153995545286
 20
8.058713465790625
 10
14.625153995545286
 20
11.042432336988515
 10
19.163129164449984
 20
11.042432336988515
 10
19.163129164449984
 20
8.058713465790625
  0
LWPOLYLINE
  5
46
330
17
100
AcDbEntity
  8
CUT
100
AcDbPolyline
 90
4
 70
1
 10
15.330801051911843
 20
9.309636202066951
 10
14.78044015953629
 20
9.309636202066951
 10
14.78044015953629
 20
8.879025965846479
 10
15.330801051911843
 20
8.879025965846479
  0
LWPOLYLINE
  5
47
330
17
100
AcDbEntity
  8
CUT
100
AcDbPolyline
 90
4
 70
1
 10
29.31306023488039
 20
10.527665578968687
 10
29.31306023488039
 20
7.543946707834944
 10
26.672885609780064
 20
7.543946707834944
 10
26.672885609780064
 20
10.527665578968687
  0
LWPOLYLINE
  5
48
330
17
100
AcDbEntity
  8
CUT
100
AcDbPolyline
 90
4
 70
1
 10
21.827561828907722
 20
7.559544349864633
 10
20.229740909665257
 20
7.559544349864633
 10
20.229740909665257
 20
10.543240788480023
 10
21.827561828907722
 20
10.543240788480023
  0
LWPOLYLINE
  5
49
330
17
100
AcDbEntity
  8
CUT
100
AcDbPolyline
 90
5
 70
1
 10
26.672885609780064
 20
10.677665578968687
 10
26.672885609780064
 20
13.661346769290722
 10
27.66080166642099
 20
13.661346769290722
 10
27.598715919829687
 20
13.6613467692892
 10
27.598715919829687
 20
10.677665578968687
  0
LWPOLYLINE
  5
4A
330
17
100
AcDbEntity
  8
CUT
100
AcDbPolyline
 90
4
 70
1
 10
19.313129164449983
 20
7.968713465790624
 10
19.313129164449983
 20
10.952346294681679
 10
19.906069580861132
 20
10.952346294681679
 10
19.906069580861132
 20
7.968713465790624
  0
LWPOLYLINE
  5
4B
330
17
100
AcDbEntity
  8
CUT
100
AcDbPolyline
 90
4
 70
1
 10
28.573393803503354
 20
13.389239463650256
 10
28.573393803503354
 20
10.677665578968687
 10
27.90082496696516
 20
10.677665578968687
 10
27.900801666420993
 20
13.389239463650256
  0
LWPOLYLINE
  5
4C
330
17
100
AcDbEntity
  8
CUT
100
AcDbPolyline
 90
4
 70
1
 10
20.536531181041205
 20
4.744994594637761
 10
20.229740909665257
 20
4.745077056585889
 10
20.229740909665257
 20
7.329555246873176
 10
20.603326760114975
 20
7.329635241600736
  0
LWPOLYLINE
  5
4D
330
17
100
AcDbEntity
  8
CUT
100
AcDbPolyline
 90
4
 70
1
 10
22.374352100283673
 20
7.559544349864633
 10
22.067561828907724
 20
7.559626811812761
 10
22.067561828907724
 20
10.144105002100048
 10
22.441147679357442
 20
10.144184996827608
  0
LWPOLYLINE
  5
4E
330
17
100
AcDbEntity
  8
CUT
100
AcDbPolyline
 90
4
 70
1
 10
20.14606958086113
 20
11.731560744035173
 10
22.679697870642034
 20
11.731781277213178
 10
22.679697870642034
 20
10.783240788480024
 10
20.14606958086113
 20
11.128819832452082
  0
LWPOLYLINE
  5
4F
330
17
100
AcDbEntity
  8
CUT
100
AcDbPolyline
 90
4
 70
1
 10
15.193650832930663
 20
12.820531241071427
 10
16.884176135729582
 20
12.820449977025541
 10
16.884176135729582
 20
11.282432336988515
 10
14.625153995545286
 20
11.282472255052902
  0
LWPOLYLINE
  5
50
330
17
100
AcDbEntity
  8
CUT
100
AcDbPolyline
 90
4
 70
1
 10
17.602672973114956
 20
12.820531241071427
 10
19.293198275913877
 20
12.820449977025541
 10
19.293198275913877
 20
11.282432336988515
 10
17.03417613572958
 20
11.282472255052902
  0
LWPOLYLINE
  5
51
330
17
100
AcDbEntity
  8
CUT
100
AcDbPolyline
 90
4
 70
1
 10
5.636857811864074
 20
13.630594236114572
 10
4.879147838110793
 20
13.630594236114572
 10
4.879147838110793
 20
11.466921112429706
 10
5.636857811864074
 20
11.466921112429706
  0
LWPOLYLINE
  5
52
330
17
100
AcDbEntity
  8
CUT
100
AcDbPolyline
 90
4
 70
1
 10
6.825428167741796
 20
13.630425147926369
 10
6.825428167741796
 20
11.466921112429706
 10
5.876857811864074
 20
11.466921112429706
 10
5.876857811864074
 20
13.630425147926369
  0
LWPOLYLINE
  5
53
330
17
100
AcDbEntity
  8
CUT
100
AcDbPolyline
 90
4
 70
1
 10
9.22893220323846
 20
11.556921112429706
 10
7.065428167741796
 20
11.556921112429706
 10
7.065428167741796
 20
12.505491468307428
 10
9.22893220323846
 20
12.505491468307428
  0
LWPOLYLINE
  5
54
330
17
100
AcDbEntity
  8
CUT
100
AcDbPolyline
 90
4
 70
1
 10
9.37893220323846
 20
13.358348063096557
 10
11.542236009012738
 20
13.358348063096557
 10
11.542236009012738
 20
11.556921112429706
 10
9.37893220323846
 20
11.556921112429706
  0
LWPOLYLINE
  5
55
330
17
100
AcDbEntity
  8
CUT
100
AcDbPolyline
 90
4
 70
1
 10
12.630077558479723
 20
11.556921112429706
 10
11.692236009012738
 20
11.556921112429706
 10
11.692236009012738
 20
12.314631086182986
 10
12.630077558479723
 20
12.314631086182986
  0
LWPOLYLINE
  5
56
330
17
100
AcDbEntity
  8
CUT
100
AcDbPolyline
 90
4
 70
1
 10
25.065821580944466
 20
1.125410080016134
 10
24.883236476441063
 20
1.1253346456692912
 10
24.883236476441063
 20
1.6541286165931262
 10
25.065899012937937
 20
1.6321235377893049
  0
LWPOLYLINE
  5
57
330
17
100
AcDbEntity
  8
ENGRAVE
100
AcDbPolyline
 90
2
 70
0
 10
3.4836163448837953
 20
0.75
 10
3.4836163448837953
 20
11.404732266346102
  0
LWPOLYLINE
  5
58
330
17
100
AcDbEntity
  8
ENGRAVE
100
AcDbPolyline
 90
2
 70
0
 10
0.5001025653562361
 20
0.8194434165206442
 10
0.5001025653562361
 20
11.384263341001002
  0
LWPOLYLINE
  5
59
330
17
100
AcDbEntity
  8
ENGRAVE
100
AcDbPolyline
 90
2
 70
0
 10
2.8643578147000683
 20
10.318646116747315
 10
2.8643578147000683
 20
11.399365471925437
  0
LWPOLYLINE
  5
5A
330
17
100
AcDbEntity
  8
ENGRAVE
100
AcDbPolyline
 90
2
 70
0
 10
9.512150916828038
 20
9.8709765189653
 10
4.879147838110793
 20
9.8709765189653
  0
LWPOLYLINE
  5
5B
330
17
100
AcDbEntity
  8
ENGRAVE
100
AcDbPolyline
 90
2
 70
0
 10
9.512150916828038
 20
9.7459765189653
 10
4.879147838110793
 20
9.7459765189653
  0
LWPOLYLINE
  5
5C
330
17
100
AcDbEntity
  8
ENGRAVE
100
AcDbPolyline
 90
2
 70
0
 10
9.512150916828038
 20
8.355638592456113
 10
4.879147838110793
 20
8.355638592456113
  0
LWPOLYLINE
  5
5D
330
17
100
AcDbEntity
  8
ENGRAVE
100
AcDbPolyline
 90
2
 70
0
 10
9.512150916828038
 20
8.230638592456113
 10
4.879147838110793
 20
8.230638592456113
  0
LWPOLYLINE
  5
5E
330
17
100
AcDbEntity
  8
ENGRAVE
100
AcDbPolyline
 90
2
 70
0
 10
9.512150916828038
 20
6.848502765684461
 10
4.879147838110793
 20
6.848502765684461
  0
LWPOLYLINE
  5
5F
330
17
100
AcDbEntity
  8
ENGRAVE
100
AcDbPolyline
 90
2
 70
0
 10
9.512150916828038
 20
6.723502765684461
 10
4.879147838110793
 20
6.723502765684461
  0
LWPOLYLINE
  5
60
330
17
100
AcDbEntity
  8
ENGRAVE
100
AcDbPolyline
 90
2
 70
0
 10
9.512150916828038
 20
5.3434174638471905
 10
4.879147838110793
 20
5.3434174638471905
  0
LWPOLYLINE
  5
61
330
17
100
AcDbEntity
  8
ENGRAVE
100
AcDbPolyline
 90
2
 70
0
 10
9.512150916828038
 20
5.21841746384719
 10
4.879147838110793
 20
5.21841746384719
  0
LWPOLYLINE
  5
62
330
17
100
AcDbEntity
  8
ENGRAVE
100
AcDbPolyline
 90
2
 70
0
 10
9.512150916828038
 20
3.836281637075536
 10
4.879147838110793
 20
3.836281637075536
  0
LWPOLYLINE
  5
63
330
17
100
AcDbEntity
  8
ENGRAVE
100
AcDbPolyline
 90
2
 70
0
 10
9.512150916828038
 20
3.711281637075536
 10
4.879147838110793
 20
3.711281637075536
  0
LWPOLYLINE
  5
64
330
17
100
AcDbEntity
  8
ENGRAVE
100
AcDbPolyline
 90
2
 70
0
 10
9.512150916828038
 20
2.329145810303883
 10
4.879147838110793
 20
2.329145810303883
  0
LWPOLYLINE
  5
65
330
17
100
AcDbEntity
  8
ENGRAVE
100
AcDbPolyline
 90
2
 70
0
 10
9.512150916828038
 20
2.204145810303883
 10
4.879147838110793
 20
2.204145810303883
  0
LWPOLYLINE
  5
66
330
17
100
AcDbEntity
  8
ENGRAVE
100
AcDbPolyline
 90
2
 70
0
 10
14.385153995545284
 20
9.8709765189653
 10
9.75215091682804
 20
9.8709765189653
  0
LWPOLYLINE
  5
67
330
17
100
AcDbEntity
  8
ENGRAVE
100
AcDbPolyline
 90
2
 70
0
 10
14.385153995545284
 20
9.7459765189653
 10
9.75215091682804
 20
9.7459765189653
  0
LWPOLYLINE
  5
68
330
17
100
AcDbEntity
  8
ENGRAVE
100
AcDbPolyline
 90
2
 70
0
 10
14.385153995545284
 20
8.355638592456113
 10
9.75215091682804
 20
8.355638592456113
  0
LWPOLYLINE
  5
69
330
17
100
AcDbEntity
  8
ENGRAVE
100
AcDbPolyline
 90
2
 70
0
 10
14.385153995545284
 20
8.230638592456113
 10
9.75215091682804
 20
8.230638592456113
  0
LWPOLYLINE
  5
6A
330
17
100
AcDbEntity
  8
ENGRAVE
100
AcDbPolyline
 90
2
 70
0
 10
14.385153995545284
 20
6.848502765684461
 10
9.75215091682804
 20
6.848502765684461
  0
LWPOLYLINE
  5
6B
330
17
100
AcDbEntity
  8
ENGRAVE
100
AcDbPolyline
 90
2
 70
0
 10
14.385153995545284
 20
6.723502765684461
 10
9.75215091682804
 20
6.723502765684461
  0
LWPOLYLINE
  5
6C
330
17
100
AcDbEntity
  8
ENGRAVE
100
AcDbPolyline
 90
2
 70
0
 10
14.385153995545284
 20
5.3434174638471905
 10
9.75215091682804
 20
5.3434174638471905
  0
LWPOLYLINE
  5
6D
330
17
100
AcDbEntity
  8
ENGRAVE
100
AcDbPolyline
 90
2
 70
0
 10
14.385153995545284
 20
5.21841746384719
 10
9.75215091682804
 20
5.21841746384719
  0
LWPOLYLINE
  5
6E
330
17
100
AcDbEntity
  8
ENGRAVE
100
AcDbPolyline
 90
2
 70
0
 10
14.385153995545284
 20
3.836281637075536
 10
9.75215091682804
 20
3.836281637075536
  0
LWPOLYLINE
  5
6F
330
17
100
AcDbEntity
  8
ENGRAVE
100
AcDbPolyline
 90
2
 70
0
 10
14.385153995545284
 20
3.711281637075536
 10
9.75215091682804
 20
3.711281637075536
  0
LWPOLYLINE
  5
70
330
17
100
AcDbEntity
  8
ENGRAVE
100
AcDbPolyline
 90
2
 70
0
 10
14.385153995545284
 20
2.329145810303883
 10
9.75215091682804
 20
2.329145810303883
  0
LWPOLYLINE
  5
71
330
17
100
AcDbEntity
  8
ENGRAVE
100
AcDbPolyline
 90
2
 70
0
 10
14.385153995545284
 20
2.204145810303883
 10
9.75215091682804
 20
2.204145810303883
  0
LWPOLYLINE
  5
72
330
17
100
AcDbEntity
  8
ENGRAVE
100
AcDbPolyline
 90
2
 70
0
 10
28.325691452857743
 20
0.75
 10
28.325691452857743
 20
7.393946550164195
  0
LWPOLYLINE
  5
73
330
17
100
AcDbEntity
  8
ENGRAVE
100
AcDbPolyline
 90
2
 70
0
 10
25.342177673330184
 20
1.260580710578278
 10
25.342177673330184
 20
6.862719098673099
  0
LWPOLYLINE
  5
74
330
17
100
AcDbEntity
  8
ENGRAVE
100
AcDbPolyline
 90
2
 70
0
 10
14.629668209854781
 20
1.2154370241802737
 10
17.22394351775276
 20
1.2154370241802737
  0
LWPOLYLINE
  5
75
330
17
100
AcDbEntity
  8
ENGRAVE
100
AcDbPolyline
 90
2
 70
0
 10
18.376416364853664
 20
1.2154370241802737
 10
20.89968742414421
 20
1.2154370241802737
  0
LWPOLYLINE
  5
76
330
17
100
AcDbEntity
  8
ENGRAVE
100
AcDbPolyline
 90
2
 70
0
 10
14.755216047825508
 20
2.640551853576599
 10
20.89968742414421
 20
2.640551853576599
  0
LWPOLYLINE
  5
77
330
17
100
AcDbEntity
  8
ENGRAVE
100
AcDbPolyline
 90
2
 70
0
 10
22.597359965693176
 20
1.1298488599787868
 10
22.597359965693176
 20
3.724124167876762
  0
LWPOLYLINE
  5
78
330
17
100
AcDbEntity
  8
ENGRAVE
100
AcDbPolyline
 90
2
 70
0
 10
22.597359965693176
 20
4.876597014977669
 10
22.597359965693176
 20
7.399868074268218
  0
LWPOLYLINE
  5
79
330
17
100
AcDbEntity
  8
ENGRAVE
100
AcDbPolyline
 90
2
 70
0
 10
21.17224513629685
 20
1.255396697949513
 10
21.17224513629685
 20
7.399868074268218
  0
LWPOLYLINE
  5
7A
330
17
100
AcDbEntity
  8
ENGRAVE
100
AcDbPolyline
 90
2
 70
0
 10
24.220582422944318
 20
1.1253346456692912
 10
24.220582422944318
 20
7.3678515424155595
  0
LWPOLYLINE
  5
7B
330
17
100
AcDbEntity
  8
ENGRAVE
100
AcDbPolyline
 90
2
 70
0
 10
23.400372449191035
 20
1.1253346456692912
 10
23.400372449191035
 20
4.899634987438987
  0
LWPOLYLINE
  5
7C
330
17
100
AcDbEntity
  8
ENGRAVE
100
AcDbPolyline
 90
2
 70
0
 10
29.03450005395213
 20
0.7500249228790553
 10
29.03450005395213
 20
6.558932496255494
  0
LWPOLYLINE
  5
7D
330
17
100
AcDbEntity
  8
ENGRAVE
100
AcDbPolyline
 90
2
 70
0
 10
15.044614683874496
 20
4.835097120895998
 10
19.496504663908446
 20
4.835097120895998
  0
LWPOLYLINE
  5
7E
330
17
100
AcDbEntity
  8
ENGRAVE
100
AcDbPolyline
 90
2
 70
0
 10
19.9244086644422
 20
4.835097120895998
 10
20.079674408500384
 20
4.835097120895998
  0
LWPOLYLINE
  5
7F
330
17
100
AcDbEntity
  8
ENGRAVE
100
AcDbPolyline
 90
2
 70
0
 10
16.015492645427024
 20
5.655307094649279
 10
20.079692689979098
 20
5.655307094649279
  0
LWPOLYLINE
  5
80
330
17
100
AcDbEntity
  8
ENGRAVE
100
AcDbPolyline
 90
2
 70
0
 10
14.625236669036086
 20
7.8186109004235576
 10
20.0797409073792
 20
7.8186109004235576
  0
LWPOLYLINE
  5
81
330
17
100
AcDbEntity
  8
ENGRAVE
100
AcDbPolyline
 90
2
 70
0
 10
14.625153995545286
 20
8.058815992093198
 10
19.163129164449984
 20
8.058815992093198
  0
LWPOLYLINE
  5
82
330
17
100
AcDbEntity
  8
ENGRAVE
100
AcDbPolyline
 90
2
 70
0
 10
14.625153995545286
 20
8.879025965846479
 10
14.78044015953629
 20
8.879025965846479
  0
LWPOLYLINE
  5
83
330
17
100
AcDbEntity
  8
ENGRAVE
100
AcDbPolyline
 90
2
 70
0
 10
15.330801051911843
 20
8.879025965846479
 10
19.163129164449984
 20
8.879025965846479
  0
LWPOLYLINE
  5
84
330
17
100
AcDbEntity
  8
ENGRAVE
100
AcDbPolyline
 90
2
 70
0
 10
14.625153995545286
 20
11.042329771620757
 10
15.375112823662434
 20
11.042329771620757
  0
LWPOLYLINE
  5
85
330
17
100
AcDbEntity
  8
ENGRAVE
100
AcDbPolyline
 90
2
 70
0
 10
29.31306023488039
 20
10.527563052719145
 10
26.672885609780064
 20
10.527563052719145
  0
LWPOLYLINE
  5
86
330
17
100
AcDbEntity
  8
ENGRAVE
100
AcDbPolyline
 90
2
 70
0
 10
29.308371343705716
 20
7.544049273191585
 10
26.742514770456975
 20
7.544049273191585
  0
LWPOLYLINE
  5
87
330
17
100
AcDbEntity
  8
ENGRAVE
100
AcDbPolyline
 90
2
 70
0
 10
20.229740909665257
 20
7.559646876063445
 10
21.827561828907722
 20
7.559646876063445
  0
LWPOLYLINE
  5
88
330
17
100
AcDbEntity
  8
ENGRAVE
100
AcDbPolyline
 90
2
 70
0
 10
21.633216967038237
 20
8.379856849816726
 10
21.827561828907722
 20
8.379856849816726
  0
LWPOLYLINE
  5
89
330
17
100
AcDbEntity
  8
ENGRAVE
100
AcDbPolyline
 90
2
 70
0
 10
20.234848291848117
 20
9.005266954803602
 10
21.714336566708898
 20
9.005266954803602
  0
LWPOLYLINE
  5
8A
330
17
100
AcDbEntity
  8
ENGRAVE
100
AcDbPolyline
 90
2
 70
0
 10
20.43649297937262
 20
10.430381784199927
 10
21.714336566708898
 20
10.430381784199927
  0
LWPOLYLINE
  5
8B
330
17
100
AcDbEntity
  8
ENGRAVE
100
AcDbPolyline
 90
2
 70
0
 10
26.672885609780064
 20
10.677730424405404
 10
27.598715919829687
 20
10.677730424405404
  0
LWPOLYLINE
  5
8C
330
17
100
AcDbEntity
  8
ENGRAVE
100
AcDbPolyline
 90
2
 70
0
 10
19.313129164449983
 20
7.968733971039968
 10
19.906069580861132
 20
7.968733971039968
  0
LWPOLYLINE
  5
8D
330
17
100
AcDbEntity
  8
ENGRAVE
100
AcDbPolyline
 90
2
 70
0
 10
28.370391834999417
 20
10.677665578968687
 10
28.370391834999417
 20
13.389239463650256
  0
LWPOLYLINE
  5
8E
330
17
100
AcDbEntity
  8
ENGRAVE
100
AcDbPolyline
 90
2
 70
0
 10
14.625176900479586
 20
11.282534223981672
 10
16.884176135729582
 20
11.282534223981672
  0
LWPOLYLINE
  5
8F
330
17
100
AcDbEntity
  8
ENGRAVE
100
AcDbPolyline
 90
2
 70
0
 10
15.274719389752262
 20
12.707649053377999
 10
16.884176135729582
 20
12.707649053377999
  0
LWPOLYLINE
  5
90
330
17
100
AcDbEntity
  8
ENGRAVE
100
AcDbPolyline
 90
2
 70
0
 10
17.03419904066388
 20
11.282534223981672
 10
19.293198275913877
 20
11.282534223981672
  0
LWPOLYLINE
  5
91
330
17
100
AcDbEntity
  8
ENGRAVE
100
AcDbPolyline
 90
2
 70
0
 10
17.683741529936555
 20
12.707649053377999
 10
19.293198275913877
 20
12.707649053377999
  0
LWPOLYLINE
  5
92
330
17
100
AcDbEntity
  8
ENGRAVE
100
AcDbPolyline
 90
2
 70
0
 10
5.636857811864074
 20
13.630594236114572
 10
5.636857811864074
 20
11.466921112429706
  0
LWPOLYLINE
  5
93
330
17
100
AcDbEntity
  8
ENGRAVE
100
AcDbPolyline
 90
2
 70
0
 10
5.876857811864074
 20
11.467018837243854
 10
6.825428167741796
 20
11.467018837243854
  0
LWPOLYLINE
  5
94
330
17
100
AcDbEntity
  8
ENGRAVE
100
AcDbPolyline
 90
2
 70
0
 10
5.876857811864074
 20
12.09242894223073
 10
6.825428167741796
 20
12.09242894223073
  0
LWPOLYLINE
  5
95
330
17
100
AcDbEntity
  8
ENGRAVE
100
AcDbPolyline
 90
2
 70
0
 10
5.876857811864074
 20
13.517543771627055
 10
6.825428167741796
 20
13.517543771627055
  0
LWPOLYLINE
  5
96
330
17
100
AcDbEntity
  8
ENGRAVE
100
AcDbPolyline
 90
2
 70
0
 10
5.876857811864074
 20
13.630322643018133
 10
6.825428167741796
 20
13.630322643018133
  0
LWPOLYLINE
  5
97
330
17
100
AcDbEntity
  8
ENGRAVE
100
AcDbPolyline
 90
2
 70
0
 10
7.065525892555944
 20
12.505491468307428
 10
7.065525892555944
 20
11.556921112429706
  0
LWPOLYLINE
  5
98
330
17
100
AcDbEntity
  8
ENGRAVE
100
AcDbPolyline
 90
2
 70
0
 10
7.69093599754282
 20
12.505491468307428
 10
7.69093599754282
 20
11.556921112429706
  0
LWPOLYLINE
  5
99
330
17
100
AcDbEntity
  8
ENGRAVE
100
AcDbPolyline
 90
2
 70
0
 10
9.116050826939146
 20
12.505491468307428
 10
9.116050826939146
 20
11.556921112429706
  0
LWPOLYLINE
  5
9A
330
17
100
AcDbEntity
  8
ENGRAVE
100
AcDbPolyline
 90
2
 70
0
 10
9.228829698330223
 20
12.505491468307428
 10
9.228829698330223
 20
11.556921112429706
  0
LWPOLYLINE
  5
9B
330
17
100
AcDbEntity
  8
ENGRAVE
100
AcDbPolyline
 90
2
 70
0
 10
11.532967636309326
 20
12.74757836260801
 10
11.532967636309326
 20
12.130364490600051
  0
LWPOLYLINE
  5
9C
330
17
100
AcDbEntity
  8
ENGRAVE
100
AcDbPolyline
 90
2
 70
0
 10
9.37893220323846
 20
13.358348063096557
 10
9.37893220323846
 20
11.556921112429706
  0
LWPOLYLINE
  5
9D
330
17
100
AcDbEntity
  8
ENGRAVE
100
AcDbPolyline
 90
2
 70
0
 10
10.004342308225336
 20
13.358348063096557
 10
10.004342308225336
 20
11.556921112429706
  0
LWPOLYLINE
  5
9E
330
17
100
AcDbEntity
  8
ENGRAVE
100
AcDbPolyline
 90
2
 70
0
 10
11.692236009012738
 20
11.556921112429706
 10
12.630077558479723
 20
11.556921112429706
  0
LWPOLYLINE
  5
9F
330
17
100
AcDbEntity
  8
ENGRAVE
100
AcDbPolyline
 90
2
 70
0
 10
0.18
 20
19.58
 10
0.18
 20
19.88
  0
LWPOLYLINE
  5
A0
330
17
100
AcDbEntity
  8
ENGRAVE
100
AcDbPolyline
 90
3
 70
0
 10
0.09999999999999999
 20
19.779999999999998
 10
0.18
 20
19.88
 10
0.26
 20
19.779999999999998
  0
LWPOLYLINE
  5
A1
330
17
100
AcDbEntity
  8
ENGRAVE
100
AcDbPolyline
 90
2
 70
0
 10
0.1
 20
0.25
 10
0.4
 20
0.25
  0
LWPOLYLINE
  5
A2
330
17
100
AcDbEntity
  8
ENGRAVE
100
AcDbPolyline
 90
2
 70
0
 10
0.25
 20
0.1
 10
0.25
 20
0.4
  0
LWPOLYLINE
  5
A3
330
17
100
AcDbEntity
  8
NUMBERS
100
AcDbPolyline
 90
4
 70
0
 10
3.3877194419509955
 20
0.826
 10
3.3877194419509955
 20
0.786
 10
3.4477194419509956
 20
0.786
 10
3.4477194419509956
 20
0.826
  0
LWPOLYLINE
  5
A4
330
17
100
AcDbEntity
  8
NUMBERS
100
AcDbPolyline
 90
2
 70
0
 10
3.4177194419509953
 20
0.786
 10
3.4177194419509953
 20
0.8160000000000001
  0
LWPOLYLINE
  5
A5
330
17
100
AcDbEntity
  8
NUMBERS
100
AcDbPolyline
 90
4
 70
0
 10
3.4477194419509956
 20
0.842
 10
3.3877194419509955
 20
0.842
 10
3.4477194419509956
 20
0.882
 10
3.3877194419509955
 20
0.882
  0
LWPOLYLINE
  5
A6
330
17
100
AcDbEntity
  8
NUMBERS
100
AcDbPolyline
 90
5
 70
0
 10
3.4477194419509956
 20
0.898
 10
3.4477194419509956
 20
0.938
 10
3.3877194419509955
 20
0.938
 10
3.3877194419509955
 20
0.898
 10
3.4477194419509956
 20
0.898
  0
LWPOLYLINE
  5
A7
330
17
100
AcDbEntity
  8
NUMBERS
100
AcDbPolyline
 90
2
 70
0
 10
3.4477194419509956
 20
0.898
 10
3.3877194419509955
 20
0.938
  0
LWPOLYLINE
  5
A8
330
17
100
AcDbEntity
  8
NUMBERS
100
AcDbPolyline
 90
5
 70
0
 10
3.4477194419509956
 20
0.954
 10
3.4477194419509956
 20
0.994
 10
3.3877194419509955
 20
0.994
 10
3.3877194419509955
 20
0.954
 10
3.4477194419509956
 20
0.954
  0
LWPOLYLINE
  5
A9
330
17
100
AcDbEntity
  8
NUMBERS
100
AcDbPolyline
 90
2
 70
0
 10
3.4477194419509956
 20
0.954
 10
3.3877194419509955
 20
0.994
  0
LWPOLYLINE
  5
AA
330
17
100
AcDbEntity
  8
NUMBERS
100
AcDbPolyline
 90
8
 70
0
 10
3.3877194419509955
 20
1.0499999999999998
 10
3.3877194419509955
 20
1.01
 10
3.4127194419509954
 20
1.01
 10
3.4127194419509954
 20
1.04
 10
3.4227194419509956
 20
1.0499999999999998
 10
3.4377194419509953
 20
1.0499999999999998
 10
3.4477194419509956
 20
1.04
 10
3.4477194419509956
 20
1.01
  0
LWPOLYLINE
  5
AB
330
17
100
AcDbEntity
  8
NUMBERS
100
AcDbPolyline
 90
6
 70
0
 10
4.497629321228405
 20
1.5491119490486094
 10
4.437629321228405
 20
1.5491119490486094
 10
4.437629321228405
 20
1.5891119490486094
 10
4.467629321228404
 20
1.5891119490486094
 10
4.467629321228404
 20
1.5491119490486094
 10
4.497629321228405
 20
1.5891119490486094
  0
LWPOLYLINE
  5
AC
330
17
100
AcDbEntity
  8
NUMBERS
100
AcDbPolyline
 90
3
 70
0
 10
4.437629321228405
 20
1.6451119490486095
 10
4.437629321228405
 20
1.6051119490486094
 10
4.497629321228405
 20
1.6051119490486094
  0
LWPOLYLINE
  5
AD
330
17
100
AcDbEntity
  8
NUMBERS
100
AcDbPolyline
 90
2
 70
0
 10
4.467629321228404
 20
1.6051119490486094
 10
4.467629321228404
 20
1.6351119490486095
  0
LWPOLYLINE
  5
AE
330
17
100
AcDbEntity
  8
NUMBERS
100
AcDbPolyline
 90
5
 70
0
 10
4.497629321228405
 20
1.6611119490486095
 10
4.497629321228405
 20
1.7011119490486095
 10
4.437629321228405
 20
1.7011119490486095
 10
4.437629321228405
 20
1.6611119490486095
 10
4.497629321228405
 20
1.6611119490486095
  0
LWPOLYLINE
  5
AF
330
17
100
AcDbEntity
  8
NUMBERS
100
AcDbPolyline
 90
2
 70
0
 10
4.497629321228405
 20
1.6611119490486095
 10
4.437629321228405
 20
1.7011119490486095
  0
LWPOLYLINE
  5
B0
330
17
100
AcDbEntity
  8
NUMBERS
100
AcDbPolyline
 90
5
 70
0
 10
4.497629321228405
 20
1.7171119490486095
 10
4.497629321228405
 20
1.7571119490486096
 10
4.437629321228405
 20
1.7571119490486096
 10
4.437629321228405
 20
1.7171119490486095
 10
4.497629321228405
 20
1.7171119490486095
  0
LWPOLYLINE
  5
B1
330
17
100
AcDbEntity
  8
NUMBERS
100
AcDbPolyline
 90
2
 70
0
 10
4.497629321228405
 20
1.7171119490486095
 10
4.437629321228405
 20
1.7571119490486096
  0
LWPOLYLINE
  5
B2
330
17
100
AcDbEntity
  8
NUMBERS
100
AcDbPolyline
 90
3
 70
0
 10
4.447629321228405
 20
1.7831119490486096
 10
4.437629321228405
 20
1.7931119490486096
 10
4.497629321228405
 20
1.7931119490486096
  0
LWPOLYLINE
  5
B3
330
17
100
AcDbEntity
  8
NUMBERS
100
AcDbPolyline
 90
2
 70
0
 10
4.497629321228405
 20
1.7831119490486096
 10
4.497629321228405
 20
1.8031119490486094
  0
LWPOLYLINE
  5
B4
330
17
100
AcDbEntity
  8
NUMBERS
100
AcDbPolyline
 90
6
 70
0
 10
9.476150916828038
 20
0.7859999999999978
 10
9.416150916828038
 20
0.7859999999999978
 10
9.416150916828038
 20
0.8259999999999987
 10
9.446150916828039
 20
0.8259999999999987
 10
9.446150916828039
 20
0.7859999999999978
 10
9.476150916828038
 20
0.8259999999999987
  0
LWPOLYLINE
  5
B5
330
17
100
AcDbEntity
  8
NUMBERS
100
AcDbPolyline
 90
3
 70
0
 10
9.416150916828038
 20
0.8819999999999979
 10
9.416150916828038
 20
0.8419999999999987
 10
9.476150916828038
 20
0.8419999999999987
  0
LWPOLYLINE
  5
B6
330
17
100
AcDbEntity
  8
NUMBERS
100
AcDbPolyline
 90
2
 70
0
 10
9.446150916828039
 20
0.8419999999999987
 10
9.446150916828039
 20
0.8719999999999981
  0
LWPOLYLINE
  5
B7
330
17
100
AcDbEntity
  8
NUMBERS
100
AcDbPolyline
 90
5
 70
0
 10
9.476150916828038
 20
0.8979999999999997
 10
9.476150916828038
 20
0.9379999999999988
 10
9.416150916828038
 20
0.9379999999999988
 10
9.416150916828038
 20
0.8979999999999997
 10
9.476150916828038
 20
0.8979999999999997
  0
LWPOLYLINE
  5
B8
330
17
100
AcDbEntity
  8
NUMBERS
100
AcDbPolyline
 90
2
 70
0
 10
9.476150916828038
 20
0.8979999999999997
 10
9.416150916828038
 20
0.9379999999999988
  0
LWPOLYLINE
  5
B9
330
17
100
AcDbEntity
  8
NUMBERS
100
AcDbPolyline
 90
5
 70
0
 10
9.476150916828038
 20
0.9539999999999988
 10
9.476150916828038
 20
0.993999999999998
 10
9.416150916828038
 20
0.993999999999998
 10
9.416150916828038
 20
0.9539999999999988
 10
9.476150916828038
 20
0.9539999999999988
  0
LWPOLYLINE
  5
BA
330
17
100
AcDbEntity
  8
NUMBERS
100
AcDbPolyline
 90
2
 70
0
 10
9.476150916828038
 20
0.9539999999999988
 10
9.416150916828038
 20
0.993999999999998
  0
LWPOLYLINE
  5
BB
330
17
100
AcDbEntity
  8
NUMBERS
100
AcDbPolyline
 90
7
 70
0
 10
9.416150916828038
 20
1.049999999999999
 10
9.416150916828038
 20
1.0199999999999996
 10
9.426150916828039
 20
1.009999999999998
 10
9.476150916828038
 20
1.009999999999998
 10
9.476150916828038
 20
1.049999999999999
 10
9.446150916828039
 20
1.049999999999999
 10
9.446150916828039
 20
1.009999999999998
  0
LWPOLYLINE
  5
BC
330
17
100
AcDbEntity
  8
NUMBERS
100
AcDbPolyline
 90
6
 70
0
 10
9.602150916828037
 20
0.75
 10
9.552150916828039
 20
0.75
 10
9.552150916828039
 20
0.7833333333333333
 10
9.577150916828039
 20
0.7833333333333333
 10
9.577150916828039
 20
0.75
 10
9.602150916828037
 20
0.7833333333333333
  0
LWPOLYLINE
  5
BD
330
17
100
AcDbEntity
  8
NUMBERS
100
AcDbPolyline
 90
3
 70
0
 10
9.552150916828039
 20
0.83
 10
9.552150916828039
 20
0.7966666666666666
 10
9.602150916828037
 20
0.7966666666666666
  0
LWPOLYLINE
  5
BE
330
17
100
AcDbEntity
  8
NUMBERS
100
AcDbPolyline
 90
2
 70
0
 10
9.577150916828039
 20
0.7966666666666666
 10
9.577150916828039
 20
0.8216666666666667
  0
LWPOLYLINE
  5
BF
330
17
100
AcDbEntity
  8
NUMBERS
100
AcDbPolyline
 90
5
 70
0
 10
9.602150916828037
 20
0.8433333333333333
 10
9.602150916828037
 20
0.8766666666666667
 10
9.552150916828039
 20
0.8766666666666667
 10
9.552150916828039
 20
0.8433333333333333
 10
9.602150916828037
 20
0.8433333333333333
  0
LWPOLYLINE
  5
C0
330
17
100
AcDbEntity
  8
NUMBERS
100
AcDbPolyline
 90
2
 70
0
 10
9.602150916828037
 20
0.8433333333333333
 10
9.552150916828039
 20
0.8766666666666667
  0
LWPOLYLINE
  5
C1
330
17
100
AcDbEntity
  8
NUMBERS
100
AcDbPolyline
 90
5
 70
0
 10
9.602150916828037
 20
0.89
 10
9.602150916828037
 20
0.9233333333333333
 10
9.552150916828039
 20
0.9233333333333333
 10
9.552150916828039
 20
0.89
 10
9.602150916828037
 20
0.89
  0
LWPOLYLINE
  5
C2
330
17
100
AcDbEntity
  8
NUMBERS
100
AcDbPolyline
 90
2
 70
0
 10
9.602150916828037
 20
0.89
 10
9.552150916828039
 20
0.9233333333333333
  0
LWPOLYLINE
  5
C3
330
17
100
AcDbEntity
  8
NUMBERS
100
AcDbPolyline
 90
7
 70
0
 10
9.552150916828039
 20
0.97
 10
9.552150916828039
 20
0.945
 10
9.560484250161371
 20
0.9366666666666666
 10
9.602150916828037
 20
0.9366666666666666
 10
9.602150916828037
 20
0.97
 10
9.577150916828039
 20
0.97
 10
9.577150916828039
 20
0.9366666666666666
  0
LWPOLYLINE
  5
C4
330
17
100
AcDbEntity
  8
NUMBERS
100
AcDbPolyline
 90
3
 70
0
 10
9.560484250161371
 20
1.0383333333333333
 10
9.552150916828039
 20
1.0466666666666666
 10
9.602150916828037
 20
1.0466666666666666
  0
LWPOLYLINE
  5
C5
330
17
100
AcDbEntity
  8
NUMBERS
100
AcDbPolyline
 90
2
 70
0
 10
9.602150916828037
 20
1.0383333333333333
 10
9.602150916828037
 20
1.055
  0
LWPOLYLINE
  5
C6
330
17
100
AcDbEntity
  8
NUMBERS
100
AcDbPolyline
 90
2
 70
0
 10
9.602150916828037
 20
1.0766666666666667
 10
9.552150916828039
 20
1.1099999999999999
  0
LWPOLYLINE
  5
C7
330
17
100
AcDbEntity
  8
NUMBERS
100
AcDbPolyline
 90
7
 70
0
 10
9.560484250161371
 20
1.1233333333333333
 10
9.552150916828039
 20
1.1316666666666666
 10
9.552150916828039
 20
1.1483333333333334
 10
9.560484250161371
 20
1.1566666666666667
 10
9.568817583494706
 20
1.1566666666666667
 10
9.602150916828037
 20
1.1233333333333333
 10
9.602150916828037
 20
1.1566666666666667
  0
LWPOLYLINE
  5
C8
330
17
100
AcDbEntity
  8
NUMBERS
100
AcDbPolyline
 90
6
 70
0
 10
14.349153995545285
 20
0.7859999999999978
 10
14.289153995545284
 20
0.7859999999999978
 10
14.289153995545284
 20
0.8259999999999987
 10
14.319153995545285
 20
0.8259999999999987
 10
14.319153995545285
 20
0.7859999999999978
 10
14.349153995545285
 20
0.8259999999999987
  0
LWPOLYLINE
  5
C9
330
17
100
AcDbEntity
  8
NUMBERS
100
AcDbPolyline
 90
3
 70
0
 10
14.289153995545284
 20
0.8819999999999979
 10
14.289153995545284
 20
0.8419999999999987
 10
14.349153995545285
 20
0.8419999999999987
  0
LWPOLYLINE
  5
CA
330
17
100
AcDbEntity
  8
NUMBERS
100
AcDbPolyline
 90
2
 70
0
 10
14.319153995545285
 20
0.8419999999999987
 10
14.319153995545285
 20
0.8719999999999981
  0
LWPOLYLINE
  5
CB
330
17
100
AcDbEntity
  8
NUMBERS
100
AcDbPolyline
 90
5
 70
0
 10
14.349153995545285
 20
0.8979999999999997
 10
14.349153995545285
 20
0.9379999999999988
 10
14.289153995545284
 20
0.9379999999999988
 10
14.289153995545284
 20
0.8979999999999997
 10
14.349153995545285
 20
0.8979999999999997
  0
LWPOLYLINE
  5
CC
330
17
100
AcDbEntity
  8
NUMBERS
100
AcDbPolyline
 90
2
 70
0
 10
14.349153995545285
 20
0.8979999999999997
 10
14.289153995545284
 20
0.9379999999999988
  0
LWPOLYLINE
  5
CD
330
17
100
AcDbEntity
  8
NUMBERS
100
AcDbPolyline
 90
5
 70
0
 10
14.349153995545285
 20
0.9539999999999988
 10
14.349153995545285
 20
0.993999999999998
 10
14.289153995545284
 20
0.993999999999998
 10
14.289153995545284
 20
0.9539999999999988
 10
14.349153995545285
 20
0.9539999999999988
  0
LWPOLYLINE
  5
CE
330
17
100
AcDbEntity
  8
NUMBERS
100
AcDbPolyline
 90
2
 70
0
 10
14.349153995545285
 20
0.9539999999999988
 10
14.289153995545284
 20
0.993999999999998
  0
LWPOLYLINE
  5
CF
330
17
100
AcDbEntity
  8
NUMBERS
100
AcDbPolyline
 90
7
 70
0
 10
14.289153995545284
 20
1.049999999999999
 10
14.289153995545284
 20
1.0199999999999996
 10
14.299153995545286
 20
1.009999999999998
 10
14.349153995545285
 20
1.009999999999998
 10
14.349153995545285
 20
1.049999999999999
 10
14.319153995545285
 20
1.049999999999999
 10
14.319153995545285
 20
1.009999999999998
  0
LWPOLYLINE
  5
D0
330
17
100
AcDbEntity
  8
NUMBERS
100
AcDbPolyline
 90
6
 70
0
 10
14.475153995545284
 20
0.75
 10
14.425153995545285
 20
0.75
 10
14.425153995545285
 20
0.7833333333333333
 10
14.450153995545286
 20
0.7833333333333333
 10
14.450153995545286
 20
0.75
 10
14.475153995545284
 20
0.7833333333333333
  0
LWPOLYLINE
  5
D1
330
17
100
AcDbEntity
  8
NUMBERS
100
AcDbPolyline
 90
3
 70
0
 10
14.425153995545285
 20
0.83
 10
14.425153995545285
 20
0.7966666666666666
 10
14.475153995545284
 20
0.7966666666666666
  0
LWPOLYLINE
  5
D2
330
17
100
AcDbEntity
  8
NUMBERS
100
AcDbPolyline
 90
2
 70
0
 10
14.450153995545286
 20
0.7966666666666666
 10
14.450153995545286
 20
0.8216666666666667
  0
LWPOLYLINE
  5
D3
330
17
100
AcDbEntity
  8
NUMBERS
100
AcDbPolyline
 90
5
 70
0
 10
14.475153995545284
 20
0.8433333333333333
 10
14.475153995545284
 20
0.8766666666666667
 10
14.425153995545285
 20
0.8766666666666667
 10
14.425153995545285
 20
0.8433333333333333
 10
14.475153995545284
 20
0.8433333333333333
  0
LWPOLYLINE
  5
D4
330
17
100
AcDbEntity
  8
NUMBERS
100
AcDbPolyline
 90
2
 70
0
 10
14.475153995545284
 20
0.8433333333333333
 10
14.425153995545285
 20
0.8766666666666667
  0
LWPOLYLINE
  5
D5
330
17
100
AcDbEntity
  8
NUMBERS
100
AcDbPolyline
 90
5
 70
0
 10
14.475153995545284
 20
0.89
 10
14.475153995545284
 20
0.9233333333333333
 10
14.425153995545285
 20
0.9233333333333333
 10
14.425153995545285
 20
0.89
 10
14.475153995545284
 20
0.89
  0
LWPOLYLINE
  5
D6
330
17
100
AcDbEntity
  8
NUMBERS
100
AcDbPolyline
 90
2
 70
0
 10
14.475153995545284
 20
0.89
 10
14.425153995545285
 20
0.9233333333333333
  0
LWPOLYLINE
  5
D7
330
17
100
AcDbEntity
  8
NUMBERS
100
AcDbPolyline
 90
7
 70
0
 10
14.425153995545285
 20
0.97
 10
14.425153995545285
 20
0.945
 10
14.433487328878618
 20
0.9366666666666666
 10
14.475153995545284
 20
0.9366666666666666
 10
14.475153995545284
 20
0.97
 10
14.450153995545286
 20
0.97
 10
14.450153995545286
 20
0.9366666666666666
  0
LWPOLYLINE
  5
D8
330
17
100
AcDbEntity
  8
NUMBERS
100
AcDbPolyline
 90
7
 70
0
 10
14.433487328878618
 20
1.03
 10
14.425153995545285
 20
1.0383333333333333
 10
14.425153995545285
 20
1.055
 10
14.433487328878618
 20
1.0633333333333332
 10
14.441820662211953
 20
1.0633333333333332
 10
14.475153995545284
 20
1.03
 10
14.475153995545284
 20
1.0633333333333332
  0
LWPOLYLINE
  5
D9
330
17
100
AcDbEntity
  8
NUMBERS
100
AcDbPolyline
 90
2
 70
0
 10
14.475153995545284
 20
1.0766666666666667
 10
14.425153995545285
 20
1.1099999999999999
  0
LWPOLYLINE
  5
DA
330
17
100
AcDbEntity
  8
NUMBERS
100
AcDbPolyline
 90
7
 70
0
 10
14.433487328878618
 20
1.1233333333333333
 10
14.425153995545285
 20
1.1316666666666666
 10
14.425153995545285
 20
1.1483333333333334
 10
14.433487328878618
 20
1.1566666666666667
 10
14.441820662211953
 20
1.1566666666666667
 10
14.475153995545284
 20
1.1233333333333333
 10
14.475153995545284
 20
1.1566666666666667
  0
LWPOLYLINE
  5
DB
330
17
100
AcDbEntity
  8
NUMBERS
100
AcDbPolyline
 90
6
 70
0
 10
14.661153995545286
 20
0.876
 10
14.661153995545286
 20
0.9359999999999996
 10
14.701153995545287
 20
0.9359999999999996
 10
14.701153995545287
 20
0.9059999999999998
 10
14.661153995545286
 20
0.9059999999999998
 10
14.701153995545287
 20
0.876
  0
LWPOLYLINE
  5
DC
330
17
100
AcDbEntity
  8
NUMBERS
100
AcDbPolyline
 90
3
 70
0
 10
14.757153995545286
 20
0.9359999999999996
 10
14.717153995545287
 20
0.9359999999999996
 10
14.717153995545287
 20
0.876
  0
LWPOLYLINE
  5
DD
330
17
100
AcDbEntity
  8
NUMBERS
100
AcDbPolyline
 90
2
 70
0
 10
14.717153995545287
 20
0.9059999999999998
 10
14.747153995545286
 20
0.9059999999999998
  0
LWPOLYLINE
  5
DE
330
17
100
AcDbEntity
  8
NUMBERS
100
AcDbPolyline
 90
5
 70
0
 10
14.773153995545286
 20
0.876
 10
14.813153995545287
 20
0.876
 10
14.813153995545287
 20
0.9359999999999996
 10
14.773153995545286
 20
0.9359999999999996
 10
14.773153995545286
 20
0.876
  0
LWPOLYLINE
  5
DF
330
17
100
AcDbEntity
  8
NUMBERS
100
AcDbPolyline
 90
2
 70
0
 10
14.773153995545286
 20
0.876
 10
14.813153995545287
 20
0.9359999999999996
  0
LWPOLYLINE
  5
E0
330
17
100
AcDbEntity
  8
NUMBERS
100
AcDbPolyline
 90
5
 70
0
 10
14.829153995545287
 20
0.876
 10
14.869153995545286
 20
0.876
 10
14.869153995545286
 20
0.9359999999999996
 10
14.829153995545287
 20
0.9359999999999996
 10
14.829153995545287
 20
0.876
  0
LWPOLYLINE
  5
E1
330
17
100
AcDbEntity
  8
NUMBERS
100
AcDbPolyline
 90
2
 70
0
 10
14.829153995545287
 20
0.876
 10
14.869153995545286
 20
0.9359999999999996
  0
LWPOLYLINE
  5
E2
330
17
100
AcDbEntity
  8
NUMBERS
100
AcDbPolyline
 90
3
 70
0
 10
14.885153995545286
 20
0.9359999999999996
 10
14.925153995545287
 20
0.9359999999999996
 10
14.895153995545286
 20
0.876
  0
LWPOLYLINE
  5
E3
330
17
100
AcDbEntity
  8
NUMBERS
100
AcDbPolyline
 90
4
 70
0
 10
27.865828730745186
 20
0.826
 10
27.865828730745186
 20
0.786
 10
27.925828730745184
 20
0.786
 10
27.925828730745184
 20
0.826
  0
LWPOLYLINE
  5
E4
330
17
100
AcDbEntity
  8
NUMBERS
100
AcDbPolyline
 90
2
 70
0
 10
27.895828730745183
 20
0.786
 10
27.895828730745183
 20
0.816
  0
LWPOLYLINE
  5
E5
330
17
100
AcDbEntity
  8
NUMBERS
100
AcDbPolyline
 90
4
 70
0
 10
27.925828730745184
 20
0.842
 10
27.865828730745186
 20
0.842
 10
27.925828730745184
 20
0.882
 10
27.865828730745186
 20
0.882
  0
LWPOLYLINE
  5
E6
330
17
100
AcDbEntity
  8
NUMBERS
100
AcDbPolyline
 90
5
 70
0
 10
27.925828730745184
 20
0.8979999999999999
 10
27.925828730745184
 20
0.938
 10
27.865828730745186
 20
0.938
 10
27.865828730745186
 20
0.8979999999999999
 10
27.925828730745184
 20
0.8979999999999999
  0
LWPOLYLINE
  5
E7
330
17
100
AcDbEntity
  8
NUMBERS
100
AcDbPolyline
 90
2
 70
0
 10
27.925828730745184
 20
0.8979999999999999
 10
27.865828730745186
 20
0.938
  0
LWPOLYLINE
  5
E8
330
17
100
AcDbEntity
  8
NUMBERS
100
AcDbPolyline
 90
5
 70
0
 10
27.925828730745184
 20
0.954
 10
27.925828730745184
 20
0.994
 10
27.865828730745186
 20
0.994
 10
27.865828730745186
 20
0.954
 10
27.925828730745184
 20
0.954
  0
LWPOLYLINE
  5
E9
330
17
100
AcDbEntity
  8
NUMBERS
100
AcDbPolyline
 90
2
 70
0
 10
27.925828730745184
 20
0.954
 10
27.865828730745186
 20
0.994
  0
LWPOLYLINE
  5
EA
330
17
100
AcDbEntity
  8
NUMBERS
100
AcDbPolyline
 90
7
 70
0
 10
27.865828730745186
 20
1.05
 10
27.865828730745186
 20
1.02
 10
27.875828730745184
 20
1.01
 10
27.925828730745184
 20
1.01
 10
27.925828730745184
 20
1.05
 10
27.895828730745183
 20
1.05
 10
27.895828730745183
 20
1.01
  0
LWPOLYLINE
  5
EB
330
17
100
AcDbEntity
  8
NUMBERS
100
AcDbPolyline
 90
4
 70
0
 10
14.701153995545287
 20
1.3113346456692911
 10
14.661153995545286
 20
1.3113346456692911
 10
14.661153995545286
 20
1.2513346456692913
 10
14.701153995545287
 20
1.2513346456692913
  0
LWPOLYLINE
  5
EC
330
17
100
AcDbEntity
  8
NUMBERS
100
AcDbPolyline
 90
2
 70
0
 10
14.661153995545286
 20
1.2813346456692911
 10
14.691153995545287
 20
1.2813346456692911
  0
LWPOLYLINE
  5
ED
330
17
100
AcDbEntity
  8
NUMBERS
100
AcDbPolyline
 90
4
 70
0
 10
14.717153995545287
 20
1.2513346456692913
 10
14.717153995545287
 20
1.3113346456692911
 10
14.757153995545286
 20
1.2513346456692913
 10
14.757153995545286
 20
1.3113346456692911
  0
LWPOLYLINE
  5
EE
330
17
100
AcDbEntity
  8
NUMBERS
100
AcDbPolyline
 90
5
 70
0
 10
14.773153995545286
 20
1.2513346456692913
 10
14.813153995545287
 20
1.2513346456692913
 10
14.813153995545287
 20
1.3113346456692911
 10
14.773153995545286
 20
1.3113346456692911
 10
14.773153995545286
 20
1.2513346456692913
  0
LWPOLYLINE
  5
EF
330
17
100
AcDbEntity
  8
NUMBERS
100
AcDbPolyline
 90
2
 70
0
 10
14.773153995545286
 20
1.2513346456692913
 10
14.813153995545287
 20
1.3113346456692911
  0
LWPOLYLINE
  5
F0
330
17
100
AcDbEntity
  8
NUMBERS
100
AcDbPolyline
 90
3
 70
0
 10
14.839153995545287
 20
1.3013346456692911
 10
14.849153995545286
 20
1.3113346456692911
 10
14.849153995545286
 20
1.2513346456692913
  0
LWPOLYLINE
  5
F1
330
17
100
AcDbEntity
  8
NUMBERS
100
AcDbPolyline
 90
2
 70
0
 10
14.839153995545287
 20
1.2513346456692913
 10
14.859153995545286
 20
1.2513346456692913
  0
LWPOLYLINE
  5
F2
330
17
100
AcDbEntity
  8
NUMBERS
100
AcDbPolyline
 90
3
 70
0
 10
14.885153995545286
 20
1.3113346456692911
 10
14.925153995545287
 20
1.3113346456692911
 10
14.895153995545286
 20
1.2513346456692913
  0
LWPOLYLINE
  5
F3
330
17
100
AcDbEntity
  8
NUMBERS
100
AcDbPolyline
 90
4
 70
0
 10
14.65848732887862
 20
1.1753346456692912
 10
14.625153995545286
 20
1.1753346456692912
 10
14.625153995545286
 20
1.1253346456692912
 10
14.65848732887862
 20
1.1253346456692912
  0
LWPOLYLINE
  5
F4
330
17
100
AcDbEntity
  8
NUMBERS
100
AcDbPolyline
 90
2
 70
0
 10
14.625153995545286
 20
1.1503346456692911
 10
14.650153995545287
 20
1.1503346456692911
  0
LWPOLYLINE
  5
F5
330
17
100
AcDbEntity
  8
NUMBERS
100
AcDbPolyline
 90
4
 70
0
 10
14.671820662211953
 20
1.1253346456692912
 10
14.671820662211953
 20
1.1753346456692912
 10
14.705153995545286
 20
1.1253346456692912
 10
14.705153995545286
 20
1.1753346456692912
  0
LWPOLYLINE
  5
F6
330
17
100
AcDbEntity
  8
NUMBERS
100
AcDbPolyline
 90
5
 70
0
 10
14.71848732887862
 20
1.1253346456692912
 10
14.751820662211953
 20
1.1253346456692912
 10
14.751820662211953
 20
1.1753346456692912
 10
14.71848732887862
 20
1.1753346456692912
 10
14.71848732887862
 20
1.1253346456692912
  0
LWPOLYLINE
  5
F7
330
17
100
AcDbEntity
  8
NUMBERS
100
AcDbPolyline
 90
2
 70
0
 10
14.71848732887862
 20
1.1253346456692912
 10
14.751820662211953
 20
1.1753346456692912
  0
LWPOLYLINE
  5
F8
330
17
100
AcDbEntity
  8
NUMBERS
100
AcDbPolyline
 90
3
 70
0
 10
14.77348732887862
 20
1.167001312335958
 10
14.781820662211953
 20
1.1753346456692912
 10
14.781820662211953
 20
1.1253346456692912
  0
LWPOLYLINE
  5
F9
330
17
100
AcDbEntity
  8
NUMBERS
100
AcDbPolyline
 90
2
 70
0
 10
14.77348732887862
 20
1.1253346456692912
 10
14.790153995545285
 20
1.1253346456692912
  0
LWPOLYLINE
  5
FA
330
17
100
AcDbEntity
  8
NUMBERS
100
AcDbPolyline
 90
3
 70
0
 10
14.811820662211954
 20
1.1753346456692912
 10
14.845153995545287
 20
1.1753346456692912
 10
14.820153995545287
 20
1.1253346456692912
  0
LWPOLYLINE
  5
FB
330
17
100
AcDbEntity
  8
NUMBERS
100
AcDbPolyline
 90
3
 70
0
 10
14.91348732887862
 20
1.167001312335958
 10
14.921820662211953
 20
1.1753346456692912
 10
14.921820662211953
 20
1.1253346456692912
  0
LWPOLYLINE
  5
FC
330
17
100
AcDbEntity
  8
NUMBERS
100
AcDbPolyline
 90
2
 70
0
 10
14.91348732887862
 20
1.1253346456692912
 10
14.930153995545286
 20
1.1253346456692912
  0
LWPOLYLINE
  5
FD
330
17
100
AcDbEntity
  8
NUMBERS
100
AcDbPolyline
 90
2
 70
0
 10
14.951820662211952
 20
1.1253346456692912
 10
14.985153995545286
 20
1.1753346456692912
  0
LWPOLYLINE
  5
FE
330
17
100
AcDbEntity
  8
NUMBERS
100
AcDbPolyline
 90
7
 70
0
 10
14.99848732887862
 20
1.167001312335958
 10
15.006820662211952
 20
1.1753346456692912
 10
15.02348732887862
 20
1.1753346456692912
 10
15.031820662211953
 20
1.167001312335958
 10
15.031820662211953
 20
1.1586679790026246
 10
14.99848732887862
 20
1.1253346456692912
 10
15.031820662211953
 20
1.1253346456692912
  0
LWPOLYLINE
  5
FF
330
17
100
AcDbEntity
  8
NUMBERS
100
AcDbPolyline
 90
4
 70
0
 10
22.50146234420416
 20
1.2013346456692913
 10
22.50146234420416
 20
1.1613346456692912
 10
22.56146234420416
 20
1.1613346456692912
 10
22.56146234420416
 20
1.2013346456692913
  0
LWPOLYLINE
  5
100
330
17
100
AcDbEntity
  8
NUMBERS
100
AcDbPolyline
 90
2
 70
0
 10
22.531462344204158
 20
1.1613346456692912
 10
22.531462344204158
 20
1.1913346456692913
  0
LWPOLYLINE
  5
101
330
17
100
AcDbEntity
  8
NUMBERS
100
AcDbPolyline
 90
4
 70
0
 10
22.56146234420416
 20
1.2173346456692913
 10
22.50146234420416
 20
1.2173346456692913
 10
22.56146234420416
 20
1.257334645669291
 10
22.50146234420416
 20
1.257334645669291
  0
LWPOLYLINE
  5
102
330
17
100
AcDbEntity
  8
NUMBERS
100
AcDbPolyline
 90
5
 70
0
 10
22.56146234420416
 20
1.273334645669291
 10
22.56146234420416
 20
1.3133346456692911
 10
22.50146234420416
 20
1.3133346456692911
 10
22.50146234420416
 20
1.273334645669291
 10
22.56146234420416
 20
1.273334645669291
  0
LWPOLYLINE
  5
103
330
17
100
AcDbEntity
  8
NUMBERS
100
AcDbPolyline
 90
2
 70
0
 10
22.56146234420416
 20
1.273334645669291
 10
22.50146234420416
 20
1.3133346456692911
  0
LWPOLYLINE
  5
104
330
17
100
AcDbEntity
  8
NUMBERS
100
AcDbPolyline
 90
3
 70
0
 10
22.51146234420416
 20
1.3393346456692912
 10
22.50146234420416
 20
1.3493346456692912
 10
22.56146234420416
 20
1.3493346456692912
  0
LWPOLYLINE
  5
105
330
17
100
AcDbEntity
  8
NUMBERS
100
AcDbPolyline
 90
2
 70
0
 10
22.56146234420416
 20
1.3393346456692912
 10
22.56146234420416
 20
1.3593346456692912
  0
LWPOLYLINE
  5
106
330
17
100
AcDbEntity
  8
NUMBERS
100
AcDbPolyline
 90
3
 70
0
 10
22.50146234420416
 20
1.3853346456692912
 10
22.50146234420416
 20
1.4253346456692912
 10
22.56146234420416
 20
1.3953346456692912
  0
LWPOLYLINE
  5
107
330
17
100
AcDbEntity
  8
NUMBERS
100
AcDbPolyline
 90
4
 70
0
 10
22.63746234420416
 20
1.1586679790026246
 10
22.63746234420416
 20
1.1253346456692912
 10
22.68746234420416
 20
1.1253346456692912
 10
22.68746234420416
 20
1.1586679790026246
  0
LWPOLYLINE
  5
108
330
17
100
AcDbEntity
  8
NUMBERS
100
AcDbPolyline
 90
2
 70
0
 10
22.662462344204158
 20
1.1253346456692912
 10
22.662462344204158
 20
1.1503346456692911
  0
LWPOLYLINE
  5
109
330
17
100
AcDbEntity
  8
NUMBERS
100
AcDbPolyline
 90
4
 70
0
 10
22.68746234420416
 20
1.1720013123359578
 10
22.63746234420416
 20
1.1720013123359578
 10
22.68746234420416
 20
1.2053346456692913
 10
22.63746234420416
 20
1.2053346456692913
  0
LWPOLYLINE
  5
10A
330
17
100
AcDbEntity
  8
NUMBERS
100
AcDbPolyline
 90
5
 70
0
 10
22.68746234420416
 20
1.2186679790026245
 10
22.68746234420416
 20
1.252001312335958
 10
22.63746234420416
 20
1.252001312335958
 10
22.63746234420416
 20
1.2186679790026245
 10
22.68746234420416
 20
1.2186679790026245
  0
LWPOLYLINE
  5
10B
330
17
100
AcDbEntity
  8
NUMBERS
100
AcDbPolyline
 90
2
 70
0
 10
22.68746234420416
 20
1.2186679790026245
 10
22.63746234420416
 20
1.252001312335958
  0
LWPOLYLINE
  5
10C
330
17
100
AcDbEntity
  8
NUMBERS
100
AcDbPolyline
 90
3
 70
0
 10
22.645795677537492
 20
1.2736679790026244
 10
22.63746234420416
 20
1.282001312335958
 10
22.68746234420416
 20
1.282001312335958
  0
LWPOLYLINE
  5
10D
330
17
100
AcDbEntity
  8
NUMBERS
100
AcDbPolyline
 90
2
 70
0
 10
22.68746234420416
 20
1.2736679790026244
 10
22.68746234420416
 20
1.2903346456692912
  0
LWPOLYLINE
  5
10E
330
17
100
AcDbEntity
  8
NUMBERS
100
AcDbPolyline
 90
3
 70
0
 10
22.63746234420416
 20
1.312001312335958
 10
22.63746234420416
 20
1.3453346456692912
 10
22.68746234420416
 20
1.3203346456692913
  0
LWPOLYLINE
  5
10F
330
17
100
AcDbEntity
  8
NUMBERS
100
AcDbPolyline
 90
7
 70
0
 10
22.645795677537492
 20
1.4053346456692912
 10
22.63746234420416
 20
1.4136679790026245
 10
22.63746234420416
 20
1.4303346456692911
 10
22.645795677537492
 20
1.4386679790026244
 10
22.654129010870825
 20
1.4386679790026244
 10
22.68746234420416
 20
1.4053346456692912
 10
22.68746234420416
 20
1.4386679790026244
  0
LWPOLYLINE
  5
110
330
17
100
AcDbEntity
  8
NUMBERS
100
AcDbPolyline
 90
2
 70
0
 10
22.68746234420416
 20
1.4520013123359579
 10
22.63746234420416
 20
1.485334645669291
  0
LWPOLYLINE
  5
111
330
17
100
AcDbEntity
  8
NUMBERS
100
AcDbPolyline
 90
7
 70
0
 10
22.645795677537492
 20
1.4986679790026245
 10
22.63746234420416
 20
1.5070013123359578
 10
22.63746234420416
 20
1.5236679790026244
 10
22.645795677537492
 20
1.5320013123359577
 10
22.654129010870825
 20
1.5320013123359577
 10
22.68746234420416
 20
1.4986679790026245
 10
22.68746234420416
 20
1.5320013123359577
  0
LWPOLYLINE
  5
112
330
17
100
AcDbEntity
  8
NUMBERS
100
AcDbPolyline
 90
4
 70
0
 10
24.124582422944318
 20
1.2013346456692913
 10
24.124582422944318
 20
1.1613346456692912
 10
24.184582422944317
 20
1.1613346456692912
 10
24.184582422944317
 20
1.2013346456692913
  0
LWPOLYLINE
  5
113
330
17
100
AcDbEntity
  8
NUMBERS
100
AcDbPolyline
 90
2
 70
0
 10
24.154582422944316
 20
1.1613346456692912
 10
24.154582422944316
 20
1.1913346456692913
  0
LWPOLYLINE
  5
114
330
17
100
AcDbEntity
  8
NUMBERS
100
AcDbPolyline
 90
4
 70
0
 10
24.184582422944317
 20
1.2173346456692913
 10
24.124582422944318
 20
1.2173346456692913
 10
24.184582422944317
 20
1.257334645669291
 10
24.124582422944318
 20
1.257334645669291
  0
LWPOLYLINE
  5
115
330
17
100
AcDbEntity
  8
NUMBERS
100
AcDbPolyline
 90
5
 70
0
 10
24.184582422944317
 20
1.273334645669291
 10
24.184582422944317
 20
1.3133346456692911
 10
24.124582422944318
 20
1.3133346456692911
 10
24.124582422944318
 20
1.273334645669291
 10
24.184582422944317
 20
1.273334645669291
  0
LWPOLYLINE
  5
116
330
17
100
AcDbEntity
  8
NUMBERS
100
AcDbPolyline
 90
2
 70
0
 10
24.184582422944317
 20
1.273334645669291
 10
24.124582422944318
 20
1.3133346456692911
  0
LWPOLYLINE
  5
117
330
17
100
AcDbEntity
  8
NUMBERS
100
AcDbPolyline
 90
3
 70
0
 10
24.134582422944316
 20
1.3393346456692912
 10
24.124582422944318
 20
1.3493346456692912
 10
24.184582422944317
 20
1.3493346456692912
  0
LWPOLYLINE
  5
118
330
17
100
AcDbEntity
  8
NUMBERS
100
AcDbPolyline
 90
2
 70
0
 10
24.184582422944317
 20
1.3393346456692912
 10
24.184582422944317
 20
1.3593346456692912
  0
LWPOLYLINE
  5
119
330
17
100
AcDbEntity
  8
NUMBERS
100
AcDbPolyline
 90
3
 70
0
 10
24.134582422944316
 20
1.3953346456692912
 10
24.124582422944318
 20
1.4053346456692912
 10
24.184582422944317
 20
1.4053346456692912
  0
LWPOLYLINE
  5
11A
330
17
100
AcDbEntity
  8
NUMBERS
100
AcDbPolyline
 90
2
 70
0
 10
24.184582422944317
 20
1.3953346456692912
 10
24.184582422944317
 20
1.4153346456692912
  0
LWPOLYLINE
  5
11B
330
17
100
AcDbEntity
  8
NUMBERS
100
AcDbPolyline
 90
6
 70
0
 10
20.296583103457273
 20
4.520315445138072
 10
20.300697335066694
 20
4.4604566688536895
 10
20.26079148421044
 20
4.45771384778074
 10
20.258734368405726
 20
4.487643235922931
 10
20.298640219261983
 20
4.490386056995881
 10
20.256677252601015
 20
4.517572624065123
  0
LWPOLYLINE
  5
11C
330
17
100
AcDbEntity
  8
NUMBERS
100
AcDbPolyline
 90
3
 70
0
 10
20.20492329301168
 20
4.45387389827861
 10
20.24482914386794
 20
4.45661671935156
 10
20.24071491225851
 20
4.516475495635943
  0
LWPOLYLINE
  5
11D
330
17
100
AcDbEntity
  8
NUMBERS
100
AcDbPolyline
 90
2
 70
0
 10
20.242772028063225
 20
4.486546107493751
 10
20.212842639921032
 20
4.484488991689039
  0
LWPOLYLINE
  5
11E
330
17
100
AcDbEntity
  8
NUMBERS
100
AcDbPolyline
 90
5
 70
0
 10
20.184846721059756
 20
4.512635546133813
 10
20.1449408702035
 20
4.509892725060865
 10
20.14905510181292
 20
4.450033948776483
 10
20.188960952669177
 20
4.4527767698494305
 10
20.184846721059756
 20
4.512635546133813
  0
LWPOLYLINE
  5
11F
330
17
100
AcDbEntity
  8
NUMBERS
100
AcDbPolyline
 90
2
 70
0
 10
20.184846721059756
 20
4.512635546133813
 10
20.14905510181292
 20
4.450033948776483
  0
LWPOLYLINE
  5
120
330
17
100
AcDbEntity
  8
NUMBERS
100
AcDbPolyline
 90
5
 70
0
 10
20.128978529860994
 20
4.5087955966316855
 10
20.089072679004737
 20
4.506052775558736
 10
20.09318691061416
 20
4.446193999274353
 10
20.13309276147042
 20
4.448936820347303
 10
20.128978529860994
 20
4.5087955966316855
  0
LWPOLYLINE
  5
121
330
17
100
AcDbEntity
  8
NUMBERS
100
AcDbPolyline
 90
2
 70
0
 10
20.128978529860994
 20
4.5087955966316855
 10
20.09318691061416
 20
4.446193999274353
  0
LWPOLYLINE
  5
122
330
17
100
AcDbEntity
  8
NUMBERS
100
AcDbPolyline
 90
7
 70
0
 10
20.07653886500342
 20
4.455073333559238
 10
20.067248107557596
 20
4.444411165576936
 10
20.047295182129467
 20
4.443039755040463
 10
20.036633014147167
 20
4.45233051248629
 10
20.035947308878928
 20
4.462306975200352
 10
20.073110338662236
 20
4.504955647129556
 10
20.03320448780598
 20
4.502212826056608
  0
LWPOLYLINE
  5
123
330
17
100
AcDbEntity
  8
NUMBERS
100
AcDbPolyline
 90
4
 70
0
 10
29.141502022456066
 20
1.2357849969212351
 10
29.141502022456066
 20
1.195784996921235
 10
29.201502022456065
 20
1.195784996921235
 10
29.201502022456065
 20
1.2357849969212351
  0
LWPOLYLINE
  5
124
330
17
100
AcDbEntity
  8
NUMBERS
100
AcDbPolyline
 90
2
 70
0
 10
29.171502022456064
 20
1.195784996921235
 10
29.171502022456064
 20
1.2257849969212349
  0
LWPOLYLINE
  5
125
330
17
100
AcDbEntity
  8
NUMBERS
100
AcDbPolyline
 90
4
 70
0
 10
29.201502022456065
 20
1.2517849969212351
 10
29.141502022456066
 20
1.2517849969212351
 10
29.201502022456065
 20
1.2917849969212352
 10
29.141502022456066
 20
1.2917849969212352
  0
LWPOLYLINE
  5
126
330
17
100
AcDbEntity
  8
NUMBERS
100
AcDbPolyline
 90
5
 70
0
 10
29.201502022456065
 20
1.3077849969212352
 10
29.201502022456065
 20
1.347784996921235
 10
29.141502022456066
 20
1.347784996921235
 10
29.141502022456066
 20
1.3077849969212352
 10
29.201502022456065
 20
1.3077849969212352
  0
LWPOLYLINE
  5
127
330
17
100
AcDbEntity
  8
NUMBERS
100
AcDbPolyline
 90
2
 70
0
 10
29.201502022456065
 20
1.3077849969212352
 10
29.141502022456066
 20
1.347784996921235
  0
LWPOLYLINE
  5
128
330
17
100
AcDbEntity
  8
NUMBERS
100
AcDbPolyline
 90
3
 70
0
 10
29.151502022456064
 20
1.373784996921235
 10
29.141502022456066
 20
1.383784996921235
 10
29.201502022456065
 20
1.383784996921235
  0
LWPOLYLINE
  5
129
330
17
100
AcDbEntity
  8
NUMBERS
100
AcDbPolyline
 90
2
 70
0
 10
29.201502022456065
 20
1.373784996921235
 10
29.201502022456065
 20
1.393784996921235
  0
LWPOLYLINE
  5
12A
330
17
100
AcDbEntity
  8
NUMBERS
100
AcDbPolyline
 90
8
 70
0
 10
29.141502022456066
 20
1.4597849969212349
 10
29.141502022456066
 20
1.4197849969212348
 10
29.166502022456065
 20
1.4197849969212348
 10
29.166502022456065
 20
1.449784996921235
 10
29.176502022456066
 20
1.4597849969212349
 10
29.191502022456067
 20
1.4597849969212349
 10
29.201502022456065
 20
1.449784996921235
 10
29.201502022456065
 20
1.4197849969212348
  0
LWPOLYLINE
  5
12B
330
17
100
AcDbEntity
  8
NUMBERS
100
AcDbPolyline
 90
6
 70
0
 10
24.543945842789974
 20
6.000241518529664
 10
24.603945842789976
 20
6.000241518529663
 10
24.603945842789972
 20
5.960241518529663
 10
24.573945842789975
 20
5.960241518529663
 10
24.573945842789975
 20
6.000241518529664
 10
24.543945842789974
 20
5.9602415185296636
  0
LWPOLYLINE
  5
12C
330
17
100
AcDbEntity
  8
NUMBERS
100
AcDbPolyline
 90
3
 70
0
 10
24.603945842789972
 20
5.9042415185296635
 10
24.603945842789972
 20
5.9442415185296635
 10
24.543945842789974
 20
5.944241518529664
  0
LWPOLYLINE
  5
12D
330
17
100
AcDbEntity
  8
NUMBERS
100
AcDbPolyline
 90
2
 70
0
 10
24.573945842789975
 20
5.944241518529663
 10
24.573945842789975
 20
5.914241518529663
  0
LWPOLYLINE
  5
12E
330
17
100
AcDbEntity
  8
NUMBERS
100
AcDbPolyline
 90
5
 70
0
 10
24.543945842789974
 20
5.8882415185296635
 10
24.543945842789974
 20
5.848241518529663
 10
24.603945842789972
 20
5.8482415185296635
 10
24.603945842789972
 20
5.888241518529663
 10
24.543945842789974
 20
5.8882415185296635
  0
LWPOLYLINE
  5
12F
330
17
100
AcDbEntity
  8
NUMBERS
100
AcDbPolyline
 90
2
 70
0
 10
24.543945842789974
 20
5.8882415185296635
 10
24.603945842789972
 20
5.8482415185296635
  0
LWPOLYLINE
  5
130
330
17
100
AcDbEntity
  8
NUMBERS
100
AcDbPolyline
 90
5
 70
0
 10
24.543945842789974
 20
5.832241518529663
 10
24.543945842789974
 20
5.792241518529663
 10
24.603945842789972
 20
5.792241518529663
 10
24.603945842789972
 20
5.832241518529663
 10
24.543945842789974
 20
5.832241518529663
  0
LWPOLYLINE
  5
131
330
17
100
AcDbEntity
  8
NUMBERS
100
AcDbPolyline
 90
2
 70
0
 10
24.543945842789974
 20
5.832241518529663
 10
24.603945842789972
 20
5.792241518529663
  0
LWPOLYLINE
  5
132
330
17
100
AcDbEntity
  8
NUMBERS
100
AcDbPolyline
 90
4
 70
0
 10
24.54394584278997
 20
5.746241518529664
 10
24.603945842789972
 20
5.746241518529663
 10
24.56394584278997
 20
5.776241518529663
 10
24.563945842789973
 20
5.7362415185296625
  0
LWPOLYLINE
  5
133
330
17
100
AcDbEntity
  8
NUMBERS
100
AcDbPolyline
 90
4
 70
0
 10
15.085625358400202
 20
5.29495945353581
 10
15.045625358400201
 20
5.29495945353581
 10
15.045625358400201
 20
5.23495945353581
 10
15.085625358400202
 20
5.23495945353581
  0
LWPOLYLINE
  5
134
330
17
100
AcDbEntity
  8
NUMBERS
100
AcDbPolyline
 90
2
 70
0
 10
15.045625358400201
 20
5.26495945353581
 10
15.0756253584002
 20
5.26495945353581
  0
LWPOLYLINE
  5
135
330
17
100
AcDbEntity
  8
NUMBERS
100
AcDbPolyline
 90
4
 70
0
 10
15.101625358400202
 20
5.23495945353581
 10
15.101625358400202
 20
5.29495945353581
 10
15.141625358400201
 20
5.23495945353581
 10
15.141625358400201
 20
5.29495945353581
  0
LWPOLYLINE
  5
136
330
17
100
AcDbEntity
  8
NUMBERS
100
AcDbPolyline
 90
5
 70
0
 10
15.157625358400201
 20
5.23495945353581
 10
15.1976253584002
 20
5.23495945353581
 10
15.1976253584002
 20
5.29495945353581
 10
15.157625358400201
 20
5.29495945353581
 10
15.157625358400201
 20
5.23495945353581
  0
LWPOLYLINE
  5
137
330
17
100
AcDbEntity
  8
NUMBERS
100
AcDbPolyline
 90
2
 70
0
 10
15.157625358400201
 20
5.23495945353581
 10
15.1976253584002
 20
5.29495945353581
  0
LWPOLYLINE
  5
138
330
17
100
AcDbEntity
  8
NUMBERS
100
AcDbPolyline
 90
5
 70
0
 10
15.2136253584002
 20
5.23495945353581
 10
15.253625358400202
 20
5.23495945353581
 10
15.253625358400202
 20
5.29495945353581
 10
15.2136253584002
 20
5.29495945353581
 10
15.2136253584002
 20
5.23495945353581
  0
LWPOLYLINE
  5
139
330
17
100
AcDbEntity
  8
NUMBERS
100
AcDbPolyline
 90
2
 70
0
 10
15.2136253584002
 20
5.23495945353581
 10
15.253625358400202
 20
5.29495945353581
  0
LWPOLYLINE
  5
13A
330
17
100
AcDbEntity
  8
NUMBERS
100
AcDbPolyline
 90
4
 70
0
 10
15.2996253584002
 20
5.23495945353581
 10
15.2996253584002
 20
5.29495945353581
 10
15.269625358400202
 20
5.25495945353581
 10
15.3096253584002
 20
5.25495945353581
  0
LWPOLYLINE
  5
13B
330
17
100
AcDbEntity
  8
NUMBERS
100
AcDbPolyline
 90
4
 70
0
 10
24.419173976992113
 20
7.5938515424155595
 10
24.419173976992113
 20
7.5538515424155595
 10
24.47917397699211
 20
7.5538515424155595
 10
24.47917397699211
 20
7.5938515424155595
  0
LWPOLYLINE
  5
13C
330
17
100
AcDbEntity
  8
NUMBERS
100
AcDbPolyline
 90
2
 70
0
 10
24.449173976992114
 20
7.5538515424155595
 10
24.449173976992114
 20
7.58385154241556
  0
LWPOLYLINE
  5
13D
330
17
100
AcDbEntity
  8
NUMBERS
100
AcDbPolyline
 90
4
 70
0
 10
24.47917397699211
 20
7.6098515424155595
 10
24.419173976992113
 20
7.6098515424155595
 10
24.47917397699211
 20
7.6498515424155595
 10
24.419173976992113
 20
7.6498515424155595
  0
LWPOLYLINE
  5
13E
330
17
100
AcDbEntity
  8
NUMBERS
100
AcDbPolyline
 90
5
 70
0
 10
24.47917397699211
 20
7.6658515424155595
 10
24.47917397699211
 20
7.70585154241556
 10
24.419173976992113
 20
7.70585154241556
 10
24.419173976992113
 20
7.6658515424155595
 10
24.47917397699211
 20
7.6658515424155595
  0
LWPOLYLINE
  5
13F
330
17
100
AcDbEntity
  8
NUMBERS
100
AcDbPolyline
 90
2
 70
0
 10
24.47917397699211
 20
7.6658515424155595
 10
24.419173976992113
 20
7.70585154241556
  0
LWPOLYLINE
  5
140
330
17
100
AcDbEntity
  8
NUMBERS
100
AcDbPolyline
 90
3
 70
0
 10
24.42917397699211
 20
7.73185154241556
 10
24.419173976992113
 20
7.74185154241556
 10
24.47917397699211
 20
7.74185154241556
  0
LWPOLYLINE
  5
141
330
17
100
AcDbEntity
  8
NUMBERS
100
AcDbPolyline
 90
2
 70
0
 10
24.47917397699211
 20
7.73185154241556
 10
24.47917397699211
 20
7.75185154241556
  0
LWPOLYLINE
  5
142
330
17
100
AcDbEntity
  8
NUMBERS
100
AcDbPolyline
 90
7
 70
0
 10
24.47917397699211
 20
7.77785154241556
 10
24.47917397699211
 20
7.80785154241556
 10
24.469173976992113
 20
7.81785154241556
 10
24.419173976992113
 20
7.81785154241556
 10
24.419173976992113
 20
7.77785154241556
 10
24.449173976992114
 20
7.77785154241556
 10
24.449173976992114
 20
7.81785154241556
  0
LWPOLYLINE
  5
143
330
17
100
AcDbEntity
  8
NUMBERS
100
AcDbPolyline
 90
4
 70
0
 10
24.555173976992112
 20
7.551184875748893
 10
24.555173976992112
 20
7.51785154241556
 10
24.605173976992113
 20
7.51785154241556
 10
24.605173976992113
 20
7.551184875748893
  0
LWPOLYLINE
  5
144
330
17
100
AcDbEntity
  8
NUMBERS
100
AcDbPolyline
 90
2
 70
0
 10
24.580173976992114
 20
7.51785154241556
 10
24.580173976992114
 20
7.54285154241556
  0
LWPOLYLINE
  5
145
330
17
100
AcDbEntity
  8
NUMBERS
100
AcDbPolyline
 90
4
 70
0
 10
24.605173976992113
 20
7.564518209082227
 10
24.555173976992112
 20
7.564518209082227
 10
24.605173976992113
 20
7.59785154241556
 10
24.555173976992112
 20
7.59785154241556
  0
LWPOLYLINE
  5
146
330
17
100
AcDbEntity
  8
NUMBERS
100
AcDbPolyline
 90
5
 70
0
 10
24.605173976992113
 20
7.611184875748894
 10
24.605173976992113
 20
7.644518209082227
 10
24.555173976992112
 20
7.644518209082227
 10
24.555173976992112
 20
7.611184875748894
 10
24.605173976992113
 20
7.611184875748894
  0
LWPOLYLINE
  5
147
330
17
100
AcDbEntity
  8
NUMBERS
100
AcDbPolyline
 90
2
 70
0
 10
24.605173976992113
 20
7.611184875748894
 10
24.555173976992112
 20
7.644518209082227
  0
LWPOLYLINE
  5
148
330
17
100
AcDbEntity
  8
NUMBERS
100
AcDbPolyline
 90
3
 70
0
 10
24.563507310325445
 20
7.666184875748893
 10
24.555173976992112
 20
7.674518209082226
 10
24.605173976992113
 20
7.674518209082226
  0
LWPOLYLINE
  5
149
330
17
100
AcDbEntity
  8
NUMBERS
100
AcDbPolyline
 90
2
 70
0
 10
24.605173976992113
 20
7.666184875748893
 10
24.605173976992113
 20
7.68285154241556
  0
LWPOLYLINE
  5
14A
330
17
100
AcDbEntity
  8
NUMBERS
100
AcDbPolyline
 90
7
 70
0
 10
24.605173976992113
 20
7.704518209082226
 10
24.605173976992113
 20
7.729518209082227
 10
24.59684064365878
 20
7.73785154241556
 10
24.555173976992112
 20
7.73785154241556
 10
24.555173976992112
 20
7.704518209082226
 10
24.580173976992114
 20
7.704518209082226
 10
24.580173976992114
 20
7.73785154241556
  0
LWPOLYLINE
  5
14B
330
17
100
AcDbEntity
  8
NUMBERS
100
AcDbPolyline
 90
3
 70
0
 10
24.563507310325445
 20
7.806184875748893
 10
24.555173976992112
 20
7.814518209082227
 10
24.605173976992113
 20
7.814518209082227
  0
LWPOLYLINE
  5
14C
330
17
100
AcDbEntity
  8
NUMBERS
100
AcDbPolyline
 90
2
 70
0
 10
24.605173976992113
 20
7.806184875748893
 10
24.605173976992113
 20
7.82285154241556
  0
LWPOLYLINE
  5
14D
330
17
100
AcDbEntity
  8
NUMBERS
100
AcDbPolyline
 90
2
 70
0
 10
24.605173976992113
 20
7.844518209082226
 10
24.555173976992112
 20
7.87785154241556
  0
LWPOLYLINE
  5
14E
330
17
100
AcDbEntity
  8
NUMBERS
100
AcDbPolyline
 90
7
 70
0
 10
24.563507310325445
 20
7.891184875748893
 10
24.555173976992112
 20
7.899518209082227
 10
24.555173976992112
 20
7.916184875748893
 10
24.563507310325445
 20
7.924518209082226
 10
24.571840643658778
 20
7.924518209082226
 10
24.605173976992113
 20
7.891184875748893
 10
24.605173976992113
 20
7.924518209082226
  0
LWPOLYLINE
  5
14F
330
17
100
AcDbEntity
  8
NUMBERS
100
AcDbPolyline
 90
4
 70
0
 10
26.336885609780065
 20
7.619946707834943
 10
26.336885609780065
 20
7.579946707834943
 10
26.396885609780064
 20
7.579946707834943
 10
26.396885609780064
 20
7.619946707834943
  0
LWPOLYLINE
  5
150
330
17
100
AcDbEntity
  8
NUMBERS
100
AcDbPolyline
 90
2
 70
0
 10
26.366885609780066
 20
7.579946707834943
 10
26.366885609780066
 20
7.609946707834943
  0
LWPOLYLINE
  5
151
330
17
100
AcDbEntity
  8
NUMBERS
100
AcDbPolyline
 90
4
 70
0
 10
26.396885609780064
 20
7.635946707834943
 10
26.336885609780065
 20
7.635946707834943
 10
26.396885609780064
 20
7.675946707834943
 10
26.336885609780065
 20
7.675946707834943
  0
LWPOLYLINE
  5
152
330
17
100
AcDbEntity
  8
NUMBERS
100
AcDbPolyline
 90
5
 70
0
 10
26.396885609780064
 20
7.691946707834943
 10
26.396885609780064
 20
7.731946707834943
 10
26.336885609780065
 20
7.731946707834943
 10
26.336885609780065
 20
7.691946707834943
 10
26.396885609780064
 20
7.691946707834943
  0
LWPOLYLINE
  5
153
330
17
100
AcDbEntity
  8
NUMBERS
100
AcDbPolyline
 90
2
 70
0
 10
26.396885609780064
 20
7.691946707834943
 10
26.336885609780065
 20
7.731946707834943
  0
LWPOLYLINE
  5
154
330
17
100
AcDbEntity
  8
NUMBERS
100
AcDbPolyline
 90
3
 70
0
 10
26.346885609780063
 20
7.757946707834944
 10
26.336885609780065
 20
7.767946707834944
 10
26.396885609780064
 20
7.767946707834944
  0
LWPOLYLINE
  5
155
330
17
100
AcDbEntity
  8
NUMBERS
100
AcDbPolyline
 90
2
 70
0
 10
26.396885609780064
 20
7.757946707834944
 10
26.396885609780064
 20
7.777946707834944
  0
LWPOLYLINE
  5
156
330
17
100
AcDbEntity
  8
NUMBERS
100
AcDbPolyline
 90
7
 70
0
 10
26.396885609780064
 20
7.803946707834943
 10
26.396885609780064
 20
7.833946707834944
 10
26.386885609780066
 20
7.843946707834943
 10
26.336885609780065
 20
7.843946707834943
 10
26.336885609780065
 20
7.803946707834943
 10
26.366885609780066
 20
7.803946707834943
 10
26.366885609780066
 20
7.843946707834943
  0
LWPOLYLINE
  5
157
330
17
100
AcDbEntity
  8
NUMBERS
100
AcDbPolyline
 90
4
 70
0
 10
26.472885609780064
 20
7.577280041168277
 10
26.472885609780064
 20
7.543946707834944
 10
26.522885609780065
 20
7.543946707834944
 10
26.522885609780065
 20
7.577280041168277
  0
LWPOLYLINE
  5
158
330
17
100
AcDbEntity
  8
NUMBERS
100
AcDbPolyline
 90
2
 70
0
 10
26.497885609780063
 20
7.543946707834944
 10
26.497885609780063
 20
7.568946707834944
  0
LWPOLYLINE
  5
159
330
17
100
AcDbEntity
  8
NUMBERS
100
AcDbPolyline
 90
4
 70
0
 10
26.522885609780065
 20
7.5906133745016104
 10
26.472885609780064
 20
7.5906133745016104
 10
26.522885609780065
 20
7.623946707834944
 10
26.472885609780064
 20
7.623946707834944
  0
LWPOLYLINE
  5
15A
330
17
100
AcDbEntity
  8
NUMBERS
100
AcDbPolyline
 90
5
 70
0
 10
26.522885609780065
 20
7.637280041168277
 10
26.522885609780065
 20
7.6706133745016105
 10
26.472885609780064
 20
7.6706133745016105
 10
26.472885609780064
 20
7.637280041168277
 10
26.522885609780065
 20
7.637280041168277
  0
LWPOLYLINE
  5
15B
330
17
100
AcDbEntity
  8
NUMBERS
100
AcDbPolyline
 90
2
 70
0
 10
26.522885609780065
 20
7.637280041168277
 10
26.472885609780064
 20
7.6706133745016105
  0
LWPOLYLINE
  5
15C
330
17
100
AcDbEntity
  8
NUMBERS
100
AcDbPolyline
 90
3
 70
0
 10
26.481218943113397
 20
7.692280041168277
 10
26.472885609780064
 20
7.70061337450161
 10
26.522885609780065
 20
7.70061337450161
  0
LWPOLYLINE
  5
15D
330
17
100
AcDbEntity
  8
NUMBERS
100
AcDbPolyline
 90
2
 70
0
 10
26.522885609780065
 20
7.692280041168277
 10
26.522885609780065
 20
7.708946707834944
  0
LWPOLYLINE
  5
15E
330
17
100
AcDbEntity
  8
NUMBERS
100
AcDbPolyline
 90
7
 70
0
 10
26.522885609780065
 20
7.73061337450161
 10
26.522885609780065
 20
7.7556133745016105
 10
26.514552276446732
 20
7.763946707834943
 10
26.472885609780064
 20
7.763946707834943
 10
26.472885609780064
 20
7.73061337450161
 10
26.497885609780063
 20
7.73061337450161
 10
26.497885609780063
 20
7.763946707834943
  0
LWPOLYLINE
  5
15F
330
17
100
AcDbEntity
  8
NUMBERS
100
AcDbPolyline
 90
7
 70
0
 10
26.481218943113397
 20
7.823946707834944
 10
26.472885609780064
 20
7.832280041168277
 10
26.472885609780064
 20
7.848946707834943
 10
26.481218943113397
 20
7.857280041168277
 10
26.48955227644673
 20
7.857280041168277
 10
26.522885609780065
 20
7.823946707834944
 10
26.522885609780065
 20
7.857280041168277
  0
LWPOLYLINE
  5
160
330
17
100
AcDbEntity
  8
NUMBERS
100
AcDbPolyline
 90
2
 70
0
 10
26.522885609780065
 20
7.87061337450161
 10
26.472885609780064
 20
7.903946707834944
  0
LWPOLYLINE
  5
161
330
17
100
AcDbEntity
  8
NUMBERS
100
AcDbPolyline
 90
7
 70
0
 10
26.481218943113397
 20
7.917280041168277
 10
26.472885609780064
 20
7.92561337450161
 10
26.472885609780064
 20
7.942280041168277
 10
26.481218943113397
 20
7.95061337450161
 10
26.48955227644673
 20
7.95061337450161
 10
26.522885609780065
 20
7.917280041168277
 10
26.522885609780065
 20
7.95061337450161
  0
LWPOLYLINE
  5
162
330
17
100
AcDbEntity
  8
NUMBERS
100
AcDbPolyline
 90
4
 70
0
 10
14.701153995545287
 20
8.154713465790625
 10
14.661153995545286
 20
8.154713465790625
 10
14.661153995545286
 20
8.094713465790624
 10
14.701153995545287
 20
8.094713465790624
  0
LWPOLYLINE
  5
163
330
17
100
AcDbEntity
  8
NUMBERS
100
AcDbPolyline
 90
2
 70
0
 10
14.661153995545286
 20
8.124713465790624
 10
14.691153995545287
 20
8.124713465790624
  0
LWPOLYLINE
  5
164
330
17
100
AcDbEntity
  8
NUMBERS
100
AcDbPolyline
 90
4
 70
0
 10
14.717153995545287
 20
8.094713465790624
 10
14.717153995545287
 20
8.154713465790625
 10
14.757153995545286
 20
8.094713465790624
 10
14.757153995545286
 20
8.154713465790625
  0
LWPOLYLINE
  5
165
330
17
100
AcDbEntity
  8
NUMBERS
100
AcDbPolyline
 90
5
 70
0
 10
14.773153995545286
 20
8.094713465790624
 10
14.813153995545287
 20
8.094713465790624
 10
14.813153995545287
 20
8.154713465790625
 10
14.773153995545286
 20
8.154713465790625
 10
14.773153995545286
 20
8.094713465790624
  0
LWPOLYLINE
  5
166
330
17
100
AcDbEntity
  8
NUMBERS
100
AcDbPolyline
 90
2
 70
0
 10
14.773153995545286
 20
8.094713465790624
 10
14.813153995545287
 20
8.154713465790625
  0
LWPOLYLINE
  5
167
330
17
100
AcDbEntity
  8
NUMBERS
100
AcDbPolyline
 90
5
 70
0
 10
14.829153995545287
 20
8.094713465790624
 10
14.869153995545286
 20
8.094713465790624
 10
14.869153995545286
 20
8.154713465790625
 10
14.829153995545287
 20
8.154713465790625
 10
14.829153995545287
 20
8.094713465790624
  0
LWPOLYLINE
  5
168
330
17
100
AcDbEntity
  8
NUMBERS
100
AcDbPolyline
 90
2
 70
0
 10
14.829153995545287
 20
8.094713465790624
 10
14.869153995545286
 20
8.154713465790625
  0
LWPOLYLINE
  5
169
330
17
100
AcDbEntity
  8
NUMBERS
100
AcDbPolyline
 90
7
 70
0
 10
14.885153995545286
 20
8.154713465790625
 10
14.925153995545287
 20
8.154713465790625
 10
14.905153995545286
 20
8.129713465790624
 10
14.925153995545287
 20
8.119713465790625
 10
14.925153995545287
 20
8.104713465790624
 10
14.915153995545285
 20
8.094713465790624
 10
14.885153995545286
 20
8.094713465790624
  0
LWPOLYLINE
  5
16A
330
17
100
AcDbEntity
  8
NUMBERS
100
AcDbPolyline
 90
4
 70
0
 10
29.23706023488039
 20
10.431665578968687
 10
29.277060234880388
 20
10.431665578968687
 10
29.277060234880388
 20
10.491665578968687
 10
29.23706023488039
 20
10.491665578968687
  0
LWPOLYLINE
  5
16B
330
17
100
AcDbEntity
  8
NUMBERS
100
AcDbPolyline
 90
2
 70
0
 10
29.277060234880388
 20
10.461665578968688
 10
29.24706023488039
 20
10.461665578968688
  0
LWPOLYLINE
  5
16C
330
17
100
AcDbEntity
  8
NUMBERS
100
AcDbPolyline
 90
4
 70
0
 10
29.22106023488039
 20
10.491665578968687
 10
29.22106023488039
 20
10.431665578968687
 10
29.181060234880388
 20
10.491665578968687
 10
29.181060234880388
 20
10.431665578968687
  0
LWPOLYLINE
  5
16D
330
17
100
AcDbEntity
  8
NUMBERS
100
AcDbPolyline
 90
5
 70
0
 10
29.16506023488039
 20
10.491665578968687
 10
29.12506023488039
 20
10.491665578968687
 10
29.12506023488039
 20
10.431665578968687
 10
29.16506023488039
 20
10.431665578968687
 10
29.16506023488039
 20
10.491665578968687
  0
LWPOLYLINE
  5
16E
330
17
100
AcDbEntity
  8
NUMBERS
100
AcDbPolyline
 90
2
 70
0
 10
29.16506023488039
 20
10.491665578968687
 10
29.12506023488039
 20
10.431665578968687
  0
LWPOLYLINE
  5
16F
330
17
100
AcDbEntity
  8
NUMBERS
100
AcDbPolyline
 90
5
 70
0
 10
29.10906023488039
 20
10.491665578968687
 10
29.06906023488039
 20
10.491665578968687
 10
29.06906023488039
 20
10.431665578968687
 10
29.10906023488039
 20
10.431665578968687
 10
29.10906023488039
 20
10.491665578968687
  0
LWPOLYLINE
  5
170
330
17
100
AcDbEntity
  8
NUMBERS
100
AcDbPolyline
 90
2
 70
0
 10
29.10906023488039
 20
10.491665578968687
 10
29.06906023488039
 20
10.431665578968687
  0
LWPOLYLINE
  5
171
330
17
100
AcDbEntity
  8
NUMBERS
100
AcDbPolyline
 90
7
 70
0
 10
29.053060234880387
 20
10.491665578968687
 10
29.02306023488039
 20
10.491665578968687
 10
29.01306023488039
 20
10.481665578968688
 10
29.01306023488039
 20
10.431665578968687
 10
29.053060234880387
 20
10.431665578968687
 10
29.053060234880387
 20
10.461665578968688
 10
29.01306023488039
 20
10.461665578968688
  0
LWPOLYLINE
  5
172
330
17
100
AcDbEntity
  8
NUMBERS
100
AcDbPolyline
 90
4
 70
0
 10
20.305740909665257
 20
7.655544349864633
 10
20.265740909665258
 20
7.655544349864633
 10
20.265740909665258
 20
7.595544349864633
 10
20.305740909665257
 20
7.595544349864633
  0
LWPOLYLINE
  5
173
330
17
100
AcDbEntity
  8
NUMBERS
100
AcDbPolyline
 90
2
 70
0
 10
20.265740909665258
 20
7.625544349864633
 10
20.295740909665255
 20
7.625544349864633
  0
LWPOLYLINE
  5
174
330
17
100
AcDbEntity
  8
NUMBERS
100
AcDbPolyline
 90
4
 70
0
 10
20.321740909665255
 20
7.595544349864633
 10
20.321740909665255
 20
7.655544349864633
 10
20.361740909665258
 20
7.595544349864633
 10
20.361740909665258
 20
7.655544349864633
  0
LWPOLYLINE
  5
175
330
17
100
AcDbEntity
  8
NUMBERS
100
AcDbPolyline
 90
5
 70
0
 10
20.377740909665256
 20
7.595544349864633
 10
20.417740909665255
 20
7.595544349864633
 10
20.417740909665255
 20
7.655544349864633
 10
20.377740909665256
 20
7.655544349864633
 10
20.377740909665256
 20
7.595544349864633
  0
LWPOLYLINE
  5
176
330
17
100
AcDbEntity
  8
NUMBERS
100
AcDbPolyline
 90
2
 70
0
 10
20.377740909665256
 20
7.595544349864633
 10
20.417740909665255
 20
7.655544349864633
  0
LWPOLYLINE
  5
177
330
17
100
AcDbEntity
  8
NUMBERS
100
AcDbPolyline
 90
5
 70
0
 10
20.433740909665257
 20
7.595544349864633
 10
20.473740909665256
 20
7.595544349864633
 10
20.473740909665256
 20
7.655544349864633
 10
20.433740909665257
 20
7.655544349864633
 10
20.433740909665257
 20
7.595544349864633
  0
LWPOLYLINE
  5
178
330
17
100
AcDbEntity
  8
NUMBERS
100
AcDbPolyline
 90
2
 70
0
 10
20.433740909665257
 20
7.595544349864633
 10
20.473740909665256
 20
7.655544349864633
  0
LWPOLYLINE
  5
179
330
17
100
AcDbEntity
  8
NUMBERS
100
AcDbPolyline
 90
5
 70
0
 10
20.489740909665258
 20
7.595544349864633
 10
20.529740909665257
 20
7.595544349864633
 10
20.529740909665257
 20
7.625544349864633
 10
20.489740909665258
 20
7.625544349864633
 10
20.489740909665258
 20
7.595544349864633
  0
LWPOLYLINE
  5
17A
330
17
100
AcDbEntity
  8
NUMBERS
100
AcDbPolyline
 90
4
 70
0
 10
20.494740909665257
 20
7.625544349864633
 10
20.494740909665257
 20
7.655544349864633
 10
20.524740909665258
 20
7.655544349864633
 10
20.524740909665258
 20
7.625544349864633
  0
LWPOLYLINE
  5
17B
330
17
100
AcDbEntity
  8
NUMBERS
100
AcDbPolyline
 90
4
 70
0
 10
26.748885609780064
 20
10.773665578968687
 10
26.708885609780065
 20
10.773665578968687
 10
26.708885609780065
 20
10.713665578968687
 10
26.748885609780064
 20
10.713665578968687
  0
LWPOLYLINE
  5
17C
330
17
100
AcDbEntity
  8
NUMBERS
100
AcDbPolyline
 90
2
 70
0
 10
26.708885609780065
 20
10.743665578968688
 10
26.738885609780063
 20
10.743665578968688
  0
LWPOLYLINE
  5
17D
330
17
100
AcDbEntity
  8
NUMBERS
100
AcDbPolyline
 90
4
 70
0
 10
26.764885609780062
 20
10.713665578968687
 10
26.764885609780062
 20
10.773665578968687
 10
26.804885609780065
 20
10.713665578968687
 10
26.804885609780065
 20
10.773665578968687
  0
LWPOLYLINE
  5
17E
330
17
100
AcDbEntity
  8
NUMBERS
100
AcDbPolyline
 90
5
 70
0
 10
26.820885609780063
 20
10.713665578968687
 10
26.860885609780063
 20
10.713665578968687
 10
26.860885609780063
 20
10.773665578968687
 10
26.820885609780063
 20
10.773665578968687
 10
26.820885609780063
 20
10.713665578968687
  0
LWPOLYLINE
  5
17F
330
17
100
AcDbEntity
  8
NUMBERS
100
AcDbPolyline
 90
2
 70
0
 10
26.820885609780063
 20
10.713665578968687
 10
26.860885609780063
 20
10.773665578968687
  0
LWPOLYLINE
  5
180
330
17
100
AcDbEntity
  8
NUMBERS
100
AcDbPolyline
 90
5
 70
0
 10
26.876885609780064
 20
10.713665578968687
 10
26.916885609780064
 20
10.713665578968687
 10
26.916885609780064
 20
10.773665578968687
 10
26.876885609780064
 20
10.773665578968687
 10
26.876885609780064
 20
10.713665578968687
  0
LWPOLYLINE
  5
181
330
17
100
AcDbEntity
  8
NUMBERS
100
AcDbPolyline
 90
2
 70
0
 10
26.876885609780064
 20
10.713665578968687
 10
26.916885609780064
 20
10.773665578968687
  0
LWPOLYLINE
  5
182
330
17
100
AcDbEntity
  8
NUMBERS
100
AcDbPolyline
 90
3
 70
0
 10
26.932885609780065
 20
10.773665578968687
 10
26.972885609780064
 20
10.773665578968687
 10
26.942885609780063
 20
10.713665578968687
  0
LWPOLYLINE
  5
183
330
17
100
AcDbEntity
  8
NUMBERS
100
AcDbPolyline
 90
4
 70
0
 10
19.389129164449983
 20
8.064713465790623
 10
19.349129164449984
 20
8.064713465790623
 10
19.349129164449984
 20
8.004713465790624
 10
19.389129164449983
 20
8.004713465790624
  0
LWPOLYLINE
  5
184
330
17
100
AcDbEntity
  8
NUMBERS
100
AcDbPolyline
 90
2
 70
0
 10
19.349129164449984
 20
8.034713465790624
 10
19.37912916444998
 20
8.034713465790624
  0
LWPOLYLINE
  5
185
330
17
100
AcDbEntity
  8
NUMBERS
100
AcDbPolyline
 90
4
 70
0
 10
19.40512916444998
 20
8.004713465790624
 10
19.40512916444998
 20
8.064713465790623
 10
19.445129164449984
 20
8.004713465790624
 10
19.445129164449984
 20
8.064713465790623
  0
LWPOLYLINE
  5
186
330
17
100
AcDbEntity
  8
NUMBERS
100
AcDbPolyline
 90
5
 70
0
 10
19.461129164449982
 20
8.004713465790624
 10
19.50112916444998
 20
8.004713465790624
 10
19.50112916444998
 20
8.064713465790623
 10
19.461129164449982
 20
8.064713465790623
 10
19.461129164449982
 20
8.004713465790624
  0
LWPOLYLINE
  5
187
330
17
100
AcDbEntity
  8
NUMBERS
100
AcDbPolyline
 90
2
 70
0
 10
19.461129164449982
 20
8.004713465790624
 10
19.50112916444998
 20
8.064713465790623
  0
LWPOLYLINE
  5
188
330
17
100
AcDbEntity
  8
NUMBERS
100
AcDbPolyline
 90
3
 70
0
 10
19.52712916444998
 20
8.054713465790623
 10
19.537129164449983
 20
8.064713465790623
 10
19.537129164449983
 20
8.004713465790624
  0
LWPOLYLINE
  5
189
330
17
100
AcDbEntity
  8
NUMBERS
100
AcDbPolyline
 90
2
 70
0
 10
19.52712916444998
 20
8.004713465790624
 10
19.547129164449984
 20
8.004713465790624
  0
LWPOLYLINE
  5
18A
330
17
100
AcDbEntity
  8
NUMBERS
100
AcDbPolyline
 90
5
 70
0
 10
19.573129164449984
 20
8.004713465790624
 10
19.613129164449983
 20
8.004713465790624
 10
19.613129164449983
 20
8.064713465790623
 10
19.573129164449984
 20
8.064713465790623
 10
19.573129164449984
 20
8.004713465790624
  0
LWPOLYLINE
  5
18B
330
17
100
AcDbEntity
  8
NUMBERS
100
AcDbPolyline
 90
2
 70
0
 10
19.573129164449984
 20
8.004713465790624
 10
19.613129164449983
 20
8.064713465790623
  0
LWPOLYLINE
  5
18C
330
17
100
AcDbEntity
  8
NUMBERS
100
AcDbPolyline
 90
4
 70
0
 10
28.477393803503354
 20
10.753665578968688
 10
28.477393803503354
 20
10.713665578968687
 10
28.537393803503353
 20
10.713665578968687
 10
28.537393803503353
 20
10.753665578968688
  0
LWPOLYLINE
  5
18D
330
17
100
AcDbEntity
  8
NUMBERS
100
AcDbPolyline
 90
2
 70
0
 10
28.507393803503355
 20
10.713665578968687
 10
28.507393803503355
 20
10.743665578968688
  0
LWPOLYLINE
  5
18E
330
17
100
AcDbEntity
  8
NUMBERS
100
AcDbPolyline
 90
4
 70
0
 10
28.537393803503353
 20
10.769665578968688
 10
28.477393803503354
 20
10.769665578968688
 10
28.537393803503353
 20
10.809665578968687
 10
28.477393803503354
 20
10.809665578968687
  0
LWPOLYLINE
  5
18F
330
17
100
AcDbEntity
  8
NUMBERS
100
AcDbPolyline
 90
5
 70
0
 10
28.537393803503353
 20
10.825665578968687
 10
28.537393803503353
 20
10.865665578968688
 10
28.477393803503354
 20
10.865665578968688
 10
28.477393803503354
 20
10.825665578968687
 10
28.537393803503353
 20
10.825665578968687
  0
LWPOLYLINE
  5
190
330
17
100
AcDbEntity
  8
NUMBERS
100
AcDbPolyline
 90
2
 70
0
 10
28.537393803503353
 20
10.825665578968687
 10
28.477393803503354
 20
10.865665578968688
  0
LWPOLYLINE
  5
191
330
17
100
AcDbEntity
  8
NUMBERS
100
AcDbPolyline
 90
3
 70
0
 10
28.487393803503352
 20
10.891665578968688
 10
28.477393803503354
 20
10.901665578968688
 10
28.537393803503353
 20
10.901665578968688
  0
LWPOLYLINE
  5
192
330
17
100
AcDbEntity
  8
NUMBERS
100
AcDbPolyline
 90
2
 70
0
 10
28.537393803503353
 20
10.891665578968688
 10
28.537393803503353
 20
10.911665578968687
  0
LWPOLYLINE
  5
193
330
17
100
AcDbEntity
  8
NUMBERS
100
AcDbPolyline
 90
7
 70
0
 10
28.477393803503354
 20
10.977665578968688
 10
28.477393803503354
 20
10.947665578968687
 10
28.487393803503352
 20
10.937665578968687
 10
28.537393803503353
 20
10.937665578968687
 10
28.537393803503353
 20
10.977665578968688
 10
28.507393803503355
 20
10.977665578968688
 10
28.507393803503355
 20
10.937665578968687
  0
LWPOLYLINE
  5
194
330
17
100
AcDbEntity
  8
NUMBERS
100
AcDbPolyline
 90
4
 70
0
 10
20.468803769476835
 20
5.897842584704992
 10
20.468803769476835
 20
5.857842584704992
 10
20.528803769476838
 20
5.857842584704992
 10
20.528803769476838
 20
5.897842584704992
  0
LWPOLYLINE
  5
195
330
17
100
AcDbEntity
  8
NUMBERS
100
AcDbPolyline
 90
2
 70
0
 10
20.498803769476837
 20
5.857842584704992
 10
20.498803769476837
 20
5.887842584704992
  0
LWPOLYLINE
  5
196
330
17
100
AcDbEntity
  8
NUMBERS
100
AcDbPolyline
 90
4
 70
0
 10
20.528803769476838
 20
5.913842584704992
 10
20.468803769476835
 20
5.913842584704992
 10
20.528803769476838
 20
5.953842584704992
 10
20.468803769476835
 20
5.953842584704992
  0
LWPOLYLINE
  5
197
330
17
100
AcDbEntity
  8
NUMBERS
100
AcDbPolyline
 90
5
 70
0
 10
20.528803769476838
 20
5.969842584704992
 10
20.528803769476838
 20
6.009842584704992
 10
20.468803769476835
 20
6.009842584704992
 10
20.468803769476835
 20
5.969842584704992
 10
20.528803769476838
 20
5.969842584704992
  0
LWPOLYLINE
  5
198
330
17
100
AcDbEntity
  8
NUMBERS
100
AcDbPolyline
 90
2
 70
0
 10
20.528803769476838
 20
5.969842584704992
 10
20.468803769476835
 20
6.009842584704992
  0
LWPOLYLINE
  5
199
330
17
100
AcDbEntity
  8
NUMBERS
100
AcDbPolyline
 90
3
 70
0
 10
20.478803769476837
 20
6.035842584704992
 10
20.468803769476835
 20
6.045842584704992
 10
20.528803769476838
 20
6.045842584704992
  0
LWPOLYLINE
  5
19A
330
17
100
AcDbEntity
  8
NUMBERS
100
AcDbPolyline
 90
2
 70
0
 10
20.528803769476838
 20
6.035842584704992
 10
20.528803769476838
 20
6.055842584704992
  0
LWPOLYLINE
  5
19B
330
17
100
AcDbEntity
  8
NUMBERS
100
AcDbPolyline
 90
4
 70
0
 10
20.528803769476838
 20
6.111842584704992
 10
20.468803769476835
 20
6.111842584704992
 10
20.508803769476838
 20
6.081842584704992
 10
20.508803769476838
 20
6.121842584704992
  0
LWPOLYLINE
  5
19C
330
17
100
AcDbEntity
  8
NUMBERS
100
AcDbPolyline
 90
4
 70
0
 10
20.643326760114974
 20
4.778327927971095
 10
20.643326760114974
 20
4.744994594637761
 10
20.693326760114974
 20
4.744994594637761
 10
20.693326760114974
 20
4.778327927971095
  0
LWPOLYLINE
  5
19D
330
17
100
AcDbEntity
  8
NUMBERS
100
AcDbPolyline
 90
2
 70
0
 10
20.668326760114976
 20
4.744994594637761
 10
20.668326760114976
 20
4.769994594637762
  0
LWPOLYLINE
  5
19E
330
17
100
AcDbEntity
  8
NUMBERS
100
AcDbPolyline
 90
4
 70
0
 10
20.693326760114974
 20
4.791661261304428
 10
20.643326760114974
 20
4.791661261304428
 10
20.693326760114974
 20
4.8249945946377615
 10
20.643326760114974
 20
4.8249945946377615
  0
LWPOLYLINE
  5
19F
330
17
100
AcDbEntity
  8
NUMBERS
100
AcDbPolyline
 90
5
 70
0
 10
20.693326760114974
 20
4.838327927971095
 10
20.693326760114974
 20
4.871661261304428
 10
20.643326760114974
 20
4.871661261304428
 10
20.643326760114974
 20
4.838327927971095
 10
20.693326760114974
 20
4.838327927971095
  0
LWPOLYLINE
  5
1A0
330
17
100
AcDbEntity
  8
NUMBERS
100
AcDbPolyline
 90
2
 70
0
 10
20.693326760114974
 20
4.838327927971095
 10
20.643326760114974
 20
4.871661261304428
  0
LWPOLYLINE
  5
1A1
330
17
100
AcDbEntity
  8
NUMBERS
100
AcDbPolyline
 90
3
 70
0
 10
20.651660093448307
 20
4.893327927971095
 10
20.643326760114974
 20
4.901661261304428
 10
20.693326760114974
 20
4.901661261304428
  0
LWPOLYLINE
  5
1A2
330
17
100
AcDbEntity
  8
NUMBERS
100
AcDbPolyline
 90
2
 70
0
 10
20.693326760114974
 20
4.893327927971095
 10
20.693326760114974
 20
4.9099945946377614
  0
LWPOLYLINE
  5
1A3
330
17
100
AcDbEntity
  8
NUMBERS
100
AcDbPolyline
 90
4
 70
0
 10
20.693326760114974
 20
4.956661261304428
 10
20.643326760114974
 20
4.956661261304428
 10
20.67666009344831
 20
4.931661261304428
 10
20.67666009344831
 20
4.964994594637761
  0
LWPOLYLINE
  5
1A4
330
17
100
AcDbEntity
  8
NUMBERS
100
AcDbPolyline
 90
3
 70
0
 10
20.651660093448307
 20
5.0333279279710945
 10
20.643326760114974
 20
5.041661261304428
 10
20.693326760114974
 20
5.041661261304428
  0
LWPOLYLINE
  5
1A5
330
17
100
AcDbEntity
  8
NUMBERS
100
AcDbPolyline
 90
2
 70
0
 10
20.693326760114974
 20
5.0333279279710945
 10
20.693326760114974
 20
5.049994594637761
  0
LWPOLYLINE
  5
1A6
330
17
100
AcDbEntity
  8
NUMBERS
100
AcDbPolyline
 90
2
 70
0
 10
20.693326760114974
 20
5.071661261304428
 10
20.643326760114974
 20
5.104994594637762
  0
LWPOLYLINE
  5
1A7
330
17
100
AcDbEntity
  8
NUMBERS
100
AcDbPolyline
 90
7
 70
0
 10
20.651660093448307
 20
5.1183279279710945
 10
20.643326760114974
 20
5.126661261304428
 10
20.643326760114974
 20
5.143327927971095
 10
20.651660093448307
 20
5.151661261304428
 10
20.65999342678164
 20
5.151661261304428
 10
20.693326760114974
 20
5.1183279279710945
 10
20.693326760114974
 20
5.151661261304428
  0
LWPOLYLINE
  5
1A8
330
17
100
AcDbEntity
  8
NUMBERS
100
AcDbPolyline
 90
4
 70
0
 10
22.306624688719303
 20
8.712392339931863
 10
22.306624688719303
 20
8.672392339931864
 10
22.366624688719305
 20
8.672392339931864
 10
22.366624688719305
 20
8.712392339931863
  0
LWPOLYLINE
  5
1A9
330
17
100
AcDbEntity
  8
NUMBERS
100
AcDbPolyline
 90
2
 70
0
 10
22.336624688719304
 20
8.672392339931864
 10
22.336624688719304
 20
8.702392339931864
  0
LWPOLYLINE
  5
1AA
330
17
100
AcDbEntity
  8
NUMBERS
100
AcDbPolyline
 90
4
 70
0
 10
22.366624688719305
 20
8.728392339931863
 10
22.306624688719303
 20
8.728392339931863
 10
22.366624688719305
 20
8.768392339931864
 10
22.306624688719303
 20
8.768392339931864
  0
LWPOLYLINE
  5
1AB
330
17
100
AcDbEntity
  8
NUMBERS
100
AcDbPolyline
 90
5
 70
0
 10
22.366624688719305
 20
8.784392339931864
 10
22.366624688719305
 20
8.824392339931864
 10
22.306624688719303
 20
8.824392339931864
 10
22.306624688719303
 20
8.784392339931864
 10
22.366624688719305
 20
8.784392339931864
  0
LWPOLYLINE
  5
1AC
330
17
100
AcDbEntity
  8
NUMBERS
100
AcDbPolyline
 90
2
 70
0
 10
22.366624688719305
 20
8.784392339931864
 10
22.306624688719303
 20
8.824392339931864
  0
LWPOLYLINE
  5
1AD
330
17
100
AcDbEntity
  8
NUMBERS
100
AcDbPolyline
 90
3
 70
0
 10
22.316624688719305
 20
8.850392339931863
 10
22.306624688719303
 20
8.860392339931863
 10
22.366624688719305
 20
8.860392339931863
  0
LWPOLYLINE
  5
1AE
330
17
100
AcDbEntity
  8
NUMBERS
100
AcDbPolyline
 90
2
 70
0
 10
22.366624688719305
 20
8.850392339931863
 10
22.366624688719305
 20
8.870392339931863
  0
LWPOLYLINE
  5
1AF
330
17
100
AcDbEntity
  8
NUMBERS
100
AcDbPolyline
 90
4
 70
0
 10
22.366624688719305
 20
8.926392339931864
 10
22.306624688719303
 20
8.926392339931864
 10
22.346624688719306
 20
8.896392339931865
 10
22.346624688719306
 20
8.936392339931864
  0
LWPOLYLINE
  5
1B0
330
17
100
AcDbEntity
  8
NUMBERS
100
AcDbPolyline
 90
4
 70
0
 10
22.48114767935744
 20
7.592877683197966
 10
22.48114767935744
 20
7.559544349864633
 10
22.531147679357442
 20
7.559544349864633
 10
22.531147679357442
 20
7.592877683197966
  0
LWPOLYLINE
  5
1B1
330
17
100
AcDbEntity
  8
NUMBERS
100
AcDbPolyline
 90
2
 70
0
 10
22.506147679357444
 20
7.559544349864633
 10
22.506147679357444
 20
7.584544349864633
  0
LWPOLYLINE
  5
1B2
330
17
100
AcDbEntity
  8
NUMBERS
100
AcDbPolyline
 90
4
 70
0
 10
22.531147679357442
 20
7.6062110165313
 10
22.48114767935744
 20
7.6062110165313
 10
22.531147679357442
 20
7.639544349864633
 10
22.48114767935744
 20
7.639544349864633
  0
LWPOLYLINE
  5
1B3
330
17
100
AcDbEntity
  8
NUMBERS
100
AcDbPolyline
 90
5
 70
0
 10
22.531147679357442
 20
7.652877683197967
 10
22.531147679357442
 20
7.6862110165313
 10
22.48114767935744
 20
7.6862110165313
 10
22.48114767935744
 20
7.652877683197967
 10
22.531147679357442
 20
7.652877683197967
  0
LWPOLYLINE
  5
1B4
330
17
100
AcDbEntity
  8
NUMBERS
100
AcDbPolyline
 90
2
 70
0
 10
22.531147679357442
 20
7.652877683197967
 10
22.48114767935744
 20
7.6862110165313
  0
LWPOLYLINE
  5
1B5
330
17
100
AcDbEntity
  8
NUMBERS
100
AcDbPolyline
 90
3
 70
0
 10
22.489481012690774
 20
7.7078776831979665
 10
22.48114767935744
 20
7.716211016531299
 10
22.531147679357442
 20
7.716211016531299
  0
LWPOLYLINE
  5
1B6
330
17
100
AcDbEntity
  8
NUMBERS
100
AcDbPolyline
 90
2
 70
0
 10
22.531147679357442
 20
7.7078776831979665
 10
22.531147679357442
 20
7.724544349864633
  0
LWPOLYLINE
  5
1B7
330
17
100
AcDbEntity
  8
NUMBERS
100
AcDbPolyline
 90
4
 70
0
 10
22.531147679357442
 20
7.7712110165313
 10
22.48114767935744
 20
7.7712110165313
 10
22.514481012690776
 20
7.7462110165313
 10
22.514481012690776
 20
7.779544349864633
  0
LWPOLYLINE
  5
1B8
330
17
100
AcDbEntity
  8
NUMBERS
100
AcDbPolyline
 90
7
 70
0
 10
22.489481012690774
 20
7.839544349864633
 10
22.48114767935744
 20
7.847877683197966
 10
22.48114767935744
 20
7.864544349864633
 10
22.489481012690774
 20
7.8728776831979665
 10
22.497814346024107
 20
7.8728776831979665
 10
22.531147679357442
 20
7.839544349864633
 10
22.531147679357442
 20
7.8728776831979665
  0
LWPOLYLINE
  5
1B9
330
17
100
AcDbEntity
  8
NUMBERS
100
AcDbPolyline
 90
2
 70
0
 10
22.531147679357442
 20
7.886211016531299
 10
22.48114767935744
 20
7.919544349864633
  0
LWPOLYLINE
  5
1BA
330
17
100
AcDbEntity
  8
NUMBERS
100
AcDbPolyline
 90
7
 70
0
 10
22.489481012690774
 20
7.932877683197966
 10
22.48114767935744
 20
7.9412110165313
 10
22.48114767935744
 20
7.9578776831979665
 10
22.489481012690774
 20
7.966211016531299
 10
22.497814346024107
 20
7.966211016531299
 10
22.531147679357442
 20
7.932877683197966
 10
22.531147679357442
 20
7.966211016531299
  0
LWPOLYLINE
  5
1BB
330
17
100
AcDbEntity
  8
NUMBERS
100
AcDbPolyline
 90
6
 70
0
 10
22.643697870642036
 20
10.886719674586027
 10
22.583697870642034
 20
10.886719674586027
 10
22.583697870642034
 20
10.926719674586028
 10
22.613697870642035
 20
10.926719674586028
 10
22.613697870642035
 20
10.886719674586027
 10
22.643697870642036
 20
10.926719674586028
  0
LWPOLYLINE
  5
1BC
330
17
100
AcDbEntity
  8
NUMBERS
100
AcDbPolyline
 90
3
 70
0
 10
22.583697870642034
 20
10.982719674586027
 10
22.583697870642034
 20
10.942719674586028
 10
22.643697870642036
 20
10.942719674586028
  0
LWPOLYLINE
  5
1BD
330
17
100
AcDbEntity
  8
NUMBERS
100
AcDbPolyline
 90
2
 70
0
 10
22.613697870642035
 20
10.942719674586028
 10
22.613697870642035
 20
10.972719674586028
  0
LWPOLYLINE
  5
1BE
330
17
100
AcDbEntity
  8
NUMBERS
100
AcDbPolyline
 90
5
 70
0
 10
22.643697870642036
 20
10.998719674586027
 10
22.643697870642036
 20
11.038719674586028
 10
22.583697870642034
 20
11.038719674586028
 10
22.583697870642034
 20
10.998719674586027
 10
22.643697870642036
 20
10.998719674586027
  0
LWPOLYLINE
  5
1BF
330
17
100
AcDbEntity
  8
NUMBERS
100
AcDbPolyline
 90
2
 70
0
 10
22.643697870642036
 20
10.998719674586027
 10
22.583697870642034
 20
11.038719674586028
  0
LWPOLYLINE
  5
1C0
330
17
100
AcDbEntity
  8
NUMBERS
100
AcDbPolyline
 90
5
 70
0
 10
22.643697870642036
 20
11.054719674586028
 10
22.643697870642036
 20
11.094719674586027
 10
22.583697870642034
 20
11.094719674586027
 10
22.583697870642034
 20
11.054719674586028
 10
22.643697870642036
 20
11.054719674586028
  0
LWPOLYLINE
  5
1C1
330
17
100
AcDbEntity
  8
NUMBERS
100
AcDbPolyline
 90
2
 70
0
 10
22.643697870642036
 20
11.054719674586028
 10
22.583697870642034
 20
11.094719674586027
  0
LWPOLYLINE
  5
1C2
330
17
100
AcDbEntity
  8
NUMBERS
100
AcDbPolyline
 90
7
 70
0
 10
22.583697870642034
 20
11.110719674586027
 10
22.583697870642034
 20
11.150719674586028
 10
22.608697870642036
 20
11.130719674586027
 10
22.618697870642034
 20
11.150719674586028
 10
22.633697870642035
 20
11.150719674586028
 10
22.643697870642036
 20
11.140719674586027
 10
22.643697870642036
 20
11.110719674586027
  0
LWPOLYLINE
  5
1C3
330
17
100
AcDbEntity
  8
NUMBERS
100
AcDbPolyline
 90
4
 70
0
 10
14.87193581073506
 20
11.561695105957133
 10
14.831935810735061
 20
11.561695105957133
 10
14.831935810735061
 20
11.501695105957133
 10
14.87193581073506
 20
11.501695105957133
  0
LWPOLYLINE
  5
1C4
330
17
100
AcDbEntity
  8
NUMBERS
100
AcDbPolyline
 90
2
 70
0
 10
14.831935810735061
 20
11.531695105957134
 10
14.86193581073506
 20
11.531695105957134
  0
LWPOLYLINE
  5
1C5
330
17
100
AcDbEntity
  8
NUMBERS
100
AcDbPolyline
 90
4
 70
0
 10
14.88793581073506
 20
11.501695105957133
 10
14.88793581073506
 20
11.561695105957133
 10
14.927935810735061
 20
11.501695105957133
 10
14.927935810735061
 20
11.561695105957133
  0
LWPOLYLINE
  5
1C6
330
17
100
AcDbEntity
  8
NUMBERS
100
AcDbPolyline
 90
5
 70
0
 10
14.943935810735061
 20
11.501695105957133
 10
14.98393581073506
 20
11.501695105957133
 10
14.98393581073506
 20
11.561695105957133
 10
14.943935810735061
 20
11.561695105957133
 10
14.943935810735061
 20
11.501695105957133
  0
LWPOLYLINE
  5
1C7
330
17
100
AcDbEntity
  8
NUMBERS
100
AcDbPolyline
 90
2
 70
0
 10
14.943935810735061
 20
11.501695105957133
 10
14.98393581073506
 20
11.561695105957133
  0
LWPOLYLINE
  5
1C8
330
17
100
AcDbEntity
  8
NUMBERS
100
AcDbPolyline
 90
3
 70
0
 10
15.00993581073506
 20
11.551695105957133
 10
15.01993581073506
 20
11.561695105957133
 10
15.01993581073506
 20
11.501695105957133
  0
LWPOLYLINE
  5
1C9
330
17
100
AcDbEntity
  8
NUMBERS
100
AcDbPolyline
 90
2
 70
0
 10
15.00993581073506
 20
11.501695105957133
 10
15.029935810735061
 20
11.501695105957133
  0
LWPOLYLINE
  5
1CA
330
17
100
AcDbEntity
  8
NUMBERS
100
AcDbPolyline
 90
5
 70
0
 10
15.055935810735061
 20
11.501695105957133
 10
15.09593581073506
 20
11.501695105957133
 10
15.09593581073506
 20
11.531695105957134
 10
15.055935810735061
 20
11.531695105957134
 10
15.055935810735061
 20
11.501695105957133
  0
LWPOLYLINE
  5
1CB
330
17
100
AcDbEntity
  8
NUMBERS
100
AcDbPolyline
 90
4
 70
0
 10
15.06093581073506
 20
11.531695105957134
 10
15.06093581073506
 20
11.561695105957133
 10
15.090935810735061
 20
11.561695105957133
 10
15.090935810735061
 20
11.531695105957134
  0
LWPOLYLINE
  5
1CC
330
17
100
AcDbEntity
  8
NUMBERS
100
AcDbPolyline
 90
4
 70
0
 10
14.65848732887862
 20
11.242432336988516
 10
14.625153995545286
 20
11.242432336988516
 10
14.625153995545286
 20
11.192432336988515
 10
14.65848732887862
 20
11.192432336988515
  0
LWPOLYLINE
  5
1CD
330
17
100
AcDbEntity
  8
NUMBERS
100
AcDbPolyline
 90
2
 70
0
 10
14.625153995545286
 20
11.217432336988516
 10
14.650153995545287
 20
11.217432336988516
  0
LWPOLYLINE
  5
1CE
330
17
100
AcDbEntity
  8
NUMBERS
100
AcDbPolyline
 90
4
 70
0
 10
14.671820662211953
 20
11.192432336988515
 10
14.671820662211953
 20
11.242432336988516
 10
14.705153995545286
 20
11.192432336988515
 10
14.705153995545286
 20
11.242432336988516
  0
LWPOLYLINE
  5
1CF
330
17
100
AcDbEntity
  8
NUMBERS
100
AcDbPolyline
 90
5
 70
0
 10
14.71848732887862
 20
11.192432336988515
 10
14.751820662211953
 20
11.192432336988515
 10
14.751820662211953
 20
11.242432336988516
 10
14.71848732887862
 20
11.242432336988516
 10
14.71848732887862
 20
11.192432336988515
  0
LWPOLYLINE
  5
1D0
330
17
100
AcDbEntity
  8
NUMBERS
100
AcDbPolyline
 90
2
 70
0
 10
14.71848732887862
 20
11.192432336988515
 10
14.751820662211953
 20
11.242432336988516
  0
LWPOLYLINE
  5
1D1
330
17
100
AcDbEntity
  8
NUMBERS
100
AcDbPolyline
 90
3
 70
0
 10
14.77348732887862
 20
11.234099003655182
 10
14.781820662211953
 20
11.242432336988516
 10
14.781820662211953
 20
11.192432336988515
  0
LWPOLYLINE
  5
1D2
330
17
100
AcDbEntity
  8
NUMBERS
100
AcDbPolyline
 90
2
 70
0
 10
14.77348732887862
 20
11.192432336988515
 10
14.790153995545285
 20
11.192432336988515
  0
LWPOLYLINE
  5
1D3
330
17
100
AcDbEntity
  8
NUMBERS
100
AcDbPolyline
 90
5
 70
0
 10
14.811820662211954
 20
11.192432336988515
 10
14.845153995545287
 20
11.192432336988515
 10
14.845153995545287
 20
11.217432336988516
 10
14.811820662211954
 20
11.217432336988516
 10
14.811820662211954
 20
11.192432336988515
  0
LWPOLYLINE
  5
1D4
330
17
100
AcDbEntity
  8
NUMBERS
100
AcDbPolyline
 90
4
 70
0
 10
14.81598732887862
 20
11.217432336988516
 10
14.81598732887862
 20
11.242432336988516
 10
14.840987328878619
 20
11.242432336988516
 10
14.840987328878619
 20
11.217432336988516
  0
LWPOLYLINE
  5
1D5
330
17
100
AcDbEntity
  8
NUMBERS
100
AcDbPolyline
 90
3
 70
0
 10
14.91348732887862
 20
11.234099003655182
 10
14.921820662211953
 20
11.242432336988516
 10
14.921820662211953
 20
11.192432336988515
  0
LWPOLYLINE
  5
1D6
330
17
100
AcDbEntity
  8
NUMBERS
100
AcDbPolyline
 90
2
 70
0
 10
14.91348732887862
 20
11.192432336988515
 10
14.930153995545286
 20
11.192432336988515
  0
LWPOLYLINE
  5
1D7
330
17
100
AcDbEntity
  8
NUMBERS
100
AcDbPolyline
 90
2
 70
0
 10
14.951820662211952
 20
11.192432336988515
 10
14.985153995545286
 20
11.242432336988516
  0
LWPOLYLINE
  5
1D8
330
17
100
AcDbEntity
  8
NUMBERS
100
AcDbPolyline
 90
7
 70
0
 10
14.99848732887862
 20
11.234099003655182
 10
15.006820662211952
 20
11.242432336988516
 10
15.02348732887862
 20
11.242432336988516
 10
15.031820662211953
 20
11.234099003655182
 10
15.031820662211953
 20
11.225765670321849
 10
14.99848732887862
 20
11.192432336988515
 10
15.031820662211953
 20
11.192432336988515
  0
LWPOLYLINE
  5
1D9
330
17
100
AcDbEntity
  8
NUMBERS
100
AcDbPolyline
 90
4
 70
0
 10
17.280957950919355
 20
11.561695105957133
 10
17.240957950919356
 20
11.561695105957133
 10
17.240957950919356
 20
11.501695105957133
 10
17.280957950919355
 20
11.501695105957133
  0
LWPOLYLINE
  5
1DA
330
17
100
AcDbEntity
  8
NUMBERS
100
AcDbPolyline
 90
2
 70
0
 10
17.240957950919356
 20
11.531695105957134
 10
17.270957950919357
 20
11.531695105957134
  0
LWPOLYLINE
  5
1DB
330
17
100
AcDbEntity
  8
NUMBERS
100
AcDbPolyline
 90
4
 70
0
 10
17.296957950919357
 20
11.501695105957133
 10
17.296957950919357
 20
11.561695105957133
 10
17.336957950919356
 20
11.501695105957133
 10
17.336957950919356
 20
11.561695105957133
  0
LWPOLYLINE
  5
1DC
330
17
100
AcDbEntity
  8
NUMBERS
100
AcDbPolyline
 90
5
 70
0
 10
17.352957950919354
 20
11.501695105957133
 10
17.392957950919357
 20
11.501695105957133
 10
17.392957950919357
 20
11.561695105957133
 10
17.352957950919354
 20
11.561695105957133
 10
17.352957950919354
 20
11.501695105957133
  0
LWPOLYLINE
  5
1DD
330
17
100
AcDbEntity
  8
NUMBERS
100
AcDbPolyline
 90
2
 70
0
 10
17.352957950919354
 20
11.501695105957133
 10
17.392957950919357
 20
11.561695105957133
  0
LWPOLYLINE
  5
1DE
330
17
100
AcDbEntity
  8
NUMBERS
100
AcDbPolyline
 90
3
 70
0
 10
17.418957950919356
 20
11.551695105957133
 10
17.428957950919354
 20
11.561695105957133
 10
17.428957950919354
 20
11.501695105957133
  0
LWPOLYLINE
  5
1DF
330
17
100
AcDbEntity
  8
NUMBERS
100
AcDbPolyline
 90
2
 70
0
 10
17.418957950919356
 20
11.501695105957133
 10
17.438957950919356
 20
11.501695105957133
  0
LWPOLYLINE
  5
1E0
330
17
100
AcDbEntity
  8
NUMBERS
100
AcDbPolyline
 90
5
 70
0
 10
17.464957950919356
 20
11.501695105957133
 10
17.504957950919355
 20
11.501695105957133
 10
17.504957950919355
 20
11.531695105957134
 10
17.464957950919356
 20
11.531695105957134
 10
17.464957950919356
 20
11.501695105957133
  0
LWPOLYLINE
  5
1E1
330
17
100
AcDbEntity
  8
NUMBERS
100
AcDbPolyline
 90
4
 70
0
 10
17.469957950919355
 20
11.531695105957134
 10
17.469957950919355
 20
11.561695105957133
 10
17.499957950919356
 20
11.561695105957133
 10
17.499957950919356
 20
11.531695105957134
  0
LWPOLYLINE
  5
1E2
330
17
100
AcDbEntity
  8
NUMBERS
100
AcDbPolyline
 90
4
 70
0
 10
17.067509469062916
 20
11.242432336988516
 10
17.03417613572958
 20
11.242432336988516
 10
17.03417613572958
 20
11.192432336988515
 10
17.067509469062916
 20
11.192432336988515
  0
LWPOLYLINE
  5
1E3
330
17
100
AcDbEntity
  8
NUMBERS
100
AcDbPolyline
 90
2
 70
0
 10
17.03417613572958
 20
11.217432336988516
 10
17.05917613572958
 20
11.217432336988516
  0
LWPOLYLINE
  5
1E4
330
17
100
AcDbEntity
  8
NUMBERS
100
AcDbPolyline
 90
4
 70
0
 10
17.080842802396248
 20
11.192432336988515
 10
17.080842802396248
 20
11.242432336988516
 10
17.11417613572958
 20
11.192432336988515
 10
17.11417613572958
 20
11.242432336988516
  0
LWPOLYLINE
  5
1E5
330
17
100
AcDbEntity
  8
NUMBERS
100
AcDbPolyline
 90
5
 70
0
 10
17.127509469062915
 20
11.192432336988515
 10
17.160842802396246
 20
11.192432336988515
 10
17.160842802396246
 20
11.242432336988516
 10
17.127509469062915
 20
11.242432336988516
 10
17.127509469062915
 20
11.192432336988515
  0
LWPOLYLINE
  5
1E6
330
17
100
AcDbEntity
  8
NUMBERS
100
AcDbPolyline
 90
2
 70
0
 10
17.127509469062915
 20
11.192432336988515
 10
17.160842802396246
 20
11.242432336988516
  0
LWPOLYLINE
  5
1E7
330
17
100
AcDbEntity
  8
NUMBERS
100
AcDbPolyline
 90
3
 70
0
 10
17.182509469062914
 20
11.234099003655182
 10
17.190842802396247
 20
11.242432336988516
 10
17.190842802396247
 20
11.192432336988515
  0
LWPOLYLINE
  5
1E8
330
17
100
AcDbEntity
  8
NUMBERS
100
AcDbPolyline
 90
2
 70
0
 10
17.182509469062914
 20
11.192432336988515
 10
17.19917613572958
 20
11.192432336988515
  0
LWPOLYLINE
  5
1E9
330
17
100
AcDbEntity
  8
NUMBERS
100
AcDbPolyline
 90
5
 70
0
 10
17.22084280239625
 20
11.192432336988515
 10
17.25417613572958
 20
11.192432336988515
 10
17.25417613572958
 20
11.217432336988516
 10
17.22084280239625
 20
11.217432336988516
 10
17.22084280239625
 20
11.192432336988515
  0
LWPOLYLINE
  5
1EA
330
17
100
AcDbEntity
  8
NUMBERS
100
AcDbPolyline
 90
4
 70
0
 10
17.225009469062915
 20
11.217432336988516
 10
17.225009469062915
 20
11.242432336988516
 10
17.250009469062913
 20
11.242432336988516
 10
17.250009469062913
 20
11.217432336988516
  0
LWPOLYLINE
  5
1EB
330
17
100
AcDbEntity
  8
NUMBERS
100
AcDbPolyline
 90
7
 70
0
 10
17.314176135729582
 20
11.234099003655182
 10
17.322509469062915
 20
11.242432336988516
 10
17.33917613572958
 20
11.242432336988516
 10
17.347509469062913
 20
11.234099003655182
 10
17.347509469062913
 20
11.225765670321849
 10
17.314176135729582
 20
11.192432336988515
 10
17.347509469062913
 20
11.192432336988515
  0
LWPOLYLINE
  5
1EC
330
17
100
AcDbEntity
  8
NUMBERS
100
AcDbPolyline
 90
2
 70
0
 10
17.36084280239625
 20
11.192432336988515
 10
17.39417613572958
 20
11.242432336988516
  0
LWPOLYLINE
  5
1ED
330
17
100
AcDbEntity
  8
NUMBERS
100
AcDbPolyline
 90
7
 70
0
 10
17.407509469062916
 20
11.234099003655182
 10
17.41584280239625
 20
11.242432336988516
 10
17.432509469062914
 20
11.242432336988516
 10
17.440842802396247
 20
11.234099003655182
 10
17.440842802396247
 20
11.225765670321849
 10
17.407509469062916
 20
11.192432336988515
 10
17.440842802396247
 20
11.192432336988515
  0
LWPOLYLINE
  5
1EE
330
17
100
AcDbEntity
  8
NUMBERS
100
AcDbPolyline
 90
5
 70
0
 10
5.59584731317641
 20
11.646451546853024
 10
5.103721328924442
 20
11.646451546853024
 10
5.103721328924442
 20
11.860261834265197
 10
5.349784321050426
 20
11.860261834265197
 10
5.349784321050426
 20
11.646451546853024
  0
LWPOLYLINE
  5
1EF
330
17
100
AcDbEntity
  8
NUMBERS
100
AcDbPolyline
 90
2
 70
0
 10
5.59584731317641
 20
11.999238521083111
 10
5.59584731317641
 20
12.106143664789197
  0
LWPOLYLINE
  5
1F0
330
17
100
AcDbEntity
  8
NUMBERS
100
AcDbPolyline
 90
2
 70
0
 10
5.59584731317641
 20
12.052691092936154
 10
5.103721328924442
 20
12.052691092936154
  0
LWPOLYLINE
  5
1F1
330
17
100
AcDbEntity
  8
NUMBERS
100
AcDbPolyline
 90
2
 70
0
 10
5.103721328924442
 20
11.999238521083111
 10
5.103721328924442
 20
12.106143664789197
  0
LWPOLYLINE
  5
1F2
330
17
100
AcDbEntity
  8
NUMBERS
100
AcDbPolyline
 90
6
 70
0
 10
5.103721328924442
 20
12.458930639019282
 10
5.103721328924442
 20
12.24512035160711
 10
5.349784321050426
 20
12.24512035160711
 10
5.349784321050426
 20
12.458930639019282
 10
5.59584731317641
 20
12.458930639019282
 10
5.59584731317641
 20
12.24512035160711
  0
LWPOLYLINE
  5
1F3
330
17
100
AcDbEntity
  8
NUMBERS
100
AcDbPolyline
 90
4
 70
0
 10
5.103721328924442
 20
12.758265041396324
 10
5.103721328924442
 20
12.544454753984152
 10
5.59584731317641
 20
12.544454753984152
 10
5.59584731317641
 20
12.758265041396324
  0
LWPOLYLINE
  5
1F4
330
17
100
AcDbEntity
  8
NUMBERS
100
AcDbPolyline
 90
2
 70
0
 10
5.59584731317641
 20
12.897241728214237
 10
5.59584731317641
 20
13.004146871920323
  0
LWPOLYLINE
  5
1F5
330
17
100
AcDbEntity
  8
NUMBERS
100
AcDbPolyline
 90
2
 70
0
 10
5.59584731317641
 20
12.95069430006728
 10
5.103721328924442
 20
12.95069430006728
  0
LWPOLYLINE
  5
1F6
330
17
100
AcDbEntity
  8
NUMBERS
100
AcDbPolyline
 90
2
 70
0
 10
5.103721328924442
 20
12.897241728214237
 10
5.103721328924442
 20
13.004146871920323
  0
LWPOLYLINE
  5
1F7
330
17
100
AcDbEntity
  8
NUMBERS
100
AcDbPolyline
 90
4
 70
0
 10
5.59584731317641
 20
13.143123558738235
 10
5.103721328924442
 20
13.143123558738235
 10
5.59584731317641
 20
13.35693384615041
 10
5.103721328924442
 20
13.35693384615041
  0
LWPOLYLINE
  5
1F8
330
17
100
AcDbEntity
  8
NUMBERS
100
AcDbPolyline
 90
4
 70
0
 10
5.103721328924442
 20
13.656268248527452
 10
5.103721328924442
 20
13.442457961115277
 10
5.59584731317641
 20
13.442457961115277
 10
5.59584731317641
 20
13.656268248527452
  0
LWPOLYLINE
  5
1F9
330
17
100
AcDbEntity
  8
NUMBERS
100
AcDbPolyline
 90
2
 70
0
 10
5.349784321050426
 20
13.442457961115277
 10
5.349784321050426
 20
13.602815676674407
  0
LWPOLYLINE
  5
1FA
330
17
100
AcDbEntity
  8
NUMBERS
100
AcDbPolyline
 90
4
 70
0
 10
5.676857811864074
 20
11.500254445763039
 10
5.676857811864074
 20
11.466921112429706
 10
5.726857811864074
 20
11.466921112429706
 10
5.726857811864074
 20
11.500254445763039
  0
LWPOLYLINE
  5
1FB
330
17
100
AcDbEntity
  8
NUMBERS
100
AcDbPolyline
 90
2
 70
0
 10
5.701857811864074
 20
11.466921112429706
 10
5.701857811864074
 20
11.491921112429706
  0
LWPOLYLINE
  5
1FC
330
17
100
AcDbEntity
  8
NUMBERS
100
AcDbPolyline
 90
4
 70
0
 10
5.726857811864074
 20
11.513587779096373
 10
5.676857811864074
 20
11.513587779096373
 10
5.726857811864074
 20
11.546921112429706
 10
5.676857811864074
 20
11.546921112429706
  0
LWPOLYLINE
  5
1FD
330
17
100
AcDbEntity
  8
NUMBERS
100
AcDbPolyline
 90
5
 70
0
 10
5.726857811864074
 20
11.56025444576304
 10
5.726857811864074
 20
11.593587779096373
 10
5.676857811864074
 20
11.593587779096373
 10
5.676857811864074
 20
11.56025444576304
 10
5.726857811864074
 20
11.56025444576304
  0
LWPOLYLINE
  5
1FE
330
17
100
AcDbEntity
  8
NUMBERS
100
AcDbPolyline
 90
2
 70
0
 10
5.726857811864074
 20
11.56025444576304
 10
5.676857811864074
 20
11.593587779096373
  0
LWPOLYLINE
  5
1FF
330
17
100
AcDbEntity
  8
NUMBERS
100
AcDbPolyline
 90
5
 70
0
 10
5.726857811864074
 20
11.606921112429706
 10
5.726857811864074
 20
11.64025444576304
 10
5.676857811864074
 20
11.64025444576304
 10
5.676857811864074
 20
11.606921112429706
 10
5.726857811864074
 20
11.606921112429706
  0
LWPOLYLINE
  5
200
330
17
100
AcDbEntity
  8
NUMBERS
100
AcDbPolyline
 90
2
 70
0
 10
5.726857811864074
 20
11.606921112429706
 10
5.676857811864074
 20
11.64025444576304
  0
LWPOLYLINE
  5
201
330
17
100
AcDbEntity
  8
NUMBERS
100
AcDbPolyline
 90
3
 70
0
 10
5.6851911451974075
 20
11.661921112429706
 10
5.676857811864074
 20
11.670254445763039
 10
5.726857811864074
 20
11.670254445763039
  0
LWPOLYLINE
  5
202
330
17
100
AcDbEntity
  8
NUMBERS
100
AcDbPolyline
 90
2
 70
0
 10
5.726857811864074
 20
11.661921112429706
 10
5.726857811864074
 20
11.678587779096372
  0
LWPOLYLINE
  5
203
330
17
100
AcDbEntity
  8
NUMBERS
100
AcDbPolyline
 90
4
 70
0
 10
5.9528578118640745
 20
11.562921112429706
 10
5.9128578118640736
 20
11.562921112429706
 10
5.9128578118640736
 20
11.502921112429705
 10
5.9528578118640745
 20
11.502921112429705
  0
LWPOLYLINE
  5
204
330
17
100
AcDbEntity
  8
NUMBERS
100
AcDbPolyline
 90
2
 70
0
 10
5.9128578118640736
 20
11.532921112429705
 10
5.942857811864074
 20
11.532921112429705
  0
LWPOLYLINE
  5
205
330
17
100
AcDbEntity
  8
NUMBERS
100
AcDbPolyline
 90
4
 70
0
 10
5.9688578118640745
 20
11.502921112429705
 10
5.9688578118640745
 20
11.562921112429706
 10
6.008857811864074
 20
11.502921112429705
 10
6.008857811864074
 20
11.562921112429706
  0
LWPOLYLINE
  5
206
330
17
100
AcDbEntity
  8
NUMBERS
100
AcDbPolyline
 90
5
 70
0
 10
6.024857811864074
 20
11.502921112429705
 10
6.064857811864074
 20
11.502921112429705
 10
6.064857811864074
 20
11.562921112429706
 10
6.024857811864074
 20
11.562921112429706
 10
6.024857811864074
 20
11.502921112429705
  0
LWPOLYLINE
  5
207
330
17
100
AcDbEntity
  8
NUMBERS
100
AcDbPolyline
 90
2
 70
0
 10
6.024857811864074
 20
11.502921112429705
 10
6.064857811864074
 20
11.562921112429706
  0
LWPOLYLINE
  5
208
330
17
100
AcDbEntity
  8
NUMBERS
100
AcDbPolyline
 90
3
 70
0
 10
6.090857811864074
 20
11.552921112429706
 10
6.100857811864074
 20
11.562921112429706
 10
6.100857811864074
 20
11.502921112429705
  0
LWPOLYLINE
  5
209
330
17
100
AcDbEntity
  8
NUMBERS
100
AcDbPolyline
 90
2
 70
0
 10
6.090857811864074
 20
11.502921112429705
 10
6.110857811864074
 20
11.502921112429705
  0
LWPOLYLINE
  5
20A
330
17
100
AcDbEntity
  8
NUMBERS
100
AcDbPolyline
 90
7
 70
0
 10
6.136857811864074
 20
11.552921112429706
 10
6.1468578118640735
 20
11.562921112429706
 10
6.166857811864074
 20
11.562921112429706
 10
6.176857811864074
 20
11.552921112429706
 10
6.176857811864074
 20
11.542921112429706
 10
6.136857811864074
 20
11.502921112429705
 10
6.176857811864074
 20
11.502921112429705
  0
LWPOLYLINE
  5
20B
330
17
100
AcDbEntity
  8
NUMBERS
100
AcDbPolyline
 90
4
 70
0
 10
6.865428167741796
 20
11.500254445763039
 10
6.865428167741796
 20
11.466921112429706
 10
6.915428167741796
 20
11.466921112429706
 10
6.915428167741796
 20
11.500254445763039
  0
LWPOLYLINE
  5
20C
330
17
100
AcDbEntity
  8
NUMBERS
100
AcDbPolyline
 90
2
 70
0
 10
6.8904281677417965
 20
11.466921112429706
 10
6.8904281677417965
 20
11.491921112429706
  0
LWPOLYLINE
  5
20D
330
17
100
AcDbEntity
  8
NUMBERS
100
AcDbPolyline
 90
4
 70
0
 10
6.915428167741796
 20
11.513587779096373
 10
6.865428167741796
 20
11.513587779096373
 10
6.915428167741796
 20
11.546921112429706
 10
6.865428167741796
 20
11.546921112429706
  0
LWPOLYLINE
  5
20E
330
17
100
AcDbEntity
  8
NUMBERS
100
AcDbPolyline
 90
5
 70
0
 10
6.915428167741796
 20
11.56025444576304
 10
6.915428167741796
 20
11.593587779096373
 10
6.865428167741796
 20
11.593587779096373
 10
6.865428167741796
 20
11.56025444576304
 10
6.915428167741796
 20
11.56025444576304
  0
LWPOLYLINE
  5
20F
330
17
100
AcDbEntity
  8
NUMBERS
100
AcDbPolyline
 90
2
 70
0
 10
6.915428167741796
 20
11.56025444576304
 10
6.865428167741796
 20
11.593587779096373
  0
LWPOLYLINE
  5
210
330
17
100
AcDbEntity
  8
NUMBERS
100
AcDbPolyline
 90
3
 70
0
 10
6.87376150107513
 20
11.61525444576304
 10
6.865428167741796
 20
11.623587779096372
 10
6.915428167741796
 20
11.623587779096372
  0
LWPOLYLINE
  5
211
330
17
100
AcDbEntity
  8
NUMBERS
100
AcDbPolyline
 90
2
 70
0
 10
6.915428167741796
 20
11.61525444576304
 10
6.915428167741796
 20
11.631921112429705
  0
LWPOLYLINE
  5
212
330
17
100
AcDbEntity
  8
NUMBERS
100
AcDbPolyline
 90
7
 70
0
 10
6.87376150107513
 20
11.653587779096373
 10
6.865428167741796
 20
11.661921112429706
 10
6.865428167741796
 20
11.678587779096372
 10
6.87376150107513
 20
11.686921112429706
 10
6.882094834408463
 20
11.686921112429706
 10
6.915428167741796
 20
11.653587779096373
 10
6.915428167741796
 20
11.686921112429706
  0
LWPOLYLINE
  5
213
330
17
100
AcDbEntity
  8
NUMBERS
100
AcDbPolyline
 90
3
 70
0
 10
6.87376150107513
 20
11.75525444576304
 10
6.865428167741796
 20
11.763587779096373
 10
6.915428167741796
 20
11.763587779096373
  0
LWPOLYLINE
  5
214
330
17
100
AcDbEntity
  8
NUMBERS
100
AcDbPolyline
 90
2
 70
0
 10
6.915428167741796
 20
11.75525444576304
 10
6.915428167741796
 20
11.771921112429705
  0
LWPOLYLINE
  5
215
330
17
100
AcDbEntity
  8
NUMBERS
100
AcDbPolyline
 90
2
 70
0
 10
6.915428167741796
 20
11.793587779096372
 10
6.865428167741796
 20
11.826921112429705
  0
LWPOLYLINE
  5
216
330
17
100
AcDbEntity
  8
NUMBERS
100
AcDbPolyline
 90
7
 70
0
 10
6.87376150107513
 20
11.840254445763039
 10
6.865428167741796
 20
11.848587779096372
 10
6.865428167741796
 20
11.86525444576304
 10
6.87376150107513
 20
11.873587779096372
 10
6.882094834408463
 20
11.873587779096372
 10
6.915428167741796
 20
11.840254445763039
 10
6.915428167741796
 20
11.873587779096372
  0
LWPOLYLINE
  5
217
330
17
100
AcDbEntity
  8
NUMBERS
100
AcDbPolyline
 90
4
 70
0
 10
7.161428167741796
 20
12.429491468307429
 10
7.161428167741796
 20
12.469491468307428
 10
7.101428167741796
 20
12.469491468307428
 10
7.101428167741796
 20
12.429491468307429
  0
LWPOLYLINE
  5
218
330
17
100
AcDbEntity
  8
NUMBERS
100
AcDbPolyline
 90
2
 70
0
 10
7.131428167741796
 20
12.469491468307428
 10
7.131428167741796
 20
12.439491468307429
  0
LWPOLYLINE
  5
219
330
17
100
AcDbEntity
  8
NUMBERS
100
AcDbPolyline
 90
4
 70
0
 10
7.101428167741796
 20
12.413491468307427
 10
7.161428167741796
 20
12.413491468307427
 10
7.101428167741796
 20
12.373491468307428
 10
7.161428167741796
 20
12.373491468307428
  0
LWPOLYLINE
  5
21A
330
17
100
AcDbEntity
  8
NUMBERS
100
AcDbPolyline
 90
5
 70
0
 10
7.101428167741796
 20
12.357491468307428
 10
7.101428167741796
 20
12.317491468307429
 10
7.161428167741796
 20
12.317491468307429
 10
7.161428167741796
 20
12.357491468307428
 10
7.101428167741796
 20
12.357491468307428
  0
LWPOLYLINE
  5
21B
330
17
100
AcDbEntity
  8
NUMBERS
100
AcDbPolyline
 90
2
 70
0
 10
7.101428167741796
 20
12.357491468307428
 10
7.161428167741796
 20
12.317491468307429
  0
LWPOLYLINE
  5
21C
330
17
100
AcDbEntity
  8
NUMBERS
100
AcDbPolyline
 90
3
 70
0
 10
7.151428167741797
 20
12.291491468307427
 10
7.161428167741796
 20
12.281491468307427
 10
7.101428167741796
 20
12.281491468307427
  0
LWPOLYLINE
  5
21D
330
17
100
AcDbEntity
  8
NUMBERS
100
AcDbPolyline
 90
2
 70
0
 10
7.101428167741796
 20
12.291491468307427
 10
7.101428167741796
 20
12.271491468307428
  0
LWPOLYLINE
  5
21E
330
17
100
AcDbEntity
  8
NUMBERS
100
AcDbPolyline
 90
7
 70
0
 10
7.151428167741797
 20
12.245491468307428
 10
7.161428167741796
 20
12.235491468307428
 10
7.161428167741796
 20
12.215491468307428
 10
7.151428167741797
 20
12.205491468307429
 10
7.141428167741796
 20
12.205491468307429
 10
7.101428167741796
 20
12.245491468307428
 10
7.101428167741796
 20
12.205491468307429
  0
LWPOLYLINE
  5
21F
330
17
100
AcDbEntity
  8
NUMBERS
100
AcDbPolyline
 90
4
 70
0
 10
7.0987615010751295
 20
11.516921112429706
 10
7.065428167741796
 20
11.516921112429706
 10
7.065428167741796
 20
11.466921112429706
 10
7.0987615010751295
 20
11.466921112429706
  0
LWPOLYLINE
  5
220
330
17
100
AcDbEntity
  8
NUMBERS
100
AcDbPolyline
 90
2
 70
0
 10
7.065428167741796
 20
11.491921112429706
 10
7.090428167741797
 20
11.491921112429706
  0
LWPOLYLINE
  5
221
330
17
100
AcDbEntity
  8
NUMBERS
100
AcDbPolyline
 90
4
 70
0
 10
7.112094834408463
 20
11.466921112429706
 10
7.112094834408463
 20
11.516921112429706
 10
7.145428167741796
 20
11.466921112429706
 10
7.145428167741796
 20
11.516921112429706
  0
LWPOLYLINE
  5
222
330
17
100
AcDbEntity
  8
NUMBERS
100
AcDbPolyline
 90
5
 70
0
 10
7.15876150107513
 20
11.466921112429706
 10
7.192094834408463
 20
11.466921112429706
 10
7.192094834408463
 20
11.516921112429706
 10
7.15876150107513
 20
11.516921112429706
 10
7.15876150107513
 20
11.466921112429706
  0
LWPOLYLINE
  5
223
330
17
100
AcDbEntity
  8
NUMBERS
100
AcDbPolyline
 90
2
 70
0
 10
7.15876150107513
 20
11.466921112429706
 10
7.192094834408463
 20
11.516921112429706
  0
LWPOLYLINE
  5
224
330
17
100
AcDbEntity
  8
NUMBERS
100
AcDbPolyline
 90
3
 70
0
 10
7.21376150107513
 20
11.508587779096372
 10
7.222094834408463
 20
11.516921112429706
 10
7.222094834408463
 20
11.466921112429706
  0
LWPOLYLINE
  5
225
330
17
100
AcDbEntity
  8
NUMBERS
100
AcDbPolyline
 90
2
 70
0
 10
7.21376150107513
 20
11.466921112429706
 10
7.230428167741796
 20
11.466921112429706
  0
LWPOLYLINE
  5
226
330
17
100
AcDbEntity
  8
NUMBERS
100
AcDbPolyline
 90
7
 70
0
 10
7.252094834408463
 20
11.508587779096372
 10
7.260428167741797
 20
11.516921112429706
 10
7.277094834408463
 20
11.516921112429706
 10
7.285428167741796
 20
11.508587779096372
 10
7.285428167741796
 20
11.500254445763039
 10
7.252094834408463
 20
11.466921112429706
 10
7.285428167741796
 20
11.466921112429706
  0
LWPOLYLINE
  5
227
330
17
100
AcDbEntity
  8
NUMBERS
100
AcDbPolyline
 90
7
 70
0
 10
7.3454281677417965
 20
11.508587779096372
 10
7.353761501075129
 20
11.516921112429706
 10
7.370428167741796
 20
11.516921112429706
 10
7.37876150107513
 20
11.508587779096372
 10
7.37876150107513
 20
11.500254445763039
 10
7.3454281677417965
 20
11.466921112429706
 10
7.37876150107513
 20
11.466921112429706
  0
LWPOLYLINE
  5
228
330
17
100
AcDbEntity
  8
NUMBERS
100
AcDbPolyline
 90
2
 70
0
 10
7.3920948344084625
 20
11.466921112429706
 10
7.425428167741797
 20
11.516921112429706
  0
LWPOLYLINE
  5
229
330
17
100
AcDbEntity
  8
NUMBERS
100
AcDbPolyline
 90
7
 70
0
 10
7.438761501075129
 20
11.508587779096372
 10
7.447094834408463
 20
11.516921112429706
 10
7.46376150107513
 20
11.516921112429706
 10
7.472094834408463
 20
11.508587779096372
 10
7.472094834408463
 20
11.500254445763039
 10
7.438761501075129
 20
11.466921112429706
 10
7.472094834408463
 20
11.466921112429706
  0
LWPOLYLINE
  5
22A
330
17
100
AcDbEntity
  8
NUMBERS
100
AcDbPolyline
 90
4
 70
0
 10
9.47493220323846
 20
13.282348063096556
 10
9.47493220323846
 20
13.322348063096555
 10
9.41493220323846
 20
13.322348063096555
 10
9.41493220323846
 20
13.282348063096556
  0
LWPOLYLINE
  5
22B
330
17
100
AcDbEntity
  8
NUMBERS
100
AcDbPolyline
 90
2
 70
0
 10
9.44493220323846
 20
13.322348063096555
 10
9.44493220323846
 20
13.292348063096556
  0
LWPOLYLINE
  5
22C
330
17
100
AcDbEntity
  8
NUMBERS
100
AcDbPolyline
 90
4
 70
0
 10
9.41493220323846
 20
13.266348063096556
 10
9.47493220323846
 20
13.266348063096556
 10
9.41493220323846
 20
13.226348063096555
 10
9.47493220323846
 20
13.226348063096555
  0
LWPOLYLINE
  5
22D
330
17
100
AcDbEntity
  8
NUMBERS
100
AcDbPolyline
 90
5
 70
0
 10
9.41493220323846
 20
13.210348063096555
 10
9.41493220323846
 20
13.170348063096556
 10
9.47493220323846
 20
13.170348063096556
 10
9.47493220323846
 20
13.210348063096555
 10
9.41493220323846
 20
13.210348063096555
  0
LWPOLYLINE
  5
22E
330
17
100
AcDbEntity
  8
NUMBERS
100
AcDbPolyline
 90
2
 70
0
 10
9.41493220323846
 20
13.210348063096555
 10
9.47493220323846
 20
13.170348063096556
  0
LWPOLYLINE
  5
22F
330
17
100
AcDbEntity
  8
NUMBERS
100
AcDbPolyline
 90
3
 70
0
 10
9.46493220323846
 20
13.144348063096556
 10
9.47493220323846
 20
13.134348063096557
 10
9.41493220323846
 20
13.134348063096557
  0
LWPOLYLINE
  5
230
330
17
100
AcDbEntity
  8
NUMBERS
100
AcDbPolyline
 90
2
 70
0
 10
9.41493220323846
 20
13.144348063096556
 10
9.41493220323846
 20
13.124348063096557
  0
LWPOLYLINE
  5
231
330
17
100
AcDbEntity
  8
NUMBERS
100
AcDbPolyline
 90
7
 70
0
 10
9.47493220323846
 20
13.098348063096555
 10
9.47493220323846
 20
13.058348063096556
 10
9.44993220323846
 20
13.078348063096556
 10
9.43993220323846
 20
13.058348063096556
 10
9.424932203238459
 20
13.058348063096556
 10
9.41493220323846
 20
13.068348063096556
 10
9.41493220323846
 20
13.098348063096555
  0
LWPOLYLINE
  5
232
330
17
100
AcDbEntity
  8
NUMBERS
100
AcDbPolyline
 90
4
 70
0
 10
11.768236009012739
 20
11.652921112429706
 10
11.728236009012738
 20
11.652921112429706
 10
11.728236009012738
 20
11.592921112429705
 10
11.768236009012739
 20
11.592921112429705
  0
LWPOLYLINE
  5
233
330
17
100
AcDbEntity
  8
NUMBERS
100
AcDbPolyline
 90
2
 70
0
 10
11.728236009012738
 20
11.622921112429706
 10
11.75823600901274
 20
11.622921112429706
  0
LWPOLYLINE
  5
234
330
17
100
AcDbEntity
  8
NUMBERS
100
AcDbPolyline
 90
4
 70
0
 10
11.784236009012739
 20
11.592921112429705
 10
11.784236009012739
 20
11.652921112429706
 10
11.824236009012738
 20
11.592921112429705
 10
11.824236009012738
 20
11.652921112429706
  0
LWPOLYLINE
  5
235
330
17
100
AcDbEntity
  8
NUMBERS
100
AcDbPolyline
 90
5
 70
0
 10
11.840236009012738
 20
11.592921112429705
 10
11.880236009012739
 20
11.592921112429705
 10
11.880236009012739
 20
11.652921112429706
 10
11.840236009012738
 20
11.652921112429706
 10
11.840236009012738
 20
11.592921112429705
  0
LWPOLYLINE
  5
236
330
17
100
AcDbEntity
  8
NUMBERS
100
AcDbPolyline
 90
2
 70
0
 10
11.840236009012738
 20
11.592921112429705
 10
11.880236009012739
 20
11.652921112429706
  0
LWPOLYLINE
  5
237
330
17
100
AcDbEntity
  8
NUMBERS
100
AcDbPolyline
 90
5
 70
0
 10
11.896236009012739
 20
11.592921112429705
 10
11.936236009012738
 20
11.592921112429705
 10
11.936236009012738
 20
11.652921112429706
 10
11.896236009012739
 20
11.652921112429706
 10
11.896236009012739
 20
11.592921112429705
  0
LWPOLYLINE
  5
238
330
17
100
AcDbEntity
  8
NUMBERS
100
AcDbPolyline
 90
2
 70
0
 10
11.896236009012739
 20
11.592921112429705
 10
11.936236009012738
 20
11.652921112429706
  0
LWPOLYLINE
  5
239
330
17
100
AcDbEntity
  8
NUMBERS
100
AcDbPolyline
 90
7
 70
0
 10
11.952236009012738
 20
11.642921112429706
 10
11.962236009012738
 20
11.652921112429706
 10
11.982236009012738
 20
11.652921112429706
 10
11.99223600901274
 20
11.642921112429706
 10
11.99223600901274
 20
11.632921112429706
 10
11.952236009012738
 20
11.592921112429705
 10
11.99223600901274
 20
11.592921112429705
  0
LWPOLYLINE
  5
23A
330
17
100
AcDbEntity
  8
NUMBERS
100
AcDbPolyline
 90
6
 70
0
 10
24.966658632088247
 20
1.5570093052135932
 10
25.02665863208825
 20
1.557009305213594
 10
25.02665863208825
 20
1.517009305213594
 10
24.996658632088252
 20
1.517009305213594
 10
24.99665863208825
 20
1.557009305213595
 10
24.96665863208825
 20
1.517009305213595
  0
LWPOLYLINE
  5
23B
330
17
100
AcDbEntity
  8
NUMBERS
100
AcDbPolyline
 90
3
 70
0
 10
25.02665863208825
 20
1.461009305213594
 10
25.02665863208825
 20
1.501009305213593
 10
24.966658632088247
 20
1.501009305213594
  0
LWPOLYLINE
  5
23C
330
17
100
AcDbEntity
  8
NUMBERS
100
AcDbPolyline
 90
2
 70
0
 10
24.99665863208825
 20
1.501009305213594
 10
24.99665863208825
 20
1.4710093052135937
  0
LWPOLYLINE
  5
23D
330
17
100
AcDbEntity
  8
NUMBERS
100
AcDbPolyline
 90
5
 70
0
 10
24.966658632088247
 20
1.4450093052135948
 10
24.966658632088247
 20
1.405009305213594
 10
25.02665863208825
 20
1.405009305213594
 10
25.02665863208825
 20
1.445009305213594
 10
24.966658632088247
 20
1.4450093052135948
  0
LWPOLYLINE
  5
23E
330
17
100
AcDbEntity
  8
NUMBERS
100
AcDbPolyline
 90
2
 70
0
 10
24.966658632088247
 20
1.4450093052135948
 10
25.02665863208825
 20
1.405009305213594
  0
LWPOLYLINE
  5
23F
330
17
100
AcDbEntity
  8
NUMBERS
100
AcDbPolyline
 90
5
 70
0
 10
24.966658632088247
 20
1.389009305213594
 10
24.966658632088247
 20
1.3490093052135939
 10
25.02665863208825
 20
1.3490093052135939
 10
25.02665863208825
 20
1.389009305213594
 10
24.966658632088247
 20
1.389009305213594
  0
LWPOLYLINE
  5
240
330
17
100
AcDbEntity
  8
NUMBERS
100
AcDbPolyline
 90
2
 70
0
 10
24.966658632088247
 20
1.389009305213594
 10
25.02665863208825
 20
1.3490093052135939
  0
LWPOLYLINE
  5
241
330
17
100
AcDbEntity
  8
NUMBERS
100
AcDbPolyline
 90
8
 70
0
 10
25.02665863208825
 20
1.2930093052135947
 10
25.02665863208825
 20
1.3330093052135938
 10
25.001658632088247
 20
1.3330093052135947
 10
25.00165863208825
 20
1.3030093052135936
 10
24.99165863208825
 20
1.2930093052135938
 10
24.97665863208825
 20
1.2930093052135947
 10
24.966658632088247
 20
1.3030093052135945
 10
24.966658632088247
 20
1.3330093052135947
  0
LWPOLYLINE
  5
242
330
17
100
AcDbEntity
  8
NUMBERS
100
AcDbPolyline
 90
6
 70
0
 10
0.6033333333333334
 20
0.28
 10
0.55
 20
0.28
 10
0.55
 20
0.24000000000000002
 10
0.6033333333333334
 20
0.24000000000000002
 10
0.6033333333333334
 20
0.2
 10
0.55
 20
0.2
  0
LWPOLYLINE
  5
243
330
17
100
AcDbEntity
  8
NUMBERS
100
AcDbPolyline
 90
2
 70
0
 10
0.6246666666666667
 20
0.2
 10
0.6246666666666667
 20
0.28
  0
LWPOLYLINE
  5
244
330
17
100
AcDbEntity
  8
NUMBERS
100
AcDbPolyline
 90
2
 70
0
 10
0.678
 20
0.2
 10
0.678
 20
0.28
  0
LWPOLYLINE
  5
245
330
17
100
AcDbEntity
  8
NUMBERS
100
AcDbPolyline
 90
2
 70
0
 10
0.6246666666666667
 20
0.24000000000000002
 10
0.678
 20
0.24000000000000002
  0
LWPOLYLINE
  5
246
330
17
100
AcDbEntity
  8
NUMBERS
100
AcDbPolyline
 90
4
 70
0
 10
0.7526666666666667
 20
0.28
 10
0.6993333333333334
 20
0.28
 10
0.6993333333333334
 20
0.2
 10
0.7526666666666667
 20
0.2
  0
LWPOLYLINE
  5
247
330
17
100
AcDbEntity
  8
NUMBERS
100
AcDbPolyline
 90
2
 70
0
 10
0.6993333333333334
 20
0.24000000000000002
 10
0.7393333333333334
 20
0.24000000000000002
  0
LWPOLYLINE
  5
248
330
17
100
AcDbEntity
  8
NUMBERS
100
AcDbPolyline
 90
4
 70
0
 10
0.8273333333333334
 20
0.28
 10
0.774
 20
0.28
 10
0.774
 20
0.2
 10
0.8273333333333334
 20
0.2
  0
LWPOLYLINE
  5
249
330
17
100
AcDbEntity
  8
NUMBERS
100
AcDbPolyline
 90
2
 70
0
 10
0.774
 20
0.24000000000000002
 10
0.8140000000000001
 20
0.24000000000000002
  0
LWPOLYLINE
  5
24A
330
17
100
AcDbEntity
  8
NUMBERS
100
AcDbPolyline
 90
2
 70
0
 10
0.8486666666666667
 20
0.28
 10
0.902
 20
0.28
  0
LWPOLYLINE
  5
24B
330
17
100
AcDbEntity
  8
NUMBERS
100
AcDbPolyline
 90
2
 70
0
 10
0.8753333333333333
 20
0.28
 10
0.8753333333333333
 20
0.2
  0
LWPOLYLINE
  5
24C
330
17
100
AcDbEntity
  8
NUMBERS
100
AcDbPolyline
 90
2
 70
0
 10
0.9300000000000002
 20
0.24000000000000002
 10
0.9700000000000001
 20
0.24000000000000002
  0
LWPOLYLINE
  5
24D
330
17
100
AcDbEntity
  8
NUMBERS
100
AcDbPolyline
 90
5
 70
0
 10
0.998
 20
0.2
 10
1.0513333333333335
 20
0.2
 10
1.0513333333333335
 20
0.28
 10
0.998
 20
0.28
 10
0.998
 20
0.2
  0
LWPOLYLINE
  5
24E
330
17
100
AcDbEntity
  8
NUMBERS
100
AcDbPolyline
 90
2
 70
0
 10
0.998
 20
0.2
 10
1.0513333333333335
 20
0.28
  0
LWPOLYLINE
  5
24F
330
17
100
AcDbEntity
  8
NUMBERS
100
AcDbPolyline
 90
4
 70
0
 10
1.1126666666666667
 20
0.2
 10
1.1126666666666667
 20
0.28
 10
1.0726666666666667
 20
0.22666666666666668
 10
1.126
 20
0.22666666666666668
  0
LWPOLYLINE
  5
250
330
17
100
AcDbEntity
  8
NUMBERS
100
AcDbPolyline
 90
4
 70
0
 10
1.35
 20
0.28
 10
1.2966666666666669
 20
0.28
 10
1.2966666666666669
 20
0.2
 10
1.35
 20
0.2
  0
LWPOLYLINE
  5
251
330
17
100
AcDbEntity
  8
NUMBERS
100
AcDbPolyline
 90
2
 70
0
 10
1.2966666666666669
 20
0.24000000000000002
 10
1.336666666666667
 20
0.24000000000000002
  0
LWPOLYLINE
  5
252
330
17
100
AcDbEntity
  8
NUMBERS
100
AcDbPolyline
 90
2
 70
0
 10
1.3713333333333335
 20
0.2
 10
1.424666666666667
 20
0.28
  0
LWPOLYLINE
  5
253
330
17
100
AcDbEntity
  8
NUMBERS
100
AcDbPolyline
 90
2
 70
0
 10
1.3713333333333335
 20
0.28
 10
1.424666666666667
 20
0.2
  0
LWPOLYLINE
  5
254
330
17
100
AcDbEntity
  8
NUMBERS
100
AcDbPolyline
 90
2
 70
0
 10
1.4460000000000002
 20
0.28
 10
1.4993333333333334
 20
0.28
  0
LWPOLYLINE
  5
255
330
17
100
AcDbEntity
  8
NUMBERS
100
AcDbPolyline
 90
2
 70
0
 10
1.4726666666666668
 20
0.28
 10
1.4726666666666668
 20
0.2
  0
LWPOLYLINE
  5
256
330
17
100
AcDbEntity
  8
NUMBERS
100
AcDbPolyline
 90
4
 70
0
 10
1.5740000000000003
 20
0.28
 10
1.5206666666666668
 20
0.28
 10
1.5206666666666668
 20
0.2
 10
1.5740000000000003
 20
0.2
  0
LWPOLYLINE
  5
257
330
17
100
AcDbEntity
  8
NUMBERS
100
AcDbPolyline
 90
2
 70
0
 10
1.5206666666666668
 20
0.24000000000000002
 10
1.5606666666666669
 20
0.24000000000000002
  0
LWPOLYLINE
  5
258
330
17
100
AcDbEntity
  8
NUMBERS
100
AcDbPolyline
 90
6
 70
0
 10
1.5953333333333335
 20
0.2
 10
1.5953333333333335
 20
0.28
 10
1.6486666666666667
 20
0.28
 10
1.6486666666666667
 20
0.24000000000000002
 10
1.5953333333333335
 20
0.24000000000000002
 10
1.6486666666666667
 20
0.2
  0
LWPOLYLINE
  5
259
330
17
100
AcDbEntity
  8
NUMBERS
100
AcDbPolyline
 90
2
 70
0
 10
1.6833333333333336
 20
0.2
 10
1.7100000000000002
 20
0.2
  0
LWPOLYLINE
  5
25A
330
17
100
AcDbEntity
  8
NUMBERS
100
AcDbPolyline
 90
2
 70
0
 10
1.6966666666666668
 20
0.2
 10
1.6966666666666668
 20
0.28
  0
LWPOLYLINE
  5
25B
330
17
100
AcDbEntity
  8
NUMBERS
100
AcDbPolyline
 90
2
 70
0
 10
1.6833333333333336
 20
0.28
 10
1.7100000000000002
 20
0.28
  0
LWPOLYLINE
  5
25C
330
17
100
AcDbEntity
  8
NUMBERS
100
AcDbPolyline
 90
5
 70
0
 10
1.7446666666666668
 20
0.2
 10
1.798
 20
0.2
 10
1.798
 20
0.28
 10
1.7446666666666668
 20
0.28
 10
1.7446666666666668
 20
0.2
  0
LWPOLYLINE
  5
25D
330
17
100
AcDbEntity
  8
NUMBERS
100
AcDbPolyline
 90
6
 70
0
 10
1.8193333333333335
 20
0.2
 10
1.8193333333333335
 20
0.28
 10
1.872666666666667
 20
0.28
 10
1.872666666666667
 20
0.24000000000000002
 10
1.8193333333333335
 20
0.24000000000000002
 10
1.872666666666667
 20
0.2
  0
LWPOLYLINE
  5
25E
330
17
100
AcDbEntity
  8
NUMBERS
100
AcDbPolyline
 90
4
 70
0
 10
2.0220000000000002
 20
0.28
 10
1.9686666666666668
 20
0.28
 10
1.9686666666666668
 20
0.2
 10
2.0220000000000002
 20
0.2
  0
LWPOLYLINE
  5
25F
330
17
100
AcDbEntity
  8
NUMBERS
100
AcDbPolyline
 90
2
 70
0
 10
1.9686666666666668
 20
0.24000000000000002
 10
2.0086666666666666
 20
0.24000000000000002
  0
LWPOLYLINE
  5
260
330
17
100
AcDbEntity
  8
NUMBERS
100
AcDbPolyline
 90
4
 70
0
 10
2.043333333333334
 20
0.2
 10
2.043333333333334
 20
0.28
 10
2.096666666666667
 20
0.2
 10
2.096666666666667
 20
0.28
  0
LWPOLYLINE
  5
261
330
17
100
AcDbEntity
  8
NUMBERS
100
AcDbPolyline
 90
3
 70
0
 10
2.1180000000000003
 20
0.28
 10
2.144666666666667
 20
0.2
 10
2.1713333333333336
 20
0.28
  0
LWPOLYLINE
  5
262
330
17
100
AcDbEntity
  8
NUMBERS
100
AcDbPolyline
 90
4
 70
0
 10
2.246
 20
0.28
 10
2.1926666666666668
 20
0.28
 10
2.1926666666666668
 20
0.2
 10
2.246
 20
0.2
  0
LWPOLYLINE
  5
263
330
17
100
AcDbEntity
  8
NUMBERS
100
AcDbPolyline
 90
2
 70
0
 10
2.1926666666666668
 20
0.24000000000000002
 10
2.232666666666667
 20
0.24000000000000002
  0
LWPOLYLINE
  5
264
330
17
100
AcDbEntity
  8
NUMBERS
100
AcDbPolyline
 90
3
 70
0
 10
2.267333333333333
 20
0.28
 10
2.267333333333333
 20
0.2
 10
2.3206666666666664
 20
0.2
  0
LWPOLYLINE
  5
265
330
17
100
AcDbEntity
  8
NUMBERS
100
AcDbPolyline
 90
5
 70
0
 10
2.342
 20
0.2
 10
2.3953333333333333
 20
0.2
 10
2.3953333333333333
 20
0.28
 10
2.342
 20
0.28
 10
2.342
 20
0.2
  0
LWPOLYLINE
  5
266
330
17
100
AcDbEntity
  8
NUMBERS
100
AcDbPolyline
 90
5
 70
0
 10
2.416666666666667
 20
0.2
 10
2.416666666666667
 20
0.28
 10
2.47
 20
0.28
 10
2.47
 20
0.24000000000000002
 10
2.416666666666667
 20
0.24000000000000002
  0
LWPOLYLINE
  5
267
330
17
100
AcDbEntity
  8
NUMBERS
100
AcDbPolyline
 90
4
 70
0
 10
2.5446666666666666
 20
0.28
 10
2.4913333333333334
 20
0.28
 10
2.4913333333333334
 20
0.2
 10
2.5446666666666666
 20
0.2
  0
LWPOLYLINE
  5
268
330
17
100
AcDbEntity
  8
NUMBERS
100
AcDbPolyline
 90
2
 70
0
 10
2.4913333333333334
 20
0.24000000000000002
 10
2.5313333333333334
 20
0.24000000000000002
  0
LWPOLYLINE
  5
269
330
17
100
AcDbEntity
  8
NUMBERS
100
AcDbPolyline
 90
2
 70
0
 10
2.647333333333334
 20
0.24000000000000002
 10
2.687333333333334
 20
0.24000000000000002
  0
LWPOLYLINE
  5
26A
330
17
100
AcDbEntity
  8
NUMBERS
100
AcDbPolyline
 90
2
 70
0
 10
2.667333333333334
 20
0.22000000000000003
 10
2.667333333333334
 20
0.26
  0
LWPOLYLINE
  5
26B
330
17
100
AcDbEntity
  8
NUMBERS
100
AcDbPolyline
 90
6
 70
0
 10
2.79
 20
0.2
 10
2.79
 20
0.28
 10
2.8433333333333333
 20
0.28
 10
2.8433333333333333
 20
0.24000000000000002
 10
2.79
 20
0.24000000000000002
 10
2.8433333333333333
 20
0.2
  0
LWPOLYLINE
  5
26C
330
17
100
AcDbEntity
  8
NUMBERS
100
AcDbPolyline
 90
5
 70
0
 10
2.8646666666666674
 20
0.2
 10
2.9180000000000006
 20
0.2
 10
2.9180000000000006
 20
0.28
 10
2.8646666666666674
 20
0.28
 10
2.8646666666666674
 20
0.2
  0
LWPOLYLINE
  5
26D
330
17
100
AcDbEntity
  8
NUMBERS
100
AcDbPolyline
 90
5
 70
0
 10
2.939333333333334
 20
0.2
 10
2.992666666666667
 20
0.2
 10
2.992666666666667
 20
0.28
 10
2.939333333333334
 20
0.28
 10
2.939333333333334
 20
0.2
  0
LWPOLYLINE
  5
26E
330
17
100
AcDbEntity
  8
NUMBERS
100
AcDbPolyline
 90
3
 70
0
 10
3.0673333333333335
 20
0.28
 10
3.0140000000000002
 20
0.28
 10
3.0140000000000002
 20
0.2
  0
LWPOLYLINE
  5
26F
330
17
100
AcDbEntity
  8
NUMBERS
100
AcDbPolyline
 90
2
 70
0
 10
3.0140000000000002
 20
0.24000000000000002
 10
3.0540000000000003
 20
0.24000000000000002
  0
LWPOLYLINE
  5
270
330
17
100
AcDbEntity
  8
NUMBERS
100
AcDbPolyline
 90
4
 70
0
 10
3.203333333333334
 20
0.28
 10
3.183333333333334
 20
0.26
 10
3.183333333333334
 20
0.22000000000000003
 10
3.203333333333334
 20
0.2
  0
LWPOLYLINE
  5
271
330
17
100
AcDbEntity
  8
NUMBERS
100
AcDbPolyline
 90
2
 70
0
 10
3.2380000000000004
 20
0.2
 10
3.2380000000000004
 20
0.28
  0
LWPOLYLINE
  5
272
330
17
100
AcDbEntity
  8
NUMBERS
100
AcDbPolyline
 90
2
 70
0
 10
3.2913333333333337
 20
0.28
 10
3.2380000000000004
 20
0.23333333333333334
  0
LWPOLYLINE
  5
273
330
17
100
AcDbEntity
  8
NUMBERS
100
AcDbPolyline
 90
2
 70
0
 10
3.2553333333333336
 20
0.2466666666666667
 10
3.2913333333333337
 20
0.2
  0
LWPOLYLINE
  5
274
330
17
100
AcDbEntity
  8
NUMBERS
100
AcDbPolyline
 90
2
 70
0
 10
3.326
 20
0.2
 10
3.352666666666667
 20
0.2
  0
LWPOLYLINE
  5
275
330
17
100
AcDbEntity
  8
NUMBERS
100
AcDbPolyline
 90
2
 70
0
 10
3.3393333333333337
 20
0.2
 10
3.3393333333333337
 20
0.28
  0
LWPOLYLINE
  5
276
330
17
100
AcDbEntity
  8
NUMBERS
100
AcDbPolyline
 90
2
 70
0
 10
3.326
 20
0.28
 10
3.352666666666667
 20
0.28
  0
LWPOLYLINE
  5
277
330
17
100
AcDbEntity
  8
NUMBERS
100
AcDbPolyline
 90
2
 70
0
 10
3.3873333333333333
 20
0.28
 10
3.4406666666666665
 20
0.28
  0
LWPOLYLINE
  5
278
330
17
100
AcDbEntity
  8
NUMBERS
100
AcDbPolyline
 90
2
 70
0
 10
3.414
 20
0.28
 10
3.414
 20
0.2
  0
LWPOLYLINE
  5
279
330
17
100
AcDbEntity
  8
NUMBERS
100
AcDbPolyline
 90
5
 70
0
 10
3.536666666666667
 20
0.2
 10
3.5900000000000003
 20
0.2
 10
3.5900000000000003
 20
0.28
 10
3.536666666666667
 20
0.28
 10
3.536666666666667
 20
0.2
  0
LWPOLYLINE
  5
27A
330
17
100
AcDbEntity
  8
NUMBERS
100
AcDbPolyline
 90
2
 70
0
 10
3.536666666666667
 20
0.2
 10
3.5900000000000003
 20
0.28
  0
LWPOLYLINE
  5
27B
330
17
100
AcDbEntity
  8
NUMBERS
100
AcDbPolyline
 90
8
 70
0
 10
3.6646666666666667
 20
0.28
 10
3.6113333333333335
 20
0.28
 10
3.6113333333333335
 20
0.2466666666666667
 10
3.6513333333333335
 20
0.2466666666666667
 10
3.6646666666666667
 20
0.23333333333333334
 10
3.6646666666666667
 20
0.21333333333333335
 10
3.6513333333333335
 20
0.2
 10
3.6113333333333335
 20
0.2
  0
LWPOLYLINE
  5
27C
330
17
100
AcDbEntity
  8
NUMBERS
100
AcDbPolyline
 90
2
 70
0
 10
3.715333333333334
 20
0.20533333333333334
 10
3.707333333333334
 20
0.18666666666666668
  0
LWPOLYLINE
  5
27D
330
17
100
AcDbEntity
  8
NUMBERS
100
AcDbPolyline
 90
5
 70
0
 10
3.8353333333333337
 20
0.2
 10
3.888666666666667
 20
0.2
 10
3.888666666666667
 20
0.28
 10
3.8353333333333337
 20
0.28
 10
3.8353333333333337
 20
0.2
  0
LWPOLYLINE
  5
27E
330
17
100
AcDbEntity
  8
NUMBERS
100
AcDbPolyline
 90
2
 70
0
 10
3.8353333333333337
 20
0.2
 10
3.888666666666667
 20
0.28
  0
LWPOLYLINE
  5
27F
330
17
100
AcDbEntity
  8
NUMBERS
100
AcDbPolyline
 90
4
 70
0
 10
3.95
 20
0.2
 10
3.95
 20
0.28
 10
3.91
 20
0.22666666666666668
 10
3.9633333333333334
 20
0.22666666666666668
  0
LWPOLYLINE
  5
280
330
17
100
AcDbEntity
  8
NUMBERS
100
AcDbPolyline
 90
4
 70
0
 10
3.9979999999999998
 20
0.28
 10
4.018
 20
0.26
 10
4.018
 20
0.22000000000000003
 10
3.9979999999999998
 20
0.2
  0
LWPOLYLINE
  5
281
330
17
100
AcDbEntity
  8
NUMBERS
100
AcDbPolyline
 90
6
 70
0
 10
4.411333333333334
 20
0.28
 10
4.3580000000000005
 20
0.28
 10
4.3580000000000005
 20
0.24000000000000002
 10
4.411333333333334
 20
0.24000000000000002
 10
4.411333333333334
 20
0.2
 10
4.3580000000000005
 20
0.2
  0
LWPOLYLINE
  5
282
330
17
100
AcDbEntity
  8
NUMBERS
100
AcDbPolyline
 90
4
 70
0
 10
4.486000000000001
 20
0.28
 10
4.432666666666667
 20
0.28
 10
4.432666666666667
 20
0.2
 10
4.486000000000001
 20
0.2
  0
LWPOLYLINE
  5
283
330
17
100
AcDbEntity
  8
NUMBERS
100
AcDbPolyline
 90
5
 70
0
 10
4.507333333333333
 20
0.2
 10
4.507333333333333
 20
0.25333333333333335
 10
4.534
 20
0.28
 10
4.560666666666667
 20
0.25333333333333335
 10
4.560666666666667
 20
0.2
  0
LWPOLYLINE
  5
284
330
17
100
AcDbEntity
  8
NUMBERS
100
AcDbPolyline
 90
2
 70
0
 10
4.507333333333333
 20
0.24000000000000002
 10
4.560666666666667
 20
0.24000000000000002
  0
LWPOLYLINE
  5
285
330
17
100
AcDbEntity
  8
NUMBERS
100
AcDbPolyline
 90
3
 70
0
 10
4.582000000000001
 20
0.28
 10
4.582000000000001
 20
0.2
 10
4.635333333333334
 20
0.2
  0
LWPOLYLINE
  5
286
330
17
100
AcDbEntity
  8
NUMBERS
100
AcDbPolyline
 90
4
 70
0
 10
4.710000000000001
 20
0.28
 10
4.656666666666667
 20
0.28
 10
4.656666666666667
 20
0.2
 10
4.710000000000001
 20
0.2
  0
LWPOLYLINE
  5
287
330
17
100
AcDbEntity
  8
NUMBERS
100
AcDbPolyline
 90
2
 70
0
 10
4.656666666666667
 20
0.24000000000000002
 10
4.696666666666667
 20
0.24000000000000002
  0
LWPOLYLINE
  5
288
330
17
100
AcDbEntity
  8
NUMBERS
100
AcDbPolyline
 90
3
 70
0
 10
4.819333333333335
 20
0.2666666666666667
 10
4.832666666666667
 20
0.28
 10
4.832666666666667
 20
0.2
  0
LWPOLYLINE
  5
289
330
17
100
AcDbEntity
  8
NUMBERS
100
AcDbPolyline
 90
2
 70
0
 10
4.819333333333335
 20
0.2
 10
4.846000000000001
 20
0.2
  0
LWPOLYLINE
  5
28A
330
17
100
AcDbEntity
  8
NUMBERS
100
AcDbPolyline
 90
2
 70
0
 10
4.9046666666666665
 20
0.21333333333333335
 10
4.91
 20
0.21333333333333335
  0
LWPOLYLINE
  5
28B
330
17
100
AcDbEntity
  8
NUMBERS
100
AcDbPolyline
 90
2
 70
0
 10
4.9046666666666665
 20
0.25333333333333335
 10
4.91
 20
0.25333333333333335
  0
LWPOLYLINE
  5
28C
330
17
100
AcDbEntity
  8
NUMBERS
100
AcDbPolyline
 90
3
 70
0
 10
4.9686666666666675
 20
0.2666666666666667
 10
4.982
 20
0.28
 10
4.982
 20
0.2
  0
LWPOLYLINE
  5
28D
330
17
100
AcDbEntity
  8
NUMBERS
100
AcDbPolyline
 90
2
 70
0
 10
4.9686666666666675
 20
0.2
 10
4.995333333333334
 20
0.2
  0
LWPOLYLINE
  5
28E
330
17
100
AcDbEntity
  8
NUMBERS
100
AcDbPolyline
 90
7
 70
0
 10
5.03
 20
0.2
 10
5.07
 20
0.2
 10
5.083333333333334
 20
0.21333333333333335
 10
5.083333333333334
 20
0.28
 10
5.03
 20
0.28
 10
5.03
 20
0.24000000000000002
 10
5.083333333333334
 20
0.24000000000000002
  0
LWPOLYLINE
  5
28F
330
17
100
AcDbEntity
  8
NUMBERS
100
AcDbPolyline
 90
7
 70
0
 10
5.104666666666667
 20
0.2666666666666667
 10
5.118
 20
0.28
 10
5.144666666666667
 20
0.28
 10
5.158
 20
0.2666666666666667
 10
5.158
 20
0.25333333333333335
 10
5.104666666666667
 20
0.2
 10
5.158
 20
0.2
  0
LWPOLYLINE
  5
290
330
17
100
AcDbEntity
  8
NUMBERS
100
AcDbPolyline
 90
4
 70
0
 10
5.2940000000000005
 20
0.28
 10
5.274
 20
0.26
 10
5.274
 20
0.22000000000000003
 10
5.2940000000000005
 20
0.2
  0
LWPOLYLINE
  5
291
330
17
100
AcDbEntity
  8
NUMBERS
100
AcDbPolyline
 90
3
 70
0
 10
5.3420000000000005
 20
0.2666666666666667
 10
5.355333333333333
 20
0.28
 10
5.355333333333333
 20
0.2
  0
LWPOLYLINE
  5
292
330
17
100
AcDbEntity
  8
NUMBERS
100
AcDbPolyline
 90
2
 70
0
 10
5.3420000000000005
 20
0.2
 10
5.368666666666667
 20
0.2
  0
LWPOLYLINE
  5
293
330
17
100
AcDbEntity
  8
NUMBERS
100
AcDbPolyline
 90
2
 70
0
 10
5.403333333333334
 20
0.2
 10
5.456666666666668
 20
0.28
  0
LWPOLYLINE
  5
294
330
17
100
AcDbEntity
  8
NUMBERS
100
AcDbPolyline
 90
3
 70
0
 10
5.491333333333334
 20
0.2666666666666667
 10
5.504666666666667
 20
0.28
 10
5.504666666666667
 20
0.2
  0
LWPOLYLINE
  5
295
330
17
100
AcDbEntity
  8
NUMBERS
100
AcDbPolyline
 90
2
 70
0
 10
5.491333333333334
 20
0.2
 10
5.518000000000001
 20
0.2
  0
LWPOLYLINE
  5
296
330
17
100
AcDbEntity
  8
NUMBERS
100
AcDbPolyline
 90
7
 70
0
 10
5.606000000000001
 20
0.28
 10
5.566000000000001
 20
0.28
 10
5.552666666666667
 20
0.2666666666666667
 10
5.552666666666667
 20
0.2
 10
5.606000000000001
 20
0.2
 10
5.606000000000001
 20
0.24000000000000002
 10
5.552666666666667
 20
0.24000000000000002
  0
LWPOLYLINE
  5
297
330
17
100
AcDbEntity
  8
NUMBERS
100
AcDbPolyline
 90
2
 70
0
 10
5.7153333333333345
 20
0.2
 10
5.742000000000001
 20
0.2
  0
LWPOLYLINE
  5
298
330
17
100
AcDbEntity
  8
NUMBERS
100
AcDbPolyline
 90
2
 70
0
 10
5.728666666666667
 20
0.2
 10
5.728666666666667
 20
0.28
  0
LWPOLYLINE
  5
299
330
17
100
AcDbEntity
  8
NUMBERS
100
AcDbPolyline
 90
2
 70
0
 10
5.7153333333333345
 20
0.28
 10
5.742000000000001
 20
0.28
  0
LWPOLYLINE
  5
29A
330
17
100
AcDbEntity
  8
NUMBERS
100
AcDbPolyline
 90
4
 70
0
 10
5.776666666666667
 20
0.2
 10
5.776666666666667
 20
0.28
 10
5.830000000000001
 20
0.2
 10
5.830000000000001
 20
0.28
  0
LWPOLYLINE
  5
29B
330
17
100
AcDbEntity
  8
NUMBERS
100
AcDbPolyline
 90
2
 70
0
 10
5.932666666666668
 20
0.22666666666666668
 10
5.972666666666668
 20
0.22666666666666668
  0
LWPOLYLINE
  5
29C
330
17
100
AcDbEntity
  8
NUMBERS
100
AcDbPolyline
 90
2
 70
0
 10
5.932666666666668
 20
0.25333333333333335
 10
5.972666666666668
 20
0.25333333333333335
  0
LWPOLYLINE
  5
29D
330
17
100
AcDbEntity
  8
NUMBERS
100
AcDbPolyline
 90
3
 70
0
 10
6.088666666666668
 20
0.2666666666666667
 10
6.102
 20
0.28
 10
6.102
 20
0.2
  0
LWPOLYLINE
  5
29E
330
17
100
AcDbEntity
  8
NUMBERS
100
AcDbPolyline
 90
2
 70
0
 10
6.088666666666668
 20
0.2
 10
6.115333333333334
 20
0.2
  0
LWPOLYLINE
  5
29F
330
17
100
AcDbEntity
  8
NUMBERS
100
AcDbPolyline
 90
3
 70
0
 10
6.2780000000000005
 20
0.28
 10
6.224666666666667
 20
0.28
 10
6.224666666666667
 20
0.2
  0
LWPOLYLINE
  5
2A0
330
17
100
AcDbEntity
  8
NUMBERS
100
AcDbPolyline
 90
2
 70
0
 10
6.224666666666667
 20
0.24000000000000002
 10
6.264666666666667
 20
0.24000000000000002
  0
LWPOLYLINE
  5
2A1
330
17
100
AcDbEntity
  8
NUMBERS
100
AcDbPolyline
 90
2
 70
0
 10
6.299333333333334
 20
0.28
 10
6.352666666666668
 20
0.28
  0
LWPOLYLINE
  5
2A2
330
17
100
AcDbEntity
  8
NUMBERS
100
AcDbPolyline
 90
2
 70
0
 10
6.3260000000000005
 20
0.28
 10
6.3260000000000005
 20
0.2
  0
LWPOLYLINE
  5
2A3
330
17
100
AcDbEntity
  8
NUMBERS
100
AcDbPolyline
 90
4
 70
0
 10
6.387333333333334
 20
0.28
 10
6.407333333333334
 20
0.26
 10
6.407333333333334
 20
0.22000000000000003
 10
6.387333333333334
 20
0.2
  0
LWPOLYLINE
  5
2A4
330
17
100
AcDbEntity
  8
NUMBERS
100
AcDbPolyline
 90
5
 70
0
 10
6.672666666666667
 20
0.2
 10
6.672666666666667
 20
0.28
 10
6.699333333333334
 20
0.24000000000000002
 10
6.726000000000001
 20
0.28
 10
6.726000000000001
 20
0.2
  0
LWPOLYLINE
  5
2A5
330
17
100
AcDbEntity
  8
NUMBERS
100
AcDbPolyline
 90
5
 70
0
 10
6.747333333333334
 20
0.2
 10
6.747333333333334
 20
0.25333333333333335
 10
6.774
 20
0.28
 10
6.800666666666667
 20
0.25333333333333335
 10
6.800666666666667
 20
0.2
  0
LWPOLYLINE
  5
2A6
330
17
100
AcDbEntity
  8
NUMBERS
100
AcDbPolyline
 90
2
 70
0
 10
6.747333333333334
 20
0.24000000000000002
 10
6.800666666666667
 20
0.24000000000000002
  0
LWPOLYLINE
  5
2A7
330
17
100
AcDbEntity
  8
NUMBERS
100
AcDbPolyline
 90
2
 70
0
 10
6.822000000000001
 20
0.28
 10
6.875333333333335
 20
0.28
  0
LWPOLYLINE
  5
2A8
330
17
100
AcDbEntity
  8
NUMBERS
100
AcDbPolyline
 90
2
 70
0
 10
6.848666666666667
 20
0.28
 10
6.848666666666667
 20
0.2
  0
LWPOLYLINE
  5
2A9
330
17
100
AcDbEntity
  8
NUMBERS
100
AcDbPolyline
 90
4
 70
0
 10
6.950000000000001
 20
0.28
 10
6.896666666666667
 20
0.28
 10
6.896666666666667
 20
0.2
 10
6.950000000000001
 20
0.2
  0
LWPOLYLINE
  5
2AA
330
17
100
AcDbEntity
  8
NUMBERS
100
AcDbPolyline
 90
2
 70
0
 10
6.896666666666667
 20
0.24000000000000002
 10
6.936666666666667
 20
0.24000000000000002
  0
LWPOLYLINE
  5
2AB
330
17
100
AcDbEntity
  8
NUMBERS
100
AcDbPolyline
 90
6
 70
0
 10
6.971333333333334
 20
0.2
 10
6.971333333333334
 20
0.28
 10
7.0246666666666675
 20
0.28
 10
7.0246666666666675
 20
0.24000000000000002
 10
6.971333333333334
 20
0.24000000000000002
 10
7.0246666666666675
 20
0.2
  0
LWPOLYLINE
  5
2AC
330
17
100
AcDbEntity
  8
NUMBERS
100
AcDbPolyline
 90
2
 70
0
 10
7.059333333333335
 20
0.2
 10
7.086000000000001
 20
0.2
  0
LWPOLYLINE
  5
2AD
330
17
100
AcDbEntity
  8
NUMBERS
100
AcDbPolyline
 90
2
 70
0
 10
7.0726666666666675
 20
0.2
 10
7.0726666666666675
 20
0.28
  0
LWPOLYLINE
  5
2AE
330
17
100
AcDbEntity
  8
NUMBERS
100
AcDbPolyline
 90
2
 70
0
 10
7.059333333333335
 20
0.28
 10
7.086000000000001
 20
0.28
  0
LWPOLYLINE
  5
2AF
330
17
100
AcDbEntity
  8
NUMBERS
100
AcDbPolyline
 90
5
 70
0
 10
7.120666666666668
 20
0.2
 10
7.120666666666668
 20
0.25333333333333335
 10
7.147333333333334
 20
0.28
 10
7.174000000000001
 20
0.25333333333333335
 10
7.174000000000001
 20
0.2
  0
LWPOLYLINE
  5
2B0
330
17
100
AcDbEntity
  8
NUMBERS
100
AcDbPolyline
 90
2
 70
0
 10
7.120666666666668
 20
0.24000000000000002
 10
7.174000000000001
 20
0.24000000000000002
  0
LWPOLYLINE
  5
2B1
330
17
100
AcDbEntity
  8
NUMBERS
100
AcDbPolyline
 90
3
 70
0
 10
7.195333333333334
 20
0.28
 10
7.195333333333334
 20
0.2
 10
7.248666666666668
 20
0.2
  0
LWPOLYLINE
  5
2B2
330
17
100
AcDbEntity
  8
NUMBERS
100
AcDbPolyline
 90
3
 70
0
 10
7.358000000000001
 20
0.2666666666666667
 10
7.371333333333334
 20
0.28
 10
7.371333333333334
 20
0.2
  0
LWPOLYLINE
  5
2B3
330
17
100
AcDbEntity
  8
NUMBERS
100
AcDbPolyline
 90
2
 70
0
 10
7.358000000000001
 20
0.2
 10
7.384666666666668
 20
0.2
  0
LWPOLYLINE
  5
2B4
330
17
100
AcDbEntity
  8
NUMBERS
100
AcDbPolyline
 90
2
 70
0
 10
7.419333333333333
 20
0.2
 10
7.472666666666667
 20
0.28
  0
LWPOLYLINE
  5
2B5
330
17
100
AcDbEntity
  8
NUMBERS
100
AcDbPolyline
 90
3
 70
0
 10
7.507333333333334
 20
0.2666666666666667
 10
7.520666666666667
 20
0.28
 10
7.520666666666667
 20
0.2
  0
LWPOLYLINE
  5
2B6
330
17
100
AcDbEntity
  8
NUMBERS
100
AcDbPolyline
 90
2
 70
0
 10
7.507333333333334
 20
0.2
 10
7.534000000000001
 20
0.2
  0
LWPOLYLINE
  5
2B7
330
17
100
AcDbEntity
  8
NUMBERS
100
AcDbPolyline
 90
7
 70
0
 10
7.622000000000002
 20
0.28
 10
7.582000000000002
 20
0.28
 10
7.568666666666668
 20
0.2666666666666667
 10
7.568666666666668
 20
0.2
 10
7.622000000000002
 20
0.2
 10
7.622000000000002
 20
0.24000000000000002
 10
7.568666666666668
 20
0.24000000000000002
  0
LWPOLYLINE
  5
2B8
330
17
100
AcDbEntity
  8
NUMBERS
100
AcDbPolyline
 90
2
 70
0
 10
7.731333333333334
 20
0.2
 10
7.758
 20
0.2
  0
LWPOLYLINE
  5
2B9
330
17
100
AcDbEntity
  8
NUMBERS
100
AcDbPolyline
 90
2
 70
0
 10
7.744666666666666
 20
0.2
 10
7.744666666666666
 20
0.28
  0
LWPOLYLINE
  5
2BA
330
17
100
AcDbEntity
  8
NUMBERS
100
AcDbPolyline
 90
2
 70
0
 10
7.731333333333334
 20
0.28
 10
7.758
 20
0.28
  0
LWPOLYLINE
  5
2BB
330
17
100
AcDbEntity
  8
NUMBERS
100
AcDbPolyline
 90
4
 70
0
 10
7.792666666666667
 20
0.2
 10
7.792666666666667
 20
0.28
 10
7.846000000000001
 20
0.2
 10
7.846000000000001
 20
0.28
  0
LWPOLYLINE
  5
2BC
330
17
100
AcDbEntity
  8
NUMBERS
100
AcDbPolyline
 90
4
 70
0
 10
7.995333333333335
 20
0.28
 10
7.942000000000001
 20
0.28
 10
7.942000000000001
 20
0.2
 10
7.995333333333335
 20
0.2
  0
LWPOLYLINE
  5
2BD
330
17
100
AcDbEntity
  8
NUMBERS
100
AcDbPolyline
 90
2
 70
0
 10
8.01666666666667
 20
0.2
 10
8.01666666666667
 20
0.28
  0
LWPOLYLINE
  5
2BE
330
17
100
AcDbEntity
  8
NUMBERS
100
AcDbPolyline
 90
2
 70
0
 10
8.070000000000002
 20
0.2
 10
8.070000000000002
 20
0.28
  0
LWPOLYLINE
  5
2BF
330
17
100
AcDbEntity
  8
NUMBERS
100
AcDbPolyline
 90
2
 70
0
 10
8.01666666666667
 20
0.24000000000000002
 10
8.070000000000002
 20
0.24000000000000002
  0
LWPOLYLINE
  5
2C0
330
17
100
AcDbEntity
  8
NUMBERS
100
AcDbPolyline
 90
2
 70
0
 10
8.104666666666667
 20
0.2
 10
8.131333333333332
 20
0.2
  0
LWPOLYLINE
  5
2C1
330
17
100
AcDbEntity
  8
NUMBERS
100
AcDbPolyline
 90
2
 70
0
 10
8.118
 20
0.2
 10
8.118
 20
0.28
  0
LWPOLYLINE
  5
2C2
330
17
100
AcDbEntity
  8
NUMBERS
100
AcDbPolyline
 90
2
 70
0
 10
8.104666666666667
 20
0.28
 10
8.131333333333332
 20
0.28
  0
LWPOLYLINE
  5
2C3
330
17
100
AcDbEntity
  8
NUMBERS
100
AcDbPolyline
 90
5
 70
0
 10
8.166
 20
0.2
 10
8.166
 20
0.28
 10
8.219333333333333
 20
0.28
 10
8.219333333333333
 20
0.24000000000000002
 10
8.166
 20
0.24000000000000002
  0
LWPOLYLINE
  5
2C4
330
17
100
AcDbEntity
  8
NUMBERS
100
AcDbPolyline
 90
7
 70
0
 10
8.240666666666668
 20
0.2
 10
8.240666666666668
 20
0.28
 10
8.280666666666667
 20
0.28
 10
8.294
 20
0.2666666666666667
 10
8.294
 20
0.25333333333333335
 10
8.280666666666667
 20
0.24000000000000002
 10
8.240666666666668
 20
0.24000000000000002
  0
LWPOLYLINE
  5
2C5
330
17
100
AcDbEntity
  8
NUMBERS
100
AcDbPolyline
 90
5
 70
0
 10
8.280666666666667
 20
0.24000000000000002
 10
8.294
 20
0.22666666666666668
 10
8.294
 20
0.21333333333333335
 10
8.280666666666667
 20
0.2
 10
8.240666666666668
 20
0.2
  0
LWPOLYLINE
  5
2C6
330
17
100
AcDbEntity
  8
NUMBERS
100
AcDbPolyline
 90
5
 70
0
 10
8.315333333333335
 20
0.2
 10
8.368666666666668
 20
0.2
 10
8.368666666666668
 20
0.28
 10
8.315333333333335
 20
0.28
 10
8.315333333333335
 20
0.2
  0
LWPOLYLINE
  5
2C7
330
17
100
AcDbEntity
  8
NUMBERS
100
AcDbPolyline
 90
5
 70
0
 10
8.390000000000002
 20
0.2
 10
8.390000000000002
 20
0.25333333333333335
 10
8.41666666666667
 20
0.28
 10
8.443333333333335
 20
0.25333333333333335
 10
8.443333333333335
 20
0.2
  0
LWPOLYLINE
  5
2C8
330
17
100
AcDbEntity
  8
NUMBERS
100
AcDbPolyline
 90
2
 70
0
 10
8.390000000000002
 20
0.24000000000000002
 10
8.443333333333335
 20
0.24000000000000002
  0
LWPOLYLINE
  5
2C9
330
17
100
AcDbEntity
  8
NUMBERS
100
AcDbPolyline
 90
6
 70
0
 10
8.464666666666668
 20
0.2
 10
8.464666666666668
 20
0.28
 10
8.518
 20
0.28
 10
8.518
 20
0.24000000000000002
 10
8.464666666666668
 20
0.24000000000000002
 10
8.518
 20
0.2
  0
LWPOLYLINE
  5
2CA
330
17
100
AcDbEntity
  8
NUMBERS
100
AcDbPolyline
 90
7
 70
0
 10
8.539333333333333
 20
0.2
 10
8.539333333333333
 20
0.28
 10
8.572666666666667
 20
0.28
 10
8.592666666666666
 20
0.26
 10
8.592666666666666
 20
0.22000000000000003
 10
8.572666666666667
 20
0.2
 10
8.539333333333333
 20
0.2
  0
LWPOLYLINE
  5
2CB
330
17
100
AcDbEntity
  8
NUMBERS
100
AcDbPolyline
 90
2
 70
0
 10
8.763333333333335
 20
0.28
 10
8.816666666666668
 20
0.28
  0
LWPOLYLINE
  5
2CC
330
17
100
AcDbEntity
  8
NUMBERS
100
AcDbPolyline
 90
2
 70
0
 10
8.790000000000003
 20
0.28
 10
8.790000000000003
 20
0.2
  0
LWPOLYLINE
  5
2CD
330
17
100
AcDbEntity
  8
NUMBERS
100
AcDbPolyline
 90
2
 70
0
 10
8.844666666666667
 20
0.22666666666666668
 10
8.884666666666668
 20
0.22666666666666668
  0
LWPOLYLINE
  5
2CE
330
17
100
AcDbEntity
  8
NUMBERS
100
AcDbPolyline
 90
2
 70
0
 10
8.844666666666667
 20
0.25333333333333335
 10
8.884666666666668
 20
0.25333333333333335
  0
LWPOLYLINE
  5
2CF
330
17
100
AcDbEntity
  8
NUMBERS
100
AcDbPolyline
 90
5
 70
0
 10
8.912666666666668
 20
0.2
 10
8.966000000000001
 20
0.2
 10
8.966000000000001
 20
0.28
 10
8.912666666666668
 20
0.28
 10
8.912666666666668
 20
0.2
  0
LWPOLYLINE
  5
2D0
330
17
100
AcDbEntity
  8
NUMBERS
100
AcDbPolyline
 90
2
 70
0
 10
8.912666666666668
 20
0.2
 10
8.966000000000001
 20
0.28
  0
LWPOLYLINE
  5
2D1
330
17
100
AcDbEntity
  8
NUMBERS
100
AcDbPolyline
 90
5
 70
0
 10
9.011333333333335
 20
0.2
 10
9.01666666666667
 20
0.2
 10
9.01666666666667
 20
0.20533333333333334
 10
9.011333333333335
 20
0.20533333333333334
 10
9.011333333333335
 20
0.2
  0
LWPOLYLINE
  5
2D2
330
17
100
AcDbEntity
  8
NUMBERS
100
AcDbPolyline
 90
5
 70
0
 10
9.062000000000003
 20
0.2
 10
9.115333333333336
 20
0.2
 10
9.115333333333336
 20
0.28
 10
9.062000000000003
 20
0.28
 10
9.062000000000003
 20
0.2
  0
LWPOLYLINE
  5
2D3
330
17
100
AcDbEntity
  8
NUMBERS
100
AcDbPolyline
 90
2
 70
0
 10
9.062000000000003
 20
0.2
 10
9.115333333333336
 20
0.28
  0
LWPOLYLINE
  5
2D4
330
17
100
AcDbEntity
  8
NUMBERS
100
AcDbPolyline
 90
7
 70
0
 10
9.190000000000001
 20
0.28
 10
9.150000000000002
 20
0.28
 10
9.136666666666668
 20
0.2666666666666667
 10
9.136666666666668
 20
0.2
 10
9.190000000000001
 20
0.2
 10
9.190000000000001
 20
0.24000000000000002
 10
9.136666666666668
 20
0.24000000000000002
  0
LWPOLYLINE
  5
2D5
330
17
100
AcDbEntity
  8
NUMBERS
100
AcDbPolyline
 90
7
 70
0
 10
9.211333333333334
 20
0.2666666666666667
 10
9.224666666666668
 20
0.28
 10
9.251333333333333
 20
0.28
 10
9.264666666666667
 20
0.2666666666666667
 10
9.264666666666667
 20
0.25333333333333335
 10
9.211333333333334
 20
0.2
 10
9.264666666666667
 20
0.2
  0
LWPOLYLINE
  5
2D6
330
17
100
AcDbEntity
  8
NUMBERS
100
AcDbPolyline
 90
8
 70
0
 10
9.339333333333334
 20
0.28
 10
9.286000000000001
 20
0.28
 10
9.286000000000001
 20
0.2466666666666667
 10
9.326
 20
0.2466666666666667
 10
9.339333333333334
 20
0.23333333333333334
 10
9.339333333333334
 20
0.21333333333333335
 10
9.326
 20
0.2
 10
9.286000000000001
 20
0.2
  0
LWPOLYLINE
  5
2D7
330
17
100
AcDbEntity
  8
NUMBERS
100
AcDbPolyline
 90
2
 70
0
 10
9.44866666666667
 20
0.2
 10
9.475333333333335
 20
0.2
  0
LWPOLYLINE
  5
2D8
330
17
100
AcDbEntity
  8
NUMBERS
100
AcDbPolyline
 90
2
 70
0
 10
9.462000000000003
 20
0.2
 10
9.462000000000003
 20
0.28
  0
LWPOLYLINE
  5
2D9
330
17
100
AcDbEntity
  8
NUMBERS
100
AcDbPolyline
 90
2
 70
0
 10
9.44866666666667
 20
0.28
 10
9.475333333333335
 20
0.28
  0
LWPOLYLINE
  5
2DA
330
17
100
AcDbEntity
  8
NUMBERS
100
AcDbPolyline
 90
4
 70
0
 10
9.510000000000002
 20
0.2
 10
9.510000000000002
 20
0.28
 10
9.563333333333334
 20
0.2
 10
9.563333333333334
 20
0.28
  0
LWPOLYLINE
  5
2DB
330
17
100
AcDbEntity
  8
NUMBERS
100
AcDbPolyline
 90
2
 70
0
 10
9.808666666666669
 20
0.2
 10
9.808666666666669
 20
0.28
  0
LWPOLYLINE
  5
2DC
330
17
100
AcDbEntity
  8
NUMBERS
100
AcDbPolyline
 90
2
 70
0
 10
9.862000000000002
 20
0.28
 10
9.808666666666669
 20
0.23333333333333334
  0
LWPOLYLINE
  5
2DD
330
17
100
AcDbEntity
  8
NUMBERS
100
AcDbPolyline
 90
2
 70
0
 10
9.826000000000002
 20
0.2466666666666667
 10
9.862000000000002
 20
0.2
  0
LWPOLYLINE
  5
2DE
330
17
100
AcDbEntity
  8
NUMBERS
100
AcDbPolyline
 90
4
 70
0
 10
9.93666666666667
 20
0.28
 10
9.883333333333336
 20
0.28
 10
9.883333333333336
 20
0.2
 10
9.93666666666667
 20
0.2
  0
LWPOLYLINE
  5
2DF
330
17
100
AcDbEntity
  8
NUMBERS
100
AcDbPolyline
 90
2
 70
0
 10
9.883333333333336
 20
0.24000000000000002
 10
9.923333333333336
 20
0.24000000000000002
  0
LWPOLYLINE
  5
2E0
330
17
100
AcDbEntity
  8
NUMBERS
100
AcDbPolyline
 90
6
 70
0
 10
9.958000000000002
 20
0.2
 10
9.958000000000002
 20
0.28
 10
10.011333333333335
 20
0.28
 10
10.011333333333335
 20
0.24000000000000002
 10
9.958000000000002
 20
0.24000000000000002
 10
10.011333333333335
 20
0.2
  0
LWPOLYLINE
  5
2E1
330
17
100
AcDbEntity
  8
NUMBERS
100
AcDbPolyline
 90
3
 70
0
 10
10.086
 20
0.28
 10
10.032666666666668
 20
0.28
 10
10.032666666666668
 20
0.2
  0
LWPOLYLINE
  5
2E2
330
17
100
AcDbEntity
  8
NUMBERS
100
AcDbPolyline
 90
2
 70
0
 10
10.032666666666668
 20
0.24000000000000002
 10
10.072666666666667
 20
0.24000000000000002
  0
LWPOLYLINE
  5
2E3
330
17
100
AcDbEntity
  8
NUMBERS
100
AcDbPolyline
 90
2
 70
0
 10
10.114
 20
0.22666666666666668
 10
10.154000000000002
 20
0.22666666666666668
  0
LWPOLYLINE
  5
2E4
330
17
100
AcDbEntity
  8
NUMBERS
100
AcDbPolyline
 90
2
 70
0
 10
10.114
 20
0.25333333333333335
 10
10.154000000000002
 20
0.25333333333333335
  0
LWPOLYLINE
  5
2E5
330
17
100
AcDbEntity
  8
NUMBERS
100
AcDbPolyline
 90
5
 70
0
 10
10.182000000000002
 20
0.2
 10
10.235333333333335
 20
0.2
 10
10.235333333333335
 20
0.28
 10
10.182000000000002
 20
0.28
 10
10.182000000000002
 20
0.2
  0
LWPOLYLINE
  5
2E6
330
17
100
AcDbEntity
  8
NUMBERS
100
AcDbPolyline
 90
2
 70
0
 10
10.182000000000002
 20
0.2
 10
10.235333333333335
 20
0.28
  0
LWPOLYLINE
  5
2E7
330
17
100
AcDbEntity
  8
NUMBERS
100
AcDbPolyline
 90
5
 70
0
 10
10.280666666666669
 20
0.2
 10
10.286000000000003
 20
0.2
 10
10.286000000000003
 20
0.20533333333333334
 10
10.280666666666669
 20
0.20533333333333334
 10
10.280666666666669
 20
0.2
  0
LWPOLYLINE
  5
2E8
330
17
100
AcDbEntity
  8
NUMBERS
100
AcDbPolyline
 90
5
 70
0
 10
10.331333333333335
 20
0.2
 10
10.384666666666668
 20
0.2
 10
10.384666666666668
 20
0.28
 10
10.331333333333335
 20
0.28
 10
10.331333333333335
 20
0.2
  0
LWPOLYLINE
  5
2E9
330
17
100
AcDbEntity
  8
NUMBERS
100
AcDbPolyline
 90
2
 70
0
 10
10.331333333333335
 20
0.2
 10
10.384666666666668
 20
0.28
  0
LWPOLYLINE
  5
2EA
330
17
100
AcDbEntity
  8
NUMBERS
100
AcDbPolyline
 90
5
 70
0
 10
10.406000000000002
 20
0.2
 10
10.459333333333335
 20
0.2
 10
10.459333333333335
 20
0.28
 10
10.406000000000002
 20
0.28
 10
10.406000000000002
 20
0.2
  0
LWPOLYLINE
  5
2EB
330
17
100
AcDbEntity
  8
NUMBERS
100
AcDbPolyline
 90
2
 70
0
 10
10.406000000000002
 20
0.2
 10
10.459333333333335
 20
0.28
  0
LWPOLYLINE
  5
2EC
330
17
100
AcDbEntity
  8
NUMBERS
100
AcDbPolyline
 90
5
 70
0
 10
10.480666666666668
 20
0.2
 10
10.534
 20
0.2
 10
10.534
 20
0.28
 10
10.480666666666668
 20
0.28
 10
10.480666666666668
 20
0.2
  0
LWPOLYLINE
  5
2ED
330
17
100
AcDbEntity
  8
NUMBERS
100
AcDbPolyline
 90
2
 70
0
 10
10.480666666666668
 20
0.2
 10
10.534
 20
0.28
  0
LWPOLYLINE
  5
2EE
330
17
100
AcDbEntity
  8
NUMBERS
100
AcDbPolyline
 90
5
 70
0
 10
10.555333333333335
 20
0.2
 10
10.608666666666668
 20
0.2
 10
10.608666666666668
 20
0.28
 10
10.555333333333335
 20
0.28
 10
10.555333333333335
 20
0.2
  0
LWPOLYLINE
  5
2EF
330
17
100
AcDbEntity
  8
NUMBERS
100
AcDbPolyline
 90
2
 70
0
 10
10.555333333333335
 20
0.2
 10
10.608666666666668
 20
0.28
  0
LWPOLYLINE
  5
2F0
330
17
100
AcDbEntity
  8
NUMBERS
100
AcDbPolyline
 90
2
 70
0
 10
10.718000000000002
 20
0.2
 10
10.744666666666667
 20
0.2
  0
LWPOLYLINE
  5
2F1
330
17
100
AcDbEntity
  8
NUMBERS
100
AcDbPolyline
 90
2
 70
0
 10
10.731333333333335
 20
0.2
 10
10.731333333333335
 20
0.28
  0
LWPOLYLINE
  5
2F2
330
17
100
AcDbEntity
  8
NUMBERS
100
AcDbPolyline
 90
2
 70
0
 10
10.718000000000002
 20
0.28
 10
10.744666666666667
 20
0.28
  0
LWPOLYLINE
  5
2F3
330
17
100
AcDbEntity
  8
NUMBERS
100
AcDbPolyline
 90
4
 70
0
 10
10.779333333333335
 20
0.2
 10
10.779333333333335
 20
0.28
 10
10.832666666666668
 20
0.2
 10
10.832666666666668
 20
0.28
  0
LWPOLYLINE
  5
2F4
330
17
100
AcDbEntity
  8
NUMBERS
100
AcDbPolyline
 90
4
 70
0
 10
10.968666666666667
 20
0.28
 10
10.948666666666668
 20
0.26
 10
10.948666666666668
 20
0.22000000000000003
 10
10.968666666666667
 20
0.2
  0
LWPOLYLINE
  5
2F5
330
17
100
AcDbEntity
  8
NUMBERS
100
AcDbPolyline
 90
4
 70
0
 10
11.003333333333336
 20
0.28
 10
11.003333333333336
 20
0.2
 10
11.056666666666668
 20
0.2
 10
11.056666666666668
 20
0.28
  0
LWPOLYLINE
  5
2F6
330
17
100
AcDbEntity
  8
NUMBERS
100
AcDbPolyline
 90
6
 70
0
 10
11.131333333333334
 20
0.28
 10
11.078000000000001
 20
0.28
 10
11.078000000000001
 20
0.24000000000000002
 10
11.131333333333334
 20
0.24000000000000002
 10
11.131333333333334
 20
0.2
 10
11.078000000000001
 20
0.2
  0
LWPOLYLINE
  5
2F7
330
17
100
AcDbEntity
  8
NUMBERS
100
AcDbPolyline
 90
4
 70
0
 10
11.206000000000001
 20
0.28
 10
11.152666666666669
 20
0.28
 10
11.152666666666669
 20
0.2
 10
11.206000000000001
 20
0.2
  0
LWPOLYLINE
  5
2F8
330
17
100
AcDbEntity
  8
NUMBERS
100
AcDbPolyline
 90
2
 70
0
 10
11.152666666666669
 20
0.24000000000000002
 10
11.192666666666668
 20
0.24000000000000002
  0
LWPOLYLINE
  5
2F9
330
17
100
AcDbEntity
  8
NUMBERS
100
AcDbPolyline
 90
6
 70
0
 10
11.227333333333336
 20
0.2
 10
11.227333333333336
 20
0.28
 10
11.280666666666669
 20
0.28
 10
11.280666666666669
 20
0.24000000000000002
 10
11.227333333333336
 20
0.24000000000000002
 10
11.280666666666669
 20
0.2
  0
LWPOLYLINE
  5
2FA
330
17
100
AcDbEntity
  8
NUMBERS
100
AcDbPolyline
 90
5
 70
0
 10
11.376666666666669
 20
0.2
 10
11.376666666666669
 20
0.25333333333333335
 10
11.403333333333336
 20
0.28
 10
11.430000000000001
 20
0.25333333333333335
 10
11.430000000000001
 20
0.2
  0
LWPOLYLINE
  5
2FB
330
17
100
AcDbEntity
  8
NUMBERS
100
AcDbPolyline
 90
2
 70
0
 10
11.376666666666669
 20
0.24000000000000002
 10
11.430000000000001
 20
0.24000000000000002
  0
LWPOLYLINE
  5
2FC
330
17
100
AcDbEntity
  8
NUMBERS
100
AcDbPolyline
 90
7
 70
0
 10
11.451333333333334
 20
0.2
 10
11.451333333333334
 20
0.28
 10
11.484666666666667
 20
0.28
 10
11.504666666666667
 20
0.26
 10
11.504666666666667
 20
0.22000000000000003
 10
11.484666666666667
 20
0.2
 10
11.451333333333334
 20
0.2
  0
LWPOLYLINE
  5
2FD
330
17
100
AcDbEntity
  8
NUMBERS
100
AcDbPolyline
 90
5
 70
0
 10
11.579333333333334
 20
0.28
 10
11.579333333333334
 20
0.21333333333333335
 10
11.566
 20
0.2
 10
11.539333333333335
 20
0.2
 10
11.526000000000002
 20
0.21333333333333335
  0
LWPOLYLINE
  5
2FE
330
17
100
AcDbEntity
  8
NUMBERS
100
AcDbPolyline
 90
4
 70
0
 10
11.600666666666669
 20
0.28
 10
11.600666666666669
 20
0.2
 10
11.654000000000002
 20
0.2
 10
11.654000000000002
 20
0.28
  0
LWPOLYLINE
  5
2FF
330
17
100
AcDbEntity
  8
NUMBERS
100
AcDbPolyline
 90
6
 70
0
 10
11.728666666666669
 20
0.28
 10
11.675333333333336
 20
0.28
 10
11.675333333333336
 20
0.24000000000000002
 10
11.728666666666669
 20
0.24000000000000002
 10
11.728666666666669
 20
0.2
 10
11.675333333333336
 20
0.2
  0
LWPOLYLINE
  5
300
330
17
100
AcDbEntity
  8
NUMBERS
100
AcDbPolyline
 90
2
 70
0
 10
11.750000000000004
 20
0.28
 10
11.803333333333336
 20
0.28
  0
LWPOLYLINE
  5
301
330
17
100
AcDbEntity
  8
NUMBERS
100
AcDbPolyline
 90
2
 70
0
 10
11.77666666666667
 20
0.28
 10
11.77666666666667
 20
0.2
  0
LWPOLYLINE
  5
302
330
17
100
AcDbEntity
  8
NUMBERS
100
AcDbPolyline
 90
5
 70
0
 10
11.824666666666669
 20
0.2
 10
11.824666666666669
 20
0.25333333333333335
 10
11.851333333333336
 20
0.28
 10
11.878000000000002
 20
0.25333333333333335
 10
11.878000000000002
 20
0.2
  0
LWPOLYLINE
  5
303
330
17
100
AcDbEntity
  8
NUMBERS
100
AcDbPolyline
 90
2
 70
0
 10
11.824666666666669
 20
0.24000000000000002
 10
11.878000000000002
 20
0.24000000000000002
  0
LWPOLYLINE
  5
304
330
17
100
AcDbEntity
  8
NUMBERS
100
AcDbPolyline
 90
7
 70
0
 10
11.899333333333335
 20
0.2
 10
11.899333333333335
 20
0.28
 10
11.939333333333334
 20
0.28
 10
11.952666666666667
 20
0.2666666666666667
 10
11.952666666666667
 20
0.25333333333333335
 10
11.939333333333334
 20
0.24000000000000002
 10
11.899333333333335
 20
0.24000000000000002
  0
LWPOLYLINE
  5
305
330
17
100
AcDbEntity
  8
NUMBERS
100
AcDbPolyline
 90
5
 70
0
 10
11.939333333333334
 20
0.24000000000000002
 10
11.952666666666667
 20
0.22666666666666668
 10
11.952666666666667
 20
0.21333333333333335
 10
11.939333333333334
 20
0.2
 10
11.899333333333335
 20
0.2
  0
LWPOLYLINE
  5
306
330
17
100
AcDbEntity
  8
NUMBERS
100
AcDbPolyline
 90
3
 70
0
 10
11.974000000000002
 20
0.28
 10
11.974000000000002
 20
0.2
 10
12.027333333333335
 20
0.2
  0
LWPOLYLINE
  5
307
330
17
100
AcDbEntity
  8
NUMBERS
100
AcDbPolyline
 90
4
 70
0
 10
12.102000000000002
 20
0.28
 10
12.04866666666667
 20
0.28
 10
12.04866666666667
 20
0.2
 10
12.102000000000002
 20
0.2
  0
LWPOLYLINE
  5
308
330
17
100
AcDbEntity
  8
NUMBERS
100
AcDbPolyline
 90
2
 70
0
 10
12.04866666666667
 20
0.24000000000000002
 10
12.088666666666668
 20
0.24000000000000002
  0
LWPOLYLINE
  5
309
330
17
100
AcDbEntity
  8
NUMBERS
100
AcDbPolyline
 90
4
 70
0
 10
12.13666666666667
 20
0.28
 10
12.15666666666667
 20
0.26
 10
12.15666666666667
 20
0.22000000000000003
 10
12.13666666666667
 20
0.2
  0
LWPOLYLINE
  5
30A
330
17
100
AcDbEntity
  8
NUMBERS
100
AcDbPolyline
 90
7
 70
0
 10
12.422000000000002
 20
0.28
 10
12.475333333333335
 20
0.28
 10
12.44866666666667
 20
0.2466666666666667
 10
12.475333333333335
 20
0.23333333333333334
 10
12.475333333333335
 20
0.21333333333333335
 10
12.462000000000002
 20
0.2
 10
12.422000000000002
 20
0.2
  0
LWPOLYLINE
  5
30B
330
17
100
AcDbEntity
  8
NUMBERS
100
AcDbPolyline
 90
5
 70
0
 10
12.49666666666667
 20
0.2
 10
12.550000000000002
 20
0.2
 10
12.550000000000002
 20
0.28
 10
12.49666666666667
 20
0.28
 10
12.49666666666667
 20
0.2
  0
LWPOLYLINE
  5
30C
330
17
100
AcDbEntity
  8
NUMBERS
100
AcDbPolyline
 90
2
 70
0
 10
12.49666666666667
 20
0.2
 10
12.550000000000002
 20
0.28
  0
LWPOLYLINE
  5
30D
330
17
100
AcDbEntity
  8
NUMBERS
100
AcDbPolyline
 90
2
 70
0
 10
12.646000000000003
 20
0.2
 10
12.699333333333335
 20
0.28
  0
LWPOLYLINE
  5
30E
330
17
100
AcDbEntity
  8
NUMBERS
100
AcDbPolyline
 90
2
 70
0
 10
12.646000000000003
 20
0.28
 10
12.699333333333335
 20
0.2
  0
LWPOLYLINE
  5
30F
330
17
100
AcDbEntity
  8
NUMBERS
100
AcDbPolyline
 90
7
 70
0
 10
12.795333333333335
 20
0.2666666666666667
 10
12.808666666666669
 20
0.28
 10
12.835333333333335
 20
0.28
 10
12.848666666666668
 20
0.2666666666666667
 10
12.848666666666668
 20
0.25333333333333335
 10
12.795333333333335
 20
0.2
 10
12.848666666666668
 20
0.2
  0
LWPOLYLINE
  5
310
330
17
100
AcDbEntity
  8
NUMBERS
100
AcDbPolyline
 90
5
 70
0
 10
12.870000000000001
 20
0.2
 10
12.923333333333334
 20
0.2
 10
12.923333333333334
 20
0.28
 10
12.870000000000001
 20
0.28
 10
12.870000000000001
 20
0.2
  0
LWPOLYLINE
  5
311
330
17
100
AcDbEntity
  8
NUMBERS
100
AcDbPolyline
 90
2
 70
0
 10
12.870000000000001
 20
0.2
 10
12.923333333333334
 20
0.28
  0
LWPOLYLINE
  5
312
330
17
100
AcDbEntity
  8
NUMBERS
100
AcDbPolyline
 90
2
 70
0
 10
13.03266666666667
 20
0.2
 10
13.059333333333335
 20
0.2
  0
LWPOLYLINE
  5
313
330
17
100
AcDbEntity
  8
NUMBERS
100
AcDbPolyline
 90
2
 70
0
 10
13.046000000000003
 20
0.2
 10
13.046000000000003
 20
0.28
  0
LWPOLYLINE
  5
314
330
17
100
AcDbEntity
  8
NUMBERS
100
AcDbPolyline
 90
2
 70
0
 10
13.03266666666667
 20
0.28
 10
13.059333333333335
 20
0.28
  0
LWPOLYLINE
  5
315
330
17
100
AcDbEntity
  8
NUMBERS
100
AcDbPolyline
 90
4
 70
0
 10
13.094000000000003
 20
0.2
 10
13.094000000000003
 20
0.28
 10
13.147333333333336
 20
0.2
 10
13.147333333333336
 20
0.28
  0
LWPOLYLINE
  5
316
330
17
100
AcDbEntity
  8
NUMBERS
100
AcDbPolyline
 90
2
 70
0
 10
0.32999999999999996
 20
19.759999999999998
 10
0.3833333333333333
 20
19.759999999999998
  0
LWPOLYLINE
  5
317
330
17
100
AcDbEntity
  8
NUMBERS
100
AcDbPolyline
 90
2
 70
0
 10
0.35666666666666663
 20
19.759999999999998
 10
0.35666666666666663
 20
19.68
  0
LWPOLYLINE
  5
318
330
17
100
AcDbEntity
  8
NUMBERS
100
AcDbPolyline
 90
5
 70
0
 10
0.4046666666666666
 20
19.68
 10
0.45799999999999996
 20
19.68
 10
0.45799999999999996
 20
19.759999999999998
 10
0.4046666666666666
 20
19.759999999999998
 10
0.4046666666666666
 20
19.68
  0
LWPOLYLINE
  5
319
330
17
100
AcDbEntity
  8
NUMBERS
100
AcDbPolyline
 90
5
 70
0
 10
0.4793333333333333
 20
19.68
 10
0.4793333333333333
 20
19.759999999999998
 10
0.5326666666666666
 20
19.759999999999998
 10
0.5326666666666666
 20
19.72
 10
0.4793333333333333
 20
19.72
  0
LWPOLYLINE
  5
31A
330
17
100
AcDbEntity
  8
NUMBERS
100
AcDbPolyline
 90
6
 70
0
 10
0.682
 20
19.759999999999998
 10
0.6286666666666667
 20
19.759999999999998
 10
0.6286666666666667
 20
19.72
 10
0.682
 20
19.72
 10
0.682
 20
19.68
 10
0.6286666666666667
 20
19.68
  0
LWPOLYLINE
  5
31B
330
17
100
AcDbEntity
  8
NUMBERS
100
AcDbPolyline
 90
2
 70
0
 10
0.7033333333333334
 20
19.68
 10
0.7033333333333334
 20
19.759999999999998
  0
LWPOLYLINE
  5
31C
330
17
100
AcDbEntity
  8
NUMBERS
100
AcDbPolyline
 90
2
 70
0
 10
0.7566666666666667
 20
19.68
 10
0.7566666666666667
 20
19.759999999999998
  0
LWPOLYLINE
  5
31D
330
17
100
AcDbEntity
  8
NUMBERS
100
AcDbPolyline
 90
2
 70
0
 10
0.7033333333333334
 20
19.72
 10
0.7566666666666667
 20
19.72
  0
LWPOLYLINE
  5
31E
330
17
100
AcDbEntity
  8
NUMBERS
100
AcDbPolyline
 90
4
 70
0
 10
0.8313333333333334
 20
19.759999999999998
 10
0.778
 20
19.759999999999998
 10
0.778
 20
19.68
 10
0.8313333333333334
 20
19.68
  0
LWPOLYLINE
  5
31F
330
17
100
AcDbEntity
  8
NUMBERS
100
AcDbPolyline
 90
2
 70
0
 10
0.778
 20
19.72
 10
0.8180000000000001
 20
19.72
  0
LWPOLYLINE
  5
320
330
17
100
AcDbEntity
  8
NUMBERS
100
AcDbPolyline
 90
4
 70
0
 10
0.906
 20
19.759999999999998
 10
0.8526666666666667
 20
19.759999999999998
 10
0.8526666666666667
 20
19.68
 10
0.906
 20
19.68
  0
LWPOLYLINE
  5
321
330
17
100
AcDbEntity
  8
NUMBERS
100
AcDbPolyline
 90
2
 70
0
 10
0.8526666666666667
 20
19.72
 10
0.8926666666666667
 20
19.72
  0
LWPOLYLINE
  5
322
330
17
100
AcDbEntity
  8
NUMBERS
100
AcDbPolyline
 90
2
 70
0
 10
0.9273333333333333
 20
19.759999999999998
 10
0.9806666666666667
 20
19.759999999999998
  0
LWPOLYLINE
  5
323
330
17
100
AcDbEntity
  8
NUMBERS
100
AcDbPolyline
 90
2
 70
0
 10
0.954
 20
19.759999999999998
 10
0.954
 20
19.68
  0
LWPOLYLINE
  5
324
330
17
100
AcDbEntity
  8
NUMBERS
100
AcDbPolyline
 90
2
 70
0
 10
1.0086666666666668
 20
19.72
 10
1.0486666666666669
 20
19.72
  0
LWPOLYLINE
  5
325
330
17
100
AcDbEntity
  8
NUMBERS
100
AcDbPolyline
 90
5
 70
0
 10
1.0766666666666667
 20
19.68
 10
1.13
 20
19.68
 10
1.13
 20
19.759999999999998
 10
1.0766666666666667
 20
19.759999999999998
 10
1.0766666666666667
 20
19.68
  0
LWPOLYLINE
  5
326
330
17
100
AcDbEntity
  8
NUMBERS
100
AcDbPolyline
 90
2
 70
0
 10
1.0766666666666667
 20
19.68
 10
1.13
 20
19.759999999999998
  0
LWPOLYLINE
  5
327
330
17
100
AcDbEntity
  8
NUMBERS
100
AcDbPolyline
 90
4
 70
0
 10
1.1913333333333336
 20
19.68
 10
1.1913333333333336
 20
19.759999999999998
 10
1.1513333333333335
 20
19.706666666666667
 10
1.2046666666666668
 20
19.706666666666667
  0
LWPOLYLINE
  5
328
330
17
100
AcDbEntity
  8
BOUNDARY
100
AcDbPolyline
 90
4
 70
1
 10
30.0
 20
0.0
 10
30.0
 20
20.0
 10
0.0
 20
20.0
 10
0.0
 20
0.0
  0
LWPOLYLINE
  5
329
330
17
100
AcDbEntity
  8
BOUNDARY
100
AcDbPolyline
 90
4
 70
1
 10
29.5
 20
0.5
 10
29.5
 20
19.5
 10
0.5
 20
19.5
 10
0.5
 20
0.5
  0
ENDSEC
  0
SECTION
  2
OBJECTS
  0
DICTIONARY
  5
A
330
0
100
AcDbDictionary
281
1
  3
ACAD_COLOR
350
B
  3
ACAD_GROUP
350
C
  3
ACAD_LAYOUT
350
D
  3
ACAD_MATERIAL
350
E
  3
ACAD_MLEADERSTYLE
350
F
  3
ACAD_MLINESTYLE
350
10
  3
ACAD_PLOTSETTINGS
350
11
  3
ACAD_PLOTSTYLENAME
350
12
  3
ACAD_SCALELIST
350
14
  3
ACAD_TABLESTYLE
350
15
  3
ACAD_VISUALSTYLE
350
16
  3
EZDXF_META
350
2D
  0
DICTIONARY
  5
B
330
A
100
AcDbDictionary
281
1
  0
DICTIONARY
  5
C
330
A
100
AcDbDictionary
281
1
  0
DICTIONARY
  5
D
330
A
100
AcDbDictionary
281
1
  3
Model
350
1A
  3
Layout1
350
1E
  0
DICTIONARY
  5
E
330
A
100
AcDbDictionary
281
1
  3
ByBlock
350
1F
  3
ByLayer
350
20
  3
Global
350
21
  0
DICTIONARY
  5
F
330
A
100
AcDbDictionary
281
1
  3
Standard
350
2C
  0
DICTIONARY
  5
10
330
A
100
AcDbDictionary
281
1
  3
Standard
350
22
  0
DICTIONARY
  5
11
330
A
100
AcDbDictionary
281
1
  0
ACDBDICTIONARYWDFLT
  5
12
330
A
100
AcDbDictionary
281
1
  3
Normal
350
13
100
AcDbDictionaryWithDefault
340
13
  0
ACDBPLACEHOLDER
  5
13
330
12
  0
DICTIONARY
  5
14
330
A
100
AcDbDictionary
281
1
  0
DICTIONARY
  5
15
330
A
100
AcDbDictionary
281
1
  0
DICTIONARY
  5
16
330
A
100
AcDbDictionary
281
1
  0
LAYOUT
  5
1A
330
D
100
AcDbPlotSettings
  1

  4
A3
  6

 40
7.5
 41
20.0
 42
7.5
 43
20.0
 44
420.0
 45
297.0
 46
0.0
 47
0.0
 48
0.0
 49
0.0
140
0.0
141
0.0
142
1.0
143
1.0
 70
1024
 72
1
 73
0
 74
5
  7

 75
16
 76
0
 77
2
 78
300
147
1.0
148
0.0
149
0.0
100
AcDbLayout
  1
Model
 70
1
 71
0
 10
0.0
 20
0.0
 11
420.0
 21
297.0
 12
0.0
 22
0.0
 32
0.0
 14
1e+20
 24
1e+20
 34
1e+20
 15
-1e+20
 25
-1e+20
 35
-1e+20
146
0.0
 13
0.0
 23
0.0
 33
0.0
 16
1.0
 26
0.0
 36
0.0
 17
0.0
 27
1.0
 37
0.0
 76
1
330
17
  0
LAYOUT
  5
1E
330
D
100
AcDbPlotSettings
  1

  4
A3
  6

 40
7.5
 41
20.0
 42
7.5
 43
20.0
 44
420.0
 45
297.0
 46
0.0
 47
0.0
 48
0.0
 49
0.0
140
0.0
141
0.0
142
1.0
143
1.0
 70
0
 72
1
 73
0
 74
5
  7

 75
16
 76
0
 77
2
 78
300
147
1.0
148
0.0
149
0.0
100
AcDbLayout
  1
Layout1
 70
1
 71
1
 10
0.0
 20
0.0
 11
420.0
 21
297.0
 12
0.0
 22
0.0
 32
0.0
 14
1e+20
 24
1e+20
 34
1e+20
 15
-1e+20
 25
-1e+20
 35
-1e+20
146
0.0
 13
0.0
 23
0.0
 33
0.0
 16
1.0
 26
0.0
 36
0.0
 17
0.0
 27
1.0
 37
0.0
 76
1
330
1B
  0
MATERIAL
  5
1F
102
{ACAD_REACTORS
330
E
102
}
330
E
100
AcDbMaterial
  1
ByBlock
  2

 70
0
 40
1.0
 71
1
 41
1.0
 91
-1023410177
 42
1.0
 72
1
  3

 73
1
 74
1
 75
1
 44
0.5
 73
0
 45
1.0
 46
1.0
 77
1
  4

 78
1
 79
1
170
1
 48
1.0
171
1
  6

172
1
173
1
174
1
140
1.0
141
1.0
175
1
  7

176
1
177
1
178
1
143
1.0
179
1
  8

270
1
271
1
272
1
145
1.0
146
1.0
273
1
  9

274
1
275
1
276
1
 42
1.0
 72
1
  3

 73
1
 74
1
 75
1
 94
63
  0
MATERIAL
  5
20
102
{ACAD_REACTORS
330
E
102
}
330
E
100
AcDbMaterial
  1
ByLayer
  2

 70
0
 40
1.0
 71
1
 41
1.0
 91
-1023410177
 42
1.0
 72
1
  3

 73
1
 74
1
 75
1
 44
0.5
 73
0
 45
1.0
 46
1.0
 77
1
  4

 78
1
 79
1
170
1
 48
1.0
171
1
  6

172
1
173
1
174
1
140
1.0
141
1.0
175
1
  7

176
1
177
1
178
1
143
1.0
179
1
  8

270
1
271
1
272
1
145
1.0
146
1.0
273
1
  9

274
1
275
1
276
1
 42
1.0
 72
1
  3

 73
1
 74
1
 75
1
 94
63
  0
MATERIAL
  5
21
102
{ACAD_REACTORS
330
E
102
}
330
E
100
AcDbMaterial
  1
Global
  2

 70
0
 40
1.0
 71
1
 41
1.0
 91
-1023410177
 42
1.0
 72
1
  3

 73
1
 74
1
 75
1
 44
0.5
 73
0
 45
1.0
 46
1.0
 77
1
  4

 78
1
 79
1
170
1
 48
1.0
171
1
  6

172
1
173
1
174
1
140
1.0
141
1.0
175
1
  7

176
1
177
1
178
1
143
1.0
179
1
  8

270
1
271
1
272
1
145
1.0
146
1.0
273
1
  9

274
1
275
1
276
1
 42
1.0
 72
1
  3

 73
1
 74
1
 75
1
 94
63
  0
MLINESTYLE
  5
22
102
{ACAD_REACTORS
330
10
102
}
330
10
100
AcDbMlineStyle
  2
Standard
 70
0
  3

 62
256
 51
90.0
 52
90.0
 71
2
 49
0.5
 62
256
  6
BYLAYER
 49
-0.5
 62
256
  6
BYLAYER
  0
MLEADERSTYLE
  5
2C
102
{ACAD_REACTORS
330
F
102
}
330
F
100
AcDbMLeaderStyle
179
2
170
2
171
1
172
0
 90
2
 40
0.0
 41
0.0
173
1
 91
-1056964608
 92
-2
290
1
 42
2.0
291
1
 43
8.0
  3
Standard
 44
4.0
300

342
29
174
1
175
1
176
0
178
1
 93
-1056964608
 45
4.0
292
0
297
0
 46
4.0
 94
-1056964608
 47
1.0
 49
1.0
140
1.0
294
1
141
0.0
177
0
142
1.0
295
0
296
0
143
3.75
271
0
272
9
273
9
  0
DICTIONARY
  5
2D
330
A
100
AcDbDictionary
280
1
281
1
  3
CREATED_BY_EZDXF
350
2E
  3
WRITTEN_BY_EZDXF
350
32C
  0
DICTIONARYVAR
  5
2E
330
2D
100
DictionaryVariables
280
0
  1
1.4.4 @ 2026-10-05T22:04:58.049383+00:00
  0
DICTIONARYVAR
  5
32C
330
2D
100
DictionaryVariables
280
0
  1
1.4.4 @ 2026-10-05T22:04:58.084519+00:00
  0
ENDSEC
  0
EOF
