  0
SECTION
  2
HEADER
  9
$ACADVER
  1
AC1027
  9
$ACADMAINTVER
 70
105
  9
$DWGCODEPAGE
  3
ANSI_1252
  9
$LASTSAVEDBY
  1
ezdxf
  9
$REQUIREDVERSIONS
160
0
  9
$INSBASE
 10
0.0
 20
0.0
 30
0.0
  9
$EXTMIN
 10
1e+20
 20
1e+20
 30
1e+20
  9
$EXTMAX
 10
-1e+20
 20
-1e+20
 30
-1e+20
  9
$LIMMIN
 10
0.0
 20
0.0
  9
$LIMMAX
 10
420.0
 20
297.0
  9
$ORTHOMODE
 70
0
  9
$REGENMODE
 70
1
  9
$FILLMODE
 70
1
  9
$QTEXTMODE
 70
0
  9
$MIRRTEXT
 70
1
  9
$LTSCALE
 40
1.0
  9
$ATTMODE
 70
1
  9
$TEXTSIZE
 40
2.5
  9
$TRACEWID
 40
1.0
  9
$TEXTSTYLE
  7
Standard
  9
$CLAYER
  8
0
  9
$CELTYPE
  6
ByLayer
  9
$CECOLOR
 62
256
  9
$CELTSCALE
 40
1.0
  9
$DISPSILH
 70
0
  9
$DIMSCALE
 40
1.0
  9
$DIMASZ
 40
2.5
  9
$DIMEXO
 40
0.625
  9
$DIMDLI
 40
3.75
  9
$DIMRND
 40
0.0
  9
$DIMDLE
 40
0.0
  9
$DIMEXE
 40
1.25
  9
$DIMTP
 40
0.0
  9
$DIMTM
 40
0.0
  9
$DIMTXT
 40
2.5
  9
$DIMCEN
 40
2.5
  9
$DIMTSZ
 40
0.0
  9
$DIMTOL
 70
0
  9
$DIMLIM
 70
0
  9
$DIMTIH
 70
0
  9
$DIMTOH
 70
0
  9
$DIMSE1
 70
0
  9
$DIMSE2
 70
0
  9
$DIMTAD
 70
1
  9
$DIMZIN
 70
8
  9
$DIMBLK
  1

  9
$DIMASO
 70
1
  9
$DIMSHO
 70
1
  9
$DIMPOST
  1

  9
$DIMAPOST
  1

  9
$DIMALT
 70
0
  9
$DIMALTD
 70
3
  9
$DIMALTF
 40
0.03937007874
  9
$DIMLFAC
 40
1.0
  9
$DIMTOFL
 70
1
  9
$DIMTVP
 40
0.0
  9
$DIMTIX
 70
0
  9
$DIMSOXD
 70
0
  9
$DIMSAH
 70
0
  9
$DIMBLK1
  1

  9
$DIMBLK2
  1

  9
$DIMSTYLE
  2
ISO-25
  9
$DIMCLRD
 70
0
  9
$DIMCLRE
 70
0
  9
$DIMCLRT
 70
0
  9
$DIMTFAC
 40
1.0
  9
$DIMGAP
 40
0.625
  9
$DIMJUST
 70
0
  9
$DIMSD1
 70
0
  9
$DIMSD2
 70
0
  9
$DIMTOLJ
 70
0
  9
$DIMTZIN
 70
8
  9
$DIMALTZ
 70
0
  9
$DIMALTTZ
 70
0
  9
$DIMUPT
 70
0
  9
$DIMDEC
 70
2
  9
$DIMTDEC
 70
2
  9
$DIMALTU
 70
2
  9
$DIMALTTD
 70
3
  9
$DIMTXSTY
  7
Standard
  9
$DIMAUNIT
 70
0
  9
$DIMADEC
 70
0
  9
$DIMALTRND
 40
0.0
  9
$DIMAZIN
 70
0
  9
$DIMDSEP
 70
44
  9
$DIMATFIT
 70
3
  9
$DIMFRAC
 70
0
  9
$DIMLDRBLK
  1

  9
$DIMLUNIT
 70
2
  9
$DIMLWD
 70
-2
  9
$DIMLWE
 70
-2
  9
$DIMTMOVE
 70
0
  9
$DIMFXL
 40
1.0
  9
$DIMFXLON
 70
0
  9
$DIMJOGANG
 40
0.785398163397
  9
$DIMTFILL
 70
0
  9
$DIMTFILLCLR
 70
0
  9
$DIMARCSYM
 70
0
  9
$DIMLTYPE
  6

  9
$DIMLTEX1
  6

  9
$DIMLTEX2
  6

  9
$DIMTXTDIRECTION
 70
0
  9
$LUNITS
 70
2
  9
$LUPREC
 70
4
  9
$SKETCHINC
 40
1.0
  9
$FILLETRAD
 40
10.0
  9
$AUNITS
 70
0
  9
$AUPREC
 70
2
  9
$MENU
  1
.
  9
$ELEVATION
 40
0.0
  9
$PELEVATION
 40
0.0
  9
$THICKNESS
 40
0.0
  9
$LIMCHECK
 70
0
  9
$CHAMFERA
 40
0.0
  9
$CHAMFERB
 40
0.0
  9
$CHAMFERC
 40
0.0
  9
$CHAMFERD
 40
0.0
  9
$SKPOLY
 70
0
  9
$TDCREATE
 40
2461319.9200694445
  9
$TDUCREATE
 40
2458532.153996898
  9
$TDUPDATE
 40
2461319.9200694445
  9
$TDUUPDATE
 40
2458532.1544311
  9
$TDINDWG
 40
0.0
  9
$TDUSRTIMER
 40
0.0
  9
$USRTIMER
 70
1
  9
$ANGBASE
 50
0.0
  9
$ANGDIR
 70
0
  9
$PDMODE
 70
0
  9
$PDSIZE
 40
0.0
  9
$PLINEWID
 40
0.0
  9
$SPLFRAME
 70
0
  9
$SPLINETYPE
 70
6
  9
$SPLINESEGS
 70
8
  9
$HANDSEED
  5
23C
  9
$SURFTAB1
 70
6
  9
$SURFTAB2
 70
6
  9
$SURFTYPE
 70
6
  9
$SURFU
 70
6
  9
$SURFV
 70
6
  9
$UCSBASE
  2

  9
$UCSNAME
  2

  9
$UCSORG
 10
0.0
 20
0.0
 30
0.0
  9
$UCSXDIR
 10
1.0
 20
0.0
 30
0.0
  9
$UCSYDIR
 10
0.0
 20
1.0
 30
0.0
  9
$UCSORTHOREF
  2

  9
$UCSORTHOVIEW
 70
0
  9
$UCSORGTOP
 10
0.0
 20
0.0
 30
0.0
  9
$UCSORGBOTTOM
 10
0.0
 20
0.0
 30
0.0
  9
$UCSORGLEFT
 10
0.0
 20
0.0
 30
0.0
  9
$UCSORGRIGHT
 10
0.0
 20
0.0
 30
0.0
  9
$UCSORGFRONT
 10
0.0
 20
0.0
 30
0.0
  9
$UCSORGBACK
 10
0.0
 20
0.0
 30
0.0
  9
$PUCSBASE
  2

  9
$PUCSNAME
  2

  9
$PUCSORG
 10
0.0
 20
0.0
 30
0.0
  9
$PUCSXDIR
 10
1.0
 20
0.0
 30
0.0
  9
$PUCSYDIR
 10
0.0
 20
1.0
 30
0.0
  9
$PUCSORTHOREF
  2

  9
$PUCSORTHOVIEW
 70
0
  9
$PUCSORGTOP
 10
0.0
 20
0.0
 30
0.0
  9
$PUCSORGBOTTOM
 10
0.0
 20
0.0
 30
0.0
  9
$PUCSORGLEFT
 10
0.0
 20
0.0
 30
0.0
  9
$PUCSORGRIGHT
 10
0.0
 20
0.0
 30
0.0
  9
$PUCSORGFRONT
 10
0.0
 20
0.0
 30
0.0
  9
$PUCSORGBACK
 10
0.0
 20
0.0
 30
0.0
  9
$USERI1
 70
0
  9
$USERI2
 70
0
  9
$USERI3
 70
0
  9
$USERI4
 70
0
  9
$USERI5
 70
0
  9
$USERR1
 40
0.0
  9
$USERR2
 40
0.0
  9
$USERR3
 40
0.0
  9
$USERR4
 40
0.0
  9
$USERR5
 40
0.0
  9
$WORLDVIEW
 70
1
  9
$SHADEDGE
 70
3
  9
$SHADEDIF
 70
70
  9
$TILEMODE
 70
1
  9
$MAXACTVP
 70
64
  9
$PINSBASE
 10
0.0
 20
0.0
 30
0.0
  9
$PLIMCHECK
 70
0
  9
$PEXTMIN
 10
1e+20
 20
1e+20
 30
1e+20
  9
$PEXTMAX
 10
-1e+20
 20
-1e+20
 30
-1e+20
  9
$PLIMMIN
 10
0.0
 20
0.0
  9
$PLIMMAX
 10
420.0
 20
297.0
  9
$UNITMODE
 70
0
  9
$VISRETAIN
 70
1
  9
$PLINEGEN
 70
0
  9
$PSLTSCALE
 70
1
  9
$TREEDEPTH
 70
3020
  9
$CMLSTYLE
  2
Standard
  9
$CMLJUST
 70
0
  9
$CMLSCALE
 40
20.0
  9
$PROXYGRAPHICS
 70
1
  9
$MEASUREMENT
 70
0
  9
$CELWEIGHT
370
-1
  9
$ENDCAPS
280
0
  9
$JOINSTYLE
280
0
  9
$LWDISPLAY
290
0
  9
$INSUNITS
 70
1
  9
$HYPERLINKBASE
  1

  9
$STYLESHEET
  1

  9
$XEDIT
290
1
  9
$CEPSNTYPE
380
0
  9
$PSTYLEMODE
290
1
  9
$FINGERPRINTGUID
  2
{89E2184F-F00F-406F-919F-588BE2BC673F}
  9
$VERSIONGUID
  2
{1B0BD647-CE76-416B-9D44-82FE70A5D26D}
  9
$EXTNAMES
290
1
  9
$PSVPSCALE
 40
0.0
  9
$OLESTARTUP
290
0
  9
$SORTENTS
280
127
  9
$INDEXCTL
280
0
  9
$HIDETEXT
280
1
  9
$XCLIPFRAME
280
1
  9
$HALOGAP
280
0
  9
$OBSCOLOR
 70
257
  9
$OBSLTYPE
280
0
  9
$INTERSECTIONDISPLAY
280
0
  9
$INTERSECTIONCOLOR
 70
257
  9
$DIMASSOC
280
2
  9
$PROJECTNAME
  1

  9
$CAMERADISPLAY
290
0
  9
$LENSLENGTH
 40
50.0
  9
$CAMERAHEIGHT
 40
0.0
  9
$STEPSPERSEC
 40
24.0
  9
$STEPSIZE
 40
100.0
  9
$3DDWFPREC
 40
2.0
  9
$PSOLWIDTH
 40
0.005
  9
$PSOLHEIGHT
 40
0.08
  9
$LOFTANG1
 40
1.570796326795
  9
$LOFTANG2
 40
1.570796326795
  9
$LOFTMAG1
 40
0.0
  9
$LOFTMAG2
 40
0.0
  9
$LOFTPARAM
 70
7
  9
$LOFTNORMALS
280
1
  9
$LATITUDE
 40
37.795
  9
$LONGITUDE
 40
-122.394
  9
$NORTHDIRECTION
 40
0.0
  9
$TIMEZONE
 70
-8000
  9
$LIGHTGLYPHDISPLAY
280
1
  9
$TILEMODELIGHTSYNCH
280
1
  9
$CMATERIAL
347
20
  9
$SOLIDHIST
280
0
  9
$SHOWHIST
280
1
  9
$DWFFRAME
280
2
  9
$DGNFRAME
280
2
  9
$REALWORLDSCALE
290
1
  9
$INTERFERECOLOR
 62
256
  9
$CSHADOW
280
0
  9
$SHADOWPLANELOCATION
 40
0.0
  0
ENDSEC
  0
SECTION
  2
CLASSES
  0
CLASS
  1
ACDBDICTIONARYWDFLT
  2
AcDbDictionaryWithDefault
  3
ObjectDBX Classes
 90
0
 91
0
280
0
281
0
  0
CLASS
  1
SUN
  2
AcDbSun
  3
SCENEOE
 90
1153
 91
0
280
0
281
0
  0
CLASS
  1
VISUALSTYLE
  2
AcDbVisualStyle
  3
ObjectDBX Classes
 90
4095
 91
0
280
0
281
0
  0
CLASS
  1
MATERIAL
  2
AcDbMaterial
  3
ObjectDBX Classes
 90
1153
 91
0
280
0
281
0
  0
CLASS
  1
SCALE
  2
AcDbScale
  3
ObjectDBX Classes
 90
1153
 91
0
280
0
281
0
  0
CLASS
  1
TABLESTYLE
  2
AcDbTableStyle
  3
ObjectDBX Classes
 90
4095
 91
0
280
0
281
0
  0
CLASS
  1
MLEADERSTYLE
  2
AcDbMLeaderStyle
  3
ACDB_MLEADERSTYLE_CLASS
 90
4095
 91
0
280
0
281
0
  0
CLASS
  1
DICTIONARYVAR
  2
AcDbDictionaryVar
  3
ObjectDBX Classes
 90
0
 91
0
280
0
281
0
  0
CLASS
  1
CELLSTYLEMAP
  2
AcDbCellStyleMap
  3
ObjectDBX Classes
 90
1152
 91
0
280
0
281
0
  0
CLASS
  1
MENTALRAYRENDERSETTINGS
  2
AcDbMentalRayRenderSettings
  3
SCENEOE
 90
1024
 91
0
280
0
281
0
  0
CLASS
  1
ACDBDETAILVIEWSTYLE
  2
AcDbDetailViewStyle
  3
ObjectDBX Classes
 90
1025
 91
0
280
0
281
0
  0
CLASS
  1
ACDBSECTIONVIEWSTYLE
  2
AcDbSectionViewStyle
  3
ObjectDBX Classes
 90
1025
 91
0
280
0
281
0
  0
CLASS
  1
RASTERVARIABLES
  2
AcDbRasterVariables
  3
ISM
 90
0
 91
0
280
0
281
0
  0
CLASS
  1
ACDBPLACEHOLDER
  2
AcDbPlaceHolder
  3
ObjectDBX Classes
 90
0
 91
0
280
0
281
0
  0
CLASS
  1
LAYOUT
  2
AcDbLayout
  3
ObjectDBX Classes
 90
0
 91
0
280
0
281
0
  0
ENDSEC
  0
SECTION
  2
TABLES
  0
TABLE
  2
VPORT
  5
8
330
0
100
AcDbSymbolTable
 70
1
  0
VPORT
  5
23
330
8
100
AcDbSymbolTableRecord
100
AcDbViewportTableRecord
  2
*Active
 70
0
 10
0.0
 20
0.0
 11
1.0
 21
1.0
 12
0.0
 22
0.0
 13
0.0
 23
0.0
 14
0.5
 24
0.5
 15
0.5
 25
0.5
 16
0.0
 26
0.0
 36
1.0
 17
0.0
 27
0.0
 37
0.0
 40
1000.0
 41
1.34
 42
50.0
 43
0.0
 44
0.0
 50
0.0
 51
0.0
 71
0
 72
1000
 73
1
 74
3
 75
0
 76
0
 77
0
 78
0
281
0
 65
0
146
0.0
  0
ENDTAB
  0
TABLE
  2
LTYPE
  5
2
330
0
100
AcDbSymbolTable
 70
3
  0
LTYPE
  5
24
330
2
100
AcDbSymbolTableRecord
100
AcDbLinetypeTableRecord
  2
ByBlock
 70
0
  3

 72
65
 73
0
 40
0.0
  0
LTYPE
  5
25
330
2
100
AcDbSymbolTableRecord
100
AcDbLinetypeTableRecord
  2
ByLayer
 70
0
  3

 72
65
 73
0
 40
0.0
  0
LTYPE
  5
26
330
2
100
AcDbSymbolTableRecord
100
AcDbLinetypeTableRecord
  2
Continuous
 70
0
  3

 72
65
 73
0
 40
0.0
  0
ENDTAB
  0
TABLE
  2
LAYER
  5
1
330
0
100
AcDbSymbolTable
 70
7
  0
LAYER
  5
27
330
1
100
AcDbSymbolTableRecord
100
AcDbLayerTableRecord
  2
0
 70
0
 62
7
  6
Continuous
370
-3
390
13
347
21
  0
LAYER
  5
28
330
1
100
AcDbSymbolTableRecord
100
AcDbLayerTableRecord
  2
Defpoints
 70
0
 62
7
  6
Continuous
290
0
370
-3
390
13
347
21
  0
LAYER
  5
2F
330
1
100
AcDbSymbolTableRecord
100
AcDbLayerTableRecord
  2
CUT
 70
0
 62
1
420
16711680
  6
Continuous
370
-3
390
13
347
21
  0
LAYER
  5
30
330
1
100
AcDbSymbolTableRecord
100
AcDbLayerTableRecord
  2
SCORE
 70
0
 62
5
420
255
  6
Continuous
370
-3
390
13
347
21
  0
LAYER
  5
31
330
1
100
AcDbSymbolTableRecord
100
AcDbLayerTableRecord
  2
ENGRAVE
 70
0
 62
7
420
0
  6
Continuous
370
-3
390
13
347
21
  0
LAYER
  5
32
330
1
100
AcDbSymbolTableRecord
100
AcDbLayerTableRecord
  2
NUMBERS
 70
0
 62
7
420
0
  6
Continuous
370
-3
390
13
347
21
  0
LAYER
  5
33
330
1
100
AcDbSymbolTableRecord
100
AcDbLayerTableRecord
  2
BOUNDARY
 70
0
 62
8
420
8421504
  6
Continuous
370
-3
390
13
347
21
  0
ENDTAB
  0
TABLE
  2
STYLE
  5
5
330
0
100
AcDbSymbolTable
 70
1
  0
STYLE
  5
29
330
5
100
AcDbSymbolTableRecord
100
AcDbTextStyleTableRecord
  2
Standard
 70
0
 40
0.0
 41
1.0
 50
0.0
 71
0
 42
2.5
  3
txt
  4

  0
ENDTAB
  0
TABLE
  2
VIEW
  5
7
330
0
100
AcDbSymbolTable
 70
0
  0
ENDTAB
  0
TABLE
  2
UCS
  5
6
330
0
100
AcDbSymbolTable
 70
0
  0
ENDTAB
  0
TABLE
  2
APPID
  5
3
330
0
100
AcDbSymbolTable
 70
3
  0
APPID
  5
2A
330
3
100
AcDbSymbolTableRecord
100
AcDbRegAppTableRecord
  2
ACAD
 70
0
  0
APPID
  5
239
330
3
100
AcDbSymbolTableRecord
100
AcDbRegAppTableRecord
  2
HATCHBACKGROUNDCOLOR
 70
0
  0
APPID
  5
23A
330
3
100
AcDbSymbolTableRecord
100
AcDbRegAppTableRecord
  2
EZDXF
 70
0
  0
ENDTAB
  0
TABLE
  2
DIMSTYLE
  5
4
330
0
100
AcDbSymbolTable
 70
1
100
AcDbDimStyleTable
  0
DIMSTYLE
105
2B
330
4
100
AcDbSymbolTableRecord
100
AcDbDimStyleTableRecord
  2
Standard
 70
0
 40
1.0
 41
2.5
 42
0.625
 43
3.75
 44
1.25
 45
0.0
 46
0.0
 47
0.0
 48
0.0
 49
2.5
140
2.5
141
2.5
142
0.0
143
0.03937007874
144
1.0
145
0.0
146
1.0
147
0.625
148
0.0
 69
0
 70
0
 71
0
 72
0
 73
0
 74
0
 75
0
 76
0
 77
1
 78
8
 79
3
170
0
171
3
172
1
173
0
174
0
175
0
176
0
177
0
178
0
179
2
271
2
272
2
273
2
274
3
275
0
276
0
277
2
278
44
279
0
280
0
281
0
282
0
283
0
284
8
285
0
286
0
288
0
289
3
290
0
371
-2
372
-2
  0
ENDTAB
  0
TABLE
  2
BLOCK_RECORD
  5
9
330
0
100
AcDbSymbolTable
 70
2
  0
BLOCK_RECORD
  5
17
330
9
100
AcDbSymbolTableRecord
100
AcDbBlockTableRecord
  2
*Model_Space
340
1A
 70
0
280
1
281
0
  0
BLOCK_RECORD
  5
1B
330
9
100
AcDbSymbolTableRecord
100
AcDbBlockTableRecord
  2
*Paper_Space
340
1E
 70
0
280
1
281
0
  0
ENDTAB
  0
ENDSEC
  0
SECTION
  2
BLOCKS
  0
BLOCK
  5
18
330
17
100
AcDbEntity
  8
0
100
AcDbBlockBegin
  2
*Model_Space
 70
0
 10
0.0
 20
0.0
 30
0.0
  3
*Model_Space
  1

  0
ENDBLK
  5
19
330
17
100
AcDbEntity
  8
0
100
AcDbBlockEnd
  0
BLOCK
  5
1C
330
1B
100
AcDbEntity
  8
0
100
AcDbBlockBegin
  2
*Paper_Space
 70
0
 10
0.0
 20
0.0
 30
0.0
  3
*Paper_Space
  1

  0
ENDBLK
  5
1D
330
1B
100
AcDbEntity
  8
0
100
AcDbBlockEnd
  0
ENDSEC
  0
SECTION
  2
ENTITIES
  0
LWPOLYLINE
  5
34
330
17
100
AcDbEntity
  8
CUT
100
AcDbPolyline
 90
4
 70
1
 10
13.5
 20
17.25
 10
0.5
 20
17.25
 10
0.5
 20
0.75
 10
13.5
 20
0.75
  0
LWPOLYLINE
  5
35
330
17
100
AcDbEntity
  8
CUT
100
AcDbPolyline
 90
4
 70
1
 10
26.740000000000002
 20
17.25
 10
13.74
 20
17.25
 10
13.74
 20
0.75
 10
26.740000000000002
 20
0.75
  0
LWPOLYLINE
  5
36
330
17
100
AcDbEntity
  8
CUT
100
AcDbPolyline
 90
4
 70
1
 10
27.737709973753283
 20
6.11429625984252
 10
26.98
 20
6.11429625984252
 10
26.98
 20
0.75
 10
27.737709973753283
 20
0.75
  0
LWPOLYLINE
  5
37
330
17
100
AcDbEntity
  8
CUT
100
AcDbPolyline
 90
4
 70
1
 10
28.735419947506564
 20
6.11429625984252
 10
27.97770997375328
 20
6.11429625984252
 10
27.97770997375328
 20
0.75
 10
28.735419947506564
 20
0.75
  0
LWPOLYLINE
  5
38
330
17
100
AcDbEntity
  8
CUT
100
AcDbPolyline
 90
5
 70
1
 10
29.24403871391076
 20
4.139620242782152
 10
29.30160353989607
 20
4.5977892659305315
 10
29.339429133858268
 20
4.595422346994045
 10
29.339429133858268
 20
0.75
 10
28.975419947506563
 20
0.75
  0
LWPOLYLINE
  5
39
330
17
100
AcDbEntity
  8
CUT
100
AcDbPolyline
 90
5
 70
1
 10
29.24403871391076
 20
8.137409508712683
 10
29.30160353989607
 20
8.595578531861062
 10
29.339429133858268
 20
8.593211612924577
 10
29.339429133858268
 20
4.747789265930531
 10
28.975419947506563
 20
4.747789265930531
  0
LWPOLYLINE
  5
3A
330
17
100
AcDbEntity
  8
CUT
100
AcDbPolyline
 90
4
 70
1
 10
27.737709973753283
 20
8.95655347769029
 10
26.98
 20
8.95655347769029
 10
26.98
 20
6.264296259842521
 10
27.737709973753283
 20
6.264296259842521
  0
LWPOLYLINE
  5
3B
330
17
100
AcDbEntity
  8
CUT
100
AcDbPolyline
 90
4
 70
1
 10
28.735419947506564
 20
8.95655347769029
 10
27.97770997375328
 20
8.95655347769029
 10
27.97770997375328
 20
6.264296259842521
 10
28.735419947506564
 20
6.264296259842521
  0
LWPOLYLINE
  5
3C
330
17
100
AcDbEntity
  8
CUT
100
AcDbPolyline
 90
4
 70
1
 10
27.737709973753283
 20
11.67381069553806
 10
26.98
 20
11.67381069553806
 10
26.98
 20
9.10655347769029
 10
27.737709973753283
 20
9.10655347769029
  0
LWPOLYLINE
  5
3D
330
17
100
AcDbEntity
  8
CUT
100
AcDbPolyline
 90
4
 70
1
 10
28.735419947506564
 20
11.67381069553806
 10
27.97770997375328
 20
11.67381069553806
 10
27.97770997375328
 20
9.10655347769029
 10
28.735419947506564
 20
9.10655347769029
  0
LWPOLYLINE
  5
3E
330
17
100
AcDbEntity
  8
CUT
100
AcDbPolyline
 90
4
 70
1
 10
27.737709973753283
 20
14.39106791338583
 10
26.98
 20
14.39106791338583
 10
26.98
 20
11.82381069553806
 10
27.737709973753283
 20
11.82381069553806
  0
LWPOLYLINE
  5
3F
330
17
100
AcDbEntity
  8
CUT
100
AcDbPolyline
 90
4
 70
1
 10
28.735419947506564
 20
14.39106791338583
 10
27.97770997375328
 20
14.39106791338583
 10
27.97770997375328
 20
11.82381069553806
 10
28.735419947506564
 20
11.82381069553806
  0
LWPOLYLINE
  5
40
330
17
100
AcDbEntity
  8
CUT
100
AcDbPolyline
 90
4
 70
1
 10
27.48139435695538
 20
17.1083251312336
 10
26.98
 20
17.1083251312336
 10
26.98
 20
14.541067913385831
 10
27.48139435695538
 20
14.541067913385831
  0
LWPOLYLINE
  5
41
330
17
100
AcDbEntity
  8
CUT
100
AcDbPolyline
 90
4
 70
1
 10
28.222788713910763
 20
17.1083251312336
 10
27.721394356955383
 20
17.1083251312336
 10
27.721394356955383
 20
14.541067913385831
 10
28.222788713910763
 20
14.541067913385831
  0
LWPOLYLINE
  5
42
330
17
100
AcDbEntity
  8
CUT
100
AcDbPolyline
 90
4
 70
1
 10
29.199442661560056
 20
8.745578531861062
 10
28.975419947506563
 20
9.353459296386216
 10
29.20614501312336
 20
9.353459296386216
 10
29.20614501312336
 20
8.746774236474746
  0
LWPOLYLINE
  5
43
330
17
100
AcDbEntity
  8
CUT
100
AcDbPolyline
 90
4
 70
1
 10
29.199442661560056
 20
9.503459296386215
 10
28.975419947506563
 20
10.111340060911367
 10
29.20614501312336
 20
10.111340060911367
 10
29.20614501312336
 20
9.5046550009999
  0
LWPOLYLINE
  5
44
330
17
100
AcDbEntity
  8
ENGRAVE
100
AcDbPolyline
 90
2
 70
0
 10
0.18
 20
19.58
 10
0.18
 20
19.88
  0
LWPOLYLINE
  5
45
330
17
100
AcDbEntity
  8
ENGRAVE
100
AcDbPolyline
 90
3
 70
0
 10
0.09999999999999999
 20
19.779999999999998
 10
0.18
 20
19.88
 10
0.26
 20
19.779999999999998
  0
LWPOLYLINE
  5
46
330
17
100
AcDbEntity
  8
ENGRAVE
100
AcDbPolyline
 90
2
 70
0
 10
0.1
 20
0.25
 10
0.4
 20
0.25
  0
LWPOLYLINE
  5
47
330
17
100
AcDbEntity
  8
ENGRAVE
100
AcDbPolyline
 90
2
 70
0
 10
0.25
 20
0.1
 10
0.25
 20
0.4
  0
LWPOLYLINE
  5
48
330
17
100
AcDbEntity
  8
NUMBERS
100
AcDbPolyline
 90
6
 70
0
 10
13.404
 20
0.8260000000000001
 10
13.404
 20
0.786
 10
13.434000000000001
 20
0.786
 10
13.434000000000001
 20
0.8260000000000001
 10
13.464
 20
0.8260000000000001
 10
13.464
 20
0.786
  0
LWPOLYLINE
  5
49
330
17
100
AcDbEntity
  8
NUMBERS
100
AcDbPolyline
 90
2
 70
0
 10
13.464
 20
0.8520000000000003
 10
13.464
 20
0.8720000000000003
  0
LWPOLYLINE
  5
4A
330
17
100
AcDbEntity
  8
NUMBERS
100
AcDbPolyline
 90
2
 70
0
 10
13.464
 20
0.8620000000000001
 10
13.404
 20
0.8620000000000001
  0
LWPOLYLINE
  5
4B
330
17
100
AcDbEntity
  8
NUMBERS
100
AcDbPolyline
 90
2
 70
0
 10
13.404
 20
0.8520000000000003
 10
13.404
 20
0.8720000000000003
  0
LWPOLYLINE
  5
4C
330
17
100
AcDbEntity
  8
NUMBERS
100
AcDbPolyline
 90
5
 70
0
 10
13.464
 20
0.8980000000000001
 10
13.464
 20
0.9380000000000002
 10
13.404
 20
0.9380000000000002
 10
13.404
 20
0.8980000000000001
 10
13.464
 20
0.8980000000000001
  0
LWPOLYLINE
  5
4D
330
17
100
AcDbEntity
  8
NUMBERS
100
AcDbPolyline
 90
2
 70
0
 10
13.464
 20
0.8980000000000001
 10
13.404
 20
0.9380000000000002
  0
LWPOLYLINE
  5
4E
330
17
100
AcDbEntity
  8
NUMBERS
100
AcDbPolyline
 90
5
 70
0
 10
13.464
 20
0.9540000000000002
 10
13.464
 20
0.9940000000000002
 10
13.404
 20
0.9940000000000002
 10
13.404
 20
0.9540000000000002
 10
13.464
 20
0.9540000000000002
  0
LWPOLYLINE
  5
4F
330
17
100
AcDbEntity
  8
NUMBERS
100
AcDbPolyline
 90
2
 70
0
 10
13.464
 20
0.9540000000000002
 10
13.404
 20
0.9940000000000002
  0
LWPOLYLINE
  5
50
330
17
100
AcDbEntity
  8
NUMBERS
100
AcDbPolyline
 90
3
 70
0
 10
13.414000000000001
 20
1.0200000000000005
 10
13.404
 20
1.0300000000000002
 10
13.464
 20
1.0300000000000002
  0
LWPOLYLINE
  5
51
330
17
100
AcDbEntity
  8
NUMBERS
100
AcDbPolyline
 90
2
 70
0
 10
13.464
 20
1.0200000000000005
 10
13.464
 20
1.04
  0
LWPOLYLINE
  5
52
330
17
100
AcDbEntity
  8
NUMBERS
100
AcDbPolyline
 90
6
 70
0
 10
26.644
 20
0.8260000000000001
 10
26.644
 20
0.786
 10
26.674
 20
0.786
 10
26.674
 20
0.8260000000000001
 10
26.704
 20
0.8260000000000001
 10
26.704
 20
0.786
  0
LWPOLYLINE
  5
53
330
17
100
AcDbEntity
  8
NUMBERS
100
AcDbPolyline
 90
2
 70
0
 10
26.704
 20
0.8520000000000003
 10
26.704
 20
0.8720000000000003
  0
LWPOLYLINE
  5
54
330
17
100
AcDbEntity
  8
NUMBERS
100
AcDbPolyline
 90
2
 70
0
 10
26.704
 20
0.8620000000000001
 10
26.644
 20
0.8620000000000001
  0
LWPOLYLINE
  5
55
330
17
100
AcDbEntity
  8
NUMBERS
100
AcDbPolyline
 90
2
 70
0
 10
26.644
 20
0.8520000000000003
 10
26.644
 20
0.8720000000000003
  0
LWPOLYLINE
  5
56
330
17
100
AcDbEntity
  8
NUMBERS
100
AcDbPolyline
 90
5
 70
0
 10
26.704
 20
0.8980000000000001
 10
26.704
 20
0.9380000000000002
 10
26.644
 20
0.9380000000000002
 10
26.644
 20
0.8980000000000001
 10
26.704
 20
0.8980000000000001
  0
LWPOLYLINE
  5
57
330
17
100
AcDbEntity
  8
NUMBERS
100
AcDbPolyline
 90
2
 70
0
 10
26.704
 20
0.8980000000000001
 10
26.644
 20
0.9380000000000002
  0
LWPOLYLINE
  5
58
330
17
100
AcDbEntity
  8
NUMBERS
100
AcDbPolyline
 90
5
 70
0
 10
26.704
 20
0.9540000000000002
 10
26.704
 20
0.9940000000000002
 10
26.644
 20
0.9940000000000002
 10
26.644
 20
0.9540000000000002
 10
26.704
 20
0.9540000000000002
  0
LWPOLYLINE
  5
59
330
17
100
AcDbEntity
  8
NUMBERS
100
AcDbPolyline
 90
2
 70
0
 10
26.704
 20
0.9540000000000002
 10
26.644
 20
0.9940000000000002
  0
LWPOLYLINE
  5
5A
330
17
100
AcDbEntity
  8
NUMBERS
100
AcDbPolyline
 90
7
 70
0
 10
26.654000000000003
 20
1.0100000000000002
 10
26.644
 20
1.0200000000000005
 10
26.644
 20
1.04
 10
26.654000000000003
 20
1.0500000000000003
 10
26.664
 20
1.0500000000000003
 10
26.704
 20
1.0100000000000002
 10
26.704
 20
1.0500000000000003
  0
LWPOLYLINE
  5
5B
330
17
100
AcDbEntity
  8
NUMBERS
100
AcDbPolyline
 90
5
 70
0
 10
27.70170997375328
 20
0.786
 10
27.641709973753283
 20
0.786
 10
27.641709973753283
 20
0.826
 10
27.67170997375328
 20
0.826
 10
27.67170997375328
 20
0.786
  0
LWPOLYLINE
  5
5C
330
17
100
AcDbEntity
  8
NUMBERS
100
AcDbPolyline
 90
5
 70
0
 10
27.70170997375328
 20
0.842
 10
27.70170997375328
 20
0.882
 10
27.641709973753283
 20
0.882
 10
27.641709973753283
 20
0.842
 10
27.70170997375328
 20
0.842
  0
LWPOLYLINE
  5
5D
330
17
100
AcDbEntity
  8
NUMBERS
100
AcDbPolyline
 90
5
 70
0
 10
27.70170997375328
 20
0.898
 10
27.70170997375328
 20
0.938
 10
27.641709973753283
 20
0.938
 10
27.641709973753283
 20
0.898
 10
27.70170997375328
 20
0.898
  0
LWPOLYLINE
  5
5E
330
17
100
AcDbEntity
  8
NUMBERS
100
AcDbPolyline
 90
2
 70
0
 10
27.70170997375328
 20
0.898
 10
27.641709973753283
 20
0.938
  0
LWPOLYLINE
  5
5F
330
17
100
AcDbEntity
  8
NUMBERS
100
AcDbPolyline
 90
5
 70
0
 10
27.70170997375328
 20
0.954
 10
27.70170997375328
 20
0.994
 10
27.641709973753283
 20
0.994
 10
27.641709973753283
 20
0.954
 10
27.70170997375328
 20
0.954
  0
LWPOLYLINE
  5
60
330
17
100
AcDbEntity
  8
NUMBERS
100
AcDbPolyline
 90
2
 70
0
 10
27.70170997375328
 20
0.954
 10
27.641709973753283
 20
0.994
  0
LWPOLYLINE
  5
61
330
17
100
AcDbEntity
  8
NUMBERS
100
AcDbPolyline
 90
3
 70
0
 10
27.65170997375328
 20
1.02
 10
27.641709973753283
 20
1.03
 10
27.70170997375328
 20
1.03
  0
LWPOLYLINE
  5
62
330
17
100
AcDbEntity
  8
NUMBERS
100
AcDbPolyline
 90
2
 70
0
 10
27.70170997375328
 20
1.02
 10
27.70170997375328
 20
1.04
  0
LWPOLYLINE
  5
63
330
17
100
AcDbEntity
  8
NUMBERS
100
AcDbPolyline
 90
5
 70
0
 10
27.827709973753283
 20
0.75
 10
27.777709973753282
 20
0.75
 10
27.777709973753282
 20
0.7833333333333333
 10
27.80270997375328
 20
0.7833333333333333
 10
27.80270997375328
 20
0.75
  0
LWPOLYLINE
  5
64
330
17
100
AcDbEntity
  8
NUMBERS
100
AcDbPolyline
 90
5
 70
0
 10
27.827709973753283
 20
0.7966666666666666
 10
27.827709973753283
 20
0.83
 10
27.777709973753282
 20
0.83
 10
27.777709973753282
 20
0.7966666666666666
 10
27.827709973753283
 20
0.7966666666666666
  0
LWPOLYLINE
  5
65
330
17
100
AcDbEntity
  8
NUMBERS
100
AcDbPolyline
 90
5
 70
0
 10
27.827709973753283
 20
0.8433333333333333
 10
27.827709973753283
 20
0.8766666666666667
 10
27.777709973753282
 20
0.8766666666666667
 10
27.777709973753282
 20
0.8433333333333333
 10
27.827709973753283
 20
0.8433333333333333
  0
LWPOLYLINE
  5
66
330
17
100
AcDbEntity
  8
NUMBERS
100
AcDbPolyline
 90
2
 70
0
 10
27.827709973753283
 20
0.8433333333333333
 10
27.777709973753282
 20
0.8766666666666667
  0
LWPOLYLINE
  5
67
330
17
100
AcDbEntity
  8
NUMBERS
100
AcDbPolyline
 90
5
 70
0
 10
27.827709973753283
 20
0.89
 10
27.827709973753283
 20
0.9233333333333333
 10
27.777709973753282
 20
0.9233333333333333
 10
27.777709973753282
 20
0.89
 10
27.827709973753283
 20
0.89
  0
LWPOLYLINE
  5
68
330
17
100
AcDbEntity
  8
NUMBERS
100
AcDbPolyline
 90
2
 70
0
 10
27.827709973753283
 20
0.89
 10
27.777709973753282
 20
0.9233333333333333
  0
LWPOLYLINE
  5
69
330
17
100
AcDbEntity
  8
NUMBERS
100
AcDbPolyline
 90
3
 70
0
 10
27.786043307086615
 20
0.945
 10
27.777709973753282
 20
0.9533333333333334
 10
27.827709973753283
 20
0.9533333333333334
  0
LWPOLYLINE
  5
6A
330
17
100
AcDbEntity
  8
NUMBERS
100
AcDbPolyline
 90
2
 70
0
 10
27.827709973753283
 20
0.945
 10
27.827709973753283
 20
0.9616666666666667
  0
LWPOLYLINE
  5
6B
330
17
100
AcDbEntity
  8
NUMBERS
100
AcDbPolyline
 90
3
 70
0
 10
27.786043307086615
 20
1.0383333333333333
 10
27.777709973753282
 20
1.0466666666666666
 10
27.827709973753283
 20
1.0466666666666666
  0
LWPOLYLINE
  5
6C
330
17
100
AcDbEntity
  8
NUMBERS
100
AcDbPolyline
 90
2
 70
0
 10
27.827709973753283
 20
1.0383333333333333
 10
27.827709973753283
 20
1.055
  0
LWPOLYLINE
  5
6D
330
17
100
AcDbEntity
  8
NUMBERS
100
AcDbPolyline
 90
2
 70
0
 10
27.827709973753283
 20
1.0766666666666667
 10
27.777709973753282
 20
1.1099999999999999
  0
LWPOLYLINE
  5
6E
330
17
100
AcDbEntity
  8
NUMBERS
100
AcDbPolyline
 90
7
 70
0
 10
27.786043307086615
 20
1.1233333333333333
 10
27.777709973753282
 20
1.1316666666666666
 10
27.777709973753282
 20
1.1483333333333334
 10
27.786043307086615
 20
1.1566666666666667
 10
27.794376640419948
 20
1.1566666666666667
 10
27.827709973753283
 20
1.1233333333333333
 10
27.827709973753283
 20
1.1566666666666667
  0
LWPOLYLINE
  5
6F
330
17
100
AcDbEntity
  8
NUMBERS
100
AcDbPolyline
 90
5
 70
0
 10
28.699419947506563
 20
0.786
 10
28.639419947506564
 20
0.786
 10
28.639419947506564
 20
0.826
 10
28.66941994750656
 20
0.826
 10
28.66941994750656
 20
0.786
  0
LWPOLYLINE
  5
70
330
17
100
AcDbEntity
  8
NUMBERS
100
AcDbPolyline
 90
5
 70
0
 10
28.699419947506563
 20
0.842
 10
28.699419947506563
 20
0.882
 10
28.639419947506564
 20
0.882
 10
28.639419947506564
 20
0.842
 10
28.699419947506563
 20
0.842
  0
LWPOLYLINE
  5
71
330
17
100
AcDbEntity
  8
NUMBERS
100
AcDbPolyline
 90
5
 70
0
 10
28.699419947506563
 20
0.898
 10
28.699419947506563
 20
0.938
 10
28.639419947506564
 20
0.938
 10
28.639419947506564
 20
0.898
 10
28.699419947506563
 20
0.898
  0
LWPOLYLINE
  5
72
330
17
100
AcDbEntity
  8
NUMBERS
100
AcDbPolyline
 90
2
 70
0
 10
28.699419947506563
 20
0.898
 10
28.639419947506564
 20
0.938
  0
LWPOLYLINE
  5
73
330
17
100
AcDbEntity
  8
NUMBERS
100
AcDbPolyline
 90
5
 70
0
 10
28.699419947506563
 20
0.954
 10
28.699419947506563
 20
0.994
 10
28.639419947506564
 20
0.994
 10
28.639419947506564
 20
0.954
 10
28.699419947506563
 20
0.954
  0
LWPOLYLINE
  5
74
330
17
100
AcDbEntity
  8
NUMBERS
100
AcDbPolyline
 90
2
 70
0
 10
28.699419947506563
 20
0.954
 10
28.639419947506564
 20
0.994
  0
LWPOLYLINE
  5
75
330
17
100
AcDbEntity
  8
NUMBERS
100
AcDbPolyline
 90
3
 70
0
 10
28.649419947506562
 20
1.02
 10
28.639419947506564
 20
1.03
 10
28.699419947506563
 20
1.03
  0
LWPOLYLINE
  5
76
330
17
100
AcDbEntity
  8
NUMBERS
100
AcDbPolyline
 90
2
 70
0
 10
28.699419947506563
 20
1.02
 10
28.699419947506563
 20
1.04
  0
LWPOLYLINE
  5
77
330
17
100
AcDbEntity
  8
NUMBERS
100
AcDbPolyline
 90
5
 70
0
 10
28.825419947506564
 20
0.75
 10
28.775419947506563
 20
0.75
 10
28.775419947506563
 20
0.7833333333333333
 10
28.800419947506562
 20
0.7833333333333333
 10
28.800419947506562
 20
0.75
  0
LWPOLYLINE
  5
78
330
17
100
AcDbEntity
  8
NUMBERS
100
AcDbPolyline
 90
5
 70
0
 10
28.825419947506564
 20
0.7966666666666666
 10
28.825419947506564
 20
0.83
 10
28.775419947506563
 20
0.83
 10
28.775419947506563
 20
0.7966666666666666
 10
28.825419947506564
 20
0.7966666666666666
  0
LWPOLYLINE
  5
79
330
17
100
AcDbEntity
  8
NUMBERS
100
AcDbPolyline
 90
5
 70
0
 10
28.825419947506564
 20
0.8433333333333333
 10
28.825419947506564
 20
0.8766666666666667
 10
28.775419947506563
 20
0.8766666666666667
 10
28.775419947506563
 20
0.8433333333333333
 10
28.825419947506564
 20
0.8433333333333333
  0
LWPOLYLINE
  5
7A
330
17
100
AcDbEntity
  8
NUMBERS
100
AcDbPolyline
 90
2
 70
0
 10
28.825419947506564
 20
0.8433333333333333
 10
28.775419947506563
 20
0.8766666666666667
  0
LWPOLYLINE
  5
7B
330
17
100
AcDbEntity
  8
NUMBERS
100
AcDbPolyline
 90
5
 70
0
 10
28.825419947506564
 20
0.89
 10
28.825419947506564
 20
0.9233333333333333
 10
28.775419947506563
 20
0.9233333333333333
 10
28.775419947506563
 20
0.89
 10
28.825419947506564
 20
0.89
  0
LWPOLYLINE
  5
7C
330
17
100
AcDbEntity
  8
NUMBERS
100
AcDbPolyline
 90
2
 70
0
 10
28.825419947506564
 20
0.89
 10
28.775419947506563
 20
0.9233333333333333
  0
LWPOLYLINE
  5
7D
330
17
100
AcDbEntity
  8
NUMBERS
100
AcDbPolyline
 90
3
 70
0
 10
28.783753280839896
 20
0.945
 10
28.775419947506563
 20
0.9533333333333334
 10
28.825419947506564
 20
0.9533333333333334
  0
LWPOLYLINE
  5
7E
330
17
100
AcDbEntity
  8
NUMBERS
100
AcDbPolyline
 90
2
 70
0
 10
28.825419947506564
 20
0.945
 10
28.825419947506564
 20
0.9616666666666667
  0
LWPOLYLINE
  5
7F
330
17
100
AcDbEntity
  8
NUMBERS
100
AcDbPolyline
 90
7
 70
0
 10
28.783753280839896
 20
1.03
 10
28.775419947506563
 20
1.0383333333333333
 10
28.775419947506563
 20
1.055
 10
28.783753280839896
 20
1.0633333333333332
 10
28.79208661417323
 20
1.0633333333333332
 10
28.825419947506564
 20
1.03
 10
28.825419947506564
 20
1.0633333333333332
  0
LWPOLYLINE
  5
80
330
17
100
AcDbEntity
  8
NUMBERS
100
AcDbPolyline
 90
2
 70
0
 10
28.825419947506564
 20
1.0766666666666667
 10
28.775419947506563
 20
1.1099999999999999
  0
LWPOLYLINE
  5
81
330
17
100
AcDbEntity
  8
NUMBERS
100
AcDbPolyline
 90
7
 70
0
 10
28.783753280839896
 20
1.1233333333333333
 10
28.775419947506563
 20
1.1316666666666666
 10
28.775419947506563
 20
1.1483333333333334
 10
28.783753280839896
 20
1.1566666666666667
 10
28.79208661417323
 20
1.1566666666666667
 10
28.825419947506564
 20
1.1233333333333333
 10
28.825419947506564
 20
1.1566666666666667
  0
LWPOLYLINE
  5
82
330
17
100
AcDbEntity
  8
NUMBERS
100
AcDbPolyline
 90
5
 70
0
 10
29.30342913385827
 20
0.786
 10
29.243429133858267
 20
0.786
 10
29.243429133858267
 20
0.826
 10
29.27342913385827
 20
0.826
 10
29.27342913385827
 20
0.786
  0
LWPOLYLINE
  5
83
330
17
100
AcDbEntity
  8
NUMBERS
100
AcDbPolyline
 90
5
 70
0
 10
29.30342913385827
 20
0.842
 10
29.30342913385827
 20
0.882
 10
29.243429133858267
 20
0.882
 10
29.243429133858267
 20
0.842
 10
29.30342913385827
 20
0.842
  0
LWPOLYLINE
  5
84
330
17
100
AcDbEntity
  8
NUMBERS
100
AcDbPolyline
 90
5
 70
0
 10
29.30342913385827
 20
0.898
 10
29.30342913385827
 20
0.938
 10
29.243429133858267
 20
0.938
 10
29.243429133858267
 20
0.898
 10
29.30342913385827
 20
0.898
  0
LWPOLYLINE
  5
85
330
17
100
AcDbEntity
  8
NUMBERS
100
AcDbPolyline
 90
2
 70
0
 10
29.30342913385827
 20
0.898
 10
29.243429133858267
 20
0.938
  0
LWPOLYLINE
  5
86
330
17
100
AcDbEntity
  8
NUMBERS
100
AcDbPolyline
 90
5
 70
0
 10
29.30342913385827
 20
0.954
 10
29.30342913385827
 20
0.994
 10
29.243429133858267
 20
0.994
 10
29.243429133858267
 20
0.954
 10
29.30342913385827
 20
0.954
  0
LWPOLYLINE
  5
87
330
17
100
AcDbEntity
  8
NUMBERS
100
AcDbPolyline
 90
2
 70
0
 10
29.30342913385827
 20
0.954
 10
29.243429133858267
 20
0.994
  0
LWPOLYLINE
  5
88
330
17
100
AcDbEntity
  8
NUMBERS
100
AcDbPolyline
 90
4
 70
0
 10
29.30342913385827
 20
1.04
 10
29.243429133858267
 20
1.04
 10
29.28342913385827
 20
1.01
 10
29.28342913385827
 20
1.05
  0
LWPOLYLINE
  5
89
330
17
100
AcDbEntity
  8
NUMBERS
100
AcDbPolyline
 90
5
 70
0
 10
29.429429133858267
 20
0.75
 10
29.37942913385827
 20
0.75
 10
29.37942913385827
 20
0.7833333333333333
 10
29.40442913385827
 20
0.7833333333333333
 10
29.40442913385827
 20
0.75
  0
LWPOLYLINE
  5
8A
330
17
100
AcDbEntity
  8
NUMBERS
100
AcDbPolyline
 90
5
 70
0
 10
29.429429133858267
 20
0.7966666666666666
 10
29.429429133858267
 20
0.83
 10
29.37942913385827
 20
0.83
 10
29.37942913385827
 20
0.7966666666666666
 10
29.429429133858267
 20
0.7966666666666666
  0
LWPOLYLINE
  5
8B
330
17
100
AcDbEntity
  8
NUMBERS
100
AcDbPolyline
 90
5
 70
0
 10
29.429429133858267
 20
0.8433333333333333
 10
29.429429133858267
 20
0.8766666666666667
 10
29.37942913385827
 20
0.8766666666666667
 10
29.37942913385827
 20
0.8433333333333333
 10
29.429429133858267
 20
0.8433333333333333
  0
LWPOLYLINE
  5
8C
330
17
100
AcDbEntity
  8
NUMBERS
100
AcDbPolyline
 90
2
 70
0
 10
29.429429133858267
 20
0.8433333333333333
 10
29.37942913385827
 20
0.8766666666666667
  0
LWPOLYLINE
  5
8D
330
17
100
AcDbEntity
  8
NUMBERS
100
AcDbPolyline
 90
5
 70
0
 10
29.429429133858267
 20
0.89
 10
29.429429133858267
 20
0.9233333333333333
 10
29.37942913385827
 20
0.9233333333333333
 10
29.37942913385827
 20
0.89
 10
29.429429133858267
 20
0.89
  0
LWPOLYLINE
  5
8E
330
17
100
AcDbEntity
  8
NUMBERS
100
AcDbPolyline
 90
2
 70
0
 10
29.429429133858267
 20
0.89
 10
29.37942913385827
 20
0.9233333333333333
  0
LWPOLYLINE
  5
8F
330
17
100
AcDbEntity
  8
NUMBERS
100
AcDbPolyline
 90
4
 70
0
 10
29.429429133858267
 20
0.9616666666666667
 10
29.37942913385827
 20
0.9616666666666667
 10
29.4127624671916
 20
0.9366666666666666
 10
29.4127624671916
 20
0.97
  0
LWPOLYLINE
  5
90
330
17
100
AcDbEntity
  8
NUMBERS
100
AcDbPolyline
 90
3
 70
0
 10
29.387762467191603
 20
1.0383333333333333
 10
29.37942913385827
 20
1.0466666666666666
 10
29.429429133858267
 20
1.0466666666666666
  0
LWPOLYLINE
  5
91
330
17
100
AcDbEntity
  8
NUMBERS
100
AcDbPolyline
 90
2
 70
0
 10
29.429429133858267
 20
1.0383333333333333
 10
29.429429133858267
 20
1.055
  0
LWPOLYLINE
  5
92
330
17
100
AcDbEntity
  8
NUMBERS
100
AcDbPolyline
 90
2
 70
0
 10
29.429429133858267
 20
1.0766666666666667
 10
29.37942913385827
 20
1.1099999999999999
  0
LWPOLYLINE
  5
93
330
17
100
AcDbEntity
  8
NUMBERS
100
AcDbPolyline
 90
7
 70
0
 10
29.387762467191603
 20
1.1233333333333333
 10
29.37942913385827
 20
1.1316666666666666
 10
29.37942913385827
 20
1.1483333333333334
 10
29.387762467191603
 20
1.1566666666666667
 10
29.396095800524936
 20
1.1566666666666667
 10
29.429429133858267
 20
1.1233333333333333
 10
29.429429133858267
 20
1.1566666666666667
  0
LWPOLYLINE
  5
94
330
17
100
AcDbEntity
  8
NUMBERS
100
AcDbPolyline
 90
5
 70
0
 10
29.30342913385827
 20
4.7837892659305306
 10
29.243429133858267
 20
4.7837892659305306
 10
29.243429133858267
 20
4.823789265930531
 10
29.27342913385827
 20
4.823789265930531
 10
29.27342913385827
 20
4.7837892659305306
  0
LWPOLYLINE
  5
95
330
17
100
AcDbEntity
  8
NUMBERS
100
AcDbPolyline
 90
5
 70
0
 10
29.30342913385827
 20
4.839789265930531
 10
29.30342913385827
 20
4.879789265930531
 10
29.243429133858267
 20
4.879789265930531
 10
29.243429133858267
 20
4.839789265930531
 10
29.30342913385827
 20
4.839789265930531
  0
LWPOLYLINE
  5
96
330
17
100
AcDbEntity
  8
NUMBERS
100
AcDbPolyline
 90
5
 70
0
 10
29.30342913385827
 20
4.895789265930531
 10
29.30342913385827
 20
4.935789265930531
 10
29.243429133858267
 20
4.935789265930531
 10
29.243429133858267
 20
4.895789265930531
 10
29.30342913385827
 20
4.895789265930531
  0
LWPOLYLINE
  5
97
330
17
100
AcDbEntity
  8
NUMBERS
100
AcDbPolyline
 90
2
 70
0
 10
29.30342913385827
 20
4.895789265930531
 10
29.243429133858267
 20
4.935789265930531
  0
LWPOLYLINE
  5
98
330
17
100
AcDbEntity
  8
NUMBERS
100
AcDbPolyline
 90
5
 70
0
 10
29.30342913385827
 20
4.951789265930531
 10
29.30342913385827
 20
4.991789265930531
 10
29.243429133858267
 20
4.991789265930531
 10
29.243429133858267
 20
4.951789265930531
 10
29.30342913385827
 20
4.951789265930531
  0
LWPOLYLINE
  5
99
330
17
100
AcDbEntity
  8
NUMBERS
100
AcDbPolyline
 90
2
 70
0
 10
29.30342913385827
 20
4.951789265930531
 10
29.243429133858267
 20
4.991789265930531
  0
LWPOLYLINE
  5
9A
330
17
100
AcDbEntity
  8
NUMBERS
100
AcDbPolyline
 90
4
 70
0
 10
29.30342913385827
 20
5.037789265930531
 10
29.243429133858267
 20
5.037789265930531
 10
29.28342913385827
 20
5.007789265930531
 10
29.28342913385827
 20
5.047789265930531
  0
LWPOLYLINE
  5
9B
330
17
100
AcDbEntity
  8
NUMBERS
100
AcDbPolyline
 90
5
 70
0
 10
29.429429133858267
 20
4.747789265930531
 10
29.37942913385827
 20
4.747789265930531
 10
29.37942913385827
 20
4.781122599263864
 10
29.40442913385827
 20
4.781122599263864
 10
29.40442913385827
 20
4.747789265930531
  0
LWPOLYLINE
  5
9C
330
17
100
AcDbEntity
  8
NUMBERS
100
AcDbPolyline
 90
5
 70
0
 10
29.429429133858267
 20
4.794455932597198
 10
29.429429133858267
 20
4.827789265930531
 10
29.37942913385827
 20
4.827789265930531
 10
29.37942913385827
 20
4.794455932597198
 10
29.429429133858267
 20
4.794455932597198
  0
LWPOLYLINE
  5
9D
330
17
100
AcDbEntity
  8
NUMBERS
100
AcDbPolyline
 90
5
 70
0
 10
29.429429133858267
 20
4.841122599263865
 10
29.429429133858267
 20
4.874455932597198
 10
29.37942913385827
 20
4.874455932597198
 10
29.37942913385827
 20
4.841122599263865
 10
29.429429133858267
 20
4.841122599263865
  0
LWPOLYLINE
  5
9E
330
17
100
AcDbEntity
  8
NUMBERS
100
AcDbPolyline
 90
2
 70
0
 10
29.429429133858267
 20
4.841122599263865
 10
29.37942913385827
 20
4.874455932597198
  0
LWPOLYLINE
  5
9F
330
17
100
AcDbEntity
  8
NUMBERS
100
AcDbPolyline
 90
5
 70
0
 10
29.429429133858267
 20
4.887789265930531
 10
29.429429133858267
 20
4.921122599263864
 10
29.37942913385827
 20
4.921122599263864
 10
29.37942913385827
 20
4.887789265930531
 10
29.429429133858267
 20
4.887789265930531
  0
LWPOLYLINE
  5
A0
330
17
100
AcDbEntity
  8
NUMBERS
100
AcDbPolyline
 90
2
 70
0
 10
29.429429133858267
 20
4.887789265930531
 10
29.37942913385827
 20
4.921122599263864
  0
LWPOLYLINE
  5
A1
330
17
100
AcDbEntity
  8
NUMBERS
100
AcDbPolyline
 90
4
 70
0
 10
29.429429133858267
 20
4.959455932597198
 10
29.37942913385827
 20
4.959455932597198
 10
29.4127624671916
 20
4.9344559325971975
 10
29.4127624671916
 20
4.967789265930531
  0
LWPOLYLINE
  5
A2
330
17
100
AcDbEntity
  8
NUMBERS
100
AcDbPolyline
 90
7
 70
0
 10
29.387762467191603
 20
5.027789265930531
 10
29.37942913385827
 20
5.036122599263864
 10
29.37942913385827
 20
5.052789265930531
 10
29.387762467191603
 20
5.061122599263864
 10
29.396095800524936
 20
5.061122599263864
 10
29.429429133858267
 20
5.027789265930531
 10
29.429429133858267
 20
5.061122599263864
  0
LWPOLYLINE
  5
A3
330
17
100
AcDbEntity
  8
NUMBERS
100
AcDbPolyline
 90
2
 70
0
 10
29.429429133858267
 20
5.074455932597197
 10
29.37942913385827
 20
5.107789265930531
  0
LWPOLYLINE
  5
A4
330
17
100
AcDbEntity
  8
NUMBERS
100
AcDbPolyline
 90
7
 70
0
 10
29.387762467191603
 20
5.121122599263864
 10
29.37942913385827
 20
5.129455932597198
 10
29.37942913385827
 20
5.146122599263864
 10
29.387762467191603
 20
5.154455932597197
 10
29.396095800524936
 20
5.154455932597197
 10
29.429429133858267
 20
5.121122599263864
 10
29.429429133858267
 20
5.154455932597197
  0
LWPOLYLINE
  5
A5
330
17
100
AcDbEntity
  8
NUMBERS
100
AcDbPolyline
 90
5
 70
0
 10
27.70170997375328
 20
6.30029625984252
 10
27.641709973753283
 20
6.30029625984252
 10
27.641709973753283
 20
6.34029625984252
 10
27.67170997375328
 20
6.34029625984252
 10
27.67170997375328
 20
6.30029625984252
  0
LWPOLYLINE
  5
A6
330
17
100
AcDbEntity
  8
NUMBERS
100
AcDbPolyline
 90
5
 70
0
 10
27.70170997375328
 20
6.35629625984252
 10
27.70170997375328
 20
6.39629625984252
 10
27.641709973753283
 20
6.39629625984252
 10
27.641709973753283
 20
6.35629625984252
 10
27.70170997375328
 20
6.35629625984252
  0
LWPOLYLINE
  5
A7
330
17
100
AcDbEntity
  8
NUMBERS
100
AcDbPolyline
 90
5
 70
0
 10
27.70170997375328
 20
6.41229625984252
 10
27.70170997375328
 20
6.45229625984252
 10
27.641709973753283
 20
6.45229625984252
 10
27.641709973753283
 20
6.41229625984252
 10
27.70170997375328
 20
6.41229625984252
  0
LWPOLYLINE
  5
A8
330
17
100
AcDbEntity
  8
NUMBERS
100
AcDbPolyline
 90
2
 70
0
 10
27.70170997375328
 20
6.41229625984252
 10
27.641709973753283
 20
6.45229625984252
  0
LWPOLYLINE
  5
A9
330
17
100
AcDbEntity
  8
NUMBERS
100
AcDbPolyline
 90
5
 70
0
 10
27.70170997375328
 20
6.46829625984252
 10
27.70170997375328
 20
6.5082962598425205
 10
27.641709973753283
 20
6.5082962598425205
 10
27.641709973753283
 20
6.46829625984252
 10
27.70170997375328
 20
6.46829625984252
  0
LWPOLYLINE
  5
AA
330
17
100
AcDbEntity
  8
NUMBERS
100
AcDbPolyline
 90
2
 70
0
 10
27.70170997375328
 20
6.46829625984252
 10
27.641709973753283
 20
6.5082962598425205
  0
LWPOLYLINE
  5
AB
330
17
100
AcDbEntity
  8
NUMBERS
100
AcDbPolyline
 90
7
 70
0
 10
27.641709973753283
 20
6.5642962598425205
 10
27.641709973753283
 20
6.53429625984252
 10
27.65170997375328
 20
6.5242962598425205
 10
27.70170997375328
 20
6.5242962598425205
 10
27.70170997375328
 20
6.5642962598425205
 10
27.67170997375328
 20
6.5642962598425205
 10
27.67170997375328
 20
6.5242962598425205
  0
LWPOLYLINE
  5
AC
330
17
100
AcDbEntity
  8
NUMBERS
100
AcDbPolyline
 90
5
 70
0
 10
27.827709973753283
 20
6.264296259842521
 10
27.777709973753282
 20
6.264296259842521
 10
27.777709973753282
 20
6.297629593175854
 10
27.80270997375328
 20
6.297629593175854
 10
27.80270997375328
 20
6.264296259842521
  0
LWPOLYLINE
  5
AD
330
17
100
AcDbEntity
  8
NUMBERS
100
AcDbPolyline
 90
5
 70
0
 10
27.827709973753283
 20
6.3109629265091876
 10
27.827709973753283
 20
6.344296259842521
 10
27.777709973753282
 20
6.344296259842521
 10
27.777709973753282
 20
6.3109629265091876
 10
27.827709973753283
 20
6.3109629265091876
  0
LWPOLYLINE
  5
AE
330
17
100
AcDbEntity
  8
NUMBERS
100
AcDbPolyline
 90
5
 70
0
 10
27.827709973753283
 20
6.357629593175854
 10
27.827709973753283
 20
6.390962926509188
 10
27.777709973753282
 20
6.390962926509188
 10
27.777709973753282
 20
6.357629593175854
 10
27.827709973753283
 20
6.357629593175854
  0
LWPOLYLINE
  5
AF
330
17
100
AcDbEntity
  8
NUMBERS
100
AcDbPolyline
 90
2
 70
0
 10
27.827709973753283
 20
6.357629593175854
 10
27.777709973753282
 20
6.390962926509188
  0
LWPOLYLINE
  5
B0
330
17
100
AcDbEntity
  8
NUMBERS
100
AcDbPolyline
 90
5
 70
0
 10
27.827709973753283
 20
6.40429625984252
 10
27.827709973753283
 20
6.437629593175854
 10
27.777709973753282
 20
6.437629593175854
 10
27.777709973753282
 20
6.40429625984252
 10
27.827709973753283
 20
6.40429625984252
  0
LWPOLYLINE
  5
B1
330
17
100
AcDbEntity
  8
NUMBERS
100
AcDbPolyline
 90
2
 70
0
 10
27.827709973753283
 20
6.40429625984252
 10
27.777709973753282
 20
6.437629593175854
  0
LWPOLYLINE
  5
B2
330
17
100
AcDbEntity
  8
NUMBERS
100
AcDbPolyline
 90
7
 70
0
 10
27.777709973753282
 20
6.4842962598425204
 10
27.777709973753282
 20
6.459296259842521
 10
27.786043307086615
 20
6.450962926509187
 10
27.827709973753283
 20
6.450962926509187
 10
27.827709973753283
 20
6.4842962598425204
 10
27.80270997375328
 20
6.4842962598425204
 10
27.80270997375328
 20
6.450962926509187
  0
LWPOLYLINE
  5
B3
330
17
100
AcDbEntity
  8
NUMBERS
100
AcDbPolyline
 90
3
 70
0
 10
27.786043307086615
 20
6.552629593175854
 10
27.777709973753282
 20
6.5609629265091876
 10
27.827709973753283
 20
6.5609629265091876
  0
LWPOLYLINE
  5
B4
330
17
100
AcDbEntity
  8
NUMBERS
100
AcDbPolyline
 90
2
 70
0
 10
27.827709973753283
 20
6.552629593175854
 10
27.827709973753283
 20
6.56929625984252
  0
LWPOLYLINE
  5
B5
330
17
100
AcDbEntity
  8
NUMBERS
100
AcDbPolyline
 90
2
 70
0
 10
27.827709973753283
 20
6.590962926509187
 10
27.777709973753282
 20
6.624296259842521
  0
LWPOLYLINE
  5
B6
330
17
100
AcDbEntity
  8
NUMBERS
100
AcDbPolyline
 90
7
 70
0
 10
27.786043307086615
 20
6.637629593175854
 10
27.777709973753282
 20
6.6459629265091875
 10
27.777709973753282
 20
6.662629593175854
 10
27.786043307086615
 20
6.670962926509187
 10
27.794376640419948
 20
6.670962926509187
 10
27.827709973753283
 20
6.637629593175854
 10
27.827709973753283
 20
6.670962926509187
  0
LWPOLYLINE
  5
B7
330
17
100
AcDbEntity
  8
NUMBERS
100
AcDbPolyline
 90
5
 70
0
 10
28.699419947506563
 20
6.30029625984252
 10
28.639419947506564
 20
6.30029625984252
 10
28.639419947506564
 20
6.34029625984252
 10
28.66941994750656
 20
6.34029625984252
 10
28.66941994750656
 20
6.30029625984252
  0
LWPOLYLINE
  5
B8
330
17
100
AcDbEntity
  8
NUMBERS
100
AcDbPolyline
 90
5
 70
0
 10
28.699419947506563
 20
6.35629625984252
 10
28.699419947506563
 20
6.39629625984252
 10
28.639419947506564
 20
6.39629625984252
 10
28.639419947506564
 20
6.35629625984252
 10
28.699419947506563
 20
6.35629625984252
  0
LWPOLYLINE
  5
B9
330
17
100
AcDbEntity
  8
NUMBERS
100
AcDbPolyline
 90
5
 70
0
 10
28.699419947506563
 20
6.41229625984252
 10
28.699419947506563
 20
6.45229625984252
 10
28.639419947506564
 20
6.45229625984252
 10
28.639419947506564
 20
6.41229625984252
 10
28.699419947506563
 20
6.41229625984252
  0
LWPOLYLINE
  5
BA
330
17
100
AcDbEntity
  8
NUMBERS
100
AcDbPolyline
 90
2
 70
0
 10
28.699419947506563
 20
6.41229625984252
 10
28.639419947506564
 20
6.45229625984252
  0
LWPOLYLINE
  5
BB
330
17
100
AcDbEntity
  8
NUMBERS
100
AcDbPolyline
 90
5
 70
0
 10
28.699419947506563
 20
6.46829625984252
 10
28.699419947506563
 20
6.5082962598425205
 10
28.639419947506564
 20
6.5082962598425205
 10
28.639419947506564
 20
6.46829625984252
 10
28.699419947506563
 20
6.46829625984252
  0
LWPOLYLINE
  5
BC
330
17
100
AcDbEntity
  8
NUMBERS
100
AcDbPolyline
 90
2
 70
0
 10
28.699419947506563
 20
6.46829625984252
 10
28.639419947506564
 20
6.5082962598425205
  0
LWPOLYLINE
  5
BD
330
17
100
AcDbEntity
  8
NUMBERS
100
AcDbPolyline
 90
7
 70
0
 10
28.639419947506564
 20
6.5642962598425205
 10
28.639419947506564
 20
6.53429625984252
 10
28.649419947506562
 20
6.5242962598425205
 10
28.699419947506563
 20
6.5242962598425205
 10
28.699419947506563
 20
6.5642962598425205
 10
28.66941994750656
 20
6.5642962598425205
 10
28.66941994750656
 20
6.5242962598425205
  0
LWPOLYLINE
  5
BE
330
17
100
AcDbEntity
  8
NUMBERS
100
AcDbPolyline
 90
5
 70
0
 10
28.825419947506564
 20
6.264296259842521
 10
28.775419947506563
 20
6.264296259842521
 10
28.775419947506563
 20
6.297629593175854
 10
28.800419947506562
 20
6.297629593175854
 10
28.800419947506562
 20
6.264296259842521
  0
LWPOLYLINE
  5
BF
330
17
100
AcDbEntity
  8
NUMBERS
100
AcDbPolyline
 90
5
 70
0
 10
28.825419947506564
 20
6.3109629265091876
 10
28.825419947506564
 20
6.344296259842521
 10
28.775419947506563
 20
6.344296259842521
 10
28.775419947506563
 20
6.3109629265091876
 10
28.825419947506564
 20
6.3109629265091876
  0
LWPOLYLINE
  5
C0
330
17
100
AcDbEntity
  8
NUMBERS
100
AcDbPolyline
 90
5
 70
0
 10
28.825419947506564
 20
6.357629593175854
 10
28.825419947506564
 20
6.390962926509188
 10
28.775419947506563
 20
6.390962926509188
 10
28.775419947506563
 20
6.357629593175854
 10
28.825419947506564
 20
6.357629593175854
  0
LWPOLYLINE
  5
C1
330
17
100
AcDbEntity
  8
NUMBERS
100
AcDbPolyline
 90
2
 70
0
 10
28.825419947506564
 20
6.357629593175854
 10
28.775419947506563
 20
6.390962926509188
  0
LWPOLYLINE
  5
C2
330
17
100
AcDbEntity
  8
NUMBERS
100
AcDbPolyline
 90
5
 70
0
 10
28.825419947506564
 20
6.40429625984252
 10
28.825419947506564
 20
6.437629593175854
 10
28.775419947506563
 20
6.437629593175854
 10
28.775419947506563
 20
6.40429625984252
 10
28.825419947506564
 20
6.40429625984252
  0
LWPOLYLINE
  5
C3
330
17
100
AcDbEntity
  8
NUMBERS
100
AcDbPolyline
 90
2
 70
0
 10
28.825419947506564
 20
6.40429625984252
 10
28.775419947506563
 20
6.437629593175854
  0
LWPOLYLINE
  5
C4
330
17
100
AcDbEntity
  8
NUMBERS
100
AcDbPolyline
 90
7
 70
0
 10
28.775419947506563
 20
6.4842962598425204
 10
28.775419947506563
 20
6.459296259842521
 10
28.783753280839896
 20
6.450962926509187
 10
28.825419947506564
 20
6.450962926509187
 10
28.825419947506564
 20
6.4842962598425204
 10
28.800419947506562
 20
6.4842962598425204
 10
28.800419947506562
 20
6.450962926509187
  0
LWPOLYLINE
  5
C5
330
17
100
AcDbEntity
  8
NUMBERS
100
AcDbPolyline
 90
7
 70
0
 10
28.783753280839896
 20
6.544296259842521
 10
28.775419947506563
 20
6.552629593175854
 10
28.775419947506563
 20
6.56929625984252
 10
28.783753280839896
 20
6.577629593175854
 10
28.79208661417323
 20
6.577629593175854
 10
28.825419947506564
 20
6.544296259842521
 10
28.825419947506564
 20
6.577629593175854
  0
LWPOLYLINE
  5
C6
330
17
100
AcDbEntity
  8
NUMBERS
100
AcDbPolyline
 90
2
 70
0
 10
28.825419947506564
 20
6.590962926509187
 10
28.775419947506563
 20
6.624296259842521
  0
LWPOLYLINE
  5
C7
330
17
100
AcDbEntity
  8
NUMBERS
100
AcDbPolyline
 90
7
 70
0
 10
28.783753280839896
 20
6.637629593175854
 10
28.775419947506563
 20
6.6459629265091875
 10
28.775419947506563
 20
6.662629593175854
 10
28.783753280839896
 20
6.670962926509187
 10
28.79208661417323
 20
6.670962926509187
 10
28.825419947506564
 20
6.637629593175854
 10
28.825419947506564
 20
6.670962926509187
  0
LWPOLYLINE
  5
C8
330
17
100
AcDbEntity
  8
NUMBERS
100
AcDbPolyline
 90
5
 70
0
 10
27.70170997375328
 20
9.14255347769029
 10
27.641709973753283
 20
9.14255347769029
 10
27.641709973753283
 20
9.182553477690291
 10
27.67170997375328
 20
9.182553477690291
 10
27.67170997375328
 20
9.14255347769029
  0
LWPOLYLINE
  5
C9
330
17
100
AcDbEntity
  8
NUMBERS
100
AcDbPolyline
 90
5
 70
0
 10
27.70170997375328
 20
9.198553477690291
 10
27.70170997375328
 20
9.23855347769029
 10
27.641709973753283
 20
9.23855347769029
 10
27.641709973753283
 20
9.198553477690291
 10
27.70170997375328
 20
9.198553477690291
  0
LWPOLYLINE
  5
CA
330
17
100
AcDbEntity
  8
NUMBERS
100
AcDbPolyline
 90
5
 70
0
 10
27.70170997375328
 20
9.25455347769029
 10
27.70170997375328
 20
9.294553477690291
 10
27.641709973753283
 20
9.294553477690291
 10
27.641709973753283
 20
9.25455347769029
 10
27.70170997375328
 20
9.25455347769029
  0
LWPOLYLINE
  5
CB
330
17
100
AcDbEntity
  8
NUMBERS
100
AcDbPolyline
 90
2
 70
0
 10
27.70170997375328
 20
9.25455347769029
 10
27.641709973753283
 20
9.294553477690291
  0
LWPOLYLINE
  5
CC
330
17
100
AcDbEntity
  8
NUMBERS
100
AcDbPolyline
 90
5
 70
0
 10
27.70170997375328
 20
9.310553477690291
 10
27.70170997375328
 20
9.35055347769029
 10
27.641709973753283
 20
9.35055347769029
 10
27.641709973753283
 20
9.310553477690291
 10
27.70170997375328
 20
9.310553477690291
  0
LWPOLYLINE
  5
CD
330
17
100
AcDbEntity
  8
NUMBERS
100
AcDbPolyline
 90
2
 70
0
 10
27.70170997375328
 20
9.310553477690291
 10
27.641709973753283
 20
9.35055347769029
  0
LWPOLYLINE
  5
CE
330
17
100
AcDbEntity
  8
NUMBERS
100
AcDbPolyline
 90
7
 70
0
 10
27.65170997375328
 20
9.36655347769029
 10
27.641709973753283
 20
9.37655347769029
 10
27.641709973753283
 20
9.39655347769029
 10
27.65170997375328
 20
9.406553477690291
 10
27.661709973753283
 20
9.406553477690291
 10
27.70170997375328
 20
9.36655347769029
 10
27.70170997375328
 20
9.406553477690291
  0
LWPOLYLINE
  5
CF
330
17
100
AcDbEntity
  8
NUMBERS
100
AcDbPolyline
 90
5
 70
0
 10
27.827709973753283
 20
9.10655347769029
 10
27.777709973753282
 20
9.10655347769029
 10
27.777709973753282
 20
9.139886811023624
 10
27.80270997375328
 20
9.139886811023624
 10
27.80270997375328
 20
9.10655347769029
  0
LWPOLYLINE
  5
D0
330
17
100
AcDbEntity
  8
NUMBERS
100
AcDbPolyline
 90
5
 70
0
 10
27.827709973753283
 20
9.153220144356958
 10
27.827709973753283
 20
9.18655347769029
 10
27.777709973753282
 20
9.18655347769029
 10
27.777709973753282
 20
9.153220144356958
 10
27.827709973753283
 20
9.153220144356958
  0
LWPOLYLINE
  5
D1
330
17
100
AcDbEntity
  8
NUMBERS
100
AcDbPolyline
 90
5
 70
0
 10
27.827709973753283
 20
9.199886811023624
 10
27.827709973753283
 20
9.233220144356958
 10
27.777709973753282
 20
9.233220144356958
 10
27.777709973753282
 20
9.199886811023624
 10
27.827709973753283
 20
9.199886811023624
  0
LWPOLYLINE
  5
D2
330
17
100
AcDbEntity
  8
NUMBERS
100
AcDbPolyline
 90
2
 70
0
 10
27.827709973753283
 20
9.199886811023624
 10
27.777709973753282
 20
9.233220144356958
  0
LWPOLYLINE
  5
D3
330
17
100
AcDbEntity
  8
NUMBERS
100
AcDbPolyline
 90
5
 70
0
 10
27.827709973753283
 20
9.246553477690291
 10
27.827709973753283
 20
9.279886811023625
 10
27.777709973753282
 20
9.279886811023625
 10
27.777709973753282
 20
9.246553477690291
 10
27.827709973753283
 20
9.246553477690291
  0
LWPOLYLINE
  5
D4
330
17
100
AcDbEntity
  8
NUMBERS
100
AcDbPolyline
 90
2
 70
0
 10
27.827709973753283
 20
9.246553477690291
 10
27.777709973753282
 20
9.279886811023625
  0
LWPOLYLINE
  5
D5
330
17
100
AcDbEntity
  8
NUMBERS
100
AcDbPolyline
 90
7
 70
0
 10
27.786043307086615
 20
9.293220144356958
 10
27.777709973753282
 20
9.301553477690291
 10
27.777709973753282
 20
9.318220144356957
 10
27.786043307086615
 20
9.326553477690291
 10
27.794376640419948
 20
9.326553477690291
 10
27.827709973753283
 20
9.293220144356958
 10
27.827709973753283
 20
9.326553477690291
  0
LWPOLYLINE
  5
D6
330
17
100
AcDbEntity
  8
NUMBERS
100
AcDbPolyline
 90
3
 70
0
 10
27.786043307086615
 20
9.394886811023625
 10
27.777709973753282
 20
9.403220144356958
 10
27.827709973753283
 20
9.403220144356958
  0
LWPOLYLINE
  5
D7
330
17
100
AcDbEntity
  8
NUMBERS
100
AcDbPolyline
 90
2
 70
0
 10
27.827709973753283
 20
9.394886811023625
 10
27.827709973753283
 20
9.41155347769029
  0
LWPOLYLINE
  5
D8
330
17
100
AcDbEntity
  8
NUMBERS
100
AcDbPolyline
 90
2
 70
0
 10
27.827709973753283
 20
9.433220144356957
 10
27.777709973753282
 20
9.46655347769029
  0
LWPOLYLINE
  5
D9
330
17
100
AcDbEntity
  8
NUMBERS
100
AcDbPolyline
 90
7
 70
0
 10
27.786043307086615
 20
9.479886811023624
 10
27.777709973753282
 20
9.488220144356957
 10
27.777709973753282
 20
9.504886811023624
 10
27.786043307086615
 20
9.513220144356957
 10
27.794376640419948
 20
9.513220144356957
 10
27.827709973753283
 20
9.479886811023624
 10
27.827709973753283
 20
9.513220144356957
  0
LWPOLYLINE
  5
DA
330
17
100
AcDbEntity
  8
NUMBERS
100
AcDbPolyline
 90
5
 70
0
 10
28.699419947506563
 20
9.14255347769029
 10
28.639419947506564
 20
9.14255347769029
 10
28.639419947506564
 20
9.182553477690291
 10
28.66941994750656
 20
9.182553477690291
 10
28.66941994750656
 20
9.14255347769029
  0
LWPOLYLINE
  5
DB
330
17
100
AcDbEntity
  8
NUMBERS
100
AcDbPolyline
 90
5
 70
0
 10
28.699419947506563
 20
9.198553477690291
 10
28.699419947506563
 20
9.23855347769029
 10
28.639419947506564
 20
9.23855347769029
 10
28.639419947506564
 20
9.198553477690291
 10
28.699419947506563
 20
9.198553477690291
  0
LWPOLYLINE
  5
DC
330
17
100
AcDbEntity
  8
NUMBERS
100
AcDbPolyline
 90
5
 70
0
 10
28.699419947506563
 20
9.25455347769029
 10
28.699419947506563
 20
9.294553477690291
 10
28.639419947506564
 20
9.294553477690291
 10
28.639419947506564
 20
9.25455347769029
 10
28.699419947506563
 20
9.25455347769029
  0
LWPOLYLINE
  5
DD
330
17
100
AcDbEntity
  8
NUMBERS
100
AcDbPolyline
 90
2
 70
0
 10
28.699419947506563
 20
9.25455347769029
 10
28.639419947506564
 20
9.294553477690291
  0
LWPOLYLINE
  5
DE
330
17
100
AcDbEntity
  8
NUMBERS
100
AcDbPolyline
 90
5
 70
0
 10
28.699419947506563
 20
9.310553477690291
 10
28.699419947506563
 20
9.35055347769029
 10
28.639419947506564
 20
9.35055347769029
 10
28.639419947506564
 20
9.310553477690291
 10
28.699419947506563
 20
9.310553477690291
  0
LWPOLYLINE
  5
DF
330
17
100
AcDbEntity
  8
NUMBERS
100
AcDbPolyline
 90
2
 70
0
 10
28.699419947506563
 20
9.310553477690291
 10
28.639419947506564
 20
9.35055347769029
  0
LWPOLYLINE
  5
E0
330
17
100
AcDbEntity
  8
NUMBERS
100
AcDbPolyline
 90
7
 70
0
 10
28.649419947506562
 20
9.36655347769029
 10
28.639419947506564
 20
9.37655347769029
 10
28.639419947506564
 20
9.39655347769029
 10
28.649419947506562
 20
9.406553477690291
 10
28.659419947506564
 20
9.406553477690291
 10
28.699419947506563
 20
9.36655347769029
 10
28.699419947506563
 20
9.406553477690291
  0
LWPOLYLINE
  5
E1
330
17
100
AcDbEntity
  8
NUMBERS
100
AcDbPolyline
 90
5
 70
0
 10
28.825419947506564
 20
9.10655347769029
 10
28.775419947506563
 20
9.10655347769029
 10
28.775419947506563
 20
9.139886811023624
 10
28.800419947506562
 20
9.139886811023624
 10
28.800419947506562
 20
9.10655347769029
  0
LWPOLYLINE
  5
E2
330
17
100
AcDbEntity
  8
NUMBERS
100
AcDbPolyline
 90
5
 70
0
 10
28.825419947506564
 20
9.153220144356958
 10
28.825419947506564
 20
9.18655347769029
 10
28.775419947506563
 20
9.18655347769029
 10
28.775419947506563
 20
9.153220144356958
 10
28.825419947506564
 20
9.153220144356958
  0
LWPOLYLINE
  5
E3
330
17
100
AcDbEntity
  8
NUMBERS
100
AcDbPolyline
 90
5
 70
0
 10
28.825419947506564
 20
9.199886811023624
 10
28.825419947506564
 20
9.233220144356958
 10
28.775419947506563
 20
9.233220144356958
 10
28.775419947506563
 20
9.199886811023624
 10
28.825419947506564
 20
9.199886811023624
  0
LWPOLYLINE
  5
E4
330
17
100
AcDbEntity
  8
NUMBERS
100
AcDbPolyline
 90
2
 70
0
 10
28.825419947506564
 20
9.199886811023624
 10
28.775419947506563
 20
9.233220144356958
  0
LWPOLYLINE
  5
E5
330
17
100
AcDbEntity
  8
NUMBERS
100
AcDbPolyline
 90
5
 70
0
 10
28.825419947506564
 20
9.246553477690291
 10
28.825419947506564
 20
9.279886811023625
 10
28.775419947506563
 20
9.279886811023625
 10
28.775419947506563
 20
9.246553477690291
 10
28.825419947506564
 20
9.246553477690291
  0
LWPOLYLINE
  5
E6
330
17
100
AcDbEntity
  8
NUMBERS
100
AcDbPolyline
 90
2
 70
0
 10
28.825419947506564
 20
9.246553477690291
 10
28.775419947506563
 20
9.279886811023625
  0
LWPOLYLINE
  5
E7
330
17
100
AcDbEntity
  8
NUMBERS
100
AcDbPolyline
 90
7
 70
0
 10
28.783753280839896
 20
9.293220144356958
 10
28.775419947506563
 20
9.301553477690291
 10
28.775419947506563
 20
9.318220144356957
 10
28.783753280839896
 20
9.326553477690291
 10
28.79208661417323
 20
9.326553477690291
 10
28.825419947506564
 20
9.293220144356958
 10
28.825419947506564
 20
9.326553477690291
  0
LWPOLYLINE
  5
E8
330
17
100
AcDbEntity
  8
NUMBERS
100
AcDbPolyline
 90
7
 70
0
 10
28.783753280839896
 20
9.38655347769029
 10
28.775419947506563
 20
9.394886811023625
 10
28.775419947506563
 20
9.41155347769029
 10
28.783753280839896
 20
9.419886811023623
 10
28.79208661417323
 20
9.419886811023623
 10
28.825419947506564
 20
9.38655347769029
 10
28.825419947506564
 20
9.419886811023623
  0
LWPOLYLINE
  5
E9
330
17
100
AcDbEntity
  8
NUMBERS
100
AcDbPolyline
 90
2
 70
0
 10
28.825419947506564
 20
9.433220144356957
 10
28.775419947506563
 20
9.46655347769029
  0
LWPOLYLINE
  5
EA
330
17
100
AcDbEntity
  8
NUMBERS
100
AcDbPolyline
 90
7
 70
0
 10
28.783753280839896
 20
9.479886811023624
 10
28.775419947506563
 20
9.488220144356957
 10
28.775419947506563
 20
9.504886811023624
 10
28.783753280839896
 20
9.513220144356957
 10
28.79208661417323
 20
9.513220144356957
 10
28.825419947506564
 20
9.479886811023624
 10
28.825419947506564
 20
9.513220144356957
  0
LWPOLYLINE
  5
EB
330
17
100
AcDbEntity
  8
NUMBERS
100
AcDbPolyline
 90
5
 70
0
 10
27.70170997375328
 20
11.85981069553806
 10
27.641709973753283
 20
11.85981069553806
 10
27.641709973753283
 20
11.899810695538061
 10
27.67170997375328
 20
11.899810695538061
 10
27.67170997375328
 20
11.85981069553806
  0
LWPOLYLINE
  5
EC
330
17
100
AcDbEntity
  8
NUMBERS
100
AcDbPolyline
 90
5
 70
0
 10
27.70170997375328
 20
11.915810695538061
 10
27.70170997375328
 20
11.95581069553806
 10
27.641709973753283
 20
11.95581069553806
 10
27.641709973753283
 20
11.915810695538061
 10
27.70170997375328
 20
11.915810695538061
  0
LWPOLYLINE
  5
ED
330
17
100
AcDbEntity
  8
NUMBERS
100
AcDbPolyline
 90
5
 70
0
 10
27.70170997375328
 20
11.97181069553806
 10
27.70170997375328
 20
12.011810695538061
 10
27.641709973753283
 20
12.011810695538061
 10
27.641709973753283
 20
11.97181069553806
 10
27.70170997375328
 20
11.97181069553806
  0
LWPOLYLINE
  5
EE
330
17
100
AcDbEntity
  8
NUMBERS
100
AcDbPolyline
 90
2
 70
0
 10
27.70170997375328
 20
11.97181069553806
 10
27.641709973753283
 20
12.011810695538061
  0
LWPOLYLINE
  5
EF
330
17
100
AcDbEntity
  8
NUMBERS
100
AcDbPolyline
 90
5
 70
0
 10
27.70170997375328
 20
12.027810695538061
 10
27.70170997375328
 20
12.06781069553806
 10
27.641709973753283
 20
12.06781069553806
 10
27.641709973753283
 20
12.027810695538061
 10
27.70170997375328
 20
12.027810695538061
  0
LWPOLYLINE
  5
F0
330
17
100
AcDbEntity
  8
NUMBERS
100
AcDbPolyline
 90
2
 70
0
 10
27.70170997375328
 20
12.027810695538061
 10
27.641709973753283
 20
12.06781069553806
  0
LWPOLYLINE
  5
F1
330
17
100
AcDbEntity
  8
NUMBERS
100
AcDbPolyline
 90
3
 70
0
 10
27.641709973753283
 20
12.08381069553806
 10
27.641709973753283
 20
12.123810695538062
 10
27.70170997375328
 20
12.09381069553806
  0
LWPOLYLINE
  5
F2
330
17
100
AcDbEntity
  8
NUMBERS
100
AcDbPolyline
 90
5
 70
0
 10
27.827709973753283
 20
11.82381069553806
 10
27.777709973753282
 20
11.82381069553806
 10
27.777709973753282
 20
11.857144028871394
 10
27.80270997375328
 20
11.857144028871394
 10
27.80270997375328
 20
11.82381069553806
  0
LWPOLYLINE
  5
F3
330
17
100
AcDbEntity
  8
NUMBERS
100
AcDbPolyline
 90
5
 70
0
 10
27.827709973753283
 20
11.870477362204728
 10
27.827709973753283
 20
11.903810695538061
 10
27.777709973753282
 20
11.903810695538061
 10
27.777709973753282
 20
11.870477362204728
 10
27.827709973753283
 20
11.870477362204728
  0
LWPOLYLINE
  5
F4
330
17
100
AcDbEntity
  8
NUMBERS
100
AcDbPolyline
 90
5
 70
0
 10
27.827709973753283
 20
11.917144028871395
 10
27.827709973753283
 20
11.950477362204728
 10
27.777709973753282
 20
11.950477362204728
 10
27.777709973753282
 20
11.917144028871395
 10
27.827709973753283
 20
11.917144028871395
  0
LWPOLYLINE
  5
F5
330
17
100
AcDbEntity
  8
NUMBERS
100
AcDbPolyline
 90
2
 70
0
 10
27.827709973753283
 20
11.917144028871395
 10
27.777709973753282
 20
11.950477362204728
  0
LWPOLYLINE
  5
F6
330
17
100
AcDbEntity
  8
NUMBERS
100
AcDbPolyline
 90
5
 70
0
 10
27.827709973753283
 20
11.963810695538061
 10
27.827709973753283
 20
11.997144028871395
 10
27.777709973753282
 20
11.997144028871395
 10
27.777709973753282
 20
11.963810695538061
 10
27.827709973753283
 20
11.963810695538061
  0
LWPOLYLINE
  5
F7
330
17
100
AcDbEntity
  8
NUMBERS
100
AcDbPolyline
 90
2
 70
0
 10
27.827709973753283
 20
11.963810695538061
 10
27.777709973753282
 20
11.997144028871395
  0
LWPOLYLINE
  5
F8
330
17
100
AcDbEntity
  8
NUMBERS
100
AcDbPolyline
 90
3
 70
0
 10
27.777709973753282
 20
12.010477362204728
 10
27.777709973753282
 20
12.043810695538061
 10
27.827709973753283
 20
12.018810695538061
  0
LWPOLYLINE
  5
F9
330
17
100
AcDbEntity
  8
NUMBERS
100
AcDbPolyline
 90
3
 70
0
 10
27.786043307086615
 20
12.112144028871395
 10
27.777709973753282
 20
12.120477362204728
 10
27.827709973753283
 20
12.120477362204728
  0
LWPOLYLINE
  5
FA
330
17
100
AcDbEntity
  8
NUMBERS
100
AcDbPolyline
 90
2
 70
0
 10
27.827709973753283
 20
12.112144028871395
 10
27.827709973753283
 20
12.12881069553806
  0
LWPOLYLINE
  5
FB
330
17
100
AcDbEntity
  8
NUMBERS
100
AcDbPolyline
 90
2
 70
0
 10
27.827709973753283
 20
12.150477362204727
 10
27.777709973753282
 20
12.18381069553806
  0
LWPOLYLINE
  5
FC
330
17
100
AcDbEntity
  8
NUMBERS
100
AcDbPolyline
 90
7
 70
0
 10
27.786043307086615
 20
12.197144028871394
 10
27.777709973753282
 20
12.205477362204727
 10
27.777709973753282
 20
12.222144028871394
 10
27.786043307086615
 20
12.230477362204727
 10
27.794376640419948
 20
12.230477362204727
 10
27.827709973753283
 20
12.197144028871394
 10
27.827709973753283
 20
12.230477362204727
  0
LWPOLYLINE
  5
FD
330
17
100
AcDbEntity
  8
NUMBERS
100
AcDbPolyline
 90
5
 70
0
 10
28.699419947506563
 20
11.85981069553806
 10
28.639419947506564
 20
11.85981069553806
 10
28.639419947506564
 20
11.899810695538061
 10
28.66941994750656
 20
11.899810695538061
 10
28.66941994750656
 20
11.85981069553806
  0
LWPOLYLINE
  5
FE
330
17
100
AcDbEntity
  8
NUMBERS
100
AcDbPolyline
 90
5
 70
0
 10
28.699419947506563
 20
11.915810695538061
 10
28.699419947506563
 20
11.95581069553806
 10
28.639419947506564
 20
11.95581069553806
 10
28.639419947506564
 20
11.915810695538061
 10
28.699419947506563
 20
11.915810695538061
  0
LWPOLYLINE
  5
FF
330
17
100
AcDbEntity
  8
NUMBERS
100
AcDbPolyline
 90
5
 70
0
 10
28.699419947506563
 20
11.97181069553806
 10
28.699419947506563
 20
12.011810695538061
 10
28.639419947506564
 20
12.011810695538061
 10
28.639419947506564
 20
11.97181069553806
 10
28.699419947506563
 20
11.97181069553806
  0
LWPOLYLINE
  5
100
330
17
100
AcDbEntity
  8
NUMBERS
100
AcDbPolyline
 90
2
 70
0
 10
28.699419947506563
 20
11.97181069553806
 10
28.639419947506564
 20
12.011810695538061
  0
LWPOLYLINE
  5
101
330
17
100
AcDbEntity
  8
NUMBERS
100
AcDbPolyline
 90
5
 70
0
 10
28.699419947506563
 20
12.027810695538061
 10
28.699419947506563
 20
12.06781069553806
 10
28.639419947506564
 20
12.06781069553806
 10
28.639419947506564
 20
12.027810695538061
 10
28.699419947506563
 20
12.027810695538061
  0
LWPOLYLINE
  5
102
330
17
100
AcDbEntity
  8
NUMBERS
100
AcDbPolyline
 90
2
 70
0
 10
28.699419947506563
 20
12.027810695538061
 10
28.639419947506564
 20
12.06781069553806
  0
LWPOLYLINE
  5
103
330
17
100
AcDbEntity
  8
NUMBERS
100
AcDbPolyline
 90
3
 70
0
 10
28.639419947506564
 20
12.08381069553806
 10
28.639419947506564
 20
12.123810695538062
 10
28.699419947506563
 20
12.09381069553806
  0
LWPOLYLINE
  5
104
330
17
100
AcDbEntity
  8
NUMBERS
100
AcDbPolyline
 90
5
 70
0
 10
28.825419947506564
 20
11.82381069553806
 10
28.775419947506563
 20
11.82381069553806
 10
28.775419947506563
 20
11.857144028871394
 10
28.800419947506562
 20
11.857144028871394
 10
28.800419947506562
 20
11.82381069553806
  0
LWPOLYLINE
  5
105
330
17
100
AcDbEntity
  8
NUMBERS
100
AcDbPolyline
 90
5
 70
0
 10
28.825419947506564
 20
11.870477362204728
 10
28.825419947506564
 20
11.903810695538061
 10
28.775419947506563
 20
11.903810695538061
 10
28.775419947506563
 20
11.870477362204728
 10
28.825419947506564
 20
11.870477362204728
  0
LWPOLYLINE
  5
106
330
17
100
AcDbEntity
  8
NUMBERS
100
AcDbPolyline
 90
5
 70
0
 10
28.825419947506564
 20
11.917144028871395
 10
28.825419947506564
 20
11.950477362204728
 10
28.775419947506563
 20
11.950477362204728
 10
28.775419947506563
 20
11.917144028871395
 10
28.825419947506564
 20
11.917144028871395
  0
LWPOLYLINE
  5
107
330
17
100
AcDbEntity
  8
NUMBERS
100
AcDbPolyline
 90
2
 70
0
 10
28.825419947506564
 20
11.917144028871395
 10
28.775419947506563
 20
11.950477362204728
  0
LWPOLYLINE
  5
108
330
17
100
AcDbEntity
  8
NUMBERS
100
AcDbPolyline
 90
5
 70
0
 10
28.825419947506564
 20
11.963810695538061
 10
28.825419947506564
 20
11.997144028871395
 10
28.775419947506563
 20
11.997144028871395
 10
28.775419947506563
 20
11.963810695538061
 10
28.825419947506564
 20
11.963810695538061
  0
LWPOLYLINE
  5
109
330
17
100
AcDbEntity
  8
NUMBERS
100
AcDbPolyline
 90
2
 70
0
 10
28.825419947506564
 20
11.963810695538061
 10
28.775419947506563
 20
11.997144028871395
  0
LWPOLYLINE
  5
10A
330
17
100
AcDbEntity
  8
NUMBERS
100
AcDbPolyline
 90
3
 70
0
 10
28.775419947506563
 20
12.010477362204728
 10
28.775419947506563
 20
12.043810695538061
 10
28.825419947506564
 20
12.018810695538061
  0
LWPOLYLINE
  5
10B
330
17
100
AcDbEntity
  8
NUMBERS
100
AcDbPolyline
 90
7
 70
0
 10
28.783753280839896
 20
12.10381069553806
 10
28.775419947506563
 20
12.112144028871395
 10
28.775419947506563
 20
12.12881069553806
 10
28.783753280839896
 20
12.137144028871393
 10
28.79208661417323
 20
12.137144028871393
 10
28.825419947506564
 20
12.10381069553806
 10
28.825419947506564
 20
12.137144028871393
  0
LWPOLYLINE
  5
10C
330
17
100
AcDbEntity
  8
NUMBERS
100
AcDbPolyline
 90
2
 70
0
 10
28.825419947506564
 20
12.150477362204727
 10
28.775419947506563
 20
12.18381069553806
  0
LWPOLYLINE
  5
10D
330
17
100
AcDbEntity
  8
NUMBERS
100
AcDbPolyline
 90
7
 70
0
 10
28.783753280839896
 20
12.197144028871394
 10
28.775419947506563
 20
12.205477362204727
 10
28.775419947506563
 20
12.222144028871394
 10
28.783753280839896
 20
12.230477362204727
 10
28.79208661417323
 20
12.230477362204727
 10
28.825419947506564
 20
12.197144028871394
 10
28.825419947506564
 20
12.230477362204727
  0
LWPOLYLINE
  5
10E
330
17
100
AcDbEntity
  8
NUMBERS
100
AcDbPolyline
 90
5
 70
0
 10
27.445394356955383
 20
14.57706791338583
 10
27.38539435695538
 20
14.57706791338583
 10
27.38539435695538
 20
14.617067913385831
 10
27.41539435695538
 20
14.617067913385831
 10
27.41539435695538
 20
14.57706791338583
  0
LWPOLYLINE
  5
10F
330
17
100
AcDbEntity
  8
NUMBERS
100
AcDbPolyline
 90
5
 70
0
 10
27.445394356955383
 20
14.633067913385831
 10
27.445394356955383
 20
14.67306791338583
 10
27.38539435695538
 20
14.67306791338583
 10
27.38539435695538
 20
14.633067913385831
 10
27.445394356955383
 20
14.633067913385831
  0
LWPOLYLINE
  5
110
330
17
100
AcDbEntity
  8
NUMBERS
100
AcDbPolyline
 90
5
 70
0
 10
27.445394356955383
 20
14.68906791338583
 10
27.445394356955383
 20
14.729067913385832
 10
27.38539435695538
 20
14.729067913385832
 10
27.38539435695538
 20
14.68906791338583
 10
27.445394356955383
 20
14.68906791338583
  0
LWPOLYLINE
  5
111
330
17
100
AcDbEntity
  8
NUMBERS
100
AcDbPolyline
 90
2
 70
0
 10
27.445394356955383
 20
14.68906791338583
 10
27.38539435695538
 20
14.729067913385832
  0
LWPOLYLINE
  5
112
330
17
100
AcDbEntity
  8
NUMBERS
100
AcDbPolyline
 90
5
 70
0
 10
27.445394356955383
 20
14.745067913385832
 10
27.445394356955383
 20
14.78506791338583
 10
27.38539435695538
 20
14.78506791338583
 10
27.38539435695538
 20
14.745067913385832
 10
27.445394356955383
 20
14.745067913385832
  0
LWPOLYLINE
  5
113
330
17
100
AcDbEntity
  8
NUMBERS
100
AcDbPolyline
 90
2
 70
0
 10
27.445394356955383
 20
14.745067913385832
 10
27.38539435695538
 20
14.78506791338583
  0
LWPOLYLINE
  5
114
330
17
100
AcDbEntity
  8
NUMBERS
100
AcDbPolyline
 90
7
 70
0
 10
27.445394356955383
 20
14.80106791338583
 10
27.445394356955383
 20
14.83106791338583
 10
27.43539435695538
 20
14.841067913385832
 10
27.38539435695538
 20
14.841067913385832
 10
27.38539435695538
 20
14.80106791338583
 10
27.41539435695538
 20
14.80106791338583
 10
27.41539435695538
 20
14.841067913385832
  0
LWPOLYLINE
  5
115
330
17
100
AcDbEntity
  8
NUMBERS
100
AcDbPolyline
 90
5
 70
0
 10
27.57139435695538
 20
14.541067913385831
 10
27.52139435695538
 20
14.541067913385831
 10
27.52139435695538
 20
14.574401246719164
 10
27.546394356955382
 20
14.574401246719164
 10
27.546394356955382
 20
14.541067913385831
  0
LWPOLYLINE
  5
116
330
17
100
AcDbEntity
  8
NUMBERS
100
AcDbPolyline
 90
5
 70
0
 10
27.57139435695538
 20
14.587734580052498
 10
27.57139435695538
 20
14.621067913385831
 10
27.52139435695538
 20
14.621067913385831
 10
27.52139435695538
 20
14.587734580052498
 10
27.57139435695538
 20
14.587734580052498
  0
LWPOLYLINE
  5
117
330
17
100
AcDbEntity
  8
NUMBERS
100
AcDbPolyline
 90
5
 70
0
 10
27.57139435695538
 20
14.634401246719165
 10
27.57139435695538
 20
14.667734580052498
 10
27.52139435695538
 20
14.667734580052498
 10
27.52139435695538
 20
14.634401246719165
 10
27.57139435695538
 20
14.634401246719165
  0
LWPOLYLINE
  5
118
330
17
100
AcDbEntity
  8
NUMBERS
100
AcDbPolyline
 90
2
 70
0
 10
27.57139435695538
 20
14.634401246719165
 10
27.52139435695538
 20
14.667734580052498
  0
LWPOLYLINE
  5
119
330
17
100
AcDbEntity
  8
NUMBERS
100
AcDbPolyline
 90
5
 70
0
 10
27.57139435695538
 20
14.681067913385832
 10
27.57139435695538
 20
14.714401246719165
 10
27.52139435695538
 20
14.714401246719165
 10
27.52139435695538
 20
14.681067913385832
 10
27.57139435695538
 20
14.681067913385832
  0
LWPOLYLINE
  5
11A
330
17
100
AcDbEntity
  8
NUMBERS
100
AcDbPolyline
 90
2
 70
0
 10
27.57139435695538
 20
14.681067913385832
 10
27.52139435695538
 20
14.714401246719165
  0
LWPOLYLINE
  5
11B
330
17
100
AcDbEntity
  8
NUMBERS
100
AcDbPolyline
 90
7
 70
0
 10
27.57139435695538
 20
14.727734580052498
 10
27.57139435695538
 20
14.752734580052497
 10
27.563061023622048
 20
14.761067913385832
 10
27.52139435695538
 20
14.761067913385832
 10
27.52139435695538
 20
14.727734580052498
 10
27.546394356955382
 20
14.727734580052498
 10
27.546394356955382
 20
14.761067913385832
  0
LWPOLYLINE
  5
11C
330
17
100
AcDbEntity
  8
NUMBERS
100
AcDbPolyline
 90
3
 70
0
 10
27.529727690288716
 20
14.829401246719165
 10
27.52139435695538
 20
14.837734580052498
 10
27.57139435695538
 20
14.837734580052498
  0
LWPOLYLINE
  5
11D
330
17
100
AcDbEntity
  8
NUMBERS
100
AcDbPolyline
 90
2
 70
0
 10
27.57139435695538
 20
14.829401246719165
 10
27.57139435695538
 20
14.84606791338583
  0
LWPOLYLINE
  5
11E
330
17
100
AcDbEntity
  8
NUMBERS
100
AcDbPolyline
 90
2
 70
0
 10
27.57139435695538
 20
14.867734580052497
 10
27.52139435695538
 20
14.90106791338583
  0
LWPOLYLINE
  5
11F
330
17
100
AcDbEntity
  8
NUMBERS
100
AcDbPolyline
 90
7
 70
0
 10
27.529727690288716
 20
14.914401246719164
 10
27.52139435695538
 20
14.922734580052497
 10
27.52139435695538
 20
14.939401246719164
 10
27.529727690288716
 20
14.947734580052497
 10
27.53806102362205
 20
14.947734580052497
 10
27.57139435695538
 20
14.914401246719164
 10
27.57139435695538
 20
14.947734580052497
  0
LWPOLYLINE
  5
120
330
17
100
AcDbEntity
  8
NUMBERS
100
AcDbPolyline
 90
5
 70
0
 10
28.186788713910765
 20
14.57706791338583
 10
28.126788713910763
 20
14.57706791338583
 10
28.126788713910763
 20
14.617067913385831
 10
28.156788713910764
 20
14.617067913385831
 10
28.156788713910764
 20
14.57706791338583
  0
LWPOLYLINE
  5
121
330
17
100
AcDbEntity
  8
NUMBERS
100
AcDbPolyline
 90
5
 70
0
 10
28.186788713910765
 20
14.633067913385831
 10
28.186788713910765
 20
14.67306791338583
 10
28.126788713910763
 20
14.67306791338583
 10
28.126788713910763
 20
14.633067913385831
 10
28.186788713910765
 20
14.633067913385831
  0
LWPOLYLINE
  5
122
330
17
100
AcDbEntity
  8
NUMBERS
100
AcDbPolyline
 90
5
 70
0
 10
28.186788713910765
 20
14.68906791338583
 10
28.186788713910765
 20
14.729067913385832
 10
28.126788713910763
 20
14.729067913385832
 10
28.126788713910763
 20
14.68906791338583
 10
28.186788713910765
 20
14.68906791338583
  0
LWPOLYLINE
  5
123
330
17
100
AcDbEntity
  8
NUMBERS
100
AcDbPolyline
 90
2
 70
0
 10
28.186788713910765
 20
14.68906791338583
 10
28.126788713910763
 20
14.729067913385832
  0
LWPOLYLINE
  5
124
330
17
100
AcDbEntity
  8
NUMBERS
100
AcDbPolyline
 90
5
 70
0
 10
28.186788713910765
 20
14.745067913385832
 10
28.186788713910765
 20
14.78506791338583
 10
28.126788713910763
 20
14.78506791338583
 10
28.126788713910763
 20
14.745067913385832
 10
28.186788713910765
 20
14.745067913385832
  0
LWPOLYLINE
  5
125
330
17
100
AcDbEntity
  8
NUMBERS
100
AcDbPolyline
 90
2
 70
0
 10
28.186788713910765
 20
14.745067913385832
 10
28.126788713910763
 20
14.78506791338583
  0
LWPOLYLINE
  5
126
330
17
100
AcDbEntity
  8
NUMBERS
100
AcDbPolyline
 90
7
 70
0
 10
28.186788713910765
 20
14.80106791338583
 10
28.186788713910765
 20
14.83106791338583
 10
28.176788713910764
 20
14.841067913385832
 10
28.126788713910763
 20
14.841067913385832
 10
28.126788713910763
 20
14.80106791338583
 10
28.156788713910764
 20
14.80106791338583
 10
28.156788713910764
 20
14.841067913385832
  0
LWPOLYLINE
  5
127
330
17
100
AcDbEntity
  8
NUMBERS
100
AcDbPolyline
 90
5
 70
0
 10
28.312788713910763
 20
14.541067913385831
 10
28.262788713910762
 20
14.541067913385831
 10
28.262788713910762
 20
14.574401246719164
 10
28.287788713910764
 20
14.574401246719164
 10
28.287788713910764
 20
14.541067913385831
  0
LWPOLYLINE
  5
128
330
17
100
AcDbEntity
  8
NUMBERS
100
AcDbPolyline
 90
5
 70
0
 10
28.312788713910763
 20
14.587734580052498
 10
28.312788713910763
 20
14.621067913385831
 10
28.262788713910762
 20
14.621067913385831
 10
28.262788713910762
 20
14.587734580052498
 10
28.312788713910763
 20
14.587734580052498
  0
LWPOLYLINE
  5
129
330
17
100
AcDbEntity
  8
NUMBERS
100
AcDbPolyline
 90
5
 70
0
 10
28.312788713910763
 20
14.634401246719165
 10
28.312788713910763
 20
14.667734580052498
 10
28.262788713910762
 20
14.667734580052498
 10
28.262788713910762
 20
14.634401246719165
 10
28.312788713910763
 20
14.634401246719165
  0
LWPOLYLINE
  5
12A
330
17
100
AcDbEntity
  8
NUMBERS
100
AcDbPolyline
 90
2
 70
0
 10
28.312788713910763
 20
14.634401246719165
 10
28.262788713910762
 20
14.667734580052498
  0
LWPOLYLINE
  5
12B
330
17
100
AcDbEntity
  8
NUMBERS
100
AcDbPolyline
 90
5
 70
0
 10
28.312788713910763
 20
14.681067913385832
 10
28.312788713910763
 20
14.714401246719165
 10
28.262788713910762
 20
14.714401246719165
 10
28.262788713910762
 20
14.681067913385832
 10
28.312788713910763
 20
14.681067913385832
  0
LWPOLYLINE
  5
12C
330
17
100
AcDbEntity
  8
NUMBERS
100
AcDbPolyline
 90
2
 70
0
 10
28.312788713910763
 20
14.681067913385832
 10
28.262788713910762
 20
14.714401246719165
  0
LWPOLYLINE
  5
12D
330
17
100
AcDbEntity
  8
NUMBERS
100
AcDbPolyline
 90
7
 70
0
 10
28.312788713910763
 20
14.727734580052498
 10
28.312788713910763
 20
14.752734580052497
 10
28.30445538057743
 20
14.761067913385832
 10
28.262788713910762
 20
14.761067913385832
 10
28.262788713910762
 20
14.727734580052498
 10
28.287788713910764
 20
14.727734580052498
 10
28.287788713910764
 20
14.761067913385832
  0
LWPOLYLINE
  5
12E
330
17
100
AcDbEntity
  8
NUMBERS
100
AcDbPolyline
 90
7
 70
0
 10
28.2711220472441
 20
14.82106791338583
 10
28.262788713910762
 20
14.829401246719165
 10
28.262788713910762
 20
14.84606791338583
 10
28.2711220472441
 20
14.854401246719164
 10
28.27945538057743
 20
14.854401246719164
 10
28.312788713910763
 20
14.82106791338583
 10
28.312788713910763
 20
14.854401246719164
  0
LWPOLYLINE
  5
12F
330
17
100
AcDbEntity
  8
NUMBERS
100
AcDbPolyline
 90
2
 70
0
 10
28.312788713910763
 20
14.867734580052497
 10
28.262788713910762
 20
14.90106791338583
  0
LWPOLYLINE
  5
130
330
17
100
AcDbEntity
  8
NUMBERS
100
AcDbPolyline
 90
7
 70
0
 10
28.2711220472441
 20
14.914401246719164
 10
28.262788713910762
 20
14.922734580052497
 10
28.262788713910762
 20
14.939401246719164
 10
28.2711220472441
 20
14.947734580052497
 10
28.27945538057743
 20
14.947734580052497
 10
28.312788713910763
 20
14.914401246719164
 10
28.312788713910763
 20
14.947734580052497
  0
LWPOLYLINE
  5
131
330
17
100
AcDbEntity
  8
NUMBERS
100
AcDbPolyline
 90
5
 70
0
 10
29.29614501312336
 20
8.745578531861062
 10
29.24614501312336
 20
8.745578531861062
 10
29.24614501312336
 20
8.778911865194395
 10
29.27114501312336
 20
8.778911865194395
 10
29.27114501312336
 20
8.745578531861062
  0
LWPOLYLINE
  5
132
330
17
100
AcDbEntity
  8
NUMBERS
100
AcDbPolyline
 90
5
 70
0
 10
29.29614501312336
 20
8.792245198527729
 10
29.29614501312336
 20
8.825578531861062
 10
29.24614501312336
 20
8.825578531861062
 10
29.24614501312336
 20
8.792245198527729
 10
29.29614501312336
 20
8.792245198527729
  0
LWPOLYLINE
  5
133
330
17
100
AcDbEntity
  8
NUMBERS
100
AcDbPolyline
 90
5
 70
0
 10
29.29614501312336
 20
8.838911865194396
 10
29.29614501312336
 20
8.872245198527729
 10
29.24614501312336
 20
8.872245198527729
 10
29.24614501312336
 20
8.838911865194396
 10
29.29614501312336
 20
8.838911865194396
  0
LWPOLYLINE
  5
134
330
17
100
AcDbEntity
  8
NUMBERS
100
AcDbPolyline
 90
2
 70
0
 10
29.29614501312336
 20
8.838911865194396
 10
29.24614501312336
 20
8.872245198527729
  0
LWPOLYLINE
  5
135
330
17
100
AcDbEntity
  8
NUMBERS
100
AcDbPolyline
 90
5
 70
0
 10
29.29614501312336
 20
8.885578531861063
 10
29.29614501312336
 20
8.918911865194396
 10
29.24614501312336
 20
8.918911865194396
 10
29.24614501312336
 20
8.885578531861063
 10
29.29614501312336
 20
8.885578531861063
  0
LWPOLYLINE
  5
136
330
17
100
AcDbEntity
  8
NUMBERS
100
AcDbPolyline
 90
2
 70
0
 10
29.29614501312336
 20
8.885578531861063
 10
29.24614501312336
 20
8.918911865194396
  0
LWPOLYLINE
  5
137
330
17
100
AcDbEntity
  8
NUMBERS
100
AcDbPolyline
 90
8
 70
0
 10
29.24614501312336
 20
8.965578531861063
 10
29.24614501312336
 20
8.93224519852773
 10
29.266978346456693
 20
8.93224519852773
 10
29.266978346456693
 20
8.957245198527728
 10
29.275311679790025
 20
8.965578531861063
 10
29.28781167979003
 20
8.965578531861063
 10
29.29614501312336
 20
8.957245198527728
 10
29.29614501312336
 20
8.93224519852773
  0
LWPOLYLINE
  5
138
330
17
100
AcDbEntity
  8
NUMBERS
100
AcDbPolyline
 90
3
 70
0
 10
29.254478346456693
 20
9.033911865194396
 10
29.24614501312336
 20
9.042245198527729
 10
29.29614501312336
 20
9.042245198527729
  0
LWPOLYLINE
  5
139
330
17
100
AcDbEntity
  8
NUMBERS
100
AcDbPolyline
 90
2
 70
0
 10
29.29614501312336
 20
9.033911865194396
 10
29.29614501312336
 20
9.050578531861062
  0
LWPOLYLINE
  5
13A
330
17
100
AcDbEntity
  8
NUMBERS
100
AcDbPolyline
 90
2
 70
0
 10
29.29614501312336
 20
9.072245198527728
 10
29.24614501312336
 20
9.105578531861061
  0
LWPOLYLINE
  5
13B
330
17
100
AcDbEntity
  8
NUMBERS
100
AcDbPolyline
 90
7
 70
0
 10
29.254478346456693
 20
9.118911865194395
 10
29.24614501312336
 20
9.127245198527728
 10
29.24614501312336
 20
9.143911865194395
 10
29.254478346456693
 20
9.152245198527728
 10
29.262811679790026
 20
9.152245198527728
 10
29.29614501312336
 20
9.118911865194395
 10
29.29614501312336
 20
9.152245198527728
  0
LWPOLYLINE
  5
13C
330
17
100
AcDbEntity
  8
NUMBERS
100
AcDbPolyline
 90
5
 70
0
 10
29.29614501312336
 20
9.503459296386215
 10
29.24614501312336
 20
9.503459296386215
 10
29.24614501312336
 20
9.536792629719548
 10
29.27114501312336
 20
9.536792629719548
 10
29.27114501312336
 20
9.503459296386215
  0
LWPOLYLINE
  5
13D
330
17
100
AcDbEntity
  8
NUMBERS
100
AcDbPolyline
 90
5
 70
0
 10
29.29614501312336
 20
9.550125963052881
 10
29.29614501312336
 20
9.583459296386215
 10
29.24614501312336
 20
9.583459296386215
 10
29.24614501312336
 20
9.550125963052881
 10
29.29614501312336
 20
9.550125963052881
  0
LWPOLYLINE
  5
13E
330
17
100
AcDbEntity
  8
NUMBERS
100
AcDbPolyline
 90
5
 70
0
 10
29.29614501312336
 20
9.596792629719548
 10
29.29614501312336
 20
9.630125963052881
 10
29.24614501312336
 20
9.630125963052881
 10
29.24614501312336
 20
9.596792629719548
 10
29.29614501312336
 20
9.596792629719548
  0
LWPOLYLINE
  5
13F
330
17
100
AcDbEntity
  8
NUMBERS
100
AcDbPolyline
 90
2
 70
0
 10
29.29614501312336
 20
9.596792629719548
 10
29.24614501312336
 20
9.630125963052881
  0
LWPOLYLINE
  5
140
330
17
100
AcDbEntity
  8
NUMBERS
100
AcDbPolyline
 90
5
 70
0
 10
29.29614501312336
 20
9.643459296386215
 10
29.29614501312336
 20
9.676792629719548
 10
29.24614501312336
 20
9.676792629719548
 10
29.24614501312336
 20
9.643459296386215
 10
29.29614501312336
 20
9.643459296386215
  0
LWPOLYLINE
  5
141
330
17
100
AcDbEntity
  8
NUMBERS
100
AcDbPolyline
 90
2
 70
0
 10
29.29614501312336
 20
9.643459296386215
 10
29.24614501312336
 20
9.676792629719548
  0
LWPOLYLINE
  5
142
330
17
100
AcDbEntity
  8
NUMBERS
100
AcDbPolyline
 90
8
 70
0
 10
29.24614501312336
 20
9.723459296386215
 10
29.24614501312336
 20
9.690125963052882
 10
29.266978346456693
 20
9.690125963052882
 10
29.266978346456693
 20
9.71512596305288
 10
29.275311679790025
 20
9.723459296386215
 10
29.28781167979003
 20
9.723459296386215
 10
29.29614501312336
 20
9.71512596305288
 10
29.29614501312336
 20
9.690125963052882
  0
LWPOLYLINE
  5
143
330
17
100
AcDbEntity
  8
NUMBERS
100
AcDbPolyline
 90
7
 70
0
 10
29.254478346456693
 20
9.783459296386214
 10
29.24614501312336
 20
9.791792629719549
 10
29.24614501312336
 20
9.808459296386214
 10
29.254478346456693
 20
9.816792629719547
 10
29.262811679790026
 20
9.816792629719547
 10
29.29614501312336
 20
9.783459296386214
 10
29.29614501312336
 20
9.816792629719547
  0
LWPOLYLINE
  5
144
330
17
100
AcDbEntity
  8
NUMBERS
100
AcDbPolyline
 90
2
 70
0
 10
29.29614501312336
 20
9.83012596305288
 10
29.24614501312336
 20
9.863459296386214
  0
LWPOLYLINE
  5
145
330
17
100
AcDbEntity
  8
NUMBERS
100
AcDbPolyline
 90
7
 70
0
 10
29.254478346456693
 20
9.876792629719548
 10
29.24614501312336
 20
9.88512596305288
 10
29.24614501312336
 20
9.901792629719548
 10
29.254478346456693
 20
9.91012596305288
 10
29.262811679790026
 20
9.91012596305288
 10
29.29614501312336
 20
9.876792629719548
 10
29.29614501312336
 20
9.91012596305288
  0
LWPOLYLINE
  5
146
330
17
100
AcDbEntity
  8
NUMBERS
100
AcDbPolyline
 90
6
 70
0
 10
0.6033333333333334
 20
0.28
 10
0.55
 20
0.28
 10
0.55
 20
0.24000000000000002
 10
0.6033333333333334
 20
0.24000000000000002
 10
0.6033333333333334
 20
0.2
 10
0.55
 20
0.2
  0
LWPOLYLINE
  5
147
330
17
100
AcDbEntity
  8
NUMBERS
100
AcDbPolyline
 90
2
 70
0
 10
0.6246666666666667
 20
0.2
 10
0.6246666666666667
 20
0.28
  0
LWPOLYLINE
  5
148
330
17
100
AcDbEntity
  8
NUMBERS
100
AcDbPolyline
 90
2
 70
0
 10
0.678
 20
0.2
 10
0.678
 20
0.28
  0
LWPOLYLINE
  5
149
330
17
100
AcDbEntity
  8
NUMBERS
100
AcDbPolyline
 90
2
 70
0
 10
0.6246666666666667
 20
0.24000000000000002
 10
0.678
 20
0.24000000000000002
  0
LWPOLYLINE
  5
14A
330
17
100
AcDbEntity
  8
NUMBERS
100
AcDbPolyline
 90
4
 70
0
 10
0.7526666666666667
 20
0.28
 10
0.6993333333333334
 20
0.28
 10
0.6993333333333334
 20
0.2
 10
0.7526666666666667
 20
0.2
  0
LWPOLYLINE
  5
14B
330
17
100
AcDbEntity
  8
NUMBERS
100
AcDbPolyline
 90
2
 70
0
 10
0.6993333333333334
 20
0.24000000000000002
 10
0.7393333333333334
 20
0.24000000000000002
  0
LWPOLYLINE
  5
14C
330
17
100
AcDbEntity
  8
NUMBERS
100
AcDbPolyline
 90
4
 70
0
 10
0.8273333333333334
 20
0.28
 10
0.774
 20
0.28
 10
0.774
 20
0.2
 10
0.8273333333333334
 20
0.2
  0
LWPOLYLINE
  5
14D
330
17
100
AcDbEntity
  8
NUMBERS
100
AcDbPolyline
 90
2
 70
0
 10
0.774
 20
0.24000000000000002
 10
0.8140000000000001
 20
0.24000000000000002
  0
LWPOLYLINE
  5
14E
330
17
100
AcDbEntity
  8
NUMBERS
100
AcDbPolyline
 90
2
 70
0
 10
0.8486666666666667
 20
0.28
 10
0.902
 20
0.28
  0
LWPOLYLINE
  5
14F
330
17
100
AcDbEntity
  8
NUMBERS
100
AcDbPolyline
 90
2
 70
0
 10
0.8753333333333333
 20
0.28
 10
0.8753333333333333
 20
0.2
  0
LWPOLYLINE
  5
150
330
17
100
AcDbEntity
  8
NUMBERS
100
AcDbPolyline
 90
2
 70
0
 10
0.9300000000000002
 20
0.24000000000000002
 10
0.9700000000000001
 20
0.24000000000000002
  0
LWPOLYLINE
  5
151
330
17
100
AcDbEntity
  8
NUMBERS
100
AcDbPolyline
 90
5
 70
0
 10
0.998
 20
0.2
 10
1.0513333333333335
 20
0.2
 10
1.0513333333333335
 20
0.28
 10
0.998
 20
0.28
 10
0.998
 20
0.2
  0
LWPOLYLINE
  5
152
330
17
100
AcDbEntity
  8
NUMBERS
100
AcDbPolyline
 90
2
 70
0
 10
0.998
 20
0.2
 10
1.0513333333333335
 20
0.28
  0
LWPOLYLINE
  5
153
330
17
100
AcDbEntity
  8
NUMBERS
100
AcDbPolyline
 90
3
 70
0
 10
1.086
 20
0.2666666666666667
 10
1.0993333333333333
 20
0.28
 10
1.0993333333333333
 20
0.2
  0
LWPOLYLINE
  5
154
330
17
100
AcDbEntity
  8
NUMBERS
100
AcDbPolyline
 90
2
 70
0
 10
1.086
 20
0.2
 10
1.1126666666666667
 20
0.2
  0
LWPOLYLINE
  5
155
330
17
100
AcDbEntity
  8
NUMBERS
100
AcDbPolyline
 90
6
 70
0
 10
1.35
 20
0.28
 10
1.2966666666666669
 20
0.28
 10
1.2966666666666669
 20
0.24000000000000002
 10
1.35
 20
0.24000000000000002
 10
1.35
 20
0.2
 10
1.2966666666666669
 20
0.2
  0
LWPOLYLINE
  5
156
330
17
100
AcDbEntity
  8
NUMBERS
100
AcDbPolyline
 90
2
 70
0
 10
1.384666666666667
 20
0.2
 10
1.4113333333333336
 20
0.2
  0
LWPOLYLINE
  5
157
330
17
100
AcDbEntity
  8
NUMBERS
100
AcDbPolyline
 90
2
 70
0
 10
1.3980000000000001
 20
0.2
 10
1.3980000000000001
 20
0.28
  0
LWPOLYLINE
  5
158
330
17
100
AcDbEntity
  8
NUMBERS
100
AcDbPolyline
 90
2
 70
0
 10
1.384666666666667
 20
0.28
 10
1.4113333333333336
 20
0.28
  0
LWPOLYLINE
  5
159
330
17
100
AcDbEntity
  8
NUMBERS
100
AcDbPolyline
 90
2
 70
0
 10
1.4460000000000002
 20
0.28
 10
1.4993333333333334
 20
0.28
  0
LWPOLYLINE
  5
15A
330
17
100
AcDbEntity
  8
NUMBERS
100
AcDbPolyline
 90
2
 70
0
 10
1.4726666666666668
 20
0.28
 10
1.4726666666666668
 20
0.2
  0
LWPOLYLINE
  5
15B
330
17
100
AcDbEntity
  8
NUMBERS
100
AcDbPolyline
 90
4
 70
0
 10
1.5740000000000003
 20
0.28
 10
1.5206666666666668
 20
0.28
 10
1.5206666666666668
 20
0.2
 10
1.5740000000000003
 20
0.2
  0
LWPOLYLINE
  5
15C
330
17
100
AcDbEntity
  8
NUMBERS
100
AcDbPolyline
 90
2
 70
0
 10
1.5206666666666668
 20
0.24000000000000002
 10
1.5606666666666669
 20
0.24000000000000002
  0
LWPOLYLINE
  5
15D
330
17
100
AcDbEntity
  8
NUMBERS
100
AcDbPolyline
 90
7
 70
0
 10
1.6700000000000002
 20
0.2
 10
1.6700000000000002
 20
0.28
 10
1.7100000000000002
 20
0.28
 10
1.7233333333333336
 20
0.2666666666666667
 10
1.7233333333333336
 20
0.25333333333333335
 10
1.7100000000000002
 20
0.24000000000000002
 10
1.6700000000000002
 20
0.24000000000000002
  0
LWPOLYLINE
  5
15E
330
17
100
AcDbEntity
  8
NUMBERS
100
AcDbPolyline
 90
5
 70
0
 10
1.7100000000000002
 20
0.24000000000000002
 10
1.7233333333333336
 20
0.22666666666666668
 10
1.7233333333333336
 20
0.21333333333333335
 10
1.7100000000000002
 20
0.2
 10
1.6700000000000002
 20
0.2
  0
LWPOLYLINE
  5
15F
330
17
100
AcDbEntity
  8
NUMBERS
100
AcDbPolyline
 90
5
 70
0
 10
1.7446666666666668
 20
0.2
 10
1.7446666666666668
 20
0.25333333333333335
 10
1.7713333333333334
 20
0.28
 10
1.798
 20
0.25333333333333335
 10
1.798
 20
0.2
  0
LWPOLYLINE
  5
160
330
17
100
AcDbEntity
  8
NUMBERS
100
AcDbPolyline
 90
2
 70
0
 10
1.7446666666666668
 20
0.24000000000000002
 10
1.798
 20
0.24000000000000002
  0
LWPOLYLINE
  5
161
330
17
100
AcDbEntity
  8
NUMBERS
100
AcDbPolyline
 90
6
 70
0
 10
1.872666666666667
 20
0.28
 10
1.8193333333333335
 20
0.28
 10
1.8193333333333335
 20
0.24000000000000002
 10
1.872666666666667
 20
0.24000000000000002
 10
1.872666666666667
 20
0.2
 10
1.8193333333333335
 20
0.2
  0
LWPOLYLINE
  5
162
330
17
100
AcDbEntity
  8
NUMBERS
100
AcDbPolyline
 90
4
 70
0
 10
1.9473333333333338
 20
0.28
 10
1.8940000000000003
 20
0.28
 10
1.8940000000000003
 20
0.2
 10
1.9473333333333338
 20
0.2
  0
LWPOLYLINE
  5
163
330
17
100
AcDbEntity
  8
NUMBERS
100
AcDbPolyline
 90
2
 70
0
 10
1.8940000000000003
 20
0.24000000000000002
 10
1.9340000000000004
 20
0.24000000000000002
  0
LWPOLYLINE
  5
164
330
17
100
AcDbEntity
  8
NUMBERS
100
AcDbPolyline
 90
2
 70
0
 10
2.0500000000000007
 20
0.24000000000000002
 10
2.0900000000000007
 20
0.24000000000000002
  0
LWPOLYLINE
  5
165
330
17
100
AcDbEntity
  8
NUMBERS
100
AcDbPolyline
 90
2
 70
0
 10
2.0700000000000007
 20
0.22000000000000003
 10
2.0700000000000007
 20
0.26
  0
LWPOLYLINE
  5
166
330
17
100
AcDbEntity
  8
NUMBERS
100
AcDbPolyline
 90
6
 70
0
 10
2.246
 20
0.28
 10
2.1926666666666668
 20
0.28
 10
2.1926666666666668
 20
0.2
 10
2.246
 20
0.2
 10
2.246
 20
0.24000000000000002
 10
2.2193333333333336
 20
0.24000000000000002
  0
LWPOLYLINE
  5
167
330
17
100
AcDbEntity
  8
NUMBERS
100
AcDbPolyline
 90
3
 70
0
 10
2.3206666666666664
 20
0.28
 10
2.267333333333333
 20
0.28
 10
2.267333333333333
 20
0.2
  0
LWPOLYLINE
  5
168
330
17
100
AcDbEntity
  8
NUMBERS
100
AcDbPolyline
 90
2
 70
0
 10
2.267333333333333
 20
0.24000000000000002
 10
2.3073333333333332
 20
0.24000000000000002
  0
LWPOLYLINE
  5
169
330
17
100
AcDbEntity
  8
NUMBERS
100
AcDbPolyline
 90
6
 70
0
 10
2.47
 20
0.28
 10
2.416666666666667
 20
0.28
 10
2.416666666666667
 20
0.24000000000000002
 10
2.47
 20
0.24000000000000002
 10
2.47
 20
0.2
 10
2.416666666666667
 20
0.2
  0
LWPOLYLINE
  5
16A
330
17
100
AcDbEntity
  8
NUMBERS
100
AcDbPolyline
 90
3
 70
0
 10
2.4913333333333334
 20
0.28
 10
2.4913333333333334
 20
0.2
 10
2.5446666666666666
 20
0.2
  0
LWPOLYLINE
  5
16B
330
17
100
AcDbEntity
  8
NUMBERS
100
AcDbPolyline
 90
5
 70
0
 10
2.5660000000000007
 20
0.2
 10
2.5660000000000007
 20
0.25333333333333335
 10
2.5926666666666676
 20
0.28
 10
2.619333333333334
 20
0.25333333333333335
 10
2.619333333333334
 20
0.2
  0
LWPOLYLINE
  5
16C
330
17
100
AcDbEntity
  8
NUMBERS
100
AcDbPolyline
 90
2
 70
0
 10
2.5660000000000007
 20
0.24000000000000002
 10
2.619333333333334
 20
0.24000000000000002
  0
LWPOLYLINE
  5
16D
330
17
100
AcDbEntity
  8
NUMBERS
100
AcDbPolyline
 90
7
 70
0
 10
2.640666666666667
 20
0.2
 10
2.640666666666667
 20
0.28
 10
2.680666666666667
 20
0.28
 10
2.6940000000000004
 20
0.2666666666666667
 10
2.6940000000000004
 20
0.25333333333333335
 10
2.680666666666667
 20
0.24000000000000002
 10
2.640666666666667
 20
0.24000000000000002
  0
LWPOLYLINE
  5
16E
330
17
100
AcDbEntity
  8
NUMBERS
100
AcDbPolyline
 90
5
 70
0
 10
2.680666666666667
 20
0.24000000000000002
 10
2.6940000000000004
 20
0.22666666666666668
 10
2.6940000000000004
 20
0.21333333333333335
 10
2.680666666666667
 20
0.2
 10
2.640666666666667
 20
0.2
  0
LWPOLYLINE
  5
16F
330
17
100
AcDbEntity
  8
NUMBERS
100
AcDbPolyline
 90
2
 70
0
 10
2.796666666666667
 20
0.24000000000000002
 10
2.836666666666667
 20
0.24000000000000002
  0
LWPOLYLINE
  5
170
330
17
100
AcDbEntity
  8
NUMBERS
100
AcDbPolyline
 90
2
 70
0
 10
2.816666666666667
 20
0.22000000000000003
 10
2.816666666666667
 20
0.26
  0
LWPOLYLINE
  5
171
330
17
100
AcDbEntity
  8
NUMBERS
100
AcDbPolyline
 90
5
 70
0
 10
2.939333333333334
 20
0.2
 10
2.939333333333334
 20
0.28
 10
2.992666666666667
 20
0.28
 10
2.992666666666667
 20
0.24000000000000002
 10
2.939333333333334
 20
0.24000000000000002
  0
LWPOLYLINE
  5
172
330
17
100
AcDbEntity
  8
NUMBERS
100
AcDbPolyline
 90
5
 70
0
 10
3.0140000000000002
 20
0.2
 10
3.0673333333333335
 20
0.2
 10
3.0673333333333335
 20
0.28
 10
3.0140000000000002
 20
0.28
 10
3.0140000000000002
 20
0.2
  0
LWPOLYLINE
  5
173
330
17
100
AcDbEntity
  8
NUMBERS
100
AcDbPolyline
 90
5
 70
0
 10
3.0886666666666667
 20
0.2
 10
3.142
 20
0.2
 10
3.142
 20
0.28
 10
3.0886666666666667
 20
0.28
 10
3.0886666666666667
 20
0.2
  0
LWPOLYLINE
  5
174
330
17
100
AcDbEntity
  8
NUMBERS
100
AcDbPolyline
 90
3
 70
0
 10
3.163333333333334
 20
0.28
 10
3.163333333333334
 20
0.2
 10
3.2166666666666672
 20
0.2
  0
LWPOLYLINE
  5
175
330
17
100
AcDbEntity
  8
NUMBERS
100
AcDbPolyline
 90
4
 70
0
 10
3.352666666666667
 20
0.28
 10
3.332666666666667
 20
0.26
 10
3.332666666666667
 20
0.22000000000000003
 10
3.352666666666667
 20
0.2
  0
LWPOLYLINE
  5
176
330
17
100
AcDbEntity
  8
NUMBERS
100
AcDbPolyline
 90
2
 70
0
 10
3.3873333333333333
 20
0.2
 10
3.3873333333333333
 20
0.28
  0
LWPOLYLINE
  5
177
330
17
100
AcDbEntity
  8
NUMBERS
100
AcDbPolyline
 90
2
 70
0
 10
3.4406666666666665
 20
0.28
 10
3.3873333333333333
 20
0.23333333333333334
  0
LWPOLYLINE
  5
178
330
17
100
AcDbEntity
  8
NUMBERS
100
AcDbPolyline
 90
2
 70
0
 10
3.4046666666666665
 20
0.2466666666666667
 10
3.4406666666666665
 20
0.2
  0
LWPOLYLINE
  5
179
330
17
100
AcDbEntity
  8
NUMBERS
100
AcDbPolyline
 90
2
 70
0
 10
3.475333333333334
 20
0.2
 10
3.5020000000000007
 20
0.2
  0
LWPOLYLINE
  5
17A
330
17
100
AcDbEntity
  8
NUMBERS
100
AcDbPolyline
 90
2
 70
0
 10
3.4886666666666675
 20
0.2
 10
3.4886666666666675
 20
0.28
  0
LWPOLYLINE
  5
17B
330
17
100
AcDbEntity
  8
NUMBERS
100
AcDbPolyline
 90
2
 70
0
 10
3.475333333333334
 20
0.28
 10
3.5020000000000007
 20
0.28
  0
LWPOLYLINE
  5
17C
330
17
100
AcDbEntity
  8
NUMBERS
100
AcDbPolyline
 90
2
 70
0
 10
3.536666666666667
 20
0.28
 10
3.5900000000000003
 20
0.28
  0
LWPOLYLINE
  5
17D
330
17
100
AcDbEntity
  8
NUMBERS
100
AcDbPolyline
 90
2
 70
0
 10
3.563333333333334
 20
0.28
 10
3.563333333333334
 20
0.2
  0
LWPOLYLINE
  5
17E
330
17
100
AcDbEntity
  8
NUMBERS
100
AcDbPolyline
 90
5
 70
0
 10
3.686000000000001
 20
0.2
 10
3.739333333333334
 20
0.2
 10
3.739333333333334
 20
0.28
 10
3.686000000000001
 20
0.28
 10
3.686000000000001
 20
0.2
  0
LWPOLYLINE
  5
17F
330
17
100
AcDbEntity
  8
NUMBERS
100
AcDbPolyline
 90
2
 70
0
 10
3.686000000000001
 20
0.2
 10
3.739333333333334
 20
0.28
  0
LWPOLYLINE
  5
180
330
17
100
AcDbEntity
  8
NUMBERS
100
AcDbPolyline
 90
3
 70
0
 10
3.7740000000000005
 20
0.2666666666666667
 10
3.787333333333334
 20
0.28
 10
3.787333333333334
 20
0.2
  0
LWPOLYLINE
  5
181
330
17
100
AcDbEntity
  8
NUMBERS
100
AcDbPolyline
 90
2
 70
0
 10
3.7740000000000005
 20
0.2
 10
3.8006666666666673
 20
0.2
  0
LWPOLYLINE
  5
182
330
17
100
AcDbEntity
  8
NUMBERS
100
AcDbPolyline
 90
2
 70
0
 10
3.864666666666667
 20
0.20533333333333334
 10
3.856666666666667
 20
0.18666666666666668
  0
LWPOLYLINE
  5
183
330
17
100
AcDbEntity
  8
NUMBERS
100
AcDbPolyline
 90
5
 70
0
 10
3.9846666666666666
 20
0.2
 10
4.038
 20
0.2
 10
4.038
 20
0.28
 10
3.9846666666666666
 20
0.28
 10
3.9846666666666666
 20
0.2
  0
LWPOLYLINE
  5
184
330
17
100
AcDbEntity
  8
NUMBERS
100
AcDbPolyline
 90
2
 70
0
 10
3.9846666666666666
 20
0.2
 10
4.038
 20
0.28
  0
LWPOLYLINE
  5
185
330
17
100
AcDbEntity
  8
NUMBERS
100
AcDbPolyline
 90
3
 70
0
 10
4.059333333333334
 20
0.28
 10
4.112666666666668
 20
0.28
 10
4.0726666666666675
 20
0.2
  0
LWPOLYLINE
  5
186
330
17
100
AcDbEntity
  8
NUMBERS
100
AcDbPolyline
 90
4
 70
0
 10
4.147333333333334
 20
0.28
 10
4.167333333333334
 20
0.26
 10
4.167333333333334
 20
0.22000000000000003
 10
4.147333333333334
 20
0.2
  0
LWPOLYLINE
  5
187
330
17
100
AcDbEntity
  8
NUMBERS
100
AcDbPolyline
 90
4
 70
0
 10
4.323333333333334
 20
0.28
 10
4.303333333333334
 20
0.26
 10
4.303333333333334
 20
0.22000000000000003
 10
4.323333333333334
 20
0.2
  0
LWPOLYLINE
  5
188
330
17
100
AcDbEntity
  8
NUMBERS
100
AcDbPolyline
 90
3
 70
0
 10
4.371333333333334
 20
0.2666666666666667
 10
4.384666666666667
 20
0.28
 10
4.384666666666667
 20
0.2
  0
LWPOLYLINE
  5
189
330
17
100
AcDbEntity
  8
NUMBERS
100
AcDbPolyline
 90
2
 70
0
 10
4.371333333333334
 20
0.2
 10
4.398000000000001
 20
0.2
  0
LWPOLYLINE
  5
18A
330
17
100
AcDbEntity
  8
NUMBERS
100
AcDbPolyline
 90
5
 70
0
 10
4.507333333333333
 20
0.2
 10
4.560666666666667
 20
0.2
 10
4.560666666666667
 20
0.28
 10
4.507333333333333
 20
0.28
 10
4.507333333333333
 20
0.2
  0
LWPOLYLINE
  5
18B
330
17
100
AcDbEntity
  8
NUMBERS
100
AcDbPolyline
 90
3
 70
0
 10
4.635333333333334
 20
0.28
 10
4.582000000000001
 20
0.28
 10
4.582000000000001
 20
0.2
  0
LWPOLYLINE
  5
18C
330
17
100
AcDbEntity
  8
NUMBERS
100
AcDbPolyline
 90
2
 70
0
 10
4.582000000000001
 20
0.24000000000000002
 10
4.622000000000001
 20
0.24000000000000002
  0
LWPOLYLINE
  5
18D
330
17
100
AcDbEntity
  8
NUMBERS
100
AcDbPolyline
 90
7
 70
0
 10
4.731333333333334
 20
0.2666666666666667
 10
4.744666666666667
 20
0.28
 10
4.771333333333334
 20
0.28
 10
4.784666666666667
 20
0.2666666666666667
 10
4.784666666666667
 20
0.25333333333333335
 10
4.731333333333334
 20
0.2
 10
4.784666666666667
 20
0.2
  0
LWPOLYLINE
  5
18E
330
17
100
AcDbEntity
  8
NUMBERS
100
AcDbPolyline
 90
4
 70
0
 10
4.819333333333335
 20
0.28
 10
4.839333333333334
 20
0.26
 10
4.839333333333334
 20
0.22000000000000003
 10
4.819333333333335
 20
0.2
  0
LWPOLYLINE
  5
18F
330
17
100
AcDbEntity
  8
NUMBERS
100
AcDbPolyline
 90
6
 70
0
 10
5.158
 20
0.28
 10
5.104666666666667
 20
0.28
 10
5.104666666666667
 20
0.24000000000000002
 10
5.158
 20
0.24000000000000002
 10
5.158
 20
0.2
 10
5.104666666666667
 20
0.2
  0
LWPOLYLINE
  5
190
330
17
100
AcDbEntity
  8
NUMBERS
100
AcDbPolyline
 90
4
 70
0
 10
5.232666666666668
 20
0.28
 10
5.179333333333334
 20
0.28
 10
5.179333333333334
 20
0.2
 10
5.232666666666668
 20
0.2
  0
LWPOLYLINE
  5
191
330
17
100
AcDbEntity
  8
NUMBERS
100
AcDbPolyline
 90
5
 70
0
 10
5.2540000000000004
 20
0.2
 10
5.2540000000000004
 20
0.25333333333333335
 10
5.280666666666667
 20
0.28
 10
5.307333333333334
 20
0.25333333333333335
 10
5.307333333333334
 20
0.2
  0
LWPOLYLINE
  5
192
330
17
100
AcDbEntity
  8
NUMBERS
100
AcDbPolyline
 90
2
 70
0
 10
5.2540000000000004
 20
0.24000000000000002
 10
5.307333333333334
 20
0.24000000000000002
  0
LWPOLYLINE
  5
193
330
17
100
AcDbEntity
  8
NUMBERS
100
AcDbPolyline
 90
3
 70
0
 10
5.328666666666667
 20
0.28
 10
5.328666666666667
 20
0.2
 10
5.382000000000001
 20
0.2
  0
LWPOLYLINE
  5
194
330
17
100
AcDbEntity
  8
NUMBERS
100
AcDbPolyline
 90
4
 70
0
 10
5.456666666666668
 20
0.28
 10
5.403333333333334
 20
0.28
 10
5.403333333333334
 20
0.2
 10
5.456666666666668
 20
0.2
  0
LWPOLYLINE
  5
195
330
17
100
AcDbEntity
  8
NUMBERS
100
AcDbPolyline
 90
2
 70
0
 10
5.403333333333334
 20
0.24000000000000002
 10
5.443333333333334
 20
0.24000000000000002
  0
LWPOLYLINE
  5
196
330
17
100
AcDbEntity
  8
NUMBERS
100
AcDbPolyline
 90
3
 70
0
 10
5.566000000000001
 20
0.2666666666666667
 10
5.5793333333333335
 20
0.28
 10
5.5793333333333335
 20
0.2
  0
LWPOLYLINE
  5
197
330
17
100
AcDbEntity
  8
NUMBERS
100
AcDbPolyline
 90
2
 70
0
 10
5.566000000000001
 20
0.2
 10
5.592666666666667
 20
0.2
  0
LWPOLYLINE
  5
198
330
17
100
AcDbEntity
  8
NUMBERS
100
AcDbPolyline
 90
2
 70
0
 10
5.6513333333333335
 20
0.21333333333333335
 10
5.656666666666667
 20
0.21333333333333335
  0
LWPOLYLINE
  5
199
330
17
100
AcDbEntity
  8
NUMBERS
100
AcDbPolyline
 90
2
 70
0
 10
5.6513333333333335
 20
0.25333333333333335
 10
5.656666666666667
 20
0.25333333333333335
  0
LWPOLYLINE
  5
19A
330
17
100
AcDbEntity
  8
NUMBERS
100
AcDbPolyline
 90
3
 70
0
 10
5.7153333333333345
 20
0.2666666666666667
 10
5.728666666666667
 20
0.28
 10
5.728666666666667
 20
0.2
  0
LWPOLYLINE
  5
19B
330
17
100
AcDbEntity
  8
NUMBERS
100
AcDbPolyline
 90
2
 70
0
 10
5.7153333333333345
 20
0.2
 10
5.742000000000001
 20
0.2
  0
LWPOLYLINE
  5
19C
330
17
100
AcDbEntity
  8
NUMBERS
100
AcDbPolyline
 90
7
 70
0
 10
5.776666666666667
 20
0.2
 10
5.816666666666667
 20
0.2
 10
5.830000000000001
 20
0.21333333333333335
 10
5.830000000000001
 20
0.28
 10
5.776666666666667
 20
0.28
 10
5.776666666666667
 20
0.24000000000000002
 10
5.830000000000001
 20
0.24000000000000002
  0
LWPOLYLINE
  5
19D
330
17
100
AcDbEntity
  8
NUMBERS
100
AcDbPolyline
 90
7
 70
0
 10
5.851333333333334
 20
0.2666666666666667
 10
5.864666666666667
 20
0.28
 10
5.891333333333334
 20
0.28
 10
5.904666666666667
 20
0.2666666666666667
 10
5.904666666666667
 20
0.25333333333333335
 10
5.851333333333334
 20
0.2
 10
5.904666666666667
 20
0.2
  0
LWPOLYLINE
  5
19E
330
17
100
AcDbEntity
  8
NUMBERS
100
AcDbPolyline
 90
4
 70
0
 10
6.040666666666667
 20
0.28
 10
6.020666666666666
 20
0.26
 10
6.020666666666666
 20
0.22000000000000003
 10
6.040666666666667
 20
0.2
  0
LWPOLYLINE
  5
19F
330
17
100
AcDbEntity
  8
NUMBERS
100
AcDbPolyline
 90
3
 70
0
 10
6.088666666666668
 20
0.2666666666666667
 10
6.102
 20
0.28
 10
6.102
 20
0.2
  0
LWPOLYLINE
  5
1A0
330
17
100
AcDbEntity
  8
NUMBERS
100
AcDbPolyline
 90
2
 70
0
 10
6.088666666666668
 20
0.2
 10
6.115333333333334
 20
0.2
  0
LWPOLYLINE
  5
1A1
330
17
100
AcDbEntity
  8
NUMBERS
100
AcDbPolyline
 90
2
 70
0
 10
6.150000000000001
 20
0.2
 10
6.203333333333335
 20
0.28
  0
LWPOLYLINE
  5
1A2
330
17
100
AcDbEntity
  8
NUMBERS
100
AcDbPolyline
 90
3
 70
0
 10
6.238
 20
0.2666666666666667
 10
6.251333333333333
 20
0.28
 10
6.251333333333333
 20
0.2
  0
LWPOLYLINE
  5
1A3
330
17
100
AcDbEntity
  8
NUMBERS
100
AcDbPolyline
 90
2
 70
0
 10
6.238
 20
0.2
 10
6.264666666666667
 20
0.2
  0
LWPOLYLINE
  5
1A4
330
17
100
AcDbEntity
  8
NUMBERS
100
AcDbPolyline
 90
7
 70
0
 10
6.352666666666668
 20
0.28
 10
6.312666666666668
 20
0.28
 10
6.299333333333334
 20
0.2666666666666667
 10
6.299333333333334
 20
0.2
 10
6.352666666666668
 20
0.2
 10
6.352666666666668
 20
0.24000000000000002
 10
6.299333333333334
 20
0.24000000000000002
  0
LWPOLYLINE
  5
1A5
330
17
100
AcDbEntity
  8
NUMBERS
100
AcDbPolyline
 90
2
 70
0
 10
6.462000000000001
 20
0.2
 10
6.488666666666667
 20
0.2
  0
LWPOLYLINE
  5
1A6
330
17
100
AcDbEntity
  8
NUMBERS
100
AcDbPolyline
 90
2
 70
0
 10
6.475333333333333
 20
0.2
 10
6.475333333333333
 20
0.28
  0
LWPOLYLINE
  5
1A7
330
17
100
AcDbEntity
  8
NUMBERS
100
AcDbPolyline
 90
2
 70
0
 10
6.462000000000001
 20
0.28
 10
6.488666666666667
 20
0.28
  0
LWPOLYLINE
  5
1A8
330
17
100
AcDbEntity
  8
NUMBERS
100
AcDbPolyline
 90
4
 70
0
 10
6.523333333333334
 20
0.2
 10
6.523333333333334
 20
0.28
 10
6.576666666666668
 20
0.2
 10
6.576666666666668
 20
0.28
  0
LWPOLYLINE
  5
1A9
330
17
100
AcDbEntity
  8
NUMBERS
100
AcDbPolyline
 90
2
 70
0
 10
6.679333333333334
 20
0.22666666666666668
 10
6.719333333333334
 20
0.22666666666666668
  0
LWPOLYLINE
  5
1AA
330
17
100
AcDbEntity
  8
NUMBERS
100
AcDbPolyline
 90
2
 70
0
 10
6.679333333333334
 20
0.25333333333333335
 10
6.719333333333334
 20
0.25333333333333335
  0
LWPOLYLINE
  5
1AB
330
17
100
AcDbEntity
  8
NUMBERS
100
AcDbPolyline
 90
3
 70
0
 10
6.835333333333335
 20
0.2666666666666667
 10
6.848666666666667
 20
0.28
 10
6.848666666666667
 20
0.2
  0
LWPOLYLINE
  5
1AC
330
17
100
AcDbEntity
  8
NUMBERS
100
AcDbPolyline
 90
2
 70
0
 10
6.835333333333335
 20
0.2
 10
6.862000000000001
 20
0.2
  0
LWPOLYLINE
  5
1AD
330
17
100
AcDbEntity
  8
NUMBERS
100
AcDbPolyline
 90
3
 70
0
 10
7.0246666666666675
 20
0.28
 10
6.971333333333334
 20
0.28
 10
6.971333333333334
 20
0.2
  0
LWPOLYLINE
  5
1AE
330
17
100
AcDbEntity
  8
NUMBERS
100
AcDbPolyline
 90
2
 70
0
 10
6.971333333333334
 20
0.24000000000000002
 10
7.011333333333334
 20
0.24000000000000002
  0
LWPOLYLINE
  5
1AF
330
17
100
AcDbEntity
  8
NUMBERS
100
AcDbPolyline
 90
2
 70
0
 10
7.046000000000001
 20
0.28
 10
7.099333333333335
 20
0.28
  0
LWPOLYLINE
  5
1B0
330
17
100
AcDbEntity
  8
NUMBERS
100
AcDbPolyline
 90
2
 70
0
 10
7.0726666666666675
 20
0.28
 10
7.0726666666666675
 20
0.2
  0
LWPOLYLINE
  5
1B1
330
17
100
AcDbEntity
  8
NUMBERS
100
AcDbPolyline
 90
4
 70
0
 10
7.134000000000001
 20
0.28
 10
7.154000000000001
 20
0.26
 10
7.154000000000001
 20
0.22000000000000003
 10
7.134000000000001
 20
0.2
  0
LWPOLYLINE
  5
1B2
330
17
100
AcDbEntity
  8
NUMBERS
100
AcDbPolyline
 90
5
 70
0
 10
7.419333333333333
 20
0.2
 10
7.419333333333333
 20
0.28
 10
7.446
 20
0.24000000000000002
 10
7.472666666666667
 20
0.28
 10
7.472666666666667
 20
0.2
  0
LWPOLYLINE
  5
1B3
330
17
100
AcDbEntity
  8
NUMBERS
100
AcDbPolyline
 90
5
 70
0
 10
7.494000000000001
 20
0.2
 10
7.494000000000001
 20
0.25333333333333335
 10
7.520666666666667
 20
0.28
 10
7.547333333333334
 20
0.25333333333333335
 10
7.547333333333334
 20
0.2
  0
LWPOLYLINE
  5
1B4
330
17
100
AcDbEntity
  8
NUMBERS
100
AcDbPolyline
 90
2
 70
0
 10
7.494000000000001
 20
0.24000000000000002
 10
7.547333333333334
 20
0.24000000000000002
  0
LWPOLYLINE
  5
1B5
330
17
100
AcDbEntity
  8
NUMBERS
100
AcDbPolyline
 90
2
 70
0
 10
7.568666666666668
 20
0.28
 10
7.622000000000002
 20
0.28
  0
LWPOLYLINE
  5
1B6
330
17
100
AcDbEntity
  8
NUMBERS
100
AcDbPolyline
 90
2
 70
0
 10
7.595333333333334
 20
0.28
 10
7.595333333333334
 20
0.2
  0
LWPOLYLINE
  5
1B7
330
17
100
AcDbEntity
  8
NUMBERS
100
AcDbPolyline
 90
4
 70
0
 10
7.696666666666668
 20
0.28
 10
7.643333333333334
 20
0.28
 10
7.643333333333334
 20
0.2
 10
7.696666666666668
 20
0.2
  0
LWPOLYLINE
  5
1B8
330
17
100
AcDbEntity
  8
NUMBERS
100
AcDbPolyline
 90
2
 70
0
 10
7.643333333333334
 20
0.24000000000000002
 10
7.6833333333333345
 20
0.24000000000000002
  0
LWPOLYLINE
  5
1B9
330
17
100
AcDbEntity
  8
NUMBERS
100
AcDbPolyline
 90
6
 70
0
 10
7.718
 20
0.2
 10
7.718
 20
0.28
 10
7.771333333333334
 20
0.28
 10
7.771333333333334
 20
0.24000000000000002
 10
7.718
 20
0.24000000000000002
 10
7.771333333333334
 20
0.2
  0
LWPOLYLINE
  5
1BA
330
17
100
AcDbEntity
  8
NUMBERS
100
AcDbPolyline
 90
2
 70
0
 10
7.806000000000001
 20
0.2
 10
7.832666666666667
 20
0.2
  0
LWPOLYLINE
  5
1BB
330
17
100
AcDbEntity
  8
NUMBERS
100
AcDbPolyline
 90
2
 70
0
 10
7.819333333333334
 20
0.2
 10
7.819333333333334
 20
0.28
  0
LWPOLYLINE
  5
1BC
330
17
100
AcDbEntity
  8
NUMBERS
100
AcDbPolyline
 90
2
 70
0
 10
7.806000000000001
 20
0.28
 10
7.832666666666667
 20
0.28
  0
LWPOLYLINE
  5
1BD
330
17
100
AcDbEntity
  8
NUMBERS
100
AcDbPolyline
 90
5
 70
0
 10
7.867333333333334
 20
0.2
 10
7.867333333333334
 20
0.25333333333333335
 10
7.894
 20
0.28
 10
7.920666666666667
 20
0.25333333333333335
 10
7.920666666666667
 20
0.2
  0
LWPOLYLINE
  5
1BE
330
17
100
AcDbEntity
  8
NUMBERS
100
AcDbPolyline
 90
2
 70
0
 10
7.867333333333334
 20
0.24000000000000002
 10
7.920666666666667
 20
0.24000000000000002
  0
LWPOLYLINE
  5
1BF
330
17
100
AcDbEntity
  8
NUMBERS
100
AcDbPolyline
 90
3
 70
0
 10
7.942000000000001
 20
0.28
 10
7.942000000000001
 20
0.2
 10
7.995333333333335
 20
0.2
  0
LWPOLYLINE
  5
1C0
330
17
100
AcDbEntity
  8
NUMBERS
100
AcDbPolyline
 90
3
 70
0
 10
8.104666666666667
 20
0.2666666666666667
 10
8.118
 20
0.28
 10
8.118
 20
0.2
  0
LWPOLYLINE
  5
1C1
330
17
100
AcDbEntity
  8
NUMBERS
100
AcDbPolyline
 90
2
 70
0
 10
8.104666666666667
 20
0.2
 10
8.131333333333332
 20
0.2
  0
LWPOLYLINE
  5
1C2
330
17
100
AcDbEntity
  8
NUMBERS
100
AcDbPolyline
 90
2
 70
0
 10
8.166
 20
0.2
 10
8.219333333333333
 20
0.28
  0
LWPOLYLINE
  5
1C3
330
17
100
AcDbEntity
  8
NUMBERS
100
AcDbPolyline
 90
3
 70
0
 10
8.254000000000001
 20
0.2666666666666667
 10
8.267333333333335
 20
0.28
 10
8.267333333333335
 20
0.2
  0
LWPOLYLINE
  5
1C4
330
17
100
AcDbEntity
  8
NUMBERS
100
AcDbPolyline
 90
2
 70
0
 10
8.254000000000001
 20
0.2
 10
8.280666666666667
 20
0.2
  0
LWPOLYLINE
  5
1C5
330
17
100
AcDbEntity
  8
NUMBERS
100
AcDbPolyline
 90
7
 70
0
 10
8.368666666666668
 20
0.28
 10
8.328666666666669
 20
0.28
 10
8.315333333333335
 20
0.2666666666666667
 10
8.315333333333335
 20
0.2
 10
8.368666666666668
 20
0.2
 10
8.368666666666668
 20
0.24000000000000002
 10
8.315333333333335
 20
0.24000000000000002
  0
LWPOLYLINE
  5
1C6
330
17
100
AcDbEntity
  8
NUMBERS
100
AcDbPolyline
 90
2
 70
0
 10
8.478000000000002
 20
0.2
 10
8.504666666666667
 20
0.2
  0
LWPOLYLINE
  5
1C7
330
17
100
AcDbEntity
  8
NUMBERS
100
AcDbPolyline
 90
2
 70
0
 10
8.491333333333335
 20
0.2
 10
8.491333333333335
 20
0.28
  0
LWPOLYLINE
  5
1C8
330
17
100
AcDbEntity
  8
NUMBERS
100
AcDbPolyline
 90
2
 70
0
 10
8.478000000000002
 20
0.28
 10
8.504666666666667
 20
0.28
  0
LWPOLYLINE
  5
1C9
330
17
100
AcDbEntity
  8
NUMBERS
100
AcDbPolyline
 90
4
 70
0
 10
8.539333333333333
 20
0.2
 10
8.539333333333333
 20
0.28
 10
8.592666666666666
 20
0.2
 10
8.592666666666666
 20
0.28
  0
LWPOLYLINE
  5
1CA
330
17
100
AcDbEntity
  8
NUMBERS
100
AcDbPolyline
 90
4
 70
0
 10
8.742
 20
0.28
 10
8.688666666666668
 20
0.28
 10
8.688666666666668
 20
0.2
 10
8.742
 20
0.2
  0
LWPOLYLINE
  5
1CB
330
17
100
AcDbEntity
  8
NUMBERS
100
AcDbPolyline
 90
2
 70
0
 10
8.763333333333335
 20
0.2
 10
8.763333333333335
 20
0.28
  0
LWPOLYLINE
  5
1CC
330
17
100
AcDbEntity
  8
NUMBERS
100
AcDbPolyline
 90
2
 70
0
 10
8.816666666666668
 20
0.2
 10
8.816666666666668
 20
0.28
  0
LWPOLYLINE
  5
1CD
330
17
100
AcDbEntity
  8
NUMBERS
100
AcDbPolyline
 90
2
 70
0
 10
8.763333333333335
 20
0.24000000000000002
 10
8.816666666666668
 20
0.24000000000000002
  0
LWPOLYLINE
  5
1CE
330
17
100
AcDbEntity
  8
NUMBERS
100
AcDbPolyline
 90
2
 70
0
 10
8.851333333333335
 20
0.2
 10
8.878
 20
0.2
  0
LWPOLYLINE
  5
1CF
330
17
100
AcDbEntity
  8
NUMBERS
100
AcDbPolyline
 90
2
 70
0
 10
8.864666666666668
 20
0.2
 10
8.864666666666668
 20
0.28
  0
LWPOLYLINE
  5
1D0
330
17
100
AcDbEntity
  8
NUMBERS
100
AcDbPolyline
 90
2
 70
0
 10
8.851333333333335
 20
0.28
 10
8.878
 20
0.28
  0
LWPOLYLINE
  5
1D1
330
17
100
AcDbEntity
  8
NUMBERS
100
AcDbPolyline
 90
5
 70
0
 10
8.912666666666668
 20
0.2
 10
8.912666666666668
 20
0.28
 10
8.966000000000001
 20
0.28
 10
8.966000000000001
 20
0.24000000000000002
 10
8.912666666666668
 20
0.24000000000000002
  0
LWPOLYLINE
  5
1D2
330
17
100
AcDbEntity
  8
NUMBERS
100
AcDbPolyline
 90
7
 70
0
 10
8.987333333333336
 20
0.2
 10
8.987333333333336
 20
0.28
 10
9.027333333333335
 20
0.28
 10
9.040666666666668
 20
0.2666666666666667
 10
9.040666666666668
 20
0.25333333333333335
 10
9.027333333333335
 20
0.24000000000000002
 10
8.987333333333336
 20
0.24000000000000002
  0
LWPOLYLINE
  5
1D3
330
17
100
AcDbEntity
  8
NUMBERS
100
AcDbPolyline
 90
5
 70
0
 10
9.027333333333335
 20
0.24000000000000002
 10
9.040666666666668
 20
0.22666666666666668
 10
9.040666666666668
 20
0.21333333333333335
 10
9.027333333333335
 20
0.2
 10
8.987333333333336
 20
0.2
  0
LWPOLYLINE
  5
1D4
330
17
100
AcDbEntity
  8
NUMBERS
100
AcDbPolyline
 90
5
 70
0
 10
9.062000000000003
 20
0.2
 10
9.115333333333336
 20
0.2
 10
9.115333333333336
 20
0.28
 10
9.062000000000003
 20
0.28
 10
9.062000000000003
 20
0.2
  0
LWPOLYLINE
  5
1D5
330
17
100
AcDbEntity
  8
NUMBERS
100
AcDbPolyline
 90
5
 70
0
 10
9.136666666666668
 20
0.2
 10
9.136666666666668
 20
0.25333333333333335
 10
9.163333333333336
 20
0.28
 10
9.190000000000001
 20
0.25333333333333335
 10
9.190000000000001
 20
0.2
  0
LWPOLYLINE
  5
1D6
330
17
100
AcDbEntity
  8
NUMBERS
100
AcDbPolyline
 90
2
 70
0
 10
9.136666666666668
 20
0.24000000000000002
 10
9.190000000000001
 20
0.24000000000000002
  0
LWPOLYLINE
  5
1D7
330
17
100
AcDbEntity
  8
NUMBERS
100
AcDbPolyline
 90
6
 70
0
 10
9.211333333333334
 20
0.2
 10
9.211333333333334
 20
0.28
 10
9.264666666666667
 20
0.28
 10
9.264666666666667
 20
0.24000000000000002
 10
9.211333333333334
 20
0.24000000000000002
 10
9.264666666666667
 20
0.2
  0
LWPOLYLINE
  5
1D8
330
17
100
AcDbEntity
  8
NUMBERS
100
AcDbPolyline
 90
7
 70
0
 10
9.286000000000001
 20
0.2
 10
9.286000000000001
 20
0.28
 10
9.319333333333335
 20
0.28
 10
9.339333333333334
 20
0.26
 10
9.339333333333334
 20
0.22000000000000003
 10
9.319333333333335
 20
0.2
 10
9.286000000000001
 20
0.2
  0
LWPOLYLINE
  5
1D9
330
17
100
AcDbEntity
  8
NUMBERS
100
AcDbPolyline
 90
2
 70
0
 10
9.510000000000002
 20
0.28
 10
9.563333333333334
 20
0.28
  0
LWPOLYLINE
  5
1DA
330
17
100
AcDbEntity
  8
NUMBERS
100
AcDbPolyline
 90
2
 70
0
 10
9.536666666666669
 20
0.28
 10
9.536666666666669
 20
0.2
  0
LWPOLYLINE
  5
1DB
330
17
100
AcDbEntity
  8
NUMBERS
100
AcDbPolyline
 90
2
 70
0
 10
9.591333333333333
 20
0.22666666666666668
 10
9.631333333333334
 20
0.22666666666666668
  0
LWPOLYLINE
  5
1DC
330
17
100
AcDbEntity
  8
NUMBERS
100
AcDbPolyline
 90
2
 70
0
 10
9.591333333333333
 20
0.25333333333333335
 10
9.631333333333334
 20
0.25333333333333335
  0
LWPOLYLINE
  5
1DD
330
17
100
AcDbEntity
  8
NUMBERS
100
AcDbPolyline
 90
5
 70
0
 10
9.659333333333334
 20
0.2
 10
9.712666666666667
 20
0.2
 10
9.712666666666667
 20
0.28
 10
9.659333333333334
 20
0.28
 10
9.659333333333334
 20
0.2
  0
LWPOLYLINE
  5
1DE
330
17
100
AcDbEntity
  8
NUMBERS
100
AcDbPolyline
 90
2
 70
0
 10
9.659333333333334
 20
0.2
 10
9.712666666666667
 20
0.28
  0
LWPOLYLINE
  5
1DF
330
17
100
AcDbEntity
  8
NUMBERS
100
AcDbPolyline
 90
5
 70
0
 10
9.758000000000001
 20
0.2
 10
9.763333333333335
 20
0.2
 10
9.763333333333335
 20
0.20533333333333334
 10
9.758000000000001
 20
0.20533333333333334
 10
9.758000000000001
 20
0.2
  0
LWPOLYLINE
  5
1E0
330
17
100
AcDbEntity
  8
NUMBERS
100
AcDbPolyline
 90
5
 70
0
 10
9.808666666666669
 20
0.2
 10
9.862000000000002
 20
0.2
 10
9.862000000000002
 20
0.28
 10
9.808666666666669
 20
0.28
 10
9.808666666666669
 20
0.2
  0
LWPOLYLINE
  5
1E1
330
17
100
AcDbEntity
  8
NUMBERS
100
AcDbPolyline
 90
2
 70
0
 10
9.808666666666669
 20
0.2
 10
9.862000000000002
 20
0.28
  0
LWPOLYLINE
  5
1E2
330
17
100
AcDbEntity
  8
NUMBERS
100
AcDbPolyline
 90
7
 70
0
 10
9.93666666666667
 20
0.28
 10
9.89666666666667
 20
0.28
 10
9.883333333333336
 20
0.2666666666666667
 10
9.883333333333336
 20
0.2
 10
9.93666666666667
 20
0.2
 10
9.93666666666667
 20
0.24000000000000002
 10
9.883333333333336
 20
0.24000000000000002
  0
LWPOLYLINE
  5
1E3
330
17
100
AcDbEntity
  8
NUMBERS
100
AcDbPolyline
 90
7
 70
0
 10
9.958000000000002
 20
0.2666666666666667
 10
9.971333333333336
 20
0.28
 10
9.998000000000001
 20
0.28
 10
10.011333333333335
 20
0.2666666666666667
 10
10.011333333333335
 20
0.25333333333333335
 10
9.958000000000002
 20
0.2
 10
10.011333333333335
 20
0.2
  0
LWPOLYLINE
  5
1E4
330
17
100
AcDbEntity
  8
NUMBERS
100
AcDbPolyline
 90
8
 70
0
 10
10.086
 20
0.28
 10
10.032666666666668
 20
0.28
 10
10.032666666666668
 20
0.2466666666666667
 10
10.072666666666667
 20
0.2466666666666667
 10
10.086
 20
0.23333333333333334
 10
10.086
 20
0.21333333333333335
 10
10.072666666666667
 20
0.2
 10
10.032666666666668
 20
0.2
  0
LWPOLYLINE
  5
1E5
330
17
100
AcDbEntity
  8
NUMBERS
100
AcDbPolyline
 90
2
 70
0
 10
10.195333333333336
 20
0.2
 10
10.222000000000001
 20
0.2
  0
LWPOLYLINE
  5
1E6
330
17
100
AcDbEntity
  8
NUMBERS
100
AcDbPolyline
 90
2
 70
0
 10
10.20866666666667
 20
0.2
 10
10.20866666666667
 20
0.28
  0
LWPOLYLINE
  5
1E7
330
17
100
AcDbEntity
  8
NUMBERS
100
AcDbPolyline
 90
2
 70
0
 10
10.195333333333336
 20
0.28
 10
10.222000000000001
 20
0.28
  0
LWPOLYLINE
  5
1E8
330
17
100
AcDbEntity
  8
NUMBERS
100
AcDbPolyline
 90
4
 70
0
 10
10.25666666666667
 20
0.2
 10
10.25666666666667
 20
0.28
 10
10.310000000000002
 20
0.2
 10
10.310000000000002
 20
0.28
  0
LWPOLYLINE
  5
1E9
330
17
100
AcDbEntity
  8
NUMBERS
100
AcDbPolyline
 90
2
 70
0
 10
10.555333333333335
 20
0.2
 10
10.555333333333335
 20
0.28
  0
LWPOLYLINE
  5
1EA
330
17
100
AcDbEntity
  8
NUMBERS
100
AcDbPolyline
 90
2
 70
0
 10
10.608666666666668
 20
0.28
 10
10.555333333333335
 20
0.23333333333333334
  0
LWPOLYLINE
  5
1EB
330
17
100
AcDbEntity
  8
NUMBERS
100
AcDbPolyline
 90
2
 70
0
 10
10.572666666666668
 20
0.2466666666666667
 10
10.608666666666668
 20
0.2
  0
LWPOLYLINE
  5
1EC
330
17
100
AcDbEntity
  8
NUMBERS
100
AcDbPolyline
 90
4
 70
0
 10
10.683333333333335
 20
0.28
 10
10.630000000000003
 20
0.28
 10
10.630000000000003
 20
0.2
 10
10.683333333333335
 20
0.2
  0
LWPOLYLINE
  5
1ED
330
17
100
AcDbEntity
  8
NUMBERS
100
AcDbPolyline
 90
2
 70
0
 10
10.630000000000003
 20
0.24000000000000002
 10
10.670000000000002
 20
0.24000000000000002
  0
LWPOLYLINE
  5
1EE
330
17
100
AcDbEntity
  8
NUMBERS
100
AcDbPolyline
 90
6
 70
0
 10
10.704666666666668
 20
0.2
 10
10.704666666666668
 20
0.28
 10
10.758000000000001
 20
0.28
 10
10.758000000000001
 20
0.24000000000000002
 10
10.704666666666668
 20
0.24000000000000002
 10
10.758000000000001
 20
0.2
  0
LWPOLYLINE
  5
1EF
330
17
100
AcDbEntity
  8
NUMBERS
100
AcDbPolyline
 90
3
 70
0
 10
10.832666666666668
 20
0.28
 10
10.779333333333335
 20
0.28
 10
10.779333333333335
 20
0.2
  0
LWPOLYLINE
  5
1F0
330
17
100
AcDbEntity
  8
NUMBERS
100
AcDbPolyline
 90
2
 70
0
 10
10.779333333333335
 20
0.24000000000000002
 10
10.819333333333335
 20
0.24000000000000002
  0
LWPOLYLINE
  5
1F1
330
17
100
AcDbEntity
  8
NUMBERS
100
AcDbPolyline
 90
2
 70
0
 10
10.860666666666669
 20
0.22666666666666668
 10
10.90066666666667
 20
0.22666666666666668
  0
LWPOLYLINE
  5
1F2
330
17
100
AcDbEntity
  8
NUMBERS
100
AcDbPolyline
 90
2
 70
0
 10
10.860666666666669
 20
0.25333333333333335
 10
10.90066666666667
 20
0.25333333333333335
  0
LWPOLYLINE
  5
1F3
330
17
100
AcDbEntity
  8
NUMBERS
100
AcDbPolyline
 90
5
 70
0
 10
10.928666666666668
 20
0.2
 10
10.982000000000001
 20
0.2
 10
10.982000000000001
 20
0.28
 10
10.928666666666668
 20
0.28
 10
10.928666666666668
 20
0.2
  0
LWPOLYLINE
  5
1F4
330
17
100
AcDbEntity
  8
NUMBERS
100
AcDbPolyline
 90
2
 70
0
 10
10.928666666666668
 20
0.2
 10
10.982000000000001
 20
0.28
  0
LWPOLYLINE
  5
1F5
330
17
100
AcDbEntity
  8
NUMBERS
100
AcDbPolyline
 90
5
 70
0
 10
11.027333333333335
 20
0.2
 10
11.03266666666667
 20
0.2
 10
11.03266666666667
 20
0.20533333333333334
 10
11.027333333333335
 20
0.20533333333333334
 10
11.027333333333335
 20
0.2
  0
LWPOLYLINE
  5
1F6
330
17
100
AcDbEntity
  8
NUMBERS
100
AcDbPolyline
 90
5
 70
0
 10
11.078000000000001
 20
0.2
 10
11.131333333333334
 20
0.2
 10
11.131333333333334
 20
0.28
 10
11.078000000000001
 20
0.28
 10
11.078000000000001
 20
0.2
  0
LWPOLYLINE
  5
1F7
330
17
100
AcDbEntity
  8
NUMBERS
100
AcDbPolyline
 90
2
 70
0
 10
11.078000000000001
 20
0.2
 10
11.131333333333334
 20
0.28
  0
LWPOLYLINE
  5
1F8
330
17
100
AcDbEntity
  8
NUMBERS
100
AcDbPolyline
 90
5
 70
0
 10
11.152666666666669
 20
0.2
 10
11.206000000000001
 20
0.2
 10
11.206000000000001
 20
0.28
 10
11.152666666666669
 20
0.28
 10
11.152666666666669
 20
0.2
  0
LWPOLYLINE
  5
1F9
330
17
100
AcDbEntity
  8
NUMBERS
100
AcDbPolyline
 90
2
 70
0
 10
11.152666666666669
 20
0.2
 10
11.206000000000001
 20
0.28
  0
LWPOLYLINE
  5
1FA
330
17
100
AcDbEntity
  8
NUMBERS
100
AcDbPolyline
 90
5
 70
0
 10
11.227333333333336
 20
0.2
 10
11.280666666666669
 20
0.2
 10
11.280666666666669
 20
0.28
 10
11.227333333333336
 20
0.28
 10
11.227333333333336
 20
0.2
  0
LWPOLYLINE
  5
1FB
330
17
100
AcDbEntity
  8
NUMBERS
100
AcDbPolyline
 90
2
 70
0
 10
11.227333333333336
 20
0.2
 10
11.280666666666669
 20
0.28
  0
LWPOLYLINE
  5
1FC
330
17
100
AcDbEntity
  8
NUMBERS
100
AcDbPolyline
 90
5
 70
0
 10
11.302000000000003
 20
0.2
 10
11.355333333333336
 20
0.2
 10
11.355333333333336
 20
0.28
 10
11.302000000000003
 20
0.28
 10
11.302000000000003
 20
0.2
  0
LWPOLYLINE
  5
1FD
330
17
100
AcDbEntity
  8
NUMBERS
100
AcDbPolyline
 90
2
 70
0
 10
11.302000000000003
 20
0.2
 10
11.355333333333336
 20
0.28
  0
LWPOLYLINE
  5
1FE
330
17
100
AcDbEntity
  8
NUMBERS
100
AcDbPolyline
 90
2
 70
0
 10
11.464666666666668
 20
0.2
 10
11.491333333333333
 20
0.2
  0
LWPOLYLINE
  5
1FF
330
17
100
AcDbEntity
  8
NUMBERS
100
AcDbPolyline
 90
2
 70
0
 10
11.478000000000002
 20
0.2
 10
11.478000000000002
 20
0.28
  0
LWPOLYLINE
  5
200
330
17
100
AcDbEntity
  8
NUMBERS
100
AcDbPolyline
 90
2
 70
0
 10
11.464666666666668
 20
0.28
 10
11.491333333333333
 20
0.28
  0
LWPOLYLINE
  5
201
330
17
100
AcDbEntity
  8
NUMBERS
100
AcDbPolyline
 90
4
 70
0
 10
11.526000000000002
 20
0.2
 10
11.526000000000002
 20
0.28
 10
11.579333333333334
 20
0.2
 10
11.579333333333334
 20
0.28
  0
LWPOLYLINE
  5
202
330
17
100
AcDbEntity
  8
NUMBERS
100
AcDbPolyline
 90
4
 70
0
 10
11.715333333333335
 20
0.28
 10
11.695333333333336
 20
0.26
 10
11.695333333333336
 20
0.22000000000000003
 10
11.715333333333335
 20
0.2
  0
LWPOLYLINE
  5
203
330
17
100
AcDbEntity
  8
NUMBERS
100
AcDbPolyline
 90
4
 70
0
 10
11.750000000000004
 20
0.28
 10
11.750000000000004
 20
0.2
 10
11.803333333333336
 20
0.2
 10
11.803333333333336
 20
0.28
  0
LWPOLYLINE
  5
204
330
17
100
AcDbEntity
  8
NUMBERS
100
AcDbPolyline
 90
6
 70
0
 10
11.878000000000002
 20
0.28
 10
11.824666666666669
 20
0.28
 10
11.824666666666669
 20
0.24000000000000002
 10
11.878000000000002
 20
0.24000000000000002
 10
11.878000000000002
 20
0.2
 10
11.824666666666669
 20
0.2
  0
LWPOLYLINE
  5
205
330
17
100
AcDbEntity
  8
NUMBERS
100
AcDbPolyline
 90
4
 70
0
 10
11.952666666666667
 20
0.28
 10
11.899333333333335
 20
0.28
 10
11.899333333333335
 20
0.2
 10
11.952666666666667
 20
0.2
  0
LWPOLYLINE
  5
206
330
17
100
AcDbEntity
  8
NUMBERS
100
AcDbPolyline
 90
2
 70
0
 10
11.899333333333335
 20
0.24000000000000002
 10
11.939333333333334
 20
0.24000000000000002
  0
LWPOLYLINE
  5
207
330
17
100
AcDbEntity
  8
NUMBERS
100
AcDbPolyline
 90
6
 70
0
 10
11.974000000000002
 20
0.2
 10
11.974000000000002
 20
0.28
 10
12.027333333333335
 20
0.28
 10
12.027333333333335
 20
0.24000000000000002
 10
11.974000000000002
 20
0.24000000000000002
 10
12.027333333333335
 20
0.2
  0
LWPOLYLINE
  5
208
330
17
100
AcDbEntity
  8
NUMBERS
100
AcDbPolyline
 90
5
 70
0
 10
12.123333333333337
 20
0.2
 10
12.123333333333337
 20
0.25333333333333335
 10
12.150000000000004
 20
0.28
 10
12.17666666666667
 20
0.25333333333333335
 10
12.17666666666667
 20
0.2
  0
LWPOLYLINE
  5
209
330
17
100
AcDbEntity
  8
NUMBERS
100
AcDbPolyline
 90
2
 70
0
 10
12.123333333333337
 20
0.24000000000000002
 10
12.17666666666667
 20
0.24000000000000002
  0
LWPOLYLINE
  5
20A
330
17
100
AcDbEntity
  8
NUMBERS
100
AcDbPolyline
 90
7
 70
0
 10
12.198000000000002
 20
0.2
 10
12.198000000000002
 20
0.28
 10
12.231333333333335
 20
0.28
 10
12.251333333333335
 20
0.26
 10
12.251333333333335
 20
0.22000000000000003
 10
12.231333333333335
 20
0.2
 10
12.198000000000002
 20
0.2
  0
LWPOLYLINE
  5
20B
330
17
100
AcDbEntity
  8
NUMBERS
100
AcDbPolyline
 90
5
 70
0
 10
12.326000000000002
 20
0.28
 10
12.326000000000002
 20
0.21333333333333335
 10
12.312666666666669
 20
0.2
 10
12.286000000000003
 20
0.2
 10
12.27266666666667
 20
0.21333333333333335
  0
LWPOLYLINE
  5
20C
330
17
100
AcDbEntity
  8
NUMBERS
100
AcDbPolyline
 90
4
 70
0
 10
12.347333333333335
 20
0.28
 10
12.347333333333335
 20
0.2
 10
12.400666666666668
 20
0.2
 10
12.400666666666668
 20
0.28
  0
LWPOLYLINE
  5
20D
330
17
100
AcDbEntity
  8
NUMBERS
100
AcDbPolyline
 90
6
 70
0
 10
12.475333333333335
 20
0.28
 10
12.422000000000002
 20
0.28
 10
12.422000000000002
 20
0.24000000000000002
 10
12.475333333333335
 20
0.24000000000000002
 10
12.475333333333335
 20
0.2
 10
12.422000000000002
 20
0.2
  0
LWPOLYLINE
  5
20E
330
17
100
AcDbEntity
  8
NUMBERS
100
AcDbPolyline
 90
2
 70
0
 10
12.49666666666667
 20
0.28
 10
12.550000000000002
 20
0.28
  0
LWPOLYLINE
  5
20F
330
17
100
AcDbEntity
  8
NUMBERS
100
AcDbPolyline
 90
2
 70
0
 10
12.523333333333337
 20
0.28
 10
12.523333333333337
 20
0.2
  0
LWPOLYLINE
  5
210
330
17
100
AcDbEntity
  8
NUMBERS
100
AcDbPolyline
 90
5
 70
0
 10
12.571333333333335
 20
0.2
 10
12.571333333333335
 20
0.25333333333333335
 10
12.598000000000003
 20
0.28
 10
12.624666666666668
 20
0.25333333333333335
 10
12.624666666666668
 20
0.2
  0
LWPOLYLINE
  5
211
330
17
100
AcDbEntity
  8
NUMBERS
100
AcDbPolyline
 90
2
 70
0
 10
12.571333333333335
 20
0.24000000000000002
 10
12.624666666666668
 20
0.24000000000000002
  0
LWPOLYLINE
  5
212
330
17
100
AcDbEntity
  8
NUMBERS
100
AcDbPolyline
 90
7
 70
0
 10
12.646000000000003
 20
0.2
 10
12.646000000000003
 20
0.28
 10
12.686000000000002
 20
0.28
 10
12.699333333333335
 20
0.2666666666666667
 10
12.699333333333335
 20
0.25333333333333335
 10
12.686000000000002
 20
0.24000000000000002
 10
12.646000000000003
 20
0.24000000000000002
  0
LWPOLYLINE
  5
213
330
17
100
AcDbEntity
  8
NUMBERS
100
AcDbPolyline
 90
5
 70
0
 10
12.686000000000002
 20
0.24000000000000002
 10
12.699333333333335
 20
0.22666666666666668
 10
12.699333333333335
 20
0.21333333333333335
 10
12.686000000000002
 20
0.2
 10
12.646000000000003
 20
0.2
  0
LWPOLYLINE
  5
214
330
17
100
AcDbEntity
  8
NUMBERS
100
AcDbPolyline
 90
3
 70
0
 10
12.72066666666667
 20
0.28
 10
12.72066666666667
 20
0.2
 10
12.774000000000003
 20
0.2
  0
LWPOLYLINE
  5
215
330
17
100
AcDbEntity
  8
NUMBERS
100
AcDbPolyline
 90
4
 70
0
 10
12.848666666666668
 20
0.28
 10
12.795333333333335
 20
0.28
 10
12.795333333333335
 20
0.2
 10
12.848666666666668
 20
0.2
  0
LWPOLYLINE
  5
216
330
17
100
AcDbEntity
  8
NUMBERS
100
AcDbPolyline
 90
2
 70
0
 10
12.795333333333335
 20
0.24000000000000002
 10
12.835333333333335
 20
0.24000000000000002
  0
LWPOLYLINE
  5
217
330
17
100
AcDbEntity
  8
NUMBERS
100
AcDbPolyline
 90
4
 70
0
 10
12.883333333333335
 20
0.28
 10
12.903333333333334
 20
0.26
 10
12.903333333333334
 20
0.22000000000000003
 10
12.883333333333335
 20
0.2
  0
LWPOLYLINE
  5
218
330
17
100
AcDbEntity
  8
NUMBERS
100
AcDbPolyline
 90
7
 70
0
 10
13.16866666666667
 20
0.28
 10
13.222000000000003
 20
0.28
 10
13.195333333333338
 20
0.2466666666666667
 10
13.222000000000003
 20
0.23333333333333334
 10
13.222000000000003
 20
0.21333333333333335
 10
13.20866666666667
 20
0.2
 10
13.16866666666667
 20
0.2
  0
LWPOLYLINE
  5
219
330
17
100
AcDbEntity
  8
NUMBERS
100
AcDbPolyline
 90
5
 70
0
 10
13.243333333333336
 20
0.2
 10
13.296666666666669
 20
0.2
 10
13.296666666666669
 20
0.28
 10
13.243333333333336
 20
0.28
 10
13.243333333333336
 20
0.2
  0
LWPOLYLINE
  5
21A
330
17
100
AcDbEntity
  8
NUMBERS
100
AcDbPolyline
 90
2
 70
0
 10
13.243333333333336
 20
0.2
 10
13.296666666666669
 20
0.28
  0
LWPOLYLINE
  5
21B
330
17
100
AcDbEntity
  8
NUMBERS
100
AcDbPolyline
 90
2
 70
0
 10
13.392666666666669
 20
0.2
 10
13.446000000000002
 20
0.28
  0
LWPOLYLINE
  5
21C
330
17
100
AcDbEntity
  8
NUMBERS
100
AcDbPolyline
 90
2
 70
0
 10
13.392666666666669
 20
0.28
 10
13.446000000000002
 20
0.2
  0
LWPOLYLINE
  5
21D
330
17
100
AcDbEntity
  8
NUMBERS
100
AcDbPolyline
 90
7
 70
0
 10
13.542000000000003
 20
0.2666666666666667
 10
13.555333333333337
 20
0.28
 10
13.582000000000003
 20
0.28
 10
13.595333333333336
 20
0.2666666666666667
 10
13.595333333333336
 20
0.25333333333333335
 10
13.542000000000003
 20
0.2
 10
13.595333333333336
 20
0.2
  0
LWPOLYLINE
  5
21E
330
17
100
AcDbEntity
  8
NUMBERS
100
AcDbPolyline
 90
5
 70
0
 10
13.616666666666669
 20
0.2
 10
13.670000000000002
 20
0.2
 10
13.670000000000002
 20
0.28
 10
13.616666666666669
 20
0.28
 10
13.616666666666669
 20
0.2
  0
LWPOLYLINE
  5
21F
330
17
100
AcDbEntity
  8
NUMBERS
100
AcDbPolyline
 90
2
 70
0
 10
13.616666666666669
 20
0.2
 10
13.670000000000002
 20
0.28
  0
LWPOLYLINE
  5
220
330
17
100
AcDbEntity
  8
NUMBERS
100
AcDbPolyline
 90
2
 70
0
 10
13.779333333333335
 20
0.2
 10
13.806000000000001
 20
0.2
  0
LWPOLYLINE
  5
221
330
17
100
AcDbEntity
  8
NUMBERS
100
AcDbPolyline
 90
2
 70
0
 10
13.792666666666669
 20
0.2
 10
13.792666666666669
 20
0.28
  0
LWPOLYLINE
  5
222
330
17
100
AcDbEntity
  8
NUMBERS
100
AcDbPolyline
 90
2
 70
0
 10
13.779333333333335
 20
0.28
 10
13.806000000000001
 20
0.28
  0
LWPOLYLINE
  5
223
330
17
100
AcDbEntity
  8
NUMBERS
100
AcDbPolyline
 90
4
 70
0
 10
13.84066666666667
 20
0.2
 10
13.84066666666667
 20
0.28
 10
13.894000000000002
 20
0.2
 10
13.894000000000002
 20
0.28
  0
LWPOLYLINE
  5
224
330
17
100
AcDbEntity
  8
NUMBERS
100
AcDbPolyline
 90
2
 70
0
 10
0.32999999999999996
 20
19.759999999999998
 10
0.3833333333333333
 20
19.759999999999998
  0
LWPOLYLINE
  5
225
330
17
100
AcDbEntity
  8
NUMBERS
100
AcDbPolyline
 90
2
 70
0
 10
0.35666666666666663
 20
19.759999999999998
 10
0.35666666666666663
 20
19.68
  0
LWPOLYLINE
  5
226
330
17
100
AcDbEntity
  8
NUMBERS
100
AcDbPolyline
 90
5
 70
0
 10
0.4046666666666666
 20
19.68
 10
0.45799999999999996
 20
19.68
 10
0.45799999999999996
 20
19.759999999999998
 10
0.4046666666666666
 20
19.759999999999998
 10
0.4046666666666666
 20
19.68
  0
LWPOLYLINE
  5
227
330
17
100
AcDbEntity
  8
NUMBERS
100
AcDbPolyline
 90
5
 70
0
 10
0.4793333333333333
 20
19.68
 10
0.4793333333333333
 20
19.759999999999998
 10
0.5326666666666666
 20
19.759999999999998
 10
0.5326666666666666
 20
19.72
 10
0.4793333333333333
 20
19.72
  0
LWPOLYLINE
  5
228
330
17
100
AcDbEntity
  8
NUMBERS
100
AcDbPolyline
 90
6
 70
0
 10
0.682
 20
19.759999999999998
 10
0.6286666666666667
 20
19.759999999999998
 10
0.6286666666666667
 20
19.72
 10
0.682
 20
19.72
 10
0.682
 20
19.68
 10
0.6286666666666667
 20
19.68
  0
LWPOLYLINE
  5
229
330
17
100
AcDbEntity
  8
NUMBERS
100
AcDbPolyline
 90
2
 70
0
 10
0.7033333333333334
 20
19.68
 10
0.7033333333333334
 20
19.759999999999998
  0
LWPOLYLINE
  5
22A
330
17
100
AcDbEntity
  8
NUMBERS
100
AcDbPolyline
 90
2
 70
0
 10
0.7566666666666667
 20
19.68
 10
0.7566666666666667
 20
19.759999999999998
  0
LWPOLYLINE
  5
22B
330
17
100
AcDbEntity
  8
NUMBERS
100
AcDbPolyline
 90
2
 70
0
 10
0.7033333333333334
 20
19.72
 10
0.7566666666666667
 20
19.72
  0
LWPOLYLINE
  5
22C
330
17
100
AcDbEntity
  8
NUMBERS
100
AcDbPolyline
 90
4
 70
0
 10
0.8313333333333334
 20
19.759999999999998
 10
0.778
 20
19.759999999999998
 10
0.778
 20
19.68
 10
0.8313333333333334
 20
19.68
  0
LWPOLYLINE
  5
22D
330
17
100
AcDbEntity
  8
NUMBERS
100
AcDbPolyline
 90
2
 70
0
 10
0.778
 20
19.72
 10
0.8180000000000001
 20
19.72
  0
LWPOLYLINE
  5
22E
330
17
100
AcDbEntity
  8
NUMBERS
100
AcDbPolyline
 90
4
 70
0
 10
0.906
 20
19.759999999999998
 10
0.8526666666666667
 20
19.759999999999998
 10
0.8526666666666667
 20
19.68
 10
0.906
 20
19.68
  0
LWPOLYLINE
  5
22F
330
17
100
AcDbEntity
  8
NUMBERS
100
AcDbPolyline
 90
2
 70
0
 10
0.8526666666666667
 20
19.72
 10
0.8926666666666667
 20
19.72
  0
LWPOLYLINE
  5
230
330
17
100
AcDbEntity
  8
NUMBERS
100
AcDbPolyline
 90
2
 70
0
 10
0.9273333333333333
 20
19.759999999999998
 10
0.9806666666666667
 20
19.759999999999998
  0
LWPOLYLINE
  5
231
330
17
100
AcDbEntity
  8
NUMBERS
100
AcDbPolyline
 90
2
 70
0
 10
0.954
 20
19.759999999999998
 10
0.954
 20
19.68
  0
LWPOLYLINE
  5
232
330
17
100
AcDbEntity
  8
NUMBERS
100
AcDbPolyline
 90
2
 70
0
 10
1.0086666666666668
 20
19.72
 10
1.0486666666666669
 20
19.72
  0
LWPOLYLINE
  5
233
330
17
100
AcDbEntity
  8
NUMBERS
100
AcDbPolyline
 90
5
 70
0
 10
1.0766666666666667
 20
19.68
 10
1.13
 20
19.68
 10
1.13
 20
19.759999999999998
 10
1.0766666666666667
 20
19.759999999999998
 10
1.0766666666666667
 20
19.68
  0
LWPOLYLINE
  5
234
330
17
100
AcDbEntity
  8
NUMBERS
100
AcDbPolyline
 90
2
 70
0
 10
1.0766666666666667
 20
19.68
 10
1.13
 20
19.759999999999998
  0
LWPOLYLINE
  5
235
330
17
100
AcDbEntity
  8
NUMBERS
100
AcDbPolyline
 90
3
 70
0
 10
1.164666666666667
 20
19.746666666666666
 10
1.1780000000000002
 20
19.759999999999998
 10
1.1780000000000002
 20
19.68
  0
LWPOLYLINE
  5
236
330
17
100
AcDbEntity
  8
NUMBERS
100
AcDbPolyline
 90
2
 70
0
 10
1.164666666666667
 20
19.68
 10
1.1913333333333336
 20
19.68
  0
LWPOLYLINE
  5
237
330
17
100
AcDbEntity
  8
BOUNDARY
100
AcDbPolyline
 90
4
 70
1
 10
30.0
 20
0.0
 10
30.0
 20
20.0
 10
0.0
 20
20.0
 10
0.0
 20
0.0
  0
LWPOLYLINE
  5
238
330
17
100
AcDbEntity
  8
BOUNDARY
100
AcDbPolyline
 90
4
 70
1
 10
29.5
 20
0.5
 10
29.5
 20
19.5
 10
0.5
 20
19.5
 10
0.5
 20
0.5
  0
ENDSEC
  0
SECTION
  2
OBJECTS
  0
DICTIONARY
  5
A
330
0
100
AcDbDictionary
281
1
  3
ACAD_COLOR
350
B
  3
ACAD_GROUP
350
C
  3
ACAD_LAYOUT
350
D
  3
ACAD_MATERIAL
350
E
  3
ACAD_MLEADERSTYLE
350
F
  3
ACAD_MLINESTYLE
350
10
  3
ACAD_PLOTSETTINGS
350
11
  3
ACAD_PLOTSTYLENAME
350
12
  3
ACAD_SCALELIST
350
14
  3
ACAD_TABLESTYLE
350
15
  3
ACAD_VISUALSTYLE
350
16
  3
EZDXF_META
350
2D
  0
DICTIONARY
  5
B
330
A
100
AcDbDictionary
281
1
  0
DICTIONARY
  5
C
330
A
100
AcDbDictionary
281
1
  0
DICTIONARY
  5
D
330
A
100
AcDbDictionary
281
1
  3
Model
350
1A
  3
Layout1
350
1E
  0
DICTIONARY
  5
E
330
A
100
AcDbDictionary
281
1
  3
ByBlock
350
1F
  3
ByLayer
350
20
  3
Global
350
21
  0
DICTIONARY
  5
F
330
A
100
AcDbDictionary
281
1
  3
Standard
350
2C
  0
DICTIONARY
  5
10
330
A
100
AcDbDictionary
281
1
  3
Standard
350
22
  0
DICTIONARY
  5
11
330
A
100
AcDbDictionary
281
1
  0
ACDBDICTIONARYWDFLT
  5
12
330
A
100
AcDbDictionary
281
1
  3
Normal
350
13
100
AcDbDictionaryWithDefault
340
13
  0
ACDBPLACEHOLDER
  5
13
330
12
  0
DICTIONARY
  5
14
330
A
100
AcDbDictionary
281
1
  0
DICTIONARY
  5
15
330
A
100
AcDbDictionary
281
1
  0
DICTIONARY
  5
16
330
A
100
AcDbDictionary
281
1
  0
LAYOUT
  5
1A
330
D
100
AcDbPlotSettings
  1

  4
A3
  6

 40
7.5
 41
20.0
 42
7.5
 43
20.0
 44
420.0
 45
297.0
 46
0.0
 47
0.0
 48
0.0
 49
0.0
140
0.0
141
0.0
142
1.0
143
1.0
 70
1024
 72
1
 73
0
 74
5
  7

 75
16
 76
0
 77
2
 78
300
147
1.0
148
0.0
149
0.0
100
AcDbLayout
  1
Model
 70
1
 71
0
 10
0.0
 20
0.0
 11
420.0
 21
297.0
 12
0.0
 22
0.0
 32
0.0
 14
1e+20
 24
1e+20
 34
1e+20
 15
-1e+20
 25
-1e+20
 35
-1e+20
146
0.0
 13
0.0
 23
0.0
 33
0.0
 16
1.0
 26
0.0
 36
0.0
 17
0.0
 27
1.0
 37
0.0
 76
1
330
17
  0
LAYOUT
  5
1E
330
D
100
AcDbPlotSettings
  1

  4
A3
  6

 40
7.5
 41
20.0
 42
7.5
 43
20.0
 44
420.0
 45
297.0
 46
0.0
 47
0.0
 48
0.0
 49
0.0
140
0.0
141
0.0
142
1.0
143
1.0
 70
0
 72
1
 73
0
 74
5
  7

 75
16
 76
0
 77
2
 78
300
147
1.0
148
0.0
149
0.0
100
AcDbLayout
  1
Layout1
 70
1
 71
1
 10
0.0
 20
0.0
 11
420.0
 21
297.0
 12
0.0
 22
0.0
 32
0.0
 14
1e+20
 24
1e+20
 34
1e+20
 15
-1e+20
 25
-1e+20
 35
-1e+20
146
0.0
 13
0.0
 23
0.0
 33
0.0
 16
1.0
 26
0.0
 36
0.0
 17
0.0
 27
1.0
 37
0.0
 76
1
330
1B
  0
MATERIAL
  5
1F
102
{ACAD_REACTORS
330
E
102
}
330
E
100
AcDbMaterial
  1
ByBlock
  2

 70
0
 40
1.0
 71
1
 41
1.0
 91
-1023410177
 42
1.0
 72
1
  3

 73
1
 74
1
 75
1
 44
0.5
 73
0
 45
1.0
 46
1.0
 77
1
  4

 78
1
 79
1
170
1
 48
1.0
171
1
  6

172
1
173
1
174
1
140
1.0
141
1.0
175
1
  7

176
1
177
1
178
1
143
1.0
179
1
  8

270
1
271
1
272
1
145
1.0
146
1.0
273
1
  9

274
1
275
1
276
1
 42
1.0
 72
1
  3

 73
1
 74
1
 75
1
 94
63
  0
MATERIAL
  5
20
102
{ACAD_REACTORS
330
E
102
}
330
E
100
AcDbMaterial
  1
ByLayer
  2

 70
0
 40
1.0
 71
1
 41
1.0
 91
-1023410177
 42
1.0
 72
1
  3

 73
1
 74
1
 75
1
 44
0.5
 73
0
 45
1.0
 46
1.0
 77
1
  4

 78
1
 79
1
170
1
 48
1.0
171
1
  6

172
1
173
1
174
1
140
1.0
141
1.0
175
1
  7

176
1
177
1
178
1
143
1.0
179
1
  8

270
1
271
1
272
1
145
1.0
146
1.0
273
1
  9

274
1
275
1
276
1
 42
1.0
 72
1
  3

 73
1
 74
1
 75
1
 94
63
  0
MATERIAL
  5
21
102
{ACAD_REACTORS
330
E
102
}
330
E
100
AcDbMaterial
  1
Global
  2

 70
0
 40
1.0
 71
1
 41
1.0
 91
-1023410177
 42
1.0
 72
1
  3

 73
1
 74
1
 75
1
 44
0.5
 73
0
 45
1.0
 46
1.0
 77
1
  4

 78
1
 79
1
170
1
 48
1.0
171
1
  6

172
1
173
1
174
1
140
1.0
141
1.0
175
1
  7

176
1
177
1
178
1
143
1.0
179
1
  8

270
1
271
1
272
1
145
1.0
146
1.0
273
1
  9

274
1
275
1
276
1
 42
1.0
 72
1
  3

 73
1
 74
1
 75
1
 94
63
  0
MLINESTYLE
  5
22
102
{ACAD_REACTORS
330
10
102
}
330
10
100
AcDbMlineStyle
  2
Standard
 70
0
  3

 62
256
 51
90.0
 52
90.0
 71
2
 49
0.5
 62
256
  6
BYLAYER
 49
-0.5
 62
256
  6
BYLAYER
  0
MLEADERSTYLE
  5
2C
102
{ACAD_REACTORS
330
F
102
}
330
F
100
AcDbMLeaderStyle
179
2
170
2
171
1
172
0
 90
2
 40
0.0
 41
0.0
173
1
 91
-1056964608
 92
-2
290
1
 42
2.0
291
1
 43
8.0
  3
Standard
 44
4.0
300

342
29
174
1
175
1
176
0
178
1
 93
-1056964608
 45
4.0
292
0
297
0
 46
4.0
 94
-1056964608
 47
1.0
 49
1.0
140
1.0
294
1
141
0.0
177
0
142
1.0
295
0
296
0
143
3.75
271
0
272
9
273
9
  0
DICTIONARY
  5
2D
330
A
100
AcDbDictionary
280
1
281
1
  3
CREATED_BY_EZDXF
350
2E
  3
WRITTEN_BY_EZDXF
350
23B
  0
DICTIONARYVAR
  5
2E
330
2D
100
DictionaryVariables
280
0
  1
1.4.4 @ 2026-10-05T22:04:54.941795+00:00
  0
DICTIONARYVAR
  5
23B
330
2D
100
DictionaryVariables
280
0
  1
1.4.4 @ 2026-10-05T22:04:54.969606+00:00
  0
ENDSEC
  0
EOF
