  0
SECTION
  2
HEADER
  9
$ACADVER
  1
AC1027
  9
$ACADMAINTVER
 70
105
  9
$DWGCODEPAGE
  3
ANSI_1252
  9
$LASTSAVEDBY
  1
ezdxf
  9
$REQUIREDVERSIONS
160
0
  9
$INSBASE
 10
0.0
 20
0.0
 30
0.0
  9
$EXTMIN
 10
1e+20
 20
1e+20
 30
1e+20
  9
$EXTMAX
 10
-1e+20
 20
-1e+20
 30
-1e+20
  9
$LIMMIN
 10
0.0
 20
0.0
  9
$LIMMAX
 10
420.0
 20
297.0
  9
$ORTHOMODE
 70
0
  9
$REGENMODE
 70
1
  9
$FILLMODE
 70
1
  9
$QTEXTMODE
 70
0
  9
$MIRRTEXT
 70
1
  9
$LTSCALE
 40
1.0
  9
$ATTMODE
 70
1
  9
$TEXTSIZE
 40
2.5
  9
$TRACEWID
 40
1.0
  9
$TEXTSTYLE
  7
Standard
  9
$CLAYER
  8
0
  9
$CELTYPE
  6
ByLayer
  9
$CECOLOR
 62
256
  9
$CELTSCALE
 40
1.0
  9
$DISPSILH
 70
0
  9
$DIMSCALE
 40
1.0
  9
$DIMASZ
 40
2.5
  9
$DIMEXO
 40
0.625
  9
$DIMDLI
 40
3.75
  9
$DIMRND
 40
0.0
  9
$DIMDLE
 40
0.0
  9
$DIMEXE
 40
1.25
  9
$DIMTP
 40
0.0
  9
$DIMTM
 40
0.0
  9
$DIMTXT
 40
2.5
  9
$DIMCEN
 40
2.5
  9
$DIMTSZ
 40
0.0
  9
$DIMTOL
 70
0
  9
$DIMLIM
 70
0
  9
$DIMTIH
 70
0
  9
$DIMTOH
 70
0
  9
$DIMSE1
 70
0
  9
$DIMSE2
 70
0
  9
$DIMTAD
 70
1
  9
$DIMZIN
 70
8
  9
$DIMBLK
  1

  9
$DIMASO
 70
1
  9
$DIMSHO
 70
1
  9
$DIMPOST
  1

  9
$DIMAPOST
  1

  9
$DIMALT
 70
0
  9
$DIMALTD
 70
3
  9
$DIMALTF
 40
0.03937007874
  9
$DIMLFAC
 40
1.0
  9
$DIMTOFL
 70
1
  9
$DIMTVP
 40
0.0
  9
$DIMTIX
 70
0
  9
$DIMSOXD
 70
0
  9
$DIMSAH
 70
0
  9
$DIMBLK1
  1

  9
$DIMBLK2
  1

  9
$DIMSTYLE
  2
ISO-25
  9
$DIMCLRD
 70
0
  9
$DIMCLRE
 70
0
  9
$DIMCLRT
 70
0
  9
$DIMTFAC
 40
1.0
  9
$DIMGAP
 40
0.625
  9
$DIMJUST
 70
0
  9
$DIMSD1
 70
0
  9
$DIMSD2
 70
0
  9
$DIMTOLJ
 70
0
  9
$DIMTZIN
 70
8
  9
$DIMALTZ
 70
0
  9
$DIMALTTZ
 70
0
  9
$DIMUPT
 70
0
  9
$DIMDEC
 70
2
  9
$DIMTDEC
 70
2
  9
$DIMALTU
 70
2
  9
$DIMALTTD
 70
3
  9
$DIMTXSTY
  7
Standard
  9
$DIMAUNIT
 70
0
  9
$DIMADEC
 70
0
  9
$DIMALTRND
 40
0.0
  9
$DIMAZIN
 70
0
  9
$DIMDSEP
 70
44
  9
$DIMATFIT
 70
3
  9
$DIMFRAC
 70
0
  9
$DIMLDRBLK
  1

  9
$DIMLUNIT
 70
2
  9
$DIMLWD
 70
-2
  9
$DIMLWE
 70
-2
  9
$DIMTMOVE
 70
0
  9
$DIMFXL
 40
1.0
  9
$DIMFXLON
 70
0
  9
$DIMJOGANG
 40
0.785398163397
  9
$DIMTFILL
 70
0
  9
$DIMTFILLCLR
 70
0
  9
$DIMARCSYM
 70
0
  9
$DIMLTYPE
  6

  9
$DIMLTEX1
  6

  9
$DIMLTEX2
  6

  9
$DIMTXTDIRECTION
 70
0
  9
$LUNITS
 70
2
  9
$LUPREC
 70
4
  9
$SKETCHINC
 40
1.0
  9
$FILLETRAD
 40
10.0
  9
$AUNITS
 70
0
  9
$AUPREC
 70
2
  9
$MENU
  1
.
  9
$ELEVATION
 40
0.0
  9
$PELEVATION
 40
0.0
  9
$THICKNESS
 40
0.0
  9
$LIMCHECK
 70
0
  9
$CHAMFERA
 40
0.0
  9
$CHAMFERB
 40
0.0
  9
$CHAMFERC
 40
0.0
  9
$CHAMFERD
 40
0.0
  9
$SKPOLY
 70
0
  9
$TDCREATE
 40
2461319.9200810185
  9
$TDUCREATE
 40
2458532.153996898
  9
$TDUPDATE
 40
2461319.9200810185
  9
$TDUUPDATE
 40
2458532.1544311
  9
$TDINDWG
 40
0.0
  9
$TDUSRTIMER
 40
0.0
  9
$USRTIMER
 70
1
  9
$ANGBASE
 50
0.0
  9
$ANGDIR
 70
0
  9
$PDMODE
 70
0
  9
$PDSIZE
 40
0.0
  9
$PLINEWID
 40
0.0
  9
$SPLFRAME
 70
0
  9
$SPLINETYPE
 70
6
  9
$SPLINESEGS
 70
8
  9
$HANDSEED
  5
205
  9
$SURFTAB1
 70
6
  9
$SURFTAB2
 70
6
  9
$SURFTYPE
 70
6
  9
$SURFU
 70
6
  9
$SURFV
 70
6
  9
$UCSBASE
  2

  9
$UCSNAME
  2

  9
$UCSORG
 10
0.0
 20
0.0
 30
0.0
  9
$UCSXDIR
 10
1.0
 20
0.0
 30
0.0
  9
$UCSYDIR
 10
0.0
 20
1.0
 30
0.0
  9
$UCSORTHOREF
  2

  9
$UCSORTHOVIEW
 70
0
  9
$UCSORGTOP
 10
0.0
 20
0.0
 30
0.0
  9
$UCSORGBOTTOM
 10
0.0
 20
0.0
 30
0.0
  9
$UCSORGLEFT
 10
0.0
 20
0.0
 30
0.0
  9
$UCSORGRIGHT
 10
0.0
 20
0.0
 30
0.0
  9
$UCSORGFRONT
 10
0.0
 20
0.0
 30
0.0
  9
$UCSORGBACK
 10
0.0
 20
0.0
 30
0.0
  9
$PUCSBASE
  2

  9
$PUCSNAME
  2

  9
$PUCSORG
 10
0.0
 20
0.0
 30
0.0
  9
$PUCSXDIR
 10
1.0
 20
0.0
 30
0.0
  9
$PUCSYDIR
 10
0.0
 20
1.0
 30
0.0
  9
$PUCSORTHOREF
  2

  9
$PUCSORTHOVIEW
 70
0
  9
$PUCSORGTOP
 10
0.0
 20
0.0
 30
0.0
  9
$PUCSORGBOTTOM
 10
0.0
 20
0.0
 30
0.0
  9
$PUCSORGLEFT
 10
0.0
 20
0.0
 30
0.0
  9
$PUCSORGRIGHT
 10
0.0
 20
0.0
 30
0.0
  9
$PUCSORGFRONT
 10
0.0
 20
0.0
 30
0.0
  9
$PUCSORGBACK
 10
0.0
 20
0.0
 30
0.0
  9
$USERI1
 70
0
  9
$USERI2
 70
0
  9
$USERI3
 70
0
  9
$USERI4
 70
0
  9
$USERI5
 70
0
  9
$USERR1
 40
0.0
  9
$USERR2
 40
0.0
  9
$USERR3
 40
0.0
  9
$USERR4
 40
0.0
  9
$USERR5
 40
0.0
  9
$WORLDVIEW
 70
1
  9
$SHADEDGE
 70
3
  9
$SHADEDIF
 70
70
  9
$TILEMODE
 70
1
  9
$MAXACTVP
 70
64
  9
$PINSBASE
 10
0.0
 20
0.0
 30
0.0
  9
$PLIMCHECK
 70
0
  9
$PEXTMIN
 10
1e+20
 20
1e+20
 30
1e+20
  9
$PEXTMAX
 10
-1e+20
 20
-1e+20
 30
-1e+20
  9
$PLIMMIN
 10
0.0
 20
0.0
  9
$PLIMMAX
 10
420.0
 20
297.0
  9
$UNITMODE
 70
0
  9
$VISRETAIN
 70
1
  9
$PLINEGEN
 70
0
  9
$PSLTSCALE
 70
1
  9
$TREEDEPTH
 70
3020
  9
$CMLSTYLE
  2
Standard
  9
$CMLJUST
 70
0
  9
$CMLSCALE
 40
20.0
  9
$PROXYGRAPHICS
 70
1
  9
$MEASUREMENT
 70
0
  9
$CELWEIGHT
370
-1
  9
$ENDCAPS
280
0
  9
$JOINSTYLE
280
0
  9
$LWDISPLAY
290
0
  9
$INSUNITS
 70
1
  9
$HYPERLINKBASE
  1

  9
$STYLESHEET
  1

  9
$XEDIT
290
1
  9
$CEPSNTYPE
380
0
  9
$PSTYLEMODE
290
1
  9
$FINGERPRINTGUID
  2
{442E6BAE-0B77-4FCC-B165-D73B8EE23343}
  9
$VERSIONGUID
  2
{2819E47A-BC58-4B1C-8A2E-449AECBF123D}
  9
$EXTNAMES
290
1
  9
$PSVPSCALE
 40
0.0
  9
$OLESTARTUP
290
0
  9
$SORTENTS
280
127
  9
$INDEXCTL
280
0
  9
$HIDETEXT
280
1
  9
$XCLIPFRAME
280
1
  9
$HALOGAP
280
0
  9
$OBSCOLOR
 70
257
  9
$OBSLTYPE
280
0
  9
$INTERSECTIONDISPLAY
280
0
  9
$INTERSECTIONCOLOR
 70
257
  9
$DIMASSOC
280
2
  9
$PROJECTNAME
  1

  9
$CAMERADISPLAY
290
0
  9
$LENSLENGTH
 40
50.0
  9
$CAMERAHEIGHT
 40
0.0
  9
$STEPSPERSEC
 40
24.0
  9
$STEPSIZE
 40
100.0
  9
$3DDWFPREC
 40
2.0
  9
$PSOLWIDTH
 40
0.005
  9
$PSOLHEIGHT
 40
0.08
  9
$LOFTANG1
 40
1.570796326795
  9
$LOFTANG2
 40
1.570796326795
  9
$LOFTMAG1
 40
0.0
  9
$LOFTMAG2
 40
0.0
  9
$LOFTPARAM
 70
7
  9
$LOFTNORMALS
280
1
  9
$LATITUDE
 40
37.795
  9
$LONGITUDE
 40
-122.394
  9
$NORTHDIRECTION
 40
0.0
  9
$TIMEZONE
 70
-8000
  9
$LIGHTGLYPHDISPLAY
280
1
  9
$TILEMODELIGHTSYNCH
280
1
  9
$CMATERIAL
347
20
  9
$SOLIDHIST
280
0
  9
$SHOWHIST
280
1
  9
$DWFFRAME
280
2
  9
$DGNFRAME
280
2
  9
$REALWORLDSCALE
290
1
  9
$INTERFERECOLOR
 62
256
  9
$CSHADOW
280
0
  9
$SHADOWPLANELOCATION
 40
0.0
  0
ENDSEC
  0
SECTION
  2
CLASSES
  0
CLASS
  1
ACDBDICTIONARYWDFLT
  2
AcDbDictionaryWithDefault
  3
ObjectDBX Classes
 90
0
 91
0
280
0
281
0
  0
CLASS
  1
SUN
  2
AcDbSun
  3
SCENEOE
 90
1153
 91
0
280
0
281
0
  0
CLASS
  1
VISUALSTYLE
  2
AcDbVisualStyle
  3
ObjectDBX Classes
 90
4095
 91
0
280
0
281
0
  0
CLASS
  1
MATERIAL
  2
AcDbMaterial
  3
ObjectDBX Classes
 90
1153
 91
0
280
0
281
0
  0
CLASS
  1
SCALE
  2
AcDbScale
  3
ObjectDBX Classes
 90
1153
 91
0
280
0
281
0
  0
CLASS
  1
TABLESTYLE
  2
AcDbTableStyle
  3
ObjectDBX Classes
 90
4095
 91
0
280
0
281
0
  0
CLASS
  1
MLEADERSTYLE
  2
AcDbMLeaderStyle
  3
ACDB_MLEADERSTYLE_CLASS
 90
4095
 91
0
280
0
281
0
  0
CLASS
  1
DICTIONARYVAR
  2
AcDbDictionaryVar
  3
ObjectDBX Classes
 90
0
 91
0
280
0
281
0
  0
CLASS
  1
CELLSTYLEMAP
  2
AcDbCellStyleMap
  3
ObjectDBX Classes
 90
1152
 91
0
280
0
281
0
  0
CLASS
  1
MENTALRAYRENDERSETTINGS
  2
AcDbMentalRayRenderSettings
  3
SCENEOE
 90
1024
 91
0
280
0
281
0
  0
CLASS
  1
ACDBDETAILVIEWSTYLE
  2
AcDbDetailViewStyle
  3
ObjectDBX Classes
 90
1025
 91
0
280
0
281
0
  0
CLASS
  1
ACDBSECTIONVIEWSTYLE
  2
AcDbSectionViewStyle
  3
ObjectDBX Classes
 90
1025
 91
0
280
0
281
0
  0
CLASS
  1
RASTERVARIABLES
  2
AcDbRasterVariables
  3
ISM
 90
0
 91
0
280
0
281
0
  0
CLASS
  1
ACDBPLACEHOLDER
  2
AcDbPlaceHolder
  3
ObjectDBX Classes
 90
0
 91
0
280
0
281
0
  0
CLASS
  1
LAYOUT
  2
AcDbLayout
  3
ObjectDBX Classes
 90
0
 91
0
280
0
281
0
  0
ENDSEC
  0
SECTION
  2
TABLES
  0
TABLE
  2
VPORT
  5
8
330
0
100
AcDbSymbolTable
 70
1
  0
VPORT
  5
23
330
8
100
AcDbSymbolTableRecord
100
AcDbViewportTableRecord
  2
*Active
 70
0
 10
0.0
 20
0.0
 11
1.0
 21
1.0
 12
0.0
 22
0.0
 13
0.0
 23
0.0
 14
0.5
 24
0.5
 15
0.5
 25
0.5
 16
0.0
 26
0.0
 36
1.0
 17
0.0
 27
0.0
 37
0.0
 40
1000.0
 41
1.34
 42
50.0
 43
0.0
 44
0.0
 50
0.0
 51
0.0
 71
0
 72
1000
 73
1
 74
3
 75
0
 76
0
 77
0
 78
0
281
0
 65
0
146
0.0
  0
ENDTAB
  0
TABLE
  2
LTYPE
  5
2
330
0
100
AcDbSymbolTable
 70
3
  0
LTYPE
  5
24
330
2
100
AcDbSymbolTableRecord
100
AcDbLinetypeTableRecord
  2
ByBlock
 70
0
  3

 72
65
 73
0
 40
0.0
  0
LTYPE
  5
25
330
2
100
AcDbSymbolTableRecord
100
AcDbLinetypeTableRecord
  2
ByLayer
 70
0
  3

 72
65
 73
0
 40
0.0
  0
LTYPE
  5
26
330
2
100
AcDbSymbolTableRecord
100
AcDbLinetypeTableRecord
  2
Continuous
 70
0
  3

 72
65
 73
0
 40
0.0
  0
ENDTAB
  0
TABLE
  2
LAYER
  5
1
330
0
100
AcDbSymbolTable
 70
7
  0
LAYER
  5
27
330
1
100
AcDbSymbolTableRecord
100
AcDbLayerTableRecord
  2
0
 70
0
 62
7
  6
Continuous
370
-3
390
13
347
21
  0
LAYER
  5
28
330
1
100
AcDbSymbolTableRecord
100
AcDbLayerTableRecord
  2
Defpoints
 70
0
 62
7
  6
Continuous
290
0
370
-3
390
13
347
21
  0
LAYER
  5
2F
330
1
100
AcDbSymbolTableRecord
100
AcDbLayerTableRecord
  2
CUT
 70
0
 62
1
420
16711680
  6
Continuous
370
-3
390
13
347
21
  0
LAYER
  5
30
330
1
100
AcDbSymbolTableRecord
100
AcDbLayerTableRecord
  2
SCORE
 70
0
 62
5
420
255
  6
Continuous
370
-3
390
13
347
21
  0
LAYER
  5
31
330
1
100
AcDbSymbolTableRecord
100
AcDbLayerTableRecord
  2
ENGRAVE
 70
0
 62
7
420
0
  6
Continuous
370
-3
390
13
347
21
  0
LAYER
  5
32
330
1
100
AcDbSymbolTableRecord
100
AcDbLayerTableRecord
  2
NUMBERS
 70
0
 62
7
420
0
  6
Continuous
370
-3
390
13
347
21
  0
LAYER
  5
33
330
1
100
AcDbSymbolTableRecord
100
AcDbLayerTableRecord
  2
BOUNDARY
 70
0
 62
8
420
8421504
  6
Continuous
370
-3
390
13
347
21
  0
ENDTAB
  0
TABLE
  2
STYLE
  5
5
330
0
100
AcDbSymbolTable
 70
1
  0
STYLE
  5
29
330
5
100
AcDbSymbolTableRecord
100
AcDbTextStyleTableRecord
  2
Standard
 70
0
 40
0.0
 41
1.0
 50
0.0
 71
0
 42
2.5
  3
txt
  4

  0
ENDTAB
  0
TABLE
  2
VIEW
  5
7
330
0
100
AcDbSymbolTable
 70
0
  0
ENDTAB
  0
TABLE
  2
UCS
  5
6
330
0
100
AcDbSymbolTable
 70
0
  0
ENDTAB
  0
TABLE
  2
APPID
  5
3
330
0
100
AcDbSymbolTable
 70
3
  0
APPID
  5
2A
330
3
100
AcDbSymbolTableRecord
100
AcDbRegAppTableRecord
  2
ACAD
 70
0
  0
APPID
  5
202
330
3
100
AcDbSymbolTableRecord
100
AcDbRegAppTableRecord
  2
HATCHBACKGROUNDCOLOR
 70
0
  0
APPID
  5
203
330
3
100
AcDbSymbolTableRecord
100
AcDbRegAppTableRecord
  2
EZDXF
 70
0
  0
ENDTAB
  0
TABLE
  2
DIMSTYLE
  5
4
330
0
100
AcDbSymbolTable
 70
1
100
AcDbDimStyleTable
  0
DIMSTYLE
105
2B
330
4
100
AcDbSymbolTableRecord
100
AcDbDimStyleTableRecord
  2
Standard
 70
0
 40
1.0
 41
2.5
 42
0.625
 43
3.75
 44
1.25
 45
0.0
 46
0.0
 47
0.0
 48
0.0
 49
2.5
140
2.5
141
2.5
142
0.0
143
0.03937007874
144
1.0
145
0.0
146
1.0
147
0.625
148
0.0
 69
0
 70
0
 71
0
 72
0
 73
0
 74
0
 75
0
 76
0
 77
1
 78
8
 79
3
170
0
171
3
172
1
173
0
174
0
175
0
176
0
177
0
178
0
179
2
271
2
272
2
273
2
274
3
275
0
276
0
277
2
278
44
279
0
280
0
281
0
282
0
283
0
284
8
285
0
286
0
288
0
289
3
290
0
371
-2
372
-2
  0
ENDTAB
  0
TABLE
  2
BLOCK_RECORD
  5
9
330
0
100
AcDbSymbolTable
 70
2
  0
BLOCK_RECORD
  5
17
330
9
100
AcDbSymbolTableRecord
100
AcDbBlockTableRecord
  2
*Model_Space
340
1A
 70
0
280
1
281
0
  0
BLOCK_RECORD
  5
1B
330
9
100
AcDbSymbolTableRecord
100
AcDbBlockTableRecord
  2
*Paper_Space
340
1E
 70
0
280
1
281
0
  0
ENDTAB
  0
ENDSEC
  0
SECTION
  2
BLOCKS
  0
BLOCK
  5
18
330
17
100
AcDbEntity
  8
0
100
AcDbBlockBegin
  2
*Model_Space
 70
0
 10
0.0
 20
0.0
 30
0.0
  3
*Model_Space
  1

  0
ENDBLK
  5
19
330
17
100
AcDbEntity
  8
0
100
AcDbBlockEnd
  0
BLOCK
  5
1C
330
1B
100
AcDbEntity
  8
0
100
AcDbBlockBegin
  2
*Paper_Space
 70
0
 10
0.0
 20
0.0
 30
0.0
  3
*Paper_Space
  1

  0
ENDBLK
  5
1D
330
1B
100
AcDbEntity
  8
0
100
AcDbBlockEnd
  0
ENDSEC
  0
SECTION
  2
ENTITIES
  0
LWPOLYLINE
  5
34
330
17
100
AcDbEntity
  8
CUT
100
AcDbPolyline
 90
4
 70
1
 10
13.5
 20
17.25
 10
0.5
 20
17.25
 10
0.5
 20
0.75
 10
13.5
 20
0.75
  0
LWPOLYLINE
  5
35
330
17
100
AcDbEntity
  8
CUT
100
AcDbPolyline
 90
16
 70
1
 10
26.015363245029835
 20
10.132220975922088
 10
25.40211262051294
 20
5.93888429444129
 10
24.747126275024563
 20
5.945320082821346
 10
24.711197130325644
 20
2.2357304645523386
 10
24.848783965163094
 20
2.234395652700883
 10
24.701706687256202
 20
1.257345132009495
 10
15.192243622949265
 20
1.3495315260590344
 10
15.187308567104198
 20
0.84
 10
13.74
 20
0.8539833295242965
 10
13.80441205346356
 20
7.49670733890538
 10
16.023897917069107
 20
7.252845130114448
 10
16.049090277254326
 20
9.861834954424875
 10
18.413557804280885
 20
9.838908081097207
 10
18.40763574010771
 20
9.227470543142552
 10
19.69152282974366
 20
9.215035484344288
 10
19.700380108796153
 20
10.13222097592209
  0
LWPOLYLINE
  5
36
330
17
100
AcDbEntity
  8
CUT
100
AcDbPolyline
 90
4
 70
1
 10
25.025826373093558
 20
8.551628570282617
 10
25.00154669580726
 20
6.044815798898216
 10
25.335728199459943
 20
6.041579091651326
 10
25.704474287519073
 20
8.54505554155811
  0
LWPOLYLINE
  5
37
330
17
100
AcDbEntity
  8
CUT
100
AcDbPolyline
 90
4
 70
1
 10
28.732620462877605
 20
6.048279247802773
 10
26.165363245029837
 20
6.048279247802773
 10
26.165363245029837
 20
0.75
 10
28.732620462877605
 20
0.75
  0
LWPOLYLINE
  5
38
330
17
100
AcDbEntity
  8
CUT
100
AcDbPolyline
 90
4
 70
1
 10
28.732620462877605
 20
6.198279247802773
 10
28.732620462877605
 20
8.765536465650543
 10
26.165363245029837
 20
8.765536465650543
 10
26.165363245029837
 20
6.198279247802773
  0
LWPOLYLINE
  5
39
330
17
100
AcDbEntity
  8
SCORE
100
AcDbPolyline
 90
2
 70
0
 10
28.732620462877605
 20
4.150247260412549
 10
26.165363245029837
 20
4.150247260412549
  0
LWPOLYLINE
  5
3A
330
17
100
AcDbEntity
  8
SCORE
100
AcDbPolyline
 90
2
 70
0
 10
28.732620462877605
 20
4.956239206346852
 10
26.165363245029837
 20
4.956239206346852
  0
LWPOLYLINE
  5
3B
330
17
100
AcDbEntity
  8
SCORE
100
AcDbPolyline
 90
2
 70
0
 10
28.732620462877605
 20
5.366344193223492
 10
26.165363245029837
 20
5.366344193223492
  0
LWPOLYLINE
  5
3C
330
17
100
AcDbEntity
  8
ENGRAVE
100
AcDbPolyline
 90
2
 70
0
 10
12.884842519685039
 20
11.918635170603674
 10
12.884842519685039
 20
16.019685039370078
  0
LWPOLYLINE
  5
3D
330
17
100
AcDbEntity
  8
ENGRAVE
100
AcDbPolyline
 90
2
 70
0
 10
12.884842519685039
 20
11.918635170603674
 10
12.638779527559054
 20
11.918635170603674
  0
LWPOLYLINE
  5
3E
330
17
100
AcDbEntity
  8
ENGRAVE
100
AcDbPolyline
 90
2
 70
0
 10
12.884842519685039
 20
12.943897637795276
 10
12.741305774278214
 20
12.943897637795276
  0
LWPOLYLINE
  5
3F
330
17
100
AcDbEntity
  8
ENGRAVE
100
AcDbPolyline
 90
2
 70
0
 10
12.884842519685039
 20
13.969160104986877
 10
12.638779527559054
 20
13.969160104986877
  0
LWPOLYLINE
  5
40
330
17
100
AcDbEntity
  8
ENGRAVE
100
AcDbPolyline
 90
2
 70
0
 10
12.884842519685039
 20
16.019685039370078
 10
12.638779527559054
 20
16.019685039370078
  0
LWPOLYLINE
  5
41
330
17
100
AcDbEntity
  8
ENGRAVE
100
AcDbPolyline
 90
2
 70
0
 10
2.9606299212598426
 20
16.224737532808398
 10
1.7303149606299204
 20
16.224737532808398
  0
LWPOLYLINE
  5
42
330
17
100
AcDbEntity
  8
ENGRAVE
100
AcDbPolyline
 90
3
 70
0
 10
2.037893700787402
 20
15.978674540682414
 10
1.7303149606299204
 20
16.224737532808398
 10
2.037893700787402
 20
16.470800524934383
  0
LWPOLYLINE
  5
43
330
17
100
AcDbEntity
  8
ENGRAVE
100
AcDbPolyline
 90
17
 70
0
 10
7.355240644666107
 20
3.4790658686845704
 10
7.355332573590172
 20
4.134083825459317
 10
3.6455689639503337
 20
4.134083825459317
 10
3.645566746318746
 20
3.996490515889602
 10
2.6671376034350747
 20
4.134098139282121
 10
2.6672203083989494
 20
13.644008028225635
 10
2.1576648837155865
 20
13.644008028225635
 10
2.1576303411105062
 20
15.091384144072723
 10
8.800666632743159
 20
15.091310044286132
 10
8.57831163224533
 20
12.869566465613097
 10
11.18742308108116
 20
12.869643412594877
 10
11.187397204671946
 20
10.50506473401087
 10
10.575930988381854
 20
10.50506473401087
 10
10.575930988381854
 20
9.221117426049524
 10
11.493159246053786
 20
9.221143524699897
 10
11.55432000095563
 20
2.9064565670609337
 10
7.355240644666107
 20
3.4790658686845704
  0
LWPOLYLINE
  5
44
330
17
100
AcDbEntity
  8
ENGRAVE
100
AcDbPolyline
 90
5
 70
0
 10
7.457287690770907
 20
3.8806389554983043
 10
7.457287690770907
 20
3.546441777686508
 10
9.964218039525148
 20
3.201959210360204
 10
9.964218039525148
 20
3.8806389554983043
 10
7.457287690770907
 20
3.8806389554983043
  0
LWPOLYLINE
  5
45
330
17
100
AcDbEntity
  8
ENGRAVE
100
AcDbPolyline
 90
5
 70
0
 10
24.648667221048527
 20
2.236108329262856
 10
24.64806190713099
 20
2.173611260571106
 10
14.061637331168576
 20
2.2761458316624053
 10
14.062242645086112
 20
2.3386429003541545
 10
24.648667221048527
 20
2.236108329262856
  0
LWPOLYLINE
  5
46
330
17
100
AcDbEntity
  8
ENGRAVE
100
AcDbPolyline
 90
5
 70
0
 10
24.68947869961586
 20
6.660461257857895
 10
24.68887338569833
 20
6.597964189166145
 10
14.106528523465187
 20
6.700459246284203
 10
14.107133837382722
 20
6.762956314975953
 10
24.68947869961586
 20
6.660461257857895
  0
LWPOLYLINE
  5
47
330
17
100
AcDbEntity
  8
ENGRAVE
100
AcDbPolyline
 90
5
 70
0
 10
21.704098182315008
 20
1.3500508695319131
 10
21.64160111362326
 20
1.3506561834494488
 10
21.64984275652934
 20
2.2015841200333064
 10
21.712339825221086
 20
2.2009788061157707
 10
21.704098182315008
 20
1.3500508695319131
  0
LWPOLYLINE
  5
48
330
17
100
AcDbEntity
  8
ENGRAVE
100
AcDbPolyline
 90
5
 70
0
 10
17.781627958977854
 20
1.3880418644218664
 10
17.719130890286102
 20
1.388647178339402
 10
17.72737253319218
 20
2.23957511492326
 10
17.789869601883932
 20
2.2389698010057244
 10
17.781627958977854
 20
1.3880418644218664
  0
LWPOLYLINE
  5
49
330
17
100
AcDbEntity
  8
ENGRAVE
100
AcDbPolyline
 90
5
 70
0
 10
23.481366515912036
 20
10.076685592923381
 10
23.543863584603788
 20
10.076080279005845
 10
23.530061315158665
 20
8.651032288823238
 10
23.467564246466914
 20
8.651637602740774
 10
23.481366515912036
 20
10.076685592923381
  0
LWPOLYLINE
  5
4A
330
17
100
AcDbEntity
  8
ENGRAVE
100
AcDbPolyline
 90
5
 70
0
 10
21.086465720900122
 20
10.099881349343384
 10
21.14896278959187
 20
10.099276035425849
 10
21.135160520146748
 20
8.674228045243241
 10
21.072663451455
 20
8.674833359160777
 10
21.086465720900122
 20
10.099881349343384
  0
LWPOLYLINE
  5
4B
330
17
100
AcDbEntity
  8
ENGRAVE
100
AcDbPolyline
 90
5
 70
0
 10
18.483924789593924
 20
8.849109719764435
 10
18.48331947567639
 20
8.786612651072685
 10
16.100721253241588
 20
8.80968925120971
 10
16.101326567159123
 20
8.87218631990146
 10
18.483924789593924
 20
8.849109719764435
  0
LWPOLYLINE
  5
4C
330
17
100
AcDbEntity
  8
ENGRAVE
100
AcDbPolyline
 90
5
 70
0
 10
24.686588789233223
 20
2.2356388049123455
 10
24.64869729540407
 20
2.236005542660336
 10
24.692616620859283
 20
6.773768177092325
 10
24.755113693693744
 20
6.77316329104981
 10
24.747339452091776
 20
5.969925475195213
  0
LWPOLYLINE
  5
4D
330
17
100
AcDbEntity
  8
ENGRAVE
100
AcDbPolyline
 90
5
 70
0
 10
14.043663365195485
 20
6.876934301346045
 10
14.106160437422187
 20
6.87632935251301
 10
14.053364501608051
 20
1.4219979550958777
 10
13.990867429381352
 20
1.4226029039289125
 10
14.043663365195485
 20
6.876934301346045
  0
LWPOLYLINE
  5
4E
330
17
100
AcDbEntity
  8
ENGRAVE
100
AcDbPolyline
 90
4
 70
0
 10
15.167638446031534
 20
1.3497665591272339
 10
13.990159388575206
 20
1.3611742851870536
 10
13.990764876558561
 20
1.4236713521926498
 10
24.68626233076017
 20
1.3200505665333213
  0
LWPOLYLINE
  5
4F
330
17
100
AcDbEntity
  8
ENGRAVE
100
AcDbPolyline
 90
2
 70
0
 10
13.866608658457624
 20
7.465119214452378
 10
13.802728038177362
 20
0.8779847233881501
  0
LWPOLYLINE
  5
50
330
17
100
AcDbEntity
  8
ENGRAVE
100
AcDbPolyline
 90
2
 70
0
 10
24.642293925641397
 20
1.2825285450850146
 10
24.782001958836684
 20
2.2104360875597115
  0
LWPOLYLINE
  5
51
330
17
100
AcDbEntity
  8
ENGRAVE
100
AcDbPolyline
 90
2
 70
0
 10
25.75979702314325
 20
8.554733541753459
 10
25.731383745831167
 20
8.55888960723855
  0
LWPOLYLINE
  5
52
330
17
100
AcDbEntity
  8
ENGRAVE
100
AcDbPolyline
 90
2
 70
0
 10
25.72365141115784
 20
8.569477255294453
 10
25.948637771522204
 20
10.107614676709488
  0
LWPOLYLINE
  5
53
330
17
100
AcDbEntity
  8
ENGRAVE
100
AcDbPolyline
 90
2
 70
0
 10
25.34262025412219
 20
5.96407634369046
 10
25.350336849185936
 20
6.016830146586208
  0
LWPOLYLINE
  5
54
330
17
100
AcDbEntity
  8
ENGRAVE
100
AcDbPolyline
 90
2
 70
0
 10
25.73140152040626
 20
8.55901028168526
 10
25.75981465880114
 20
8.554854132337756
  0
LWPOLYLINE
  5
55
330
17
100
AcDbEntity
  8
ENGRAVE
100
AcDbPolyline
 90
4
 70
0
 10
24.747301468184368
 20
5.969925848418855
 10
24.747668499186958
 20
6.0078208333451855
 10
25.34058110613995
 20
6.002078191964016
 10
25.3402132691826
 20
5.964099994329609
  0
LWPOLYLINE
  5
56
330
17
100
AcDbEntity
  8
ENGRAVE
100
AcDbPolyline
 90
3
 70
0
 10
25.942890103367226
 20
10.107614676709488
 10
25.94288986836286
 20
10.069720531790512
 10
19.724384359702285
 20
10.06975909647949
  0
LWPOLYLINE
  5
57
330
17
100
AcDbEntity
  8
ENGRAVE
100
AcDbPolyline
 90
4
 70
0
 10
16.021322132359277
 20
7.228373761069024
 10
16.017180363429574
 20
7.190665837498939
 10
13.86644205053133
 20
7.42689897570745
 10
13.870592018908876
 20
7.46468154954359
  0
LWPOLYLINE
  5
58
330
17
100
AcDbEntity
  8
ENGRAVE
100
AcDbPolyline
 90
3
 70
0
 10
18.40515185901322
 20
8.901151905246149
 10
18.34265479032147
 20
8.901757219163684
 10
18.35149903665158
 20
9.81490237311968
  0
LWPOLYLINE
  5
59
330
17
100
AcDbEntity
  8
ENGRAVE
100
AcDbPolyline
 90
2
 70
0
 10
18.408074034617727
 20
9.202858844726089
 10
18.40515185901322
 20
8.901151905246149
  0
LWPOLYLINE
  5
5A
330
17
100
AcDbEntity
  8
ENGRAVE
100
AcDbPolyline
 90
3
 70
0
 10
15.125128138542738
 20
0.8652082106342943
 10
15.129747087732394
 20
1.350190862745515
 10
15.167639060308412
 20
1.3498299815979884
  0
LWPOLYLINE
  5
5B
330
17
100
AcDbEntity
  8
ENGRAVE
100
AcDbPolyline
 90
3
 70
0
 10
13.781603874036874
 20
0.9150925176279473
 10
15.157223291581401
 20
0.9017301890381457
 10
15.156865550173888
 20
0.8649015761714205
  0
LWPOLYLINE
  5
5C
330
17
100
AcDbEntity
  8
ENGRAVE
100
AcDbPolyline
 90
2
 70
0
 10
13.78124543688812
 20
0.8781922798828012
 10
13.781603874036874
 20
0.9150925176279473
  0
LWPOLYLINE
  5
5D
330
17
100
AcDbEntity
  8
ENGRAVE
100
AcDbPolyline
 90
4
 70
0
 10
19.691457983630666
 20
9.190428659084727
 10
19.691393440644053
 20
9.183764765605455
 10
18.40720998751423
 20
9.196202694825503
 10
18.407274530500843
 20
9.202866588304776
  0
LWPOLYLINE
  5
5E
330
17
100
AcDbEntity
  8
ENGRAVE
100
AcDbPolyline
 90
2
 70
0
 10
18.388649812697466
 20
9.807878296995419
 10
16.07339324828709
 20
9.830302661056649
  0
LWPOLYLINE
  5
5F
330
17
100
AcDbEntity
  8
ENGRAVE
100
AcDbPolyline
 90
4
 70
0
 10
16.14267583455148
 20
9.836320053497573
 10
16.11764364108135
 20
7.251811966888695
 10
16.0551465723896
 20
7.252417280806231
 10
16.08017877248389
 20
9.836926051342331
  0
LWPOLYLINE
  5
60
330
17
100
AcDbEntity
  8
ENGRAVE
100
AcDbPolyline
 90
5
 70
0
 10
20.1982251365802
 20
3.4419151530486345
 10
20.197619822662663
 20
3.3794180843568853
 10
14.83357515331431
 20
3.431371415298763
 10
14.834180467231846
 20
3.493868483990512
 10
20.1982251365802
 20
3.4419151530486345
  0
LWPOLYLINE
  5
61
330
17
100
AcDbEntity
  8
ENGRAVE
100
AcDbPolyline
 90
5
 70
0
 10
14.85904441161356
 20
6.0610052950820545
 10
14.859649725531096
 20
6.123502363773803
 10
20.223694394879452
 20
6.071549032831927
 10
20.223089080961913
 20
6.009051964140178
 10
14.85904441161356
 20
6.0610052950820545
  0
LWPOLYLINE
  5
62
330
17
100
AcDbEntity
  8
ENGRAVE
100
AcDbPolyline
 90
5
 70
0
 10
20.160592012270165
 20
6.0096572780577135
 10
20.223089080961913
 20
6.009051964140178
 10
20.1982251365802
 20
3.4419151530486345
 10
20.13572806788845
 20
3.44252046696617
 10
20.160592012270165
 20
6.0096572780577135
  0
LWPOLYLINE
  5
63
330
17
100
AcDbEntity
  8
ENGRAVE
100
AcDbPolyline
 90
5
 70
0
 10
14.896677535923596
 20
3.4932631700729764
 10
14.834180467231846
 20
3.493868483990512
 10
14.85904441161356
 20
6.0610052950820545
 10
14.921541480305311
 20
6.060399981164519
 10
14.896677535923596
 20
3.4932631700729764
  0
LWPOLYLINE
  5
64
330
17
100
AcDbEntity
  8
ENGRAVE
100
AcDbPolyline
 90
4
 70
0
 10
24.697850048085126
 20
3.3983341397365043
 10
19.42440393538373
 20
3.4494099804473195
 10
19.449267879765443
 20
6.016546791538862
 10
24.72271399246684
 20
5.965470950828047
  0
LWPOLYLINE
  5
65
330
17
100
AcDbEntity
  8
ENGRAVE
100
AcDbPolyline
 90
5
 70
0
 10
16.307328054052178
 20
5.463043109858382
 10
16.307933367969717
 20
5.5255401785501315
 10
20.155542168997496
 20
5.4882742522395365
 10
20.15493685507996
 20
5.425777183547787
 10
16.307328054052178
 20
5.463043109858382
  0
LWPOLYLINE
  5
66
330
17
100
AcDbEntity
  8
ENGRAVE
100
AcDbPolyline
 90
5
 70
0
 10
16.294379737968413
 20
4.12616355647844
 10
16.294985051885945
 20
4.18866062517019
 10
20.142593852913727
 20
4.151394698859596
 10
20.14198853899619
 20
4.088897630167846
 10
16.294379737968413
 20
4.12616355647844
  0
LWPOLYLINE
  5
67
330
17
100
AcDbEntity
  8
ENGRAVE
100
AcDbPolyline
 90
5
 70
0
 10
14.915886323115105
 20
5.476519886654592
 10
14.91649163703264
 20
5.539016955346342
 10
15.524343891383385
 20
5.533129616354833
 10
15.52373857746585
 20
5.470632547663083
 10
14.915886323115105
 20
5.476519886654592
  0
LWPOLYLINE
  5
68
330
17
100
AcDbEntity
  8
ENGRAVE
100
AcDbPolyline
 90
5
 70
0
 10
14.902938007031336
 20
4.139640333274652
 10
14.903543320948872
 20
4.202137401966402
 10
15.511395575299616
 20
4.196250062974892
 10
15.51079026138208
 20
4.133752994283142
 10
14.902938007031336
 20
4.139640333274652
  0
LWPOLYLINE
  5
69
330
17
100
AcDbEntity
  8
ENGRAVE
100
AcDbPolyline
 90
5
 70
0
 10
23.753566089928583
 20
3.4074799802365936
 10
23.75296077601105
 20
3.3449829115448444
 10
21.06082982753601
 20
3.371057483761631
 10
21.061435141453543
 20
3.4335545524533804
 10
23.753566089928583
 20
3.4074799802365936
  0
LWPOLYLINE
  5
6A
330
17
100
AcDbEntity
  8
ENGRAVE
100
AcDbPolyline
 90
5
 70
0
 10
21.08629908583526
 20
6.000691363544923
 10
21.086904399752797
 20
6.063188432236672
 10
23.779035348227836
 20
6.037113860019885
 10
23.7784300343103
 20
5.9746167913281365
 10
21.08629908583526
 20
6.000691363544923
  0
LWPOLYLINE
  5
6B
330
17
100
AcDbEntity
  8
ENGRAVE
100
AcDbPolyline
 90
5
 70
0
 10
23.71593296561855
 20
5.975222105245672
 10
23.7784300343103
 20
5.9746167913281365
 10
23.753566089928583
 20
3.4074799802365936
 10
23.691069021236835
 20
3.4080852941541293
 10
23.71593296561855
 20
5.975222105245672
  0
LWPOLYLINE
  5
6C
330
17
100
AcDbEntity
  8
ENGRAVE
100
AcDbPolyline
 90
5
 70
0
 10
21.123932210145295
 20
3.4329492385358447
 10
21.061435141453543
 20
3.4335545524533804
 10
21.08629908583526
 20
6.000691363544923
 10
21.14879615452701
 20
6.000086049627387
 10
21.123932210145295
 20
3.4329492385358447
  0
LWPOLYLINE
  5
6D
330
17
100
AcDbEntity
  8
ENGRAVE
100
AcDbPolyline
 90
5
 70
0
 10
21.143140997336804
 20
5.41620595511746
 10
21.14374631125434
 20
5.47870302380921
 10
23.710883122345884
 20
5.453839079427495
 10
23.710277808428344
 20
5.3913420107357455
 10
21.143140997336804
 20
5.41620595511746
  0
LWPOLYLINE
  5
6E
330
17
100
AcDbEntity
  8
ENGRAVE
100
AcDbPolyline
 90
5
 70
0
 10
21.130192681253035
 20
4.07932640173752
 10
21.13079799517057
 20
4.141823470429269
 10
23.69793480626211
 20
4.116959526047554
 10
23.69732949234458
 20
4.054462457355805
 10
21.130192681253035
 20
4.07932640173752
  0
LWPOLYLINE
  5
6F
330
17
100
AcDbEntity
  8
ENGRAVE
100
AcDbPolyline
 90
2
 70
0
 10
26.40937571222144
 20
0.8115157480314961
 10
26.40937571222144
 20
5.986763499771277
  0
LWPOLYLINE
  5
70
330
17
100
AcDbEntity
  8
ENGRAVE
100
AcDbPolyline
 90
2
 70
0
 10
26.919956420882855
 20
0.8115157480314961
 10
26.919956420882855
 20
5.986763499771277
  0
LWPOLYLINE
  5
71
330
17
100
AcDbEntity
  8
ENGRAVE
100
AcDbPolyline
 90
2
 70
0
 10
27.44899185395372
 20
0.8115157480314961
 10
27.44899185395372
 20
5.986763499771277
  0
LWPOLYLINE
  5
72
330
17
100
AcDbEntity
  8
ENGRAVE
100
AcDbPolyline
 90
2
 70
0
 10
27.95957256261514
 20
0.8115157480314961
 10
27.95957256261514
 20
5.986763499771277
  0
LWPOLYLINE
  5
73
330
17
100
AcDbEntity
  8
ENGRAVE
100
AcDbPolyline
 90
2
 70
0
 10
28.468102746342176
 20
0.8115157480314961
 10
28.468102746342176
 20
5.986763499771277
  0
LWPOLYLINE
  5
74
330
17
100
AcDbEntity
  8
ENGRAVE
100
AcDbPolyline
 90
2
 70
0
 10
26.2063737437175
 20
6.524312712369703
 10
28.691609964189944
 20
6.524312712369703
  0
LWPOLYLINE
  5
75
330
17
100
AcDbEntity
  8
ENGRAVE
100
AcDbPolyline
 90
2
 70
0
 10
26.2063737437175
 20
6.459106019456317
 10
28.691609964189944
 20
6.459106019456317
  0
LWPOLYLINE
  5
76
330
17
100
AcDbEntity
  8
ENGRAVE
100
AcDbPolyline
 90
2
 70
0
 10
26.2063737437175
 20
6.393899326542932
 10
28.691609964189944
 20
6.393899326542932
  0
LWPOLYLINE
  5
77
330
17
100
AcDbEntity
  8
ENGRAVE
100
AcDbPolyline
 90
2
 70
0
 10
26.2063737437175
 20
6.3286926336295455
 10
28.691609964189944
 20
6.3286926336295455
  0
LWPOLYLINE
  5
78
330
17
100
AcDbEntity
  8
ENGRAVE
100
AcDbPolyline
 90
2
 70
0
 10
26.2063737437175
 20
6.263485940716159
 10
28.691609964189944
 20
6.263485940716159
  0
LWPOLYLINE
  5
79
330
17
100
AcDbEntity
  8
ENGRAVE
100
AcDbPolyline
 90
2
 70
0
 10
26.2063737437175
 20
6.20238029767154
 10
28.691609964189944
 20
6.20238029767154
  0
LWPOLYLINE
  5
7A
330
17
100
AcDbEntity
  8
ENGRAVE
100
AcDbPolyline
 90
2
 70
0
 10
0.18
 20
19.58
 10
0.18
 20
19.88
  0
LWPOLYLINE
  5
7B
330
17
100
AcDbEntity
  8
ENGRAVE
100
AcDbPolyline
 90
3
 70
0
 10
0.09999999999999999
 20
19.779999999999998
 10
0.18
 20
19.88
 10
0.26
 20
19.779999999999998
  0
LWPOLYLINE
  5
7C
330
17
100
AcDbEntity
  8
ENGRAVE
100
AcDbPolyline
 90
2
 70
0
 10
0.1
 20
0.25
 10
0.4
 20
0.25
  0
LWPOLYLINE
  5
7D
330
17
100
AcDbEntity
  8
ENGRAVE
100
AcDbPolyline
 90
2
 70
0
 10
0.25
 20
0.1
 10
0.25
 20
0.4
  0
LWPOLYLINE
  5
7E
330
17
100
AcDbEntity
  8
NUMBERS
100
AcDbPolyline
 90
7
 70
0
 10
12.269685039370078
 20
1.2626312335958008
 10
12.169685039370078
 20
1.2626312335958008
 10
12.169685039370078
 20
1.3126312335958006
 10
12.186351706036746
 20
1.3292979002624672
 10
12.203018372703411
 20
1.3292979002624672
 10
12.219685039370079
 20
1.3126312335958006
 10
12.219685039370079
 20
1.2626312335958008
  0
LWPOLYLINE
  5
7F
330
17
100
AcDbEntity
  8
NUMBERS
100
AcDbPolyline
 90
5
 70
0
 10
12.219685039370079
 20
1.3126312335958006
 10
12.236351706036745
 20
1.3292979002624672
 10
12.253018372703412
 20
1.3292979002624672
 10
12.269685039370078
 20
1.3126312335958006
 10
12.269685039370078
 20
1.2626312335958008
  0
LWPOLYLINE
  5
80
330
17
100
AcDbEntity
  8
NUMBERS
100
AcDbPolyline
 90
5
 70
0
 10
12.269685039370078
 20
1.355964566929134
 10
12.203018372703411
 20
1.355964566929134
 10
12.169685039370078
 20
1.3892979002624672
 10
12.203018372703411
 20
1.422631233595801
 10
12.269685039370078
 20
1.422631233595801
  0
LWPOLYLINE
  5
81
330
17
100
AcDbEntity
  8
NUMBERS
100
AcDbPolyline
 90
2
 70
0
 10
12.219685039370079
 20
1.355964566929134
 10
12.219685039370079
 20
1.422631233595801
  0
LWPOLYLINE
  5
82
330
17
100
AcDbEntity
  8
NUMBERS
100
AcDbPolyline
 90
6
 70
0
 10
12.169685039370078
 20
1.5159645669291342
 10
12.169685039370078
 20
1.4492979002624677
 10
12.269685039370078
 20
1.4492979002624677
 10
12.269685039370078
 20
1.5159645669291342
 10
12.219685039370079
 20
1.5159645669291342
 10
12.219685039370079
 20
1.4826312335958005
  0
LWPOLYLINE
  5
83
330
17
100
AcDbEntity
  8
NUMBERS
100
AcDbPolyline
 90
4
 70
0
 10
12.269685039370078
 20
1.5426312335958006
 10
12.169685039370078
 20
1.5426312335958006
 10
12.269685039370078
 20
1.6092979002624674
 10
12.169685039370078
 20
1.6092979002624674
  0
LWPOLYLINE
  5
84
330
17
100
AcDbEntity
  8
NUMBERS
100
AcDbPolyline
 90
4
 70
0
 10
12.169685039370078
 20
1.7026312335958007
 10
12.169685039370078
 20
1.6359645669291338
 10
12.269685039370078
 20
1.6359645669291338
 10
12.269685039370078
 20
1.7026312335958007
  0
LWPOLYLINE
  5
85
330
17
100
AcDbEntity
  8
NUMBERS
100
AcDbPolyline
 90
2
 70
0
 10
12.219685039370079
 20
1.6359645669291338
 10
12.219685039370079
 20
1.685964566929134
  0
LWPOLYLINE
  5
86
330
17
100
AcDbEntity
  8
NUMBERS
100
AcDbPolyline
 90
4
 70
0
 10
12.169685039370078
 20
1.7292979002624675
 10
12.269685039370078
 20
1.7292979002624675
 10
12.269685039370078
 20
1.795964566929134
 10
12.169685039370078
 20
1.795964566929134
  0
LWPOLYLINE
  5
87
330
17
100
AcDbEntity
  8
NUMBERS
100
AcDbPolyline
 90
2
 70
0
 10
12.269685039370078
 20
1.8226312335958004
 10
12.169685039370078
 20
1.8892979002624672
  0
LWPOLYLINE
  5
88
330
17
100
AcDbEntity
  8
NUMBERS
100
AcDbPolyline
 90
2
 70
0
 10
12.169685039370078
 20
1.8226312335958004
 10
12.269685039370078
 20
1.8892979002624672
  0
LWPOLYLINE
  5
89
330
17
100
AcDbEntity
  8
NUMBERS
100
AcDbPolyline
 90
6
 70
0
 10
12.169685039370078
 20
2.0759645669291342
 10
12.169685039370078
 20
2.0092979002624674
 10
12.219685039370079
 20
2.0092979002624674
 10
12.219685039370079
 20
2.0759645669291342
 10
12.269685039370078
 20
2.0759645669291342
 10
12.269685039370078
 20
2.0092979002624674
  0
LWPOLYLINE
  5
8A
330
17
100
AcDbEntity
  8
NUMBERS
100
AcDbPolyline
 90
5
 70
0
 10
12.169685039370078
 20
2.102631233595801
 10
12.269685039370078
 20
2.1192979002624672
 10
12.203018372703411
 20
2.1359645669291343
 10
12.269685039370078
 20
2.152631233595801
 10
12.169685039370078
 20
2.1692979002624675
  0
LWPOLYLINE
  5
8B
330
17
100
AcDbEntity
  8
NUMBERS
100
AcDbPolyline
 90
2
 70
0
 10
12.269685039370078
 20
2.212631233595801
 10
12.269685039370078
 20
2.2459645669291346
  0
LWPOLYLINE
  5
8C
330
17
100
AcDbEntity
  8
NUMBERS
100
AcDbPolyline
 90
2
 70
0
 10
12.269685039370078
 20
2.229297900262467
 10
12.169685039370078
 20
2.229297900262467
  0
LWPOLYLINE
  5
8D
330
17
100
AcDbEntity
  8
NUMBERS
100
AcDbPolyline
 90
2
 70
0
 10
12.169685039370078
 20
2.212631233595801
 10
12.169685039370078
 20
2.2459645669291346
  0
LWPOLYLINE
  5
8E
330
17
100
AcDbEntity
  8
NUMBERS
100
AcDbPolyline
 90
5
 70
0
 10
12.269685039370078
 20
2.2892979002624676
 10
12.169685039370078
 20
2.2892979002624676
 10
12.219685039370079
 20
2.322631233595801
 10
12.169685039370078
 20
2.355964566929134
 10
12.269685039370078
 20
2.355964566929134
  0
LWPOLYLINE
  5
8F
330
17
100
AcDbEntity
  8
NUMBERS
100
AcDbPolyline
 90
5
 70
0
 10
12.269685039370078
 20
2.3826312335958004
 10
12.169685039370078
 20
2.3826312335958004
 10
12.219685039370079
 20
2.4159645669291336
 10
12.169685039370078
 20
2.449297900262467
 10
12.269685039370078
 20
2.449297900262467
  0
LWPOLYLINE
  5
90
330
17
100
AcDbEntity
  8
NUMBERS
100
AcDbPolyline
 90
2
 70
0
 10
12.269685039370078
 20
2.4926312335958007
 10
12.269685039370078
 20
2.525964566929134
  0
LWPOLYLINE
  5
91
330
17
100
AcDbEntity
  8
NUMBERS
100
AcDbPolyline
 90
2
 70
0
 10
12.269685039370078
 20
2.5092979002624674
 10
12.169685039370078
 20
2.5092979002624674
  0
LWPOLYLINE
  5
92
330
17
100
AcDbEntity
  8
NUMBERS
100
AcDbPolyline
 90
2
 70
0
 10
12.169685039370078
 20
2.4926312335958007
 10
12.169685039370078
 20
2.525964566929134
  0
LWPOLYLINE
  5
93
330
17
100
AcDbEntity
  8
NUMBERS
100
AcDbPolyline
 90
4
 70
0
 10
12.269685039370078
 20
2.569297900262467
 10
12.169685039370078
 20
2.569297900262467
 10
12.269685039370078
 20
2.6359645669291343
 10
12.169685039370078
 20
2.6359645669291343
  0
LWPOLYLINE
  5
94
330
17
100
AcDbEntity
  8
NUMBERS
100
AcDbPolyline
 90
6
 70
0
 10
12.169685039370078
 20
2.7292979002624675
 10
12.169685039370078
 20
2.6626312335958007
 10
12.269685039370078
 20
2.6626312335958007
 10
12.269685039370078
 20
2.7292979002624675
 10
12.219685039370079
 20
2.7292979002624675
 10
12.219685039370079
 20
2.6959645669291343
  0
LWPOLYLINE
  5
95
330
17
100
AcDbEntity
  8
NUMBERS
100
AcDbPolyline
 90
5
 70
0
 10
12.269685039370078
 20
2.849297900262467
 10
12.169685039370078
 20
2.849297900262467
 10
12.169685039370078
 20
2.915964566929134
 10
12.219685039370079
 20
2.915964566929134
 10
12.219685039370079
 20
2.849297900262467
  0
LWPOLYLINE
  5
96
330
17
100
AcDbEntity
  8
NUMBERS
100
AcDbPolyline
 90
5
 70
0
 10
12.269685039370078
 20
2.942631233595801
 10
12.269685039370078
 20
3.0092979002624674
 10
12.169685039370078
 20
3.0092979002624674
 10
12.169685039370078
 20
2.942631233595801
 10
12.269685039370078
 20
2.942631233595801
  0
LWPOLYLINE
  5
97
330
17
100
AcDbEntity
  8
NUMBERS
100
AcDbPolyline
 90
5
 70
0
 10
12.269685039370078
 20
3.0359645669291337
 10
12.269685039370078
 20
3.102631233595801
 10
12.169685039370078
 20
3.102631233595801
 10
12.169685039370078
 20
3.0359645669291337
 10
12.269685039370078
 20
3.0359645669291337
  0
LWPOLYLINE
  5
98
330
17
100
AcDbEntity
  8
NUMBERS
100
AcDbPolyline
 90
3
 70
0
 10
12.169685039370078
 20
3.1292979002624675
 10
12.269685039370078
 20
3.1292979002624675
 10
12.269685039370078
 20
3.1959645669291343
  0
LWPOLYLINE
  5
99
330
17
100
AcDbEntity
  8
NUMBERS
100
AcDbPolyline
 90
4
 70
0
 10
12.169685039370078
 20
3.3826312335958004
 10
12.169685039370078
 20
3.315964566929134
 10
12.269685039370078
 20
3.315964566929134
 10
12.269685039370078
 20
3.3826312335958004
  0
LWPOLYLINE
  5
9A
330
17
100
AcDbEntity
  8
NUMBERS
100
AcDbPolyline
 90
2
 70
0
 10
12.219685039370079
 20
3.315964566929134
 10
12.219685039370079
 20
3.365964566929134
  0
LWPOLYLINE
  5
9B
330
17
100
AcDbEntity
  8
NUMBERS
100
AcDbPolyline
 90
2
 70
0
 10
12.269685039370078
 20
3.4092979002624673
 10
12.169685039370078
 20
3.475964566929134
  0
LWPOLYLINE
  5
9C
330
17
100
AcDbEntity
  8
NUMBERS
100
AcDbPolyline
 90
2
 70
0
 10
12.169685039370078
 20
3.4092979002624673
 10
12.269685039370078
 20
3.475964566929134
  0
LWPOLYLINE
  5
9D
330
17
100
AcDbEntity
  8
NUMBERS
100
AcDbPolyline
 90
2
 70
0
 10
12.169685039370078
 20
3.5026312335958005
 10
12.169685039370078
 20
3.569297900262467
  0
LWPOLYLINE
  5
9E
330
17
100
AcDbEntity
  8
NUMBERS
100
AcDbPolyline
 90
2
 70
0
 10
12.169685039370078
 20
3.5359645669291337
 10
12.269685039370078
 20
3.5359645669291337
  0
LWPOLYLINE
  5
9F
330
17
100
AcDbEntity
  8
NUMBERS
100
AcDbPolyline
 90
4
 70
0
 10
12.169685039370078
 20
3.662631233595801
 10
12.169685039370078
 20
3.5959645669291342
 10
12.269685039370078
 20
3.5959645669291342
 10
12.269685039370078
 20
3.662631233595801
  0
LWPOLYLINE
  5
A0
330
17
100
AcDbEntity
  8
NUMBERS
100
AcDbPolyline
 90
2
 70
0
 10
12.219685039370079
 20
3.5959645669291342
 10
12.219685039370079
 20
3.645964566929134
  0
LWPOLYLINE
  5
A1
330
17
100
AcDbEntity
  8
NUMBERS
100
AcDbPolyline
 90
4
 70
0
 10
12.269685039370078
 20
3.6892979002624675
 10
12.169685039370078
 20
3.6892979002624675
 10
12.269685039370078
 20
3.755964566929134
 10
12.169685039370078
 20
3.755964566929134
  0
LWPOLYLINE
  5
A2
330
17
100
AcDbEntity
  8
NUMBERS
100
AcDbPolyline
 90
6
 70
0
 10
12.169685039370078
 20
3.849297900262467
 10
12.169685039370078
 20
3.782631233595801
 10
12.219685039370079
 20
3.782631233595801
 10
12.219685039370079
 20
3.849297900262467
 10
12.269685039370078
 20
3.849297900262467
 10
12.269685039370078
 20
3.782631233595801
  0
LWPOLYLINE
  5
A3
330
17
100
AcDbEntity
  8
NUMBERS
100
AcDbPolyline
 90
2
 70
0
 10
12.269685039370078
 20
3.8926312335958007
 10
12.269685039370078
 20
3.925964566929134
  0
LWPOLYLINE
  5
A4
330
17
100
AcDbEntity
  8
NUMBERS
100
AcDbPolyline
 90
2
 70
0
 10
12.269685039370078
 20
3.9092979002624673
 10
12.169685039370078
 20
3.9092979002624673
  0
LWPOLYLINE
  5
A5
330
17
100
AcDbEntity
  8
NUMBERS
100
AcDbPolyline
 90
2
 70
0
 10
12.169685039370078
 20
3.8926312335958007
 10
12.169685039370078
 20
3.925964566929134
  0
LWPOLYLINE
  5
A6
330
17
100
AcDbEntity
  8
NUMBERS
100
AcDbPolyline
 90
5
 70
0
 10
12.269685039370078
 20
3.9692979002624673
 10
12.269685039370078
 20
4.035964566929134
 10
12.169685039370078
 20
4.035964566929134
 10
12.169685039370078
 20
3.9692979002624673
 10
12.269685039370078
 20
3.9692979002624673
  0
LWPOLYLINE
  5
A7
330
17
100
AcDbEntity
  8
NUMBERS
100
AcDbPolyline
 90
4
 70
0
 10
12.269685039370078
 20
4.062631233595801
 10
12.169685039370078
 20
4.062631233595801
 10
12.269685039370078
 20
4.129297900262468
 10
12.169685039370078
 20
4.129297900262468
  0
LWPOLYLINE
  5
A8
330
17
100
AcDbEntity
  8
NUMBERS
100
AcDbPolyline
 90
7
 70
0
 10
12.843832020997374
 20
1.2626312335958008
 10
12.783832020997375
 20
1.2626312335958008
 10
12.783832020997375
 20
1.2876312335958007
 10
12.798832020997374
 20
1.3026312335958008
 10
12.828832020997375
 20
1.3026312335958008
 10
12.843832020997374
 20
1.2876312335958007
 10
12.843832020997374
 20
1.2626312335958008
  0
LWPOLYLINE
  5
A9
330
17
100
AcDbEntity
  8
NUMBERS
100
AcDbPolyline
 90
5
 70
0
 10
12.843832020997374
 20
1.3186312335958008
 10
12.843832020997374
 20
1.3586312335958004
 10
12.783832020997375
 20
1.3586312335958004
 10
12.783832020997375
 20
1.3186312335958008
 10
12.843832020997374
 20
1.3186312335958008
  0
LWPOLYLINE
  5
AA
330
17
100
AcDbEntity
  8
NUMBERS
100
AcDbPolyline
 90
5
 70
0
 10
12.843832020997374
 20
1.3746312335958009
 10
12.783832020997375
 20
1.3746312335958009
 10
12.813832020997374
 20
1.3946312335958004
 10
12.783832020997375
 20
1.4146312335958005
 10
12.843832020997374
 20
1.4146312335958005
  0
LWPOLYLINE
  5
AB
330
17
100
AcDbEntity
  8
NUMBERS
100
AcDbPolyline
 90
2
 70
0
 10
12.843832020997374
 20
1.4406312335958007
 10
12.843832020997374
 20
1.4606312335958007
  0
LWPOLYLINE
  5
AC
330
17
100
AcDbEntity
  8
NUMBERS
100
AcDbPolyline
 90
2
 70
0
 10
12.843832020997374
 20
1.4506312335958005
 10
12.783832020997375
 20
1.4506312335958005
  0
LWPOLYLINE
  5
AD
330
17
100
AcDbEntity
  8
NUMBERS
100
AcDbPolyline
 90
2
 70
0
 10
12.783832020997375
 20
1.4406312335958007
 10
12.783832020997375
 20
1.4606312335958007
  0
LWPOLYLINE
  5
AE
330
17
100
AcDbEntity
  8
NUMBERS
100
AcDbPolyline
 90
4
 70
0
 10
12.843832020997374
 20
1.4866312335958005
 10
12.783832020997375
 20
1.4866312335958005
 10
12.843832020997374
 20
1.5266312335958006
 10
12.783832020997375
 20
1.5266312335958006
  0
LWPOLYLINE
  5
AF
330
17
100
AcDbEntity
  8
NUMBERS
100
AcDbPolyline
 90
2
 70
0
 10
12.843832020997374
 20
1.5526312335958008
 10
12.843832020997374
 20
1.5726312335958008
  0
LWPOLYLINE
  5
B0
330
17
100
AcDbEntity
  8
NUMBERS
100
AcDbPolyline
 90
2
 70
0
 10
12.843832020997374
 20
1.5626312335958006
 10
12.783832020997375
 20
1.5626312335958006
  0
LWPOLYLINE
  5
B1
330
17
100
AcDbEntity
  8
NUMBERS
100
AcDbPolyline
 90
2
 70
0
 10
12.783832020997375
 20
1.5526312335958008
 10
12.783832020997375
 20
1.5726312335958008
  0
LWPOLYLINE
  5
B2
330
17
100
AcDbEntity
  8
NUMBERS
100
AcDbPolyline
 90
5
 70
0
 10
12.843832020997374
 20
1.5986312335958006
 10
12.843832020997374
 20
1.6386312335958007
 10
12.783832020997375
 20
1.6386312335958007
 10
12.783832020997375
 20
1.5986312335958006
 10
12.843832020997374
 20
1.5986312335958006
  0
LWPOLYLINE
  5
B3
330
17
100
AcDbEntity
  8
NUMBERS
100
AcDbPolyline
 90
2
 70
0
 10
12.828832020997375
 20
1.6236312335958005
 10
12.848832020997374
 20
1.6436312335958005
  0
LWPOLYLINE
  5
B4
330
17
100
AcDbEntity
  8
NUMBERS
100
AcDbPolyline
 90
4
 70
0
 10
12.783832020997375
 20
1.6546312335958007
 10
12.843832020997374
 20
1.6546312335958007
 10
12.843832020997374
 20
1.6946312335958007
 10
12.783832020997375
 20
1.6946312335958007
  0
LWPOLYLINE
  5
B5
330
17
100
AcDbEntity
  8
NUMBERS
100
AcDbPolyline
 90
4
 70
0
 10
12.783832020997375
 20
1.7506312335958003
 10
12.783832020997375
 20
1.7106312335958007
 10
12.843832020997374
 20
1.7106312335958007
 10
12.843832020997374
 20
1.7506312335958003
  0
LWPOLYLINE
  5
B6
330
17
100
AcDbEntity
  8
NUMBERS
100
AcDbPolyline
 90
2
 70
0
 10
12.813832020997374
 20
1.7106312335958007
 10
12.813832020997374
 20
1.7406312335958005
  0
LWPOLYLINE
  5
B7
330
17
100
AcDbEntity
  8
NUMBERS
100
AcDbPolyline
 90
4
 70
0
 10
12.783832020997375
 20
1.8626312335958004
 10
12.783832020997375
 20
1.8226312335958004
 10
12.843832020997374
 20
1.8226312335958004
 10
12.843832020997374
 20
1.8626312335958004
  0
LWPOLYLINE
  5
B8
330
17
100
AcDbEntity
  8
NUMBERS
100
AcDbPolyline
 90
5
 70
0
 10
12.843832020997374
 20
1.8786312335958004
 10
12.843832020997374
 20
1.9186312335958005
 10
12.783832020997375
 20
1.9186312335958005
 10
12.783832020997375
 20
1.8786312335958004
 10
12.843832020997374
 20
1.8786312335958004
  0
LWPOLYLINE
  5
B9
330
17
100
AcDbEntity
  8
NUMBERS
100
AcDbPolyline
 90
4
 70
0
 10
12.783832020997375
 20
1.9346312335958005
 10
12.843832020997374
 20
1.9346312335958005
 10
12.843832020997374
 20
1.9746312335958005
 10
12.783832020997375
 20
1.9746312335958005
  0
LWPOLYLINE
  5
BA
330
17
100
AcDbEntity
  8
NUMBERS
100
AcDbPolyline
 90
3
 70
0
 10
12.783832020997375
 20
1.990631233595801
 10
12.843832020997374
 20
1.990631233595801
 10
12.843832020997374
 20
2.030631233595801
  0
LWPOLYLINE
  5
BB
330
17
100
AcDbEntity
  8
NUMBERS
100
AcDbPolyline
 90
5
 70
0
 10
12.843832020997374
 20
2.0466312335958006
 10
12.843832020997374
 20
2.0866312335958006
 10
12.783832020997375
 20
2.0866312335958006
 10
12.783832020997375
 20
2.0466312335958006
 10
12.843832020997374
 20
2.0466312335958006
  0
LWPOLYLINE
  5
BC
330
17
100
AcDbEntity
  8
NUMBERS
100
AcDbPolyline
 90
4
 70
0
 10
12.843832020997374
 20
2.102631233595801
 10
12.783832020997375
 20
2.102631233595801
 10
12.843832020997374
 20
2.142631233595801
 10
12.783832020997375
 20
2.142631233595801
  0
LWPOLYLINE
  5
BD
330
17
100
AcDbEntity
  8
NUMBERS
100
AcDbPolyline
 90
8
 70
0
 10
12.843832020997374
 20
2.2546312335958008
 10
12.798832020997374
 20
2.2196312335958006
 10
12.783832020997375
 20
2.229631233595801
 10
12.798832020997374
 20
2.2396312335958006
 10
12.828832020997375
 20
2.2146312335958007
 10
12.843832020997374
 20
2.224631233595801
 10
12.843832020997374
 20
2.2396312335958006
 10
12.823832020997374
 20
2.2546312335958008
  0
LWPOLYLINE
  5
BE
330
17
100
AcDbEntity
  8
NUMBERS
100
AcDbPolyline
 90
5
 70
0
 10
12.843832020997374
 20
2.326631233595801
 10
12.803832020997374
 20
2.326631233595801
 10
12.783832020997375
 20
2.346631233595801
 10
12.803832020997374
 20
2.3666312335958004
 10
12.843832020997374
 20
2.3666312335958004
  0
LWPOLYLINE
  5
BF
330
17
100
AcDbEntity
  8
NUMBERS
100
AcDbPolyline
 90
2
 70
0
 10
12.813832020997374
 20
2.326631233595801
 10
12.813832020997374
 20
2.3666312335958004
  0
LWPOLYLINE
  5
C0
330
17
100
AcDbEntity
  8
NUMBERS
100
AcDbPolyline
 90
6
 70
0
 10
12.783832020997375
 20
2.4226312335958005
 10
12.783832020997375
 20
2.382631233595801
 10
12.813832020997374
 20
2.382631233595801
 10
12.813832020997374
 20
2.4226312335958005
 10
12.843832020997374
 20
2.4226312335958005
 10
12.843832020997374
 20
2.382631233595801
  0
LWPOLYLINE
  5
C1
330
17
100
AcDbEntity
  8
NUMBERS
100
AcDbPolyline
 90
6
 70
0
 10
12.783832020997375
 20
2.4786312335958005
 10
12.783832020997375
 20
2.4386312335958005
 10
12.813832020997374
 20
2.4386312335958005
 10
12.813832020997374
 20
2.4786312335958005
 10
12.843832020997374
 20
2.4786312335958005
 10
12.843832020997374
 20
2.4386312335958005
  0
LWPOLYLINE
  5
C2
330
17
100
AcDbEntity
  8
NUMBERS
100
AcDbPolyline
 90
5
 70
0
 10
12.843832020997374
 20
2.4946312335958005
 10
12.843832020997374
 20
2.5346312335958006
 10
12.783832020997375
 20
2.5346312335958006
 10
12.783832020997375
 20
2.4946312335958005
 10
12.843832020997374
 20
2.4946312335958005
  0
LWPOLYLINE
  5
C3
330
17
100
AcDbEntity
  8
NUMBERS
100
AcDbPolyline
 90
4
 70
0
 10
12.783832020997375
 20
2.5906312335958006
 10
12.783832020997375
 20
2.5506312335958006
 10
12.843832020997374
 20
2.5506312335958006
 10
12.843832020997374
 20
2.5906312335958006
  0
LWPOLYLINE
  5
C4
330
17
100
AcDbEntity
  8
NUMBERS
100
AcDbPolyline
 90
2
 70
0
 10
12.843832020997374
 20
2.6166312335958004
 10
12.843832020997374
 20
2.6366312335958004
  0
LWPOLYLINE
  5
C5
330
17
100
AcDbEntity
  8
NUMBERS
100
AcDbPolyline
 90
2
 70
0
 10
12.843832020997374
 20
2.6266312335958
 10
12.783832020997375
 20
2.6266312335958
  0
LWPOLYLINE
  5
C6
330
17
100
AcDbEntity
  8
NUMBERS
100
AcDbPolyline
 90
2
 70
0
 10
12.783832020997375
 20
2.6166312335958004
 10
12.783832020997375
 20
2.6366312335958004
  0
LWPOLYLINE
  5
C7
330
17
100
AcDbEntity
  8
NUMBERS
100
AcDbPolyline
 90
4
 70
0
 10
12.783832020997375
 20
2.7026312335958007
 10
12.783832020997375
 20
2.6626312335958007
 10
12.843832020997374
 20
2.6626312335958007
 10
12.843832020997374
 20
2.7026312335958007
  0
LWPOLYLINE
  5
C8
330
17
100
AcDbEntity
  8
NUMBERS
100
AcDbPolyline
 90
2
 70
0
 10
12.813832020997374
 20
2.6626312335958007
 10
12.813832020997374
 20
2.692631233595801
  0
LWPOLYLINE
  5
C9
330
17
100
AcDbEntity
  8
NUMBERS
100
AcDbPolyline
 90
6
 70
0
 10
12.783832020997375
 20
2.7586312335958008
 10
12.783832020997375
 20
2.7186312335958007
 10
12.813832020997374
 20
2.7186312335958007
 10
12.813832020997374
 20
2.7586312335958008
 10
12.843832020997374
 20
2.7586312335958008
 10
12.843832020997374
 20
2.7186312335958007
  0
LWPOLYLINE
  5
CA
330
17
100
AcDbEntity
  8
NUMBERS
100
AcDbPolyline
 90
3
 70
0
 10
12.793832020997375
 20
2.9526312335958007
 10
12.783832020997375
 20
2.9626312335958005
 10
12.843832020997374
 20
2.9626312335958005
  0
LWPOLYLINE
  5
CB
330
17
100
AcDbEntity
  8
NUMBERS
100
AcDbPolyline
 90
2
 70
0
 10
12.843832020997374
 20
2.9526312335958007
 10
12.843832020997374
 20
2.9726312335958003
  0
LWPOLYLINE
  5
CC
330
17
100
AcDbEntity
  8
NUMBERS
100
AcDbPolyline
 90
2
 70
0
 10
12.833832020997374
 20
3.0166312335958008
 10
12.833832020997374
 20
3.0206312335958003
  0
LWPOLYLINE
  5
CD
330
17
100
AcDbEntity
  8
NUMBERS
100
AcDbPolyline
 90
2
 70
0
 10
12.803832020997374
 20
3.0166312335958008
 10
12.803832020997374
 20
3.0206312335958003
  0
LWPOLYLINE
  5
CE
330
17
100
AcDbEntity
  8
NUMBERS
100
AcDbPolyline
 90
3
 70
0
 10
12.793832020997375
 20
3.064631233595801
 10
12.783832020997375
 20
3.0746312335958006
 10
12.843832020997374
 20
3.0746312335958006
  0
LWPOLYLINE
  5
CF
330
17
100
AcDbEntity
  8
NUMBERS
100
AcDbPolyline
 90
2
 70
0
 10
12.843832020997374
 20
3.064631233595801
 10
12.843832020997374
 20
3.0846312335958004
  0
LWPOLYLINE
  5
D0
330
17
100
AcDbEntity
  8
NUMBERS
100
AcDbPolyline
 90
7
 70
0
 10
12.843832020997374
 20
3.1106312335958006
 10
12.843832020997374
 20
3.1406312335958004
 10
12.833832020997374
 20
3.1506312335958007
 10
12.783832020997375
 20
3.1506312335958007
 10
12.783832020997375
 20
3.1106312335958006
 10
12.813832020997374
 20
3.1106312335958006
 10
12.813832020997374
 20
3.1506312335958007
  0
LWPOLYLINE
  5
D1
330
17
100
AcDbEntity
  8
NUMBERS
100
AcDbPolyline
 90
7
 70
0
 10
12.793832020997375
 20
3.1666312335958007
 10
12.783832020997375
 20
3.1766312335958005
 10
12.783832020997375
 20
3.1966312335958005
 10
12.793832020997375
 20
3.2066312335958003
 10
12.803832020997374
 20
3.2066312335958003
 10
12.843832020997374
 20
3.1666312335958007
 10
12.843832020997374
 20
3.2066312335958003
  0
LWPOLYLINE
  5
D2
330
17
100
AcDbEntity
  8
NUMBERS
100
AcDbPolyline
 90
4
 70
0
 10
12.783832020997375
 20
3.3086312335958006
 10
12.798832020997374
 20
3.2936312335958005
 10
12.828832020997375
 20
3.2936312335958005
 10
12.843832020997374
 20
3.3086312335958006
  0
LWPOLYLINE
  5
D3
330
17
100
AcDbEntity
  8
NUMBERS
100
AcDbPolyline
 90
3
 70
0
 10
12.793832020997375
 20
3.3446312335958006
 10
12.783832020997375
 20
3.3546312335958004
 10
12.843832020997374
 20
3.3546312335958004
  0
LWPOLYLINE
  5
D4
330
17
100
AcDbEntity
  8
NUMBERS
100
AcDbPolyline
 90
2
 70
0
 10
12.843832020997374
 20
3.3446312335958006
 10
12.843832020997374
 20
3.3646312335958006
  0
LWPOLYLINE
  5
D5
330
17
100
AcDbEntity
  8
NUMBERS
100
AcDbPolyline
 90
2
 70
0
 10
12.843832020997374
 20
3.3906312335958004
 10
12.783832020997375
 20
3.4306312335958005
  0
LWPOLYLINE
  5
D6
330
17
100
AcDbEntity
  8
NUMBERS
100
AcDbPolyline
 90
3
 70
0
 10
12.793832020997375
 20
3.4566312335958003
 10
12.783832020997375
 20
3.4666312335958005
 10
12.843832020997374
 20
3.4666312335958005
  0
LWPOLYLINE
  5
D7
330
17
100
AcDbEntity
  8
NUMBERS
100
AcDbPolyline
 90
2
 70
0
 10
12.843832020997374
 20
3.4566312335958003
 10
12.843832020997374
 20
3.4766312335958003
  0
LWPOLYLINE
  5
D8
330
17
100
AcDbEntity
  8
NUMBERS
100
AcDbPolyline
 90
7
 70
0
 10
12.783832020997375
 20
3.542631233595801
 10
12.783832020997375
 20
3.5126312335958008
 10
12.793832020997375
 20
3.502631233595801
 10
12.843832020997374
 20
3.502631233595801
 10
12.843832020997374
 20
3.542631233595801
 10
12.813832020997374
 20
3.542631233595801
 10
12.813832020997374
 20
3.502631233595801
  0
LWPOLYLINE
  5
D9
330
17
100
AcDbEntity
  8
NUMBERS
100
AcDbPolyline
 90
2
 70
0
 10
12.843832020997374
 20
3.6246312335958004
 10
12.843832020997374
 20
3.6446312335958004
  0
LWPOLYLINE
  5
DA
330
17
100
AcDbEntity
  8
NUMBERS
100
AcDbPolyline
 90
2
 70
0
 10
12.843832020997374
 20
3.6346312335958
 10
12.783832020997375
 20
3.6346312335958
  0
LWPOLYLINE
  5
DB
330
17
100
AcDbEntity
  8
NUMBERS
100
AcDbPolyline
 90
2
 70
0
 10
12.783832020997375
 20
3.6246312335958004
 10
12.783832020997375
 20
3.6446312335958004
  0
LWPOLYLINE
  5
DC
330
17
100
AcDbEntity
  8
NUMBERS
100
AcDbPolyline
 90
4
 70
0
 10
12.843832020997374
 20
3.6706312335958007
 10
12.783832020997375
 20
3.6706312335958007
 10
12.843832020997374
 20
3.7106312335958007
 10
12.783832020997375
 20
3.7106312335958007
  0
LWPOLYLINE
  5
DD
330
17
100
AcDbEntity
  8
NUMBERS
100
AcDbPolyline
 90
2
 70
0
 10
12.823832020997374
 20
3.7876312335958002
 10
12.823832020997374
 20
3.8176312335958005
  0
LWPOLYLINE
  5
DE
330
17
100
AcDbEntity
  8
NUMBERS
100
AcDbPolyline
 90
2
 70
0
 10
12.803832020997374
 20
3.7876312335958002
 10
12.803832020997374
 20
3.8176312335958005
  0
LWPOLYLINE
  5
DF
330
17
100
AcDbEntity
  8
NUMBERS
100
AcDbPolyline
 90
3
 70
0
 10
12.793832020997375
 20
3.9046312335958007
 10
12.783832020997375
 20
3.914631233595801
 10
12.843832020997374
 20
3.914631233595801
  0
LWPOLYLINE
  5
E0
330
17
100
AcDbEntity
  8
NUMBERS
100
AcDbPolyline
 90
2
 70
0
 10
12.843832020997374
 20
3.9046312335958007
 10
12.843832020997374
 20
3.9246312335958007
  0
LWPOLYLINE
  5
E1
330
17
100
AcDbEntity
  8
NUMBERS
100
AcDbPolyline
 90
3
 70
0
 10
12.783832020997375
 20
4.0466312335958
 10
12.783832020997375
 20
4.006631233595801
 10
12.843832020997374
 20
4.006631233595801
  0
LWPOLYLINE
  5
E2
330
17
100
AcDbEntity
  8
NUMBERS
100
AcDbPolyline
 90
2
 70
0
 10
12.813832020997374
 20
4.006631233595801
 10
12.813832020997374
 20
4.0366312335958
  0
LWPOLYLINE
  5
E3
330
17
100
AcDbEntity
  8
NUMBERS
100
AcDbPolyline
 90
2
 70
0
 10
12.783832020997375
 20
4.0626312335958
 10
12.783832020997375
 20
4.102631233595801
  0
LWPOLYLINE
  5
E4
330
17
100
AcDbEntity
  8
NUMBERS
100
AcDbPolyline
 90
2
 70
0
 10
12.783832020997375
 20
4.082631233595801
 10
12.843832020997374
 20
4.082631233595801
  0
LWPOLYLINE
  5
E5
330
17
100
AcDbEntity
  8
NUMBERS
100
AcDbPolyline
 90
4
 70
0
 10
12.783832020997375
 20
4.128631233595801
 10
12.798832020997374
 20
4.1436312335958
 10
12.828832020997375
 20
4.1436312335958
 10
12.843832020997374
 20
4.128631233595801
  0
LWPOLYLINE
  5
E6
330
17
100
AcDbEntity
  8
NUMBERS
100
AcDbPolyline
 90
5
 70
0
 10
12.556758530183727
 20
11.836614173228346
 10
12.556758530183727
 20
11.876614173228347
 10
12.496758530183726
 20
11.876614173228347
 10
12.496758530183726
 20
11.836614173228346
 10
12.556758530183727
 20
11.836614173228346
  0
LWPOLYLINE
  5
E7
330
17
100
AcDbEntity
  8
NUMBERS
100
AcDbPolyline
 90
2
 70
0
 10
12.556758530183727
 20
11.836614173228346
 10
12.496758530183726
 20
11.876614173228347
  0
LWPOLYLINE
  5
E8
330
17
100
AcDbEntity
  8
NUMBERS
100
AcDbPolyline
 90
3
 70
0
 10
12.506758530183726
 20
13.815118110236222
 10
12.496758530183726
 20
13.82511811023622
 10
12.556758530183727
 20
13.82511811023622
  0
LWPOLYLINE
  5
E9
330
17
100
AcDbEntity
  8
NUMBERS
100
AcDbPolyline
 90
2
 70
0
 10
12.556758530183727
 20
13.815118110236222
 10
12.556758530183727
 20
13.835118110236222
  0
LWPOLYLINE
  5
EA
330
17
100
AcDbEntity
  8
NUMBERS
100
AcDbPolyline
 90
5
 70
0
 10
12.556758530183727
 20
13.861118110236221
 10
12.556758530183727
 20
13.901118110236222
 10
12.496758530183726
 20
13.901118110236222
 10
12.496758530183726
 20
13.861118110236221
 10
12.556758530183727
 20
13.861118110236221
  0
LWPOLYLINE
  5
EB
330
17
100
AcDbEntity
  8
NUMBERS
100
AcDbPolyline
 90
2
 70
0
 10
12.556758530183727
 20
13.861118110236221
 10
12.496758530183726
 20
13.901118110236222
  0
LWPOLYLINE
  5
EC
330
17
100
AcDbEntity
  8
NUMBERS
100
AcDbPolyline
 90
7
 70
0
 10
12.506758530183726
 20
15.855643044619423
 10
12.496758530183726
 20
15.865643044619423
 10
12.496758530183726
 20
15.885643044619423
 10
12.506758530183726
 20
15.895643044619424
 10
12.516758530183726
 20
15.895643044619424
 10
12.556758530183727
 20
15.855643044619423
 10
12.556758530183727
 20
15.895643044619424
  0
LWPOLYLINE
  5
ED
330
17
100
AcDbEntity
  8
NUMBERS
100
AcDbPolyline
 90
5
 70
0
 10
12.556758530183727
 20
15.911643044619423
 10
12.556758530183727
 20
15.951643044619424
 10
12.496758530183726
 20
15.951643044619424
 10
12.496758530183726
 20
15.911643044619423
 10
12.556758530183727
 20
15.911643044619423
  0
LWPOLYLINE
  5
EE
330
17
100
AcDbEntity
  8
NUMBERS
100
AcDbPolyline
 90
2
 70
0
 10
12.556758530183727
 20
15.911643044619423
 10
12.496758530183726
 20
15.951643044619424
  0
LWPOLYLINE
  5
EF
330
17
100
AcDbEntity
  8
NUMBERS
100
AcDbPolyline
 90
5
 70
0
 10
12.556758530183727
 20
16.023643044619423
 10
12.496758530183726
 20
16.023643044619423
 10
12.526758530183725
 20
16.043643044619422
 10
12.496758530183726
 20
16.063643044619425
 10
12.556758530183727
 20
16.063643044619425
  0
LWPOLYLINE
  5
F0
330
17
100
AcDbEntity
  8
NUMBERS
100
AcDbPolyline
 90
4
 70
0
 10
1.5252624671916006
 20
16.04019028871391
 10
1.425262467191601
 20
16.04019028871391
 10
1.5252624671916006
 20
16.10685695538058
 10
1.425262467191601
 20
16.10685695538058
  0
LWPOLYLINE
  5
F1
330
17
100
AcDbEntity
  8
NUMBERS
100
AcDbPolyline
 90
6
 70
0
 10
13.54
 20
0.7833333333333333
 10
13.54
 20
0.75
 10
13.565
 20
0.75
 10
13.565
 20
0.7833333333333333
 10
13.59
 20
0.7833333333333333
 10
13.59
 20
0.75
  0
LWPOLYLINE
  5
F2
330
17
100
AcDbEntity
  8
NUMBERS
100
AcDbPolyline
 90
2
 70
0
 10
13.59
 20
0.8049999999999999
 10
13.59
 20
0.8216666666666667
  0
LWPOLYLINE
  5
F3
330
17
100
AcDbEntity
  8
NUMBERS
100
AcDbPolyline
 90
2
 70
0
 10
13.59
 20
0.8133333333333334
 10
13.54
 20
0.8133333333333334
  0
LWPOLYLINE
  5
F4
330
17
100
AcDbEntity
  8
NUMBERS
100
AcDbPolyline
 90
2
 70
0
 10
13.54
 20
0.8049999999999999
 10
13.54
 20
0.8216666666666667
  0
LWPOLYLINE
  5
F5
330
17
100
AcDbEntity
  8
NUMBERS
100
AcDbPolyline
 90
5
 70
0
 10
13.59
 20
0.8433333333333333
 10
13.59
 20
0.8766666666666667
 10
13.54
 20
0.8766666666666667
 10
13.54
 20
0.8433333333333333
 10
13.59
 20
0.8433333333333333
  0
LWPOLYLINE
  5
F6
330
17
100
AcDbEntity
  8
NUMBERS
100
AcDbPolyline
 90
2
 70
0
 10
13.59
 20
0.8433333333333333
 10
13.54
 20
0.8766666666666667
  0
LWPOLYLINE
  5
F7
330
17
100
AcDbEntity
  8
NUMBERS
100
AcDbPolyline
 90
5
 70
0
 10
13.59
 20
0.89
 10
13.59
 20
0.9233333333333333
 10
13.54
 20
0.9233333333333333
 10
13.54
 20
0.89
 10
13.59
 20
0.89
  0
LWPOLYLINE
  5
F8
330
17
100
AcDbEntity
  8
NUMBERS
100
AcDbPolyline
 90
2
 70
0
 10
13.59
 20
0.89
 10
13.54
 20
0.9233333333333333
  0
LWPOLYLINE
  5
F9
330
17
100
AcDbEntity
  8
NUMBERS
100
AcDbPolyline
 90
7
 70
0
 10
13.54
 20
0.9366666666666666
 10
13.54
 20
0.97
 10
13.560833333333333
 20
0.9533333333333334
 10
13.569166666666666
 20
0.97
 10
13.581666666666667
 20
0.97
 10
13.59
 20
0.9616666666666667
 10
13.59
 20
0.9366666666666666
  0
LWPOLYLINE
  5
FA
330
17
100
AcDbEntity
  8
NUMBERS
100
AcDbPolyline
 90
6
 70
0
 10
24.158403016237877
 20
5.391438095040518
 10
24.198401140200595
 20
5.391050694133296
 10
24.198691690881013
 20
5.421049287105335
 10
24.15869356691829
 20
5.421436688012557
 10
24.15898411759871
 20
5.451435280984597
 10
24.19898224156143
 20
5.451047880077375
  0
LWPOLYLINE
  5
FB
330
17
100
AcDbEntity
  8
NUMBERS
100
AcDbPolyline
 90
2
 70
0
 10
24.13298533702294
 20
5.451687091574293
 10
24.11298627504158
 20
5.451880792027904
  0
LWPOLYLINE
  5
FC
330
17
100
AcDbEntity
  8
NUMBERS
100
AcDbPolyline
 90
2
 70
0
 10
24.12298580603226
 20
5.451783941801098
 10
24.122404704671425
 20
5.3917867558570185
  0
LWPOLYLINE
  5
FD
330
17
100
AcDbEntity
  8
NUMBERS
100
AcDbPolyline
 90
2
 70
0
 10
24.132404235662108
 20
5.391689905630213
 10
24.11240517368075
 20
5.391883606083824
  0
LWPOLYLINE
  5
FE
330
17
100
AcDbEntity
  8
NUMBERS
100
AcDbPolyline
 90
5
 70
0
 10
24.086987494465816
 20
5.452132602617599
 10
24.046989370503095
 20
5.452520003524822
 10
24.046408269142262
 20
5.392522817580742
 10
24.08640639310498
 20
5.392135416673519
 10
24.086987494465816
 20
5.452132602617599
  0
LWPOLYLINE
  5
FF
330
17
100
AcDbEntity
  8
NUMBERS
100
AcDbPolyline
 90
2
 70
0
 10
24.086987494465816
 20
5.452132602617599
 10
24.046408269142262
 20
5.392522817580742
  0
LWPOLYLINE
  5
100
330
17
100
AcDbEntity
  8
NUMBERS
100
AcDbPolyline
 90
5
 70
0
 10
24.030990120918005
 20
5.452674963887711
 10
23.990991996955287
 20
5.453062364794934
 10
23.99041089559445
 20
5.393065178850854
 10
24.030409019557172
 20
5.392677777943631
 10
24.030990120918005
 20
5.452674963887711
  0
LWPOLYLINE
  5
101
330
17
100
AcDbEntity
  8
NUMBERS
100
AcDbPolyline
 90
2
 70
0
 10
24.030990120918005
 20
5.452674963887711
 10
23.99041089559445
 20
5.393065178850854
  0
LWPOLYLINE
  5
102
330
17
100
AcDbEntity
  8
NUMBERS
100
AcDbPolyline
 90
4
 70
0
 10
23.94499415439816
 20
5.45350787583824
 10
23.944413053037323
 20
5.3935106898941605
 10
23.974799046916587
 20
5.433218263176462
 10
23.93480092295387
 20
5.433605664083685
  0
LWPOLYLINE
  5
103
330
17
100
AcDbEntity
  8
NUMBERS
100
AcDbPolyline
 90
5
 70
0
 10
28.82262046287761
 20
0.75
 10
28.772620462877608
 20
0.75
 10
28.772620462877608
 20
0.7833333333333333
 10
28.797620462877607
 20
0.7833333333333333
 10
28.797620462877607
 20
0.75
  0
LWPOLYLINE
  5
104
330
17
100
AcDbEntity
  8
NUMBERS
100
AcDbPolyline
 90
5
 70
0
 10
28.82262046287761
 20
0.7966666666666666
 10
28.82262046287761
 20
0.83
 10
28.772620462877608
 20
0.83
 10
28.772620462877608
 20
0.7966666666666666
 10
28.82262046287761
 20
0.7966666666666666
  0
LWPOLYLINE
  5
105
330
17
100
AcDbEntity
  8
NUMBERS
100
AcDbPolyline
 90
5
 70
0
 10
28.82262046287761
 20
0.8433333333333333
 10
28.82262046287761
 20
0.8766666666666667
 10
28.772620462877608
 20
0.8766666666666667
 10
28.772620462877608
 20
0.8433333333333333
 10
28.82262046287761
 20
0.8433333333333333
  0
LWPOLYLINE
  5
106
330
17
100
AcDbEntity
  8
NUMBERS
100
AcDbPolyline
 90
2
 70
0
 10
28.82262046287761
 20
0.8433333333333333
 10
28.772620462877608
 20
0.8766666666666667
  0
LWPOLYLINE
  5
107
330
17
100
AcDbEntity
  8
NUMBERS
100
AcDbPolyline
 90
5
 70
0
 10
28.82262046287761
 20
0.89
 10
28.82262046287761
 20
0.9233333333333333
 10
28.772620462877608
 20
0.9233333333333333
 10
28.772620462877608
 20
0.89
 10
28.82262046287761
 20
0.89
  0
LWPOLYLINE
  5
108
330
17
100
AcDbEntity
  8
NUMBERS
100
AcDbPolyline
 90
2
 70
0
 10
28.82262046287761
 20
0.89
 10
28.772620462877608
 20
0.9233333333333333
  0
LWPOLYLINE
  5
109
330
17
100
AcDbEntity
  8
NUMBERS
100
AcDbPolyline
 90
7
 70
0
 10
28.772620462877608
 20
0.9366666666666666
 10
28.772620462877608
 20
0.97
 10
28.79345379621094
 20
0.9533333333333334
 10
28.801787129544273
 20
0.97
 10
28.814287129544272
 20
0.97
 10
28.82262046287761
 20
0.9616666666666667
 10
28.82262046287761
 20
0.9366666666666666
  0
LWPOLYLINE
  5
10A
330
17
100
AcDbEntity
  8
NUMBERS
100
AcDbPolyline
 90
5
 70
0
 10
28.822620462877605
 20
6.198279247802773
 10
28.772620462877605
 20
6.198279247802773
 10
28.772620462877605
 20
6.2316125811361065
 10
28.797620462877607
 20
6.2316125811361065
 10
28.797620462877607
 20
6.198279247802773
  0
LWPOLYLINE
  5
10B
330
17
100
AcDbEntity
  8
NUMBERS
100
AcDbPolyline
 90
5
 70
0
 10
28.822620462877605
 20
6.24494591446944
 10
28.822620462877605
 20
6.278279247802773
 10
28.772620462877605
 20
6.278279247802773
 10
28.772620462877605
 20
6.24494591446944
 10
28.822620462877605
 20
6.24494591446944
  0
LWPOLYLINE
  5
10C
330
17
100
AcDbEntity
  8
NUMBERS
100
AcDbPolyline
 90
5
 70
0
 10
28.822620462877605
 20
6.291612581136107
 10
28.822620462877605
 20
6.32494591446944
 10
28.772620462877605
 20
6.32494591446944
 10
28.772620462877605
 20
6.291612581136107
 10
28.822620462877605
 20
6.291612581136107
  0
LWPOLYLINE
  5
10D
330
17
100
AcDbEntity
  8
NUMBERS
100
AcDbPolyline
 90
2
 70
0
 10
28.822620462877605
 20
6.291612581136107
 10
28.772620462877605
 20
6.32494591446944
  0
LWPOLYLINE
  5
10E
330
17
100
AcDbEntity
  8
NUMBERS
100
AcDbPolyline
 90
5
 70
0
 10
28.822620462877605
 20
6.338279247802773
 10
28.822620462877605
 20
6.371612581136106
 10
28.772620462877605
 20
6.371612581136106
 10
28.772620462877605
 20
6.338279247802773
 10
28.822620462877605
 20
6.338279247802773
  0
LWPOLYLINE
  5
10F
330
17
100
AcDbEntity
  8
NUMBERS
100
AcDbPolyline
 90
2
 70
0
 10
28.822620462877605
 20
6.338279247802773
 10
28.772620462877605
 20
6.371612581136106
  0
LWPOLYLINE
  5
110
330
17
100
AcDbEntity
  8
NUMBERS
100
AcDbPolyline
 90
5
 70
0
 10
28.822620462877605
 20
6.38494591446944
 10
28.822620462877605
 20
6.418279247802773
 10
28.797620462877607
 20
6.418279247802773
 10
28.797620462877607
 20
6.38494591446944
 10
28.822620462877605
 20
6.38494591446944
  0
LWPOLYLINE
  5
111
330
17
100
AcDbEntity
  8
NUMBERS
100
AcDbPolyline
 90
4
 70
0
 10
28.797620462877607
 20
6.389112581136106
 10
28.772620462877605
 20
6.389112581136106
 10
28.772620462877605
 20
6.414112581136107
 10
28.797620462877607
 20
6.414112581136107
  0
LWPOLYLINE
  5
112
330
17
100
AcDbEntity
  8
NUMBERS
100
AcDbPolyline
 90
6
 70
0
 10
0.6033333333333334
 20
0.28
 10
0.55
 20
0.28
 10
0.55
 20
0.24000000000000002
 10
0.6033333333333334
 20
0.24000000000000002
 10
0.6033333333333334
 20
0.2
 10
0.55
 20
0.2
  0
LWPOLYLINE
  5
113
330
17
100
AcDbEntity
  8
NUMBERS
100
AcDbPolyline
 90
2
 70
0
 10
0.6246666666666667
 20
0.2
 10
0.6246666666666667
 20
0.28
  0
LWPOLYLINE
  5
114
330
17
100
AcDbEntity
  8
NUMBERS
100
AcDbPolyline
 90
2
 70
0
 10
0.678
 20
0.2
 10
0.678
 20
0.28
  0
LWPOLYLINE
  5
115
330
17
100
AcDbEntity
  8
NUMBERS
100
AcDbPolyline
 90
2
 70
0
 10
0.6246666666666667
 20
0.24000000000000002
 10
0.678
 20
0.24000000000000002
  0
LWPOLYLINE
  5
116
330
17
100
AcDbEntity
  8
NUMBERS
100
AcDbPolyline
 90
4
 70
0
 10
0.7526666666666667
 20
0.28
 10
0.6993333333333334
 20
0.28
 10
0.6993333333333334
 20
0.2
 10
0.7526666666666667
 20
0.2
  0
LWPOLYLINE
  5
117
330
17
100
AcDbEntity
  8
NUMBERS
100
AcDbPolyline
 90
2
 70
0
 10
0.6993333333333334
 20
0.24000000000000002
 10
0.7393333333333334
 20
0.24000000000000002
  0
LWPOLYLINE
  5
118
330
17
100
AcDbEntity
  8
NUMBERS
100
AcDbPolyline
 90
4
 70
0
 10
0.8273333333333334
 20
0.28
 10
0.774
 20
0.28
 10
0.774
 20
0.2
 10
0.8273333333333334
 20
0.2
  0
LWPOLYLINE
  5
119
330
17
100
AcDbEntity
  8
NUMBERS
100
AcDbPolyline
 90
2
 70
0
 10
0.774
 20
0.24000000000000002
 10
0.8140000000000001
 20
0.24000000000000002
  0
LWPOLYLINE
  5
11A
330
17
100
AcDbEntity
  8
NUMBERS
100
AcDbPolyline
 90
2
 70
0
 10
0.8486666666666667
 20
0.28
 10
0.902
 20
0.28
  0
LWPOLYLINE
  5
11B
330
17
100
AcDbEntity
  8
NUMBERS
100
AcDbPolyline
 90
2
 70
0
 10
0.8753333333333333
 20
0.28
 10
0.8753333333333333
 20
0.2
  0
LWPOLYLINE
  5
11C
330
17
100
AcDbEntity
  8
NUMBERS
100
AcDbPolyline
 90
2
 70
0
 10
0.9300000000000002
 20
0.24000000000000002
 10
0.9700000000000001
 20
0.24000000000000002
  0
LWPOLYLINE
  5
11D
330
17
100
AcDbEntity
  8
NUMBERS
100
AcDbPolyline
 90
5
 70
0
 10
0.998
 20
0.2
 10
1.0513333333333335
 20
0.2
 10
1.0513333333333335
 20
0.28
 10
0.998
 20
0.28
 10
0.998
 20
0.2
  0
LWPOLYLINE
  5
11E
330
17
100
AcDbEntity
  8
NUMBERS
100
AcDbPolyline
 90
2
 70
0
 10
0.998
 20
0.2
 10
1.0513333333333335
 20
0.28
  0
LWPOLYLINE
  5
11F
330
17
100
AcDbEntity
  8
NUMBERS
100
AcDbPolyline
 90
7
 70
0
 10
1.0726666666666667
 20
0.2666666666666667
 10
1.086
 20
0.28
 10
1.1126666666666667
 20
0.28
 10
1.126
 20
0.2666666666666667
 10
1.126
 20
0.25333333333333335
 10
1.0726666666666667
 20
0.2
 10
1.126
 20
0.2
  0
LWPOLYLINE
  5
120
330
17
100
AcDbEntity
  8
NUMBERS
100
AcDbPolyline
 90
6
 70
0
 10
1.35
 20
0.28
 10
1.2966666666666669
 20
0.28
 10
1.2966666666666669
 20
0.24000000000000002
 10
1.35
 20
0.24000000000000002
 10
1.35
 20
0.2
 10
1.2966666666666669
 20
0.2
  0
LWPOLYLINE
  5
121
330
17
100
AcDbEntity
  8
NUMBERS
100
AcDbPolyline
 90
2
 70
0
 10
1.384666666666667
 20
0.2
 10
1.4113333333333336
 20
0.2
  0
LWPOLYLINE
  5
122
330
17
100
AcDbEntity
  8
NUMBERS
100
AcDbPolyline
 90
2
 70
0
 10
1.3980000000000001
 20
0.2
 10
1.3980000000000001
 20
0.28
  0
LWPOLYLINE
  5
123
330
17
100
AcDbEntity
  8
NUMBERS
100
AcDbPolyline
 90
2
 70
0
 10
1.384666666666667
 20
0.28
 10
1.4113333333333336
 20
0.28
  0
LWPOLYLINE
  5
124
330
17
100
AcDbEntity
  8
NUMBERS
100
AcDbPolyline
 90
2
 70
0
 10
1.4460000000000002
 20
0.28
 10
1.4993333333333334
 20
0.28
  0
LWPOLYLINE
  5
125
330
17
100
AcDbEntity
  8
NUMBERS
100
AcDbPolyline
 90
2
 70
0
 10
1.4726666666666668
 20
0.28
 10
1.4726666666666668
 20
0.2
  0
LWPOLYLINE
  5
126
330
17
100
AcDbEntity
  8
NUMBERS
100
AcDbPolyline
 90
4
 70
0
 10
1.5740000000000003
 20
0.28
 10
1.5206666666666668
 20
0.28
 10
1.5206666666666668
 20
0.2
 10
1.5740000000000003
 20
0.2
  0
LWPOLYLINE
  5
127
330
17
100
AcDbEntity
  8
NUMBERS
100
AcDbPolyline
 90
2
 70
0
 10
1.5206666666666668
 20
0.24000000000000002
 10
1.5606666666666669
 20
0.24000000000000002
  0
LWPOLYLINE
  5
128
330
17
100
AcDbEntity
  8
NUMBERS
100
AcDbPolyline
 90
7
 70
0
 10
1.6700000000000002
 20
0.2
 10
1.6700000000000002
 20
0.28
 10
1.7100000000000002
 20
0.28
 10
1.7233333333333336
 20
0.2666666666666667
 10
1.7233333333333336
 20
0.25333333333333335
 10
1.7100000000000002
 20
0.24000000000000002
 10
1.6700000000000002
 20
0.24000000000000002
  0
LWPOLYLINE
  5
129
330
17
100
AcDbEntity
  8
NUMBERS
100
AcDbPolyline
 90
5
 70
0
 10
1.7100000000000002
 20
0.24000000000000002
 10
1.7233333333333336
 20
0.22666666666666668
 10
1.7233333333333336
 20
0.21333333333333335
 10
1.7100000000000002
 20
0.2
 10
1.6700000000000002
 20
0.2
  0
LWPOLYLINE
  5
12A
330
17
100
AcDbEntity
  8
NUMBERS
100
AcDbPolyline
 90
5
 70
0
 10
1.7446666666666668
 20
0.2
 10
1.7446666666666668
 20
0.25333333333333335
 10
1.7713333333333334
 20
0.28
 10
1.798
 20
0.25333333333333335
 10
1.798
 20
0.2
  0
LWPOLYLINE
  5
12B
330
17
100
AcDbEntity
  8
NUMBERS
100
AcDbPolyline
 90
2
 70
0
 10
1.7446666666666668
 20
0.24000000000000002
 10
1.798
 20
0.24000000000000002
  0
LWPOLYLINE
  5
12C
330
17
100
AcDbEntity
  8
NUMBERS
100
AcDbPolyline
 90
6
 70
0
 10
1.872666666666667
 20
0.28
 10
1.8193333333333335
 20
0.28
 10
1.8193333333333335
 20
0.24000000000000002
 10
1.872666666666667
 20
0.24000000000000002
 10
1.872666666666667
 20
0.2
 10
1.8193333333333335
 20
0.2
  0
LWPOLYLINE
  5
12D
330
17
100
AcDbEntity
  8
NUMBERS
100
AcDbPolyline
 90
4
 70
0
 10
1.9473333333333338
 20
0.28
 10
1.8940000000000003
 20
0.28
 10
1.8940000000000003
 20
0.2
 10
1.9473333333333338
 20
0.2
  0
LWPOLYLINE
  5
12E
330
17
100
AcDbEntity
  8
NUMBERS
100
AcDbPolyline
 90
2
 70
0
 10
1.8940000000000003
 20
0.24000000000000002
 10
1.9340000000000004
 20
0.24000000000000002
  0
LWPOLYLINE
  5
12F
330
17
100
AcDbEntity
  8
NUMBERS
100
AcDbPolyline
 90
2
 70
0
 10
2.0500000000000007
 20
0.24000000000000002
 10
2.0900000000000007
 20
0.24000000000000002
  0
LWPOLYLINE
  5
130
330
17
100
AcDbEntity
  8
NUMBERS
100
AcDbPolyline
 90
2
 70
0
 10
2.0700000000000007
 20
0.22000000000000003
 10
2.0700000000000007
 20
0.26
  0
LWPOLYLINE
  5
131
330
17
100
AcDbEntity
  8
NUMBERS
100
AcDbPolyline
 90
6
 70
0
 10
2.246
 20
0.28
 10
2.1926666666666668
 20
0.28
 10
2.1926666666666668
 20
0.2
 10
2.246
 20
0.2
 10
2.246
 20
0.24000000000000002
 10
2.2193333333333336
 20
0.24000000000000002
  0
LWPOLYLINE
  5
132
330
17
100
AcDbEntity
  8
NUMBERS
100
AcDbPolyline
 90
3
 70
0
 10
2.3206666666666664
 20
0.28
 10
2.267333333333333
 20
0.28
 10
2.267333333333333
 20
0.2
  0
LWPOLYLINE
  5
133
330
17
100
AcDbEntity
  8
NUMBERS
100
AcDbPolyline
 90
2
 70
0
 10
2.267333333333333
 20
0.24000000000000002
 10
2.3073333333333332
 20
0.24000000000000002
  0
LWPOLYLINE
  5
134
330
17
100
AcDbEntity
  8
NUMBERS
100
AcDbPolyline
 90
6
 70
0
 10
2.47
 20
0.28
 10
2.416666666666667
 20
0.28
 10
2.416666666666667
 20
0.24000000000000002
 10
2.47
 20
0.24000000000000002
 10
2.47
 20
0.2
 10
2.416666666666667
 20
0.2
  0
LWPOLYLINE
  5
135
330
17
100
AcDbEntity
  8
NUMBERS
100
AcDbPolyline
 90
3
 70
0
 10
2.4913333333333334
 20
0.28
 10
2.4913333333333334
 20
0.2
 10
2.5446666666666666
 20
0.2
  0
LWPOLYLINE
  5
136
330
17
100
AcDbEntity
  8
NUMBERS
100
AcDbPolyline
 90
5
 70
0
 10
2.5660000000000007
 20
0.2
 10
2.5660000000000007
 20
0.25333333333333335
 10
2.5926666666666676
 20
0.28
 10
2.619333333333334
 20
0.25333333333333335
 10
2.619333333333334
 20
0.2
  0
LWPOLYLINE
  5
137
330
17
100
AcDbEntity
  8
NUMBERS
100
AcDbPolyline
 90
2
 70
0
 10
2.5660000000000007
 20
0.24000000000000002
 10
2.619333333333334
 20
0.24000000000000002
  0
LWPOLYLINE
  5
138
330
17
100
AcDbEntity
  8
NUMBERS
100
AcDbPolyline
 90
7
 70
0
 10
2.640666666666667
 20
0.2
 10
2.640666666666667
 20
0.28
 10
2.680666666666667
 20
0.28
 10
2.6940000000000004
 20
0.2666666666666667
 10
2.6940000000000004
 20
0.25333333333333335
 10
2.680666666666667
 20
0.24000000000000002
 10
2.640666666666667
 20
0.24000000000000002
  0
LWPOLYLINE
  5
139
330
17
100
AcDbEntity
  8
NUMBERS
100
AcDbPolyline
 90
5
 70
0
 10
2.680666666666667
 20
0.24000000000000002
 10
2.6940000000000004
 20
0.22666666666666668
 10
2.6940000000000004
 20
0.21333333333333335
 10
2.680666666666667
 20
0.2
 10
2.640666666666667
 20
0.2
  0
LWPOLYLINE
  5
13A
330
17
100
AcDbEntity
  8
NUMBERS
100
AcDbPolyline
 90
2
 70
0
 10
2.796666666666667
 20
0.24000000000000002
 10
2.836666666666667
 20
0.24000000000000002
  0
LWPOLYLINE
  5
13B
330
17
100
AcDbEntity
  8
NUMBERS
100
AcDbPolyline
 90
2
 70
0
 10
2.816666666666667
 20
0.22000000000000003
 10
2.816666666666667
 20
0.26
  0
LWPOLYLINE
  5
13C
330
17
100
AcDbEntity
  8
NUMBERS
100
AcDbPolyline
 90
5
 70
0
 10
2.939333333333334
 20
0.2
 10
2.939333333333334
 20
0.28
 10
2.992666666666667
 20
0.28
 10
2.992666666666667
 20
0.24000000000000002
 10
2.939333333333334
 20
0.24000000000000002
  0
LWPOLYLINE
  5
13D
330
17
100
AcDbEntity
  8
NUMBERS
100
AcDbPolyline
 90
5
 70
0
 10
3.0140000000000002
 20
0.2
 10
3.0673333333333335
 20
0.2
 10
3.0673333333333335
 20
0.28
 10
3.0140000000000002
 20
0.28
 10
3.0140000000000002
 20
0.2
  0
LWPOLYLINE
  5
13E
330
17
100
AcDbEntity
  8
NUMBERS
100
AcDbPolyline
 90
5
 70
0
 10
3.0886666666666667
 20
0.2
 10
3.142
 20
0.2
 10
3.142
 20
0.28
 10
3.0886666666666667
 20
0.28
 10
3.0886666666666667
 20
0.2
  0
LWPOLYLINE
  5
13F
330
17
100
AcDbEntity
  8
NUMBERS
100
AcDbPolyline
 90
3
 70
0
 10
3.163333333333334
 20
0.28
 10
3.163333333333334
 20
0.2
 10
3.2166666666666672
 20
0.2
  0
LWPOLYLINE
  5
140
330
17
100
AcDbEntity
  8
NUMBERS
100
AcDbPolyline
 90
4
 70
0
 10
3.352666666666667
 20
0.28
 10
3.332666666666667
 20
0.26
 10
3.332666666666667
 20
0.22000000000000003
 10
3.352666666666667
 20
0.2
  0
LWPOLYLINE
  5
141
330
17
100
AcDbEntity
  8
NUMBERS
100
AcDbPolyline
 90
2
 70
0
 10
3.3873333333333333
 20
0.2
 10
3.3873333333333333
 20
0.28
  0
LWPOLYLINE
  5
142
330
17
100
AcDbEntity
  8
NUMBERS
100
AcDbPolyline
 90
2
 70
0
 10
3.4406666666666665
 20
0.28
 10
3.3873333333333333
 20
0.23333333333333334
  0
LWPOLYLINE
  5
143
330
17
100
AcDbEntity
  8
NUMBERS
100
AcDbPolyline
 90
2
 70
0
 10
3.4046666666666665
 20
0.2466666666666667
 10
3.4406666666666665
 20
0.2
  0
LWPOLYLINE
  5
144
330
17
100
AcDbEntity
  8
NUMBERS
100
AcDbPolyline
 90
2
 70
0
 10
3.475333333333334
 20
0.2
 10
3.5020000000000007
 20
0.2
  0
LWPOLYLINE
  5
145
330
17
100
AcDbEntity
  8
NUMBERS
100
AcDbPolyline
 90
2
 70
0
 10
3.4886666666666675
 20
0.2
 10
3.4886666666666675
 20
0.28
  0
LWPOLYLINE
  5
146
330
17
100
AcDbEntity
  8
NUMBERS
100
AcDbPolyline
 90
2
 70
0
 10
3.475333333333334
 20
0.28
 10
3.5020000000000007
 20
0.28
  0
LWPOLYLINE
  5
147
330
17
100
AcDbEntity
  8
NUMBERS
100
AcDbPolyline
 90
2
 70
0
 10
3.536666666666667
 20
0.28
 10
3.5900000000000003
 20
0.28
  0
LWPOLYLINE
  5
148
330
17
100
AcDbEntity
  8
NUMBERS
100
AcDbPolyline
 90
2
 70
0
 10
3.563333333333334
 20
0.28
 10
3.563333333333334
 20
0.2
  0
LWPOLYLINE
  5
149
330
17
100
AcDbEntity
  8
NUMBERS
100
AcDbPolyline
 90
5
 70
0
 10
3.686000000000001
 20
0.2
 10
3.739333333333334
 20
0.2
 10
3.739333333333334
 20
0.28
 10
3.686000000000001
 20
0.28
 10
3.686000000000001
 20
0.2
  0
LWPOLYLINE
  5
14A
330
17
100
AcDbEntity
  8
NUMBERS
100
AcDbPolyline
 90
2
 70
0
 10
3.686000000000001
 20
0.2
 10
3.739333333333334
 20
0.28
  0
LWPOLYLINE
  5
14B
330
17
100
AcDbEntity
  8
NUMBERS
100
AcDbPolyline
 90
3
 70
0
 10
3.7740000000000005
 20
0.2666666666666667
 10
3.787333333333334
 20
0.28
 10
3.787333333333334
 20
0.2
  0
LWPOLYLINE
  5
14C
330
17
100
AcDbEntity
  8
NUMBERS
100
AcDbPolyline
 90
2
 70
0
 10
3.7740000000000005
 20
0.2
 10
3.8006666666666673
 20
0.2
  0
LWPOLYLINE
  5
14D
330
17
100
AcDbEntity
  8
NUMBERS
100
AcDbPolyline
 90
2
 70
0
 10
3.864666666666667
 20
0.20533333333333334
 10
3.856666666666667
 20
0.18666666666666668
  0
LWPOLYLINE
  5
14E
330
17
100
AcDbEntity
  8
NUMBERS
100
AcDbPolyline
 90
5
 70
0
 10
3.9846666666666666
 20
0.2
 10
4.038
 20
0.2
 10
4.038
 20
0.28
 10
3.9846666666666666
 20
0.28
 10
3.9846666666666666
 20
0.2
  0
LWPOLYLINE
  5
14F
330
17
100
AcDbEntity
  8
NUMBERS
100
AcDbPolyline
 90
2
 70
0
 10
3.9846666666666666
 20
0.2
 10
4.038
 20
0.28
  0
LWPOLYLINE
  5
150
330
17
100
AcDbEntity
  8
NUMBERS
100
AcDbPolyline
 90
3
 70
0
 10
4.059333333333334
 20
0.28
 10
4.112666666666668
 20
0.28
 10
4.0726666666666675
 20
0.2
  0
LWPOLYLINE
  5
151
330
17
100
AcDbEntity
  8
NUMBERS
100
AcDbPolyline
 90
4
 70
0
 10
4.147333333333334
 20
0.28
 10
4.167333333333334
 20
0.26
 10
4.167333333333334
 20
0.22000000000000003
 10
4.147333333333334
 20
0.2
  0
LWPOLYLINE
  5
152
330
17
100
AcDbEntity
  8
NUMBERS
100
AcDbPolyline
 90
4
 70
0
 10
4.323333333333334
 20
0.28
 10
4.303333333333334
 20
0.26
 10
4.303333333333334
 20
0.22000000000000003
 10
4.323333333333334
 20
0.2
  0
LWPOLYLINE
  5
153
330
17
100
AcDbEntity
  8
NUMBERS
100
AcDbPolyline
 90
7
 70
0
 10
4.3580000000000005
 20
0.2666666666666667
 10
4.371333333333334
 20
0.28
 10
4.398000000000001
 20
0.28
 10
4.411333333333334
 20
0.2666666666666667
 10
4.411333333333334
 20
0.25333333333333335
 10
4.3580000000000005
 20
0.2
 10
4.411333333333334
 20
0.2
  0
LWPOLYLINE
  5
154
330
17
100
AcDbEntity
  8
NUMBERS
100
AcDbPolyline
 90
5
 70
0
 10
4.507333333333333
 20
0.2
 10
4.560666666666667
 20
0.2
 10
4.560666666666667
 20
0.28
 10
4.507333333333333
 20
0.28
 10
4.507333333333333
 20
0.2
  0
LWPOLYLINE
  5
155
330
17
100
AcDbEntity
  8
NUMBERS
100
AcDbPolyline
 90
3
 70
0
 10
4.635333333333334
 20
0.28
 10
4.582000000000001
 20
0.28
 10
4.582000000000001
 20
0.2
  0
LWPOLYLINE
  5
156
330
17
100
AcDbEntity
  8
NUMBERS
100
AcDbPolyline
 90
2
 70
0
 10
4.582000000000001
 20
0.24000000000000002
 10
4.622000000000001
 20
0.24000000000000002
  0
LWPOLYLINE
  5
157
330
17
100
AcDbEntity
  8
NUMBERS
100
AcDbPolyline
 90
7
 70
0
 10
4.731333333333334
 20
0.2666666666666667
 10
4.744666666666667
 20
0.28
 10
4.771333333333334
 20
0.28
 10
4.784666666666667
 20
0.2666666666666667
 10
4.784666666666667
 20
0.25333333333333335
 10
4.731333333333334
 20
0.2
 10
4.784666666666667
 20
0.2
  0
LWPOLYLINE
  5
158
330
17
100
AcDbEntity
  8
NUMBERS
100
AcDbPolyline
 90
4
 70
0
 10
4.819333333333335
 20
0.28
 10
4.839333333333334
 20
0.26
 10
4.839333333333334
 20
0.22000000000000003
 10
4.819333333333335
 20
0.2
  0
LWPOLYLINE
  5
159
330
17
100
AcDbEntity
  8
NUMBERS
100
AcDbPolyline
 90
6
 70
0
 10
5.158
 20
0.28
 10
5.104666666666667
 20
0.28
 10
5.104666666666667
 20
0.24000000000000002
 10
5.158
 20
0.24000000000000002
 10
5.158
 20
0.2
 10
5.104666666666667
 20
0.2
  0
LWPOLYLINE
  5
15A
330
17
100
AcDbEntity
  8
NUMBERS
100
AcDbPolyline
 90
4
 70
0
 10
5.232666666666668
 20
0.28
 10
5.179333333333334
 20
0.28
 10
5.179333333333334
 20
0.2
 10
5.232666666666668
 20
0.2
  0
LWPOLYLINE
  5
15B
330
17
100
AcDbEntity
  8
NUMBERS
100
AcDbPolyline
 90
5
 70
0
 10
5.2540000000000004
 20
0.2
 10
5.2540000000000004
 20
0.25333333333333335
 10
5.280666666666667
 20
0.28
 10
5.307333333333334
 20
0.25333333333333335
 10
5.307333333333334
 20
0.2
  0
LWPOLYLINE
  5
15C
330
17
100
AcDbEntity
  8
NUMBERS
100
AcDbPolyline
 90
2
 70
0
 10
5.2540000000000004
 20
0.24000000000000002
 10
5.307333333333334
 20
0.24000000000000002
  0
LWPOLYLINE
  5
15D
330
17
100
AcDbEntity
  8
NUMBERS
100
AcDbPolyline
 90
3
 70
0
 10
5.328666666666667
 20
0.28
 10
5.328666666666667
 20
0.2
 10
5.382000000000001
 20
0.2
  0
LWPOLYLINE
  5
15E
330
17
100
AcDbEntity
  8
NUMBERS
100
AcDbPolyline
 90
4
 70
0
 10
5.456666666666668
 20
0.28
 10
5.403333333333334
 20
0.28
 10
5.403333333333334
 20
0.2
 10
5.456666666666668
 20
0.2
  0
LWPOLYLINE
  5
15F
330
17
100
AcDbEntity
  8
NUMBERS
100
AcDbPolyline
 90
2
 70
0
 10
5.403333333333334
 20
0.24000000000000002
 10
5.443333333333334
 20
0.24000000000000002
  0
LWPOLYLINE
  5
160
330
17
100
AcDbEntity
  8
NUMBERS
100
AcDbPolyline
 90
3
 70
0
 10
5.566000000000001
 20
0.2666666666666667
 10
5.5793333333333335
 20
0.28
 10
5.5793333333333335
 20
0.2
  0
LWPOLYLINE
  5
161
330
17
100
AcDbEntity
  8
NUMBERS
100
AcDbPolyline
 90
2
 70
0
 10
5.566000000000001
 20
0.2
 10
5.592666666666667
 20
0.2
  0
LWPOLYLINE
  5
162
330
17
100
AcDbEntity
  8
NUMBERS
100
AcDbPolyline
 90
2
 70
0
 10
5.6513333333333335
 20
0.21333333333333335
 10
5.656666666666667
 20
0.21333333333333335
  0
LWPOLYLINE
  5
163
330
17
100
AcDbEntity
  8
NUMBERS
100
AcDbPolyline
 90
2
 70
0
 10
5.6513333333333335
 20
0.25333333333333335
 10
5.656666666666667
 20
0.25333333333333335
  0
LWPOLYLINE
  5
164
330
17
100
AcDbEntity
  8
NUMBERS
100
AcDbPolyline
 90
3
 70
0
 10
5.7153333333333345
 20
0.2666666666666667
 10
5.728666666666667
 20
0.28
 10
5.728666666666667
 20
0.2
  0
LWPOLYLINE
  5
165
330
17
100
AcDbEntity
  8
NUMBERS
100
AcDbPolyline
 90
2
 70
0
 10
5.7153333333333345
 20
0.2
 10
5.742000000000001
 20
0.2
  0
LWPOLYLINE
  5
166
330
17
100
AcDbEntity
  8
NUMBERS
100
AcDbPolyline
 90
7
 70
0
 10
5.776666666666667
 20
0.2
 10
5.816666666666667
 20
0.2
 10
5.830000000000001
 20
0.21333333333333335
 10
5.830000000000001
 20
0.28
 10
5.776666666666667
 20
0.28
 10
5.776666666666667
 20
0.24000000000000002
 10
5.830000000000001
 20
0.24000000000000002
  0
LWPOLYLINE
  5
167
330
17
100
AcDbEntity
  8
NUMBERS
100
AcDbPolyline
 90
7
 70
0
 10
5.851333333333334
 20
0.2666666666666667
 10
5.864666666666667
 20
0.28
 10
5.891333333333334
 20
0.28
 10
5.904666666666667
 20
0.2666666666666667
 10
5.904666666666667
 20
0.25333333333333335
 10
5.851333333333334
 20
0.2
 10
5.904666666666667
 20
0.2
  0
LWPOLYLINE
  5
168
330
17
100
AcDbEntity
  8
NUMBERS
100
AcDbPolyline
 90
4
 70
0
 10
6.040666666666667
 20
0.28
 10
6.020666666666666
 20
0.26
 10
6.020666666666666
 20
0.22000000000000003
 10
6.040666666666667
 20
0.2
  0
LWPOLYLINE
  5
169
330
17
100
AcDbEntity
  8
NUMBERS
100
AcDbPolyline
 90
3
 70
0
 10
6.088666666666668
 20
0.2666666666666667
 10
6.102
 20
0.28
 10
6.102
 20
0.2
  0
LWPOLYLINE
  5
16A
330
17
100
AcDbEntity
  8
NUMBERS
100
AcDbPolyline
 90
2
 70
0
 10
6.088666666666668
 20
0.2
 10
6.115333333333334
 20
0.2
  0
LWPOLYLINE
  5
16B
330
17
100
AcDbEntity
  8
NUMBERS
100
AcDbPolyline
 90
2
 70
0
 10
6.150000000000001
 20
0.2
 10
6.203333333333335
 20
0.28
  0
LWPOLYLINE
  5
16C
330
17
100
AcDbEntity
  8
NUMBERS
100
AcDbPolyline
 90
3
 70
0
 10
6.238
 20
0.2666666666666667
 10
6.251333333333333
 20
0.28
 10
6.251333333333333
 20
0.2
  0
LWPOLYLINE
  5
16D
330
17
100
AcDbEntity
  8
NUMBERS
100
AcDbPolyline
 90
2
 70
0
 10
6.238
 20
0.2
 10
6.264666666666667
 20
0.2
  0
LWPOLYLINE
  5
16E
330
17
100
AcDbEntity
  8
NUMBERS
100
AcDbPolyline
 90
7
 70
0
 10
6.352666666666668
 20
0.28
 10
6.312666666666668
 20
0.28
 10
6.299333333333334
 20
0.2666666666666667
 10
6.299333333333334
 20
0.2
 10
6.352666666666668
 20
0.2
 10
6.352666666666668
 20
0.24000000000000002
 10
6.299333333333334
 20
0.24000000000000002
  0
LWPOLYLINE
  5
16F
330
17
100
AcDbEntity
  8
NUMBERS
100
AcDbPolyline
 90
2
 70
0
 10
6.462000000000001
 20
0.2
 10
6.488666666666667
 20
0.2
  0
LWPOLYLINE
  5
170
330
17
100
AcDbEntity
  8
NUMBERS
100
AcDbPolyline
 90
2
 70
0
 10
6.475333333333333
 20
0.2
 10
6.475333333333333
 20
0.28
  0
LWPOLYLINE
  5
171
330
17
100
AcDbEntity
  8
NUMBERS
100
AcDbPolyline
 90
2
 70
0
 10
6.462000000000001
 20
0.28
 10
6.488666666666667
 20
0.28
  0
LWPOLYLINE
  5
172
330
17
100
AcDbEntity
  8
NUMBERS
100
AcDbPolyline
 90
4
 70
0
 10
6.523333333333334
 20
0.2
 10
6.523333333333334
 20
0.28
 10
6.576666666666668
 20
0.2
 10
6.576666666666668
 20
0.28
  0
LWPOLYLINE
  5
173
330
17
100
AcDbEntity
  8
NUMBERS
100
AcDbPolyline
 90
2
 70
0
 10
6.679333333333334
 20
0.22666666666666668
 10
6.719333333333334
 20
0.22666666666666668
  0
LWPOLYLINE
  5
174
330
17
100
AcDbEntity
  8
NUMBERS
100
AcDbPolyline
 90
2
 70
0
 10
6.679333333333334
 20
0.25333333333333335
 10
6.719333333333334
 20
0.25333333333333335
  0
LWPOLYLINE
  5
175
330
17
100
AcDbEntity
  8
NUMBERS
100
AcDbPolyline
 90
3
 70
0
 10
6.835333333333335
 20
0.2666666666666667
 10
6.848666666666667
 20
0.28
 10
6.848666666666667
 20
0.2
  0
LWPOLYLINE
  5
176
330
17
100
AcDbEntity
  8
NUMBERS
100
AcDbPolyline
 90
2
 70
0
 10
6.835333333333335
 20
0.2
 10
6.862000000000001
 20
0.2
  0
LWPOLYLINE
  5
177
330
17
100
AcDbEntity
  8
NUMBERS
100
AcDbPolyline
 90
3
 70
0
 10
7.0246666666666675
 20
0.28
 10
6.971333333333334
 20
0.28
 10
6.971333333333334
 20
0.2
  0
LWPOLYLINE
  5
178
330
17
100
AcDbEntity
  8
NUMBERS
100
AcDbPolyline
 90
2
 70
0
 10
6.971333333333334
 20
0.24000000000000002
 10
7.011333333333334
 20
0.24000000000000002
  0
LWPOLYLINE
  5
179
330
17
100
AcDbEntity
  8
NUMBERS
100
AcDbPolyline
 90
2
 70
0
 10
7.046000000000001
 20
0.28
 10
7.099333333333335
 20
0.28
  0
LWPOLYLINE
  5
17A
330
17
100
AcDbEntity
  8
NUMBERS
100
AcDbPolyline
 90
2
 70
0
 10
7.0726666666666675
 20
0.28
 10
7.0726666666666675
 20
0.2
  0
LWPOLYLINE
  5
17B
330
17
100
AcDbEntity
  8
NUMBERS
100
AcDbPolyline
 90
4
 70
0
 10
7.134000000000001
 20
0.28
 10
7.154000000000001
 20
0.26
 10
7.154000000000001
 20
0.22000000000000003
 10
7.134000000000001
 20
0.2
  0
LWPOLYLINE
  5
17C
330
17
100
AcDbEntity
  8
NUMBERS
100
AcDbPolyline
 90
5
 70
0
 10
7.419333333333333
 20
0.2
 10
7.419333333333333
 20
0.28
 10
7.446
 20
0.24000000000000002
 10
7.472666666666667
 20
0.28
 10
7.472666666666667
 20
0.2
  0
LWPOLYLINE
  5
17D
330
17
100
AcDbEntity
  8
NUMBERS
100
AcDbPolyline
 90
5
 70
0
 10
7.494000000000001
 20
0.2
 10
7.494000000000001
 20
0.25333333333333335
 10
7.520666666666667
 20
0.28
 10
7.547333333333334
 20
0.25333333333333335
 10
7.547333333333334
 20
0.2
  0
LWPOLYLINE
  5
17E
330
17
100
AcDbEntity
  8
NUMBERS
100
AcDbPolyline
 90
2
 70
0
 10
7.494000000000001
 20
0.24000000000000002
 10
7.547333333333334
 20
0.24000000000000002
  0
LWPOLYLINE
  5
17F
330
17
100
AcDbEntity
  8
NUMBERS
100
AcDbPolyline
 90
2
 70
0
 10
7.568666666666668
 20
0.28
 10
7.622000000000002
 20
0.28
  0
LWPOLYLINE
  5
180
330
17
100
AcDbEntity
  8
NUMBERS
100
AcDbPolyline
 90
2
 70
0
 10
7.595333333333334
 20
0.28
 10
7.595333333333334
 20
0.2
  0
LWPOLYLINE
  5
181
330
17
100
AcDbEntity
  8
NUMBERS
100
AcDbPolyline
 90
4
 70
0
 10
7.696666666666668
 20
0.28
 10
7.643333333333334
 20
0.28
 10
7.643333333333334
 20
0.2
 10
7.696666666666668
 20
0.2
  0
LWPOLYLINE
  5
182
330
17
100
AcDbEntity
  8
NUMBERS
100
AcDbPolyline
 90
2
 70
0
 10
7.643333333333334
 20
0.24000000000000002
 10
7.6833333333333345
 20
0.24000000000000002
  0
LWPOLYLINE
  5
183
330
17
100
AcDbEntity
  8
NUMBERS
100
AcDbPolyline
 90
6
 70
0
 10
7.718
 20
0.2
 10
7.718
 20
0.28
 10
7.771333333333334
 20
0.28
 10
7.771333333333334
 20
0.24000000000000002
 10
7.718
 20
0.24000000000000002
 10
7.771333333333334
 20
0.2
  0
LWPOLYLINE
  5
184
330
17
100
AcDbEntity
  8
NUMBERS
100
AcDbPolyline
 90
2
 70
0
 10
7.806000000000001
 20
0.2
 10
7.832666666666667
 20
0.2
  0
LWPOLYLINE
  5
185
330
17
100
AcDbEntity
  8
NUMBERS
100
AcDbPolyline
 90
2
 70
0
 10
7.819333333333334
 20
0.2
 10
7.819333333333334
 20
0.28
  0
LWPOLYLINE
  5
186
330
17
100
AcDbEntity
  8
NUMBERS
100
AcDbPolyline
 90
2
 70
0
 10
7.806000000000001
 20
0.28
 10
7.832666666666667
 20
0.28
  0
LWPOLYLINE
  5
187
330
17
100
AcDbEntity
  8
NUMBERS
100
AcDbPolyline
 90
5
 70
0
 10
7.867333333333334
 20
0.2
 10
7.867333333333334
 20
0.25333333333333335
 10
7.894
 20
0.28
 10
7.920666666666667
 20
0.25333333333333335
 10
7.920666666666667
 20
0.2
  0
LWPOLYLINE
  5
188
330
17
100
AcDbEntity
  8
NUMBERS
100
AcDbPolyline
 90
2
 70
0
 10
7.867333333333334
 20
0.24000000000000002
 10
7.920666666666667
 20
0.24000000000000002
  0
LWPOLYLINE
  5
189
330
17
100
AcDbEntity
  8
NUMBERS
100
AcDbPolyline
 90
3
 70
0
 10
7.942000000000001
 20
0.28
 10
7.942000000000001
 20
0.2
 10
7.995333333333335
 20
0.2
  0
LWPOLYLINE
  5
18A
330
17
100
AcDbEntity
  8
NUMBERS
100
AcDbPolyline
 90
3
 70
0
 10
8.104666666666667
 20
0.2666666666666667
 10
8.118
 20
0.28
 10
8.118
 20
0.2
  0
LWPOLYLINE
  5
18B
330
17
100
AcDbEntity
  8
NUMBERS
100
AcDbPolyline
 90
2
 70
0
 10
8.104666666666667
 20
0.2
 10
8.131333333333332
 20
0.2
  0
LWPOLYLINE
  5
18C
330
17
100
AcDbEntity
  8
NUMBERS
100
AcDbPolyline
 90
2
 70
0
 10
8.166
 20
0.2
 10
8.219333333333333
 20
0.28
  0
LWPOLYLINE
  5
18D
330
17
100
AcDbEntity
  8
NUMBERS
100
AcDbPolyline
 90
3
 70
0
 10
8.254000000000001
 20
0.2666666666666667
 10
8.267333333333335
 20
0.28
 10
8.267333333333335
 20
0.2
  0
LWPOLYLINE
  5
18E
330
17
100
AcDbEntity
  8
NUMBERS
100
AcDbPolyline
 90
2
 70
0
 10
8.254000000000001
 20
0.2
 10
8.280666666666667
 20
0.2
  0
LWPOLYLINE
  5
18F
330
17
100
AcDbEntity
  8
NUMBERS
100
AcDbPolyline
 90
7
 70
0
 10
8.368666666666668
 20
0.28
 10
8.328666666666669
 20
0.28
 10
8.315333333333335
 20
0.2666666666666667
 10
8.315333333333335
 20
0.2
 10
8.368666666666668
 20
0.2
 10
8.368666666666668
 20
0.24000000000000002
 10
8.315333333333335
 20
0.24000000000000002
  0
LWPOLYLINE
  5
190
330
17
100
AcDbEntity
  8
NUMBERS
100
AcDbPolyline
 90
2
 70
0
 10
8.478000000000002
 20
0.2
 10
8.504666666666667
 20
0.2
  0
LWPOLYLINE
  5
191
330
17
100
AcDbEntity
  8
NUMBERS
100
AcDbPolyline
 90
2
 70
0
 10
8.491333333333335
 20
0.2
 10
8.491333333333335
 20
0.28
  0
LWPOLYLINE
  5
192
330
17
100
AcDbEntity
  8
NUMBERS
100
AcDbPolyline
 90
2
 70
0
 10
8.478000000000002
 20
0.28
 10
8.504666666666667
 20
0.28
  0
LWPOLYLINE
  5
193
330
17
100
AcDbEntity
  8
NUMBERS
100
AcDbPolyline
 90
4
 70
0
 10
8.539333333333333
 20
0.2
 10
8.539333333333333
 20
0.28
 10
8.592666666666666
 20
0.2
 10
8.592666666666666
 20
0.28
  0
LWPOLYLINE
  5
194
330
17
100
AcDbEntity
  8
NUMBERS
100
AcDbPolyline
 90
4
 70
0
 10
8.742
 20
0.28
 10
8.688666666666668
 20
0.28
 10
8.688666666666668
 20
0.2
 10
8.742
 20
0.2
  0
LWPOLYLINE
  5
195
330
17
100
AcDbEntity
  8
NUMBERS
100
AcDbPolyline
 90
2
 70
0
 10
8.763333333333335
 20
0.2
 10
8.763333333333335
 20
0.28
  0
LWPOLYLINE
  5
196
330
17
100
AcDbEntity
  8
NUMBERS
100
AcDbPolyline
 90
2
 70
0
 10
8.816666666666668
 20
0.2
 10
8.816666666666668
 20
0.28
  0
LWPOLYLINE
  5
197
330
17
100
AcDbEntity
  8
NUMBERS
100
AcDbPolyline
 90
2
 70
0
 10
8.763333333333335
 20
0.24000000000000002
 10
8.816666666666668
 20
0.24000000000000002
  0
LWPOLYLINE
  5
198
330
17
100
AcDbEntity
  8
NUMBERS
100
AcDbPolyline
 90
2
 70
0
 10
8.851333333333335
 20
0.2
 10
8.878
 20
0.2
  0
LWPOLYLINE
  5
199
330
17
100
AcDbEntity
  8
NUMBERS
100
AcDbPolyline
 90
2
 70
0
 10
8.864666666666668
 20
0.2
 10
8.864666666666668
 20
0.28
  0
LWPOLYLINE
  5
19A
330
17
100
AcDbEntity
  8
NUMBERS
100
AcDbPolyline
 90
2
 70
0
 10
8.851333333333335
 20
0.28
 10
8.878
 20
0.28
  0
LWPOLYLINE
  5
19B
330
17
100
AcDbEntity
  8
NUMBERS
100
AcDbPolyline
 90
5
 70
0
 10
8.912666666666668
 20
0.2
 10
8.912666666666668
 20
0.28
 10
8.966000000000001
 20
0.28
 10
8.966000000000001
 20
0.24000000000000002
 10
8.912666666666668
 20
0.24000000000000002
  0
LWPOLYLINE
  5
19C
330
17
100
AcDbEntity
  8
NUMBERS
100
AcDbPolyline
 90
7
 70
0
 10
8.987333333333336
 20
0.2
 10
8.987333333333336
 20
0.28
 10
9.027333333333335
 20
0.28
 10
9.040666666666668
 20
0.2666666666666667
 10
9.040666666666668
 20
0.25333333333333335
 10
9.027333333333335
 20
0.24000000000000002
 10
8.987333333333336
 20
0.24000000000000002
  0
LWPOLYLINE
  5
19D
330
17
100
AcDbEntity
  8
NUMBERS
100
AcDbPolyline
 90
5
 70
0
 10
9.027333333333335
 20
0.24000000000000002
 10
9.040666666666668
 20
0.22666666666666668
 10
9.040666666666668
 20
0.21333333333333335
 10
9.027333333333335
 20
0.2
 10
8.987333333333336
 20
0.2
  0
LWPOLYLINE
  5
19E
330
17
100
AcDbEntity
  8
NUMBERS
100
AcDbPolyline
 90
5
 70
0
 10
9.062000000000003
 20
0.2
 10
9.115333333333336
 20
0.2
 10
9.115333333333336
 20
0.28
 10
9.062000000000003
 20
0.28
 10
9.062000000000003
 20
0.2
  0
LWPOLYLINE
  5
19F
330
17
100
AcDbEntity
  8
NUMBERS
100
AcDbPolyline
 90
5
 70
0
 10
9.136666666666668
 20
0.2
 10
9.136666666666668
 20
0.25333333333333335
 10
9.163333333333336
 20
0.28
 10
9.190000000000001
 20
0.25333333333333335
 10
9.190000000000001
 20
0.2
  0
LWPOLYLINE
  5
1A0
330
17
100
AcDbEntity
  8
NUMBERS
100
AcDbPolyline
 90
2
 70
0
 10
9.136666666666668
 20
0.24000000000000002
 10
9.190000000000001
 20
0.24000000000000002
  0
LWPOLYLINE
  5
1A1
330
17
100
AcDbEntity
  8
NUMBERS
100
AcDbPolyline
 90
6
 70
0
 10
9.211333333333334
 20
0.2
 10
9.211333333333334
 20
0.28
 10
9.264666666666667
 20
0.28
 10
9.264666666666667
 20
0.24000000000000002
 10
9.211333333333334
 20
0.24000000000000002
 10
9.264666666666667
 20
0.2
  0
LWPOLYLINE
  5
1A2
330
17
100
AcDbEntity
  8
NUMBERS
100
AcDbPolyline
 90
7
 70
0
 10
9.286000000000001
 20
0.2
 10
9.286000000000001
 20
0.28
 10
9.319333333333335
 20
0.28
 10
9.339333333333334
 20
0.26
 10
9.339333333333334
 20
0.22000000000000003
 10
9.319333333333335
 20
0.2
 10
9.286000000000001
 20
0.2
  0
LWPOLYLINE
  5
1A3
330
17
100
AcDbEntity
  8
NUMBERS
100
AcDbPolyline
 90
2
 70
0
 10
9.510000000000002
 20
0.28
 10
9.563333333333334
 20
0.28
  0
LWPOLYLINE
  5
1A4
330
17
100
AcDbEntity
  8
NUMBERS
100
AcDbPolyline
 90
2
 70
0
 10
9.536666666666669
 20
0.28
 10
9.536666666666669
 20
0.2
  0
LWPOLYLINE
  5
1A5
330
17
100
AcDbEntity
  8
NUMBERS
100
AcDbPolyline
 90
2
 70
0
 10
9.591333333333333
 20
0.22666666666666668
 10
9.631333333333334
 20
0.22666666666666668
  0
LWPOLYLINE
  5
1A6
330
17
100
AcDbEntity
  8
NUMBERS
100
AcDbPolyline
 90
2
 70
0
 10
9.591333333333333
 20
0.25333333333333335
 10
9.631333333333334
 20
0.25333333333333335
  0
LWPOLYLINE
  5
1A7
330
17
100
AcDbEntity
  8
NUMBERS
100
AcDbPolyline
 90
5
 70
0
 10
9.659333333333334
 20
0.2
 10
9.712666666666667
 20
0.2
 10
9.712666666666667
 20
0.28
 10
9.659333333333334
 20
0.28
 10
9.659333333333334
 20
0.2
  0
LWPOLYLINE
  5
1A8
330
17
100
AcDbEntity
  8
NUMBERS
100
AcDbPolyline
 90
2
 70
0
 10
9.659333333333334
 20
0.2
 10
9.712666666666667
 20
0.28
  0
LWPOLYLINE
  5
1A9
330
17
100
AcDbEntity
  8
NUMBERS
100
AcDbPolyline
 90
5
 70
0
 10
9.758000000000001
 20
0.2
 10
9.763333333333335
 20
0.2
 10
9.763333333333335
 20
0.20533333333333334
 10
9.758000000000001
 20
0.20533333333333334
 10
9.758000000000001
 20
0.2
  0
LWPOLYLINE
  5
1AA
330
17
100
AcDbEntity
  8
NUMBERS
100
AcDbPolyline
 90
5
 70
0
 10
9.808666666666669
 20
0.2
 10
9.862000000000002
 20
0.2
 10
9.862000000000002
 20
0.28
 10
9.808666666666669
 20
0.28
 10
9.808666666666669
 20
0.2
  0
LWPOLYLINE
  5
1AB
330
17
100
AcDbEntity
  8
NUMBERS
100
AcDbPolyline
 90
2
 70
0
 10
9.808666666666669
 20
0.2
 10
9.862000000000002
 20
0.28
  0
LWPOLYLINE
  5
1AC
330
17
100
AcDbEntity
  8
NUMBERS
100
AcDbPolyline
 90
7
 70
0
 10
9.93666666666667
 20
0.28
 10
9.89666666666667
 20
0.28
 10
9.883333333333336
 20
0.2666666666666667
 10
9.883333333333336
 20
0.2
 10
9.93666666666667
 20
0.2
 10
9.93666666666667
 20
0.24000000000000002
 10
9.883333333333336
 20
0.24000000000000002
  0
LWPOLYLINE
  5
1AD
330
17
100
AcDbEntity
  8
NUMBERS
100
AcDbPolyline
 90
7
 70
0
 10
9.958000000000002
 20
0.2666666666666667
 10
9.971333333333336
 20
0.28
 10
9.998000000000001
 20
0.28
 10
10.011333333333335
 20
0.2666666666666667
 10
10.011333333333335
 20
0.25333333333333335
 10
9.958000000000002
 20
0.2
 10
10.011333333333335
 20
0.2
  0
LWPOLYLINE
  5
1AE
330
17
100
AcDbEntity
  8
NUMBERS
100
AcDbPolyline
 90
8
 70
0
 10
10.086
 20
0.28
 10
10.032666666666668
 20
0.28
 10
10.032666666666668
 20
0.2466666666666667
 10
10.072666666666667
 20
0.2466666666666667
 10
10.086
 20
0.23333333333333334
 10
10.086
 20
0.21333333333333335
 10
10.072666666666667
 20
0.2
 10
10.032666666666668
 20
0.2
  0
LWPOLYLINE
  5
1AF
330
17
100
AcDbEntity
  8
NUMBERS
100
AcDbPolyline
 90
2
 70
0
 10
10.195333333333336
 20
0.2
 10
10.222000000000001
 20
0.2
  0
LWPOLYLINE
  5
1B0
330
17
100
AcDbEntity
  8
NUMBERS
100
AcDbPolyline
 90
2
 70
0
 10
10.20866666666667
 20
0.2
 10
10.20866666666667
 20
0.28
  0
LWPOLYLINE
  5
1B1
330
17
100
AcDbEntity
  8
NUMBERS
100
AcDbPolyline
 90
2
 70
0
 10
10.195333333333336
 20
0.28
 10
10.222000000000001
 20
0.28
  0
LWPOLYLINE
  5
1B2
330
17
100
AcDbEntity
  8
NUMBERS
100
AcDbPolyline
 90
4
 70
0
 10
10.25666666666667
 20
0.2
 10
10.25666666666667
 20
0.28
 10
10.310000000000002
 20
0.2
 10
10.310000000000002
 20
0.28
  0
LWPOLYLINE
  5
1B3
330
17
100
AcDbEntity
  8
NUMBERS
100
AcDbPolyline
 90
2
 70
0
 10
10.555333333333335
 20
0.2
 10
10.555333333333335
 20
0.28
  0
LWPOLYLINE
  5
1B4
330
17
100
AcDbEntity
  8
NUMBERS
100
AcDbPolyline
 90
2
 70
0
 10
10.608666666666668
 20
0.28
 10
10.555333333333335
 20
0.23333333333333334
  0
LWPOLYLINE
  5
1B5
330
17
100
AcDbEntity
  8
NUMBERS
100
AcDbPolyline
 90
2
 70
0
 10
10.572666666666668
 20
0.2466666666666667
 10
10.608666666666668
 20
0.2
  0
LWPOLYLINE
  5
1B6
330
17
100
AcDbEntity
  8
NUMBERS
100
AcDbPolyline
 90
4
 70
0
 10
10.683333333333335
 20
0.28
 10
10.630000000000003
 20
0.28
 10
10.630000000000003
 20
0.2
 10
10.683333333333335
 20
0.2
  0
LWPOLYLINE
  5
1B7
330
17
100
AcDbEntity
  8
NUMBERS
100
AcDbPolyline
 90
2
 70
0
 10
10.630000000000003
 20
0.24000000000000002
 10
10.670000000000002
 20
0.24000000000000002
  0
LWPOLYLINE
  5
1B8
330
17
100
AcDbEntity
  8
NUMBERS
100
AcDbPolyline
 90
6
 70
0
 10
10.704666666666668
 20
0.2
 10
10.704666666666668
 20
0.28
 10
10.758000000000001
 20
0.28
 10
10.758000000000001
 20
0.24000000000000002
 10
10.704666666666668
 20
0.24000000000000002
 10
10.758000000000001
 20
0.2
  0
LWPOLYLINE
  5
1B9
330
17
100
AcDbEntity
  8
NUMBERS
100
AcDbPolyline
 90
3
 70
0
 10
10.832666666666668
 20
0.28
 10
10.779333333333335
 20
0.28
 10
10.779333333333335
 20
0.2
  0
LWPOLYLINE
  5
1BA
330
17
100
AcDbEntity
  8
NUMBERS
100
AcDbPolyline
 90
2
 70
0
 10
10.779333333333335
 20
0.24000000000000002
 10
10.819333333333335
 20
0.24000000000000002
  0
LWPOLYLINE
  5
1BB
330
17
100
AcDbEntity
  8
NUMBERS
100
AcDbPolyline
 90
2
 70
0
 10
10.860666666666669
 20
0.22666666666666668
 10
10.90066666666667
 20
0.22666666666666668
  0
LWPOLYLINE
  5
1BC
330
17
100
AcDbEntity
  8
NUMBERS
100
AcDbPolyline
 90
2
 70
0
 10
10.860666666666669
 20
0.25333333333333335
 10
10.90066666666667
 20
0.25333333333333335
  0
LWPOLYLINE
  5
1BD
330
17
100
AcDbEntity
  8
NUMBERS
100
AcDbPolyline
 90
5
 70
0
 10
10.928666666666668
 20
0.2
 10
10.982000000000001
 20
0.2
 10
10.982000000000001
 20
0.28
 10
10.928666666666668
 20
0.28
 10
10.928666666666668
 20
0.2
  0
LWPOLYLINE
  5
1BE
330
17
100
AcDbEntity
  8
NUMBERS
100
AcDbPolyline
 90
2
 70
0
 10
10.928666666666668
 20
0.2
 10
10.982000000000001
 20
0.28
  0
LWPOLYLINE
  5
1BF
330
17
100
AcDbEntity
  8
NUMBERS
100
AcDbPolyline
 90
5
 70
0
 10
11.027333333333335
 20
0.2
 10
11.03266666666667
 20
0.2
 10
11.03266666666667
 20
0.20533333333333334
 10
11.027333333333335
 20
0.20533333333333334
 10
11.027333333333335
 20
0.2
  0
LWPOLYLINE
  5
1C0
330
17
100
AcDbEntity
  8
NUMBERS
100
AcDbPolyline
 90
5
 70
0
 10
11.078000000000001
 20
0.2
 10
11.131333333333334
 20
0.2
 10
11.131333333333334
 20
0.28
 10
11.078000000000001
 20
0.28
 10
11.078000000000001
 20
0.2
  0
LWPOLYLINE
  5
1C1
330
17
100
AcDbEntity
  8
NUMBERS
100
AcDbPolyline
 90
2
 70
0
 10
11.078000000000001
 20
0.2
 10
11.131333333333334
 20
0.28
  0
LWPOLYLINE
  5
1C2
330
17
100
AcDbEntity
  8
NUMBERS
100
AcDbPolyline
 90
5
 70
0
 10
11.152666666666669
 20
0.2
 10
11.206000000000001
 20
0.2
 10
11.206000000000001
 20
0.28
 10
11.152666666666669
 20
0.28
 10
11.152666666666669
 20
0.2
  0
LWPOLYLINE
  5
1C3
330
17
100
AcDbEntity
  8
NUMBERS
100
AcDbPolyline
 90
2
 70
0
 10
11.152666666666669
 20
0.2
 10
11.206000000000001
 20
0.28
  0
LWPOLYLINE
  5
1C4
330
17
100
AcDbEntity
  8
NUMBERS
100
AcDbPolyline
 90
5
 70
0
 10
11.227333333333336
 20
0.2
 10
11.280666666666669
 20
0.2
 10
11.280666666666669
 20
0.28
 10
11.227333333333336
 20
0.28
 10
11.227333333333336
 20
0.2
  0
LWPOLYLINE
  5
1C5
330
17
100
AcDbEntity
  8
NUMBERS
100
AcDbPolyline
 90
2
 70
0
 10
11.227333333333336
 20
0.2
 10
11.280666666666669
 20
0.28
  0
LWPOLYLINE
  5
1C6
330
17
100
AcDbEntity
  8
NUMBERS
100
AcDbPolyline
 90
5
 70
0
 10
11.302000000000003
 20
0.2
 10
11.355333333333336
 20
0.2
 10
11.355333333333336
 20
0.28
 10
11.302000000000003
 20
0.28
 10
11.302000000000003
 20
0.2
  0
LWPOLYLINE
  5
1C7
330
17
100
AcDbEntity
  8
NUMBERS
100
AcDbPolyline
 90
2
 70
0
 10
11.302000000000003
 20
0.2
 10
11.355333333333336
 20
0.28
  0
LWPOLYLINE
  5
1C8
330
17
100
AcDbEntity
  8
NUMBERS
100
AcDbPolyline
 90
2
 70
0
 10
11.464666666666668
 20
0.2
 10
11.491333333333333
 20
0.2
  0
LWPOLYLINE
  5
1C9
330
17
100
AcDbEntity
  8
NUMBERS
100
AcDbPolyline
 90
2
 70
0
 10
11.478000000000002
 20
0.2
 10
11.478000000000002
 20
0.28
  0
LWPOLYLINE
  5
1CA
330
17
100
AcDbEntity
  8
NUMBERS
100
AcDbPolyline
 90
2
 70
0
 10
11.464666666666668
 20
0.28
 10
11.491333333333333
 20
0.28
  0
LWPOLYLINE
  5
1CB
330
17
100
AcDbEntity
  8
NUMBERS
100
AcDbPolyline
 90
4
 70
0
 10
11.526000000000002
 20
0.2
 10
11.526000000000002
 20
0.28
 10
11.579333333333334
 20
0.2
 10
11.579333333333334
 20
0.28
  0
LWPOLYLINE
  5
1CC
330
17
100
AcDbEntity
  8
NUMBERS
100
AcDbPolyline
 90
4
 70
0
 10
11.715333333333335
 20
0.28
 10
11.695333333333336
 20
0.26
 10
11.695333333333336
 20
0.22000000000000003
 10
11.715333333333335
 20
0.2
  0
LWPOLYLINE
  5
1CD
330
17
100
AcDbEntity
  8
NUMBERS
100
AcDbPolyline
 90
4
 70
0
 10
11.750000000000004
 20
0.28
 10
11.750000000000004
 20
0.2
 10
11.803333333333336
 20
0.2
 10
11.803333333333336
 20
0.28
  0
LWPOLYLINE
  5
1CE
330
17
100
AcDbEntity
  8
NUMBERS
100
AcDbPolyline
 90
6
 70
0
 10
11.878000000000002
 20
0.28
 10
11.824666666666669
 20
0.28
 10
11.824666666666669
 20
0.24000000000000002
 10
11.878000000000002
 20
0.24000000000000002
 10
11.878000000000002
 20
0.2
 10
11.824666666666669
 20
0.2
  0
LWPOLYLINE
  5
1CF
330
17
100
AcDbEntity
  8
NUMBERS
100
AcDbPolyline
 90
4
 70
0
 10
11.952666666666667
 20
0.28
 10
11.899333333333335
 20
0.28
 10
11.899333333333335
 20
0.2
 10
11.952666666666667
 20
0.2
  0
LWPOLYLINE
  5
1D0
330
17
100
AcDbEntity
  8
NUMBERS
100
AcDbPolyline
 90
2
 70
0
 10
11.899333333333335
 20
0.24000000000000002
 10
11.939333333333334
 20
0.24000000000000002
  0
LWPOLYLINE
  5
1D1
330
17
100
AcDbEntity
  8
NUMBERS
100
AcDbPolyline
 90
6
 70
0
 10
11.974000000000002
 20
0.2
 10
11.974000000000002
 20
0.28
 10
12.027333333333335
 20
0.28
 10
12.027333333333335
 20
0.24000000000000002
 10
11.974000000000002
 20
0.24000000000000002
 10
12.027333333333335
 20
0.2
  0
LWPOLYLINE
  5
1D2
330
17
100
AcDbEntity
  8
NUMBERS
100
AcDbPolyline
 90
5
 70
0
 10
12.123333333333337
 20
0.2
 10
12.123333333333337
 20
0.25333333333333335
 10
12.150000000000004
 20
0.28
 10
12.17666666666667
 20
0.25333333333333335
 10
12.17666666666667
 20
0.2
  0
LWPOLYLINE
  5
1D3
330
17
100
AcDbEntity
  8
NUMBERS
100
AcDbPolyline
 90
2
 70
0
 10
12.123333333333337
 20
0.24000000000000002
 10
12.17666666666667
 20
0.24000000000000002
  0
LWPOLYLINE
  5
1D4
330
17
100
AcDbEntity
  8
NUMBERS
100
AcDbPolyline
 90
7
 70
0
 10
12.198000000000002
 20
0.2
 10
12.198000000000002
 20
0.28
 10
12.231333333333335
 20
0.28
 10
12.251333333333335
 20
0.26
 10
12.251333333333335
 20
0.22000000000000003
 10
12.231333333333335
 20
0.2
 10
12.198000000000002
 20
0.2
  0
LWPOLYLINE
  5
1D5
330
17
100
AcDbEntity
  8
NUMBERS
100
AcDbPolyline
 90
5
 70
0
 10
12.326000000000002
 20
0.28
 10
12.326000000000002
 20
0.21333333333333335
 10
12.312666666666669
 20
0.2
 10
12.286000000000003
 20
0.2
 10
12.27266666666667
 20
0.21333333333333335
  0
LWPOLYLINE
  5
1D6
330
17
100
AcDbEntity
  8
NUMBERS
100
AcDbPolyline
 90
4
 70
0
 10
12.347333333333335
 20
0.28
 10
12.347333333333335
 20
0.2
 10
12.400666666666668
 20
0.2
 10
12.400666666666668
 20
0.28
  0
LWPOLYLINE
  5
1D7
330
17
100
AcDbEntity
  8
NUMBERS
100
AcDbPolyline
 90
6
 70
0
 10
12.475333333333335
 20
0.28
 10
12.422000000000002
 20
0.28
 10
12.422000000000002
 20
0.24000000000000002
 10
12.475333333333335
 20
0.24000000000000002
 10
12.475333333333335
 20
0.2
 10
12.422000000000002
 20
0.2
  0
LWPOLYLINE
  5
1D8
330
17
100
AcDbEntity
  8
NUMBERS
100
AcDbPolyline
 90
2
 70
0
 10
12.49666666666667
 20
0.28
 10
12.550000000000002
 20
0.28
  0
LWPOLYLINE
  5
1D9
330
17
100
AcDbEntity
  8
NUMBERS
100
AcDbPolyline
 90
2
 70
0
 10
12.523333333333337
 20
0.28
 10
12.523333333333337
 20
0.2
  0
LWPOLYLINE
  5
1DA
330
17
100
AcDbEntity
  8
NUMBERS
100
AcDbPolyline
 90
5
 70
0
 10
12.571333333333335
 20
0.2
 10
12.571333333333335
 20
0.25333333333333335
 10
12.598000000000003
 20
0.28
 10
12.624666666666668
 20
0.25333333333333335
 10
12.624666666666668
 20
0.2
  0
LWPOLYLINE
  5
1DB
330
17
100
AcDbEntity
  8
NUMBERS
100
AcDbPolyline
 90
2
 70
0
 10
12.571333333333335
 20
0.24000000000000002
 10
12.624666666666668
 20
0.24000000000000002
  0
LWPOLYLINE
  5
1DC
330
17
100
AcDbEntity
  8
NUMBERS
100
AcDbPolyline
 90
7
 70
0
 10
12.646000000000003
 20
0.2
 10
12.646000000000003
 20
0.28
 10
12.686000000000002
 20
0.28
 10
12.699333333333335
 20
0.2666666666666667
 10
12.699333333333335
 20
0.25333333333333335
 10
12.686000000000002
 20
0.24000000000000002
 10
12.646000000000003
 20
0.24000000000000002
  0
LWPOLYLINE
  5
1DD
330
17
100
AcDbEntity
  8
NUMBERS
100
AcDbPolyline
 90
5
 70
0
 10
12.686000000000002
 20
0.24000000000000002
 10
12.699333333333335
 20
0.22666666666666668
 10
12.699333333333335
 20
0.21333333333333335
 10
12.686000000000002
 20
0.2
 10
12.646000000000003
 20
0.2
  0
LWPOLYLINE
  5
1DE
330
17
100
AcDbEntity
  8
NUMBERS
100
AcDbPolyline
 90
3
 70
0
 10
12.72066666666667
 20
0.28
 10
12.72066666666667
 20
0.2
 10
12.774000000000003
 20
0.2
  0
LWPOLYLINE
  5
1DF
330
17
100
AcDbEntity
  8
NUMBERS
100
AcDbPolyline
 90
4
 70
0
 10
12.848666666666668
 20
0.28
 10
12.795333333333335
 20
0.28
 10
12.795333333333335
 20
0.2
 10
12.848666666666668
 20
0.2
  0
LWPOLYLINE
  5
1E0
330
17
100
AcDbEntity
  8
NUMBERS
100
AcDbPolyline
 90
2
 70
0
 10
12.795333333333335
 20
0.24000000000000002
 10
12.835333333333335
 20
0.24000000000000002
  0
LWPOLYLINE
  5
1E1
330
17
100
AcDbEntity
  8
NUMBERS
100
AcDbPolyline
 90
4
 70
0
 10
12.883333333333335
 20
0.28
 10
12.903333333333334
 20
0.26
 10
12.903333333333334
 20
0.22000000000000003
 10
12.883333333333335
 20
0.2
  0
LWPOLYLINE
  5
1E2
330
17
100
AcDbEntity
  8
NUMBERS
100
AcDbPolyline
 90
7
 70
0
 10
13.16866666666667
 20
0.28
 10
13.222000000000003
 20
0.28
 10
13.195333333333338
 20
0.2466666666666667
 10
13.222000000000003
 20
0.23333333333333334
 10
13.222000000000003
 20
0.21333333333333335
 10
13.20866666666667
 20
0.2
 10
13.16866666666667
 20
0.2
  0
LWPOLYLINE
  5
1E3
330
17
100
AcDbEntity
  8
NUMBERS
100
AcDbPolyline
 90
5
 70
0
 10
13.243333333333336
 20
0.2
 10
13.296666666666669
 20
0.2
 10
13.296666666666669
 20
0.28
 10
13.243333333333336
 20
0.28
 10
13.243333333333336
 20
0.2
  0
LWPOLYLINE
  5
1E4
330
17
100
AcDbEntity
  8
NUMBERS
100
AcDbPolyline
 90
2
 70
0
 10
13.243333333333336
 20
0.2
 10
13.296666666666669
 20
0.28
  0
LWPOLYLINE
  5
1E5
330
17
100
AcDbEntity
  8
NUMBERS
100
AcDbPolyline
 90
2
 70
0
 10
13.392666666666669
 20
0.2
 10
13.446000000000002
 20
0.28
  0
LWPOLYLINE
  5
1E6
330
17
100
AcDbEntity
  8
NUMBERS
100
AcDbPolyline
 90
2
 70
0
 10
13.392666666666669
 20
0.28
 10
13.446000000000002
 20
0.2
  0
LWPOLYLINE
  5
1E7
330
17
100
AcDbEntity
  8
NUMBERS
100
AcDbPolyline
 90
7
 70
0
 10
13.542000000000003
 20
0.2666666666666667
 10
13.555333333333337
 20
0.28
 10
13.582000000000003
 20
0.28
 10
13.595333333333336
 20
0.2666666666666667
 10
13.595333333333336
 20
0.25333333333333335
 10
13.542000000000003
 20
0.2
 10
13.595333333333336
 20
0.2
  0
LWPOLYLINE
  5
1E8
330
17
100
AcDbEntity
  8
NUMBERS
100
AcDbPolyline
 90
5
 70
0
 10
13.616666666666669
 20
0.2
 10
13.670000000000002
 20
0.2
 10
13.670000000000002
 20
0.28
 10
13.616666666666669
 20
0.28
 10
13.616666666666669
 20
0.2
  0
LWPOLYLINE
  5
1E9
330
17
100
AcDbEntity
  8
NUMBERS
100
AcDbPolyline
 90
2
 70
0
 10
13.616666666666669
 20
0.2
 10
13.670000000000002
 20
0.28
  0
LWPOLYLINE
  5
1EA
330
17
100
AcDbEntity
  8
NUMBERS
100
AcDbPolyline
 90
2
 70
0
 10
13.779333333333335
 20
0.2
 10
13.806000000000001
 20
0.2
  0
LWPOLYLINE
  5
1EB
330
17
100
AcDbEntity
  8
NUMBERS
100
AcDbPolyline
 90
2
 70
0
 10
13.792666666666669
 20
0.2
 10
13.792666666666669
 20
0.28
  0
LWPOLYLINE
  5
1EC
330
17
100
AcDbEntity
  8
NUMBERS
100
AcDbPolyline
 90
2
 70
0
 10
13.779333333333335
 20
0.28
 10
13.806000000000001
 20
0.28
  0
LWPOLYLINE
  5
1ED
330
17
100
AcDbEntity
  8
NUMBERS
100
AcDbPolyline
 90
4
 70
0
 10
13.84066666666667
 20
0.2
 10
13.84066666666667
 20
0.28
 10
13.894000000000002
 20
0.2
 10
13.894000000000002
 20
0.28
  0
LWPOLYLINE
  5
1EE
330
17
100
AcDbEntity
  8
NUMBERS
100
AcDbPolyline
 90
2
 70
0
 10
0.32999999999999996
 20
19.759999999999998
 10
0.3833333333333333
 20
19.759999999999998
  0
LWPOLYLINE
  5
1EF
330
17
100
AcDbEntity
  8
NUMBERS
100
AcDbPolyline
 90
2
 70
0
 10
0.35666666666666663
 20
19.759999999999998
 10
0.35666666666666663
 20
19.68
  0
LWPOLYLINE
  5
1F0
330
17
100
AcDbEntity
  8
NUMBERS
100
AcDbPolyline
 90
5
 70
0
 10
0.4046666666666666
 20
19.68
 10
0.45799999999999996
 20
19.68
 10
0.45799999999999996
 20
19.759999999999998
 10
0.4046666666666666
 20
19.759999999999998
 10
0.4046666666666666
 20
19.68
  0
LWPOLYLINE
  5
1F1
330
17
100
AcDbEntity
  8
NUMBERS
100
AcDbPolyline
 90
5
 70
0
 10
0.4793333333333333
 20
19.68
 10
0.4793333333333333
 20
19.759999999999998
 10
0.5326666666666666
 20
19.759999999999998
 10
0.5326666666666666
 20
19.72
 10
0.4793333333333333
 20
19.72
  0
LWPOLYLINE
  5
1F2
330
17
100
AcDbEntity
  8
NUMBERS
100
AcDbPolyline
 90
6
 70
0
 10
0.682
 20
19.759999999999998
 10
0.6286666666666667
 20
19.759999999999998
 10
0.6286666666666667
 20
19.72
 10
0.682
 20
19.72
 10
0.682
 20
19.68
 10
0.6286666666666667
 20
19.68
  0
LWPOLYLINE
  5
1F3
330
17
100
AcDbEntity
  8
NUMBERS
100
AcDbPolyline
 90
2
 70
0
 10
0.7033333333333334
 20
19.68
 10
0.7033333333333334
 20
19.759999999999998
  0
LWPOLYLINE
  5
1F4
330
17
100
AcDbEntity
  8
NUMBERS
100
AcDbPolyline
 90
2
 70
0
 10
0.7566666666666667
 20
19.68
 10
0.7566666666666667
 20
19.759999999999998
  0
LWPOLYLINE
  5
1F5
330
17
100
AcDbEntity
  8
NUMBERS
100
AcDbPolyline
 90
2
 70
0
 10
0.7033333333333334
 20
19.72
 10
0.7566666666666667
 20
19.72
  0
LWPOLYLINE
  5
1F6
330
17
100
AcDbEntity
  8
NUMBERS
100
AcDbPolyline
 90
4
 70
0
 10
0.8313333333333334
 20
19.759999999999998
 10
0.778
 20
19.759999999999998
 10
0.778
 20
19.68
 10
0.8313333333333334
 20
19.68
  0
LWPOLYLINE
  5
1F7
330
17
100
AcDbEntity
  8
NUMBERS
100
AcDbPolyline
 90
2
 70
0
 10
0.778
 20
19.72
 10
0.8180000000000001
 20
19.72
  0
LWPOLYLINE
  5
1F8
330
17
100
AcDbEntity
  8
NUMBERS
100
AcDbPolyline
 90
4
 70
0
 10
0.906
 20
19.759999999999998
 10
0.8526666666666667
 20
19.759999999999998
 10
0.8526666666666667
 20
19.68
 10
0.906
 20
19.68
  0
LWPOLYLINE
  5
1F9
330
17
100
AcDbEntity
  8
NUMBERS
100
AcDbPolyline
 90
2
 70
0
 10
0.8526666666666667
 20
19.72
 10
0.8926666666666667
 20
19.72
  0
LWPOLYLINE
  5
1FA
330
17
100
AcDbEntity
  8
NUMBERS
100
AcDbPolyline
 90
2
 70
0
 10
0.9273333333333333
 20
19.759999999999998
 10
0.9806666666666667
 20
19.759999999999998
  0
LWPOLYLINE
  5
1FB
330
17
100
AcDbEntity
  8
NUMBERS
100
AcDbPolyline
 90
2
 70
0
 10
0.954
 20
19.759999999999998
 10
0.954
 20
19.68
  0
LWPOLYLINE
  5
1FC
330
17
100
AcDbEntity
  8
NUMBERS
100
AcDbPolyline
 90
2
 70
0
 10
1.0086666666666668
 20
19.72
 10
1.0486666666666669
 20
19.72
  0
LWPOLYLINE
  5
1FD
330
17
100
AcDbEntity
  8
NUMBERS
100
AcDbPolyline
 90
5
 70
0
 10
1.0766666666666667
 20
19.68
 10
1.13
 20
19.68
 10
1.13
 20
19.759999999999998
 10
1.0766666666666667
 20
19.759999999999998
 10
1.0766666666666667
 20
19.68
  0
LWPOLYLINE
  5
1FE
330
17
100
AcDbEntity
  8
NUMBERS
100
AcDbPolyline
 90
2
 70
0
 10
1.0766666666666667
 20
19.68
 10
1.13
 20
19.759999999999998
  0
LWPOLYLINE
  5
1FF
330
17
100
AcDbEntity
  8
NUMBERS
100
AcDbPolyline
 90
7
 70
0
 10
1.1513333333333335
 20
19.746666666666666
 10
1.164666666666667
 20
19.759999999999998
 10
1.1913333333333336
 20
19.759999999999998
 10
1.2046666666666668
 20
19.746666666666666
 10
1.2046666666666668
 20
19.733333333333334
 10
1.1513333333333335
 20
19.68
 10
1.2046666666666668
 20
19.68
  0
LWPOLYLINE
  5
200
330
17
100
AcDbEntity
  8
BOUNDARY
100
AcDbPolyline
 90
4
 70
1
 10
30.0
 20
0.0
 10
30.0
 20
20.0
 10
0.0
 20
20.0
 10
0.0
 20
0.0
  0
LWPOLYLINE
  5
201
330
17
100
AcDbEntity
  8
BOUNDARY
100
AcDbPolyline
 90
4
 70
1
 10
29.5
 20
0.5
 10
29.5
 20
19.5
 10
0.5
 20
19.5
 10
0.5
 20
0.5
  0
ENDSEC
  0
SECTION
  2
OBJECTS
  0
DICTIONARY
  5
A
330
0
100
AcDbDictionary
281
1
  3
ACAD_COLOR
350
B
  3
ACAD_GROUP
350
C
  3
ACAD_LAYOUT
350
D
  3
ACAD_MATERIAL
350
E
  3
ACAD_MLEADERSTYLE
350
F
  3
ACAD_MLINESTYLE
350
10
  3
ACAD_PLOTSETTINGS
350
11
  3
ACAD_PLOTSTYLENAME
350
12
  3
ACAD_SCALELIST
350
14
  3
ACAD_TABLESTYLE
350
15
  3
ACAD_VISUALSTYLE
350
16
  3
EZDXF_META
350
2D
  0
DICTIONARY
  5
B
330
A
100
AcDbDictionary
281
1
  0
DICTIONARY
  5
C
330
A
100
AcDbDictionary
281
1
  0
DICTIONARY
  5
D
330
A
100
AcDbDictionary
281
1
  3
Model
350
1A
  3
Layout1
350
1E
  0
DICTIONARY
  5
E
330
A
100
AcDbDictionary
281
1
  3
ByBlock
350
1F
  3
ByLayer
350
20
  3
Global
350
21
  0
DICTIONARY
  5
F
330
A
100
AcDbDictionary
281
1
  3
Standard
350
2C
  0
DICTIONARY
  5
10
330
A
100
AcDbDictionary
281
1
  3
Standard
350
22
  0
DICTIONARY
  5
11
330
A
100
AcDbDictionary
281
1
  0
ACDBDICTIONARYWDFLT
  5
12
330
A
100
AcDbDictionary
281
1
  3
Normal
350
13
100
AcDbDictionaryWithDefault
340
13
  0
ACDBPLACEHOLDER
  5
13
330
12
  0
DICTIONARY
  5
14
330
A
100
AcDbDictionary
281
1
  0
DICTIONARY
  5
15
330
A
100
AcDbDictionary
281
1
  0
DICTIONARY
  5
16
330
A
100
AcDbDictionary
281
1
  0
LAYOUT
  5
1A
330
D
100
AcDbPlotSettings
  1

  4
A3
  6

 40
7.5
 41
20.0
 42
7.5
 43
20.0
 44
420.0
 45
297.0
 46
0.0
 47
0.0
 48
0.0
 49
0.0
140
0.0
141
0.0
142
1.0
143
1.0
 70
1024
 72
1
 73
0
 74
5
  7

 75
16
 76
0
 77
2
 78
300
147
1.0
148
0.0
149
0.0
100
AcDbLayout
  1
Model
 70
1
 71
0
 10
0.0
 20
0.0
 11
420.0
 21
297.0
 12
0.0
 22
0.0
 32
0.0
 14
1e+20
 24
1e+20
 34
1e+20
 15
-1e+20
 25
-1e+20
 35
-1e+20
146
0.0
 13
0.0
 23
0.0
 33
0.0
 16
1.0
 26
0.0
 36
0.0
 17
0.0
 27
1.0
 37
0.0
 76
1
330
17
  0
LAYOUT
  5
1E
330
D
100
AcDbPlotSettings
  1

  4
A3
  6

 40
7.5
 41
20.0
 42
7.5
 43
20.0
 44
420.0
 45
297.0
 46
0.0
 47
0.0
 48
0.0
 49
0.0
140
0.0
141
0.0
142
1.0
143
1.0
 70
0
 72
1
 73
0
 74
5
  7

 75
16
 76
0
 77
2
 78
300
147
1.0
148
0.0
149
0.0
100
AcDbLayout
  1
Layout1
 70
1
 71
1
 10
0.0
 20
0.0
 11
420.0
 21
297.0
 12
0.0
 22
0.0
 32
0.0
 14
1e+20
 24
1e+20
 34
1e+20
 15
-1e+20
 25
-1e+20
 35
-1e+20
146
0.0
 13
0.0
 23
0.0
 33
0.0
 16
1.0
 26
0.0
 36
0.0
 17
0.0
 27
1.0
 37
0.0
 76
1
330
1B
  0
MATERIAL
  5
1F
102
{ACAD_REACTORS
330
E
102
}
330
E
100
AcDbMaterial
  1
ByBlock
  2

 70
0
 40
1.0
 71
1
 41
1.0
 91
-1023410177
 42
1.0
 72
1
  3

 73
1
 74
1
 75
1
 44
0.5
 73
0
 45
1.0
 46
1.0
 77
1
  4

 78
1
 79
1
170
1
 48
1.0
171
1
  6

172
1
173
1
174
1
140
1.0
141
1.0
175
1
  7

176
1
177
1
178
1
143
1.0
179
1
  8

270
1
271
1
272
1
145
1.0
146
1.0
273
1
  9

274
1
275
1
276
1
 42
1.0
 72
1
  3

 73
1
 74
1
 75
1
 94
63
  0
MATERIAL
  5
20
102
{ACAD_REACTORS
330
E
102
}
330
E
100
AcDbMaterial
  1
ByLayer
  2

 70
0
 40
1.0
 71
1
 41
1.0
 91
-1023410177
 42
1.0
 72
1
  3

 73
1
 74
1
 75
1
 44
0.5
 73
0
 45
1.0
 46
1.0
 77
1
  4

 78
1
 79
1
170
1
 48
1.0
171
1
  6

172
1
173
1
174
1
140
1.0
141
1.0
175
1
  7

176
1
177
1
178
1
143
1.0
179
1
  8

270
1
271
1
272
1
145
1.0
146
1.0
273
1
  9

274
1
275
1
276
1
 42
1.0
 72
1
  3

 73
1
 74
1
 75
1
 94
63
  0
MATERIAL
  5
21
102
{ACAD_REACTORS
330
E
102
}
330
E
100
AcDbMaterial
  1
Global
  2

 70
0
 40
1.0
 71
1
 41
1.0
 91
-1023410177
 42
1.0
 72
1
  3

 73
1
 74
1
 75
1
 44
0.5
 73
0
 45
1.0
 46
1.0
 77
1
  4

 78
1
 79
1
170
1
 48
1.0
171
1
  6

172
1
173
1
174
1
140
1.0
141
1.0
175
1
  7

176
1
177
1
178
1
143
1.0
179
1
  8

270
1
271
1
272
1
145
1.0
146
1.0
273
1
  9

274
1
275
1
276
1
 42
1.0
 72
1
  3

 73
1
 74
1
 75
1
 94
63
  0
MLINESTYLE
  5
22
102
{ACAD_REACTORS
330
10
102
}
330
10
100
AcDbMlineStyle
  2
Standard
 70
0
  3

 62
256
 51
90.0
 52
90.0
 71
2
 49
0.5
 62
256
  6
BYLAYER
 49
-0.5
 62
256
  6
BYLAYER
  0
MLEADERSTYLE
  5
2C
102
{ACAD_REACTORS
330
F
102
}
330
F
100
AcDbMLeaderStyle
179
2
170
2
171
1
172
0
 90
2
 40
0.0
 41
0.0
173
1
 91
-1056964608
 92
-2
290
1
 42
2.0
291
1
 43
8.0
  3
Standard
 44
4.0
300

342
29
174
1
175
1
176
0
178
1
 93
-1056964608
 45
4.0
292
0
297
0
 46
4.0
 94
-1056964608
 47
1.0
 49
1.0
140
1.0
294
1
141
0.0
177
0
142
1.0
295
0
296
0
143
3.75
271
0
272
9
273
9
  0
DICTIONARY
  5
2D
330
A
100
AcDbDictionary
280
1
281
1
  3
CREATED_BY_EZDXF
350
2E
  3
WRITTEN_BY_EZDXF
350
204
  0
DICTIONARYVAR
  5
2E
330
2D
100
DictionaryVariables
280
0
  1
1.4.4 @ 2026-10-05T22:04:55.656460+00:00
  0
DICTIONARYVAR
  5
204
330
2D
100
DictionaryVariables
280
0
  1
1.4.4 @ 2026-10-05T22:04:55.678334+00:00
  0
ENDSEC
  0
EOF
